<?xml version="1.0" encoding="utf-8"?>
<svg xmlns="http://www.w3.org/2000/svg" xmlns:xlink="http://www.w3.org/1999/xlink" width="600" height="400" viewBox="0 0 2400 1600">
<defs>
  <clipPath id="clip710">
    <rect x="0" y="0" width="2400" height="1600"/>
  </clipPath>
</defs>
<path clip-path="url(#clip710)" d="M0 1600 L2400 1600 L2400 0 L0 0  Z" fill="#ffffff" fill-rule="evenodd" fill-opacity="1"/>
<defs>
  <clipPath id="clip711">
    <rect x="480" y="0" width="1681" height="1600"/>
  </clipPath>
</defs>
<path clip-path="url(#clip710)" d="M249.542 1423.18 L2352.76 1423.18 L2352.76 123.472 L249.542 123.472  Z" fill="#ffffff" fill-rule="evenodd" fill-opacity="1"/>
<defs>
  <clipPath id="clip712">
    <rect x="249" y="123" width="2104" height="1301"/>
  </clipPath>
</defs>
<polyline clip-path="url(#clip712)" style="stroke:#000000; stroke-linecap:round; stroke-linejoin:round; stroke-width:2; stroke-opacity:0.1; fill:none" points="309.067,1423.18 309.067,123.472 "/>
<polyline clip-path="url(#clip712)" style="stroke:#000000; stroke-linecap:round; stroke-linejoin:round; stroke-width:2; stroke-opacity:0.1; fill:none" points="805.108,1423.18 805.108,123.472 "/>
<polyline clip-path="url(#clip712)" style="stroke:#000000; stroke-linecap:round; stroke-linejoin:round; stroke-width:2; stroke-opacity:0.1; fill:none" points="1301.15,1423.18 1301.15,123.472 "/>
<polyline clip-path="url(#clip712)" style="stroke:#000000; stroke-linecap:round; stroke-linejoin:round; stroke-width:2; stroke-opacity:0.1; fill:none" points="1797.19,1423.18 1797.19,123.472 "/>
<polyline clip-path="url(#clip712)" style="stroke:#000000; stroke-linecap:round; stroke-linejoin:round; stroke-width:2; stroke-opacity:0.1; fill:none" points="2293.23,1423.18 2293.23,123.472 "/>
<polyline clip-path="url(#clip710)" style="stroke:#000000; stroke-linecap:round; stroke-linejoin:round; stroke-width:4; stroke-opacity:1; fill:none" points="249.542,1423.18 2352.76,1423.18 "/>
<polyline clip-path="url(#clip710)" style="stroke:#000000; stroke-linecap:round; stroke-linejoin:round; stroke-width:4; stroke-opacity:1; fill:none" points="309.067,1423.18 309.067,1404.28 "/>
<polyline clip-path="url(#clip710)" style="stroke:#000000; stroke-linecap:round; stroke-linejoin:round; stroke-width:4; stroke-opacity:1; fill:none" points="805.108,1423.18 805.108,1404.28 "/>
<polyline clip-path="url(#clip710)" style="stroke:#000000; stroke-linecap:round; stroke-linejoin:round; stroke-width:4; stroke-opacity:1; fill:none" points="1301.15,1423.18 1301.15,1404.28 "/>
<polyline clip-path="url(#clip710)" style="stroke:#000000; stroke-linecap:round; stroke-linejoin:round; stroke-width:4; stroke-opacity:1; fill:none" points="1797.19,1423.18 1797.19,1404.28 "/>
<polyline clip-path="url(#clip710)" style="stroke:#000000; stroke-linecap:round; stroke-linejoin:round; stroke-width:4; stroke-opacity:1; fill:none" points="2293.23,1423.18 2293.23,1404.28 "/>
<path clip-path="url(#clip710)" d="M287.25 1454.1 Q283.639 1454.1 281.81 1457.66 Q280.005 1461.2 280.005 1468.33 Q280.005 1475.44 281.81 1479.01 Q283.639 1482.55 287.25 1482.55 Q290.884 1482.55 292.69 1479.01 Q294.518 1475.44 294.518 1468.33 Q294.518 1461.2 292.69 1457.66 Q290.884 1454.1 287.25 1454.1 M287.25 1450.39 Q293.06 1450.39 296.116 1455 Q299.194 1459.58 299.194 1468.33 Q299.194 1477.06 296.116 1481.67 Q293.06 1486.25 287.25 1486.25 Q281.44 1486.25 278.361 1481.67 Q275.306 1477.06 275.306 1468.33 Q275.306 1459.58 278.361 1455 Q281.44 1450.39 287.25 1450.39 Z" fill="#000000" fill-rule="nonzero" fill-opacity="1" /><path clip-path="url(#clip710)" d="M307.412 1479.7 L312.296 1479.7 L312.296 1485.58 L307.412 1485.58 L307.412 1479.7 Z" fill="#000000" fill-rule="nonzero" fill-opacity="1" /><path clip-path="url(#clip710)" d="M326.509 1481.64 L342.828 1481.64 L342.828 1485.58 L320.884 1485.58 L320.884 1481.64 Q323.546 1478.89 328.129 1474.26 Q332.736 1469.61 333.916 1468.27 Q336.162 1465.74 337.041 1464.01 Q337.944 1462.25 337.944 1460.56 Q337.944 1457.8 336 1456.07 Q334.078 1454.33 330.977 1454.33 Q328.777 1454.33 326.324 1455.09 Q323.893 1455.86 321.116 1457.41 L321.116 1452.69 Q323.94 1451.55 326.393 1450.97 Q328.847 1450.39 330.884 1450.39 Q336.254 1450.39 339.449 1453.08 Q342.643 1455.77 342.643 1460.26 Q342.643 1462.39 341.833 1464.31 Q341.046 1466.2 338.939 1468.8 Q338.361 1469.47 335.259 1472.69 Q332.157 1475.88 326.509 1481.64 Z" fill="#000000" fill-rule="nonzero" fill-opacity="1" /><path clip-path="url(#clip710)" d="M782.249 1454.1 Q778.638 1454.1 776.81 1457.66 Q775.004 1461.2 775.004 1468.33 Q775.004 1475.44 776.81 1479.01 Q778.638 1482.55 782.249 1482.55 Q785.884 1482.55 787.689 1479.01 Q789.518 1475.44 789.518 1468.33 Q789.518 1461.2 787.689 1457.66 Q785.884 1454.1 782.249 1454.1 M782.249 1450.39 Q788.059 1450.39 791.115 1455 Q794.194 1459.58 794.194 1468.33 Q794.194 1477.06 791.115 1481.67 Q788.059 1486.25 782.249 1486.25 Q776.439 1486.25 773.36 1481.67 Q770.305 1477.06 770.305 1468.33 Q770.305 1459.58 773.36 1455 Q776.439 1450.39 782.249 1450.39 Z" fill="#000000" fill-rule="nonzero" fill-opacity="1" /><path clip-path="url(#clip710)" d="M802.411 1479.7 L807.295 1479.7 L807.295 1485.58 L802.411 1485.58 L802.411 1479.7 Z" fill="#000000" fill-rule="nonzero" fill-opacity="1" /><path clip-path="url(#clip710)" d="M830.328 1455.09 L818.522 1473.54 L830.328 1473.54 L830.328 1455.09 M829.101 1451.02 L834.98 1451.02 L834.98 1473.54 L839.911 1473.54 L839.911 1477.43 L834.98 1477.43 L834.98 1485.58 L830.328 1485.58 L830.328 1477.43 L814.726 1477.43 L814.726 1472.92 L829.101 1451.02 Z" fill="#000000" fill-rule="nonzero" fill-opacity="1" /><path clip-path="url(#clip710)" d="M1278.45 1454.1 Q1274.84 1454.1 1273.01 1457.66 Q1271.21 1461.2 1271.21 1468.33 Q1271.21 1475.44 1273.01 1479.01 Q1274.84 1482.55 1278.45 1482.55 Q1282.09 1482.55 1283.89 1479.01 Q1285.72 1475.44 1285.72 1468.33 Q1285.72 1461.2 1283.89 1457.66 Q1282.09 1454.1 1278.45 1454.1 M1278.45 1450.39 Q1284.26 1450.39 1287.32 1455 Q1290.4 1459.58 1290.4 1468.33 Q1290.4 1477.06 1287.32 1481.67 Q1284.26 1486.25 1278.45 1486.25 Q1272.64 1486.25 1269.56 1481.67 Q1266.51 1477.06 1266.51 1468.33 Q1266.51 1459.58 1269.56 1455 Q1272.64 1450.39 1278.45 1450.39 Z" fill="#000000" fill-rule="nonzero" fill-opacity="1" /><path clip-path="url(#clip710)" d="M1298.61 1479.7 L1303.5 1479.7 L1303.5 1485.58 L1298.61 1485.58 L1298.61 1479.7 Z" fill="#000000" fill-rule="nonzero" fill-opacity="1" /><path clip-path="url(#clip710)" d="M1324.26 1466.44 Q1321.11 1466.44 1319.26 1468.59 Q1317.43 1470.74 1317.43 1474.49 Q1317.43 1478.22 1319.26 1480.39 Q1321.11 1482.55 1324.26 1482.55 Q1327.41 1482.55 1329.24 1480.39 Q1331.09 1478.22 1331.09 1474.49 Q1331.09 1470.74 1329.24 1468.59 Q1327.41 1466.44 1324.26 1466.44 M1333.54 1451.78 L1333.54 1456.04 Q1331.79 1455.21 1329.98 1454.77 Q1328.2 1454.33 1326.44 1454.33 Q1321.81 1454.33 1319.35 1457.45 Q1316.92 1460.58 1316.58 1466.9 Q1317.94 1464.89 1320 1463.82 Q1322.06 1462.73 1324.54 1462.73 Q1329.75 1462.73 1332.76 1465.9 Q1335.79 1469.05 1335.79 1474.49 Q1335.79 1479.82 1332.64 1483.03 Q1329.49 1486.25 1324.26 1486.25 Q1318.27 1486.25 1315.1 1481.67 Q1311.92 1477.06 1311.92 1468.33 Q1311.92 1460.14 1315.81 1455.28 Q1319.7 1450.39 1326.25 1450.39 Q1328.01 1450.39 1329.79 1450.74 Q1331.6 1451.09 1333.54 1451.78 Z" fill="#000000" fill-rule="nonzero" fill-opacity="1" /><path clip-path="url(#clip710)" d="M1774.62 1454.1 Q1771.01 1454.1 1769.18 1457.66 Q1767.38 1461.2 1767.38 1468.33 Q1767.38 1475.44 1769.18 1479.01 Q1771.01 1482.55 1774.62 1482.55 Q1778.25 1482.55 1780.06 1479.01 Q1781.89 1475.44 1781.89 1468.33 Q1781.89 1461.2 1780.06 1457.66 Q1778.25 1454.1 1774.62 1454.1 M1774.62 1450.39 Q1780.43 1450.39 1783.49 1455 Q1786.57 1459.58 1786.57 1468.33 Q1786.57 1477.06 1783.49 1481.67 Q1780.43 1486.25 1774.62 1486.25 Q1768.81 1486.25 1765.73 1481.67 Q1762.68 1477.06 1762.68 1468.33 Q1762.68 1459.58 1765.73 1455 Q1768.81 1450.39 1774.62 1450.39 Z" fill="#000000" fill-rule="nonzero" fill-opacity="1" /><path clip-path="url(#clip710)" d="M1794.78 1479.7 L1799.67 1479.7 L1799.67 1485.58 L1794.78 1485.58 L1794.78 1479.7 Z" fill="#000000" fill-rule="nonzero" fill-opacity="1" /><path clip-path="url(#clip710)" d="M1819.85 1469.17 Q1816.52 1469.17 1814.6 1470.95 Q1812.7 1472.73 1812.7 1475.86 Q1812.7 1478.98 1814.6 1480.77 Q1816.52 1482.55 1819.85 1482.55 Q1823.19 1482.55 1825.11 1480.77 Q1827.03 1478.96 1827.03 1475.86 Q1827.03 1472.73 1825.11 1470.95 Q1823.21 1469.17 1819.85 1469.17 M1815.18 1467.18 Q1812.17 1466.44 1810.48 1464.38 Q1808.81 1462.32 1808.81 1459.35 Q1808.81 1455.21 1811.75 1452.8 Q1814.71 1450.39 1819.85 1450.39 Q1825.01 1450.39 1827.95 1452.8 Q1830.89 1455.21 1830.89 1459.35 Q1830.89 1462.32 1829.2 1464.38 Q1827.54 1466.44 1824.55 1467.18 Q1827.93 1467.96 1829.81 1470.26 Q1831.7 1472.55 1831.7 1475.86 Q1831.7 1480.88 1828.62 1483.57 Q1825.57 1486.25 1819.85 1486.25 Q1814.13 1486.25 1811.06 1483.57 Q1808 1480.88 1808 1475.86 Q1808 1472.55 1809.9 1470.26 Q1811.8 1467.96 1815.18 1467.18 M1813.46 1459.79 Q1813.46 1462.48 1815.13 1463.98 Q1816.82 1465.49 1819.85 1465.49 Q1822.86 1465.49 1824.55 1463.98 Q1826.26 1462.48 1826.26 1459.79 Q1826.26 1457.11 1824.55 1455.6 Q1822.86 1454.1 1819.85 1454.1 Q1816.82 1454.1 1815.13 1455.6 Q1813.46 1457.11 1813.46 1459.79 Z" fill="#000000" fill-rule="nonzero" fill-opacity="1" /><path clip-path="url(#clip710)" d="M2260.38 1481.64 L2268.02 1481.64 L2268.02 1455.28 L2259.71 1456.95 L2259.71 1452.69 L2267.98 1451.02 L2272.65 1451.02 L2272.65 1481.64 L2280.29 1481.64 L2280.29 1485.58 L2260.38 1485.58 L2260.38 1481.64 Z" fill="#000000" fill-rule="nonzero" fill-opacity="1" /><path clip-path="url(#clip710)" d="M2289.74 1479.7 L2294.62 1479.7 L2294.62 1485.58 L2289.74 1485.58 L2289.74 1479.7 Z" fill="#000000" fill-rule="nonzero" fill-opacity="1" /><path clip-path="url(#clip710)" d="M2314.8 1454.1 Q2311.19 1454.1 2309.37 1457.66 Q2307.56 1461.2 2307.56 1468.33 Q2307.56 1475.44 2309.37 1479.01 Q2311.19 1482.55 2314.8 1482.55 Q2318.44 1482.55 2320.24 1479.01 Q2322.07 1475.44 2322.07 1468.33 Q2322.07 1461.2 2320.24 1457.66 Q2318.44 1454.1 2314.8 1454.1 M2314.8 1450.39 Q2320.62 1450.39 2323.67 1455 Q2326.75 1459.58 2326.75 1468.33 Q2326.75 1477.06 2323.67 1481.67 Q2320.62 1486.25 2314.8 1486.25 Q2308.99 1486.25 2305.92 1481.67 Q2302.86 1477.06 2302.86 1468.33 Q2302.86 1459.58 2305.92 1455 Q2308.99 1450.39 2314.8 1450.39 Z" fill="#000000" fill-rule="nonzero" fill-opacity="1" /><path clip-path="url(#clip710)" d="M783.331 1525.81 L783.331 1543.66 L791.415 1543.66 Q795.903 1543.66 798.354 1541.34 Q800.804 1539.02 800.804 1534.72 Q800.804 1530.45 798.354 1528.13 Q795.903 1525.81 791.415 1525.81 L783.331 1525.81 M776.901 1520.52 L791.415 1520.52 Q799.404 1520.52 803.478 1524.15 Q807.584 1527.75 807.584 1534.72 Q807.584 1541.75 803.478 1545.35 Q799.404 1548.95 791.415 1548.95 L783.331 1548.95 L783.331 1568.04 L776.901 1568.04 L776.901 1520.52 Z" fill="#000000" fill-rule="nonzero" fill-opacity="1" /><path clip-path="url(#clip710)" d="M835.466 1537.87 Q834.479 1537.3 833.301 1537.04 Q832.156 1536.76 830.755 1536.76 Q825.79 1536.76 823.116 1540 Q820.474 1543.22 820.474 1549.27 L820.474 1568.04 L814.586 1568.04 L814.586 1532.4 L820.474 1532.4 L820.474 1537.93 Q822.321 1534.69 825.281 1533.13 Q828.241 1531.54 832.474 1531.54 Q833.079 1531.54 833.811 1531.63 Q834.543 1531.7 835.434 1531.85 L835.466 1537.87 Z" fill="#000000" fill-rule="nonzero" fill-opacity="1" /><path clip-path="url(#clip710)" d="M853.99 1536.5 Q849.279 1536.5 846.542 1540.19 Q843.805 1543.85 843.805 1550.25 Q843.805 1556.65 846.51 1560.34 Q849.247 1564 853.99 1564 Q858.669 1564 861.406 1560.31 Q864.143 1556.62 864.143 1550.25 Q864.143 1543.92 861.406 1540.23 Q858.669 1536.5 853.99 1536.5 M853.99 1531.54 Q861.629 1531.54 865.989 1536.5 Q870.35 1541.47 870.35 1550.25 Q870.35 1559 865.989 1564 Q861.629 1568.97 853.99 1568.97 Q846.319 1568.97 841.959 1564 Q837.63 1559 837.63 1550.25 Q837.63 1541.47 841.959 1536.5 Q846.319 1531.54 853.99 1531.54 Z" fill="#000000" fill-rule="nonzero" fill-opacity="1" /><path clip-path="url(#clip710)" d="M885.723 1562.7 L885.723 1581.6 L879.835 1581.6 L879.835 1532.4 L885.723 1532.4 L885.723 1537.81 Q887.569 1534.62 890.37 1533.1 Q893.203 1531.54 897.118 1531.54 Q903.611 1531.54 907.653 1536.69 Q911.727 1541.85 911.727 1550.25 Q911.727 1558.65 907.653 1563.81 Q903.611 1568.97 897.118 1568.97 Q893.203 1568.97 890.37 1567.44 Q887.569 1565.88 885.723 1562.7 M905.648 1550.25 Q905.648 1543.79 902.974 1540.13 Q900.332 1536.44 895.685 1536.44 Q891.038 1536.44 888.365 1540.13 Q885.723 1543.79 885.723 1550.25 Q885.723 1556.71 888.365 1560.4 Q891.038 1564.07 895.685 1564.07 Q900.332 1564.07 902.974 1560.4 Q905.648 1556.71 905.648 1550.25 Z" fill="#000000" fill-rule="nonzero" fill-opacity="1" /><path clip-path="url(#clip710)" d="M935.248 1536.5 Q930.538 1536.5 927.8 1540.19 Q925.063 1543.85 925.063 1550.25 Q925.063 1556.65 927.768 1560.34 Q930.506 1564 935.248 1564 Q939.927 1564 942.664 1560.31 Q945.401 1556.62 945.401 1550.25 Q945.401 1543.92 942.664 1540.23 Q939.927 1536.5 935.248 1536.5 M935.248 1531.54 Q942.887 1531.54 947.248 1536.5 Q951.608 1541.47 951.608 1550.25 Q951.608 1559 947.248 1564 Q942.887 1568.97 935.248 1568.97 Q927.577 1568.97 923.217 1564 Q918.888 1559 918.888 1550.25 Q918.888 1541.47 923.217 1536.5 Q927.577 1531.54 935.248 1531.54 Z" fill="#000000" fill-rule="nonzero" fill-opacity="1" /><path clip-path="url(#clip710)" d="M981.972 1537.87 Q980.986 1537.3 979.808 1537.04 Q978.662 1536.76 977.262 1536.76 Q972.297 1536.76 969.623 1540 Q966.981 1543.22 966.981 1549.27 L966.981 1568.04 L961.093 1568.04 L961.093 1532.4 L966.981 1532.4 L966.981 1537.93 Q968.827 1534.69 971.787 1533.13 Q974.747 1531.54 978.981 1531.54 Q979.585 1531.54 980.317 1531.63 Q981.049 1531.7 981.941 1531.85 L981.972 1537.87 Z" fill="#000000" fill-rule="nonzero" fill-opacity="1" /><path clip-path="url(#clip710)" d="M993.908 1522.27 L993.908 1532.4 L1005.97 1532.4 L1005.97 1536.95 L993.908 1536.95 L993.908 1556.3 Q993.908 1560.66 995.086 1561.9 Q996.295 1563.14 999.956 1563.14 L1005.97 1563.14 L1005.97 1568.04 L999.956 1568.04 Q993.176 1568.04 990.598 1565.53 Q988.02 1562.98 988.02 1556.3 L988.02 1536.95 L983.723 1536.95 L983.723 1532.4 L988.02 1532.4 L988.02 1522.27 L993.908 1522.27 Z" fill="#000000" fill-rule="nonzero" fill-opacity="1" /><path clip-path="url(#clip710)" d="M1013.67 1532.4 L1019.53 1532.4 L1019.53 1568.04 L1013.67 1568.04 L1013.67 1532.4 M1013.67 1518.52 L1019.53 1518.52 L1019.53 1525.93 L1013.67 1525.93 L1013.67 1518.52 Z" fill="#000000" fill-rule="nonzero" fill-opacity="1" /><path clip-path="url(#clip710)" d="M1045.6 1536.5 Q1040.89 1536.5 1038.15 1540.19 Q1035.41 1543.85 1035.41 1550.25 Q1035.41 1556.65 1038.12 1560.34 Q1040.86 1564 1045.6 1564 Q1050.28 1564 1053.01 1560.31 Q1055.75 1556.62 1055.75 1550.25 Q1055.75 1543.92 1053.01 1540.23 Q1050.28 1536.5 1045.6 1536.5 M1045.6 1531.54 Q1053.24 1531.54 1057.6 1536.5 Q1061.96 1541.47 1061.96 1550.25 Q1061.96 1559 1057.6 1564 Q1053.24 1568.97 1045.6 1568.97 Q1037.93 1568.97 1033.57 1564 Q1029.24 1559 1029.24 1550.25 Q1029.24 1541.47 1033.57 1536.5 Q1037.93 1531.54 1045.6 1531.54 Z" fill="#000000" fill-rule="nonzero" fill-opacity="1" /><path clip-path="url(#clip710)" d="M1101.3 1546.53 L1101.3 1568.04 L1095.44 1568.04 L1095.44 1546.72 Q1095.44 1541.66 1093.47 1539.14 Q1091.49 1536.63 1087.55 1536.63 Q1082.81 1536.63 1080.07 1539.65 Q1077.33 1542.68 1077.33 1547.9 L1077.33 1568.04 L1071.44 1568.04 L1071.44 1532.4 L1077.33 1532.4 L1077.33 1537.93 Q1079.43 1534.72 1082.26 1533.13 Q1085.13 1531.54 1088.85 1531.54 Q1095 1531.54 1098.15 1535.36 Q1101.3 1539.14 1101.3 1546.53 Z" fill="#000000" fill-rule="nonzero" fill-opacity="1" /><path clip-path="url(#clip710)" d="M1147.51 1536.5 Q1142.8 1536.5 1140.06 1540.19 Q1137.33 1543.85 1137.33 1550.25 Q1137.33 1556.65 1140.03 1560.34 Q1142.77 1564 1147.51 1564 Q1152.19 1564 1154.93 1560.31 Q1157.67 1556.62 1157.67 1550.25 Q1157.67 1543.92 1154.93 1540.23 Q1152.19 1536.5 1147.51 1536.5 M1147.51 1531.54 Q1155.15 1531.54 1159.51 1536.5 Q1163.87 1541.47 1163.87 1550.25 Q1163.87 1559 1159.51 1564 Q1155.15 1568.97 1147.51 1568.97 Q1139.84 1568.97 1135.48 1564 Q1131.15 1559 1131.15 1550.25 Q1131.15 1541.47 1135.48 1536.5 Q1139.84 1531.54 1147.51 1531.54 Z" fill="#000000" fill-rule="nonzero" fill-opacity="1" /><path clip-path="url(#clip710)" d="M1191.63 1518.52 L1191.63 1523.39 L1186.03 1523.39 Q1182.87 1523.39 1181.63 1524.66 Q1180.42 1525.93 1180.42 1529.24 L1180.42 1532.4 L1190.07 1532.4 L1190.07 1536.95 L1180.42 1536.95 L1180.42 1568.04 L1174.54 1568.04 L1174.54 1536.95 L1168.93 1536.95 L1168.93 1532.4 L1174.54 1532.4 L1174.54 1529.91 Q1174.54 1523.96 1177.3 1521.26 Q1180.07 1518.52 1186.09 1518.52 L1191.63 1518.52 Z" fill="#000000" fill-rule="nonzero" fill-opacity="1" /><path clip-path="url(#clip710)" d="M1223.93 1525.81 L1223.93 1543.66 L1232.02 1543.66 Q1236.51 1543.66 1238.96 1541.34 Q1241.41 1539.02 1241.41 1534.72 Q1241.41 1530.45 1238.96 1528.13 Q1236.51 1525.81 1232.02 1525.81 L1223.93 1525.81 M1217.5 1520.52 L1232.02 1520.52 Q1240.01 1520.52 1244.08 1524.15 Q1248.19 1527.75 1248.19 1534.72 Q1248.19 1541.75 1244.08 1545.35 Q1240.01 1548.95 1232.02 1548.95 L1223.93 1548.95 L1223.93 1568.04 L1217.5 1568.04 L1217.5 1520.52 Z" fill="#000000" fill-rule="nonzero" fill-opacity="1" /><path clip-path="url(#clip710)" d="M1268.05 1536.5 Q1263.34 1536.5 1260.6 1540.19 Q1257.86 1543.85 1257.86 1550.25 Q1257.86 1556.65 1260.57 1560.34 Q1263.3 1564 1268.05 1564 Q1272.73 1564 1275.46 1560.31 Q1278.2 1556.62 1278.2 1550.25 Q1278.2 1543.92 1275.46 1540.23 Q1272.73 1536.5 1268.05 1536.5 M1268.05 1531.54 Q1275.69 1531.54 1280.05 1536.5 Q1284.41 1541.47 1284.41 1550.25 Q1284.41 1559 1280.05 1564 Q1275.69 1568.97 1268.05 1568.97 Q1260.38 1568.97 1256.02 1564 Q1251.69 1559 1251.69 1550.25 Q1251.69 1541.47 1256.02 1536.5 Q1260.38 1531.54 1268.05 1531.54 Z" fill="#000000" fill-rule="nonzero" fill-opacity="1" /><path clip-path="url(#clip710)" d="M1294.11 1532.4 L1299.97 1532.4 L1299.97 1568.04 L1294.11 1568.04 L1294.11 1532.4 M1294.11 1518.52 L1299.97 1518.52 L1299.97 1525.93 L1294.11 1525.93 L1294.11 1518.52 Z" fill="#000000" fill-rule="nonzero" fill-opacity="1" /><path clip-path="url(#clip710)" d="M1341.86 1546.53 L1341.86 1568.04 L1336 1568.04 L1336 1546.72 Q1336 1541.66 1334.03 1539.14 Q1332.05 1536.63 1328.11 1536.63 Q1323.37 1536.63 1320.63 1539.65 Q1317.89 1542.68 1317.89 1547.9 L1317.89 1568.04 L1312 1568.04 L1312 1532.4 L1317.89 1532.4 L1317.89 1537.93 Q1319.99 1534.72 1322.82 1533.13 Q1325.69 1531.54 1329.41 1531.54 Q1335.56 1531.54 1338.71 1535.36 Q1341.86 1539.14 1341.86 1546.53 Z" fill="#000000" fill-rule="nonzero" fill-opacity="1" /><path clip-path="url(#clip710)" d="M1359.33 1522.27 L1359.33 1532.4 L1371.39 1532.4 L1371.39 1536.95 L1359.33 1536.95 L1359.33 1556.3 Q1359.33 1560.66 1360.51 1561.9 Q1361.72 1563.14 1365.38 1563.14 L1371.39 1563.14 L1371.39 1568.04 L1365.38 1568.04 Q1358.6 1568.04 1356.02 1565.53 Q1353.44 1562.98 1353.44 1556.3 L1353.44 1536.95 L1349.15 1536.95 L1349.15 1532.4 L1353.44 1532.4 L1353.44 1522.27 L1359.33 1522.27 Z" fill="#000000" fill-rule="nonzero" fill-opacity="1" /><path clip-path="url(#clip710)" d="M1401.82 1533.45 L1401.82 1538.98 Q1399.34 1537.71 1396.67 1537.07 Q1393.99 1536.44 1391.13 1536.44 Q1386.77 1536.44 1384.57 1537.77 Q1382.41 1539.11 1382.41 1541.79 Q1382.41 1543.82 1383.97 1545 Q1385.53 1546.15 1390.24 1547.2 L1392.24 1547.64 Q1398.48 1548.98 1401.09 1551.43 Q1403.73 1553.85 1403.73 1558.21 Q1403.73 1563.17 1399.79 1566.07 Q1395.87 1568.97 1389 1568.97 Q1386.13 1568.97 1383.01 1568.39 Q1379.92 1567.85 1376.49 1566.74 L1376.49 1560.69 Q1379.73 1562.38 1382.88 1563.24 Q1386.04 1564.07 1389.12 1564.07 Q1393.26 1564.07 1395.49 1562.66 Q1397.72 1561.23 1397.72 1558.65 Q1397.72 1556.27 1396.09 1554.99 Q1394.5 1553.72 1389.06 1552.54 L1387.02 1552.07 Q1381.58 1550.92 1379.16 1548.56 Q1376.74 1546.18 1376.74 1542.04 Q1376.74 1537.01 1380.31 1534.27 Q1383.87 1531.54 1390.43 1531.54 Q1393.67 1531.54 1396.54 1532.01 Q1399.4 1532.49 1401.82 1533.45 Z" fill="#000000" fill-rule="nonzero" fill-opacity="1" /><path clip-path="url(#clip710)" d="M1456.57 1545.76 Q1458.64 1546.46 1460.58 1548.76 Q1462.55 1551.05 1464.52 1555.06 L1471.05 1568.04 L1464.14 1568.04 L1458.06 1555.85 Q1455.71 1551.08 1453.48 1549.52 Q1451.28 1547.96 1447.46 1547.96 L1440.46 1547.96 L1440.46 1568.04 L1434.03 1568.04 L1434.03 1520.52 L1448.55 1520.52 Q1456.7 1520.52 1460.71 1523.93 Q1464.72 1527.34 1464.72 1534.21 Q1464.72 1538.7 1462.62 1541.66 Q1460.55 1544.62 1456.57 1545.76 M1440.46 1525.81 L1440.46 1542.68 L1448.55 1542.68 Q1453.19 1542.68 1455.55 1540.54 Q1457.94 1538.38 1457.94 1534.21 Q1457.94 1530.04 1455.55 1527.94 Q1453.19 1525.81 1448.55 1525.81 L1440.46 1525.81 Z" fill="#000000" fill-rule="nonzero" fill-opacity="1" /><path clip-path="url(#clip710)" d="M1493.84 1550.12 Q1486.74 1550.12 1484 1551.75 Q1481.27 1553.37 1481.27 1557.29 Q1481.27 1560.4 1483.3 1562.25 Q1485.37 1564.07 1488.91 1564.07 Q1493.78 1564.07 1496.7 1560.63 Q1499.66 1557.16 1499.66 1551.43 L1499.66 1550.12 L1493.84 1550.12 M1505.52 1547.71 L1505.52 1568.04 L1499.66 1568.04 L1499.66 1562.63 Q1497.66 1565.88 1494.67 1567.44 Q1491.67 1568.97 1487.35 1568.97 Q1481.87 1568.97 1478.62 1565.91 Q1475.41 1562.82 1475.41 1557.67 Q1475.41 1551.65 1479.42 1548.6 Q1483.46 1545.54 1491.45 1545.54 L1499.66 1545.54 L1499.66 1544.97 Q1499.66 1540.93 1496.99 1538.73 Q1494.35 1536.5 1489.54 1536.5 Q1486.49 1536.5 1483.59 1537.23 Q1480.69 1537.97 1478.02 1539.43 L1478.02 1534.02 Q1481.23 1532.78 1484.26 1532.17 Q1487.28 1531.54 1490.15 1531.54 Q1497.88 1531.54 1501.7 1535.55 Q1505.52 1539.56 1505.52 1547.71 Z" fill="#000000" fill-rule="nonzero" fill-opacity="1" /><path clip-path="url(#clip710)" d="M1547.22 1546.53 L1547.22 1568.04 L1541.36 1568.04 L1541.36 1546.72 Q1541.36 1541.66 1539.39 1539.14 Q1537.41 1536.63 1533.47 1536.63 Q1528.72 1536.63 1525.99 1539.65 Q1523.25 1542.68 1523.25 1547.9 L1523.25 1568.04 L1517.36 1568.04 L1517.36 1532.4 L1523.25 1532.4 L1523.25 1537.93 Q1525.35 1534.72 1528.18 1533.13 Q1531.05 1531.54 1534.77 1531.54 Q1540.91 1531.54 1544.06 1535.36 Q1547.22 1539.14 1547.22 1546.53 Z" fill="#000000" fill-rule="nonzero" fill-opacity="1" /><path clip-path="url(#clip710)" d="M1582.35 1537.81 L1582.35 1518.52 L1588.21 1518.52 L1588.21 1568.04 L1582.35 1568.04 L1582.35 1562.7 Q1580.51 1565.88 1577.68 1567.44 Q1574.87 1568.97 1570.93 1568.97 Q1564.47 1568.97 1560.39 1563.81 Q1556.35 1558.65 1556.35 1550.25 Q1556.35 1541.85 1560.39 1536.69 Q1564.47 1531.54 1570.93 1531.54 Q1574.87 1531.54 1577.68 1533.1 Q1580.51 1534.62 1582.35 1537.81 M1562.4 1550.25 Q1562.4 1556.71 1565.04 1560.4 Q1567.71 1564.07 1572.36 1564.07 Q1577.01 1564.07 1579.68 1560.4 Q1582.35 1556.71 1582.35 1550.25 Q1582.35 1543.79 1579.68 1540.13 Q1577.01 1536.44 1572.36 1536.44 Q1567.71 1536.44 1565.04 1540.13 Q1562.4 1543.79 1562.4 1550.25 Z" fill="#000000" fill-rule="nonzero" fill-opacity="1" /><path clip-path="url(#clip710)" d="M1614.09 1536.5 Q1609.38 1536.5 1606.64 1540.19 Q1603.9 1543.85 1603.9 1550.25 Q1603.9 1556.65 1606.61 1560.34 Q1609.34 1564 1614.09 1564 Q1618.77 1564 1621.5 1560.31 Q1624.24 1556.62 1624.24 1550.25 Q1624.24 1543.92 1621.5 1540.23 Q1618.77 1536.5 1614.09 1536.5 M1614.09 1531.54 Q1621.73 1531.54 1626.09 1536.5 Q1630.45 1541.47 1630.45 1550.25 Q1630.45 1559 1626.09 1564 Q1621.73 1568.97 1614.09 1568.97 Q1606.42 1568.97 1602.06 1564 Q1597.73 1559 1597.73 1550.25 Q1597.73 1541.47 1602.06 1536.5 Q1606.42 1531.54 1614.09 1531.54 Z" fill="#000000" fill-rule="nonzero" fill-opacity="1" /><path clip-path="url(#clip710)" d="M1667.91 1539.24 Q1670.11 1535.29 1673.16 1533.41 Q1676.22 1531.54 1680.35 1531.54 Q1685.92 1531.54 1688.95 1535.45 Q1691.97 1539.33 1691.97 1546.53 L1691.97 1568.04 L1686.08 1568.04 L1686.08 1546.72 Q1686.08 1541.59 1684.27 1539.11 Q1682.45 1536.63 1678.73 1536.63 Q1674.18 1536.63 1671.54 1539.65 Q1668.9 1542.68 1668.9 1547.9 L1668.9 1568.04 L1663.01 1568.04 L1663.01 1546.72 Q1663.01 1541.56 1661.19 1539.11 Q1659.38 1536.63 1655.59 1536.63 Q1651.1 1536.63 1648.46 1539.68 Q1645.82 1542.71 1645.82 1547.9 L1645.82 1568.04 L1639.93 1568.04 L1639.93 1532.4 L1645.82 1532.4 L1645.82 1537.93 Q1647.83 1534.66 1650.63 1533.1 Q1653.43 1531.54 1657.28 1531.54 Q1661.16 1531.54 1663.87 1533.51 Q1666.6 1535.48 1667.91 1539.24 Z" fill="#000000" fill-rule="nonzero" fill-opacity="1" /><path clip-path="url(#clip710)" d="M1703.65 1532.4 L1709.51 1532.4 L1709.51 1568.04 L1703.65 1568.04 L1703.65 1532.4 M1703.65 1518.52 L1709.51 1518.52 L1709.51 1525.93 L1703.65 1525.93 L1703.65 1518.52 Z" fill="#000000" fill-rule="nonzero" fill-opacity="1" /><path clip-path="url(#clip710)" d="M1719.22 1532.4 L1747.03 1532.4 L1747.03 1537.74 L1725.01 1563.37 L1747.03 1563.37 L1747.03 1568.04 L1718.42 1568.04 L1718.42 1562.7 L1740.45 1537.07 L1719.22 1537.07 L1719.22 1532.4 Z" fill="#000000" fill-rule="nonzero" fill-opacity="1" /><path clip-path="url(#clip710)" d="M1786.47 1548.76 L1786.47 1551.62 L1759.54 1551.62 Q1759.93 1557.67 1763.17 1560.85 Q1766.45 1564 1772.27 1564 Q1775.65 1564 1778.8 1563.17 Q1781.98 1562.35 1785.1 1560.69 L1785.1 1566.23 Q1781.95 1567.57 1778.64 1568.27 Q1775.33 1568.97 1771.92 1568.97 Q1763.39 1568.97 1758.4 1564 Q1753.43 1559.04 1753.43 1550.57 Q1753.43 1541.82 1758.14 1536.69 Q1762.89 1531.54 1770.91 1531.54 Q1778.1 1531.54 1782.27 1536.18 Q1786.47 1540.8 1786.47 1548.76 M1780.61 1547.04 Q1780.55 1542.23 1777.91 1539.37 Q1775.3 1536.5 1770.97 1536.5 Q1766.07 1536.5 1763.11 1539.27 Q1760.18 1542.04 1759.73 1547.07 L1780.61 1547.04 Z" fill="#000000" fill-rule="nonzero" fill-opacity="1" /><path clip-path="url(#clip710)" d="M1819.54 1537.81 L1819.54 1518.52 L1825.4 1518.52 L1825.4 1568.04 L1819.54 1568.04 L1819.54 1562.7 Q1817.69 1565.88 1814.86 1567.44 Q1812.06 1568.97 1808.11 1568.97 Q1801.65 1568.97 1797.58 1563.81 Q1793.54 1558.65 1793.54 1550.25 Q1793.54 1541.85 1797.58 1536.69 Q1801.65 1531.54 1808.11 1531.54 Q1812.06 1531.54 1814.86 1533.1 Q1817.69 1534.62 1819.54 1537.81 M1799.58 1550.25 Q1799.58 1556.71 1802.23 1560.4 Q1804.9 1564.07 1809.55 1564.07 Q1814.19 1564.07 1816.87 1560.4 Q1819.54 1556.71 1819.54 1550.25 Q1819.54 1543.79 1816.87 1540.13 Q1814.19 1536.44 1809.55 1536.44 Q1804.9 1536.44 1802.23 1540.13 Q1799.58 1543.79 1799.58 1550.25 Z" fill="#000000" fill-rule="nonzero" fill-opacity="1" /><polyline clip-path="url(#clip712)" style="stroke:#000000; stroke-linecap:round; stroke-linejoin:round; stroke-width:2; stroke-opacity:0.1; fill:none" points="249.542,1172.6 2352.76,1172.6 "/>
<polyline clip-path="url(#clip712)" style="stroke:#000000; stroke-linecap:round; stroke-linejoin:round; stroke-width:2; stroke-opacity:0.1; fill:none" points="249.542,875.294 2352.76,875.294 "/>
<polyline clip-path="url(#clip712)" style="stroke:#000000; stroke-linecap:round; stroke-linejoin:round; stroke-width:2; stroke-opacity:0.1; fill:none" points="249.542,577.992 2352.76,577.992 "/>
<polyline clip-path="url(#clip712)" style="stroke:#000000; stroke-linecap:round; stroke-linejoin:round; stroke-width:2; stroke-opacity:0.1; fill:none" points="249.542,280.69 2352.76,280.69 "/>
<polyline clip-path="url(#clip710)" style="stroke:#000000; stroke-linecap:round; stroke-linejoin:round; stroke-width:4; stroke-opacity:1; fill:none" points="249.542,1423.18 249.542,123.472 "/>
<polyline clip-path="url(#clip710)" style="stroke:#000000; stroke-linecap:round; stroke-linejoin:round; stroke-width:4; stroke-opacity:1; fill:none" points="249.542,1172.6 268.44,1172.6 "/>
<polyline clip-path="url(#clip710)" style="stroke:#000000; stroke-linecap:round; stroke-linejoin:round; stroke-width:4; stroke-opacity:1; fill:none" points="249.542,875.294 268.44,875.294 "/>
<polyline clip-path="url(#clip710)" style="stroke:#000000; stroke-linecap:round; stroke-linejoin:round; stroke-width:4; stroke-opacity:1; fill:none" points="249.542,577.992 268.44,577.992 "/>
<polyline clip-path="url(#clip710)" style="stroke:#000000; stroke-linecap:round; stroke-linejoin:round; stroke-width:4; stroke-opacity:1; fill:none" points="249.542,280.69 268.44,280.69 "/>
<path clip-path="url(#clip710)" d="M126.205 1158.39 Q122.593 1158.39 120.765 1161.96 Q118.959 1165.5 118.959 1172.63 Q118.959 1179.74 120.765 1183.3 Q122.593 1186.84 126.205 1186.84 Q129.839 1186.84 131.644 1183.3 Q133.473 1179.74 133.473 1172.63 Q133.473 1165.5 131.644 1161.96 Q129.839 1158.39 126.205 1158.39 M126.205 1154.69 Q132.015 1154.69 135.07 1159.3 Q138.149 1163.88 138.149 1172.63 Q138.149 1181.36 135.07 1185.96 Q132.015 1190.55 126.205 1190.55 Q120.394 1190.55 117.316 1185.96 Q114.26 1181.36 114.26 1172.63 Q114.26 1163.88 117.316 1159.3 Q120.394 1154.69 126.205 1154.69 Z" fill="#000000" fill-rule="nonzero" fill-opacity="1" /><path clip-path="url(#clip710)" d="M146.366 1184 L151.251 1184 L151.251 1189.88 L146.366 1189.88 L146.366 1184 Z" fill="#000000" fill-rule="nonzero" fill-opacity="1" /><path clip-path="url(#clip710)" d="M171.436 1158.39 Q167.825 1158.39 165.996 1161.96 Q164.19 1165.5 164.19 1172.63 Q164.19 1179.74 165.996 1183.3 Q167.825 1186.84 171.436 1186.84 Q175.07 1186.84 176.876 1183.3 Q178.704 1179.74 178.704 1172.63 Q178.704 1165.5 176.876 1161.96 Q175.07 1158.39 171.436 1158.39 M171.436 1154.69 Q177.246 1154.69 180.301 1159.3 Q183.38 1163.88 183.38 1172.63 Q183.38 1181.36 180.301 1185.96 Q177.246 1190.55 171.436 1190.55 Q165.626 1190.55 162.547 1185.96 Q159.491 1181.36 159.491 1172.63 Q159.491 1163.88 162.547 1159.3 Q165.626 1154.69 171.436 1154.69 Z" fill="#000000" fill-rule="nonzero" fill-opacity="1" /><path clip-path="url(#clip710)" d="M201.598 1158.39 Q197.987 1158.39 196.158 1161.96 Q194.352 1165.5 194.352 1172.63 Q194.352 1179.74 196.158 1183.3 Q197.987 1186.84 201.598 1186.84 Q205.232 1186.84 207.037 1183.3 Q208.866 1179.74 208.866 1172.63 Q208.866 1165.5 207.037 1161.96 Q205.232 1158.39 201.598 1158.39 M201.598 1154.69 Q207.408 1154.69 210.463 1159.3 Q213.542 1163.88 213.542 1172.63 Q213.542 1181.36 210.463 1185.96 Q207.408 1190.55 201.598 1190.55 Q195.787 1190.55 192.709 1185.96 Q189.653 1181.36 189.653 1172.63 Q189.653 1163.88 192.709 1159.3 Q195.787 1154.69 201.598 1154.69 Z" fill="#000000" fill-rule="nonzero" fill-opacity="1" /><path clip-path="url(#clip710)" d="M127.2 861.092 Q123.589 861.092 121.76 864.657 Q119.955 868.199 119.955 875.328 Q119.955 882.435 121.76 886 Q123.589 889.541 127.2 889.541 Q130.834 889.541 132.64 886 Q134.468 882.435 134.468 875.328 Q134.468 868.199 132.64 864.657 Q130.834 861.092 127.2 861.092 M127.2 857.389 Q133.01 857.389 136.066 861.995 Q139.144 866.579 139.144 875.328 Q139.144 884.055 136.066 888.662 Q133.01 893.245 127.2 893.245 Q121.39 893.245 118.311 888.662 Q115.256 884.055 115.256 875.328 Q115.256 866.579 118.311 861.995 Q121.39 857.389 127.2 857.389 Z" fill="#000000" fill-rule="nonzero" fill-opacity="1" /><path clip-path="url(#clip710)" d="M147.362 886.694 L152.246 886.694 L152.246 892.574 L147.362 892.574 L147.362 886.694 Z" fill="#000000" fill-rule="nonzero" fill-opacity="1" /><path clip-path="url(#clip710)" d="M166.459 888.639 L182.778 888.639 L182.778 892.574 L160.834 892.574 L160.834 888.639 Q163.496 885.884 168.079 881.254 Q172.686 876.602 173.866 875.259 Q176.112 872.736 176.991 871 Q177.894 869.241 177.894 867.551 Q177.894 864.796 175.95 863.06 Q174.028 861.324 170.927 861.324 Q168.727 861.324 166.274 862.088 Q163.843 862.852 161.065 864.403 L161.065 859.68 Q163.89 858.546 166.343 857.967 Q168.797 857.389 170.834 857.389 Q176.204 857.389 179.399 860.074 Q182.593 862.759 182.593 867.25 Q182.593 869.379 181.783 871.301 Q180.996 873.199 178.889 875.791 Q178.311 876.463 175.209 879.68 Q172.107 882.875 166.459 888.639 Z" fill="#000000" fill-rule="nonzero" fill-opacity="1" /><path clip-path="url(#clip710)" d="M192.639 858.014 L210.996 858.014 L210.996 861.949 L196.922 861.949 L196.922 870.421 Q197.94 870.074 198.959 869.912 Q199.977 869.727 200.996 869.727 Q206.783 869.727 210.162 872.898 Q213.542 876.069 213.542 881.486 Q213.542 887.065 210.07 890.166 Q206.598 893.245 200.278 893.245 Q198.102 893.245 195.834 892.875 Q193.588 892.504 191.181 891.764 L191.181 887.065 Q193.264 888.199 195.487 888.754 Q197.709 889.31 200.186 889.31 Q204.19 889.31 206.528 887.203 Q208.866 885.097 208.866 881.486 Q208.866 877.875 206.528 875.768 Q204.19 873.662 200.186 873.662 Q198.311 873.662 196.436 874.079 Q194.584 874.495 192.639 875.375 L192.639 858.014 Z" fill="#000000" fill-rule="nonzero" fill-opacity="1" /><path clip-path="url(#clip710)" d="M126.205 563.791 Q122.593 563.791 120.765 567.355 Q118.959 570.897 118.959 578.027 Q118.959 585.133 120.765 588.698 Q122.593 592.239 126.205 592.239 Q129.839 592.239 131.644 588.698 Q133.473 585.133 133.473 578.027 Q133.473 570.897 131.644 567.355 Q129.839 563.791 126.205 563.791 M126.205 560.087 Q132.015 560.087 135.07 564.693 Q138.149 569.277 138.149 578.027 Q138.149 586.753 135.07 591.36 Q132.015 595.943 126.205 595.943 Q120.394 595.943 117.316 591.36 Q114.26 586.753 114.26 578.027 Q114.26 569.277 117.316 564.693 Q120.394 560.087 126.205 560.087 Z" fill="#000000" fill-rule="nonzero" fill-opacity="1" /><path clip-path="url(#clip710)" d="M146.366 589.392 L151.251 589.392 L151.251 595.272 L146.366 595.272 L146.366 589.392 Z" fill="#000000" fill-rule="nonzero" fill-opacity="1" /><path clip-path="url(#clip710)" d="M161.482 560.712 L179.839 560.712 L179.839 564.647 L165.765 564.647 L165.765 573.119 Q166.783 572.772 167.802 572.61 Q168.82 572.425 169.839 572.425 Q175.626 572.425 179.005 575.596 Q182.385 578.767 182.385 584.184 Q182.385 589.763 178.913 592.864 Q175.44 595.943 169.121 595.943 Q166.945 595.943 164.677 595.573 Q162.431 595.202 160.024 594.462 L160.024 589.763 Q162.107 590.897 164.329 591.452 Q166.552 592.008 169.028 592.008 Q173.033 592.008 175.371 589.902 Q177.709 587.795 177.709 584.184 Q177.709 580.573 175.371 578.466 Q173.033 576.36 169.028 576.36 Q167.153 576.36 165.278 576.777 Q163.427 577.193 161.482 578.073 L161.482 560.712 Z" fill="#000000" fill-rule="nonzero" fill-opacity="1" /><path clip-path="url(#clip710)" d="M201.598 563.791 Q197.987 563.791 196.158 567.355 Q194.352 570.897 194.352 578.027 Q194.352 585.133 196.158 588.698 Q197.987 592.239 201.598 592.239 Q205.232 592.239 207.037 588.698 Q208.866 585.133 208.866 578.027 Q208.866 570.897 207.037 567.355 Q205.232 563.791 201.598 563.791 M201.598 560.087 Q207.408 560.087 210.463 564.693 Q213.542 569.277 213.542 578.027 Q213.542 586.753 210.463 591.36 Q207.408 595.943 201.598 595.943 Q195.787 595.943 192.709 591.36 Q189.653 586.753 189.653 578.027 Q189.653 569.277 192.709 564.693 Q195.787 560.087 201.598 560.087 Z" fill="#000000" fill-rule="nonzero" fill-opacity="1" /><path clip-path="url(#clip710)" d="M127.2 266.489 Q123.589 266.489 121.76 270.053 Q119.955 273.595 119.955 280.725 Q119.955 287.831 121.76 291.396 Q123.589 294.938 127.2 294.938 Q130.834 294.938 132.64 291.396 Q134.468 287.831 134.468 280.725 Q134.468 273.595 132.64 270.053 Q130.834 266.489 127.2 266.489 M127.2 262.785 Q133.01 262.785 136.066 267.391 Q139.144 271.975 139.144 280.725 Q139.144 289.452 136.066 294.058 Q133.01 298.641 127.2 298.641 Q121.39 298.641 118.311 294.058 Q115.256 289.452 115.256 280.725 Q115.256 271.975 118.311 267.391 Q121.39 262.785 127.2 262.785 Z" fill="#000000" fill-rule="nonzero" fill-opacity="1" /><path clip-path="url(#clip710)" d="M147.362 292.09 L152.246 292.09 L152.246 297.97 L147.362 297.97 L147.362 292.09 Z" fill="#000000" fill-rule="nonzero" fill-opacity="1" /><path clip-path="url(#clip710)" d="M161.251 263.41 L183.473 263.41 L183.473 265.401 L170.927 297.97 L166.042 297.97 L177.848 267.345 L161.251 267.345 L161.251 263.41 Z" fill="#000000" fill-rule="nonzero" fill-opacity="1" /><path clip-path="url(#clip710)" d="M192.639 263.41 L210.996 263.41 L210.996 267.345 L196.922 267.345 L196.922 275.817 Q197.94 275.47 198.959 275.308 Q199.977 275.123 200.996 275.123 Q206.783 275.123 210.162 278.294 Q213.542 281.465 213.542 286.882 Q213.542 292.461 210.07 295.563 Q206.598 298.641 200.278 298.641 Q198.102 298.641 195.834 298.271 Q193.588 297.901 191.181 297.16 L191.181 292.461 Q193.264 293.595 195.487 294.151 Q197.709 294.706 200.186 294.706 Q204.19 294.706 206.528 292.6 Q208.866 290.493 208.866 286.882 Q208.866 283.271 206.528 281.165 Q204.19 279.058 200.186 279.058 Q198.311 279.058 196.436 279.475 Q194.584 279.891 192.639 280.771 L192.639 263.41 Z" fill="#000000" fill-rule="nonzero" fill-opacity="1" /><path clip-path="url(#clip710)" d="M16.4842 957.947 L16.4842 948.367 L48.8219 936.24 L16.4842 924.05 L16.4842 914.47 L64.0042 914.47 L64.0042 920.74 L22.277 920.74 L54.8694 932.994 L54.8694 939.455 L22.277 951.709 L64.0042 951.709 L64.0042 957.947 L16.4842 957.947 Z" fill="#000000" fill-rule="nonzero" fill-opacity="1" /><path clip-path="url(#clip710)" d="M44.7161 871.469 L47.5806 871.469 L47.5806 898.396 Q53.6281 898.014 56.8109 894.768 Q59.9619 891.489 59.9619 885.665 Q59.9619 882.291 59.1344 879.14 Q58.3069 875.957 56.6518 872.838 L62.1899 872.838 Q63.5267 875.989 64.227 879.299 Q64.9272 882.609 64.9272 886.015 Q64.9272 894.545 59.9619 899.542 Q54.9967 904.507 46.5303 904.507 Q37.7774 904.507 32.6531 899.797 Q27.4968 895.054 27.4968 887.033 Q27.4968 879.84 32.1438 875.671 Q36.7589 871.469 44.7161 871.469 M42.9973 877.326 Q38.1912 877.389 35.3266 880.031 Q32.4621 882.641 32.4621 886.97 Q32.4621 891.871 35.2312 894.831 Q38.0002 897.76 43.0292 898.205 L42.9973 877.326 Z" fill="#000000" fill-rule="nonzero" fill-opacity="1" /><path clip-path="url(#clip710)" d="M46.0847 845.656 Q46.0847 852.754 47.7079 855.491 Q49.3312 858.229 53.2461 858.229 Q56.3653 858.229 58.2114 856.192 Q60.0256 854.123 60.0256 850.59 Q60.0256 845.72 56.5881 842.792 Q53.1188 839.832 47.3897 839.832 L46.0847 839.832 L46.0847 845.656 M43.6657 833.975 L64.0042 833.975 L64.0042 839.832 L58.5933 839.832 Q61.8398 841.837 63.3994 844.829 Q64.9272 847.821 64.9272 852.149 Q64.9272 857.624 61.8716 860.87 Q58.7843 864.085 53.6281 864.085 Q47.6125 864.085 44.5569 860.075 Q41.5014 856.032 41.5014 848.043 L41.5014 839.832 L40.9285 839.832 Q36.8862 839.832 34.6901 842.505 Q32.4621 845.147 32.4621 849.953 Q32.4621 853.009 33.1941 855.905 Q33.9262 858.802 35.3903 861.475 L29.9795 861.475 Q28.7381 858.26 28.1334 855.237 Q27.4968 852.213 27.4968 849.348 Q27.4968 841.614 31.5072 837.795 Q35.5176 833.975 43.6657 833.975 Z" fill="#000000" fill-rule="nonzero" fill-opacity="1" /><path clip-path="url(#clip710)" d="M42.4881 792.28 L64.0042 792.28 L64.0042 798.136 L42.679 798.136 Q37.6183 798.136 35.1038 800.11 Q32.5894 802.083 32.5894 806.03 Q32.5894 810.772 35.6131 813.51 Q38.6368 816.247 43.8567 816.247 L64.0042 816.247 L64.0042 822.135 L28.3562 822.135 L28.3562 816.247 L33.8944 816.247 Q30.6797 814.146 29.0883 811.313 Q27.4968 808.449 27.4968 804.725 Q27.4968 798.582 31.3163 795.431 Q35.1038 792.28 42.4881 792.28 Z" fill="#000000" fill-rule="nonzero" fill-opacity="1" /><path clip-path="url(#clip710)" d="M16.4842 759.624 L16.4842 753.194 L64.0042 753.194 L64.0042 759.624 L16.4842 759.624 Z" fill="#000000" fill-rule="nonzero" fill-opacity="1" /><path clip-path="url(#clip710)" d="M42.4881 711.022 L64.0042 711.022 L64.0042 716.878 L42.679 716.878 Q37.6183 716.878 35.1038 718.851 Q32.5894 720.825 32.5894 724.772 Q32.5894 729.514 35.6131 732.251 Q38.6368 734.989 43.8567 734.989 L64.0042 734.989 L64.0042 740.877 L28.3562 740.877 L28.3562 734.989 L33.8944 734.989 Q30.6797 732.888 29.0883 730.055 Q27.4968 727.191 27.4968 723.467 Q27.4968 717.324 31.3163 714.173 Q35.1038 711.022 42.4881 711.022 Z" fill="#000000" fill-rule="nonzero" fill-opacity="1" /><path clip-path="url(#clip710)" d="M33.7671 675.883 L14.479 675.883 L14.479 670.026 L64.0042 670.026 L64.0042 675.883 L58.657 675.883 Q61.8398 677.729 63.3994 680.562 Q64.9272 683.363 64.9272 687.309 Q64.9272 693.771 59.771 697.845 Q54.6147 701.887 46.212 701.887 Q37.8093 701.887 32.6531 697.845 Q27.4968 693.771 27.4968 687.309 Q27.4968 683.363 29.0564 680.562 Q30.5842 677.729 33.7671 675.883 M46.212 695.839 Q52.6732 695.839 56.3653 693.198 Q60.0256 690.524 60.0256 685.877 Q60.0256 681.23 56.3653 678.557 Q52.6732 675.883 46.212 675.883 Q39.7508 675.883 36.0905 678.557 Q32.3984 681.23 32.3984 685.877 Q32.3984 690.524 36.0905 693.198 Q39.7508 695.839 46.212 695.839 Z" fill="#000000" fill-rule="nonzero" fill-opacity="1" /><path clip-path="url(#clip710)" d="M44.7161 627.472 L47.5806 627.472 L47.5806 654.399 Q53.6281 654.017 56.8109 650.77 Q59.9619 647.492 59.9619 641.667 Q59.9619 638.293 59.1344 635.142 Q58.3069 631.96 56.6518 628.84 L62.1899 628.84 Q63.5267 631.991 64.227 635.302 Q64.9272 638.612 64.9272 642.017 Q64.9272 650.547 59.9619 655.544 Q54.9967 660.51 46.5303 660.51 Q37.7774 660.51 32.6531 655.799 Q27.4968 651.057 27.4968 643.036 Q27.4968 635.843 32.1438 631.673 Q36.7589 627.472 44.7161 627.472 M42.9973 633.328 Q38.1912 633.392 35.3266 636.034 Q32.4621 638.644 32.4621 642.972 Q32.4621 647.874 35.2312 650.834 Q38.0002 653.762 43.0292 654.208 L42.9973 633.328 Z" fill="#000000" fill-rule="nonzero" fill-opacity="1" /><path clip-path="url(#clip710)" d="M28.3562 589.373 L45.7028 602.264 L64.0042 588.705 L64.0042 595.611 L49.9996 605.987 L64.0042 616.364 L64.0042 623.27 L45.3526 609.425 L28.3562 622.093 L28.3562 615.186 L41.0558 605.733 L28.3562 596.28 L28.3562 589.373 Z" fill="#000000" fill-rule="nonzero" fill-opacity="1" /><path clip-path="url(#clip710)" d="M997.25 44.2197 Q999.883 45.1109 1002.35 48.0275 Q1004.87 50.9442 1007.38 56.0483 L1015.68 72.576 L1006.89 72.576 L999.154 57.061 Q996.156 50.9847 993.321 48.9997 Q990.526 47.0148 985.665 47.0148 L976.753 47.0148 L976.753 72.576 L968.57 72.576 L968.57 12.096 L987.042 12.096 Q997.412 12.096 1002.52 16.4305 Q1007.62 20.7649 1007.62 29.5149 Q1007.62 35.2267 1004.95 38.994 Q1002.31 42.7613 997.25 44.2197 M976.753 18.8205 L976.753 40.2903 L987.042 40.2903 Q992.956 40.2903 995.954 37.5762 Q998.992 34.8216 998.992 29.5149 Q998.992 24.2082 995.954 21.5346 Q992.956 18.8205 987.042 18.8205 L976.753 18.8205 Z" fill="#000000" fill-rule="nonzero" fill-opacity="1" /><path clip-path="url(#clip710)" d="M1044.69 49.7694 Q1035.65 49.7694 1032.17 51.8354 Q1028.69 53.9013 1028.69 58.8839 Q1028.69 62.8538 1031.28 65.2034 Q1033.91 67.5124 1038.41 67.5124 Q1044.61 67.5124 1048.33 63.1374 Q1052.1 58.7219 1052.1 51.4303 L1052.1 49.7694 L1044.69 49.7694 M1059.55 46.6907 L1059.55 72.576 L1052.1 72.576 L1052.1 65.6895 Q1049.55 69.8214 1045.74 71.8063 Q1041.93 73.7508 1036.42 73.7508 Q1029.45 73.7508 1025.32 69.8619 Q1021.23 65.9325 1021.23 59.3701 Q1021.23 51.7138 1026.34 47.825 Q1031.48 43.9361 1041.65 43.9361 L1052.1 43.9361 L1052.1 43.2069 Q1052.1 38.0623 1048.7 35.2672 Q1045.33 32.4315 1039.22 32.4315 Q1035.33 32.4315 1031.64 33.3632 Q1027.96 34.295 1024.55 36.1584 L1024.55 29.2718 Q1028.64 27.692 1032.49 26.9223 Q1036.34 26.1121 1039.99 26.1121 Q1049.83 26.1121 1054.69 31.2163 Q1059.55 36.3204 1059.55 46.6907 Z" fill="#000000" fill-rule="nonzero" fill-opacity="1" /><path clip-path="url(#clip710)" d="M1112.62 45.1919 L1112.62 72.576 L1105.17 72.576 L1105.17 45.4349 Q1105.17 38.994 1102.65 35.7938 Q1100.14 32.5936 1095.12 32.5936 Q1089.08 32.5936 1085.6 36.4419 Q1082.12 40.2903 1082.12 46.9338 L1082.12 72.576 L1074.62 72.576 L1074.62 27.2059 L1082.12 27.2059 L1082.12 34.2544 Q1084.79 30.163 1088.4 28.1376 Q1092.04 26.1121 1096.78 26.1121 Q1104.6 26.1121 1108.61 30.9732 Q1112.62 35.7938 1112.62 45.1919 Z" fill="#000000" fill-rule="nonzero" fill-opacity="1" /><path clip-path="url(#clip710)" d="M1157.34 34.0924 L1157.34 9.54393 L1164.8 9.54393 L1164.8 72.576 L1157.34 72.576 L1157.34 65.7705 Q1154.99 69.8214 1151.39 71.8063 Q1147.82 73.7508 1142.8 73.7508 Q1134.58 73.7508 1129.39 67.1883 Q1124.25 60.6258 1124.25 49.9314 Q1124.25 39.2371 1129.39 32.6746 Q1134.58 26.1121 1142.8 26.1121 Q1147.82 26.1121 1151.39 28.0971 Q1154.99 30.0415 1157.34 34.0924 M1131.94 49.9314 Q1131.94 58.1548 1135.3 62.8538 Q1138.71 67.5124 1144.62 67.5124 Q1150.54 67.5124 1153.94 62.8538 Q1157.34 58.1548 1157.34 49.9314 Q1157.34 41.7081 1153.94 37.0496 Q1150.54 32.3505 1144.62 32.3505 Q1138.71 32.3505 1135.3 37.0496 Q1131.94 41.7081 1131.94 49.9314 Z" fill="#000000" fill-rule="nonzero" fill-opacity="1" /><path clip-path="url(#clip710)" d="M1197.73 32.4315 Q1191.73 32.4315 1188.25 37.1306 Q1184.77 41.7891 1184.77 49.9314 Q1184.77 58.0738 1188.21 62.7728 Q1191.69 67.4314 1197.73 67.4314 Q1203.68 67.4314 1207.17 62.7323 Q1210.65 58.0333 1210.65 49.9314 Q1210.65 41.8701 1207.17 37.1711 Q1203.68 32.4315 1197.73 32.4315 M1197.73 26.1121 Q1207.45 26.1121 1213 32.4315 Q1218.55 38.7509 1218.55 49.9314 Q1218.55 61.0714 1213 67.4314 Q1207.45 73.7508 1197.73 73.7508 Q1187.97 73.7508 1182.42 67.4314 Q1176.91 61.0714 1176.91 49.9314 Q1176.91 38.7509 1182.42 32.4315 Q1187.97 26.1121 1197.73 26.1121 Z" fill="#000000" fill-rule="nonzero" fill-opacity="1" /><path clip-path="url(#clip710)" d="M1266.23 35.9153 Q1269.03 30.8922 1272.91 28.5022 Q1276.8 26.1121 1282.07 26.1121 Q1289.16 26.1121 1293.01 31.0947 Q1296.86 36.0368 1296.86 45.1919 L1296.86 72.576 L1289.36 72.576 L1289.36 45.4349 Q1289.36 38.913 1287.05 35.7533 Q1284.74 32.5936 1280 32.5936 Q1274.21 32.5936 1270.85 36.4419 Q1267.49 40.2903 1267.49 46.9338 L1267.49 72.576 L1259.99 72.576 L1259.99 45.4349 Q1259.99 38.8725 1257.68 35.7533 Q1255.37 32.5936 1250.55 32.5936 Q1244.84 32.5936 1241.48 36.4824 Q1238.12 40.3308 1238.12 46.9338 L1238.12 72.576 L1230.62 72.576 L1230.62 27.2059 L1238.12 27.2059 L1238.12 34.2544 Q1240.67 30.082 1244.23 28.0971 Q1247.8 26.1121 1252.7 26.1121 Q1257.64 26.1121 1261.09 28.6237 Q1264.57 31.1352 1266.23 35.9153 Z" fill="#000000" fill-rule="nonzero" fill-opacity="1" /><path clip-path="url(#clip710)" d="M1311.72 27.2059 L1319.18 27.2059 L1319.18 72.576 L1311.72 72.576 L1311.72 27.2059 M1311.72 9.54393 L1319.18 9.54393 L1319.18 18.9825 L1311.72 18.9825 L1311.72 9.54393 Z" fill="#000000" fill-rule="nonzero" fill-opacity="1" /><path clip-path="url(#clip710)" d="M1331.53 27.2059 L1366.94 27.2059 L1366.94 34.0114 L1338.9 66.6212 L1366.94 66.6212 L1366.94 72.576 L1330.52 72.576 L1330.52 65.7705 L1358.55 33.1607 L1331.53 33.1607 L1331.53 27.2059 Z" fill="#000000" fill-rule="nonzero" fill-opacity="1" /><path clip-path="url(#clip710)" d="M1417.13 48.0275 L1417.13 51.6733 L1382.86 51.6733 Q1383.34 59.3701 1387.47 63.421 Q1391.65 67.4314 1399.06 67.4314 Q1403.35 67.4314 1407.36 66.3781 Q1411.41 65.3249 1415.38 63.2184 L1415.38 70.267 Q1411.37 71.9684 1407.16 72.8596 Q1402.95 73.7508 1398.61 73.7508 Q1387.76 73.7508 1381.4 67.4314 Q1375.08 61.1119 1375.08 50.3365 Q1375.08 39.1965 1381.07 32.6746 Q1387.11 26.1121 1397.32 26.1121 Q1406.47 26.1121 1411.78 32.0264 Q1417.13 37.9003 1417.13 48.0275 M1409.67 45.84 Q1409.59 39.7232 1406.23 36.0774 Q1402.91 32.4315 1397.4 32.4315 Q1391.16 32.4315 1387.39 35.9558 Q1383.67 39.4801 1383.1 45.8805 L1409.67 45.84 Z" fill="#000000" fill-rule="nonzero" fill-opacity="1" /><path clip-path="url(#clip710)" d="M1484.74 44.2197 Q1487.37 45.1109 1489.84 48.0275 Q1492.35 50.9442 1494.86 56.0483 L1503.17 72.576 L1494.38 72.576 L1486.64 57.061 Q1483.64 50.9847 1480.81 48.9997 Q1478.01 47.0148 1473.15 47.0148 L1464.24 47.0148 L1464.24 72.576 L1456.06 72.576 L1456.06 12.096 L1474.53 12.096 Q1484.9 12.096 1490 16.4305 Q1495.11 20.7649 1495.11 29.5149 Q1495.11 35.2267 1492.43 38.994 Q1489.8 42.7613 1484.74 44.2197 M1464.24 18.8205 L1464.24 40.2903 L1474.53 40.2903 Q1480.44 40.2903 1483.44 37.5762 Q1486.48 34.8216 1486.48 29.5149 Q1486.48 24.2082 1483.44 21.5346 Q1480.44 18.8205 1474.53 18.8205 L1464.24 18.8205 Z" fill="#000000" fill-rule="nonzero" fill-opacity="1" /><path clip-path="url(#clip710)" d="M1532.17 49.7694 Q1523.14 49.7694 1519.65 51.8354 Q1516.17 53.9013 1516.17 58.8839 Q1516.17 62.8538 1518.76 65.2034 Q1521.4 67.5124 1525.89 67.5124 Q1532.09 67.5124 1535.82 63.1374 Q1539.59 58.7219 1539.59 51.4303 L1539.59 49.7694 L1532.17 49.7694 M1547.04 46.6907 L1547.04 72.576 L1539.59 72.576 L1539.59 65.6895 Q1537.03 69.8214 1533.23 71.8063 Q1529.42 73.7508 1523.91 73.7508 Q1516.94 73.7508 1512.81 69.8619 Q1508.72 65.9325 1508.72 59.3701 Q1508.72 51.7138 1513.82 47.825 Q1518.97 43.9361 1529.13 43.9361 L1539.59 43.9361 L1539.59 43.2069 Q1539.59 38.0623 1536.18 35.2672 Q1532.82 32.4315 1526.7 32.4315 Q1522.81 32.4315 1519.13 33.3632 Q1515.44 34.295 1512.04 36.1584 L1512.04 29.2718 Q1516.13 27.692 1519.98 26.9223 Q1523.83 26.1121 1527.47 26.1121 Q1537.32 26.1121 1542.18 31.2163 Q1547.04 36.3204 1547.04 46.6907 Z" fill="#000000" fill-rule="nonzero" fill-opacity="1" /><path clip-path="url(#clip710)" d="M1569.76 14.324 L1569.76 27.2059 L1585.12 27.2059 L1585.12 32.9987 L1569.76 32.9987 L1569.76 57.6282 Q1569.76 63.1779 1571.26 64.7578 Q1572.8 66.3376 1577.46 66.3376 L1585.12 66.3376 L1585.12 72.576 L1577.46 72.576 Q1568.83 72.576 1565.55 69.3758 Q1562.27 66.1351 1562.27 57.6282 L1562.27 32.9987 L1556.8 32.9987 L1556.8 27.2059 L1562.27 27.2059 L1562.27 14.324 L1569.76 14.324 Z" fill="#000000" fill-rule="nonzero" fill-opacity="1" /><path clip-path="url(#clip710)" d="M1633.73 48.0275 L1633.73 51.6733 L1599.46 51.6733 Q1599.94 59.3701 1604.08 63.421 Q1608.25 67.4314 1615.66 67.4314 Q1619.96 67.4314 1623.97 66.3781 Q1628.02 65.3249 1631.99 63.2184 L1631.99 70.267 Q1627.98 71.9684 1623.76 72.8596 Q1619.55 73.7508 1615.22 73.7508 Q1604.36 73.7508 1598 67.4314 Q1591.68 61.1119 1591.68 50.3365 Q1591.68 39.1965 1597.68 32.6746 Q1603.71 26.1121 1613.92 26.1121 Q1623.07 26.1121 1628.38 32.0264 Q1633.73 37.9003 1633.73 48.0275 M1626.27 45.84 Q1626.19 39.7232 1622.83 36.0774 Q1619.51 32.4315 1614 32.4315 Q1607.76 32.4315 1603.99 35.9558 Q1600.27 39.4801 1599.7 45.8805 L1626.27 45.84 Z" fill="#000000" fill-rule="nonzero" fill-opacity="1" /><polyline clip-path="url(#clip712)" style="stroke:#50ad9f; stroke-linecap:round; stroke-linejoin:round; stroke-width:8; stroke-opacity:1; fill:none" points="309.067,382.699 805.108,709.819 1301.15,967.848 1797.19,1157.31 2293.23,1108.22 "/>
<circle clip-path="url(#clip712)" cx="309.067" cy="382.699" r="25.2" fill="#50ad9f" fill-rule="evenodd" fill-opacity="1" stroke="#000000" stroke-opacity="1" stroke-width="3.2"/>
<circle clip-path="url(#clip712)" cx="805.108" cy="709.819" r="25.2" fill="#50ad9f" fill-rule="evenodd" fill-opacity="1" stroke="#000000" stroke-opacity="1" stroke-width="3.2"/>
<circle clip-path="url(#clip712)" cx="1301.15" cy="967.848" r="25.2" fill="#50ad9f" fill-rule="evenodd" fill-opacity="1" stroke="#000000" stroke-opacity="1" stroke-width="3.2"/>
<circle clip-path="url(#clip712)" cx="1797.19" cy="1157.31" r="25.2" fill="#50ad9f" fill-rule="evenodd" fill-opacity="1" stroke="#000000" stroke-opacity="1" stroke-width="3.2"/>
<circle clip-path="url(#clip712)" cx="2293.23" cy="1108.22" r="25.2" fill="#50ad9f" fill-rule="evenodd" fill-opacity="1" stroke="#000000" stroke-opacity="1" stroke-width="3.2"/>
<polyline clip-path="url(#clip712)" style="stroke:#0000a2; stroke-linecap:round; stroke-linejoin:round; stroke-width:8; stroke-opacity:1; fill:none" points="309.067,430.758 805.108,799.892 1301.15,1092.34 1797.19,1305.44 2293.23,1386.4 "/>
<path clip-path="url(#clip712)" d="M289.067 410.758 L289.067 450.758 L329.067 450.758 L329.067 410.758 L289.067 410.758 Z" fill="#0000a2" fill-rule="evenodd" fill-opacity="1" stroke="#000000" stroke-opacity="1" stroke-width="3.2"/>
<path clip-path="url(#clip712)" d="M785.108 779.892 L785.108 819.892 L825.108 819.892 L825.108 779.892 L785.108 779.892 Z" fill="#0000a2" fill-rule="evenodd" fill-opacity="1" stroke="#000000" stroke-opacity="1" stroke-width="3.2"/>
<path clip-path="url(#clip712)" d="M1281.15 1072.34 L1281.15 1112.34 L1321.15 1112.34 L1321.15 1072.34 L1281.15 1072.34 Z" fill="#0000a2" fill-rule="evenodd" fill-opacity="1" stroke="#000000" stroke-opacity="1" stroke-width="3.2"/>
<path clip-path="url(#clip712)" d="M1777.19 1285.44 L1777.19 1325.44 L1817.19 1325.44 L1817.19 1285.44 L1777.19 1285.44 Z" fill="#0000a2" fill-rule="evenodd" fill-opacity="1" stroke="#000000" stroke-opacity="1" stroke-width="3.2"/>
<path clip-path="url(#clip712)" d="M2273.23 1366.4 L2273.23 1406.4 L2313.23 1406.4 L2313.23 1366.4 L2273.23 1366.4 Z" fill="#0000a2" fill-rule="evenodd" fill-opacity="1" stroke="#000000" stroke-opacity="1" stroke-width="3.2"/>
<polyline clip-path="url(#clip712)" style="stroke:#bc272d; stroke-linecap:round; stroke-linejoin:round; stroke-width:8; stroke-opacity:1; fill:none" points="309.067,160.256 805.108,305.956 1301.15,419.995 1797.19,502.789 2293.23,555.284 "/>
<path clip-path="url(#clip712)" d="M309.067 132.256 L302.487 151.184 L282.439 151.604 L298.427 163.728 L292.603 182.908 L309.067 171.456 L325.531 182.908 L319.707 163.728 L335.695 151.604 L315.647 151.184 L309.067 132.256 Z" fill="#bc272d" fill-rule="evenodd" fill-opacity="1" stroke="#000000" stroke-opacity="1" stroke-width="3.2"/>
<path clip-path="url(#clip712)" d="M805.108 277.956 L798.528 296.884 L778.48 297.304 L794.468 309.428 L788.644 328.608 L805.108 317.156 L821.572 328.608 L815.748 309.428 L831.736 297.304 L811.688 296.884 L805.108 277.956 Z" fill="#bc272d" fill-rule="evenodd" fill-opacity="1" stroke="#000000" stroke-opacity="1" stroke-width="3.2"/>
<path clip-path="url(#clip712)" d="M1301.15 391.995 L1294.57 410.923 L1274.52 411.343 L1290.51 423.467 L1284.68 442.647 L1301.15 431.195 L1317.61 442.647 L1311.79 423.467 L1327.78 411.343 L1307.73 410.923 L1301.15 391.995 Z" fill="#bc272d" fill-rule="evenodd" fill-opacity="1" stroke="#000000" stroke-opacity="1" stroke-width="3.2"/>
<path clip-path="url(#clip712)" d="M1797.19 474.789 L1790.61 493.717 L1770.56 494.137 L1786.55 506.261 L1780.73 525.441 L1797.19 513.989 L1813.65 525.441 L1807.83 506.261 L1823.82 494.137 L1803.77 493.717 L1797.19 474.789 Z" fill="#bc272d" fill-rule="evenodd" fill-opacity="1" stroke="#000000" stroke-opacity="1" stroke-width="3.2"/>
<path clip-path="url(#clip712)" d="M2293.23 527.284 L2286.65 546.212 L2266.6 546.632 L2282.59 558.756 L2276.77 577.936 L2293.23 566.484 L2309.69 577.936 L2303.87 558.756 L2319.86 546.632 L2299.81 546.212 L2293.23 527.284 Z" fill="#bc272d" fill-rule="evenodd" fill-opacity="1" stroke="#000000" stroke-opacity="1" stroke-width="3.2"/>
<polyline clip-path="url(#clip712)" style="stroke:#e9c716; stroke-linecap:round; stroke-linejoin:round; stroke-width:8; stroke-opacity:1; fill:none" points="309.067,405.581 805.108,729.949 1301.15,962.559 1797.19,1107.24 2293.23,1172.54 "/>
<path clip-path="url(#clip712)" d="M309.067 377.581 L281.067 433.581 L337.067 433.581 L309.067 377.581 Z" fill="#e9c716" fill-rule="evenodd" fill-opacity="1" stroke="#000000" stroke-opacity="1" stroke-width="3.2"/>
<path clip-path="url(#clip712)" d="M805.108 701.949 L777.108 757.949 L833.108 757.949 L805.108 701.949 Z" fill="#e9c716" fill-rule="evenodd" fill-opacity="1" stroke="#000000" stroke-opacity="1" stroke-width="3.2"/>
<path clip-path="url(#clip712)" d="M1301.15 934.559 L1273.15 990.559 L1329.15 990.559 L1301.15 934.559 Z" fill="#e9c716" fill-rule="evenodd" fill-opacity="1" stroke="#000000" stroke-opacity="1" stroke-width="3.2"/>
<path clip-path="url(#clip712)" d="M1797.19 1079.24 L1769.19 1135.24 L1825.19 1135.24 L1797.19 1079.24 Z" fill="#e9c716" fill-rule="evenodd" fill-opacity="1" stroke="#000000" stroke-opacity="1" stroke-width="3.2"/>
<path clip-path="url(#clip712)" d="M2293.23 1144.54 L2265.23 1200.54 L2321.23 1200.54 L2293.23 1144.54 Z" fill="#e9c716" fill-rule="evenodd" fill-opacity="1" stroke="#000000" stroke-opacity="1" stroke-width="3.2"/>
<path clip-path="url(#clip710)" d="M1960.11 920.33 L2282.65 920.33 L2282.65 661.13 L1960.11 661.13  Z" fill="#ffffff" fill-rule="evenodd" fill-opacity="1"/>
<polyline clip-path="url(#clip710)" style="stroke:#000000; stroke-linecap:round; stroke-linejoin:round; stroke-width:4; stroke-opacity:1; fill:none" points="1960.11,920.33 2282.65,920.33 2282.65,661.13 1960.11,661.13 1960.11,920.33 "/>
<polyline clip-path="url(#clip710)" style="stroke:#50ad9f; stroke-linecap:round; stroke-linejoin:round; stroke-width:8; stroke-opacity:1; fill:none" points="1983.47,712.97 2123.69,712.97 "/>
<circle clip-path="url(#clip710)" cx="2053.58" cy="712.97" r="19.4742" fill="#50ad9f" fill-rule="evenodd" fill-opacity="1" stroke="#000000" stroke-opacity="1" stroke-width="2.73067"/>
<path clip-path="url(#clip710)" d="M2147.06 695.69 L2166.92 695.69 L2166.92 699.625 L2151.73 699.625 L2151.73 709.81 L2165.44 709.81 L2165.44 713.745 L2151.73 713.745 L2151.73 730.25 L2147.06 730.25 L2147.06 695.69 Z" fill="#000000" fill-rule="nonzero" fill-opacity="1" /><path clip-path="url(#clip710)" d="M2170.69 704.324 L2174.95 704.324 L2174.95 730.25 L2170.69 730.25 L2170.69 704.324 M2170.69 694.231 L2174.95 694.231 L2174.95 699.625 L2170.69 699.625 L2170.69 694.231 Z" fill="#000000" fill-rule="nonzero" fill-opacity="1" /><path clip-path="url(#clip710)" d="M2188.08 696.963 L2188.08 704.324 L2196.85 704.324 L2196.85 707.634 L2188.08 707.634 L2188.08 721.708 Q2188.08 724.879 2188.93 725.782 Q2189.81 726.685 2192.47 726.685 L2196.85 726.685 L2196.85 730.25 L2192.47 730.25 Q2187.54 730.25 2185.67 728.421 Q2183.79 726.569 2183.79 721.708 L2183.79 707.634 L2180.67 707.634 L2180.67 704.324 L2183.79 704.324 L2183.79 696.963 L2188.08 696.963 Z" fill="#000000" fill-rule="nonzero" fill-opacity="1" /><polyline clip-path="url(#clip710)" style="stroke:#0000a2; stroke-linecap:round; stroke-linejoin:round; stroke-width:8; stroke-opacity:1; fill:none" points="1983.47,764.81 2123.69,764.81 "/>
<path clip-path="url(#clip710)" d="M2031.94 743.172 L2031.94 786.448 L2075.22 786.448 L2075.22 743.172 L2031.94 743.172 Z" fill="#0000a2" fill-rule="evenodd" fill-opacity="1" stroke="#000000" stroke-opacity="1" stroke-width="3.72364"/>
<path clip-path="url(#clip710)" d="M2169.3 748.664 L2169.3 753.224 Q2166.64 751.951 2164.28 751.326 Q2161.92 750.701 2159.72 750.701 Q2155.9 750.701 2153.82 752.182 Q2151.76 753.664 2151.76 756.395 Q2151.76 758.687 2153.12 759.867 Q2154.51 761.025 2158.35 761.742 L2161.18 762.321 Q2166.41 763.317 2168.89 765.84 Q2171.39 768.34 2171.39 772.553 Q2171.39 777.576 2168.01 780.168 Q2164.65 782.761 2158.15 782.761 Q2155.69 782.761 2152.91 782.205 Q2150.16 781.65 2147.2 780.562 L2147.2 775.747 Q2150.04 777.344 2152.78 778.154 Q2155.51 778.965 2158.15 778.965 Q2162.15 778.965 2164.33 777.391 Q2166.5 775.816 2166.5 772.9 Q2166.5 770.354 2164.93 768.918 Q2163.38 767.483 2159.81 766.766 L2156.97 766.21 Q2151.73 765.168 2149.4 762.946 Q2147.06 760.724 2147.06 756.766 Q2147.06 752.182 2150.28 749.543 Q2153.52 746.905 2159.19 746.905 Q2161.62 746.905 2164.14 747.344 Q2166.66 747.784 2169.3 748.664 Z" fill="#000000" fill-rule="nonzero" fill-opacity="1" /><path clip-path="url(#clip710)" d="M2189.28 784.497 Q2187.47 789.127 2185.76 790.539 Q2184.05 791.951 2181.18 791.951 L2177.78 791.951 L2177.78 788.386 L2180.28 788.386 Q2182.03 788.386 2183.01 787.553 Q2183.98 786.719 2185.16 783.617 L2185.92 781.673 L2175.44 756.164 L2179.95 756.164 L2188.05 776.441 L2196.16 756.164 L2200.67 756.164 L2189.28 784.497 Z" fill="#000000" fill-rule="nonzero" fill-opacity="1" /><path clip-path="url(#clip710)" d="M2226.73 761.141 Q2228.33 758.27 2230.55 756.905 Q2232.78 755.539 2235.78 755.539 Q2239.84 755.539 2242.03 758.386 Q2244.23 761.21 2244.23 766.442 L2244.23 782.09 L2239.95 782.09 L2239.95 766.58 Q2239.95 762.854 2238.63 761.048 Q2237.31 759.242 2234.6 759.242 Q2231.29 759.242 2229.37 761.442 Q2227.45 763.641 2227.45 767.437 L2227.45 782.09 L2223.17 782.09 L2223.17 766.58 Q2223.17 762.83 2221.85 761.048 Q2220.53 759.242 2217.78 759.242 Q2214.51 759.242 2212.59 761.465 Q2210.67 763.664 2210.67 767.437 L2210.67 782.09 L2206.39 782.09 L2206.39 756.164 L2210.67 756.164 L2210.67 760.192 Q2212.13 757.807 2214.16 756.673 Q2216.2 755.539 2219 755.539 Q2221.83 755.539 2223.79 756.974 Q2225.78 758.409 2226.73 761.141 Z" fill="#000000" fill-rule="nonzero" fill-opacity="1" /><polyline clip-path="url(#clip710)" style="stroke:#bc272d; stroke-linecap:round; stroke-linejoin:round; stroke-width:8; stroke-opacity:1; fill:none" points="1983.47,816.65 2123.69,816.65 "/>
<path clip-path="url(#clip710)" d="M2053.58 795.012 L2048.5 809.639 L2033 809.963 L2045.36 819.333 L2040.86 834.155 L2053.58 825.305 L2066.31 834.155 L2061.8 819.333 L2074.16 809.963 L2058.67 809.639 L2053.58 795.012 Z" fill="#bc272d" fill-rule="evenodd" fill-opacity="1" stroke="#000000" stroke-opacity="1" stroke-width="2.73067"/>
<path clip-path="url(#clip710)" d="M2147.06 799.37 L2166.92 799.37 L2166.92 803.305 L2151.73 803.305 L2151.73 813.49 L2165.44 813.49 L2165.44 817.425 L2151.73 817.425 L2151.73 833.93 L2147.06 833.93 L2147.06 799.37 Z" fill="#000000" fill-rule="nonzero" fill-opacity="1" /><path clip-path="url(#clip710)" d="M2174.14 797.911 L2178.4 797.911 L2178.4 833.93 L2174.14 833.93 L2174.14 797.911 Z" fill="#000000" fill-rule="nonzero" fill-opacity="1" /><path clip-path="url(#clip710)" d="M2199.09 820.897 Q2193.93 820.897 2191.94 822.078 Q2189.95 823.258 2189.95 826.106 Q2189.95 828.374 2191.43 829.717 Q2192.94 831.036 2195.51 831.036 Q2199.05 831.036 2201.18 828.536 Q2203.33 826.013 2203.33 821.846 L2203.33 820.897 L2199.09 820.897 M2207.59 819.138 L2207.59 833.93 L2203.33 833.93 L2203.33 829.994 Q2201.87 832.356 2199.7 833.49 Q2197.52 834.601 2194.37 834.601 Q2190.39 834.601 2188.03 832.379 Q2185.69 830.133 2185.69 826.383 Q2185.69 822.008 2188.61 819.786 Q2191.55 817.564 2197.36 817.564 L2203.33 817.564 L2203.33 817.147 Q2203.33 814.207 2201.39 812.61 Q2199.47 810.99 2195.97 810.99 Q2193.75 810.99 2191.64 811.522 Q2189.53 812.055 2187.59 813.12 L2187.59 809.184 Q2189.93 808.282 2192.13 807.842 Q2194.33 807.379 2196.41 807.379 Q2202.03 807.379 2204.81 810.295 Q2207.59 813.212 2207.59 819.138 Z" fill="#000000" fill-rule="nonzero" fill-opacity="1" /><path clip-path="url(#clip710)" d="M2220.58 800.643 L2220.58 808.004 L2229.35 808.004 L2229.35 811.314 L2220.58 811.314 L2220.58 825.388 Q2220.58 828.559 2221.43 829.462 Q2222.31 830.365 2224.97 830.365 L2229.35 830.365 L2229.35 833.93 L2224.97 833.93 Q2220.04 833.93 2218.17 832.101 Q2216.29 830.249 2216.29 825.388 L2216.29 811.314 L2213.17 811.314 L2213.17 808.004 L2216.29 808.004 L2216.29 800.643 L2220.58 800.643 Z" fill="#000000" fill-rule="nonzero" fill-opacity="1" /><polyline clip-path="url(#clip710)" style="stroke:#e9c716; stroke-linecap:round; stroke-linejoin:round; stroke-width:8; stroke-opacity:1; fill:none" points="1983.47,868.49 2123.69,868.49 "/>
<path clip-path="url(#clip710)" d="M2053.58 846.852 L2031.94 890.128 L2075.22 890.128 L2053.58 846.852 Z" fill="#e9c716" fill-rule="evenodd" fill-opacity="1" stroke="#000000" stroke-opacity="1" stroke-width="2.73067"/>
<path clip-path="url(#clip710)" d="M2151.73 855.052 L2151.73 868.038 L2157.61 868.038 Q2160.88 868.038 2162.66 866.348 Q2164.44 864.659 2164.44 861.534 Q2164.44 858.432 2162.66 856.742 Q2160.88 855.052 2157.61 855.052 L2151.73 855.052 M2147.06 851.21 L2157.61 851.21 Q2163.42 851.21 2166.39 853.848 Q2169.37 856.464 2169.37 861.534 Q2169.37 866.649 2166.39 869.265 Q2163.42 871.881 2157.61 871.881 L2151.73 871.881 L2151.73 885.77 L2147.06 885.77 L2147.06 851.21 Z" fill="#000000" fill-rule="nonzero" fill-opacity="1" /><path clip-path="url(#clip710)" d="M2195.95 871.742 L2195.95 873.825 L2176.36 873.825 Q2176.64 878.223 2179 880.538 Q2181.39 882.83 2185.62 882.83 Q2188.08 882.83 2190.37 882.228 Q2192.68 881.626 2194.95 880.422 L2194.95 884.45 Q2192.66 885.422 2190.25 885.932 Q2187.84 886.441 2185.37 886.441 Q2179.16 886.441 2175.53 882.83 Q2171.92 879.219 2171.92 873.061 Q2171.92 866.696 2175.34 862.969 Q2178.79 859.219 2184.63 859.219 Q2189.86 859.219 2192.89 862.598 Q2195.95 865.955 2195.95 871.742 M2191.69 870.492 Q2191.64 866.997 2189.72 864.913 Q2187.82 862.83 2184.67 862.83 Q2181.11 862.83 2178.96 864.844 Q2176.83 866.858 2176.5 870.515 L2191.69 870.492 Z" fill="#000000" fill-rule="nonzero" fill-opacity="1" /><path clip-path="url(#clip710)" d="M2217.96 863.825 Q2217.24 863.409 2216.39 863.223 Q2215.55 863.015 2214.53 863.015 Q2210.92 863.015 2208.98 865.376 Q2207.06 867.714 2207.06 872.112 L2207.06 885.77 L2202.78 885.77 L2202.78 859.844 L2207.06 859.844 L2207.06 863.872 Q2208.4 861.51 2210.55 860.376 Q2212.71 859.219 2215.78 859.219 Q2216.22 859.219 2216.76 859.288 Q2217.29 859.335 2217.94 859.45 L2217.96 863.825 Z" fill="#000000" fill-rule="nonzero" fill-opacity="1" /><path clip-path="url(#clip710)" d="M2241.78 864.821 Q2243.38 861.95 2245.6 860.585 Q2247.82 859.219 2250.83 859.219 Q2254.88 859.219 2257.08 862.066 Q2259.28 864.89 2259.28 870.122 L2259.28 885.77 L2255 885.77 L2255 870.26 Q2255 866.534 2253.68 864.728 Q2252.36 862.922 2249.65 862.922 Q2246.34 862.922 2244.42 865.122 Q2242.5 867.321 2242.5 871.117 L2242.5 885.77 L2238.22 885.77 L2238.22 870.26 Q2238.22 866.51 2236.9 864.728 Q2235.58 862.922 2232.82 862.922 Q2229.56 862.922 2227.64 865.145 Q2225.72 867.344 2225.72 871.117 L2225.72 885.77 L2221.43 885.77 L2221.43 859.844 L2225.72 859.844 L2225.72 863.872 Q2227.17 861.487 2229.21 860.353 Q2231.25 859.219 2234.05 859.219 Q2236.87 859.219 2238.84 860.654 Q2240.83 862.089 2241.78 864.821 Z" fill="#000000" fill-rule="nonzero" fill-opacity="1" /></svg>
