<?xml version="1.0" encoding="utf-8"?>
<svg xmlns="http://www.w3.org/2000/svg" xmlns:xlink="http://www.w3.org/1999/xlink" width="600" height="400" viewBox="0 0 2400 1600">
<defs>
  <clipPath id="clip450">
    <rect x="0" y="0" width="2400" height="1600"/>
  </clipPath>
</defs>
<path clip-path="url(#clip450)" d="M0 1600 L2400 1600 L2400 0 L0 0  Z" fill="#ffffff" fill-rule="evenodd" fill-opacity="1"/>
<defs>
  <clipPath id="clip451">
    <rect x="480" y="0" width="1681" height="1600"/>
  </clipPath>
</defs>
<path clip-path="url(#clip450)" d="M219.866 1423.18 L2352.76 1423.18 L2352.76 123.472 L219.866 123.472  Z" fill="#ffffff" fill-rule="evenodd" fill-opacity="1"/>
<defs>
  <clipPath id="clip452">
    <rect x="219" y="123" width="2134" height="1301"/>
  </clipPath>
</defs>
<polyline clip-path="url(#clip452)" style="stroke:#000000; stroke-linecap:round; stroke-linejoin:round; stroke-width:2; stroke-opacity:0.1; fill:none" points="2292.39,1423.18 2292.39,123.472 "/>
<polyline clip-path="url(#clip452)" style="stroke:#000000; stroke-linecap:round; stroke-linejoin:round; stroke-width:2; stroke-opacity:0.1; fill:none" points="1957.03,1423.18 1957.03,123.472 "/>
<polyline clip-path="url(#clip452)" style="stroke:#000000; stroke-linecap:round; stroke-linejoin:round; stroke-width:2; stroke-opacity:0.1; fill:none" points="1621.67,1423.18 1621.67,123.472 "/>
<polyline clip-path="url(#clip452)" style="stroke:#000000; stroke-linecap:round; stroke-linejoin:round; stroke-width:2; stroke-opacity:0.1; fill:none" points="1286.31,1423.18 1286.31,123.472 "/>
<polyline clip-path="url(#clip452)" style="stroke:#000000; stroke-linecap:round; stroke-linejoin:round; stroke-width:2; stroke-opacity:0.1; fill:none" points="950.951,1423.18 950.951,123.472 "/>
<polyline clip-path="url(#clip452)" style="stroke:#000000; stroke-linecap:round; stroke-linejoin:round; stroke-width:2; stroke-opacity:0.1; fill:none" points="615.591,1423.18 615.591,123.472 "/>
<polyline clip-path="url(#clip452)" style="stroke:#000000; stroke-linecap:round; stroke-linejoin:round; stroke-width:2; stroke-opacity:0.1; fill:none" points="280.231,1423.18 280.231,123.472 "/>
<polyline clip-path="url(#clip450)" style="stroke:#000000; stroke-linecap:round; stroke-linejoin:round; stroke-width:4; stroke-opacity:1; fill:none" points="2352.76,1423.18 219.866,1423.18 "/>
<polyline clip-path="url(#clip450)" style="stroke:#000000; stroke-linecap:round; stroke-linejoin:round; stroke-width:4; stroke-opacity:1; fill:none" points="2292.39,1423.18 2292.39,1404.28 "/>
<polyline clip-path="url(#clip450)" style="stroke:#000000; stroke-linecap:round; stroke-linejoin:round; stroke-width:4; stroke-opacity:1; fill:none" points="1957.03,1423.18 1957.03,1404.28 "/>
<polyline clip-path="url(#clip450)" style="stroke:#000000; stroke-linecap:round; stroke-linejoin:round; stroke-width:4; stroke-opacity:1; fill:none" points="1621.67,1423.18 1621.67,1404.28 "/>
<polyline clip-path="url(#clip450)" style="stroke:#000000; stroke-linecap:round; stroke-linejoin:round; stroke-width:4; stroke-opacity:1; fill:none" points="1286.31,1423.18 1286.31,1404.28 "/>
<polyline clip-path="url(#clip450)" style="stroke:#000000; stroke-linecap:round; stroke-linejoin:round; stroke-width:4; stroke-opacity:1; fill:none" points="950.951,1423.18 950.951,1404.28 "/>
<polyline clip-path="url(#clip450)" style="stroke:#000000; stroke-linecap:round; stroke-linejoin:round; stroke-width:4; stroke-opacity:1; fill:none" points="615.591,1423.18 615.591,1404.28 "/>
<polyline clip-path="url(#clip450)" style="stroke:#000000; stroke-linecap:round; stroke-linejoin:round; stroke-width:4; stroke-opacity:1; fill:none" points="280.231,1423.18 280.231,1404.28 "/>
<path clip-path="url(#clip450)" d="M2270.57 1454.1 Q2266.96 1454.1 2265.13 1457.66 Q2263.33 1461.2 2263.33 1468.33 Q2263.33 1475.44 2265.13 1479.01 Q2266.96 1482.55 2270.57 1482.55 Q2274.21 1482.55 2276.01 1479.01 Q2277.84 1475.44 2277.84 1468.33 Q2277.84 1461.2 2276.01 1457.66 Q2274.21 1454.1 2270.57 1454.1 M2270.57 1450.39 Q2276.38 1450.39 2279.44 1455 Q2282.52 1459.58 2282.52 1468.33 Q2282.52 1477.06 2279.44 1481.67 Q2276.38 1486.25 2270.57 1486.25 Q2264.76 1486.25 2261.69 1481.67 Q2258.63 1477.06 2258.63 1468.33 Q2258.63 1459.58 2261.69 1455 Q2264.76 1450.39 2270.57 1450.39 Z" fill="#000000" fill-rule="nonzero" fill-opacity="1" /><path clip-path="url(#clip450)" d="M2290.74 1479.7 L2295.62 1479.7 L2295.62 1485.58 L2290.74 1485.58 L2290.74 1479.7 Z" fill="#000000" fill-rule="nonzero" fill-opacity="1" /><path clip-path="url(#clip450)" d="M2309.83 1481.64 L2326.15 1481.64 L2326.15 1485.58 L2304.21 1485.58 L2304.21 1481.64 Q2306.87 1478.89 2311.45 1474.26 Q2316.06 1469.61 2317.24 1468.27 Q2319.49 1465.74 2320.37 1464.01 Q2321.27 1462.25 2321.27 1460.56 Q2321.27 1457.8 2319.32 1456.07 Q2317.4 1454.33 2314.3 1454.33 Q2312.1 1454.33 2309.65 1455.09 Q2307.22 1455.86 2304.44 1457.41 L2304.44 1452.69 Q2307.26 1451.55 2309.72 1450.97 Q2312.17 1450.39 2314.21 1450.39 Q2319.58 1450.39 2322.77 1453.08 Q2325.97 1455.77 2325.97 1460.26 Q2325.97 1462.39 2325.16 1464.31 Q2324.37 1466.2 2322.26 1468.8 Q2321.68 1469.47 2318.58 1472.69 Q2315.48 1475.88 2309.83 1481.64 Z" fill="#000000" fill-rule="nonzero" fill-opacity="1" /><path clip-path="url(#clip450)" d="M1934.74 1454.1 Q1931.13 1454.1 1929.3 1457.66 Q1927.49 1461.2 1927.49 1468.33 Q1927.49 1475.44 1929.3 1479.01 Q1931.13 1482.55 1934.74 1482.55 Q1938.37 1482.55 1940.18 1479.01 Q1942.01 1475.44 1942.01 1468.33 Q1942.01 1461.2 1940.18 1457.66 Q1938.37 1454.1 1934.74 1454.1 M1934.74 1450.39 Q1940.55 1450.39 1943.61 1455 Q1946.68 1459.58 1946.68 1468.33 Q1946.68 1477.06 1943.61 1481.67 Q1940.55 1486.25 1934.74 1486.25 Q1928.93 1486.25 1925.85 1481.67 Q1922.8 1477.06 1922.8 1468.33 Q1922.8 1459.58 1925.85 1455 Q1928.93 1450.39 1934.74 1450.39 Z" fill="#000000" fill-rule="nonzero" fill-opacity="1" /><path clip-path="url(#clip450)" d="M1954.9 1479.7 L1959.79 1479.7 L1959.79 1485.58 L1954.9 1485.58 L1954.9 1479.7 Z" fill="#000000" fill-rule="nonzero" fill-opacity="1" /><path clip-path="url(#clip450)" d="M1984.14 1466.95 Q1987.49 1467.66 1989.37 1469.93 Q1991.27 1472.2 1991.27 1475.53 Q1991.27 1480.65 1987.75 1483.45 Q1984.23 1486.25 1977.75 1486.25 Q1975.57 1486.25 1973.26 1485.81 Q1970.97 1485.39 1968.51 1484.54 L1968.51 1480.02 Q1970.46 1481.16 1972.77 1481.74 Q1975.09 1482.32 1977.61 1482.32 Q1982.01 1482.32 1984.3 1480.58 Q1986.61 1478.84 1986.61 1475.53 Q1986.61 1472.48 1984.46 1470.77 Q1982.33 1469.03 1978.51 1469.03 L1974.48 1469.03 L1974.48 1465.19 L1978.7 1465.19 Q1982.15 1465.19 1983.98 1463.82 Q1985.8 1462.43 1985.8 1459.84 Q1985.8 1457.18 1983.91 1455.77 Q1982.03 1454.33 1978.51 1454.33 Q1976.59 1454.33 1974.39 1454.75 Q1972.19 1455.16 1969.55 1456.04 L1969.55 1451.88 Q1972.22 1451.14 1974.53 1450.77 Q1976.87 1450.39 1978.93 1450.39 Q1984.25 1450.39 1987.36 1452.83 Q1990.46 1455.23 1990.46 1459.35 Q1990.46 1462.22 1988.81 1464.21 Q1987.17 1466.18 1984.14 1466.95 Z" fill="#000000" fill-rule="nonzero" fill-opacity="1" /><path clip-path="url(#clip450)" d="M1598.81 1454.1 Q1595.2 1454.1 1593.37 1457.66 Q1591.57 1461.2 1591.57 1468.33 Q1591.57 1475.44 1593.37 1479.01 Q1595.2 1482.55 1598.81 1482.55 Q1602.45 1482.55 1604.25 1479.01 Q1606.08 1475.44 1606.08 1468.33 Q1606.08 1461.2 1604.25 1457.66 Q1602.45 1454.1 1598.81 1454.1 M1598.81 1450.39 Q1604.62 1450.39 1607.68 1455 Q1610.76 1459.58 1610.76 1468.33 Q1610.76 1477.06 1607.68 1481.67 Q1604.62 1486.25 1598.81 1486.25 Q1593 1486.25 1589.92 1481.67 Q1586.87 1477.06 1586.87 1468.33 Q1586.87 1459.58 1589.92 1455 Q1593 1450.39 1598.81 1450.39 Z" fill="#000000" fill-rule="nonzero" fill-opacity="1" /><path clip-path="url(#clip450)" d="M1618.97 1479.7 L1623.86 1479.7 L1623.86 1485.58 L1618.97 1485.58 L1618.97 1479.7 Z" fill="#000000" fill-rule="nonzero" fill-opacity="1" /><path clip-path="url(#clip450)" d="M1646.89 1455.09 L1635.09 1473.54 L1646.89 1473.54 L1646.89 1455.09 M1645.66 1451.02 L1651.54 1451.02 L1651.54 1473.54 L1656.47 1473.54 L1656.47 1477.43 L1651.54 1477.43 L1651.54 1485.58 L1646.89 1485.58 L1646.89 1477.43 L1631.29 1477.43 L1631.29 1472.92 L1645.66 1451.02 Z" fill="#000000" fill-rule="nonzero" fill-opacity="1" /><path clip-path="url(#clip450)" d="M1264.19 1454.1 Q1260.58 1454.1 1258.75 1457.66 Q1256.95 1461.2 1256.95 1468.33 Q1256.95 1475.44 1258.75 1479.01 Q1260.58 1482.55 1264.19 1482.55 Q1267.83 1482.55 1269.63 1479.01 Q1271.46 1475.44 1271.46 1468.33 Q1271.46 1461.2 1269.63 1457.66 Q1267.83 1454.1 1264.19 1454.1 M1264.19 1450.39 Q1270 1450.39 1273.06 1455 Q1276.14 1459.58 1276.14 1468.33 Q1276.14 1477.06 1273.06 1481.67 Q1270 1486.25 1264.19 1486.25 Q1258.38 1486.25 1255.3 1481.67 Q1252.25 1477.06 1252.25 1468.33 Q1252.25 1459.58 1255.3 1455 Q1258.38 1450.39 1264.19 1450.39 Z" fill="#000000" fill-rule="nonzero" fill-opacity="1" /><path clip-path="url(#clip450)" d="M1284.36 1479.7 L1289.24 1479.7 L1289.24 1485.58 L1284.36 1485.58 L1284.36 1479.7 Z" fill="#000000" fill-rule="nonzero" fill-opacity="1" /><path clip-path="url(#clip450)" d="M1299.47 1451.02 L1317.83 1451.02 L1317.83 1454.96 L1303.75 1454.96 L1303.75 1463.43 Q1304.77 1463.08 1305.79 1462.92 Q1306.81 1462.73 1307.83 1462.73 Q1313.61 1462.73 1316.99 1465.9 Q1320.37 1469.08 1320.37 1474.49 Q1320.37 1480.07 1316.9 1483.17 Q1313.43 1486.25 1307.11 1486.25 Q1304.93 1486.25 1302.67 1485.88 Q1300.42 1485.51 1298.01 1484.77 L1298.01 1480.07 Q1300.1 1481.2 1302.32 1481.76 Q1304.54 1482.32 1307.02 1482.32 Q1311.02 1482.32 1313.36 1480.21 Q1315.7 1478.1 1315.7 1474.49 Q1315.7 1470.88 1313.36 1468.77 Q1311.02 1466.67 1307.02 1466.67 Q1305.14 1466.67 1303.27 1467.08 Q1301.42 1467.5 1299.47 1468.38 L1299.47 1451.02 Z" fill="#000000" fill-rule="nonzero" fill-opacity="1" /><path clip-path="url(#clip450)" d="M928.254 1454.1 Q924.643 1454.1 922.815 1457.66 Q921.009 1461.2 921.009 1468.33 Q921.009 1475.44 922.815 1479.01 Q924.643 1482.55 928.254 1482.55 Q931.889 1482.55 933.694 1479.01 Q935.523 1475.44 935.523 1468.33 Q935.523 1461.2 933.694 1457.66 Q931.889 1454.1 928.254 1454.1 M928.254 1450.39 Q934.065 1450.39 937.12 1455 Q940.199 1459.58 940.199 1468.33 Q940.199 1477.06 937.12 1481.67 Q934.065 1486.25 928.254 1486.25 Q922.444 1486.25 919.366 1481.67 Q916.31 1477.06 916.31 1468.33 Q916.31 1459.58 919.366 1455 Q922.444 1450.39 928.254 1450.39 Z" fill="#000000" fill-rule="nonzero" fill-opacity="1" /><path clip-path="url(#clip450)" d="M948.416 1479.7 L953.301 1479.7 L953.301 1485.58 L948.416 1485.58 L948.416 1479.7 Z" fill="#000000" fill-rule="nonzero" fill-opacity="1" /><path clip-path="url(#clip450)" d="M974.064 1466.44 Q970.916 1466.44 969.064 1468.59 Q967.236 1470.74 967.236 1474.49 Q967.236 1478.22 969.064 1480.39 Q970.916 1482.55 974.064 1482.55 Q977.213 1482.55 979.041 1480.39 Q980.893 1478.22 980.893 1474.49 Q980.893 1470.74 979.041 1468.59 Q977.213 1466.44 974.064 1466.44 M983.347 1451.78 L983.347 1456.04 Q981.587 1455.21 979.782 1454.77 Q978 1454.33 976.24 1454.33 Q971.611 1454.33 969.157 1457.45 Q966.726 1460.58 966.379 1466.9 Q967.745 1464.89 969.805 1463.82 Q971.865 1462.73 974.342 1462.73 Q979.55 1462.73 982.56 1465.9 Q985.592 1469.05 985.592 1474.49 Q985.592 1479.82 982.444 1483.03 Q979.296 1486.25 974.064 1486.25 Q968.069 1486.25 964.898 1481.67 Q961.726 1477.06 961.726 1468.33 Q961.726 1460.14 965.615 1455.28 Q969.504 1450.39 976.055 1450.39 Q977.814 1450.39 979.597 1450.74 Q981.402 1451.09 983.347 1451.78 Z" fill="#000000" fill-rule="nonzero" fill-opacity="1" /><path clip-path="url(#clip450)" d="M593.427 1454.1 Q589.816 1454.1 587.987 1457.66 Q586.182 1461.2 586.182 1468.33 Q586.182 1475.44 587.987 1479.01 Q589.816 1482.55 593.427 1482.55 Q597.061 1482.55 598.867 1479.01 Q600.695 1475.44 600.695 1468.33 Q600.695 1461.2 598.867 1457.66 Q597.061 1454.1 593.427 1454.1 M593.427 1450.39 Q599.237 1450.39 602.293 1455 Q605.371 1459.58 605.371 1468.33 Q605.371 1477.06 602.293 1481.67 Q599.237 1486.25 593.427 1486.25 Q587.617 1486.25 584.538 1481.67 Q581.482 1477.06 581.482 1468.33 Q581.482 1459.58 584.538 1455 Q587.617 1450.39 593.427 1450.39 Z" fill="#000000" fill-rule="nonzero" fill-opacity="1" /><path clip-path="url(#clip450)" d="M613.589 1479.7 L618.473 1479.7 L618.473 1485.58 L613.589 1485.58 L613.589 1479.7 Z" fill="#000000" fill-rule="nonzero" fill-opacity="1" /><path clip-path="url(#clip450)" d="M627.478 1451.02 L649.7 1451.02 L649.7 1453.01 L637.153 1485.58 L632.269 1485.58 L644.075 1454.96 L627.478 1454.96 L627.478 1451.02 Z" fill="#000000" fill-rule="nonzero" fill-opacity="1" /><path clip-path="url(#clip450)" d="M257.662 1454.1 Q254.051 1454.1 252.222 1457.66 Q250.416 1461.2 250.416 1468.33 Q250.416 1475.44 252.222 1479.01 Q254.051 1482.55 257.662 1482.55 Q261.296 1482.55 263.102 1479.01 Q264.93 1475.44 264.93 1468.33 Q264.93 1461.2 263.102 1457.66 Q261.296 1454.1 257.662 1454.1 M257.662 1450.39 Q263.472 1450.39 266.527 1455 Q269.606 1459.58 269.606 1468.33 Q269.606 1477.06 266.527 1481.67 Q263.472 1486.25 257.662 1486.25 Q251.852 1486.25 248.773 1481.67 Q245.717 1477.06 245.717 1468.33 Q245.717 1459.58 248.773 1455 Q251.852 1450.39 257.662 1450.39 Z" fill="#000000" fill-rule="nonzero" fill-opacity="1" /><path clip-path="url(#clip450)" d="M277.824 1479.7 L282.708 1479.7 L282.708 1485.58 L277.824 1485.58 L277.824 1479.7 Z" fill="#000000" fill-rule="nonzero" fill-opacity="1" /><path clip-path="url(#clip450)" d="M302.893 1469.17 Q299.56 1469.17 297.638 1470.95 Q295.74 1472.73 295.74 1475.86 Q295.74 1478.98 297.638 1480.77 Q299.56 1482.55 302.893 1482.55 Q306.226 1482.55 308.148 1480.77 Q310.069 1478.96 310.069 1475.86 Q310.069 1472.73 308.148 1470.95 Q306.249 1469.17 302.893 1469.17 M298.217 1467.18 Q295.208 1466.44 293.518 1464.38 Q291.851 1462.32 291.851 1459.35 Q291.851 1455.21 294.791 1452.8 Q297.754 1450.39 302.893 1450.39 Q308.055 1450.39 310.995 1452.8 Q313.935 1455.21 313.935 1459.35 Q313.935 1462.32 312.245 1464.38 Q310.578 1466.44 307.592 1467.18 Q310.972 1467.96 312.847 1470.26 Q314.745 1472.55 314.745 1475.86 Q314.745 1480.88 311.666 1483.57 Q308.611 1486.25 302.893 1486.25 Q297.175 1486.25 294.097 1483.57 Q291.041 1480.88 291.041 1475.86 Q291.041 1472.55 292.939 1470.26 Q294.837 1467.96 298.217 1467.18 M296.504 1459.79 Q296.504 1462.48 298.171 1463.98 Q299.861 1465.49 302.893 1465.49 Q305.902 1465.49 307.592 1463.98 Q309.305 1462.48 309.305 1459.79 Q309.305 1457.11 307.592 1455.6 Q305.902 1454.1 302.893 1454.1 Q299.861 1454.1 298.171 1455.6 Q296.504 1457.11 296.504 1459.79 Z" fill="#000000" fill-rule="nonzero" fill-opacity="1" /><path clip-path="url(#clip450)" d="M634.861 1525.81 L634.861 1543.66 L642.945 1543.66 Q647.433 1543.66 649.884 1541.34 Q652.334 1539.02 652.334 1534.72 Q652.334 1530.45 649.884 1528.13 Q647.433 1525.81 642.945 1525.81 L634.861 1525.81 M628.431 1520.52 L642.945 1520.52 Q650.934 1520.52 655.008 1524.15 Q659.114 1527.75 659.114 1534.72 Q659.114 1541.75 655.008 1545.35 Q650.934 1548.95 642.945 1548.95 L634.861 1548.95 L634.861 1568.04 L628.431 1568.04 L628.431 1520.52 Z" fill="#000000" fill-rule="nonzero" fill-opacity="1" /><path clip-path="url(#clip450)" d="M686.996 1537.87 Q686.009 1537.3 684.831 1537.04 Q683.686 1536.76 682.285 1536.76 Q677.32 1536.76 674.646 1540 Q672.004 1543.22 672.004 1549.27 L672.004 1568.04 L666.116 1568.04 L666.116 1532.4 L672.004 1532.4 L672.004 1537.93 Q673.851 1534.69 676.811 1533.13 Q679.771 1531.54 684.004 1531.54 Q684.609 1531.54 685.341 1531.63 Q686.073 1531.7 686.964 1531.85 L686.996 1537.87 Z" fill="#000000" fill-rule="nonzero" fill-opacity="1" /><path clip-path="url(#clip450)" d="M705.52 1536.5 Q700.809 1536.5 698.072 1540.19 Q695.335 1543.85 695.335 1550.25 Q695.335 1556.65 698.04 1560.34 Q700.777 1564 705.52 1564 Q710.199 1564 712.936 1560.31 Q715.673 1556.62 715.673 1550.25 Q715.673 1543.92 712.936 1540.23 Q710.199 1536.5 705.52 1536.5 M705.52 1531.54 Q713.159 1531.54 717.519 1536.5 Q721.88 1541.47 721.88 1550.25 Q721.88 1559 717.519 1564 Q713.159 1568.97 705.52 1568.97 Q697.849 1568.97 693.489 1564 Q689.16 1559 689.16 1550.25 Q689.16 1541.47 693.489 1536.5 Q697.849 1531.54 705.52 1531.54 Z" fill="#000000" fill-rule="nonzero" fill-opacity="1" /><path clip-path="url(#clip450)" d="M737.253 1562.7 L737.253 1581.6 L731.365 1581.6 L731.365 1532.4 L737.253 1532.4 L737.253 1537.81 Q739.099 1534.62 741.9 1533.1 Q744.733 1531.54 748.648 1531.54 Q755.141 1531.54 759.183 1536.69 Q763.257 1541.85 763.257 1550.25 Q763.257 1558.65 759.183 1563.81 Q755.141 1568.97 748.648 1568.97 Q744.733 1568.97 741.9 1567.44 Q739.099 1565.88 737.253 1562.7 M757.178 1550.25 Q757.178 1543.79 754.504 1540.13 Q751.862 1536.44 747.215 1536.44 Q742.568 1536.44 739.895 1540.13 Q737.253 1543.79 737.253 1550.25 Q737.253 1556.71 739.895 1560.4 Q742.568 1564.07 747.215 1564.07 Q751.862 1564.07 754.504 1560.4 Q757.178 1556.71 757.178 1550.25 Z" fill="#000000" fill-rule="nonzero" fill-opacity="1" /><path clip-path="url(#clip450)" d="M786.778 1536.5 Q782.068 1536.5 779.33 1540.19 Q776.593 1543.85 776.593 1550.25 Q776.593 1556.65 779.298 1560.34 Q782.036 1564 786.778 1564 Q791.457 1564 794.194 1560.31 Q796.931 1556.62 796.931 1550.25 Q796.931 1543.92 794.194 1540.23 Q791.457 1536.5 786.778 1536.5 M786.778 1531.54 Q794.417 1531.54 798.778 1536.5 Q803.138 1541.47 803.138 1550.25 Q803.138 1559 798.778 1564 Q794.417 1568.97 786.778 1568.97 Q779.107 1568.97 774.747 1564 Q770.418 1559 770.418 1550.25 Q770.418 1541.47 774.747 1536.5 Q779.107 1531.54 786.778 1531.54 Z" fill="#000000" fill-rule="nonzero" fill-opacity="1" /><path clip-path="url(#clip450)" d="M833.502 1537.87 Q832.516 1537.3 831.338 1537.04 Q830.192 1536.76 828.792 1536.76 Q823.827 1536.76 821.153 1540 Q818.511 1543.22 818.511 1549.27 L818.511 1568.04 L812.623 1568.04 L812.623 1532.4 L818.511 1532.4 L818.511 1537.93 Q820.357 1534.69 823.317 1533.13 Q826.277 1531.54 830.511 1531.54 Q831.115 1531.54 831.847 1531.63 Q832.579 1531.7 833.471 1531.85 L833.502 1537.87 Z" fill="#000000" fill-rule="nonzero" fill-opacity="1" /><path clip-path="url(#clip450)" d="M845.438 1522.27 L845.438 1532.4 L857.501 1532.4 L857.501 1536.95 L845.438 1536.95 L845.438 1556.3 Q845.438 1560.66 846.616 1561.9 Q847.825 1563.14 851.486 1563.14 L857.501 1563.14 L857.501 1568.04 L851.486 1568.04 Q844.706 1568.04 842.128 1565.53 Q839.55 1562.98 839.55 1556.3 L839.55 1536.95 L835.253 1536.95 L835.253 1532.4 L839.55 1532.4 L839.55 1522.27 L845.438 1522.27 Z" fill="#000000" fill-rule="nonzero" fill-opacity="1" /><path clip-path="url(#clip450)" d="M865.204 1532.4 L871.06 1532.4 L871.06 1568.04 L865.204 1568.04 L865.204 1532.4 M865.204 1518.52 L871.06 1518.52 L871.06 1525.93 L865.204 1525.93 L865.204 1518.52 Z" fill="#000000" fill-rule="nonzero" fill-opacity="1" /><path clip-path="url(#clip450)" d="M897.128 1536.5 Q892.417 1536.5 889.68 1540.19 Q886.943 1543.85 886.943 1550.25 Q886.943 1556.65 889.648 1560.34 Q892.385 1564 897.128 1564 Q901.806 1564 904.544 1560.31 Q907.281 1556.62 907.281 1550.25 Q907.281 1543.92 904.544 1540.23 Q901.806 1536.5 897.128 1536.5 M897.128 1531.54 Q904.767 1531.54 909.127 1536.5 Q913.488 1541.47 913.488 1550.25 Q913.488 1559 909.127 1564 Q904.767 1568.97 897.128 1568.97 Q889.457 1568.97 885.097 1564 Q880.768 1559 880.768 1550.25 Q880.768 1541.47 885.097 1536.5 Q889.457 1531.54 897.128 1531.54 Z" fill="#000000" fill-rule="nonzero" fill-opacity="1" /><path clip-path="url(#clip450)" d="M952.828 1546.53 L952.828 1568.04 L946.971 1568.04 L946.971 1546.72 Q946.971 1541.66 944.998 1539.14 Q943.024 1536.63 939.078 1536.63 Q934.335 1536.63 931.598 1539.65 Q928.861 1542.68 928.861 1547.9 L928.861 1568.04 L922.972 1568.04 L922.972 1532.4 L928.861 1532.4 L928.861 1537.93 Q930.961 1534.72 933.794 1533.13 Q936.659 1531.54 940.383 1531.54 Q946.526 1531.54 949.677 1535.36 Q952.828 1539.14 952.828 1546.53 Z" fill="#000000" fill-rule="nonzero" fill-opacity="1" /><path clip-path="url(#clip450)" d="M999.043 1536.5 Q994.332 1536.5 991.595 1540.19 Q988.858 1543.85 988.858 1550.25 Q988.858 1556.65 991.563 1560.34 Q994.3 1564 999.043 1564 Q1003.72 1564 1006.46 1560.31 Q1009.2 1556.62 1009.2 1550.25 Q1009.2 1543.92 1006.46 1540.23 Q1003.72 1536.5 999.043 1536.5 M999.043 1531.54 Q1006.68 1531.54 1011.04 1536.5 Q1015.4 1541.47 1015.4 1550.25 Q1015.4 1559 1011.04 1564 Q1006.68 1568.97 999.043 1568.97 Q991.372 1568.97 987.011 1564 Q982.683 1559 982.683 1550.25 Q982.683 1541.47 987.011 1536.5 Q991.372 1531.54 999.043 1531.54 Z" fill="#000000" fill-rule="nonzero" fill-opacity="1" /><path clip-path="url(#clip450)" d="M1043.16 1518.52 L1043.16 1523.39 L1037.56 1523.39 Q1034.4 1523.39 1033.16 1524.66 Q1031.95 1525.93 1031.95 1529.24 L1031.95 1532.4 L1041.6 1532.4 L1041.6 1536.95 L1031.95 1536.95 L1031.95 1568.04 L1026.07 1568.04 L1026.07 1536.95 L1020.46 1536.95 L1020.46 1532.4 L1026.07 1532.4 L1026.07 1529.91 Q1026.07 1523.96 1028.83 1521.26 Q1031.6 1518.52 1037.62 1518.52 L1043.16 1518.52 Z" fill="#000000" fill-rule="nonzero" fill-opacity="1" /><path clip-path="url(#clip450)" d="M1094.43 1533.76 L1094.43 1539.24 Q1091.95 1537.87 1089.44 1537.2 Q1086.95 1536.5 1084.41 1536.5 Q1078.71 1536.5 1075.56 1540.13 Q1072.41 1543.73 1072.41 1550.25 Q1072.41 1556.78 1075.56 1560.4 Q1078.71 1564 1084.41 1564 Q1086.95 1564 1089.44 1563.33 Q1091.95 1562.63 1094.43 1561.26 L1094.43 1566.68 Q1091.98 1567.82 1089.34 1568.39 Q1086.73 1568.97 1083.77 1568.97 Q1075.72 1568.97 1070.98 1563.91 Q1066.23 1558.85 1066.23 1550.25 Q1066.23 1541.53 1071.01 1536.53 Q1075.81 1531.54 1084.15 1531.54 Q1086.86 1531.54 1089.44 1532.11 Q1092.01 1532.65 1094.43 1533.76 Z" fill="#000000" fill-rule="nonzero" fill-opacity="1" /><path clip-path="url(#clip450)" d="M1104.62 1518.52 L1110.47 1518.52 L1110.47 1568.04 L1104.62 1568.04 L1104.62 1518.52 Z" fill="#000000" fill-rule="nonzero" fill-opacity="1" /><path clip-path="url(#clip450)" d="M1122.12 1553.98 L1122.12 1532.4 L1127.98 1532.4 L1127.98 1553.75 Q1127.98 1558.81 1129.95 1561.36 Q1131.93 1563.87 1135.87 1563.87 Q1140.62 1563.87 1143.35 1560.85 Q1146.12 1557.83 1146.12 1552.61 L1146.12 1532.4 L1151.98 1532.4 L1151.98 1568.04 L1146.12 1568.04 L1146.12 1562.57 Q1143.99 1565.82 1141.16 1567.41 Q1138.36 1568.97 1134.63 1568.97 Q1128.49 1568.97 1125.31 1565.15 Q1122.12 1561.33 1122.12 1553.98 M1136.86 1531.54 L1136.86 1531.54 Z" fill="#000000" fill-rule="nonzero" fill-opacity="1" /><path clip-path="url(#clip450)" d="M1186.77 1533.45 L1186.77 1538.98 Q1184.28 1537.71 1181.61 1537.07 Q1178.94 1536.44 1176.07 1536.44 Q1171.71 1536.44 1169.52 1537.77 Q1167.35 1539.11 1167.35 1541.79 Q1167.35 1543.82 1168.91 1545 Q1170.47 1546.15 1175.18 1547.2 L1177.19 1547.64 Q1183.43 1548.98 1186.04 1551.43 Q1188.68 1553.85 1188.68 1558.21 Q1188.68 1563.17 1184.73 1566.07 Q1180.82 1568.97 1173.94 1568.97 Q1171.08 1568.97 1167.96 1568.39 Q1164.87 1567.85 1161.43 1566.74 L1161.43 1560.69 Q1164.68 1562.38 1167.83 1563.24 Q1170.98 1564.07 1174.07 1564.07 Q1178.21 1564.07 1180.43 1562.66 Q1182.66 1561.23 1182.66 1558.65 Q1182.66 1556.27 1181.04 1554.99 Q1179.45 1553.72 1174 1552.54 L1171.97 1552.07 Q1166.52 1550.92 1164.11 1548.56 Q1161.69 1546.18 1161.69 1542.04 Q1161.69 1537.01 1165.25 1534.27 Q1168.82 1531.54 1175.37 1531.54 Q1178.62 1531.54 1181.48 1532.01 Q1184.35 1532.49 1186.77 1533.45 Z" fill="#000000" fill-rule="nonzero" fill-opacity="1" /><path clip-path="url(#clip450)" d="M1203.8 1522.27 L1203.8 1532.4 L1215.86 1532.4 L1215.86 1536.95 L1203.8 1536.95 L1203.8 1556.3 Q1203.8 1560.66 1204.97 1561.9 Q1206.18 1563.14 1209.84 1563.14 L1215.86 1563.14 L1215.86 1568.04 L1209.84 1568.04 Q1203.06 1568.04 1200.49 1565.53 Q1197.91 1562.98 1197.91 1556.3 L1197.91 1536.95 L1193.61 1536.95 L1193.61 1532.4 L1197.91 1532.4 L1197.91 1522.27 L1203.8 1522.27 Z" fill="#000000" fill-rule="nonzero" fill-opacity="1" /><path clip-path="url(#clip450)" d="M1254.05 1548.76 L1254.05 1551.62 L1227.13 1551.62 Q1227.51 1557.67 1230.75 1560.85 Q1234.03 1564 1239.86 1564 Q1243.23 1564 1246.38 1563.17 Q1249.57 1562.35 1252.68 1560.69 L1252.68 1566.23 Q1249.53 1567.57 1246.22 1568.27 Q1242.91 1568.97 1239.51 1568.97 Q1230.98 1568.97 1225.98 1564 Q1221.01 1559.04 1221.01 1550.57 Q1221.01 1541.82 1225.73 1536.69 Q1230.47 1531.54 1238.49 1531.54 Q1245.68 1531.54 1249.85 1536.18 Q1254.05 1540.8 1254.05 1548.76 M1248.2 1547.04 Q1248.13 1542.23 1245.49 1539.37 Q1242.88 1536.5 1238.55 1536.5 Q1233.65 1536.5 1230.69 1539.27 Q1227.76 1542.04 1227.32 1547.07 L1248.2 1547.04 Z" fill="#000000" fill-rule="nonzero" fill-opacity="1" /><path clip-path="url(#clip450)" d="M1284.32 1537.87 Q1283.34 1537.3 1282.16 1537.04 Q1281.01 1536.76 1279.61 1536.76 Q1274.65 1536.76 1271.97 1540 Q1269.33 1543.22 1269.33 1549.27 L1269.33 1568.04 L1263.44 1568.04 L1263.44 1532.4 L1269.33 1532.4 L1269.33 1537.93 Q1271.18 1534.69 1274.14 1533.13 Q1277.1 1531.54 1281.33 1531.54 Q1281.93 1531.54 1282.67 1531.63 Q1283.4 1531.7 1284.29 1531.85 L1284.32 1537.87 Z" fill="#000000" fill-rule="nonzero" fill-opacity="1" /><path clip-path="url(#clip450)" d="M1313.19 1533.45 L1313.19 1538.98 Q1310.71 1537.71 1308.03 1537.07 Q1305.36 1536.44 1302.5 1536.44 Q1298.14 1536.44 1295.94 1537.77 Q1293.77 1539.11 1293.77 1541.79 Q1293.77 1543.82 1295.33 1545 Q1296.89 1546.15 1301.6 1547.2 L1303.61 1547.64 Q1309.85 1548.98 1312.46 1551.43 Q1315.1 1553.85 1315.1 1558.21 Q1315.1 1563.17 1311.15 1566.07 Q1307.24 1568.97 1300.36 1568.97 Q1297.5 1568.97 1294.38 1568.39 Q1291.29 1567.85 1287.85 1566.74 L1287.85 1560.69 Q1291.1 1562.38 1294.25 1563.24 Q1297.4 1564.07 1300.49 1564.07 Q1304.63 1564.07 1306.86 1562.66 Q1309.08 1561.23 1309.08 1558.65 Q1309.08 1556.27 1307.46 1554.99 Q1305.87 1553.72 1300.43 1552.54 L1298.39 1552.07 Q1292.95 1550.92 1290.53 1548.56 Q1288.11 1546.18 1288.11 1542.04 Q1288.11 1537.01 1291.67 1534.27 Q1295.24 1531.54 1301.8 1531.54 Q1305.04 1531.54 1307.91 1532.01 Q1310.77 1532.49 1313.19 1533.45 Z" fill="#000000" fill-rule="nonzero" fill-opacity="1" /><path clip-path="url(#clip450)" d="M1341.74 1532.4 L1347.6 1532.4 L1354.92 1560.21 L1362.21 1532.4 L1369.11 1532.4 L1376.43 1560.21 L1383.72 1532.4 L1389.58 1532.4 L1380.25 1568.04 L1373.35 1568.04 L1365.68 1538.83 L1357.97 1568.04 L1351.07 1568.04 L1341.74 1532.4 Z" fill="#000000" fill-rule="nonzero" fill-opacity="1" /><path clip-path="url(#clip450)" d="M1398.46 1532.4 L1404.32 1532.4 L1404.32 1568.04 L1398.46 1568.04 L1398.46 1532.4 M1398.46 1518.52 L1404.32 1518.52 L1404.32 1525.93 L1398.46 1525.93 L1398.46 1518.52 Z" fill="#000000" fill-rule="nonzero" fill-opacity="1" /><path clip-path="url(#clip450)" d="M1422.36 1522.27 L1422.36 1532.4 L1434.43 1532.4 L1434.43 1536.95 L1422.36 1536.95 L1422.36 1556.3 Q1422.36 1560.66 1423.54 1561.9 Q1424.75 1563.14 1428.41 1563.14 L1434.43 1563.14 L1434.43 1568.04 L1428.41 1568.04 Q1421.63 1568.04 1419.05 1565.53 Q1416.47 1562.98 1416.47 1556.3 L1416.47 1536.95 L1412.18 1536.95 L1412.18 1532.4 L1416.47 1532.4 L1416.47 1522.27 L1422.36 1522.27 Z" fill="#000000" fill-rule="nonzero" fill-opacity="1" /><path clip-path="url(#clip450)" d="M1471.76 1546.53 L1471.76 1568.04 L1465.9 1568.04 L1465.9 1546.72 Q1465.9 1541.66 1463.93 1539.14 Q1461.96 1536.63 1458.01 1536.63 Q1453.27 1536.63 1450.53 1539.65 Q1447.79 1542.68 1447.79 1547.9 L1447.79 1568.04 L1441.9 1568.04 L1441.9 1518.52 L1447.79 1518.52 L1447.79 1537.93 Q1449.89 1534.72 1452.73 1533.13 Q1455.59 1531.54 1459.32 1531.54 Q1465.46 1531.54 1468.61 1535.36 Q1471.76 1539.14 1471.76 1546.53 Z" fill="#000000" fill-rule="nonzero" fill-opacity="1" /><path clip-path="url(#clip450)" d="M1518.74 1545.48 Q1514.16 1545.48 1511.51 1547.93 Q1508.9 1550.38 1508.9 1554.68 Q1508.9 1558.97 1511.51 1561.42 Q1514.16 1563.87 1518.74 1563.87 Q1523.32 1563.87 1525.96 1561.42 Q1528.61 1558.94 1528.61 1554.68 Q1528.61 1550.38 1525.96 1547.93 Q1523.35 1545.48 1518.74 1545.48 M1512.31 1542.74 Q1508.17 1541.72 1505.85 1538.89 Q1503.56 1536.06 1503.56 1531.98 Q1503.56 1526.28 1507.6 1522.97 Q1511.67 1519.66 1518.74 1519.66 Q1525.84 1519.66 1529.88 1522.97 Q1533.92 1526.28 1533.92 1531.98 Q1533.92 1536.06 1531.6 1538.89 Q1529.31 1541.72 1525.2 1542.74 Q1529.85 1543.82 1532.43 1546.97 Q1535.04 1550.12 1535.04 1554.68 Q1535.04 1561.58 1530.8 1565.27 Q1526.6 1568.97 1518.74 1568.97 Q1510.88 1568.97 1506.64 1565.27 Q1502.44 1561.58 1502.44 1554.68 Q1502.44 1550.12 1505.05 1546.97 Q1507.66 1543.82 1512.31 1542.74 M1509.95 1532.59 Q1509.95 1536.28 1512.25 1538.35 Q1514.57 1540.42 1518.74 1540.42 Q1522.88 1540.42 1525.2 1538.35 Q1527.56 1536.28 1527.56 1532.59 Q1527.56 1528.89 1525.2 1526.83 Q1522.88 1524.76 1518.74 1524.76 Q1514.57 1524.76 1512.25 1526.83 Q1509.95 1528.89 1509.95 1532.59 Z" fill="#000000" fill-rule="nonzero" fill-opacity="1" /><path clip-path="url(#clip450)" d="M1560.21 1524.76 Q1555.25 1524.76 1552.73 1529.66 Q1550.25 1534.53 1550.25 1544.33 Q1550.25 1554.1 1552.73 1559 Q1555.25 1563.87 1560.21 1563.87 Q1565.21 1563.87 1567.69 1559 Q1570.21 1554.1 1570.21 1544.33 Q1570.21 1534.53 1567.69 1529.66 Q1565.21 1524.76 1560.21 1524.76 M1560.21 1519.66 Q1568.2 1519.66 1572.4 1526 Q1576.64 1532.3 1576.64 1544.33 Q1576.64 1556.33 1572.4 1562.66 Q1568.2 1568.97 1560.21 1568.97 Q1552.22 1568.97 1547.99 1562.66 Q1543.79 1556.33 1543.79 1544.33 Q1543.79 1532.3 1547.99 1526 Q1552.22 1519.66 1560.21 1519.66 Z" fill="#000000" fill-rule="nonzero" fill-opacity="1" /><path clip-path="url(#clip450)" d="M1628.36 1547.13 Q1625.59 1547.13 1624 1549.49 Q1622.44 1551.84 1622.44 1556.04 Q1622.44 1560.18 1624 1562.57 Q1625.59 1564.92 1628.36 1564.92 Q1631.06 1564.92 1632.62 1562.57 Q1634.21 1560.18 1634.21 1556.04 Q1634.21 1551.87 1632.62 1549.52 Q1631.06 1547.13 1628.36 1547.13 M1628.36 1543.09 Q1633.39 1543.09 1636.35 1546.59 Q1639.31 1550.09 1639.31 1556.04 Q1639.31 1562 1636.31 1565.5 Q1633.35 1568.97 1628.36 1568.97 Q1623.26 1568.97 1620.3 1565.5 Q1617.34 1562 1617.34 1556.04 Q1617.34 1550.06 1620.3 1546.59 Q1623.3 1543.09 1628.36 1543.09 M1595.51 1523.71 Q1592.77 1523.71 1591.18 1526.09 Q1589.62 1528.45 1589.62 1532.59 Q1589.62 1536.79 1591.18 1539.14 Q1592.74 1541.5 1595.51 1541.5 Q1598.28 1541.5 1599.84 1539.14 Q1601.43 1536.79 1601.43 1532.59 Q1601.43 1528.48 1599.84 1526.09 Q1598.25 1523.71 1595.51 1523.71 M1624.25 1519.66 L1629.34 1519.66 L1599.62 1568.97 L1594.52 1568.97 L1624.25 1519.66 M1595.51 1519.66 Q1600.54 1519.66 1603.53 1523.17 Q1606.52 1526.63 1606.52 1532.59 Q1606.52 1538.6 1603.53 1542.07 Q1600.57 1545.54 1595.51 1545.54 Q1590.45 1545.54 1587.49 1542.07 Q1584.56 1538.57 1584.56 1532.59 Q1584.56 1526.67 1587.52 1523.17 Q1590.48 1519.66 1595.51 1519.66 Z" fill="#000000" fill-rule="nonzero" fill-opacity="1" /><path clip-path="url(#clip450)" d="M1683.58 1536.5 Q1678.87 1536.5 1676.13 1540.19 Q1673.39 1543.85 1673.39 1550.25 Q1673.39 1556.65 1676.1 1560.34 Q1678.84 1564 1683.58 1564 Q1688.26 1564 1690.99 1560.31 Q1693.73 1556.62 1693.73 1550.25 Q1693.73 1543.92 1690.99 1540.23 Q1688.26 1536.5 1683.58 1536.5 M1683.58 1531.54 Q1691.22 1531.54 1695.58 1536.5 Q1699.94 1541.47 1699.94 1550.25 Q1699.94 1559 1695.58 1564 Q1691.22 1568.97 1683.58 1568.97 Q1675.91 1568.97 1671.55 1564 Q1667.22 1559 1667.22 1550.25 Q1667.22 1541.47 1671.55 1536.5 Q1675.91 1531.54 1683.58 1531.54 Z" fill="#000000" fill-rule="nonzero" fill-opacity="1" /><path clip-path="url(#clip450)" d="M1727.69 1518.52 L1727.69 1523.39 L1722.09 1523.39 Q1718.94 1523.39 1717.7 1524.66 Q1716.49 1525.93 1716.49 1529.24 L1716.49 1532.4 L1726.13 1532.4 L1726.13 1536.95 L1716.49 1536.95 L1716.49 1568.04 L1710.6 1568.04 L1710.6 1536.95 L1705 1536.95 L1705 1532.4 L1710.6 1532.4 L1710.6 1529.91 Q1710.6 1523.96 1713.37 1521.26 Q1716.14 1518.52 1722.16 1518.52 L1727.69 1518.52 Z" fill="#000000" fill-rule="nonzero" fill-opacity="1" /><path clip-path="url(#clip450)" d="M1758.98 1562.7 L1758.98 1581.6 L1753.09 1581.6 L1753.09 1532.4 L1758.98 1532.4 L1758.98 1537.81 Q1760.83 1534.62 1763.63 1533.1 Q1766.46 1531.54 1770.38 1531.54 Q1776.87 1531.54 1780.91 1536.69 Q1784.98 1541.85 1784.98 1550.25 Q1784.98 1558.65 1780.91 1563.81 Q1776.87 1568.97 1770.38 1568.97 Q1766.46 1568.97 1763.63 1567.44 Q1760.83 1565.88 1758.98 1562.7 M1778.91 1550.25 Q1778.91 1543.79 1776.23 1540.13 Q1773.59 1536.44 1768.94 1536.44 Q1764.3 1536.44 1761.62 1540.13 Q1758.98 1543.79 1758.98 1550.25 Q1758.98 1556.71 1761.62 1560.4 Q1764.3 1564.07 1768.94 1564.07 Q1773.59 1564.07 1776.23 1560.4 Q1778.91 1556.71 1778.91 1550.25 Z" fill="#000000" fill-rule="nonzero" fill-opacity="1" /><path clip-path="url(#clip450)" d="M1808.51 1536.5 Q1803.8 1536.5 1801.06 1540.19 Q1798.32 1543.85 1798.32 1550.25 Q1798.32 1556.65 1801.03 1560.34 Q1803.76 1564 1808.51 1564 Q1813.18 1564 1815.92 1560.31 Q1818.66 1556.62 1818.66 1550.25 Q1818.66 1543.92 1815.92 1540.23 Q1813.18 1536.5 1808.51 1536.5 M1808.51 1531.54 Q1816.14 1531.54 1820.51 1536.5 Q1824.87 1541.47 1824.87 1550.25 Q1824.87 1559 1820.51 1564 Q1816.14 1568.97 1808.51 1568.97 Q1800.84 1568.97 1796.47 1564 Q1792.15 1559 1792.15 1550.25 Q1792.15 1541.47 1796.47 1536.5 Q1800.84 1531.54 1808.51 1531.54 Z" fill="#000000" fill-rule="nonzero" fill-opacity="1" /><path clip-path="url(#clip450)" d="M1834.57 1532.4 L1840.43 1532.4 L1840.43 1568.04 L1834.57 1568.04 L1834.57 1532.4 M1834.57 1518.52 L1840.43 1518.52 L1840.43 1525.93 L1834.57 1525.93 L1834.57 1518.52 Z" fill="#000000" fill-rule="nonzero" fill-opacity="1" /><path clip-path="url(#clip450)" d="M1882.32 1546.53 L1882.32 1568.04 L1876.46 1568.04 L1876.46 1546.72 Q1876.46 1541.66 1874.49 1539.14 Q1872.51 1536.63 1868.57 1536.63 Q1863.82 1536.63 1861.09 1539.65 Q1858.35 1542.68 1858.35 1547.9 L1858.35 1568.04 L1852.46 1568.04 L1852.46 1532.4 L1858.35 1532.4 L1858.35 1537.93 Q1860.45 1534.72 1863.28 1533.13 Q1866.15 1531.54 1869.87 1531.54 Q1876.01 1531.54 1879.17 1535.36 Q1882.32 1539.14 1882.32 1546.53 Z" fill="#000000" fill-rule="nonzero" fill-opacity="1" /><path clip-path="url(#clip450)" d="M1899.79 1522.27 L1899.79 1532.4 L1911.85 1532.4 L1911.85 1536.95 L1899.79 1536.95 L1899.79 1556.3 Q1899.79 1560.66 1900.97 1561.9 Q1902.18 1563.14 1905.84 1563.14 L1911.85 1563.14 L1911.85 1568.04 L1905.84 1568.04 Q1899.06 1568.04 1896.48 1565.53 Q1893.9 1562.98 1893.9 1556.3 L1893.9 1536.95 L1889.61 1536.95 L1889.61 1532.4 L1893.9 1532.4 L1893.9 1522.27 L1899.79 1522.27 Z" fill="#000000" fill-rule="nonzero" fill-opacity="1" /><path clip-path="url(#clip450)" d="M1942.28 1533.45 L1942.28 1538.98 Q1939.8 1537.71 1937.13 1537.07 Q1934.45 1536.44 1931.59 1536.44 Q1927.23 1536.44 1925.03 1537.77 Q1922.87 1539.11 1922.87 1541.79 Q1922.87 1543.82 1924.43 1545 Q1925.99 1546.15 1930.7 1547.2 L1932.7 1547.64 Q1938.94 1548.98 1941.55 1551.43 Q1944.19 1553.85 1944.19 1558.21 Q1944.19 1563.17 1940.24 1566.07 Q1936.33 1568.97 1929.45 1568.97 Q1926.59 1568.97 1923.47 1568.39 Q1920.38 1567.85 1916.95 1566.74 L1916.95 1560.69 Q1920.19 1562.38 1923.34 1563.24 Q1926.49 1564.07 1929.58 1564.07 Q1933.72 1564.07 1935.95 1562.66 Q1938.18 1561.23 1938.18 1558.65 Q1938.18 1556.27 1936.55 1554.99 Q1934.96 1553.72 1929.52 1552.54 L1927.48 1552.07 Q1922.04 1550.92 1919.62 1548.56 Q1917.2 1546.18 1917.2 1542.04 Q1917.2 1537.01 1920.77 1534.27 Q1924.33 1531.54 1930.89 1531.54 Q1934.13 1531.54 1937 1532.01 Q1939.86 1532.49 1942.28 1533.45 Z" fill="#000000" fill-rule="nonzero" fill-opacity="1" /><polyline clip-path="url(#clip452)" style="stroke:#000000; stroke-linecap:round; stroke-linejoin:round; stroke-width:2; stroke-opacity:0.1; fill:none" points="2352.76,1281.78 219.866,1281.78 "/>
<polyline clip-path="url(#clip452)" style="stroke:#000000; stroke-linecap:round; stroke-linejoin:round; stroke-width:2; stroke-opacity:0.1; fill:none" points="2352.76,1102.07 219.866,1102.07 "/>
<polyline clip-path="url(#clip452)" style="stroke:#000000; stroke-linecap:round; stroke-linejoin:round; stroke-width:2; stroke-opacity:0.1; fill:none" points="2352.76,922.358 219.866,922.358 "/>
<polyline clip-path="url(#clip452)" style="stroke:#000000; stroke-linecap:round; stroke-linejoin:round; stroke-width:2; stroke-opacity:0.1; fill:none" points="2352.76,742.645 219.866,742.645 "/>
<polyline clip-path="url(#clip452)" style="stroke:#000000; stroke-linecap:round; stroke-linejoin:round; stroke-width:2; stroke-opacity:0.1; fill:none" points="2352.76,562.932 219.866,562.932 "/>
<polyline clip-path="url(#clip452)" style="stroke:#000000; stroke-linecap:round; stroke-linejoin:round; stroke-width:2; stroke-opacity:0.1; fill:none" points="2352.76,383.219 219.866,383.219 "/>
<polyline clip-path="url(#clip452)" style="stroke:#000000; stroke-linecap:round; stroke-linejoin:round; stroke-width:2; stroke-opacity:0.1; fill:none" points="2352.76,203.507 219.866,203.507 "/>
<polyline clip-path="url(#clip450)" style="stroke:#000000; stroke-linecap:round; stroke-linejoin:round; stroke-width:4; stroke-opacity:1; fill:none" points="219.866,1423.18 219.866,123.472 "/>
<polyline clip-path="url(#clip450)" style="stroke:#000000; stroke-linecap:round; stroke-linejoin:round; stroke-width:4; stroke-opacity:1; fill:none" points="219.866,1281.78 238.764,1281.78 "/>
<polyline clip-path="url(#clip450)" style="stroke:#000000; stroke-linecap:round; stroke-linejoin:round; stroke-width:4; stroke-opacity:1; fill:none" points="219.866,1102.07 238.764,1102.07 "/>
<polyline clip-path="url(#clip450)" style="stroke:#000000; stroke-linecap:round; stroke-linejoin:round; stroke-width:4; stroke-opacity:1; fill:none" points="219.866,922.358 238.764,922.358 "/>
<polyline clip-path="url(#clip450)" style="stroke:#000000; stroke-linecap:round; stroke-linejoin:round; stroke-width:4; stroke-opacity:1; fill:none" points="219.866,742.645 238.764,742.645 "/>
<polyline clip-path="url(#clip450)" style="stroke:#000000; stroke-linecap:round; stroke-linejoin:round; stroke-width:4; stroke-opacity:1; fill:none" points="219.866,562.932 238.764,562.932 "/>
<polyline clip-path="url(#clip450)" style="stroke:#000000; stroke-linecap:round; stroke-linejoin:round; stroke-width:4; stroke-opacity:1; fill:none" points="219.866,383.219 238.764,383.219 "/>
<polyline clip-path="url(#clip450)" style="stroke:#000000; stroke-linecap:round; stroke-linejoin:round; stroke-width:4; stroke-opacity:1; fill:none" points="219.866,203.507 238.764,203.507 "/>
<path clip-path="url(#clip450)" d="M127.917 1267.58 Q124.306 1267.58 122.478 1271.15 Q120.672 1274.69 120.672 1281.82 Q120.672 1288.92 122.478 1292.49 Q124.306 1296.03 127.917 1296.03 Q131.552 1296.03 133.357 1292.49 Q135.186 1288.92 135.186 1281.82 Q135.186 1274.69 133.357 1271.15 Q131.552 1267.58 127.917 1267.58 M127.917 1263.88 Q133.728 1263.88 136.783 1268.48 Q139.862 1273.07 139.862 1281.82 Q139.862 1290.54 136.783 1295.15 Q133.728 1299.73 127.917 1299.73 Q122.107 1299.73 119.029 1295.15 Q115.973 1290.54 115.973 1281.82 Q115.973 1273.07 119.029 1268.48 Q122.107 1263.88 127.917 1263.88 Z" fill="#000000" fill-rule="nonzero" fill-opacity="1" /><path clip-path="url(#clip450)" d="M148.079 1293.18 L152.964 1293.18 L152.964 1299.06 L148.079 1299.06 L148.079 1293.18 Z" fill="#000000" fill-rule="nonzero" fill-opacity="1" /><path clip-path="url(#clip450)" d="M163.959 1295.13 L171.598 1295.13 L171.598 1268.76 L163.288 1270.43 L163.288 1266.17 L171.552 1264.5 L176.227 1264.5 L176.227 1295.13 L183.866 1295.13 L183.866 1299.06 L163.959 1299.06 L163.959 1295.13 Z" fill="#000000" fill-rule="nonzero" fill-opacity="1" /><path clip-path="url(#clip450)" d="M128.288 1087.87 Q124.677 1087.87 122.848 1091.43 Q121.043 1094.98 121.043 1102.1 Q121.043 1109.21 122.848 1112.78 Q124.677 1116.32 128.288 1116.32 Q131.922 1116.32 133.728 1112.78 Q135.556 1109.21 135.556 1102.1 Q135.556 1094.98 133.728 1091.43 Q131.922 1087.87 128.288 1087.87 M128.288 1084.17 Q134.098 1084.17 137.154 1088.77 Q140.232 1093.36 140.232 1102.1 Q140.232 1110.83 137.154 1115.44 Q134.098 1120.02 128.288 1120.02 Q122.478 1120.02 119.399 1115.44 Q116.343 1110.83 116.343 1102.1 Q116.343 1093.36 119.399 1088.77 Q122.478 1084.17 128.288 1084.17 Z" fill="#000000" fill-rule="nonzero" fill-opacity="1" /><path clip-path="url(#clip450)" d="M148.45 1113.47 L153.334 1113.47 L153.334 1119.35 L148.45 1119.35 L148.45 1113.47 Z" fill="#000000" fill-rule="nonzero" fill-opacity="1" /><path clip-path="url(#clip450)" d="M167.547 1115.42 L183.866 1115.42 L183.866 1119.35 L161.922 1119.35 L161.922 1115.42 Q164.584 1112.66 169.167 1108.03 Q173.774 1103.38 174.954 1102.04 Q177.2 1099.51 178.079 1097.78 Q178.982 1096.02 178.982 1094.33 Q178.982 1091.57 177.038 1089.84 Q175.116 1088.1 172.014 1088.1 Q169.815 1088.1 167.362 1088.86 Q164.931 1089.63 162.153 1091.18 L162.153 1086.46 Q164.977 1085.32 167.431 1084.74 Q169.885 1084.17 171.922 1084.17 Q177.292 1084.17 180.487 1086.85 Q183.681 1089.54 183.681 1094.03 Q183.681 1096.16 182.871 1098.08 Q182.084 1099.98 179.977 1102.57 Q179.399 1103.24 176.297 1106.46 Q173.195 1109.65 167.547 1115.42 Z" fill="#000000" fill-rule="nonzero" fill-opacity="1" /><path clip-path="url(#clip450)" d="M127.339 908.156 Q123.728 908.156 121.899 911.721 Q120.093 915.263 120.093 922.392 Q120.093 929.499 121.899 933.063 Q123.728 936.605 127.339 936.605 Q130.973 936.605 132.779 933.063 Q134.607 929.499 134.607 922.392 Q134.607 915.263 132.779 911.721 Q130.973 908.156 127.339 908.156 M127.339 904.453 Q133.149 904.453 136.204 909.059 Q139.283 913.642 139.283 922.392 Q139.283 931.119 136.204 935.726 Q133.149 940.309 127.339 940.309 Q121.529 940.309 118.45 935.726 Q115.394 931.119 115.394 922.392 Q115.394 913.642 118.45 909.059 Q121.529 904.453 127.339 904.453 Z" fill="#000000" fill-rule="nonzero" fill-opacity="1" /><path clip-path="url(#clip450)" d="M147.501 933.758 L152.385 933.758 L152.385 939.638 L147.501 939.638 L147.501 933.758 Z" fill="#000000" fill-rule="nonzero" fill-opacity="1" /><path clip-path="url(#clip450)" d="M176.737 921.003 Q180.093 921.721 181.968 923.989 Q183.866 926.258 183.866 929.591 Q183.866 934.707 180.348 937.508 Q176.829 940.309 170.348 940.309 Q168.172 940.309 165.857 939.869 Q163.565 939.452 161.112 938.596 L161.112 934.082 Q163.056 935.216 165.371 935.795 Q167.686 936.374 170.209 936.374 Q174.607 936.374 176.899 934.638 Q179.214 932.901 179.214 929.591 Q179.214 926.536 177.061 924.823 Q174.931 923.087 171.112 923.087 L167.084 923.087 L167.084 919.244 L171.297 919.244 Q174.746 919.244 176.575 917.878 Q178.403 916.489 178.403 913.897 Q178.403 911.235 176.505 909.823 Q174.63 908.388 171.112 908.388 Q169.19 908.388 166.991 908.804 Q164.792 909.221 162.153 910.101 L162.153 905.934 Q164.815 905.193 167.13 904.823 Q169.468 904.453 171.528 904.453 Q176.852 904.453 179.954 906.883 Q183.056 909.29 183.056 913.411 Q183.056 916.281 181.413 918.272 Q179.769 920.239 176.737 921.003 Z" fill="#000000" fill-rule="nonzero" fill-opacity="1" /><path clip-path="url(#clip450)" d="M126.205 728.443 Q122.593 728.443 120.765 732.008 Q118.959 735.55 118.959 742.68 Q118.959 749.786 120.765 753.351 Q122.593 756.892 126.205 756.892 Q129.839 756.892 131.644 753.351 Q133.473 749.786 133.473 742.68 Q133.473 735.55 131.644 732.008 Q129.839 728.443 126.205 728.443 M126.205 724.74 Q132.015 724.74 135.07 729.346 Q138.149 733.93 138.149 742.68 Q138.149 751.406 135.07 756.013 Q132.015 760.596 126.205 760.596 Q120.394 760.596 117.316 756.013 Q114.26 751.406 114.26 742.68 Q114.26 733.93 117.316 729.346 Q120.394 724.74 126.205 724.74 Z" fill="#000000" fill-rule="nonzero" fill-opacity="1" /><path clip-path="url(#clip450)" d="M146.366 754.045 L151.251 754.045 L151.251 759.925 L146.366 759.925 L146.366 754.045 Z" fill="#000000" fill-rule="nonzero" fill-opacity="1" /><path clip-path="url(#clip450)" d="M174.283 729.439 L162.477 747.888 L174.283 747.888 L174.283 729.439 M173.056 725.365 L178.936 725.365 L178.936 747.888 L183.866 747.888 L183.866 751.777 L178.936 751.777 L178.936 759.925 L174.283 759.925 L174.283 751.777 L158.681 751.777 L158.681 747.263 L173.056 725.365 Z" fill="#000000" fill-rule="nonzero" fill-opacity="1" /><path clip-path="url(#clip450)" d="M127.686 548.731 Q124.075 548.731 122.246 552.296 Q120.441 555.837 120.441 562.967 Q120.441 570.073 122.246 573.638 Q124.075 577.18 127.686 577.18 Q131.32 577.18 133.126 573.638 Q134.954 570.073 134.954 562.967 Q134.954 555.837 133.126 552.296 Q131.32 548.731 127.686 548.731 M127.686 545.027 Q133.496 545.027 136.552 549.634 Q139.63 554.217 139.63 562.967 Q139.63 571.694 136.552 576.3 Q133.496 580.883 127.686 580.883 Q121.876 580.883 118.797 576.3 Q115.742 571.694 115.742 562.967 Q115.742 554.217 118.797 549.634 Q121.876 545.027 127.686 545.027 Z" fill="#000000" fill-rule="nonzero" fill-opacity="1" /><path clip-path="url(#clip450)" d="M147.848 574.332 L152.732 574.332 L152.732 580.212 L147.848 580.212 L147.848 574.332 Z" fill="#000000" fill-rule="nonzero" fill-opacity="1" /><path clip-path="url(#clip450)" d="M162.964 545.652 L181.32 545.652 L181.32 549.587 L167.246 549.587 L167.246 558.059 Q168.264 557.712 169.283 557.55 Q170.302 557.365 171.32 557.365 Q177.107 557.365 180.487 560.536 Q183.866 563.708 183.866 569.124 Q183.866 574.703 180.394 577.805 Q176.922 580.883 170.602 580.883 Q168.427 580.883 166.158 580.513 Q163.913 580.143 161.505 579.402 L161.505 574.703 Q163.589 575.837 165.811 576.393 Q168.033 576.948 170.51 576.948 Q174.514 576.948 176.852 574.842 Q179.19 572.735 179.19 569.124 Q179.19 565.513 176.852 563.407 Q174.514 561.3 170.51 561.3 Q168.635 561.3 166.76 561.717 Q164.908 562.133 162.964 563.013 L162.964 545.652 Z" fill="#000000" fill-rule="nonzero" fill-opacity="1" /><path clip-path="url(#clip450)" d="M126.529 369.018 Q122.918 369.018 121.089 372.583 Q119.283 376.124 119.283 383.254 Q119.283 390.36 121.089 393.925 Q122.918 397.467 126.529 397.467 Q130.163 397.467 131.968 393.925 Q133.797 390.36 133.797 383.254 Q133.797 376.124 131.968 372.583 Q130.163 369.018 126.529 369.018 M126.529 365.314 Q132.339 365.314 135.394 369.921 Q138.473 374.504 138.473 383.254 Q138.473 391.981 135.394 396.587 Q132.339 401.171 126.529 401.171 Q120.718 401.171 117.64 396.587 Q114.584 391.981 114.584 383.254 Q114.584 374.504 117.64 369.921 Q120.718 365.314 126.529 365.314 Z" fill="#000000" fill-rule="nonzero" fill-opacity="1" /><path clip-path="url(#clip450)" d="M146.691 394.62 L151.575 394.62 L151.575 400.499 L146.691 400.499 L146.691 394.62 Z" fill="#000000" fill-rule="nonzero" fill-opacity="1" /><path clip-path="url(#clip450)" d="M172.339 381.356 Q169.19 381.356 167.339 383.509 Q165.51 385.661 165.51 389.411 Q165.51 393.138 167.339 395.314 Q169.19 397.467 172.339 397.467 Q175.487 397.467 177.315 395.314 Q179.167 393.138 179.167 389.411 Q179.167 385.661 177.315 383.509 Q175.487 381.356 172.339 381.356 M181.621 366.703 L181.621 370.962 Q179.862 370.129 178.056 369.689 Q176.274 369.249 174.514 369.249 Q169.885 369.249 167.431 372.374 Q165.001 375.499 164.653 381.819 Q166.019 379.805 168.079 378.74 Q170.139 377.652 172.616 377.652 Q177.825 377.652 180.834 380.823 Q183.866 383.972 183.866 389.411 Q183.866 394.735 180.718 397.953 Q177.57 401.171 172.339 401.171 Q166.343 401.171 163.172 396.587 Q160.001 391.981 160.001 383.254 Q160.001 375.06 163.89 370.199 Q167.778 365.314 174.329 365.314 Q176.089 365.314 177.871 365.662 Q179.676 366.009 181.621 366.703 Z" fill="#000000" fill-rule="nonzero" fill-opacity="1" /><path clip-path="url(#clip450)" d="M127.593 189.305 Q123.982 189.305 122.154 192.87 Q120.348 196.412 120.348 203.541 Q120.348 210.648 122.154 214.213 Q123.982 217.754 127.593 217.754 Q131.228 217.754 133.033 214.213 Q134.862 210.648 134.862 203.541 Q134.862 196.412 133.033 192.87 Q131.228 189.305 127.593 189.305 M127.593 185.602 Q133.404 185.602 136.459 190.208 Q139.538 194.791 139.538 203.541 Q139.538 212.268 136.459 216.875 Q133.404 221.458 127.593 221.458 Q121.783 221.458 118.705 216.875 Q115.649 212.268 115.649 203.541 Q115.649 194.791 118.705 190.208 Q121.783 185.602 127.593 185.602 Z" fill="#000000" fill-rule="nonzero" fill-opacity="1" /><path clip-path="url(#clip450)" d="M147.755 214.907 L152.64 214.907 L152.64 220.787 L147.755 220.787 L147.755 214.907 Z" fill="#000000" fill-rule="nonzero" fill-opacity="1" /><path clip-path="url(#clip450)" d="M161.644 186.227 L183.866 186.227 L183.866 188.217 L171.32 220.787 L166.436 220.787 L178.241 190.162 L161.644 190.162 L161.644 186.227 Z" fill="#000000" fill-rule="nonzero" fill-opacity="1" /><path clip-path="url(#clip450)" d="M16.4842 957.947 L16.4842 948.367 L48.8219 936.24 L16.4842 924.05 L16.4842 914.47 L64.0042 914.47 L64.0042 920.74 L22.277 920.74 L54.8694 932.994 L54.8694 939.455 L22.277 951.709 L64.0042 951.709 L64.0042 957.947 L16.4842 957.947 Z" fill="#000000" fill-rule="nonzero" fill-opacity="1" /><path clip-path="url(#clip450)" d="M44.7161 871.469 L47.5806 871.469 L47.5806 898.396 Q53.6281 898.014 56.8109 894.768 Q59.9619 891.489 59.9619 885.665 Q59.9619 882.291 59.1344 879.14 Q58.3069 875.957 56.6518 872.838 L62.1899 872.838 Q63.5267 875.989 64.227 879.299 Q64.9272 882.609 64.9272 886.015 Q64.9272 894.545 59.9619 899.542 Q54.9967 904.507 46.5303 904.507 Q37.7774 904.507 32.6531 899.797 Q27.4968 895.054 27.4968 887.033 Q27.4968 879.84 32.1438 875.671 Q36.7589 871.469 44.7161 871.469 M42.9973 877.326 Q38.1912 877.389 35.3266 880.031 Q32.4621 882.641 32.4621 886.97 Q32.4621 891.871 35.2312 894.831 Q38.0002 897.76 43.0292 898.205 L42.9973 877.326 Z" fill="#000000" fill-rule="nonzero" fill-opacity="1" /><path clip-path="url(#clip450)" d="M46.0847 845.656 Q46.0847 852.754 47.7079 855.491 Q49.3312 858.229 53.2461 858.229 Q56.3653 858.229 58.2114 856.192 Q60.0256 854.123 60.0256 850.59 Q60.0256 845.72 56.5881 842.792 Q53.1188 839.832 47.3897 839.832 L46.0847 839.832 L46.0847 845.656 M43.6657 833.975 L64.0042 833.975 L64.0042 839.832 L58.5933 839.832 Q61.8398 841.837 63.3994 844.829 Q64.9272 847.821 64.9272 852.149 Q64.9272 857.624 61.8716 860.87 Q58.7843 864.085 53.6281 864.085 Q47.6125 864.085 44.5569 860.075 Q41.5014 856.032 41.5014 848.043 L41.5014 839.832 L40.9285 839.832 Q36.8862 839.832 34.6901 842.505 Q32.4621 845.147 32.4621 849.953 Q32.4621 853.009 33.1941 855.905 Q33.9262 858.802 35.3903 861.475 L29.9795 861.475 Q28.7381 858.26 28.1334 855.237 Q27.4968 852.213 27.4968 849.348 Q27.4968 841.614 31.5072 837.795 Q35.5176 833.975 43.6657 833.975 Z" fill="#000000" fill-rule="nonzero" fill-opacity="1" /><path clip-path="url(#clip450)" d="M42.4881 792.28 L64.0042 792.28 L64.0042 798.136 L42.679 798.136 Q37.6183 798.136 35.1038 800.11 Q32.5894 802.083 32.5894 806.03 Q32.5894 810.772 35.6131 813.51 Q38.6368 816.247 43.8567 816.247 L64.0042 816.247 L64.0042 822.135 L28.3562 822.135 L28.3562 816.247 L33.8944 816.247 Q30.6797 814.146 29.0883 811.313 Q27.4968 808.449 27.4968 804.725 Q27.4968 798.582 31.3163 795.431 Q35.1038 792.28 42.4881 792.28 Z" fill="#000000" fill-rule="nonzero" fill-opacity="1" /><path clip-path="url(#clip450)" d="M16.4842 759.624 L16.4842 753.194 L64.0042 753.194 L64.0042 759.624 L16.4842 759.624 Z" fill="#000000" fill-rule="nonzero" fill-opacity="1" /><path clip-path="url(#clip450)" d="M42.4881 711.022 L64.0042 711.022 L64.0042 716.878 L42.679 716.878 Q37.6183 716.878 35.1038 718.851 Q32.5894 720.825 32.5894 724.772 Q32.5894 729.514 35.6131 732.251 Q38.6368 734.989 43.8567 734.989 L64.0042 734.989 L64.0042 740.877 L28.3562 740.877 L28.3562 734.989 L33.8944 734.989 Q30.6797 732.888 29.0883 730.055 Q27.4968 727.191 27.4968 723.467 Q27.4968 717.324 31.3163 714.173 Q35.1038 711.022 42.4881 711.022 Z" fill="#000000" fill-rule="nonzero" fill-opacity="1" /><path clip-path="url(#clip450)" d="M33.7671 675.883 L14.479 675.883 L14.479 670.026 L64.0042 670.026 L64.0042 675.883 L58.657 675.883 Q61.8398 677.729 63.3994 680.562 Q64.9272 683.363 64.9272 687.309 Q64.9272 693.771 59.771 697.845 Q54.6147 701.887 46.212 701.887 Q37.8093 701.887 32.6531 697.845 Q27.4968 693.771 27.4968 687.309 Q27.4968 683.363 29.0564 680.562 Q30.5842 677.729 33.7671 675.883 M46.212 695.839 Q52.6732 695.839 56.3653 693.198 Q60.0256 690.524 60.0256 685.877 Q60.0256 681.23 56.3653 678.557 Q52.6732 675.883 46.212 675.883 Q39.7508 675.883 36.0905 678.557 Q32.3984 681.23 32.3984 685.877 Q32.3984 690.524 36.0905 693.198 Q39.7508 695.839 46.212 695.839 Z" fill="#000000" fill-rule="nonzero" fill-opacity="1" /><path clip-path="url(#clip450)" d="M44.7161 627.472 L47.5806 627.472 L47.5806 654.399 Q53.6281 654.017 56.8109 650.77 Q59.9619 647.492 59.9619 641.667 Q59.9619 638.293 59.1344 635.142 Q58.3069 631.96 56.6518 628.84 L62.1899 628.84 Q63.5267 631.991 64.227 635.302 Q64.9272 638.612 64.9272 642.017 Q64.9272 650.547 59.9619 655.544 Q54.9967 660.51 46.5303 660.51 Q37.7774 660.51 32.6531 655.799 Q27.4968 651.057 27.4968 643.036 Q27.4968 635.843 32.1438 631.673 Q36.7589 627.472 44.7161 627.472 M42.9973 633.328 Q38.1912 633.392 35.3266 636.034 Q32.4621 638.644 32.4621 642.972 Q32.4621 647.874 35.2312 650.834 Q38.0002 653.762 43.0292 654.208 L42.9973 633.328 Z" fill="#000000" fill-rule="nonzero" fill-opacity="1" /><path clip-path="url(#clip450)" d="M28.3562 589.373 L45.7028 602.264 L64.0042 588.705 L64.0042 595.611 L49.9996 605.987 L64.0042 616.364 L64.0042 623.27 L45.3526 609.425 L28.3562 622.093 L28.3562 615.186 L41.0558 605.733 L28.3562 596.28 L28.3562 589.373 Z" fill="#000000" fill-rule="nonzero" fill-opacity="1" /><path clip-path="url(#clip450)" d="M963.251 16.7545 L963.251 25.383 Q959.12 21.5346 954.421 19.6307 Q949.762 17.7268 944.496 17.7268 Q934.125 17.7268 928.616 24.0867 Q923.107 30.4061 923.107 42.3968 Q923.107 54.3469 928.616 60.7069 Q934.125 67.0263 944.496 67.0263 Q949.762 67.0263 954.421 65.1223 Q959.12 63.2184 963.251 59.3701 L963.251 67.9175 Q958.958 70.8341 954.137 72.2924 Q949.357 73.7508 944.01 73.7508 Q930.277 73.7508 922.378 65.3654 Q914.479 56.9395 914.479 42.3968 Q914.479 27.8135 922.378 19.4281 Q930.277 11.0023 944.01 11.0023 Q949.438 11.0023 954.218 12.4606 Q959.039 13.8784 963.251 16.7545 Z" fill="#000000" fill-rule="nonzero" fill-opacity="1" /><path clip-path="url(#clip450)" d="M975.566 9.54393 L983.02 9.54393 L983.02 72.576 L975.566 72.576 L975.566 9.54393 Z" fill="#000000" fill-rule="nonzero" fill-opacity="1" /><path clip-path="url(#clip450)" d="M997.846 54.671 L997.846 27.2059 L1005.3 27.2059 L1005.3 54.3874 Q1005.3 60.8284 1007.81 64.0691 Q1010.32 67.2693 1015.35 67.2693 Q1021.38 67.2693 1024.87 63.421 Q1028.39 59.5726 1028.39 52.9291 L1028.39 27.2059 L1035.84 27.2059 L1035.84 72.576 L1028.39 72.576 L1028.39 65.6084 Q1025.68 69.7404 1022.07 71.7658 Q1018.51 73.7508 1013.77 73.7508 Q1005.95 73.7508 1001.9 68.8897 Q997.846 64.0286 997.846 54.671 M1016.6 26.1121 L1016.6 26.1121 Z" fill="#000000" fill-rule="nonzero" fill-opacity="1" /><path clip-path="url(#clip450)" d="M1080.12 28.5427 L1080.12 35.5912 Q1076.96 33.9709 1073.56 33.1607 Q1070.15 32.3505 1066.51 32.3505 Q1060.96 32.3505 1058.16 34.0519 Q1055.41 35.7533 1055.41 39.156 Q1055.41 41.7486 1057.39 43.2475 Q1059.38 44.7058 1065.37 46.0426 L1067.93 46.6097 Q1075.87 48.3111 1079.19 51.4303 Q1082.55 54.509 1082.55 60.0587 Q1082.55 66.3781 1077.53 70.0644 Q1072.54 73.7508 1063.79 73.7508 Q1060.15 73.7508 1056.18 73.0216 Q1052.25 72.3329 1047.87 70.9151 L1047.87 63.2184 Q1052.01 65.3654 1056.02 66.4591 Q1060.03 67.5124 1063.96 67.5124 Q1069.22 67.5124 1072.06 65.73 Q1074.89 63.9071 1074.89 60.6258 Q1074.89 57.5877 1072.83 55.9673 Q1070.8 54.3469 1063.88 52.8481 L1061.28 52.2405 Q1054.36 50.7821 1051.28 47.7845 Q1048.2 44.7463 1048.2 39.4801 Q1048.2 33.0797 1052.74 29.5959 Q1057.27 26.1121 1065.62 26.1121 Q1069.75 26.1121 1073.4 26.7198 Q1077.04 27.3274 1080.12 28.5427 Z" fill="#000000" fill-rule="nonzero" fill-opacity="1" /><path clip-path="url(#clip450)" d="M1101.79 14.324 L1101.79 27.2059 L1117.15 27.2059 L1117.15 32.9987 L1101.79 32.9987 L1101.79 57.6282 Q1101.79 63.1779 1103.29 64.7578 Q1104.83 66.3376 1109.49 66.3376 L1117.15 66.3376 L1117.15 72.576 L1109.49 72.576 Q1100.86 72.576 1097.58 69.3758 Q1094.3 66.1351 1094.3 57.6282 L1094.3 32.9987 L1088.83 32.9987 L1088.83 27.2059 L1094.3 27.2059 L1094.3 14.324 L1101.79 14.324 Z" fill="#000000" fill-rule="nonzero" fill-opacity="1" /><path clip-path="url(#clip450)" d="M1165.76 48.0275 L1165.76 51.6733 L1131.49 51.6733 Q1131.97 59.3701 1136.1 63.421 Q1140.28 67.4314 1147.69 67.4314 Q1151.98 67.4314 1155.99 66.3781 Q1160.04 65.3249 1164.01 63.2184 L1164.01 70.267 Q1160 71.9684 1155.79 72.8596 Q1151.58 73.7508 1147.24 73.7508 Q1136.39 73.7508 1130.03 67.4314 Q1123.71 61.1119 1123.71 50.3365 Q1123.71 39.1965 1129.7 32.6746 Q1135.74 26.1121 1145.95 26.1121 Q1155.1 26.1121 1160.41 32.0264 Q1165.76 37.9003 1165.76 48.0275 M1158.3 45.84 Q1158.22 39.7232 1154.86 36.0774 Q1151.54 32.4315 1146.03 32.4315 Q1139.79 32.4315 1136.02 35.9558 Q1132.3 39.4801 1131.73 45.8805 L1158.3 45.84 Z" fill="#000000" fill-rule="nonzero" fill-opacity="1" /><path clip-path="url(#clip450)" d="M1204.28 34.1734 Q1203.02 33.4443 1201.53 33.1202 Q1200.07 32.7556 1198.28 32.7556 Q1191.97 32.7556 1188.56 36.8875 Q1185.2 40.9789 1185.2 48.6757 L1185.2 72.576 L1177.71 72.576 L1177.71 27.2059 L1185.2 27.2059 L1185.2 34.2544 Q1187.55 30.1225 1191.32 28.1376 Q1195.08 26.1121 1200.47 26.1121 Q1201.24 26.1121 1202.17 26.2337 Q1203.11 26.3147 1204.24 26.5172 L1204.28 34.1734 Z" fill="#000000" fill-rule="nonzero" fill-opacity="1" /><path clip-path="url(#clip450)" d="M1238.79 12.096 L1246.98 12.096 L1246.98 72.576 L1238.79 72.576 L1238.79 12.096 Z" fill="#000000" fill-rule="nonzero" fill-opacity="1" /><path clip-path="url(#clip450)" d="M1298.26 35.9153 Q1301.06 30.8922 1304.95 28.5022 Q1308.83 26.1121 1314.1 26.1121 Q1321.19 26.1121 1325.04 31.0947 Q1328.89 36.0368 1328.89 45.1919 L1328.89 72.576 L1321.39 72.576 L1321.39 45.4349 Q1321.39 38.913 1319.08 35.7533 Q1316.77 32.5936 1312.03 32.5936 Q1306.24 32.5936 1302.88 36.4419 Q1299.52 40.2903 1299.52 46.9338 L1299.52 72.576 L1292.02 72.576 L1292.02 45.4349 Q1292.02 38.8725 1289.71 35.7533 Q1287.4 32.5936 1282.58 32.5936 Q1276.87 32.5936 1273.51 36.4824 Q1270.15 40.3308 1270.15 46.9338 L1270.15 72.576 L1262.65 72.576 L1262.65 27.2059 L1270.15 27.2059 L1270.15 34.2544 Q1272.7 30.082 1276.26 28.0971 Q1279.83 26.1121 1284.73 26.1121 Q1289.67 26.1121 1293.12 28.6237 Q1296.6 31.1352 1298.26 35.9153 Z" fill="#000000" fill-rule="nonzero" fill-opacity="1" /><path clip-path="url(#clip450)" d="M1376.32 49.9314 Q1376.32 41.7081 1372.92 37.0496 Q1369.56 32.3505 1363.64 32.3505 Q1357.73 32.3505 1354.33 37.0496 Q1350.96 41.7081 1350.96 49.9314 Q1350.96 58.1548 1354.33 62.8538 Q1357.73 67.5124 1363.64 67.5124 Q1369.56 67.5124 1372.92 62.8538 Q1376.32 58.1548 1376.32 49.9314 M1350.96 34.0924 Q1353.31 30.0415 1356.88 28.0971 Q1360.48 26.1121 1365.47 26.1121 Q1373.73 26.1121 1378.87 32.6746 Q1384.06 39.2371 1384.06 49.9314 Q1384.06 60.6258 1378.87 67.1883 Q1373.73 73.7508 1365.47 73.7508 Q1360.48 73.7508 1356.88 71.8063 Q1353.31 69.8214 1350.96 65.7705 L1350.96 72.576 L1343.47 72.576 L1343.47 9.54393 L1350.96 9.54393 L1350.96 34.0924 Z" fill="#000000" fill-rule="nonzero" fill-opacity="1" /><path clip-path="url(#clip450)" d="M1417.03 49.7694 Q1408 49.7694 1404.52 51.8354 Q1401.03 53.9013 1401.03 58.8839 Q1401.03 62.8538 1403.63 65.2034 Q1406.26 67.5124 1410.75 67.5124 Q1416.95 67.5124 1420.68 63.1374 Q1424.45 58.7219 1424.45 51.4303 L1424.45 49.7694 L1417.03 49.7694 M1431.9 46.6907 L1431.9 72.576 L1424.45 72.576 L1424.45 65.6895 Q1421.89 69.8214 1418.09 71.8063 Q1414.28 73.7508 1408.77 73.7508 Q1401.8 73.7508 1397.67 69.8619 Q1393.58 65.9325 1393.58 59.3701 Q1393.58 51.7138 1398.68 47.825 Q1403.83 43.9361 1414 43.9361 L1424.45 43.9361 L1424.45 43.2069 Q1424.45 38.0623 1421.04 35.2672 Q1417.68 32.4315 1411.57 32.4315 Q1407.68 32.4315 1403.99 33.3632 Q1400.3 34.295 1396.9 36.1584 L1396.9 29.2718 Q1400.99 27.692 1404.84 26.9223 Q1408.69 26.1121 1412.33 26.1121 Q1422.18 26.1121 1427.04 31.2163 Q1431.9 36.3204 1431.9 46.6907 Z" fill="#000000" fill-rule="nonzero" fill-opacity="1" /><path clip-path="url(#clip450)" d="M1447.25 9.54393 L1454.71 9.54393 L1454.71 72.576 L1447.25 72.576 L1447.25 9.54393 Z" fill="#000000" fill-rule="nonzero" fill-opacity="1" /><path clip-path="url(#clip450)" d="M1490.92 49.7694 Q1481.89 49.7694 1478.4 51.8354 Q1474.92 53.9013 1474.92 58.8839 Q1474.92 62.8538 1477.51 65.2034 Q1480.15 67.5124 1484.64 67.5124 Q1490.84 67.5124 1494.57 63.1374 Q1498.34 58.7219 1498.34 51.4303 L1498.34 49.7694 L1490.92 49.7694 M1505.79 46.6907 L1505.79 72.576 L1498.34 72.576 L1498.34 65.6895 Q1495.78 69.8214 1491.98 71.8063 Q1488.17 73.7508 1482.66 73.7508 Q1475.69 73.7508 1471.56 69.8619 Q1467.47 65.9325 1467.47 59.3701 Q1467.47 51.7138 1472.57 47.825 Q1477.72 43.9361 1487.88 43.9361 L1498.34 43.9361 L1498.34 43.2069 Q1498.34 38.0623 1494.93 35.2672 Q1491.57 32.4315 1485.45 32.4315 Q1481.56 32.4315 1477.88 33.3632 Q1474.19 34.295 1470.79 36.1584 L1470.79 29.2718 Q1474.88 27.692 1478.73 26.9223 Q1482.58 26.1121 1486.22 26.1121 Q1496.07 26.1121 1500.93 31.2163 Q1505.79 36.3204 1505.79 46.6907 Z" fill="#000000" fill-rule="nonzero" fill-opacity="1" /><path clip-path="url(#clip450)" d="M1558.86 45.1919 L1558.86 72.576 L1551.4 72.576 L1551.4 45.4349 Q1551.4 38.994 1548.89 35.7938 Q1546.38 32.5936 1541.36 32.5936 Q1535.32 32.5936 1531.84 36.4419 Q1528.35 40.2903 1528.35 46.9338 L1528.35 72.576 L1520.86 72.576 L1520.86 27.2059 L1528.35 27.2059 L1528.35 34.2544 Q1531.03 30.163 1534.63 28.1376 Q1538.28 26.1121 1543.02 26.1121 Q1550.84 26.1121 1554.85 30.9732 Q1558.86 35.7938 1558.86 45.1919 Z" fill="#000000" fill-rule="nonzero" fill-opacity="1" /><path clip-path="url(#clip450)" d="M1606.37 28.9478 L1606.37 35.9153 Q1603.21 34.1734 1600.01 33.3227 Q1596.85 32.4315 1593.61 32.4315 Q1586.36 32.4315 1582.35 37.0496 Q1578.34 41.6271 1578.34 49.9314 Q1578.34 58.2358 1582.35 62.8538 Q1586.36 67.4314 1593.61 67.4314 Q1596.85 67.4314 1600.01 66.5807 Q1603.21 65.6895 1606.37 63.9476 L1606.37 70.8341 Q1603.25 72.2924 1599.89 73.0216 Q1596.57 73.7508 1592.8 73.7508 Q1582.55 73.7508 1576.52 67.3098 Q1570.48 60.8689 1570.48 49.9314 Q1570.48 38.832 1576.56 32.472 Q1582.68 26.1121 1593.29 26.1121 Q1596.73 26.1121 1600.01 26.8413 Q1603.29 27.5299 1606.37 28.9478 Z" fill="#000000" fill-rule="nonzero" fill-opacity="1" /><path clip-path="url(#clip450)" d="M1658.14 48.0275 L1658.14 51.6733 L1623.87 51.6733 Q1624.36 59.3701 1628.49 63.421 Q1632.66 67.4314 1640.08 67.4314 Q1644.37 67.4314 1648.38 66.3781 Q1652.43 65.3249 1656.4 63.2184 L1656.4 70.267 Q1652.39 71.9684 1648.18 72.8596 Q1643.97 73.7508 1639.63 73.7508 Q1628.77 73.7508 1622.41 67.4314 Q1616.1 61.1119 1616.1 50.3365 Q1616.1 39.1965 1622.09 32.6746 Q1628.13 26.1121 1638.33 26.1121 Q1647.49 26.1121 1652.8 32.0264 Q1658.14 37.9003 1658.14 48.0275 M1650.69 45.84 Q1650.61 39.7232 1647.25 36.0774 Q1643.92 32.4315 1638.42 32.4315 Q1632.18 32.4315 1628.41 35.9558 Q1624.68 39.4801 1624.12 45.8805 L1650.69 45.84 Z" fill="#000000" fill-rule="nonzero" fill-opacity="1" /><polyline clip-path="url(#clip452)" style="stroke:#50ad9f; stroke-linecap:round; stroke-linejoin:round; stroke-width:8; stroke-opacity:1; fill:none" points="280.231,1005.02 950.951,994.59 1621.67,994.549 2292.39,993.555 "/>
<circle clip-path="url(#clip452)" cx="280.231" cy="1005.02" r="25.2" fill="#50ad9f" fill-rule="evenodd" fill-opacity="1" stroke="#000000" stroke-opacity="1" stroke-width="3.2"/>
<circle clip-path="url(#clip452)" cx="950.951" cy="994.59" r="25.2" fill="#50ad9f" fill-rule="evenodd" fill-opacity="1" stroke="#000000" stroke-opacity="1" stroke-width="3.2"/>
<circle clip-path="url(#clip452)" cx="1621.67" cy="994.549" r="25.2" fill="#50ad9f" fill-rule="evenodd" fill-opacity="1" stroke="#000000" stroke-opacity="1" stroke-width="3.2"/>
<circle clip-path="url(#clip452)" cx="2292.39" cy="993.555" r="25.2" fill="#50ad9f" fill-rule="evenodd" fill-opacity="1" stroke="#000000" stroke-opacity="1" stroke-width="3.2"/>
<polyline clip-path="url(#clip452)" style="stroke:#0000a2; stroke-linecap:round; stroke-linejoin:round; stroke-width:8; stroke-opacity:1; fill:none" points="280.231,1027.13 950.951,1139.21 1621.67,1267.86 2292.39,1386.4 "/>
<path clip-path="url(#clip452)" d="M260.231 1007.13 L260.231 1047.13 L300.231 1047.13 L300.231 1007.13 L260.231 1007.13 Z" fill="#0000a2" fill-rule="evenodd" fill-opacity="1" stroke="#000000" stroke-opacity="1" stroke-width="3.2"/>
<path clip-path="url(#clip452)" d="M930.951 1119.21 L930.951 1159.21 L970.951 1159.21 L970.951 1119.21 L930.951 1119.21 Z" fill="#0000a2" fill-rule="evenodd" fill-opacity="1" stroke="#000000" stroke-opacity="1" stroke-width="3.2"/>
<path clip-path="url(#clip452)" d="M1601.67 1247.86 L1601.67 1287.86 L1641.67 1287.86 L1641.67 1247.86 L1601.67 1247.86 Z" fill="#0000a2" fill-rule="evenodd" fill-opacity="1" stroke="#000000" stroke-opacity="1" stroke-width="3.2"/>
<path clip-path="url(#clip452)" d="M2272.39 1366.4 L2272.39 1406.4 L2312.39 1406.4 L2312.39 1366.4 L2272.39 1366.4 Z" fill="#0000a2" fill-rule="evenodd" fill-opacity="1" stroke="#000000" stroke-opacity="1" stroke-width="3.2"/>
<polyline clip-path="url(#clip452)" style="stroke:#bc272d; stroke-linecap:round; stroke-linejoin:round; stroke-width:8; stroke-opacity:1; fill:none" points="280.231,160.256 950.951,222.887 1621.67,303.077 2292.39,422.222 "/>
<path clip-path="url(#clip452)" d="M280.231 132.256 L273.651 151.184 L253.603 151.604 L269.591 163.728 L263.767 182.908 L280.231 171.456 L296.695 182.908 L290.871 163.728 L306.859 151.604 L286.811 151.184 L280.231 132.256 Z" fill="#bc272d" fill-rule="evenodd" fill-opacity="1" stroke="#000000" stroke-opacity="1" stroke-width="3.2"/>
<path clip-path="url(#clip452)" d="M950.951 194.887 L944.371 213.815 L924.323 214.235 L940.311 226.359 L934.487 245.539 L950.951 234.087 L967.415 245.539 L961.591 226.359 L977.579 214.235 L957.531 213.815 L950.951 194.887 Z" fill="#bc272d" fill-rule="evenodd" fill-opacity="1" stroke="#000000" stroke-opacity="1" stroke-width="3.2"/>
<path clip-path="url(#clip452)" d="M1621.67 275.077 L1615.09 294.005 L1595.04 294.425 L1611.03 306.549 L1605.21 325.729 L1621.67 314.277 L1638.14 325.729 L1632.31 306.549 L1648.3 294.425 L1628.25 294.005 L1621.67 275.077 Z" fill="#bc272d" fill-rule="evenodd" fill-opacity="1" stroke="#000000" stroke-opacity="1" stroke-width="3.2"/>
<path clip-path="url(#clip452)" d="M2292.39 394.222 L2285.81 413.15 L2265.76 413.57 L2281.75 425.694 L2275.93 444.874 L2292.39 433.422 L2308.86 444.874 L2303.03 425.694 L2319.02 413.57 L2298.97 413.15 L2292.39 394.222 Z" fill="#bc272d" fill-rule="evenodd" fill-opacity="1" stroke="#000000" stroke-opacity="1" stroke-width="3.2"/>
<polyline clip-path="url(#clip452)" style="stroke:#e9c716; stroke-linecap:round; stroke-linejoin:round; stroke-width:8; stroke-opacity:1; fill:none" points="280.231,1033.12 950.951,1017.66 1621.67,1004.92 2292.39,994.846 "/>
<path clip-path="url(#clip452)" d="M280.231 1005.12 L252.231 1061.12 L308.231 1061.12 L280.231 1005.12 Z" fill="#e9c716" fill-rule="evenodd" fill-opacity="1" stroke="#000000" stroke-opacity="1" stroke-width="3.2"/>
<path clip-path="url(#clip452)" d="M950.951 989.665 L922.951 1045.66 L978.951 1045.66 L950.951 989.665 Z" fill="#e9c716" fill-rule="evenodd" fill-opacity="1" stroke="#000000" stroke-opacity="1" stroke-width="3.2"/>
<path clip-path="url(#clip452)" d="M1621.67 976.917 L1593.67 1032.92 L1649.67 1032.92 L1621.67 976.917 Z" fill="#e9c716" fill-rule="evenodd" fill-opacity="1" stroke="#000000" stroke-opacity="1" stroke-width="3.2"/>
<path clip-path="url(#clip452)" d="M2292.39 966.846 L2264.39 1022.85 L2320.39 1022.85 L2292.39 966.846 Z" fill="#e9c716" fill-rule="evenodd" fill-opacity="1" stroke="#000000" stroke-opacity="1" stroke-width="3.2"/>
<path clip-path="url(#clip450)" d="M1956.15 920.33 L2281.66 920.33 L2281.66 661.13 L1956.15 661.13  Z" fill="#ffffff" fill-rule="evenodd" fill-opacity="1"/>
<polyline clip-path="url(#clip450)" style="stroke:#000000; stroke-linecap:round; stroke-linejoin:round; stroke-width:4; stroke-opacity:1; fill:none" points="1956.15,920.33 2281.66,920.33 2281.66,661.13 1956.15,661.13 1956.15,920.33 "/>
<polyline clip-path="url(#clip450)" style="stroke:#50ad9f; stroke-linecap:round; stroke-linejoin:round; stroke-width:8; stroke-opacity:1; fill:none" points="1979.85,712.97 2122.04,712.97 "/>
<circle clip-path="url(#clip450)" cx="2050.94" cy="712.97" r="19.749" fill="#50ad9f" fill-rule="evenodd" fill-opacity="1" stroke="#000000" stroke-opacity="1" stroke-width="2.73067"/>
<path clip-path="url(#clip450)" d="M2145.74 695.69 L2165.6 695.69 L2165.6 699.625 L2150.42 699.625 L2150.42 709.81 L2164.12 709.81 L2164.12 713.745 L2150.42 713.745 L2150.42 730.25 L2145.74 730.25 L2145.74 695.69 Z" fill="#000000" fill-rule="nonzero" fill-opacity="1" /><path clip-path="url(#clip450)" d="M2169.37 704.324 L2173.63 704.324 L2173.63 730.25 L2169.37 730.25 L2169.37 704.324 M2169.37 694.231 L2173.63 694.231 L2173.63 699.625 L2169.37 699.625 L2169.37 694.231 Z" fill="#000000" fill-rule="nonzero" fill-opacity="1" /><path clip-path="url(#clip450)" d="M2186.76 696.963 L2186.76 704.324 L2195.53 704.324 L2195.53 707.634 L2186.76 707.634 L2186.76 721.708 Q2186.76 724.879 2187.61 725.782 Q2188.49 726.685 2191.16 726.685 L2195.53 726.685 L2195.53 730.25 L2191.16 730.25 Q2186.23 730.25 2184.35 728.421 Q2182.48 726.569 2182.48 721.708 L2182.48 707.634 L2179.35 707.634 L2179.35 704.324 L2182.48 704.324 L2182.48 696.963 L2186.76 696.963 Z" fill="#000000" fill-rule="nonzero" fill-opacity="1" /><polyline clip-path="url(#clip450)" style="stroke:#0000a2; stroke-linecap:round; stroke-linejoin:round; stroke-width:8; stroke-opacity:1; fill:none" points="1979.85,764.81 2122.04,764.81 "/>
<path clip-path="url(#clip450)" d="M2029 742.866 L2029 786.753 L2072.89 786.753 L2072.89 742.866 L2029 742.866 Z" fill="#0000a2" fill-rule="evenodd" fill-opacity="1" stroke="#000000" stroke-opacity="1" stroke-width="3.72364"/>
<path clip-path="url(#clip450)" d="M2167.98 748.664 L2167.98 753.224 Q2165.32 751.951 2162.96 751.326 Q2160.6 750.701 2158.4 750.701 Q2154.58 750.701 2152.5 752.182 Q2150.44 753.664 2150.44 756.395 Q2150.44 758.687 2151.8 759.867 Q2153.19 761.025 2157.04 761.742 L2159.86 762.321 Q2165.09 763.317 2167.57 765.84 Q2170.07 768.34 2170.07 772.553 Q2170.07 777.576 2166.69 780.168 Q2163.33 782.761 2156.83 782.761 Q2154.37 782.761 2151.6 782.205 Q2148.84 781.65 2145.88 780.562 L2145.88 775.747 Q2148.73 777.344 2151.46 778.154 Q2154.19 778.965 2156.83 778.965 Q2160.83 778.965 2163.01 777.391 Q2165.18 775.816 2165.18 772.9 Q2165.18 770.354 2163.61 768.918 Q2162.06 767.483 2158.49 766.766 L2155.65 766.21 Q2150.42 765.168 2148.08 762.946 Q2145.74 760.724 2145.74 756.766 Q2145.74 752.182 2148.96 749.543 Q2152.2 746.905 2157.87 746.905 Q2160.3 746.905 2162.82 747.344 Q2165.35 747.784 2167.98 748.664 Z" fill="#000000" fill-rule="nonzero" fill-opacity="1" /><path clip-path="url(#clip450)" d="M2187.96 784.497 Q2186.16 789.127 2184.44 790.539 Q2182.73 791.951 2179.86 791.951 L2176.46 791.951 L2176.46 788.386 L2178.96 788.386 Q2180.72 788.386 2181.69 787.553 Q2182.66 786.719 2183.84 783.617 L2184.6 781.673 L2174.12 756.164 L2178.63 756.164 L2186.73 776.441 L2194.84 756.164 L2199.35 756.164 L2187.96 784.497 Z" fill="#000000" fill-rule="nonzero" fill-opacity="1" /><path clip-path="url(#clip450)" d="M2225.41 761.141 Q2227.01 758.27 2229.23 756.905 Q2231.46 755.539 2234.47 755.539 Q2238.52 755.539 2240.72 758.386 Q2242.91 761.21 2242.91 766.442 L2242.91 782.09 L2238.63 782.09 L2238.63 766.58 Q2238.63 762.854 2237.31 761.048 Q2235.99 759.242 2233.29 759.242 Q2229.97 759.242 2228.05 761.442 Q2226.13 763.641 2226.13 767.437 L2226.13 782.09 L2221.85 782.09 L2221.85 766.58 Q2221.85 762.83 2220.53 761.048 Q2219.21 759.242 2216.46 759.242 Q2213.19 759.242 2211.27 761.465 Q2209.35 763.664 2209.35 767.437 L2209.35 782.09 L2205.07 782.09 L2205.07 756.164 L2209.35 756.164 L2209.35 760.192 Q2210.81 757.807 2212.85 756.673 Q2214.88 755.539 2217.68 755.539 Q2220.51 755.539 2222.47 756.974 Q2224.47 758.409 2225.41 761.141 Z" fill="#000000" fill-rule="nonzero" fill-opacity="1" /><polyline clip-path="url(#clip450)" style="stroke:#bc272d; stroke-linecap:round; stroke-linejoin:round; stroke-width:8; stroke-opacity:1; fill:none" points="1979.85,816.65 2122.04,816.65 "/>
<path clip-path="url(#clip450)" d="M2050.94 794.706 L2045.79 809.54 L2030.08 809.869 L2042.61 819.371 L2038.04 834.402 L2050.94 825.427 L2063.85 834.402 L2059.28 819.371 L2071.81 809.869 L2056.1 809.54 L2050.94 794.706 Z" fill="#bc272d" fill-rule="evenodd" fill-opacity="1" stroke="#000000" stroke-opacity="1" stroke-width="2.73067"/>
<path clip-path="url(#clip450)" d="M2145.74 799.37 L2165.6 799.37 L2165.6 803.305 L2150.42 803.305 L2150.42 813.49 L2164.12 813.49 L2164.12 817.425 L2150.42 817.425 L2150.42 833.93 L2145.74 833.93 L2145.74 799.37 Z" fill="#000000" fill-rule="nonzero" fill-opacity="1" /><path clip-path="url(#clip450)" d="M2172.82 797.911 L2177.08 797.911 L2177.08 833.93 L2172.82 833.93 L2172.82 797.911 Z" fill="#000000" fill-rule="nonzero" fill-opacity="1" /><path clip-path="url(#clip450)" d="M2197.78 820.897 Q2192.61 820.897 2190.62 822.078 Q2188.63 823.258 2188.63 826.106 Q2188.63 828.374 2190.11 829.717 Q2191.62 831.036 2194.19 831.036 Q2197.73 831.036 2199.86 828.536 Q2202.01 826.013 2202.01 821.846 L2202.01 820.897 L2197.78 820.897 M2206.27 819.138 L2206.27 833.93 L2202.01 833.93 L2202.01 829.994 Q2200.55 832.356 2198.38 833.49 Q2196.2 834.601 2193.05 834.601 Q2189.07 834.601 2186.71 832.379 Q2184.37 830.133 2184.37 826.383 Q2184.37 822.008 2187.29 819.786 Q2190.23 817.564 2196.04 817.564 L2202.01 817.564 L2202.01 817.147 Q2202.01 814.207 2200.07 812.61 Q2198.15 810.99 2194.65 810.99 Q2192.43 810.99 2190.32 811.522 Q2188.22 812.055 2186.27 813.12 L2186.27 809.184 Q2188.61 808.282 2190.81 807.842 Q2193.01 807.379 2195.09 807.379 Q2200.72 807.379 2203.49 810.295 Q2206.27 813.212 2206.27 819.138 Z" fill="#000000" fill-rule="nonzero" fill-opacity="1" /><path clip-path="url(#clip450)" d="M2219.26 800.643 L2219.26 808.004 L2228.03 808.004 L2228.03 811.314 L2219.26 811.314 L2219.26 825.388 Q2219.26 828.559 2220.11 829.462 Q2220.99 830.365 2223.66 830.365 L2228.03 830.365 L2228.03 833.93 L2223.66 833.93 Q2218.72 833.93 2216.85 832.101 Q2214.97 830.249 2214.97 825.388 L2214.97 811.314 L2211.85 811.314 L2211.85 808.004 L2214.97 808.004 L2214.97 800.643 L2219.26 800.643 Z" fill="#000000" fill-rule="nonzero" fill-opacity="1" /><polyline clip-path="url(#clip450)" style="stroke:#e9c716; stroke-linecap:round; stroke-linejoin:round; stroke-width:8; stroke-opacity:1; fill:none" points="1979.85,868.49 2122.04,868.49 "/>
<path clip-path="url(#clip450)" d="M2050.94 846.546 L2029 890.433 L2072.89 890.433 L2050.94 846.546 Z" fill="#e9c716" fill-rule="evenodd" fill-opacity="1" stroke="#000000" stroke-opacity="1" stroke-width="2.73067"/>
<path clip-path="url(#clip450)" d="M2150.42 855.052 L2150.42 868.038 L2156.29 868.038 Q2159.56 868.038 2161.34 866.348 Q2163.12 864.659 2163.12 861.534 Q2163.12 858.432 2161.34 856.742 Q2159.56 855.052 2156.29 855.052 L2150.42 855.052 M2145.74 851.21 L2156.29 851.21 Q2162.1 851.21 2165.07 853.848 Q2168.05 856.464 2168.05 861.534 Q2168.05 866.649 2165.07 869.265 Q2162.1 871.881 2156.29 871.881 L2150.42 871.881 L2150.42 885.77 L2145.74 885.77 L2145.74 851.21 Z" fill="#000000" fill-rule="nonzero" fill-opacity="1" /><path clip-path="url(#clip450)" d="M2194.63 871.742 L2194.63 873.825 L2175.04 873.825 Q2175.32 878.223 2177.68 880.538 Q2180.07 882.83 2184.3 882.83 Q2186.76 882.83 2189.05 882.228 Q2191.36 881.626 2193.63 880.422 L2193.63 884.45 Q2191.34 885.422 2188.93 885.932 Q2186.53 886.441 2184.05 886.441 Q2177.85 886.441 2174.21 882.83 Q2170.6 879.219 2170.6 873.061 Q2170.6 866.696 2174.03 862.969 Q2177.48 859.219 2183.31 859.219 Q2188.54 859.219 2191.57 862.598 Q2194.63 865.955 2194.63 871.742 M2190.37 870.492 Q2190.32 866.997 2188.4 864.913 Q2186.5 862.83 2183.35 862.83 Q2179.79 862.83 2177.64 864.844 Q2175.51 866.858 2175.18 870.515 L2190.37 870.492 Z" fill="#000000" fill-rule="nonzero" fill-opacity="1" /><path clip-path="url(#clip450)" d="M2216.64 863.825 Q2215.92 863.409 2215.07 863.223 Q2214.23 863.015 2213.22 863.015 Q2209.6 863.015 2207.66 865.376 Q2205.74 867.714 2205.74 872.112 L2205.74 885.77 L2201.46 885.77 L2201.46 859.844 L2205.74 859.844 L2205.74 863.872 Q2207.08 861.51 2209.23 860.376 Q2211.39 859.219 2214.47 859.219 Q2214.91 859.219 2215.44 859.288 Q2215.97 859.335 2216.62 859.45 L2216.64 863.825 Z" fill="#000000" fill-rule="nonzero" fill-opacity="1" /><path clip-path="url(#clip450)" d="M2240.46 864.821 Q2242.06 861.95 2244.28 860.585 Q2246.5 859.219 2249.51 859.219 Q2253.56 859.219 2255.76 862.066 Q2257.96 864.89 2257.96 870.122 L2257.96 885.77 L2253.68 885.77 L2253.68 870.26 Q2253.68 866.534 2252.36 864.728 Q2251.04 862.922 2248.33 862.922 Q2245.02 862.922 2243.1 865.122 Q2241.18 867.321 2241.18 871.117 L2241.18 885.77 L2236.9 885.77 L2236.9 870.26 Q2236.9 866.51 2235.58 864.728 Q2234.26 862.922 2231.5 862.922 Q2228.24 862.922 2226.32 865.145 Q2224.4 867.344 2224.4 871.117 L2224.4 885.77 L2220.11 885.77 L2220.11 859.844 L2224.4 859.844 L2224.4 863.872 Q2225.85 861.487 2227.89 860.353 Q2229.93 859.219 2232.73 859.219 Q2235.55 859.219 2237.52 860.654 Q2239.51 862.089 2240.46 864.821 Z" fill="#000000" fill-rule="nonzero" fill-opacity="1" /></svg>
