<?xml version="1.0" encoding="utf-8"?>
<svg xmlns="http://www.w3.org/2000/svg" xmlns:xlink="http://www.w3.org/1999/xlink" width="600" height="400" viewBox="0 0 2400 1600">
<defs>
  <clipPath id="clip670">
    <rect x="0" y="0" width="2400" height="1600"/>
  </clipPath>
</defs>
<path clip-path="url(#clip670)" d="M0 1600 L2400 1600 L2400 0 L0 0  Z" fill="#ffffff" fill-rule="evenodd" fill-opacity="1"/>
<defs>
  <clipPath id="clip671">
    <rect x="480" y="0" width="1681" height="1600"/>
  </clipPath>
</defs>
<path clip-path="url(#clip670)" d="M255.977 1423.18 L2352.76 1423.18 L2352.76 123.472 L255.977 123.472  Z" fill="#ffffff" fill-rule="evenodd" fill-opacity="1"/>
<defs>
  <clipPath id="clip672">
    <rect x="255" y="123" width="2098" height="1301"/>
  </clipPath>
</defs>
<polyline clip-path="url(#clip672)" style="stroke:#000000; stroke-linecap:round; stroke-linejoin:round; stroke-width:2; stroke-opacity:0.1; fill:none" points="283.922,1423.18 283.922,123.472 "/>
<polyline clip-path="url(#clip672)" style="stroke:#000000; stroke-linecap:round; stroke-linejoin:round; stroke-width:2; stroke-opacity:0.1; fill:none" points="774.52,1423.18 774.52,123.472 "/>
<polyline clip-path="url(#clip672)" style="stroke:#000000; stroke-linecap:round; stroke-linejoin:round; stroke-width:2; stroke-opacity:0.1; fill:none" points="1265.12,1423.18 1265.12,123.472 "/>
<polyline clip-path="url(#clip672)" style="stroke:#000000; stroke-linecap:round; stroke-linejoin:round; stroke-width:2; stroke-opacity:0.1; fill:none" points="1755.72,1423.18 1755.72,123.472 "/>
<polyline clip-path="url(#clip672)" style="stroke:#000000; stroke-linecap:round; stroke-linejoin:round; stroke-width:2; stroke-opacity:0.1; fill:none" points="2246.32,1423.18 2246.32,123.472 "/>
<polyline clip-path="url(#clip670)" style="stroke:#000000; stroke-linecap:round; stroke-linejoin:round; stroke-width:4; stroke-opacity:1; fill:none" points="255.977,1423.18 2352.76,1423.18 "/>
<polyline clip-path="url(#clip670)" style="stroke:#000000; stroke-linecap:round; stroke-linejoin:round; stroke-width:4; stroke-opacity:1; fill:none" points="283.922,1423.18 283.922,1404.28 "/>
<polyline clip-path="url(#clip670)" style="stroke:#000000; stroke-linecap:round; stroke-linejoin:round; stroke-width:4; stroke-opacity:1; fill:none" points="774.52,1423.18 774.52,1404.28 "/>
<polyline clip-path="url(#clip670)" style="stroke:#000000; stroke-linecap:round; stroke-linejoin:round; stroke-width:4; stroke-opacity:1; fill:none" points="1265.12,1423.18 1265.12,1404.28 "/>
<polyline clip-path="url(#clip670)" style="stroke:#000000; stroke-linecap:round; stroke-linejoin:round; stroke-width:4; stroke-opacity:1; fill:none" points="1755.72,1423.18 1755.72,1404.28 "/>
<polyline clip-path="url(#clip670)" style="stroke:#000000; stroke-linecap:round; stroke-linejoin:round; stroke-width:4; stroke-opacity:1; fill:none" points="2246.32,1423.18 2246.32,1404.28 "/>
<path clip-path="url(#clip670)" d="M283.922 1454.1 Q280.311 1454.1 278.482 1457.66 Q276.676 1461.2 276.676 1468.33 Q276.676 1475.44 278.482 1479.01 Q280.311 1482.55 283.922 1482.55 Q287.556 1482.55 289.361 1479.01 Q291.19 1475.44 291.19 1468.33 Q291.19 1461.2 289.361 1457.66 Q287.556 1454.1 283.922 1454.1 M283.922 1450.39 Q289.732 1450.39 292.787 1455 Q295.866 1459.58 295.866 1468.33 Q295.866 1477.06 292.787 1481.67 Q289.732 1486.25 283.922 1486.25 Q278.112 1486.25 275.033 1481.67 Q271.977 1477.06 271.977 1468.33 Q271.977 1459.58 275.033 1455 Q278.112 1450.39 283.922 1450.39 Z" fill="#000000" fill-rule="nonzero" fill-opacity="1" /><path clip-path="url(#clip670)" d="M723.132 1481.64 L739.451 1481.64 L739.451 1485.58 L717.507 1485.58 L717.507 1481.64 Q720.169 1478.89 724.752 1474.26 Q729.358 1469.61 730.539 1468.27 Q732.784 1465.74 733.664 1464.01 Q734.567 1462.25 734.567 1460.56 Q734.567 1457.8 732.622 1456.07 Q730.701 1454.33 727.599 1454.33 Q725.4 1454.33 722.946 1455.09 Q720.516 1455.86 717.738 1457.41 L717.738 1452.69 Q720.562 1451.55 723.016 1450.97 Q725.47 1450.39 727.507 1450.39 Q732.877 1450.39 736.071 1453.08 Q739.266 1455.77 739.266 1460.26 Q739.266 1462.39 738.456 1464.31 Q737.669 1466.2 735.562 1468.8 Q734.983 1469.47 731.882 1472.69 Q728.78 1475.88 723.132 1481.64 Z" fill="#000000" fill-rule="nonzero" fill-opacity="1" /><path clip-path="url(#clip670)" d="M759.266 1454.1 Q755.655 1454.1 753.826 1457.66 Q752.02 1461.2 752.02 1468.33 Q752.02 1475.44 753.826 1479.01 Q755.655 1482.55 759.266 1482.55 Q762.9 1482.55 764.705 1479.01 Q766.534 1475.44 766.534 1468.33 Q766.534 1461.2 764.705 1457.66 Q762.9 1454.1 759.266 1454.1 M759.266 1450.39 Q765.076 1450.39 768.131 1455 Q771.21 1459.58 771.21 1468.33 Q771.21 1477.06 768.131 1481.67 Q765.076 1486.25 759.266 1486.25 Q753.455 1486.25 750.377 1481.67 Q747.321 1477.06 747.321 1468.33 Q747.321 1459.58 750.377 1455 Q753.455 1450.39 759.266 1450.39 Z" fill="#000000" fill-rule="nonzero" fill-opacity="1" /><path clip-path="url(#clip670)" d="M789.427 1454.1 Q785.816 1454.1 783.988 1457.66 Q782.182 1461.2 782.182 1468.33 Q782.182 1475.44 783.988 1479.01 Q785.816 1482.55 789.427 1482.55 Q793.062 1482.55 794.867 1479.01 Q796.696 1475.44 796.696 1468.33 Q796.696 1461.2 794.867 1457.66 Q793.062 1454.1 789.427 1454.1 M789.427 1450.39 Q795.238 1450.39 798.293 1455 Q801.372 1459.58 801.372 1468.33 Q801.372 1477.06 798.293 1481.67 Q795.238 1486.25 789.427 1486.25 Q783.617 1486.25 780.539 1481.67 Q777.483 1477.06 777.483 1468.33 Q777.483 1459.58 780.539 1455 Q783.617 1450.39 789.427 1450.39 Z" fill="#000000" fill-rule="nonzero" fill-opacity="1" /><path clip-path="url(#clip670)" d="M819.589 1454.1 Q815.978 1454.1 814.15 1457.66 Q812.344 1461.2 812.344 1468.33 Q812.344 1475.44 814.15 1479.01 Q815.978 1482.55 819.589 1482.55 Q823.224 1482.55 825.029 1479.01 Q826.858 1475.44 826.858 1468.33 Q826.858 1461.2 825.029 1457.66 Q823.224 1454.1 819.589 1454.1 M819.589 1450.39 Q825.4 1450.39 828.455 1455 Q831.534 1459.58 831.534 1468.33 Q831.534 1477.06 828.455 1481.67 Q825.4 1486.25 819.589 1486.25 Q813.779 1486.25 810.701 1481.67 Q807.645 1477.06 807.645 1468.33 Q807.645 1459.58 810.701 1455 Q813.779 1450.39 819.589 1450.39 Z" fill="#000000" fill-rule="nonzero" fill-opacity="1" /><path clip-path="url(#clip670)" d="M1223.13 1455.09 L1211.32 1473.54 L1223.13 1473.54 L1223.13 1455.09 M1221.9 1451.02 L1227.78 1451.02 L1227.78 1473.54 L1232.71 1473.54 L1232.71 1477.43 L1227.78 1477.43 L1227.78 1485.58 L1223.13 1485.58 L1223.13 1477.43 L1207.53 1477.43 L1207.53 1472.92 L1221.9 1451.02 Z" fill="#000000" fill-rule="nonzero" fill-opacity="1" /><path clip-path="url(#clip670)" d="M1250.44 1454.1 Q1246.83 1454.1 1245 1457.66 Q1243.2 1461.2 1243.2 1468.33 Q1243.2 1475.44 1245 1479.01 Q1246.83 1482.55 1250.44 1482.55 Q1254.08 1482.55 1255.88 1479.01 Q1257.71 1475.44 1257.71 1468.33 Q1257.71 1461.2 1255.88 1457.66 Q1254.08 1454.1 1250.44 1454.1 M1250.44 1450.39 Q1256.25 1450.39 1259.31 1455 Q1262.39 1459.58 1262.39 1468.33 Q1262.39 1477.06 1259.31 1481.67 Q1256.25 1486.25 1250.44 1486.25 Q1244.63 1486.25 1241.55 1481.67 Q1238.5 1477.06 1238.5 1468.33 Q1238.5 1459.58 1241.55 1455 Q1244.63 1450.39 1250.44 1450.39 Z" fill="#000000" fill-rule="nonzero" fill-opacity="1" /><path clip-path="url(#clip670)" d="M1280.6 1454.1 Q1276.99 1454.1 1275.16 1457.66 Q1273.36 1461.2 1273.36 1468.33 Q1273.36 1475.44 1275.16 1479.01 Q1276.99 1482.55 1280.6 1482.55 Q1284.24 1482.55 1286.04 1479.01 Q1287.87 1475.44 1287.87 1468.33 Q1287.87 1461.2 1286.04 1457.66 Q1284.24 1454.1 1280.6 1454.1 M1280.6 1450.39 Q1286.41 1450.39 1289.47 1455 Q1292.55 1459.58 1292.55 1468.33 Q1292.55 1477.06 1289.47 1481.67 Q1286.41 1486.25 1280.6 1486.25 Q1274.79 1486.25 1271.72 1481.67 Q1268.66 1477.06 1268.66 1468.33 Q1268.66 1459.58 1271.72 1455 Q1274.79 1450.39 1280.6 1450.39 Z" fill="#000000" fill-rule="nonzero" fill-opacity="1" /><path clip-path="url(#clip670)" d="M1310.77 1454.1 Q1307.16 1454.1 1305.33 1457.66 Q1303.52 1461.2 1303.52 1468.33 Q1303.52 1475.44 1305.33 1479.01 Q1307.16 1482.55 1310.77 1482.55 Q1314.4 1482.55 1316.21 1479.01 Q1318.04 1475.44 1318.04 1468.33 Q1318.04 1461.2 1316.21 1457.66 Q1314.4 1454.1 1310.77 1454.1 M1310.77 1450.39 Q1316.58 1450.39 1319.63 1455 Q1322.71 1459.58 1322.71 1468.33 Q1322.71 1477.06 1319.63 1481.67 Q1316.58 1486.25 1310.77 1486.25 Q1304.96 1486.25 1301.88 1481.67 Q1298.82 1477.06 1298.82 1468.33 Q1298.82 1459.58 1301.88 1455 Q1304.96 1450.39 1310.77 1450.39 Z" fill="#000000" fill-rule="nonzero" fill-opacity="1" /><path clip-path="url(#clip670)" d="M1710.96 1466.44 Q1707.81 1466.44 1705.96 1468.59 Q1704.13 1470.74 1704.13 1474.49 Q1704.13 1478.22 1705.96 1480.39 Q1707.81 1482.55 1710.96 1482.55 Q1714.11 1482.55 1715.94 1480.39 Q1717.79 1478.22 1717.79 1474.49 Q1717.79 1470.74 1715.94 1468.59 Q1714.11 1466.44 1710.96 1466.44 M1720.24 1451.78 L1720.24 1456.04 Q1718.48 1455.21 1716.68 1454.77 Q1714.9 1454.33 1713.14 1454.33 Q1708.51 1454.33 1706.05 1457.45 Q1703.62 1460.58 1703.28 1466.9 Q1704.64 1464.89 1706.7 1463.82 Q1708.76 1462.73 1711.24 1462.73 Q1716.45 1462.73 1719.46 1465.9 Q1722.49 1469.05 1722.49 1474.49 Q1722.49 1479.82 1719.34 1483.03 Q1716.19 1486.25 1710.96 1486.25 Q1704.97 1486.25 1701.79 1481.67 Q1698.62 1477.06 1698.62 1468.33 Q1698.62 1460.14 1702.51 1455.28 Q1706.4 1450.39 1712.95 1450.39 Q1714.71 1450.39 1716.49 1450.74 Q1718.3 1451.09 1720.24 1451.78 Z" fill="#000000" fill-rule="nonzero" fill-opacity="1" /><path clip-path="url(#clip670)" d="M1740.54 1454.1 Q1736.93 1454.1 1735.1 1457.66 Q1733.3 1461.2 1733.3 1468.33 Q1733.3 1475.44 1735.1 1479.01 Q1736.93 1482.55 1740.54 1482.55 Q1744.18 1482.55 1745.98 1479.01 Q1747.81 1475.44 1747.81 1468.33 Q1747.81 1461.2 1745.98 1457.66 Q1744.18 1454.1 1740.54 1454.1 M1740.54 1450.39 Q1746.35 1450.39 1749.41 1455 Q1752.49 1459.58 1752.49 1468.33 Q1752.49 1477.06 1749.41 1481.67 Q1746.35 1486.25 1740.54 1486.25 Q1734.73 1486.25 1731.65 1481.67 Q1728.6 1477.06 1728.6 1468.33 Q1728.6 1459.58 1731.65 1455 Q1734.73 1450.39 1740.54 1450.39 Z" fill="#000000" fill-rule="nonzero" fill-opacity="1" /><path clip-path="url(#clip670)" d="M1770.71 1454.1 Q1767.09 1454.1 1765.27 1457.66 Q1763.46 1461.2 1763.46 1468.33 Q1763.46 1475.44 1765.27 1479.01 Q1767.09 1482.55 1770.71 1482.55 Q1774.34 1482.55 1776.15 1479.01 Q1777.97 1475.44 1777.97 1468.33 Q1777.97 1461.2 1776.15 1457.66 Q1774.34 1454.1 1770.71 1454.1 M1770.71 1450.39 Q1776.52 1450.39 1779.57 1455 Q1782.65 1459.58 1782.65 1468.33 Q1782.65 1477.06 1779.57 1481.67 Q1776.52 1486.25 1770.71 1486.25 Q1764.9 1486.25 1761.82 1481.67 Q1758.76 1477.06 1758.76 1468.33 Q1758.76 1459.58 1761.82 1455 Q1764.9 1450.39 1770.71 1450.39 Z" fill="#000000" fill-rule="nonzero" fill-opacity="1" /><path clip-path="url(#clip670)" d="M1800.87 1454.1 Q1797.26 1454.1 1795.43 1457.66 Q1793.62 1461.2 1793.62 1468.33 Q1793.62 1475.44 1795.43 1479.01 Q1797.26 1482.55 1800.87 1482.55 Q1804.5 1482.55 1806.31 1479.01 Q1808.14 1475.44 1808.14 1468.33 Q1808.14 1461.2 1806.31 1457.66 Q1804.5 1454.1 1800.87 1454.1 M1800.87 1450.39 Q1806.68 1450.39 1809.73 1455 Q1812.81 1459.58 1812.81 1468.33 Q1812.81 1477.06 1809.73 1481.67 Q1806.68 1486.25 1800.87 1486.25 Q1795.06 1486.25 1791.98 1481.67 Q1788.92 1477.06 1788.92 1468.33 Q1788.92 1459.58 1791.98 1455 Q1795.06 1450.39 1800.87 1450.39 Z" fill="#000000" fill-rule="nonzero" fill-opacity="1" /><path clip-path="url(#clip670)" d="M2201.03 1469.17 Q2197.69 1469.17 2195.77 1470.95 Q2193.87 1472.73 2193.87 1475.86 Q2193.87 1478.98 2195.77 1480.77 Q2197.69 1482.55 2201.03 1482.55 Q2204.36 1482.55 2206.28 1480.77 Q2208.2 1478.96 2208.2 1475.86 Q2208.2 1472.73 2206.28 1470.95 Q2204.38 1469.17 2201.03 1469.17 M2196.35 1467.18 Q2193.34 1466.44 2191.65 1464.38 Q2189.98 1462.32 2189.98 1459.35 Q2189.98 1455.21 2192.92 1452.8 Q2195.89 1450.39 2201.03 1450.39 Q2206.19 1450.39 2209.13 1452.8 Q2212.07 1455.21 2212.07 1459.35 Q2212.07 1462.32 2210.38 1464.38 Q2208.71 1466.44 2205.73 1467.18 Q2209.11 1467.96 2210.98 1470.26 Q2212.88 1472.55 2212.88 1475.86 Q2212.88 1480.88 2209.8 1483.57 Q2206.74 1486.25 2201.03 1486.25 Q2195.31 1486.25 2192.23 1483.57 Q2189.17 1480.88 2189.17 1475.86 Q2189.17 1472.55 2191.07 1470.26 Q2192.97 1467.96 2196.35 1467.18 M2194.64 1459.79 Q2194.64 1462.48 2196.3 1463.98 Q2197.99 1465.49 2201.03 1465.49 Q2204.04 1465.49 2205.73 1463.98 Q2207.44 1462.48 2207.44 1459.79 Q2207.44 1457.11 2205.73 1455.6 Q2204.04 1454.1 2201.03 1454.1 Q2197.99 1454.1 2196.3 1455.6 Q2194.64 1457.11 2194.64 1459.79 Z" fill="#000000" fill-rule="nonzero" fill-opacity="1" /><path clip-path="url(#clip670)" d="M2231.19 1454.1 Q2227.58 1454.1 2225.75 1457.66 Q2223.94 1461.2 2223.94 1468.33 Q2223.94 1475.44 2225.75 1479.01 Q2227.58 1482.55 2231.19 1482.55 Q2234.82 1482.55 2236.63 1479.01 Q2238.46 1475.44 2238.46 1468.33 Q2238.46 1461.2 2236.63 1457.66 Q2234.82 1454.1 2231.19 1454.1 M2231.19 1450.39 Q2237 1450.39 2240.05 1455 Q2243.13 1459.58 2243.13 1468.33 Q2243.13 1477.06 2240.05 1481.67 Q2237 1486.25 2231.19 1486.25 Q2225.38 1486.25 2222.3 1481.67 Q2219.24 1477.06 2219.24 1468.33 Q2219.24 1459.58 2222.3 1455 Q2225.38 1450.39 2231.19 1450.39 Z" fill="#000000" fill-rule="nonzero" fill-opacity="1" /><path clip-path="url(#clip670)" d="M2261.35 1454.1 Q2257.74 1454.1 2255.91 1457.66 Q2254.1 1461.2 2254.1 1468.33 Q2254.1 1475.44 2255.91 1479.01 Q2257.74 1482.55 2261.35 1482.55 Q2264.98 1482.55 2266.79 1479.01 Q2268.62 1475.44 2268.62 1468.33 Q2268.62 1461.2 2266.79 1457.66 Q2264.98 1454.1 2261.35 1454.1 M2261.35 1450.39 Q2267.16 1450.39 2270.22 1455 Q2273.29 1459.58 2273.29 1468.33 Q2273.29 1477.06 2270.22 1481.67 Q2267.16 1486.25 2261.35 1486.25 Q2255.54 1486.25 2252.46 1481.67 Q2249.41 1477.06 2249.41 1468.33 Q2249.41 1459.58 2252.46 1455 Q2255.54 1450.39 2261.35 1450.39 Z" fill="#000000" fill-rule="nonzero" fill-opacity="1" /><path clip-path="url(#clip670)" d="M2291.51 1454.1 Q2287.9 1454.1 2286.07 1457.66 Q2284.27 1461.2 2284.27 1468.33 Q2284.27 1475.44 2286.07 1479.01 Q2287.9 1482.55 2291.51 1482.55 Q2295.15 1482.55 2296.95 1479.01 Q2298.78 1475.44 2298.78 1468.33 Q2298.78 1461.2 2296.95 1457.66 Q2295.15 1454.1 2291.51 1454.1 M2291.51 1450.39 Q2297.32 1450.39 2300.38 1455 Q2303.46 1459.58 2303.46 1468.33 Q2303.46 1477.06 2300.38 1481.67 Q2297.32 1486.25 2291.51 1486.25 Q2285.7 1486.25 2282.62 1481.67 Q2279.57 1477.06 2279.57 1468.33 Q2279.57 1459.58 2282.62 1455 Q2285.7 1450.39 2291.51 1450.39 Z" fill="#000000" fill-rule="nonzero" fill-opacity="1" /><path clip-path="url(#clip670)" d="M1028.19 1520.52 L1036.85 1520.52 L1057.92 1560.28 L1057.92 1520.52 L1064.16 1520.52 L1064.16 1568.04 L1055.5 1568.04 L1034.43 1528.29 L1034.43 1568.04 L1028.19 1568.04 L1028.19 1520.52 Z" fill="#000000" fill-rule="nonzero" fill-opacity="1" /><path clip-path="url(#clip670)" d="M1076.09 1553.98 L1076.09 1532.4 L1081.95 1532.4 L1081.95 1553.75 Q1081.95 1558.81 1083.92 1561.36 Q1085.9 1563.87 1089.84 1563.87 Q1094.58 1563.87 1097.32 1560.85 Q1100.09 1557.83 1100.09 1552.61 L1100.09 1532.4 L1105.95 1532.4 L1105.95 1568.04 L1100.09 1568.04 L1100.09 1562.57 Q1097.96 1565.82 1095.13 1567.41 Q1092.32 1568.97 1088.6 1568.97 Q1082.46 1568.97 1079.28 1565.15 Q1076.09 1561.33 1076.09 1553.98 M1090.83 1531.54 L1090.83 1531.54 Z" fill="#000000" fill-rule="nonzero" fill-opacity="1" /><path clip-path="url(#clip670)" d="M1145.76 1539.24 Q1147.96 1535.29 1151.02 1533.41 Q1154.07 1531.54 1158.21 1531.54 Q1163.78 1531.54 1166.8 1535.45 Q1169.83 1539.33 1169.83 1546.53 L1169.83 1568.04 L1163.94 1568.04 L1163.94 1546.72 Q1163.94 1541.59 1162.12 1539.11 Q1160.31 1536.63 1156.59 1536.63 Q1152.04 1536.63 1149.39 1539.65 Q1146.75 1542.68 1146.75 1547.9 L1146.75 1568.04 L1140.86 1568.04 L1140.86 1546.72 Q1140.86 1541.56 1139.05 1539.11 Q1137.23 1536.63 1133.45 1536.63 Q1128.96 1536.63 1126.32 1539.68 Q1123.68 1542.71 1123.68 1547.9 L1123.68 1568.04 L1117.79 1568.04 L1117.79 1532.4 L1123.68 1532.4 L1123.68 1537.93 Q1125.68 1534.66 1128.48 1533.1 Q1131.28 1531.54 1135.13 1531.54 Q1139.02 1531.54 1141.72 1533.51 Q1144.46 1535.48 1145.76 1539.24 Z" fill="#000000" fill-rule="nonzero" fill-opacity="1" /><path clip-path="url(#clip670)" d="M1207.1 1550.25 Q1207.1 1543.79 1204.42 1540.13 Q1201.78 1536.44 1197.14 1536.44 Q1192.49 1536.44 1189.82 1540.13 Q1187.17 1543.79 1187.17 1550.25 Q1187.17 1556.71 1189.82 1560.4 Q1192.49 1564.07 1197.14 1564.07 Q1201.78 1564.07 1204.42 1560.4 Q1207.1 1556.71 1207.1 1550.25 M1187.17 1537.81 Q1189.02 1534.62 1191.82 1533.1 Q1194.65 1531.54 1198.57 1531.54 Q1205.06 1531.54 1209.1 1536.69 Q1213.18 1541.85 1213.18 1550.25 Q1213.18 1558.65 1209.1 1563.81 Q1205.06 1568.97 1198.57 1568.97 Q1194.65 1568.97 1191.82 1567.44 Q1189.02 1565.88 1187.17 1562.7 L1187.17 1568.04 L1181.29 1568.04 L1181.29 1518.52 L1187.17 1518.52 L1187.17 1537.81 Z" fill="#000000" fill-rule="nonzero" fill-opacity="1" /><path clip-path="url(#clip670)" d="M1253.38 1548.76 L1253.38 1551.62 L1226.45 1551.62 Q1226.83 1557.67 1230.08 1560.85 Q1233.36 1564 1239.18 1564 Q1242.56 1564 1245.71 1563.17 Q1248.89 1562.35 1252.01 1560.69 L1252.01 1566.23 Q1248.86 1567.57 1245.55 1568.27 Q1242.24 1568.97 1238.83 1568.97 Q1230.3 1568.97 1225.3 1564 Q1220.34 1559.04 1220.34 1550.57 Q1220.34 1541.82 1225.05 1536.69 Q1229.79 1531.54 1237.81 1531.54 Q1245.01 1531.54 1249.18 1536.18 Q1253.38 1540.8 1253.38 1548.76 M1247.52 1547.04 Q1247.46 1542.23 1244.82 1539.37 Q1242.21 1536.5 1237.88 1536.5 Q1232.98 1536.5 1230.02 1539.27 Q1227.09 1542.04 1226.64 1547.07 L1247.52 1547.04 Z" fill="#000000" fill-rule="nonzero" fill-opacity="1" /><path clip-path="url(#clip670)" d="M1283.65 1537.87 Q1282.66 1537.3 1281.48 1537.04 Q1280.34 1536.76 1278.94 1536.76 Q1273.97 1536.76 1271.3 1540 Q1268.65 1543.22 1268.65 1549.27 L1268.65 1568.04 L1262.77 1568.04 L1262.77 1532.4 L1268.65 1532.4 L1268.65 1537.93 Q1270.5 1534.69 1273.46 1533.13 Q1276.42 1531.54 1280.65 1531.54 Q1281.26 1531.54 1281.99 1531.63 Q1282.72 1531.7 1283.61 1531.85 L1283.65 1537.87 Z" fill="#000000" fill-rule="nonzero" fill-opacity="1" /><path clip-path="url(#clip670)" d="M1324.32 1536.5 Q1319.61 1536.5 1316.88 1540.19 Q1314.14 1543.85 1314.14 1550.25 Q1314.14 1556.65 1316.84 1560.34 Q1319.58 1564 1324.32 1564 Q1329 1564 1331.74 1560.31 Q1334.48 1556.62 1334.48 1550.25 Q1334.48 1543.92 1331.74 1540.23 Q1329 1536.5 1324.32 1536.5 M1324.32 1531.54 Q1331.96 1531.54 1336.32 1536.5 Q1340.68 1541.47 1340.68 1550.25 Q1340.68 1559 1336.32 1564 Q1331.96 1568.97 1324.32 1568.97 Q1316.65 1568.97 1312.29 1564 Q1307.96 1559 1307.96 1550.25 Q1307.96 1541.47 1312.29 1536.5 Q1316.65 1531.54 1324.32 1531.54 Z" fill="#000000" fill-rule="nonzero" fill-opacity="1" /><path clip-path="url(#clip670)" d="M1368.44 1518.52 L1368.44 1523.39 L1362.84 1523.39 Q1359.68 1523.39 1358.44 1524.66 Q1357.23 1525.93 1357.23 1529.24 L1357.23 1532.4 L1366.88 1532.4 L1366.88 1536.95 L1357.23 1536.95 L1357.23 1568.04 L1351.35 1568.04 L1351.35 1536.95 L1345.74 1536.95 L1345.74 1532.4 L1351.35 1532.4 L1351.35 1529.91 Q1351.35 1523.96 1354.11 1521.26 Q1356.88 1518.52 1362.9 1518.52 L1368.44 1518.52 Z" fill="#000000" fill-rule="nonzero" fill-opacity="1" /><path clip-path="url(#clip670)" d="M1400.74 1525.81 L1400.74 1543.66 L1408.83 1543.66 Q1413.32 1543.66 1415.77 1541.34 Q1418.22 1539.02 1418.22 1534.72 Q1418.22 1530.45 1415.77 1528.13 Q1413.32 1525.81 1408.83 1525.81 L1400.74 1525.81 M1394.31 1520.52 L1408.83 1520.52 Q1416.82 1520.52 1420.89 1524.15 Q1425 1527.75 1425 1534.72 Q1425 1541.75 1420.89 1545.35 Q1416.82 1548.95 1408.83 1548.95 L1400.74 1548.95 L1400.74 1568.04 L1394.31 1568.04 L1394.31 1520.52 Z" fill="#000000" fill-rule="nonzero" fill-opacity="1" /><path clip-path="url(#clip670)" d="M1444.86 1536.5 Q1440.15 1536.5 1437.41 1540.19 Q1434.67 1543.85 1434.67 1550.25 Q1434.67 1556.65 1437.38 1560.34 Q1440.12 1564 1444.86 1564 Q1449.54 1564 1452.27 1560.31 Q1455.01 1556.62 1455.01 1550.25 Q1455.01 1543.92 1452.27 1540.23 Q1449.54 1536.5 1444.86 1536.5 M1444.86 1531.54 Q1452.5 1531.54 1456.86 1536.5 Q1461.22 1541.47 1461.22 1550.25 Q1461.22 1559 1456.86 1564 Q1452.5 1568.97 1444.86 1568.97 Q1437.19 1568.97 1432.83 1564 Q1428.5 1559 1428.5 1550.25 Q1428.5 1541.47 1432.83 1536.5 Q1437.19 1531.54 1444.86 1531.54 Z" fill="#000000" fill-rule="nonzero" fill-opacity="1" /><path clip-path="url(#clip670)" d="M1470.93 1532.4 L1476.78 1532.4 L1476.78 1568.04 L1470.93 1568.04 L1470.93 1532.4 M1470.93 1518.52 L1476.78 1518.52 L1476.78 1525.93 L1470.93 1525.93 L1470.93 1518.52 Z" fill="#000000" fill-rule="nonzero" fill-opacity="1" /><path clip-path="url(#clip670)" d="M1518.67 1546.53 L1518.67 1568.04 L1512.81 1568.04 L1512.81 1546.72 Q1512.81 1541.66 1510.84 1539.14 Q1508.86 1536.63 1504.92 1536.63 Q1500.18 1536.63 1497.44 1539.65 Q1494.7 1542.68 1494.7 1547.9 L1494.7 1568.04 L1488.81 1568.04 L1488.81 1532.4 L1494.7 1532.4 L1494.7 1537.93 Q1496.8 1534.72 1499.63 1533.13 Q1502.5 1531.54 1506.22 1531.54 Q1512.37 1531.54 1515.52 1535.36 Q1518.67 1539.14 1518.67 1546.53 Z" fill="#000000" fill-rule="nonzero" fill-opacity="1" /><path clip-path="url(#clip670)" d="M1536.14 1522.27 L1536.14 1532.4 L1548.2 1532.4 L1548.2 1536.95 L1536.14 1536.95 L1536.14 1556.3 Q1536.14 1560.66 1537.32 1561.9 Q1538.53 1563.14 1542.19 1563.14 L1548.2 1563.14 L1548.2 1568.04 L1542.19 1568.04 Q1535.41 1568.04 1532.83 1565.53 Q1530.25 1562.98 1530.25 1556.3 L1530.25 1536.95 L1525.96 1536.95 L1525.96 1532.4 L1530.25 1532.4 L1530.25 1522.27 L1536.14 1522.27 Z" fill="#000000" fill-rule="nonzero" fill-opacity="1" /><path clip-path="url(#clip670)" d="M1578.63 1533.45 L1578.63 1538.98 Q1576.15 1537.71 1573.48 1537.07 Q1570.8 1536.44 1567.94 1536.44 Q1563.58 1536.44 1561.38 1537.77 Q1559.22 1539.11 1559.22 1541.79 Q1559.22 1543.82 1560.78 1545 Q1562.34 1546.15 1567.05 1547.2 L1569.05 1547.64 Q1575.29 1548.98 1577.9 1551.43 Q1580.54 1553.85 1580.54 1558.21 Q1580.54 1563.17 1576.6 1566.07 Q1572.68 1568.97 1565.81 1568.97 Q1562.94 1568.97 1559.82 1568.39 Q1556.73 1567.85 1553.3 1566.74 L1553.3 1560.69 Q1556.54 1562.38 1559.7 1563.24 Q1562.85 1564.07 1565.93 1564.07 Q1570.07 1564.07 1572.3 1562.66 Q1574.53 1561.23 1574.53 1558.65 Q1574.53 1556.27 1572.9 1554.99 Q1571.31 1553.72 1565.87 1552.54 L1563.83 1552.07 Q1558.39 1550.92 1555.97 1548.56 Q1553.55 1546.18 1553.55 1542.04 Q1553.55 1537.01 1557.12 1534.27 Q1560.68 1531.54 1567.24 1531.54 Q1570.48 1531.54 1573.35 1532.01 Q1576.21 1532.49 1578.63 1533.45 Z" fill="#000000" fill-rule="nonzero" fill-opacity="1" /><polyline clip-path="url(#clip672)" style="stroke:#000000; stroke-linecap:round; stroke-linejoin:round; stroke-width:2; stroke-opacity:0.1; fill:none" points="255.977,1377.35 2352.76,1377.35 "/>
<polyline clip-path="url(#clip672)" style="stroke:#000000; stroke-linecap:round; stroke-linejoin:round; stroke-width:2; stroke-opacity:0.1; fill:none" points="255.977,1144.41 2352.76,1144.41 "/>
<polyline clip-path="url(#clip672)" style="stroke:#000000; stroke-linecap:round; stroke-linejoin:round; stroke-width:2; stroke-opacity:0.1; fill:none" points="255.977,911.462 2352.76,911.462 "/>
<polyline clip-path="url(#clip672)" style="stroke:#000000; stroke-linecap:round; stroke-linejoin:round; stroke-width:2; stroke-opacity:0.1; fill:none" points="255.977,678.518 2352.76,678.518 "/>
<polyline clip-path="url(#clip672)" style="stroke:#000000; stroke-linecap:round; stroke-linejoin:round; stroke-width:2; stroke-opacity:0.1; fill:none" points="255.977,445.575 2352.76,445.575 "/>
<polyline clip-path="url(#clip672)" style="stroke:#000000; stroke-linecap:round; stroke-linejoin:round; stroke-width:2; stroke-opacity:0.1; fill:none" points="255.977,212.631 2352.76,212.631 "/>
<polyline clip-path="url(#clip670)" style="stroke:#000000; stroke-linecap:round; stroke-linejoin:round; stroke-width:4; stroke-opacity:1; fill:none" points="255.977,1423.18 255.977,123.472 "/>
<polyline clip-path="url(#clip670)" style="stroke:#000000; stroke-linecap:round; stroke-linejoin:round; stroke-width:4; stroke-opacity:1; fill:none" points="255.977,1377.35 274.875,1377.35 "/>
<polyline clip-path="url(#clip670)" style="stroke:#000000; stroke-linecap:round; stroke-linejoin:round; stroke-width:4; stroke-opacity:1; fill:none" points="255.977,1144.41 274.875,1144.41 "/>
<polyline clip-path="url(#clip670)" style="stroke:#000000; stroke-linecap:round; stroke-linejoin:round; stroke-width:4; stroke-opacity:1; fill:none" points="255.977,911.462 274.875,911.462 "/>
<polyline clip-path="url(#clip670)" style="stroke:#000000; stroke-linecap:round; stroke-linejoin:round; stroke-width:4; stroke-opacity:1; fill:none" points="255.977,678.518 274.875,678.518 "/>
<polyline clip-path="url(#clip670)" style="stroke:#000000; stroke-linecap:round; stroke-linejoin:round; stroke-width:4; stroke-opacity:1; fill:none" points="255.977,445.575 274.875,445.575 "/>
<polyline clip-path="url(#clip670)" style="stroke:#000000; stroke-linecap:round; stroke-linejoin:round; stroke-width:4; stroke-opacity:1; fill:none" points="255.977,212.631 274.875,212.631 "/>
<path clip-path="url(#clip670)" d="M114.631 1377.8 L144.306 1377.8 L144.306 1381.74 L114.631 1381.74 L114.631 1377.8 Z" fill="#000000" fill-rule="nonzero" fill-opacity="1" /><path clip-path="url(#clip670)" d="M164.399 1363.15 Q160.788 1363.15 158.959 1366.71 Q157.153 1370.25 157.153 1377.38 Q157.153 1384.49 158.959 1388.06 Q160.788 1391.6 164.399 1391.6 Q168.033 1391.6 169.839 1388.06 Q171.667 1384.49 171.667 1377.38 Q171.667 1370.25 169.839 1366.71 Q168.033 1363.15 164.399 1363.15 M164.399 1359.44 Q170.209 1359.44 173.264 1364.05 Q176.343 1368.63 176.343 1377.38 Q176.343 1386.11 173.264 1390.72 Q170.209 1395.3 164.399 1395.3 Q158.589 1395.3 155.51 1390.72 Q152.454 1386.11 152.454 1377.38 Q152.454 1368.63 155.51 1364.05 Q158.589 1359.44 164.399 1359.44 Z" fill="#000000" fill-rule="nonzero" fill-opacity="1" /><path clip-path="url(#clip670)" d="M184.561 1388.75 L189.445 1388.75 L189.445 1394.63 L184.561 1394.63 L184.561 1388.75 Z" fill="#000000" fill-rule="nonzero" fill-opacity="1" /><path clip-path="url(#clip670)" d="M203.658 1390.69 L219.977 1390.69 L219.977 1394.63 L198.033 1394.63 L198.033 1390.69 Q200.695 1387.94 205.278 1383.31 Q209.885 1378.66 211.065 1377.31 Q213.311 1374.79 214.19 1373.06 Q215.093 1371.3 215.093 1369.61 Q215.093 1366.85 213.149 1365.12 Q211.227 1363.38 208.125 1363.38 Q205.926 1363.38 203.473 1364.14 Q201.042 1364.91 198.264 1366.46 L198.264 1361.74 Q201.088 1360.6 203.542 1360.02 Q205.996 1359.44 208.033 1359.44 Q213.403 1359.44 216.598 1362.13 Q219.792 1364.81 219.792 1369.31 Q219.792 1371.43 218.982 1373.36 Q218.195 1375.25 216.088 1377.85 Q215.51 1378.52 212.408 1381.74 Q209.306 1384.93 203.658 1390.69 Z" fill="#000000" fill-rule="nonzero" fill-opacity="1" /><path clip-path="url(#clip670)" d="M114.26 1144.86 L143.936 1144.86 L143.936 1148.79 L114.26 1148.79 L114.26 1144.86 Z" fill="#000000" fill-rule="nonzero" fill-opacity="1" /><path clip-path="url(#clip670)" d="M164.028 1130.2 Q160.417 1130.2 158.589 1133.77 Q156.783 1137.31 156.783 1144.44 Q156.783 1151.55 158.589 1155.11 Q160.417 1158.65 164.028 1158.65 Q167.663 1158.65 169.468 1155.11 Q171.297 1151.55 171.297 1144.44 Q171.297 1137.31 169.468 1133.77 Q167.663 1130.2 164.028 1130.2 M164.028 1126.5 Q169.839 1126.5 172.894 1131.11 Q175.973 1135.69 175.973 1144.44 Q175.973 1153.17 172.894 1157.77 Q169.839 1162.36 164.028 1162.36 Q158.218 1162.36 155.14 1157.77 Q152.084 1153.17 152.084 1144.44 Q152.084 1135.69 155.14 1131.11 Q158.218 1126.5 164.028 1126.5 Z" fill="#000000" fill-rule="nonzero" fill-opacity="1" /><path clip-path="url(#clip670)" d="M184.19 1155.81 L189.075 1155.81 L189.075 1161.69 L184.19 1161.69 L184.19 1155.81 Z" fill="#000000" fill-rule="nonzero" fill-opacity="1" /><path clip-path="url(#clip670)" d="M200.07 1157.75 L207.709 1157.75 L207.709 1131.38 L199.399 1133.05 L199.399 1128.79 L207.662 1127.13 L212.338 1127.13 L212.338 1157.75 L219.977 1157.75 L219.977 1161.69 L200.07 1161.69 L200.07 1157.75 Z" fill="#000000" fill-rule="nonzero" fill-opacity="1" /><path clip-path="url(#clip670)" d="M162.802 897.261 Q159.19 897.261 157.362 900.825 Q155.556 904.367 155.556 911.497 Q155.556 918.603 157.362 922.168 Q159.19 925.71 162.802 925.71 Q166.436 925.71 168.241 922.168 Q170.07 918.603 170.07 911.497 Q170.07 904.367 168.241 900.825 Q166.436 897.261 162.802 897.261 M162.802 893.557 Q168.612 893.557 171.667 898.163 Q174.746 902.747 174.746 911.497 Q174.746 920.223 171.667 924.83 Q168.612 929.413 162.802 929.413 Q156.991 929.413 153.913 924.83 Q150.857 920.223 150.857 911.497 Q150.857 902.747 153.913 898.163 Q156.991 893.557 162.802 893.557 Z" fill="#000000" fill-rule="nonzero" fill-opacity="1" /><path clip-path="url(#clip670)" d="M182.963 922.862 L187.848 922.862 L187.848 928.742 L182.963 928.742 L182.963 922.862 Z" fill="#000000" fill-rule="nonzero" fill-opacity="1" /><path clip-path="url(#clip670)" d="M208.033 897.261 Q204.422 897.261 202.593 900.825 Q200.787 904.367 200.787 911.497 Q200.787 918.603 202.593 922.168 Q204.422 925.71 208.033 925.71 Q211.667 925.71 213.473 922.168 Q215.301 918.603 215.301 911.497 Q215.301 904.367 213.473 900.825 Q211.667 897.261 208.033 897.261 M208.033 893.557 Q213.843 893.557 216.898 898.163 Q219.977 902.747 219.977 911.497 Q219.977 920.223 216.898 924.83 Q213.843 929.413 208.033 929.413 Q202.223 929.413 199.144 924.83 Q196.088 920.223 196.088 911.497 Q196.088 902.747 199.144 898.163 Q202.223 893.557 208.033 893.557 Z" fill="#000000" fill-rule="nonzero" fill-opacity="1" /><path clip-path="url(#clip670)" d="M164.028 664.317 Q160.417 664.317 158.589 667.882 Q156.783 671.423 156.783 678.553 Q156.783 685.659 158.589 689.224 Q160.417 692.766 164.028 692.766 Q167.663 692.766 169.468 689.224 Q171.297 685.659 171.297 678.553 Q171.297 671.423 169.468 667.882 Q167.663 664.317 164.028 664.317 M164.028 660.613 Q169.839 660.613 172.894 665.22 Q175.973 669.803 175.973 678.553 Q175.973 687.28 172.894 691.886 Q169.839 696.47 164.028 696.47 Q158.218 696.47 155.14 691.886 Q152.084 687.28 152.084 678.553 Q152.084 669.803 155.14 665.22 Q158.218 660.613 164.028 660.613 Z" fill="#000000" fill-rule="nonzero" fill-opacity="1" /><path clip-path="url(#clip670)" d="M184.19 689.919 L189.075 689.919 L189.075 695.798 L184.19 695.798 L184.19 689.919 Z" fill="#000000" fill-rule="nonzero" fill-opacity="1" /><path clip-path="url(#clip670)" d="M200.07 691.863 L207.709 691.863 L207.709 665.497 L199.399 667.164 L199.399 662.905 L207.662 661.238 L212.338 661.238 L212.338 691.863 L219.977 691.863 L219.977 695.798 L200.07 695.798 L200.07 691.863 Z" fill="#000000" fill-rule="nonzero" fill-opacity="1" /><path clip-path="url(#clip670)" d="M164.399 431.373 Q160.788 431.373 158.959 434.938 Q157.153 438.48 157.153 445.609 Q157.153 452.716 158.959 456.281 Q160.788 459.822 164.399 459.822 Q168.033 459.822 169.839 456.281 Q171.667 452.716 171.667 445.609 Q171.667 438.48 169.839 434.938 Q168.033 431.373 164.399 431.373 M164.399 427.67 Q170.209 427.67 173.264 432.276 Q176.343 436.859 176.343 445.609 Q176.343 454.336 173.264 458.943 Q170.209 463.526 164.399 463.526 Q158.589 463.526 155.51 458.943 Q152.454 454.336 152.454 445.609 Q152.454 436.859 155.51 432.276 Q158.589 427.67 164.399 427.67 Z" fill="#000000" fill-rule="nonzero" fill-opacity="1" /><path clip-path="url(#clip670)" d="M184.561 456.975 L189.445 456.975 L189.445 462.855 L184.561 462.855 L184.561 456.975 Z" fill="#000000" fill-rule="nonzero" fill-opacity="1" /><path clip-path="url(#clip670)" d="M203.658 458.919 L219.977 458.919 L219.977 462.855 L198.033 462.855 L198.033 458.919 Q200.695 456.165 205.278 451.535 Q209.885 446.882 211.065 445.54 Q213.311 443.017 214.19 441.281 Q215.093 439.521 215.093 437.832 Q215.093 435.077 213.149 433.341 Q211.227 431.605 208.125 431.605 Q205.926 431.605 203.473 432.369 Q201.042 433.133 198.264 434.683 L198.264 429.961 Q201.088 428.827 203.542 428.248 Q205.996 427.67 208.033 427.67 Q213.403 427.67 216.598 430.355 Q219.792 433.04 219.792 437.531 Q219.792 439.66 218.982 441.582 Q218.195 443.48 216.088 446.072 Q215.51 446.744 212.408 449.961 Q209.306 453.156 203.658 458.919 Z" fill="#000000" fill-rule="nonzero" fill-opacity="1" /><path clip-path="url(#clip670)" d="M163.45 198.43 Q159.839 198.43 158.01 201.994 Q156.204 205.536 156.204 212.666 Q156.204 219.772 158.01 223.337 Q159.839 226.879 163.45 226.879 Q167.084 226.879 168.889 223.337 Q170.718 219.772 170.718 212.666 Q170.718 205.536 168.889 201.994 Q167.084 198.43 163.45 198.43 M163.45 194.726 Q169.26 194.726 172.315 199.332 Q175.394 203.916 175.394 212.666 Q175.394 221.392 172.315 225.999 Q169.26 230.582 163.45 230.582 Q157.64 230.582 154.561 225.999 Q151.505 221.392 151.505 212.666 Q151.505 203.916 154.561 199.332 Q157.64 194.726 163.45 194.726 Z" fill="#000000" fill-rule="nonzero" fill-opacity="1" /><path clip-path="url(#clip670)" d="M183.612 224.031 L188.496 224.031 L188.496 229.911 L183.612 229.911 L183.612 224.031 Z" fill="#000000" fill-rule="nonzero" fill-opacity="1" /><path clip-path="url(#clip670)" d="M212.848 211.277 Q216.204 211.994 218.079 214.263 Q219.977 216.531 219.977 219.865 Q219.977 224.98 216.459 227.781 Q212.94 230.582 206.459 230.582 Q204.283 230.582 201.968 230.142 Q199.676 229.726 197.223 228.869 L197.223 224.355 Q199.167 225.49 201.482 226.068 Q203.797 226.647 206.32 226.647 Q210.718 226.647 213.01 224.911 Q215.324 223.175 215.324 219.865 Q215.324 216.809 213.172 215.096 Q211.042 213.36 207.223 213.36 L203.195 213.36 L203.195 209.518 L207.408 209.518 Q210.857 209.518 212.686 208.152 Q214.514 206.763 214.514 204.17 Q214.514 201.508 212.616 200.096 Q210.741 198.661 207.223 198.661 Q205.301 198.661 203.102 199.078 Q200.903 199.494 198.264 200.374 L198.264 196.207 Q200.926 195.467 203.241 195.096 Q205.579 194.726 207.639 194.726 Q212.963 194.726 216.065 197.156 Q219.167 199.564 219.167 203.684 Q219.167 206.555 217.523 208.545 Q215.88 210.513 212.848 211.277 Z" fill="#000000" fill-rule="nonzero" fill-opacity="1" /><path clip-path="url(#clip670)" d="M16.4842 957.947 L16.4842 948.367 L48.8219 936.24 L16.4842 924.05 L16.4842 914.47 L64.0042 914.47 L64.0042 920.74 L22.277 920.74 L54.8694 932.994 L54.8694 939.455 L22.277 951.709 L64.0042 951.709 L64.0042 957.947 L16.4842 957.947 Z" fill="#000000" fill-rule="nonzero" fill-opacity="1" /><path clip-path="url(#clip670)" d="M44.7161 871.469 L47.5806 871.469 L47.5806 898.396 Q53.6281 898.014 56.8109 894.768 Q59.9619 891.489 59.9619 885.665 Q59.9619 882.291 59.1344 879.14 Q58.3069 875.957 56.6518 872.838 L62.1899 872.838 Q63.5267 875.989 64.227 879.299 Q64.9272 882.609 64.9272 886.015 Q64.9272 894.545 59.9619 899.542 Q54.9967 904.507 46.5303 904.507 Q37.7774 904.507 32.6531 899.797 Q27.4968 895.054 27.4968 887.033 Q27.4968 879.84 32.1438 875.671 Q36.7589 871.469 44.7161 871.469 M42.9973 877.326 Q38.1912 877.389 35.3266 880.031 Q32.4621 882.641 32.4621 886.97 Q32.4621 891.871 35.2312 894.831 Q38.0002 897.76 43.0292 898.205 L42.9973 877.326 Z" fill="#000000" fill-rule="nonzero" fill-opacity="1" /><path clip-path="url(#clip670)" d="M46.0847 845.656 Q46.0847 852.754 47.7079 855.491 Q49.3312 858.229 53.2461 858.229 Q56.3653 858.229 58.2114 856.192 Q60.0256 854.123 60.0256 850.59 Q60.0256 845.72 56.5881 842.792 Q53.1188 839.832 47.3897 839.832 L46.0847 839.832 L46.0847 845.656 M43.6657 833.975 L64.0042 833.975 L64.0042 839.832 L58.5933 839.832 Q61.8398 841.837 63.3994 844.829 Q64.9272 847.821 64.9272 852.149 Q64.9272 857.624 61.8716 860.87 Q58.7843 864.085 53.6281 864.085 Q47.6125 864.085 44.5569 860.075 Q41.5014 856.032 41.5014 848.043 L41.5014 839.832 L40.9285 839.832 Q36.8862 839.832 34.6901 842.505 Q32.4621 845.147 32.4621 849.953 Q32.4621 853.009 33.1941 855.905 Q33.9262 858.802 35.3903 861.475 L29.9795 861.475 Q28.7381 858.26 28.1334 855.237 Q27.4968 852.213 27.4968 849.348 Q27.4968 841.614 31.5072 837.795 Q35.5176 833.975 43.6657 833.975 Z" fill="#000000" fill-rule="nonzero" fill-opacity="1" /><path clip-path="url(#clip670)" d="M42.4881 792.28 L64.0042 792.28 L64.0042 798.136 L42.679 798.136 Q37.6183 798.136 35.1038 800.11 Q32.5894 802.083 32.5894 806.03 Q32.5894 810.772 35.6131 813.51 Q38.6368 816.247 43.8567 816.247 L64.0042 816.247 L64.0042 822.135 L28.3562 822.135 L28.3562 816.247 L33.8944 816.247 Q30.6797 814.146 29.0883 811.313 Q27.4968 808.449 27.4968 804.725 Q27.4968 798.582 31.3163 795.431 Q35.1038 792.28 42.4881 792.28 Z" fill="#000000" fill-rule="nonzero" fill-opacity="1" /><path clip-path="url(#clip670)" d="M16.4842 759.624 L16.4842 753.194 L64.0042 753.194 L64.0042 759.624 L16.4842 759.624 Z" fill="#000000" fill-rule="nonzero" fill-opacity="1" /><path clip-path="url(#clip670)" d="M42.4881 711.022 L64.0042 711.022 L64.0042 716.878 L42.679 716.878 Q37.6183 716.878 35.1038 718.851 Q32.5894 720.825 32.5894 724.772 Q32.5894 729.514 35.6131 732.251 Q38.6368 734.989 43.8567 734.989 L64.0042 734.989 L64.0042 740.877 L28.3562 740.877 L28.3562 734.989 L33.8944 734.989 Q30.6797 732.888 29.0883 730.055 Q27.4968 727.191 27.4968 723.467 Q27.4968 717.324 31.3163 714.173 Q35.1038 711.022 42.4881 711.022 Z" fill="#000000" fill-rule="nonzero" fill-opacity="1" /><path clip-path="url(#clip670)" d="M33.7671 675.883 L14.479 675.883 L14.479 670.026 L64.0042 670.026 L64.0042 675.883 L58.657 675.883 Q61.8398 677.729 63.3994 680.562 Q64.9272 683.363 64.9272 687.309 Q64.9272 693.771 59.771 697.845 Q54.6147 701.887 46.212 701.887 Q37.8093 701.887 32.6531 697.845 Q27.4968 693.771 27.4968 687.309 Q27.4968 683.363 29.0564 680.562 Q30.5842 677.729 33.7671 675.883 M46.212 695.839 Q52.6732 695.839 56.3653 693.198 Q60.0256 690.524 60.0256 685.877 Q60.0256 681.23 56.3653 678.557 Q52.6732 675.883 46.212 675.883 Q39.7508 675.883 36.0905 678.557 Q32.3984 681.23 32.3984 685.877 Q32.3984 690.524 36.0905 693.198 Q39.7508 695.839 46.212 695.839 Z" fill="#000000" fill-rule="nonzero" fill-opacity="1" /><path clip-path="url(#clip670)" d="M44.7161 627.472 L47.5806 627.472 L47.5806 654.399 Q53.6281 654.017 56.8109 650.77 Q59.9619 647.492 59.9619 641.667 Q59.9619 638.293 59.1344 635.142 Q58.3069 631.96 56.6518 628.84 L62.1899 628.84 Q63.5267 631.991 64.227 635.302 Q64.9272 638.612 64.9272 642.017 Q64.9272 650.547 59.9619 655.544 Q54.9967 660.51 46.5303 660.51 Q37.7774 660.51 32.6531 655.799 Q27.4968 651.057 27.4968 643.036 Q27.4968 635.843 32.1438 631.673 Q36.7589 627.472 44.7161 627.472 M42.9973 633.328 Q38.1912 633.392 35.3266 636.034 Q32.4621 638.644 32.4621 642.972 Q32.4621 647.874 35.2312 650.834 Q38.0002 653.762 43.0292 654.208 L42.9973 633.328 Z" fill="#000000" fill-rule="nonzero" fill-opacity="1" /><path clip-path="url(#clip670)" d="M28.3562 589.373 L45.7028 602.264 L64.0042 588.705 L64.0042 595.611 L49.9996 605.987 L64.0042 616.364 L64.0042 623.27 L45.3526 609.425 L28.3562 622.093 L28.3562 615.186 L41.0558 605.733 L28.3562 596.28 L28.3562 589.373 Z" fill="#000000" fill-rule="nonzero" fill-opacity="1" /><path clip-path="url(#clip670)" d="M952.87 12.096 L963.888 12.096 L990.705 62.6918 L990.705 12.096 L998.645 12.096 L998.645 72.576 L987.626 72.576 L960.809 21.9802 L960.809 72.576 L952.87 72.576 L952.87 12.096 Z" fill="#000000" fill-rule="nonzero" fill-opacity="1" /><path clip-path="url(#clip670)" d="M1013.84 54.671 L1013.84 27.2059 L1021.29 27.2059 L1021.29 54.3874 Q1021.29 60.8284 1023.8 64.0691 Q1026.31 67.2693 1031.34 67.2693 Q1037.37 67.2693 1040.86 63.421 Q1044.38 59.5726 1044.38 52.9291 L1044.38 27.2059 L1051.83 27.2059 L1051.83 72.576 L1044.38 72.576 L1044.38 65.6084 Q1041.67 69.7404 1038.06 71.7658 Q1034.5 73.7508 1029.76 73.7508 Q1021.94 73.7508 1017.89 68.8897 Q1013.84 64.0286 1013.84 54.671 M1032.59 26.1121 L1032.59 26.1121 Z" fill="#000000" fill-rule="nonzero" fill-opacity="1" /><path clip-path="url(#clip670)" d="M1102.51 35.9153 Q1105.31 30.8922 1109.19 28.5022 Q1113.08 26.1121 1118.35 26.1121 Q1125.44 26.1121 1129.29 31.0947 Q1133.13 36.0368 1133.13 45.1919 L1133.13 72.576 L1125.64 72.576 L1125.64 45.4349 Q1125.64 38.913 1123.33 35.7533 Q1121.02 32.5936 1116.28 32.5936 Q1110.49 32.5936 1107.13 36.4419 Q1103.77 40.2903 1103.77 46.9338 L1103.77 72.576 L1096.27 72.576 L1096.27 45.4349 Q1096.27 38.8725 1093.96 35.7533 Q1091.65 32.5936 1086.83 32.5936 Q1081.12 32.5936 1077.76 36.4824 Q1074.4 40.3308 1074.4 46.9338 L1074.4 72.576 L1066.9 72.576 L1066.9 27.2059 L1074.4 27.2059 L1074.4 34.2544 Q1076.95 30.082 1080.51 28.0971 Q1084.08 26.1121 1088.98 26.1121 Q1093.92 26.1121 1097.37 28.6237 Q1100.85 31.1352 1102.51 35.9153 Z" fill="#000000" fill-rule="nonzero" fill-opacity="1" /><path clip-path="url(#clip670)" d="M1180.57 49.9314 Q1180.57 41.7081 1177.17 37.0496 Q1173.81 32.3505 1167.89 32.3505 Q1161.98 32.3505 1158.57 37.0496 Q1155.21 41.7081 1155.21 49.9314 Q1155.21 58.1548 1158.57 62.8538 Q1161.98 67.5124 1167.89 67.5124 Q1173.81 67.5124 1177.17 62.8538 Q1180.57 58.1548 1180.57 49.9314 M1155.21 34.0924 Q1157.56 30.0415 1161.13 28.0971 Q1164.73 26.1121 1169.71 26.1121 Q1177.98 26.1121 1183.12 32.6746 Q1188.31 39.2371 1188.31 49.9314 Q1188.31 60.6258 1183.12 67.1883 Q1177.98 73.7508 1169.71 73.7508 Q1164.73 73.7508 1161.13 71.8063 Q1157.56 69.8214 1155.21 65.7705 L1155.21 72.576 L1147.72 72.576 L1147.72 9.54393 L1155.21 9.54393 L1155.21 34.0924 Z" fill="#000000" fill-rule="nonzero" fill-opacity="1" /><path clip-path="url(#clip670)" d="M1239.47 48.0275 L1239.47 51.6733 L1205.2 51.6733 Q1205.69 59.3701 1209.82 63.421 Q1213.99 67.4314 1221.4 67.4314 Q1225.7 67.4314 1229.71 66.3781 Q1233.76 65.3249 1237.73 63.2184 L1237.73 70.267 Q1233.72 71.9684 1229.51 72.8596 Q1225.29 73.7508 1220.96 73.7508 Q1210.1 73.7508 1203.74 67.4314 Q1197.42 61.1119 1197.42 50.3365 Q1197.42 39.1965 1203.42 32.6746 Q1209.45 26.1121 1219.66 26.1121 Q1228.82 26.1121 1234.12 32.0264 Q1239.47 37.9003 1239.47 48.0275 M1232.02 45.84 Q1231.94 39.7232 1228.57 36.0774 Q1225.25 32.4315 1219.74 32.4315 Q1213.5 32.4315 1209.74 35.9558 Q1206.01 39.4801 1205.44 45.8805 L1232.02 45.84 Z" fill="#000000" fill-rule="nonzero" fill-opacity="1" /><path clip-path="url(#clip670)" d="M1278 34.1734 Q1276.74 33.4443 1275.24 33.1202 Q1273.78 32.7556 1272 32.7556 Q1265.68 32.7556 1262.28 36.8875 Q1258.92 40.9789 1258.92 48.6757 L1258.92 72.576 L1251.42 72.576 L1251.42 27.2059 L1258.92 27.2059 L1258.92 34.2544 Q1261.26 30.1225 1265.03 28.1376 Q1268.8 26.1121 1274.19 26.1121 Q1274.96 26.1121 1275.89 26.2337 Q1276.82 26.3147 1277.95 26.5172 L1278 34.1734 Z" fill="#000000" fill-rule="nonzero" fill-opacity="1" /><path clip-path="url(#clip670)" d="M1329.77 32.4315 Q1323.77 32.4315 1320.29 37.1306 Q1316.8 41.7891 1316.8 49.9314 Q1316.8 58.0738 1320.25 62.7728 Q1323.73 67.4314 1329.77 67.4314 Q1335.72 67.4314 1339.2 62.7323 Q1342.69 58.0333 1342.69 49.9314 Q1342.69 41.8701 1339.2 37.1711 Q1335.72 32.4315 1329.77 32.4315 M1329.77 26.1121 Q1339.49 26.1121 1345.04 32.4315 Q1350.59 38.7509 1350.59 49.9314 Q1350.59 61.0714 1345.04 67.4314 Q1339.49 73.7508 1329.77 73.7508 Q1320 73.7508 1314.45 67.4314 Q1308.94 61.0714 1308.94 49.9314 Q1308.94 38.7509 1314.45 32.4315 Q1320 26.1121 1329.77 26.1121 Z" fill="#000000" fill-rule="nonzero" fill-opacity="1" /><path clip-path="url(#clip670)" d="M1385.91 9.54393 L1385.91 15.7418 L1378.78 15.7418 Q1374.77 15.7418 1373.19 17.3622 Q1371.65 18.9825 1371.65 23.1955 L1371.65 27.2059 L1383.93 27.2059 L1383.93 32.9987 L1371.65 32.9987 L1371.65 72.576 L1364.16 72.576 L1364.16 32.9987 L1357.03 32.9987 L1357.03 27.2059 L1364.16 27.2059 L1364.16 24.0462 Q1364.16 16.471 1367.68 13.0277 Q1371.21 9.54393 1378.86 9.54393 L1385.91 9.54393 Z" fill="#000000" fill-rule="nonzero" fill-opacity="1" /><path clip-path="url(#clip670)" d="M1427.03 18.8205 L1427.03 41.5461 L1437.32 41.5461 Q1443.03 41.5461 1446.15 38.5889 Q1449.27 35.6318 1449.27 30.163 Q1449.27 24.7348 1446.15 21.7777 Q1443.03 18.8205 1437.32 18.8205 L1427.03 18.8205 M1418.85 12.096 L1437.32 12.096 Q1447.48 12.096 1452.67 16.714 Q1457.9 21.2916 1457.9 30.163 Q1457.9 39.1155 1452.67 43.6931 Q1447.48 48.2706 1437.32 48.2706 L1427.03 48.2706 L1427.03 72.576 L1418.85 72.576 L1418.85 12.096 Z" fill="#000000" fill-rule="nonzero" fill-opacity="1" /><path clip-path="url(#clip670)" d="M1483.17 32.4315 Q1477.18 32.4315 1473.69 37.1306 Q1470.21 41.7891 1470.21 49.9314 Q1470.21 58.0738 1473.65 62.7728 Q1477.14 67.4314 1483.17 67.4314 Q1489.13 67.4314 1492.61 62.7323 Q1496.1 58.0333 1496.1 49.9314 Q1496.1 41.8701 1492.61 37.1711 Q1489.13 32.4315 1483.17 32.4315 M1483.17 26.1121 Q1492.9 26.1121 1498.45 32.4315 Q1504 38.7509 1504 49.9314 Q1504 61.0714 1498.45 67.4314 Q1492.9 73.7508 1483.17 73.7508 Q1473.41 73.7508 1467.86 67.4314 Q1462.35 61.0714 1462.35 49.9314 Q1462.35 38.7509 1467.86 32.4315 Q1473.41 26.1121 1483.17 26.1121 Z" fill="#000000" fill-rule="nonzero" fill-opacity="1" /><path clip-path="url(#clip670)" d="M1516.35 27.2059 L1523.8 27.2059 L1523.8 72.576 L1516.35 72.576 L1516.35 27.2059 M1516.35 9.54393 L1523.8 9.54393 L1523.8 18.9825 L1516.35 18.9825 L1516.35 9.54393 Z" fill="#000000" fill-rule="nonzero" fill-opacity="1" /><path clip-path="url(#clip670)" d="M1577.11 45.1919 L1577.11 72.576 L1569.66 72.576 L1569.66 45.4349 Q1569.66 38.994 1567.15 35.7938 Q1564.64 32.5936 1559.61 32.5936 Q1553.58 32.5936 1550.09 36.4419 Q1546.61 40.2903 1546.61 46.9338 L1546.61 72.576 L1539.12 72.576 L1539.12 27.2059 L1546.61 27.2059 L1546.61 34.2544 Q1549.28 30.163 1552.89 28.1376 Q1556.54 26.1121 1561.27 26.1121 Q1569.09 26.1121 1573.1 30.9732 Q1577.11 35.7938 1577.11 45.1919 Z" fill="#000000" fill-rule="nonzero" fill-opacity="1" /><path clip-path="url(#clip670)" d="M1599.35 14.324 L1599.35 27.2059 L1614.71 27.2059 L1614.71 32.9987 L1599.35 32.9987 L1599.35 57.6282 Q1599.35 63.1779 1600.85 64.7578 Q1602.39 66.3376 1607.05 66.3376 L1614.71 66.3376 L1614.71 72.576 L1607.05 72.576 Q1598.42 72.576 1595.14 69.3758 Q1591.86 66.1351 1591.86 57.6282 L1591.86 32.9987 L1586.39 32.9987 L1586.39 27.2059 L1591.86 27.2059 L1591.86 14.324 L1599.35 14.324 Z" fill="#000000" fill-rule="nonzero" fill-opacity="1" /><path clip-path="url(#clip670)" d="M1653.43 28.5427 L1653.43 35.5912 Q1650.27 33.9709 1646.87 33.1607 Q1643.47 32.3505 1639.82 32.3505 Q1634.27 32.3505 1631.48 34.0519 Q1628.72 35.7533 1628.72 39.156 Q1628.72 41.7486 1630.71 43.2475 Q1632.69 44.7058 1638.69 46.0426 L1641.24 46.6097 Q1649.18 48.3111 1652.5 51.4303 Q1655.86 54.509 1655.86 60.0587 Q1655.86 66.3781 1650.84 70.0644 Q1645.86 73.7508 1637.11 73.7508 Q1633.46 73.7508 1629.49 73.0216 Q1625.56 72.3329 1621.19 70.9151 L1621.19 63.2184 Q1625.32 65.3654 1629.33 66.4591 Q1633.34 67.5124 1637.27 67.5124 Q1642.54 67.5124 1645.37 65.73 Q1648.21 63.9071 1648.21 60.6258 Q1648.21 57.5877 1646.14 55.9673 Q1644.12 54.3469 1637.19 52.8481 L1634.6 52.2405 Q1627.67 50.7821 1624.59 47.7845 Q1621.51 44.7463 1621.51 39.4801 Q1621.51 33.0797 1626.05 29.5959 Q1630.59 26.1121 1638.93 26.1121 Q1643.06 26.1121 1646.71 26.7198 Q1650.35 27.3274 1653.43 28.5427 Z" fill="#000000" fill-rule="nonzero" fill-opacity="1" /><polyline clip-path="url(#clip672)" style="stroke:#50ad9f; stroke-linecap:round; stroke-linejoin:round; stroke-width:8; stroke-opacity:1; fill:none" points="315.32,160.256 346.718,224.204 409.515,268.117 535.108,288.638 786.295,306.505 1288.67,310.6 2293.41,310.742 "/>
<circle clip-path="url(#clip672)" cx="315.32" cy="160.256" r="25.2" fill="#50ad9f" fill-rule="evenodd" fill-opacity="1" stroke="#000000" stroke-opacity="1" stroke-width="3.2"/>
<circle clip-path="url(#clip672)" cx="346.718" cy="224.204" r="25.2" fill="#50ad9f" fill-rule="evenodd" fill-opacity="1" stroke="#000000" stroke-opacity="1" stroke-width="3.2"/>
<circle clip-path="url(#clip672)" cx="409.515" cy="268.117" r="25.2" fill="#50ad9f" fill-rule="evenodd" fill-opacity="1" stroke="#000000" stroke-opacity="1" stroke-width="3.2"/>
<circle clip-path="url(#clip672)" cx="535.108" cy="288.638" r="25.2" fill="#50ad9f" fill-rule="evenodd" fill-opacity="1" stroke="#000000" stroke-opacity="1" stroke-width="3.2"/>
<circle clip-path="url(#clip672)" cx="786.295" cy="306.505" r="25.2" fill="#50ad9f" fill-rule="evenodd" fill-opacity="1" stroke="#000000" stroke-opacity="1" stroke-width="3.2"/>
<circle clip-path="url(#clip672)" cx="1288.67" cy="310.6" r="25.2" fill="#50ad9f" fill-rule="evenodd" fill-opacity="1" stroke="#000000" stroke-opacity="1" stroke-width="3.2"/>
<circle clip-path="url(#clip672)" cx="2293.41" cy="310.742" r="25.2" fill="#50ad9f" fill-rule="evenodd" fill-opacity="1" stroke="#000000" stroke-opacity="1" stroke-width="3.2"/>
<polyline clip-path="url(#clip672)" style="stroke:#0000a2; stroke-linecap:round; stroke-linejoin:round; stroke-width:8; stroke-opacity:1; fill:none" points="315.32,1277.54 346.718,1274.27 409.515,1278.21 535.108,1278.3 786.295,1278.8 1288.67,1281.57 2293.41,1281.9 "/>
<path clip-path="url(#clip672)" d="M295.32 1257.54 L295.32 1297.54 L335.32 1297.54 L335.32 1257.54 L295.32 1257.54 Z" fill="#0000a2" fill-rule="evenodd" fill-opacity="1" stroke="#000000" stroke-opacity="1" stroke-width="3.2"/>
<path clip-path="url(#clip672)" d="M326.718 1254.27 L326.718 1294.27 L366.718 1294.27 L366.718 1254.27 L326.718 1254.27 Z" fill="#0000a2" fill-rule="evenodd" fill-opacity="1" stroke="#000000" stroke-opacity="1" stroke-width="3.2"/>
<path clip-path="url(#clip672)" d="M389.515 1258.21 L389.515 1298.21 L429.515 1298.21 L429.515 1258.21 L389.515 1258.21 Z" fill="#0000a2" fill-rule="evenodd" fill-opacity="1" stroke="#000000" stroke-opacity="1" stroke-width="3.2"/>
<path clip-path="url(#clip672)" d="M515.108 1258.3 L515.108 1298.3 L555.108 1298.3 L555.108 1258.3 L515.108 1258.3 Z" fill="#0000a2" fill-rule="evenodd" fill-opacity="1" stroke="#000000" stroke-opacity="1" stroke-width="3.2"/>
<path clip-path="url(#clip672)" d="M766.295 1258.8 L766.295 1298.8 L806.295 1298.8 L806.295 1258.8 L766.295 1258.8 Z" fill="#0000a2" fill-rule="evenodd" fill-opacity="1" stroke="#000000" stroke-opacity="1" stroke-width="3.2"/>
<path clip-path="url(#clip672)" d="M1268.67 1261.57 L1268.67 1301.57 L1308.67 1301.57 L1308.67 1261.57 L1268.67 1261.57 Z" fill="#0000a2" fill-rule="evenodd" fill-opacity="1" stroke="#000000" stroke-opacity="1" stroke-width="3.2"/>
<path clip-path="url(#clip672)" d="M2273.41 1261.9 L2273.41 1301.9 L2313.41 1301.9 L2313.41 1261.9 L2273.41 1261.9 Z" fill="#0000a2" fill-rule="evenodd" fill-opacity="1" stroke="#000000" stroke-opacity="1" stroke-width="3.2"/>
<polyline clip-path="url(#clip672)" style="stroke:#bc272d; stroke-linecap:round; stroke-linejoin:round; stroke-width:8; stroke-opacity:1; fill:none" points="315.32,1386.4 346.718,1380.84 409.515,1381.44 535.108,1379.51 786.295,1379.69 1288.67,1380.19 2293.41,1378.82 "/>
<path clip-path="url(#clip672)" d="M315.32 1358.4 L308.74 1377.32 L288.692 1377.74 L304.68 1389.87 L298.856 1409.05 L315.32 1397.6 L331.784 1409.05 L325.96 1389.87 L341.948 1377.74 L321.9 1377.32 L315.32 1358.4 Z" fill="#bc272d" fill-rule="evenodd" fill-opacity="1" stroke="#000000" stroke-opacity="1" stroke-width="3.2"/>
<path clip-path="url(#clip672)" d="M346.718 1352.84 L340.138 1371.77 L320.09 1372.19 L336.078 1384.31 L330.254 1403.49 L346.718 1392.04 L363.182 1403.49 L357.358 1384.31 L373.346 1372.19 L353.298 1371.77 L346.718 1352.84 Z" fill="#bc272d" fill-rule="evenodd" fill-opacity="1" stroke="#000000" stroke-opacity="1" stroke-width="3.2"/>
<path clip-path="url(#clip672)" d="M409.515 1353.44 L402.935 1372.36 L382.887 1372.78 L398.875 1384.91 L393.051 1404.09 L409.515 1392.64 L425.979 1404.09 L420.155 1384.91 L436.143 1372.78 L416.095 1372.36 L409.515 1353.44 Z" fill="#bc272d" fill-rule="evenodd" fill-opacity="1" stroke="#000000" stroke-opacity="1" stroke-width="3.2"/>
<path clip-path="url(#clip672)" d="M535.108 1351.51 L528.528 1370.44 L508.48 1370.86 L524.468 1382.98 L518.644 1402.16 L535.108 1390.71 L551.572 1402.16 L545.748 1382.98 L561.736 1370.86 L541.688 1370.44 L535.108 1351.51 Z" fill="#bc272d" fill-rule="evenodd" fill-opacity="1" stroke="#000000" stroke-opacity="1" stroke-width="3.2"/>
<path clip-path="url(#clip672)" d="M786.295 1351.69 L779.715 1370.61 L759.667 1371.03 L775.655 1383.16 L769.831 1402.34 L786.295 1390.89 L802.759 1402.34 L796.935 1383.16 L812.923 1371.03 L792.875 1370.61 L786.295 1351.69 Z" fill="#bc272d" fill-rule="evenodd" fill-opacity="1" stroke="#000000" stroke-opacity="1" stroke-width="3.2"/>
<path clip-path="url(#clip672)" d="M1288.67 1352.19 L1282.09 1371.12 L1262.04 1371.54 L1278.03 1383.66 L1272.2 1402.84 L1288.67 1391.39 L1305.13 1402.84 L1299.31 1383.66 L1315.3 1371.54 L1295.25 1371.12 L1288.67 1352.19 Z" fill="#bc272d" fill-rule="evenodd" fill-opacity="1" stroke="#000000" stroke-opacity="1" stroke-width="3.2"/>
<path clip-path="url(#clip672)" d="M2293.41 1350.82 L2286.83 1369.75 L2266.79 1370.17 L2282.77 1382.3 L2276.95 1401.48 L2293.41 1390.02 L2309.88 1401.48 L2304.05 1382.3 L2320.04 1370.17 L2299.99 1369.75 L2293.41 1350.82 Z" fill="#bc272d" fill-rule="evenodd" fill-opacity="1" stroke="#000000" stroke-opacity="1" stroke-width="3.2"/>
<polyline clip-path="url(#clip672)" style="stroke:#e9c716; stroke-linecap:round; stroke-linejoin:round; stroke-width:8; stroke-opacity:1; fill:none" points="315.32,340.527 346.718,305.19 409.515,291.367 535.108,284.049 786.295,280.97 1288.67,279.089 2293.41,278.029 "/>
<path clip-path="url(#clip672)" d="M315.32 312.527 L287.32 368.527 L343.32 368.527 L315.32 312.527 Z" fill="#e9c716" fill-rule="evenodd" fill-opacity="1" stroke="#000000" stroke-opacity="1" stroke-width="3.2"/>
<path clip-path="url(#clip672)" d="M346.718 277.19 L318.718 333.19 L374.718 333.19 L346.718 277.19 Z" fill="#e9c716" fill-rule="evenodd" fill-opacity="1" stroke="#000000" stroke-opacity="1" stroke-width="3.2"/>
<path clip-path="url(#clip672)" d="M409.515 263.367 L381.515 319.367 L437.515 319.367 L409.515 263.367 Z" fill="#e9c716" fill-rule="evenodd" fill-opacity="1" stroke="#000000" stroke-opacity="1" stroke-width="3.2"/>
<path clip-path="url(#clip672)" d="M535.108 256.049 L507.108 312.049 L563.108 312.049 L535.108 256.049 Z" fill="#e9c716" fill-rule="evenodd" fill-opacity="1" stroke="#000000" stroke-opacity="1" stroke-width="3.2"/>
<path clip-path="url(#clip672)" d="M786.295 252.97 L758.295 308.97 L814.295 308.97 L786.295 252.97 Z" fill="#e9c716" fill-rule="evenodd" fill-opacity="1" stroke="#000000" stroke-opacity="1" stroke-width="3.2"/>
<path clip-path="url(#clip672)" d="M1288.67 251.089 L1260.67 307.089 L1316.67 307.089 L1288.67 251.089 Z" fill="#e9c716" fill-rule="evenodd" fill-opacity="1" stroke="#000000" stroke-opacity="1" stroke-width="3.2"/>
<path clip-path="url(#clip672)" d="M2293.41 250.029 L2265.41 306.029 L2321.41 306.029 L2293.41 250.029 Z" fill="#e9c716" fill-rule="evenodd" fill-opacity="1" stroke="#000000" stroke-opacity="1" stroke-width="3.2"/>
<path clip-path="url(#clip670)" d="M1960.96 920.33 L2282.86 920.33 L2282.86 661.13 L1960.96 661.13  Z" fill="#ffffff" fill-rule="evenodd" fill-opacity="1"/>
<polyline clip-path="url(#clip670)" style="stroke:#000000; stroke-linecap:round; stroke-linejoin:round; stroke-width:4; stroke-opacity:1; fill:none" points="1960.96,920.33 2282.86,920.33 2282.86,661.13 1960.96,661.13 1960.96,920.33 "/>
<polyline clip-path="url(#clip670)" style="stroke:#50ad9f; stroke-linecap:round; stroke-linejoin:round; stroke-width:8; stroke-opacity:1; fill:none" points="1984.26,712.97 2124.05,712.97 "/>
<circle clip-path="url(#clip670)" cx="2054.15" cy="712.97" r="19.4146" fill="#50ad9f" fill-rule="evenodd" fill-opacity="1" stroke="#000000" stroke-opacity="1" stroke-width="2.73067"/>
<path clip-path="url(#clip670)" d="M2147.34 695.69 L2167.21 695.69 L2167.21 699.625 L2152.02 699.625 L2152.02 709.81 L2165.72 709.81 L2165.72 713.745 L2152.02 713.745 L2152.02 730.25 L2147.34 730.25 L2147.34 695.69 Z" fill="#000000" fill-rule="nonzero" fill-opacity="1" /><path clip-path="url(#clip670)" d="M2170.98 704.324 L2175.24 704.324 L2175.24 730.25 L2170.98 730.25 L2170.98 704.324 M2170.98 694.231 L2175.24 694.231 L2175.24 699.625 L2170.98 699.625 L2170.98 694.231 Z" fill="#000000" fill-rule="nonzero" fill-opacity="1" /><path clip-path="url(#clip670)" d="M2188.36 696.963 L2188.36 704.324 L2197.14 704.324 L2197.14 707.634 L2188.36 707.634 L2188.36 721.708 Q2188.36 724.879 2189.22 725.782 Q2190.1 726.685 2192.76 726.685 L2197.14 726.685 L2197.14 730.25 L2192.76 730.25 Q2187.83 730.25 2185.96 728.421 Q2184.08 726.569 2184.08 721.708 L2184.08 707.634 L2180.96 707.634 L2180.96 704.324 L2184.08 704.324 L2184.08 696.963 L2188.36 696.963 Z" fill="#000000" fill-rule="nonzero" fill-opacity="1" /><polyline clip-path="url(#clip670)" style="stroke:#0000a2; stroke-linecap:round; stroke-linejoin:round; stroke-width:8; stroke-opacity:1; fill:none" points="1984.26,764.81 2124.05,764.81 "/>
<path clip-path="url(#clip670)" d="M2032.58 743.238 L2032.58 786.381 L2075.73 786.381 L2075.73 743.238 L2032.58 743.238 Z" fill="#0000a2" fill-rule="evenodd" fill-opacity="1" stroke="#000000" stroke-opacity="1" stroke-width="3.72364"/>
<path clip-path="url(#clip670)" d="M2169.59 748.664 L2169.59 753.224 Q2166.93 751.951 2164.57 751.326 Q2162.21 750.701 2160.01 750.701 Q2156.19 750.701 2154.1 752.182 Q2152.04 753.664 2152.04 756.395 Q2152.04 758.687 2153.41 759.867 Q2154.8 761.025 2158.64 761.742 L2161.46 762.321 Q2166.7 763.317 2169.17 765.84 Q2171.67 768.34 2171.67 772.553 Q2171.67 777.576 2168.29 780.168 Q2164.94 782.761 2158.43 782.761 Q2155.98 782.761 2153.2 782.205 Q2150.45 781.65 2147.48 780.562 L2147.48 775.747 Q2150.33 777.344 2153.06 778.154 Q2155.79 778.965 2158.43 778.965 Q2162.44 778.965 2164.61 777.391 Q2166.79 775.816 2166.79 772.9 Q2166.79 770.354 2165.21 768.918 Q2163.66 767.483 2160.1 766.766 L2157.25 766.21 Q2152.02 765.168 2149.68 762.946 Q2147.34 760.724 2147.34 756.766 Q2147.34 752.182 2150.56 749.543 Q2153.8 746.905 2159.47 746.905 Q2161.9 746.905 2164.43 747.344 Q2166.95 747.784 2169.59 748.664 Z" fill="#000000" fill-rule="nonzero" fill-opacity="1" /><path clip-path="url(#clip670)" d="M2189.57 784.497 Q2187.76 789.127 2186.05 790.539 Q2184.33 791.951 2181.46 791.951 L2178.06 791.951 L2178.06 788.386 L2180.56 788.386 Q2182.32 788.386 2183.29 787.553 Q2184.27 786.719 2185.45 783.617 L2186.21 781.673 L2175.72 756.164 L2180.24 756.164 L2188.34 776.441 L2196.44 756.164 L2200.95 756.164 L2189.57 784.497 Z" fill="#000000" fill-rule="nonzero" fill-opacity="1" /><path clip-path="url(#clip670)" d="M2227.02 761.141 Q2228.62 758.27 2230.84 756.905 Q2233.06 755.539 2236.07 755.539 Q2240.12 755.539 2242.32 758.386 Q2244.52 761.21 2244.52 766.442 L2244.52 782.09 L2240.24 782.09 L2240.24 766.58 Q2240.24 762.854 2238.92 761.048 Q2237.6 759.242 2234.89 759.242 Q2231.58 759.242 2229.66 761.442 Q2227.74 763.641 2227.74 767.437 L2227.74 782.09 L2223.45 782.09 L2223.45 766.58 Q2223.45 762.83 2222.14 761.048 Q2220.82 759.242 2218.06 759.242 Q2214.8 759.242 2212.88 761.465 Q2210.95 763.664 2210.95 767.437 L2210.95 782.09 L2206.67 782.09 L2206.67 756.164 L2210.95 756.164 L2210.95 760.192 Q2212.41 757.807 2214.45 756.673 Q2216.49 755.539 2219.29 755.539 Q2222.11 755.539 2224.08 756.974 Q2226.07 758.409 2227.02 761.141 Z" fill="#000000" fill-rule="nonzero" fill-opacity="1" /><polyline clip-path="url(#clip670)" style="stroke:#bc272d; stroke-linecap:round; stroke-linejoin:round; stroke-width:8; stroke-opacity:1; fill:none" points="1984.26,816.65 2124.05,816.65 "/>
<path clip-path="url(#clip670)" d="M2054.15 795.078 L2049.08 809.66 L2033.64 809.984 L2045.96 819.324 L2041.47 834.101 L2054.15 825.278 L2066.84 834.101 L2062.35 819.324 L2074.67 809.984 L2059.22 809.66 L2054.15 795.078 Z" fill="#bc272d" fill-rule="evenodd" fill-opacity="1" stroke="#000000" stroke-opacity="1" stroke-width="2.73067"/>
<path clip-path="url(#clip670)" d="M2147.34 799.37 L2167.21 799.37 L2167.21 803.305 L2152.02 803.305 L2152.02 813.49 L2165.72 813.49 L2165.72 817.425 L2152.02 817.425 L2152.02 833.93 L2147.34 833.93 L2147.34 799.37 Z" fill="#000000" fill-rule="nonzero" fill-opacity="1" /><path clip-path="url(#clip670)" d="M2174.43 797.911 L2178.69 797.911 L2178.69 833.93 L2174.43 833.93 L2174.43 797.911 Z" fill="#000000" fill-rule="nonzero" fill-opacity="1" /><path clip-path="url(#clip670)" d="M2199.38 820.897 Q2194.22 820.897 2192.23 822.078 Q2190.24 823.258 2190.24 826.106 Q2190.24 828.374 2191.72 829.717 Q2193.22 831.036 2195.79 831.036 Q2199.33 831.036 2201.46 828.536 Q2203.62 826.013 2203.62 821.846 L2203.62 820.897 L2199.38 820.897 M2207.88 819.138 L2207.88 833.93 L2203.62 833.93 L2203.62 829.994 Q2202.16 832.356 2199.98 833.49 Q2197.81 834.601 2194.66 834.601 Q2190.68 834.601 2188.32 832.379 Q2185.98 830.133 2185.98 826.383 Q2185.98 822.008 2188.89 819.786 Q2191.83 817.564 2197.64 817.564 L2203.62 817.564 L2203.62 817.147 Q2203.62 814.207 2201.67 812.61 Q2199.75 810.99 2196.26 810.99 Q2194.03 810.99 2191.93 811.522 Q2189.82 812.055 2187.88 813.12 L2187.88 809.184 Q2190.21 808.282 2192.41 807.842 Q2194.61 807.379 2196.7 807.379 Q2202.32 807.379 2205.1 810.295 Q2207.88 813.212 2207.88 819.138 Z" fill="#000000" fill-rule="nonzero" fill-opacity="1" /><path clip-path="url(#clip670)" d="M2220.86 800.643 L2220.86 808.004 L2229.64 808.004 L2229.64 811.314 L2220.86 811.314 L2220.86 825.388 Q2220.86 828.559 2221.72 829.462 Q2222.6 830.365 2225.26 830.365 L2229.64 830.365 L2229.64 833.93 L2225.26 833.93 Q2220.33 833.93 2218.45 832.101 Q2216.58 830.249 2216.58 825.388 L2216.58 811.314 L2213.45 811.314 L2213.45 808.004 L2216.58 808.004 L2216.58 800.643 L2220.86 800.643 Z" fill="#000000" fill-rule="nonzero" fill-opacity="1" /><polyline clip-path="url(#clip670)" style="stroke:#e9c716; stroke-linecap:round; stroke-linejoin:round; stroke-width:8; stroke-opacity:1; fill:none" points="1984.26,868.49 2124.05,868.49 "/>
<path clip-path="url(#clip670)" d="M2054.15 846.918 L2032.58 890.061 L2075.73 890.061 L2054.15 846.918 Z" fill="#e9c716" fill-rule="evenodd" fill-opacity="1" stroke="#000000" stroke-opacity="1" stroke-width="2.73067"/>
<path clip-path="url(#clip670)" d="M2152.02 855.052 L2152.02 868.038 L2157.9 868.038 Q2161.16 868.038 2162.95 866.348 Q2164.73 864.659 2164.73 861.534 Q2164.73 858.432 2162.95 856.742 Q2161.16 855.052 2157.9 855.052 L2152.02 855.052 M2147.34 851.21 L2157.9 851.21 Q2163.71 851.21 2166.67 853.848 Q2169.66 856.464 2169.66 861.534 Q2169.66 866.649 2166.67 869.265 Q2163.71 871.881 2157.9 871.881 L2152.02 871.881 L2152.02 885.77 L2147.34 885.77 L2147.34 851.21 Z" fill="#000000" fill-rule="nonzero" fill-opacity="1" /><path clip-path="url(#clip670)" d="M2196.23 871.742 L2196.23 873.825 L2176.65 873.825 Q2176.93 878.223 2179.29 880.538 Q2181.67 882.83 2185.91 882.83 Q2188.36 882.83 2190.65 882.228 Q2192.97 881.626 2195.24 880.422 L2195.24 884.45 Q2192.95 885.422 2190.54 885.932 Q2188.13 886.441 2185.65 886.441 Q2179.45 886.441 2175.82 882.83 Q2172.21 879.219 2172.21 873.061 Q2172.21 866.696 2175.63 862.969 Q2179.08 859.219 2184.91 859.219 Q2190.14 859.219 2193.18 862.598 Q2196.23 865.955 2196.23 871.742 M2191.97 870.492 Q2191.93 866.997 2190.01 864.913 Q2188.11 862.83 2184.96 862.83 Q2181.39 862.83 2179.24 864.844 Q2177.11 866.858 2176.79 870.515 L2191.97 870.492 Z" fill="#000000" fill-rule="nonzero" fill-opacity="1" /><path clip-path="url(#clip670)" d="M2218.25 863.825 Q2217.53 863.409 2216.67 863.223 Q2215.84 863.015 2214.82 863.015 Q2211.21 863.015 2209.27 865.376 Q2207.34 867.714 2207.34 872.112 L2207.34 885.77 L2203.06 885.77 L2203.06 859.844 L2207.34 859.844 L2207.34 863.872 Q2208.69 861.51 2210.84 860.376 Q2212.99 859.219 2216.07 859.219 Q2216.51 859.219 2217.04 859.288 Q2217.58 859.335 2218.22 859.45 L2218.25 863.825 Z" fill="#000000" fill-rule="nonzero" fill-opacity="1" /><path clip-path="url(#clip670)" d="M2242.07 864.821 Q2243.66 861.95 2245.89 860.585 Q2248.11 859.219 2251.12 859.219 Q2255.17 859.219 2257.37 862.066 Q2259.57 864.89 2259.57 870.122 L2259.57 885.77 L2255.28 885.77 L2255.28 870.26 Q2255.28 866.534 2253.96 864.728 Q2252.64 862.922 2249.94 862.922 Q2246.63 862.922 2244.7 865.122 Q2242.78 867.321 2242.78 871.117 L2242.78 885.77 L2238.5 885.77 L2238.5 870.26 Q2238.5 866.51 2237.18 864.728 Q2235.86 862.922 2233.11 862.922 Q2229.84 862.922 2227.92 865.145 Q2226 867.344 2226 871.117 L2226 885.77 L2221.72 885.77 L2221.72 859.844 L2226 859.844 L2226 863.872 Q2227.46 861.487 2229.5 860.353 Q2231.53 859.219 2234.33 859.219 Q2237.16 859.219 2239.13 860.654 Q2241.12 862.089 2242.07 864.821 Z" fill="#000000" fill-rule="nonzero" fill-opacity="1" /></svg>
