<?xml version="1.0" encoding="utf-8"?>
<svg xmlns="http://www.w3.org/2000/svg" xmlns:xlink="http://www.w3.org/1999/xlink" width="600" height="400" viewBox="0 0 2400 1600">
<defs>
  <clipPath id="clip320">
    <rect x="0" y="0" width="2400" height="1600"/>
  </clipPath>
</defs>
<path clip-path="url(#clip320)" d="M0 1600 L2400 1600 L2400 0 L0 0  Z" fill="#ffffff" fill-rule="evenodd" fill-opacity="1"/>
<defs>
  <clipPath id="clip321">
    <rect x="480" y="0" width="1681" height="1600"/>
  </clipPath>
</defs>
<path clip-path="url(#clip320)" d="M219.866 1423.18 L2352.76 1423.18 L2352.76 123.472 L219.866 123.472  Z" fill="#ffffff" fill-rule="evenodd" fill-opacity="1"/>
<defs>
  <clipPath id="clip322">
    <rect x="219" y="123" width="2134" height="1301"/>
  </clipPath>
</defs>
<polyline clip-path="url(#clip322)" style="stroke:#000000; stroke-linecap:round; stroke-linejoin:round; stroke-width:2; stroke-opacity:0.1; fill:none" points="248.292,1423.18 248.292,123.472 "/>
<polyline clip-path="url(#clip322)" style="stroke:#000000; stroke-linecap:round; stroke-linejoin:round; stroke-width:2; stroke-opacity:0.1; fill:none" points="747.34,1423.18 747.34,123.472 "/>
<polyline clip-path="url(#clip322)" style="stroke:#000000; stroke-linecap:round; stroke-linejoin:round; stroke-width:2; stroke-opacity:0.1; fill:none" points="1246.39,1423.18 1246.39,123.472 "/>
<polyline clip-path="url(#clip322)" style="stroke:#000000; stroke-linecap:round; stroke-linejoin:round; stroke-width:2; stroke-opacity:0.1; fill:none" points="1745.43,1423.18 1745.43,123.472 "/>
<polyline clip-path="url(#clip322)" style="stroke:#000000; stroke-linecap:round; stroke-linejoin:round; stroke-width:2; stroke-opacity:0.1; fill:none" points="2244.48,1423.18 2244.48,123.472 "/>
<polyline clip-path="url(#clip320)" style="stroke:#000000; stroke-linecap:round; stroke-linejoin:round; stroke-width:4; stroke-opacity:1; fill:none" points="219.866,1423.18 2352.76,1423.18 "/>
<polyline clip-path="url(#clip320)" style="stroke:#000000; stroke-linecap:round; stroke-linejoin:round; stroke-width:4; stroke-opacity:1; fill:none" points="248.292,1423.18 248.292,1404.28 "/>
<polyline clip-path="url(#clip320)" style="stroke:#000000; stroke-linecap:round; stroke-linejoin:round; stroke-width:4; stroke-opacity:1; fill:none" points="747.34,1423.18 747.34,1404.28 "/>
<polyline clip-path="url(#clip320)" style="stroke:#000000; stroke-linecap:round; stroke-linejoin:round; stroke-width:4; stroke-opacity:1; fill:none" points="1246.39,1423.18 1246.39,1404.28 "/>
<polyline clip-path="url(#clip320)" style="stroke:#000000; stroke-linecap:round; stroke-linejoin:round; stroke-width:4; stroke-opacity:1; fill:none" points="1745.43,1423.18 1745.43,1404.28 "/>
<polyline clip-path="url(#clip320)" style="stroke:#000000; stroke-linecap:round; stroke-linejoin:round; stroke-width:4; stroke-opacity:1; fill:none" points="2244.48,1423.18 2244.48,1404.28 "/>
<path clip-path="url(#clip320)" d="M248.292 1454.1 Q244.681 1454.1 242.852 1457.66 Q241.047 1461.2 241.047 1468.33 Q241.047 1475.44 242.852 1479.01 Q244.681 1482.55 248.292 1482.55 Q251.926 1482.55 253.732 1479.01 Q255.56 1475.44 255.56 1468.33 Q255.56 1461.2 253.732 1457.66 Q251.926 1454.1 248.292 1454.1 M248.292 1450.39 Q254.102 1450.39 257.158 1455 Q260.236 1459.58 260.236 1468.33 Q260.236 1477.06 257.158 1481.67 Q254.102 1486.25 248.292 1486.25 Q242.482 1486.25 239.403 1481.67 Q236.348 1477.06 236.348 1468.33 Q236.348 1459.58 239.403 1455 Q242.482 1450.39 248.292 1450.39 Z" fill="#000000" fill-rule="nonzero" fill-opacity="1" /><path clip-path="url(#clip320)" d="M695.951 1481.64 L712.27 1481.64 L712.27 1485.58 L690.326 1485.58 L690.326 1481.64 Q692.988 1478.89 697.571 1474.26 Q702.178 1469.61 703.358 1468.27 Q705.604 1465.74 706.483 1464.01 Q707.386 1462.25 707.386 1460.56 Q707.386 1457.8 705.442 1456.07 Q703.52 1454.33 700.419 1454.33 Q698.22 1454.33 695.766 1455.09 Q693.335 1455.86 690.558 1457.41 L690.558 1452.69 Q693.382 1451.55 695.835 1450.97 Q698.289 1450.39 700.326 1450.39 Q705.696 1450.39 708.891 1453.08 Q712.085 1455.77 712.085 1460.26 Q712.085 1462.39 711.275 1464.31 Q710.488 1466.2 708.382 1468.8 Q707.803 1469.47 704.701 1472.69 Q701.599 1475.88 695.951 1481.64 Z" fill="#000000" fill-rule="nonzero" fill-opacity="1" /><path clip-path="url(#clip320)" d="M732.085 1454.1 Q728.474 1454.1 726.645 1457.66 Q724.84 1461.2 724.84 1468.33 Q724.84 1475.44 726.645 1479.01 Q728.474 1482.55 732.085 1482.55 Q735.719 1482.55 737.525 1479.01 Q739.354 1475.44 739.354 1468.33 Q739.354 1461.2 737.525 1457.66 Q735.719 1454.1 732.085 1454.1 M732.085 1450.39 Q737.895 1450.39 740.951 1455 Q744.029 1459.58 744.029 1468.33 Q744.029 1477.06 740.951 1481.67 Q737.895 1486.25 732.085 1486.25 Q726.275 1486.25 723.196 1481.67 Q720.141 1477.06 720.141 1468.33 Q720.141 1459.58 723.196 1455 Q726.275 1450.39 732.085 1450.39 Z" fill="#000000" fill-rule="nonzero" fill-opacity="1" /><path clip-path="url(#clip320)" d="M762.247 1454.1 Q758.636 1454.1 756.807 1457.66 Q755.002 1461.2 755.002 1468.33 Q755.002 1475.44 756.807 1479.01 Q758.636 1482.55 762.247 1482.55 Q765.881 1482.55 767.687 1479.01 Q769.515 1475.44 769.515 1468.33 Q769.515 1461.2 767.687 1457.66 Q765.881 1454.1 762.247 1454.1 M762.247 1450.39 Q768.057 1450.39 771.113 1455 Q774.191 1459.58 774.191 1468.33 Q774.191 1477.06 771.113 1481.67 Q768.057 1486.25 762.247 1486.25 Q756.437 1486.25 753.358 1481.67 Q750.303 1477.06 750.303 1468.33 Q750.303 1459.58 753.358 1455 Q756.437 1450.39 762.247 1450.39 Z" fill="#000000" fill-rule="nonzero" fill-opacity="1" /><path clip-path="url(#clip320)" d="M792.409 1454.1 Q788.798 1454.1 786.969 1457.66 Q785.164 1461.2 785.164 1468.33 Q785.164 1475.44 786.969 1479.01 Q788.798 1482.55 792.409 1482.55 Q796.043 1482.55 797.849 1479.01 Q799.677 1475.44 799.677 1468.33 Q799.677 1461.2 797.849 1457.66 Q796.043 1454.1 792.409 1454.1 M792.409 1450.39 Q798.219 1450.39 801.275 1455 Q804.353 1459.58 804.353 1468.33 Q804.353 1477.06 801.275 1481.67 Q798.219 1486.25 792.409 1486.25 Q786.599 1486.25 783.52 1481.67 Q780.464 1477.06 780.464 1468.33 Q780.464 1459.58 783.52 1455 Q786.599 1450.39 792.409 1450.39 Z" fill="#000000" fill-rule="nonzero" fill-opacity="1" /><path clip-path="url(#clip320)" d="M1204.4 1455.09 L1192.59 1473.54 L1204.4 1473.54 L1204.4 1455.09 M1203.17 1451.02 L1209.05 1451.02 L1209.05 1473.54 L1213.98 1473.54 L1213.98 1477.43 L1209.05 1477.43 L1209.05 1485.58 L1204.4 1485.58 L1204.4 1477.43 L1188.79 1477.43 L1188.79 1472.92 L1203.17 1451.02 Z" fill="#000000" fill-rule="nonzero" fill-opacity="1" /><path clip-path="url(#clip320)" d="M1231.71 1454.1 Q1228.1 1454.1 1226.27 1457.66 Q1224.47 1461.2 1224.47 1468.33 Q1224.47 1475.44 1226.27 1479.01 Q1228.1 1482.55 1231.71 1482.55 Q1235.35 1482.55 1237.15 1479.01 Q1238.98 1475.44 1238.98 1468.33 Q1238.98 1461.2 1237.15 1457.66 Q1235.35 1454.1 1231.71 1454.1 M1231.71 1450.39 Q1237.52 1450.39 1240.58 1455 Q1243.66 1459.58 1243.66 1468.33 Q1243.66 1477.06 1240.58 1481.67 Q1237.52 1486.25 1231.71 1486.25 Q1225.9 1486.25 1222.82 1481.67 Q1219.77 1477.06 1219.77 1468.33 Q1219.77 1459.58 1222.82 1455 Q1225.9 1450.39 1231.71 1450.39 Z" fill="#000000" fill-rule="nonzero" fill-opacity="1" /><path clip-path="url(#clip320)" d="M1261.87 1454.1 Q1258.26 1454.1 1256.43 1457.66 Q1254.63 1461.2 1254.63 1468.33 Q1254.63 1475.44 1256.43 1479.01 Q1258.26 1482.55 1261.87 1482.55 Q1265.51 1482.55 1267.31 1479.01 Q1269.14 1475.44 1269.14 1468.33 Q1269.14 1461.2 1267.31 1457.66 Q1265.51 1454.1 1261.87 1454.1 M1261.87 1450.39 Q1267.68 1450.39 1270.74 1455 Q1273.82 1459.58 1273.82 1468.33 Q1273.82 1477.06 1270.74 1481.67 Q1267.68 1486.25 1261.87 1486.25 Q1256.06 1486.25 1252.98 1481.67 Q1249.93 1477.06 1249.93 1468.33 Q1249.93 1459.58 1252.98 1455 Q1256.06 1450.39 1261.87 1450.39 Z" fill="#000000" fill-rule="nonzero" fill-opacity="1" /><path clip-path="url(#clip320)" d="M1292.04 1454.1 Q1288.42 1454.1 1286.6 1457.66 Q1284.79 1461.2 1284.79 1468.33 Q1284.79 1475.44 1286.6 1479.01 Q1288.42 1482.55 1292.04 1482.55 Q1295.67 1482.55 1297.47 1479.01 Q1299.3 1475.44 1299.3 1468.33 Q1299.3 1461.2 1297.47 1457.66 Q1295.67 1454.1 1292.04 1454.1 M1292.04 1450.39 Q1297.85 1450.39 1300.9 1455 Q1303.98 1459.58 1303.98 1468.33 Q1303.98 1477.06 1300.9 1481.67 Q1297.85 1486.25 1292.04 1486.25 Q1286.23 1486.25 1283.15 1481.67 Q1280.09 1477.06 1280.09 1468.33 Q1280.09 1459.58 1283.15 1455 Q1286.23 1450.39 1292.04 1450.39 Z" fill="#000000" fill-rule="nonzero" fill-opacity="1" /><path clip-path="url(#clip320)" d="M1700.68 1466.44 Q1697.53 1466.44 1695.68 1468.59 Q1693.85 1470.74 1693.85 1474.49 Q1693.85 1478.22 1695.68 1480.39 Q1697.53 1482.55 1700.68 1482.55 Q1703.83 1482.55 1705.66 1480.39 Q1707.51 1478.22 1707.51 1474.49 Q1707.51 1470.74 1705.66 1468.59 Q1703.83 1466.44 1700.68 1466.44 M1709.96 1451.78 L1709.96 1456.04 Q1708.2 1455.21 1706.4 1454.77 Q1704.61 1454.33 1702.85 1454.33 Q1698.22 1454.33 1695.77 1457.45 Q1693.34 1460.58 1692.99 1466.9 Q1694.36 1464.89 1696.42 1463.82 Q1698.48 1462.73 1700.96 1462.73 Q1706.16 1462.73 1709.17 1465.9 Q1712.21 1469.05 1712.21 1474.49 Q1712.21 1479.82 1709.06 1483.03 Q1705.91 1486.25 1700.68 1486.25 Q1694.68 1486.25 1691.51 1481.67 Q1688.34 1477.06 1688.34 1468.33 Q1688.34 1460.14 1692.23 1455.28 Q1696.12 1450.39 1702.67 1450.39 Q1704.43 1450.39 1706.21 1450.74 Q1708.02 1451.09 1709.96 1451.78 Z" fill="#000000" fill-rule="nonzero" fill-opacity="1" /><path clip-path="url(#clip320)" d="M1730.26 1454.1 Q1726.65 1454.1 1724.82 1457.66 Q1723.02 1461.2 1723.02 1468.33 Q1723.02 1475.44 1724.82 1479.01 Q1726.65 1482.55 1730.26 1482.55 Q1733.9 1482.55 1735.7 1479.01 Q1737.53 1475.44 1737.53 1468.33 Q1737.53 1461.2 1735.7 1457.66 Q1733.9 1454.1 1730.26 1454.1 M1730.26 1450.39 Q1736.07 1450.39 1739.13 1455 Q1742.21 1459.58 1742.21 1468.33 Q1742.21 1477.06 1739.13 1481.67 Q1736.07 1486.25 1730.26 1486.25 Q1724.45 1486.25 1721.37 1481.67 Q1718.32 1477.06 1718.32 1468.33 Q1718.32 1459.58 1721.37 1455 Q1724.45 1450.39 1730.26 1450.39 Z" fill="#000000" fill-rule="nonzero" fill-opacity="1" /><path clip-path="url(#clip320)" d="M1760.42 1454.1 Q1756.81 1454.1 1754.98 1457.66 Q1753.18 1461.2 1753.18 1468.33 Q1753.18 1475.44 1754.98 1479.01 Q1756.81 1482.55 1760.42 1482.55 Q1764.06 1482.55 1765.86 1479.01 Q1767.69 1475.44 1767.69 1468.33 Q1767.69 1461.2 1765.86 1457.66 Q1764.06 1454.1 1760.42 1454.1 M1760.42 1450.39 Q1766.23 1450.39 1769.29 1455 Q1772.37 1459.58 1772.37 1468.33 Q1772.37 1477.06 1769.29 1481.67 Q1766.23 1486.25 1760.42 1486.25 Q1754.61 1486.25 1751.53 1481.67 Q1748.48 1477.06 1748.48 1468.33 Q1748.48 1459.58 1751.53 1455 Q1754.61 1450.39 1760.42 1450.39 Z" fill="#000000" fill-rule="nonzero" fill-opacity="1" /><path clip-path="url(#clip320)" d="M1790.59 1454.1 Q1786.97 1454.1 1785.15 1457.66 Q1783.34 1461.2 1783.34 1468.33 Q1783.34 1475.44 1785.15 1479.01 Q1786.97 1482.55 1790.59 1482.55 Q1794.22 1482.55 1796.02 1479.01 Q1797.85 1475.44 1797.85 1468.33 Q1797.85 1461.2 1796.02 1457.66 Q1794.22 1454.1 1790.59 1454.1 M1790.59 1450.39 Q1796.4 1450.39 1799.45 1455 Q1802.53 1459.58 1802.53 1468.33 Q1802.53 1477.06 1799.45 1481.67 Q1796.4 1486.25 1790.59 1486.25 Q1784.77 1486.25 1781.7 1481.67 Q1778.64 1477.06 1778.64 1468.33 Q1778.64 1459.58 1781.7 1455 Q1784.77 1450.39 1790.59 1450.39 Z" fill="#000000" fill-rule="nonzero" fill-opacity="1" /><path clip-path="url(#clip320)" d="M2199.19 1469.17 Q2195.86 1469.17 2193.94 1470.95 Q2192.04 1472.73 2192.04 1475.86 Q2192.04 1478.98 2193.94 1480.77 Q2195.86 1482.55 2199.19 1482.55 Q2202.53 1482.55 2204.45 1480.77 Q2206.37 1478.96 2206.37 1475.86 Q2206.37 1472.73 2204.45 1470.95 Q2202.55 1469.17 2199.19 1469.17 M2194.52 1467.18 Q2191.51 1466.44 2189.82 1464.38 Q2188.15 1462.32 2188.15 1459.35 Q2188.15 1455.21 2191.09 1452.8 Q2194.05 1450.39 2199.19 1450.39 Q2204.36 1450.39 2207.3 1452.8 Q2210.24 1455.21 2210.24 1459.35 Q2210.24 1462.32 2208.55 1464.38 Q2206.88 1466.44 2203.89 1467.18 Q2207.27 1467.96 2209.15 1470.26 Q2211.05 1472.55 2211.05 1475.86 Q2211.05 1480.88 2207.97 1483.57 Q2204.91 1486.25 2199.19 1486.25 Q2193.48 1486.25 2190.4 1483.57 Q2187.34 1480.88 2187.34 1475.86 Q2187.34 1472.55 2189.24 1470.26 Q2191.14 1467.96 2194.52 1467.18 M2192.8 1459.79 Q2192.8 1462.48 2194.47 1463.98 Q2196.16 1465.49 2199.19 1465.49 Q2202.2 1465.49 2203.89 1463.98 Q2205.61 1462.48 2205.61 1459.79 Q2205.61 1457.11 2203.89 1455.6 Q2202.2 1454.1 2199.19 1454.1 Q2196.16 1454.1 2194.47 1455.6 Q2192.8 1457.11 2192.8 1459.79 Z" fill="#000000" fill-rule="nonzero" fill-opacity="1" /><path clip-path="url(#clip320)" d="M2229.36 1454.1 Q2225.74 1454.1 2223.92 1457.66 Q2222.11 1461.2 2222.11 1468.33 Q2222.11 1475.44 2223.92 1479.01 Q2225.74 1482.55 2229.36 1482.55 Q2232.99 1482.55 2234.8 1479.01 Q2236.62 1475.44 2236.62 1468.33 Q2236.62 1461.2 2234.8 1457.66 Q2232.99 1454.1 2229.36 1454.1 M2229.36 1450.39 Q2235.17 1450.39 2238.22 1455 Q2241.3 1459.58 2241.3 1468.33 Q2241.3 1477.06 2238.22 1481.67 Q2235.17 1486.25 2229.36 1486.25 Q2223.55 1486.25 2220.47 1481.67 Q2217.41 1477.06 2217.41 1468.33 Q2217.41 1459.58 2220.47 1455 Q2223.55 1450.39 2229.36 1450.39 Z" fill="#000000" fill-rule="nonzero" fill-opacity="1" /><path clip-path="url(#clip320)" d="M2259.52 1454.1 Q2255.91 1454.1 2254.08 1457.66 Q2252.27 1461.2 2252.27 1468.33 Q2252.27 1475.44 2254.08 1479.01 Q2255.91 1482.55 2259.52 1482.55 Q2263.15 1482.55 2264.96 1479.01 Q2266.79 1475.44 2266.79 1468.33 Q2266.79 1461.2 2264.96 1457.66 Q2263.15 1454.1 2259.52 1454.1 M2259.52 1450.39 Q2265.33 1450.39 2268.38 1455 Q2271.46 1459.58 2271.46 1468.33 Q2271.46 1477.06 2268.38 1481.67 Q2265.33 1486.25 2259.52 1486.25 Q2253.71 1486.25 2250.63 1481.67 Q2247.57 1477.06 2247.57 1468.33 Q2247.57 1459.58 2250.63 1455 Q2253.71 1450.39 2259.52 1450.39 Z" fill="#000000" fill-rule="nonzero" fill-opacity="1" /><path clip-path="url(#clip320)" d="M2289.68 1454.1 Q2286.07 1454.1 2284.24 1457.66 Q2282.43 1461.2 2282.43 1468.33 Q2282.43 1475.44 2284.24 1479.01 Q2286.07 1482.55 2289.68 1482.55 Q2293.31 1482.55 2295.12 1479.01 Q2296.95 1475.44 2296.95 1468.33 Q2296.95 1461.2 2295.12 1457.66 Q2293.31 1454.1 2289.68 1454.1 M2289.68 1450.39 Q2295.49 1450.39 2298.54 1455 Q2301.62 1459.58 2301.62 1468.33 Q2301.62 1477.06 2298.54 1481.67 Q2295.49 1486.25 2289.68 1486.25 Q2283.87 1486.25 2280.79 1481.67 Q2277.73 1477.06 2277.73 1468.33 Q2277.73 1459.58 2280.79 1455 Q2283.87 1450.39 2289.68 1450.39 Z" fill="#000000" fill-rule="nonzero" fill-opacity="1" /><path clip-path="url(#clip320)" d="M1010.13 1520.52 L1018.79 1520.52 L1039.86 1560.28 L1039.86 1520.52 L1046.1 1520.52 L1046.1 1568.04 L1037.44 1568.04 L1016.37 1528.29 L1016.37 1568.04 L1010.13 1568.04 L1010.13 1520.52 Z" fill="#000000" fill-rule="nonzero" fill-opacity="1" /><path clip-path="url(#clip320)" d="M1058.04 1553.98 L1058.04 1532.4 L1063.89 1532.4 L1063.89 1553.75 Q1063.89 1558.81 1065.87 1561.36 Q1067.84 1563.87 1071.79 1563.87 Q1076.53 1563.87 1079.27 1560.85 Q1082.04 1557.83 1082.04 1552.61 L1082.04 1532.4 L1087.89 1532.4 L1087.89 1568.04 L1082.04 1568.04 L1082.04 1562.57 Q1079.9 1565.82 1077.07 1567.41 Q1074.27 1568.97 1070.55 1568.97 Q1064.4 1568.97 1061.22 1565.15 Q1058.04 1561.33 1058.04 1553.98 M1072.77 1531.54 L1072.77 1531.54 Z" fill="#000000" fill-rule="nonzero" fill-opacity="1" /><path clip-path="url(#clip320)" d="M1127.71 1539.24 Q1129.91 1535.29 1132.96 1533.41 Q1136.02 1531.54 1140.15 1531.54 Q1145.72 1531.54 1148.75 1535.45 Q1151.77 1539.33 1151.77 1546.53 L1151.77 1568.04 L1145.88 1568.04 L1145.88 1546.72 Q1145.88 1541.59 1144.07 1539.11 Q1142.26 1536.63 1138.53 1536.63 Q1133.98 1536.63 1131.34 1539.65 Q1128.7 1542.68 1128.7 1547.9 L1128.7 1568.04 L1122.81 1568.04 L1122.81 1546.72 Q1122.81 1541.56 1120.99 1539.11 Q1119.18 1536.63 1115.39 1536.63 Q1110.9 1536.63 1108.26 1539.68 Q1105.62 1542.71 1105.62 1547.9 L1105.62 1568.04 L1099.73 1568.04 L1099.73 1532.4 L1105.62 1532.4 L1105.62 1537.93 Q1107.63 1534.66 1110.43 1533.1 Q1113.23 1531.54 1117.08 1531.54 Q1120.96 1531.54 1123.67 1533.51 Q1126.4 1535.48 1127.71 1539.24 Z" fill="#000000" fill-rule="nonzero" fill-opacity="1" /><path clip-path="url(#clip320)" d="M1189.04 1550.25 Q1189.04 1543.79 1186.37 1540.13 Q1183.73 1536.44 1179.08 1536.44 Q1174.43 1536.44 1171.76 1540.13 Q1169.12 1543.79 1169.12 1550.25 Q1169.12 1556.71 1171.76 1560.4 Q1174.43 1564.07 1179.08 1564.07 Q1183.73 1564.07 1186.37 1560.4 Q1189.04 1556.71 1189.04 1550.25 M1169.12 1537.81 Q1170.96 1534.62 1173.77 1533.1 Q1176.6 1531.54 1180.51 1531.54 Q1187.01 1531.54 1191.05 1536.69 Q1195.12 1541.85 1195.12 1550.25 Q1195.12 1558.65 1191.05 1563.81 Q1187.01 1568.97 1180.51 1568.97 Q1176.6 1568.97 1173.77 1567.44 Q1170.96 1565.88 1169.12 1562.7 L1169.12 1568.04 L1163.23 1568.04 L1163.23 1518.52 L1169.12 1518.52 L1169.12 1537.81 Z" fill="#000000" fill-rule="nonzero" fill-opacity="1" /><path clip-path="url(#clip320)" d="M1235.32 1548.76 L1235.32 1551.62 L1208.39 1551.62 Q1208.78 1557.67 1212.02 1560.85 Q1215.3 1564 1221.13 1564 Q1224.5 1564 1227.65 1563.17 Q1230.83 1562.35 1233.95 1560.69 L1233.95 1566.23 Q1230.8 1567.57 1227.49 1568.27 Q1224.18 1568.97 1220.78 1568.97 Q1212.25 1568.97 1207.25 1564 Q1202.28 1559.04 1202.28 1550.57 Q1202.28 1541.82 1206.99 1536.69 Q1211.74 1531.54 1219.76 1531.54 Q1226.95 1531.54 1231.12 1536.18 Q1235.32 1540.8 1235.32 1548.76 M1229.47 1547.04 Q1229.4 1542.23 1226.76 1539.37 Q1224.15 1536.5 1219.82 1536.5 Q1214.92 1536.5 1211.96 1539.27 Q1209.03 1542.04 1208.59 1547.07 L1229.47 1547.04 Z" fill="#000000" fill-rule="nonzero" fill-opacity="1" /><path clip-path="url(#clip320)" d="M1265.59 1537.87 Q1264.6 1537.3 1263.43 1537.04 Q1262.28 1536.76 1260.88 1536.76 Q1255.91 1536.76 1253.24 1540 Q1250.6 1543.22 1250.6 1549.27 L1250.6 1568.04 L1244.71 1568.04 L1244.71 1532.4 L1250.6 1532.4 L1250.6 1537.93 Q1252.45 1534.69 1255.41 1533.13 Q1258.37 1531.54 1262.6 1531.54 Q1263.2 1531.54 1263.94 1531.63 Q1264.67 1531.7 1265.56 1531.85 L1265.59 1537.87 Z" fill="#000000" fill-rule="nonzero" fill-opacity="1" /><path clip-path="url(#clip320)" d="M1306.27 1536.5 Q1301.56 1536.5 1298.82 1540.19 Q1296.08 1543.85 1296.08 1550.25 Q1296.08 1556.65 1298.79 1560.34 Q1301.53 1564 1306.27 1564 Q1310.95 1564 1313.68 1560.31 Q1316.42 1556.62 1316.42 1550.25 Q1316.42 1543.92 1313.68 1540.23 Q1310.95 1536.5 1306.27 1536.5 M1306.27 1531.54 Q1313.91 1531.54 1318.27 1536.5 Q1322.63 1541.47 1322.63 1550.25 Q1322.63 1559 1318.27 1564 Q1313.91 1568.97 1306.27 1568.97 Q1298.6 1568.97 1294.24 1564 Q1289.91 1559 1289.91 1550.25 Q1289.91 1541.47 1294.24 1536.5 Q1298.6 1531.54 1306.27 1531.54 Z" fill="#000000" fill-rule="nonzero" fill-opacity="1" /><path clip-path="url(#clip320)" d="M1350.38 1518.52 L1350.38 1523.39 L1344.78 1523.39 Q1341.63 1523.39 1340.39 1524.66 Q1339.18 1525.93 1339.18 1529.24 L1339.18 1532.4 L1348.82 1532.4 L1348.82 1536.95 L1339.18 1536.95 L1339.18 1568.04 L1333.29 1568.04 L1333.29 1536.95 L1327.69 1536.95 L1327.69 1532.4 L1333.29 1532.4 L1333.29 1529.91 Q1333.29 1523.96 1336.06 1521.26 Q1338.83 1518.52 1344.84 1518.52 L1350.38 1518.52 Z" fill="#000000" fill-rule="nonzero" fill-opacity="1" /><path clip-path="url(#clip320)" d="M1382.69 1525.81 L1382.69 1543.66 L1390.77 1543.66 Q1395.26 1543.66 1397.71 1541.34 Q1400.16 1539.02 1400.16 1534.72 Q1400.16 1530.45 1397.71 1528.13 Q1395.26 1525.81 1390.77 1525.81 L1382.69 1525.81 M1376.26 1520.52 L1390.77 1520.52 Q1398.76 1520.52 1402.84 1524.15 Q1406.94 1527.75 1406.94 1534.72 Q1406.94 1541.75 1402.84 1545.35 Q1398.76 1548.95 1390.77 1548.95 L1382.69 1548.95 L1382.69 1568.04 L1376.26 1568.04 L1376.26 1520.52 Z" fill="#000000" fill-rule="nonzero" fill-opacity="1" /><path clip-path="url(#clip320)" d="M1426.8 1536.5 Q1422.09 1536.5 1419.35 1540.19 Q1416.62 1543.85 1416.62 1550.25 Q1416.62 1556.65 1419.32 1560.34 Q1422.06 1564 1426.8 1564 Q1431.48 1564 1434.22 1560.31 Q1436.96 1556.62 1436.96 1550.25 Q1436.96 1543.92 1434.22 1540.23 Q1431.48 1536.5 1426.8 1536.5 M1426.8 1531.54 Q1434.44 1531.54 1438.8 1536.5 Q1443.16 1541.47 1443.16 1550.25 Q1443.16 1559 1438.8 1564 Q1434.44 1568.97 1426.8 1568.97 Q1419.13 1568.97 1414.77 1564 Q1410.44 1559 1410.44 1550.25 Q1410.44 1541.47 1414.77 1536.5 Q1419.13 1531.54 1426.8 1531.54 Z" fill="#000000" fill-rule="nonzero" fill-opacity="1" /><path clip-path="url(#clip320)" d="M1452.87 1532.4 L1458.73 1532.4 L1458.73 1568.04 L1452.87 1568.04 L1452.87 1532.4 M1452.87 1518.52 L1458.73 1518.52 L1458.73 1525.93 L1452.87 1525.93 L1452.87 1518.52 Z" fill="#000000" fill-rule="nonzero" fill-opacity="1" /><path clip-path="url(#clip320)" d="M1500.61 1546.53 L1500.61 1568.04 L1494.76 1568.04 L1494.76 1546.72 Q1494.76 1541.66 1492.78 1539.14 Q1490.81 1536.63 1486.86 1536.63 Q1482.12 1536.63 1479.38 1539.65 Q1476.65 1542.68 1476.65 1547.9 L1476.65 1568.04 L1470.76 1568.04 L1470.76 1532.4 L1476.65 1532.4 L1476.65 1537.93 Q1478.75 1534.72 1481.58 1533.13 Q1484.44 1531.54 1488.17 1531.54 Q1494.31 1531.54 1497.46 1535.36 Q1500.61 1539.14 1500.61 1546.53 Z" fill="#000000" fill-rule="nonzero" fill-opacity="1" /><path clip-path="url(#clip320)" d="M1518.09 1522.27 L1518.09 1532.4 L1530.15 1532.4 L1530.15 1536.95 L1518.09 1536.95 L1518.09 1556.3 Q1518.09 1560.66 1519.26 1561.9 Q1520.47 1563.14 1524.13 1563.14 L1530.15 1563.14 L1530.15 1568.04 L1524.13 1568.04 Q1517.35 1568.04 1514.78 1565.53 Q1512.2 1562.98 1512.2 1556.3 L1512.2 1536.95 L1507.9 1536.95 L1507.9 1532.4 L1512.2 1532.4 L1512.2 1522.27 L1518.09 1522.27 Z" fill="#000000" fill-rule="nonzero" fill-opacity="1" /><path clip-path="url(#clip320)" d="M1560.58 1533.45 L1560.58 1538.98 Q1558.09 1537.71 1555.42 1537.07 Q1552.75 1536.44 1549.88 1536.44 Q1545.52 1536.44 1543.33 1537.77 Q1541.16 1539.11 1541.16 1541.79 Q1541.16 1543.82 1542.72 1545 Q1544.28 1546.15 1548.99 1547.2 L1551 1547.64 Q1557.24 1548.98 1559.85 1551.43 Q1562.49 1553.85 1562.49 1558.21 Q1562.49 1563.17 1558.54 1566.07 Q1554.63 1568.97 1547.75 1568.97 Q1544.89 1568.97 1541.77 1568.39 Q1538.68 1567.85 1535.24 1566.74 L1535.24 1560.69 Q1538.49 1562.38 1541.64 1563.24 Q1544.79 1564.07 1547.88 1564.07 Q1552.02 1564.07 1554.24 1562.66 Q1556.47 1561.23 1556.47 1558.65 Q1556.47 1556.27 1554.85 1554.99 Q1553.26 1553.72 1547.81 1552.54 L1545.78 1552.07 Q1540.33 1550.92 1537.92 1548.56 Q1535.5 1546.18 1535.5 1542.04 Q1535.5 1537.01 1539.06 1534.27 Q1542.63 1531.54 1549.18 1531.54 Q1552.43 1531.54 1555.29 1532.01 Q1558.16 1532.49 1560.58 1533.45 Z" fill="#000000" fill-rule="nonzero" fill-opacity="1" /><polyline clip-path="url(#clip322)" style="stroke:#000000; stroke-linecap:round; stroke-linejoin:round; stroke-width:2; stroke-opacity:0.1; fill:none" points="219.866,1209.21 2352.76,1209.21 "/>
<polyline clip-path="url(#clip322)" style="stroke:#000000; stroke-linecap:round; stroke-linejoin:round; stroke-width:2; stroke-opacity:0.1; fill:none" points="219.866,982.415 2352.76,982.415 "/>
<polyline clip-path="url(#clip322)" style="stroke:#000000; stroke-linecap:round; stroke-linejoin:round; stroke-width:2; stroke-opacity:0.1; fill:none" points="219.866,755.619 2352.76,755.619 "/>
<polyline clip-path="url(#clip322)" style="stroke:#000000; stroke-linecap:round; stroke-linejoin:round; stroke-width:2; stroke-opacity:0.1; fill:none" points="219.866,528.824 2352.76,528.824 "/>
<polyline clip-path="url(#clip322)" style="stroke:#000000; stroke-linecap:round; stroke-linejoin:round; stroke-width:2; stroke-opacity:0.1; fill:none" points="219.866,302.028 2352.76,302.028 "/>
<polyline clip-path="url(#clip320)" style="stroke:#000000; stroke-linecap:round; stroke-linejoin:round; stroke-width:4; stroke-opacity:1; fill:none" points="219.866,1423.18 219.866,123.472 "/>
<polyline clip-path="url(#clip320)" style="stroke:#000000; stroke-linecap:round; stroke-linejoin:round; stroke-width:4; stroke-opacity:1; fill:none" points="219.866,1209.21 238.764,1209.21 "/>
<polyline clip-path="url(#clip320)" style="stroke:#000000; stroke-linecap:round; stroke-linejoin:round; stroke-width:4; stroke-opacity:1; fill:none" points="219.866,982.415 238.764,982.415 "/>
<polyline clip-path="url(#clip320)" style="stroke:#000000; stroke-linecap:round; stroke-linejoin:round; stroke-width:4; stroke-opacity:1; fill:none" points="219.866,755.619 238.764,755.619 "/>
<polyline clip-path="url(#clip320)" style="stroke:#000000; stroke-linecap:round; stroke-linejoin:round; stroke-width:4; stroke-opacity:1; fill:none" points="219.866,528.824 238.764,528.824 "/>
<polyline clip-path="url(#clip320)" style="stroke:#000000; stroke-linecap:round; stroke-linejoin:round; stroke-width:4; stroke-opacity:1; fill:none" points="219.866,302.028 238.764,302.028 "/>
<path clip-path="url(#clip320)" d="M128.288 1195.01 Q124.677 1195.01 122.848 1198.57 Q121.043 1202.12 121.043 1209.24 Q121.043 1216.35 122.848 1219.92 Q124.677 1223.46 128.288 1223.46 Q131.922 1223.46 133.728 1219.92 Q135.556 1216.35 135.556 1209.24 Q135.556 1202.12 133.728 1198.57 Q131.922 1195.01 128.288 1195.01 M128.288 1191.3 Q134.098 1191.3 137.154 1195.91 Q140.232 1200.49 140.232 1209.24 Q140.232 1217.97 137.154 1222.58 Q134.098 1227.16 128.288 1227.16 Q122.478 1227.16 119.399 1222.58 Q116.343 1217.97 116.343 1209.24 Q116.343 1200.49 119.399 1195.91 Q122.478 1191.3 128.288 1191.3 Z" fill="#000000" fill-rule="nonzero" fill-opacity="1" /><path clip-path="url(#clip320)" d="M148.45 1220.61 L153.334 1220.61 L153.334 1226.49 L148.45 1226.49 L148.45 1220.61 Z" fill="#000000" fill-rule="nonzero" fill-opacity="1" /><path clip-path="url(#clip320)" d="M167.547 1222.55 L183.866 1222.55 L183.866 1226.49 L161.922 1226.49 L161.922 1222.55 Q164.584 1219.8 169.167 1215.17 Q173.774 1210.52 174.954 1209.18 Q177.2 1206.65 178.079 1204.92 Q178.982 1203.16 178.982 1201.47 Q178.982 1198.71 177.038 1196.98 Q175.116 1195.24 172.014 1195.24 Q169.815 1195.24 167.362 1196 Q164.931 1196.77 162.153 1198.32 L162.153 1193.6 Q164.977 1192.46 167.431 1191.88 Q169.885 1191.3 171.922 1191.3 Q177.292 1191.3 180.487 1193.99 Q183.681 1196.68 183.681 1201.17 Q183.681 1203.3 182.871 1205.22 Q182.084 1207.12 179.977 1209.71 Q179.399 1210.38 176.297 1213.6 Q173.195 1216.79 167.547 1222.55 Z" fill="#000000" fill-rule="nonzero" fill-opacity="1" /><path clip-path="url(#clip320)" d="M127.339 968.213 Q123.728 968.213 121.899 971.778 Q120.093 975.32 120.093 982.449 Q120.093 989.556 121.899 993.121 Q123.728 996.662 127.339 996.662 Q130.973 996.662 132.779 993.121 Q134.607 989.556 134.607 982.449 Q134.607 975.32 132.779 971.778 Q130.973 968.213 127.339 968.213 M127.339 964.51 Q133.149 964.51 136.204 969.116 Q139.283 973.699 139.283 982.449 Q139.283 991.176 136.204 995.783 Q133.149 1000.37 127.339 1000.37 Q121.529 1000.37 118.45 995.783 Q115.394 991.176 115.394 982.449 Q115.394 973.699 118.45 969.116 Q121.529 964.51 127.339 964.51 Z" fill="#000000" fill-rule="nonzero" fill-opacity="1" /><path clip-path="url(#clip320)" d="M147.501 993.815 L152.385 993.815 L152.385 999.695 L147.501 999.695 L147.501 993.815 Z" fill="#000000" fill-rule="nonzero" fill-opacity="1" /><path clip-path="url(#clip320)" d="M176.737 981.06 Q180.093 981.778 181.968 984.047 Q183.866 986.315 183.866 989.648 Q183.866 994.764 180.348 997.565 Q176.829 1000.37 170.348 1000.37 Q168.172 1000.37 165.857 999.926 Q163.565 999.509 161.112 998.653 L161.112 994.139 Q163.056 995.273 165.371 995.852 Q167.686 996.431 170.209 996.431 Q174.607 996.431 176.899 994.695 Q179.214 992.958 179.214 989.648 Q179.214 986.593 177.061 984.88 Q174.931 983.144 171.112 983.144 L167.084 983.144 L167.084 979.301 L171.297 979.301 Q174.746 979.301 176.575 977.935 Q178.403 976.547 178.403 973.954 Q178.403 971.292 176.505 969.88 Q174.63 968.445 171.112 968.445 Q169.19 968.445 166.991 968.861 Q164.792 969.278 162.153 970.158 L162.153 965.991 Q164.815 965.25 167.13 964.88 Q169.468 964.51 171.528 964.51 Q176.852 964.51 179.954 966.94 Q183.056 969.348 183.056 973.468 Q183.056 976.338 181.413 978.329 Q179.769 980.297 176.737 981.06 Z" fill="#000000" fill-rule="nonzero" fill-opacity="1" /><path clip-path="url(#clip320)" d="M126.205 741.418 Q122.593 741.418 120.765 744.983 Q118.959 748.524 118.959 755.654 Q118.959 762.76 120.765 766.325 Q122.593 769.867 126.205 769.867 Q129.839 769.867 131.644 766.325 Q133.473 762.76 133.473 755.654 Q133.473 748.524 131.644 744.983 Q129.839 741.418 126.205 741.418 M126.205 737.714 Q132.015 737.714 135.07 742.321 Q138.149 746.904 138.149 755.654 Q138.149 764.381 135.07 768.987 Q132.015 773.571 126.205 773.571 Q120.394 773.571 117.316 768.987 Q114.26 764.381 114.26 755.654 Q114.26 746.904 117.316 742.321 Q120.394 737.714 126.205 737.714 Z" fill="#000000" fill-rule="nonzero" fill-opacity="1" /><path clip-path="url(#clip320)" d="M146.366 767.02 L151.251 767.02 L151.251 772.899 L146.366 772.899 L146.366 767.02 Z" fill="#000000" fill-rule="nonzero" fill-opacity="1" /><path clip-path="url(#clip320)" d="M174.283 742.413 L162.477 760.862 L174.283 760.862 L174.283 742.413 M173.056 738.339 L178.936 738.339 L178.936 760.862 L183.866 760.862 L183.866 764.751 L178.936 764.751 L178.936 772.899 L174.283 772.899 L174.283 764.751 L158.681 764.751 L158.681 760.237 L173.056 738.339 Z" fill="#000000" fill-rule="nonzero" fill-opacity="1" /><path clip-path="url(#clip320)" d="M127.686 514.623 Q124.075 514.623 122.246 518.187 Q120.441 521.729 120.441 528.859 Q120.441 535.965 122.246 539.53 Q124.075 543.071 127.686 543.071 Q131.32 543.071 133.126 539.53 Q134.954 535.965 134.954 528.859 Q134.954 521.729 133.126 518.187 Q131.32 514.623 127.686 514.623 M127.686 510.919 Q133.496 510.919 136.552 515.525 Q139.63 520.109 139.63 528.859 Q139.63 537.585 136.552 542.192 Q133.496 546.775 127.686 546.775 Q121.876 546.775 118.797 542.192 Q115.742 537.585 115.742 528.859 Q115.742 520.109 118.797 515.525 Q121.876 510.919 127.686 510.919 Z" fill="#000000" fill-rule="nonzero" fill-opacity="1" /><path clip-path="url(#clip320)" d="M147.848 540.224 L152.732 540.224 L152.732 546.104 L147.848 546.104 L147.848 540.224 Z" fill="#000000" fill-rule="nonzero" fill-opacity="1" /><path clip-path="url(#clip320)" d="M162.964 511.544 L181.32 511.544 L181.32 515.479 L167.246 515.479 L167.246 523.951 Q168.264 523.604 169.283 523.442 Q170.302 523.257 171.32 523.257 Q177.107 523.257 180.487 526.428 Q183.866 529.599 183.866 535.016 Q183.866 540.595 180.394 543.696 Q176.922 546.775 170.602 546.775 Q168.427 546.775 166.158 546.405 Q163.913 546.034 161.505 545.294 L161.505 540.595 Q163.589 541.729 165.811 542.284 Q168.033 542.84 170.51 542.84 Q174.514 542.84 176.852 540.734 Q179.19 538.627 179.19 535.016 Q179.19 531.405 176.852 529.298 Q174.514 527.192 170.51 527.192 Q168.635 527.192 166.76 527.609 Q164.908 528.025 162.964 528.905 L162.964 511.544 Z" fill="#000000" fill-rule="nonzero" fill-opacity="1" /><path clip-path="url(#clip320)" d="M126.529 287.827 Q122.918 287.827 121.089 291.392 Q119.283 294.934 119.283 302.063 Q119.283 309.17 121.089 312.734 Q122.918 316.276 126.529 316.276 Q130.163 316.276 131.968 312.734 Q133.797 309.17 133.797 302.063 Q133.797 294.934 131.968 291.392 Q130.163 287.827 126.529 287.827 M126.529 284.123 Q132.339 284.123 135.394 288.73 Q138.473 293.313 138.473 302.063 Q138.473 310.79 135.394 315.396 Q132.339 319.98 126.529 319.98 Q120.718 319.98 117.64 315.396 Q114.584 310.79 114.584 302.063 Q114.584 293.313 117.64 288.73 Q120.718 284.123 126.529 284.123 Z" fill="#000000" fill-rule="nonzero" fill-opacity="1" /><path clip-path="url(#clip320)" d="M146.691 313.429 L151.575 313.429 L151.575 319.308 L146.691 319.308 L146.691 313.429 Z" fill="#000000" fill-rule="nonzero" fill-opacity="1" /><path clip-path="url(#clip320)" d="M172.339 300.165 Q169.19 300.165 167.339 302.318 Q165.51 304.471 165.51 308.221 Q165.51 311.947 167.339 314.123 Q169.19 316.276 172.339 316.276 Q175.487 316.276 177.315 314.123 Q179.167 311.947 179.167 308.221 Q179.167 304.471 177.315 302.318 Q175.487 300.165 172.339 300.165 M181.621 285.512 L181.621 289.772 Q179.862 288.938 178.056 288.498 Q176.274 288.059 174.514 288.059 Q169.885 288.059 167.431 291.184 Q165.001 294.309 164.653 300.628 Q166.019 298.614 168.079 297.549 Q170.139 296.461 172.616 296.461 Q177.825 296.461 180.834 299.633 Q183.866 302.781 183.866 308.221 Q183.866 313.545 180.718 316.762 Q177.57 319.98 172.339 319.98 Q166.343 319.98 163.172 315.396 Q160.001 310.79 160.001 302.063 Q160.001 293.869 163.89 289.008 Q167.778 284.123 174.329 284.123 Q176.089 284.123 177.871 284.471 Q179.676 284.818 181.621 285.512 Z" fill="#000000" fill-rule="nonzero" fill-opacity="1" /><path clip-path="url(#clip320)" d="M16.4842 957.947 L16.4842 948.367 L48.8219 936.24 L16.4842 924.05 L16.4842 914.47 L64.0042 914.47 L64.0042 920.74 L22.277 920.74 L54.8694 932.994 L54.8694 939.455 L22.277 951.709 L64.0042 951.709 L64.0042 957.947 L16.4842 957.947 Z" fill="#000000" fill-rule="nonzero" fill-opacity="1" /><path clip-path="url(#clip320)" d="M44.7161 871.469 L47.5806 871.469 L47.5806 898.396 Q53.6281 898.014 56.8109 894.768 Q59.9619 891.489 59.9619 885.665 Q59.9619 882.291 59.1344 879.14 Q58.3069 875.957 56.6518 872.838 L62.1899 872.838 Q63.5267 875.989 64.227 879.299 Q64.9272 882.609 64.9272 886.015 Q64.9272 894.545 59.9619 899.542 Q54.9967 904.507 46.5303 904.507 Q37.7774 904.507 32.6531 899.797 Q27.4968 895.054 27.4968 887.033 Q27.4968 879.84 32.1438 875.671 Q36.7589 871.469 44.7161 871.469 M42.9973 877.326 Q38.1912 877.389 35.3266 880.031 Q32.4621 882.641 32.4621 886.97 Q32.4621 891.871 35.2312 894.831 Q38.0002 897.76 43.0292 898.205 L42.9973 877.326 Z" fill="#000000" fill-rule="nonzero" fill-opacity="1" /><path clip-path="url(#clip320)" d="M46.0847 845.656 Q46.0847 852.754 47.7079 855.491 Q49.3312 858.229 53.2461 858.229 Q56.3653 858.229 58.2114 856.192 Q60.0256 854.123 60.0256 850.59 Q60.0256 845.72 56.5881 842.792 Q53.1188 839.832 47.3897 839.832 L46.0847 839.832 L46.0847 845.656 M43.6657 833.975 L64.0042 833.975 L64.0042 839.832 L58.5933 839.832 Q61.8398 841.837 63.3994 844.829 Q64.9272 847.821 64.9272 852.149 Q64.9272 857.624 61.8716 860.87 Q58.7843 864.085 53.6281 864.085 Q47.6125 864.085 44.5569 860.075 Q41.5014 856.032 41.5014 848.043 L41.5014 839.832 L40.9285 839.832 Q36.8862 839.832 34.6901 842.505 Q32.4621 845.147 32.4621 849.953 Q32.4621 853.009 33.1941 855.905 Q33.9262 858.802 35.3903 861.475 L29.9795 861.475 Q28.7381 858.26 28.1334 855.237 Q27.4968 852.213 27.4968 849.348 Q27.4968 841.614 31.5072 837.795 Q35.5176 833.975 43.6657 833.975 Z" fill="#000000" fill-rule="nonzero" fill-opacity="1" /><path clip-path="url(#clip320)" d="M42.4881 792.28 L64.0042 792.28 L64.0042 798.136 L42.679 798.136 Q37.6183 798.136 35.1038 800.11 Q32.5894 802.083 32.5894 806.03 Q32.5894 810.772 35.6131 813.51 Q38.6368 816.247 43.8567 816.247 L64.0042 816.247 L64.0042 822.135 L28.3562 822.135 L28.3562 816.247 L33.8944 816.247 Q30.6797 814.146 29.0883 811.313 Q27.4968 808.449 27.4968 804.725 Q27.4968 798.582 31.3163 795.431 Q35.1038 792.28 42.4881 792.28 Z" fill="#000000" fill-rule="nonzero" fill-opacity="1" /><path clip-path="url(#clip320)" d="M16.4842 759.624 L16.4842 753.194 L64.0042 753.194 L64.0042 759.624 L16.4842 759.624 Z" fill="#000000" fill-rule="nonzero" fill-opacity="1" /><path clip-path="url(#clip320)" d="M42.4881 711.022 L64.0042 711.022 L64.0042 716.878 L42.679 716.878 Q37.6183 716.878 35.1038 718.851 Q32.5894 720.825 32.5894 724.772 Q32.5894 729.514 35.6131 732.251 Q38.6368 734.989 43.8567 734.989 L64.0042 734.989 L64.0042 740.877 L28.3562 740.877 L28.3562 734.989 L33.8944 734.989 Q30.6797 732.888 29.0883 730.055 Q27.4968 727.191 27.4968 723.467 Q27.4968 717.324 31.3163 714.173 Q35.1038 711.022 42.4881 711.022 Z" fill="#000000" fill-rule="nonzero" fill-opacity="1" /><path clip-path="url(#clip320)" d="M33.7671 675.883 L14.479 675.883 L14.479 670.026 L64.0042 670.026 L64.0042 675.883 L58.657 675.883 Q61.8398 677.729 63.3994 680.562 Q64.9272 683.363 64.9272 687.309 Q64.9272 693.771 59.771 697.845 Q54.6147 701.887 46.212 701.887 Q37.8093 701.887 32.6531 697.845 Q27.4968 693.771 27.4968 687.309 Q27.4968 683.363 29.0564 680.562 Q30.5842 677.729 33.7671 675.883 M46.212 695.839 Q52.6732 695.839 56.3653 693.198 Q60.0256 690.524 60.0256 685.877 Q60.0256 681.23 56.3653 678.557 Q52.6732 675.883 46.212 675.883 Q39.7508 675.883 36.0905 678.557 Q32.3984 681.23 32.3984 685.877 Q32.3984 690.524 36.0905 693.198 Q39.7508 695.839 46.212 695.839 Z" fill="#000000" fill-rule="nonzero" fill-opacity="1" /><path clip-path="url(#clip320)" d="M44.7161 627.472 L47.5806 627.472 L47.5806 654.399 Q53.6281 654.017 56.8109 650.77 Q59.9619 647.492 59.9619 641.667 Q59.9619 638.293 59.1344 635.142 Q58.3069 631.96 56.6518 628.84 L62.1899 628.84 Q63.5267 631.991 64.227 635.302 Q64.9272 638.612 64.9272 642.017 Q64.9272 650.547 59.9619 655.544 Q54.9967 660.51 46.5303 660.51 Q37.7774 660.51 32.6531 655.799 Q27.4968 651.057 27.4968 643.036 Q27.4968 635.843 32.1438 631.673 Q36.7589 627.472 44.7161 627.472 M42.9973 633.328 Q38.1912 633.392 35.3266 636.034 Q32.4621 638.644 32.4621 642.972 Q32.4621 647.874 35.2312 650.834 Q38.0002 653.762 43.0292 654.208 L42.9973 633.328 Z" fill="#000000" fill-rule="nonzero" fill-opacity="1" /><path clip-path="url(#clip320)" d="M28.3562 589.373 L45.7028 602.264 L64.0042 588.705 L64.0042 595.611 L49.9996 605.987 L64.0042 616.364 L64.0042 623.27 L45.3526 609.425 L28.3562 622.093 L28.3562 615.186 L41.0558 605.733 L28.3562 596.28 L28.3562 589.373 Z" fill="#000000" fill-rule="nonzero" fill-opacity="1" /><path clip-path="url(#clip320)" d="M934.814 12.096 L945.833 12.096 L972.65 62.6918 L972.65 12.096 L980.589 12.096 L980.589 72.576 L969.571 72.576 L942.754 21.9802 L942.754 72.576 L934.814 72.576 L934.814 12.096 Z" fill="#000000" fill-rule="nonzero" fill-opacity="1" /><path clip-path="url(#clip320)" d="M995.78 54.671 L995.78 27.2059 L1003.23 27.2059 L1003.23 54.3874 Q1003.23 60.8284 1005.75 64.0691 Q1008.26 67.2693 1013.28 67.2693 Q1019.32 67.2693 1022.8 63.421 Q1026.32 59.5726 1026.32 52.9291 L1026.32 27.2059 L1033.78 27.2059 L1033.78 72.576 L1026.32 72.576 L1026.32 65.6084 Q1023.61 69.7404 1020 71.7658 Q1016.44 73.7508 1011.7 73.7508 Q1003.88 73.7508 999.831 68.8897 Q995.78 64.0286 995.78 54.671 M1014.54 26.1121 L1014.54 26.1121 Z" fill="#000000" fill-rule="nonzero" fill-opacity="1" /><path clip-path="url(#clip320)" d="M1084.45 35.9153 Q1087.25 30.8922 1091.14 28.5022 Q1095.03 26.1121 1100.29 26.1121 Q1107.38 26.1121 1111.23 31.0947 Q1115.08 36.0368 1115.08 45.1919 L1115.08 72.576 L1107.59 72.576 L1107.59 45.4349 Q1107.59 38.913 1105.28 35.7533 Q1102.97 32.5936 1098.23 32.5936 Q1092.43 32.5936 1089.07 36.4419 Q1085.71 40.2903 1085.71 46.9338 L1085.71 72.576 L1078.22 72.576 L1078.22 45.4349 Q1078.22 38.8725 1075.91 35.7533 Q1073.6 32.5936 1068.78 32.5936 Q1063.07 32.5936 1059.7 36.4824 Q1056.34 40.3308 1056.34 46.9338 L1056.34 72.576 L1048.85 72.576 L1048.85 27.2059 L1056.34 27.2059 L1056.34 34.2544 Q1058.89 30.082 1062.46 28.0971 Q1066.02 26.1121 1070.92 26.1121 Q1075.87 26.1121 1079.31 28.6237 Q1082.79 31.1352 1084.45 35.9153 Z" fill="#000000" fill-rule="nonzero" fill-opacity="1" /><path clip-path="url(#clip320)" d="M1162.52 49.9314 Q1162.52 41.7081 1159.11 37.0496 Q1155.75 32.3505 1149.84 32.3505 Q1143.92 32.3505 1140.52 37.0496 Q1137.16 41.7081 1137.16 49.9314 Q1137.16 58.1548 1140.52 62.8538 Q1143.92 67.5124 1149.84 67.5124 Q1155.75 67.5124 1159.11 62.8538 Q1162.52 58.1548 1162.52 49.9314 M1137.16 34.0924 Q1139.51 30.0415 1143.07 28.0971 Q1146.68 26.1121 1151.66 26.1121 Q1159.92 26.1121 1165.07 32.6746 Q1170.25 39.2371 1170.25 49.9314 Q1170.25 60.6258 1165.07 67.1883 Q1159.92 73.7508 1151.66 73.7508 Q1146.68 73.7508 1143.07 71.8063 Q1139.51 69.8214 1137.16 65.7705 L1137.16 72.576 L1129.66 72.576 L1129.66 9.54393 L1137.16 9.54393 L1137.16 34.0924 Z" fill="#000000" fill-rule="nonzero" fill-opacity="1" /><path clip-path="url(#clip320)" d="M1221.42 48.0275 L1221.42 51.6733 L1187.14 51.6733 Q1187.63 59.3701 1191.76 63.421 Q1195.94 67.4314 1203.35 67.4314 Q1207.64 67.4314 1211.65 66.3781 Q1215.7 65.3249 1219.67 63.2184 L1219.67 70.267 Q1215.66 71.9684 1211.45 72.8596 Q1207.24 73.7508 1202.9 73.7508 Q1192.05 73.7508 1185.69 67.4314 Q1179.37 61.1119 1179.37 50.3365 Q1179.37 39.1965 1185.36 32.6746 Q1191.4 26.1121 1201.61 26.1121 Q1210.76 26.1121 1216.07 32.0264 Q1221.42 37.9003 1221.42 48.0275 M1213.96 45.84 Q1213.88 39.7232 1210.52 36.0774 Q1207.2 32.4315 1201.69 32.4315 Q1195.45 32.4315 1191.68 35.9558 Q1187.96 39.4801 1187.39 45.8805 L1213.96 45.84 Z" fill="#000000" fill-rule="nonzero" fill-opacity="1" /><path clip-path="url(#clip320)" d="M1259.94 34.1734 Q1258.68 33.4443 1257.19 33.1202 Q1255.73 32.7556 1253.94 32.7556 Q1247.62 32.7556 1244.22 36.8875 Q1240.86 40.9789 1240.86 48.6757 L1240.86 72.576 L1233.37 72.576 L1233.37 27.2059 L1240.86 27.2059 L1240.86 34.2544 Q1243.21 30.1225 1246.98 28.1376 Q1250.74 26.1121 1256.13 26.1121 Q1256.9 26.1121 1257.83 26.2337 Q1258.76 26.3147 1259.9 26.5172 L1259.94 34.1734 Z" fill="#000000" fill-rule="nonzero" fill-opacity="1" /><path clip-path="url(#clip320)" d="M1311.71 32.4315 Q1305.71 32.4315 1302.23 37.1306 Q1298.75 41.7891 1298.75 49.9314 Q1298.75 58.0738 1302.19 62.7728 Q1305.67 67.4314 1311.71 67.4314 Q1317.67 67.4314 1321.15 62.7323 Q1324.63 58.0333 1324.63 49.9314 Q1324.63 41.8701 1321.15 37.1711 Q1317.67 32.4315 1311.71 32.4315 M1311.71 26.1121 Q1321.43 26.1121 1326.98 32.4315 Q1332.53 38.7509 1332.53 49.9314 Q1332.53 61.0714 1326.98 67.4314 Q1321.43 73.7508 1311.71 73.7508 Q1301.95 73.7508 1296.4 67.4314 Q1290.89 61.0714 1290.89 49.9314 Q1290.89 38.7509 1296.4 32.4315 Q1301.95 26.1121 1311.71 26.1121 Z" fill="#000000" fill-rule="nonzero" fill-opacity="1" /><path clip-path="url(#clip320)" d="M1367.86 9.54393 L1367.86 15.7418 L1360.73 15.7418 Q1356.72 15.7418 1355.14 17.3622 Q1353.6 18.9825 1353.6 23.1955 L1353.6 27.2059 L1365.87 27.2059 L1365.87 32.9987 L1353.6 32.9987 L1353.6 72.576 L1346.1 72.576 L1346.1 32.9987 L1338.97 32.9987 L1338.97 27.2059 L1346.1 27.2059 L1346.1 24.0462 Q1346.1 16.471 1349.63 13.0277 Q1353.15 9.54393 1360.81 9.54393 L1367.86 9.54393 Z" fill="#000000" fill-rule="nonzero" fill-opacity="1" /><path clip-path="url(#clip320)" d="M1408.97 18.8205 L1408.97 41.5461 L1419.26 41.5461 Q1424.97 41.5461 1428.09 38.5889 Q1431.21 35.6318 1431.21 30.163 Q1431.21 24.7348 1428.09 21.7777 Q1424.97 18.8205 1419.26 18.8205 L1408.97 18.8205 M1400.79 12.096 L1419.26 12.096 Q1429.43 12.096 1434.61 16.714 Q1439.84 21.2916 1439.84 30.163 Q1439.84 39.1155 1434.61 43.6931 Q1429.43 48.2706 1419.26 48.2706 L1408.97 48.2706 L1408.97 72.576 L1400.79 72.576 L1400.79 12.096 Z" fill="#000000" fill-rule="nonzero" fill-opacity="1" /><path clip-path="url(#clip320)" d="M1465.12 32.4315 Q1459.12 32.4315 1455.64 37.1306 Q1452.16 41.7891 1452.16 49.9314 Q1452.16 58.0738 1455.6 62.7728 Q1459.08 67.4314 1465.12 67.4314 Q1471.07 67.4314 1474.56 62.7323 Q1478.04 58.0333 1478.04 49.9314 Q1478.04 41.8701 1474.56 37.1711 Q1471.07 32.4315 1465.12 32.4315 M1465.12 26.1121 Q1474.84 26.1121 1480.39 32.4315 Q1485.94 38.7509 1485.94 49.9314 Q1485.94 61.0714 1480.39 67.4314 Q1474.84 73.7508 1465.12 73.7508 Q1455.36 73.7508 1449.81 67.4314 Q1444.3 61.0714 1444.3 49.9314 Q1444.3 38.7509 1449.81 32.4315 Q1455.36 26.1121 1465.12 26.1121 Z" fill="#000000" fill-rule="nonzero" fill-opacity="1" /><path clip-path="url(#clip320)" d="M1498.29 27.2059 L1505.75 27.2059 L1505.75 72.576 L1498.29 72.576 L1498.29 27.2059 M1498.29 9.54393 L1505.75 9.54393 L1505.75 18.9825 L1498.29 18.9825 L1498.29 9.54393 Z" fill="#000000" fill-rule="nonzero" fill-opacity="1" /><path clip-path="url(#clip320)" d="M1559.06 45.1919 L1559.06 72.576 L1551.6 72.576 L1551.6 45.4349 Q1551.6 38.994 1549.09 35.7938 Q1546.58 32.5936 1541.56 32.5936 Q1535.52 32.5936 1532.04 36.4419 Q1528.56 40.2903 1528.56 46.9338 L1528.56 72.576 L1521.06 72.576 L1521.06 27.2059 L1528.56 27.2059 L1528.56 34.2544 Q1531.23 30.163 1534.83 28.1376 Q1538.48 26.1121 1543.22 26.1121 Q1551.04 26.1121 1555.05 30.9732 Q1559.06 35.7938 1559.06 45.1919 Z" fill="#000000" fill-rule="nonzero" fill-opacity="1" /><path clip-path="url(#clip320)" d="M1581.3 14.324 L1581.3 27.2059 L1596.65 27.2059 L1596.65 32.9987 L1581.3 32.9987 L1581.3 57.6282 Q1581.3 63.1779 1582.8 64.7578 Q1584.34 66.3376 1588.99 66.3376 L1596.65 66.3376 L1596.65 72.576 L1588.99 72.576 Q1580.37 72.576 1577.08 69.3758 Q1573.8 66.1351 1573.8 57.6282 L1573.8 32.9987 L1568.34 32.9987 L1568.34 27.2059 L1573.8 27.2059 L1573.8 14.324 L1581.3 14.324 Z" fill="#000000" fill-rule="nonzero" fill-opacity="1" /><path clip-path="url(#clip320)" d="M1635.38 28.5427 L1635.38 35.5912 Q1632.22 33.9709 1628.82 33.1607 Q1625.41 32.3505 1621.77 32.3505 Q1616.22 32.3505 1613.42 34.0519 Q1610.67 35.7533 1610.67 39.156 Q1610.67 41.7486 1612.65 43.2475 Q1614.64 44.7058 1620.63 46.0426 L1623.18 46.6097 Q1631.12 48.3111 1634.45 51.4303 Q1637.81 54.509 1637.81 60.0587 Q1637.81 66.3781 1632.78 70.0644 Q1627.8 73.7508 1619.05 73.7508 Q1615.41 73.7508 1611.44 73.0216 Q1607.51 72.3329 1603.13 70.9151 L1603.13 63.2184 Q1607.26 65.3654 1611.27 66.4591 Q1615.29 67.5124 1619.21 67.5124 Q1624.48 67.5124 1627.32 65.73 Q1630.15 63.9071 1630.15 60.6258 Q1630.15 57.5877 1628.09 55.9673 Q1626.06 54.3469 1619.13 52.8481 L1616.54 52.2405 Q1609.61 50.7821 1606.54 47.7845 Q1603.46 44.7463 1603.46 39.4801 Q1603.46 33.0797 1607.99 29.5959 Q1612.53 26.1121 1620.88 26.1121 Q1625.01 26.1121 1628.65 26.7198 Q1632.3 27.3274 1635.38 28.5427 Z" fill="#000000" fill-rule="nonzero" fill-opacity="1" /><polyline clip-path="url(#clip322)" style="stroke:#50ad9f; stroke-linecap:round; stroke-linejoin:round; stroke-width:8; stroke-opacity:1; fill:none" points="280.231,939.862 312.17,1025.31 376.048,1078.84 503.804,1105.22 759.317,1124.55 1270.34,1130.39 2292.39,1131.5 "/>
<circle clip-path="url(#clip322)" cx="280.231" cy="939.862" r="25.2" fill="#50ad9f" fill-rule="evenodd" fill-opacity="1" stroke="#000000" stroke-opacity="1" stroke-width="3.2"/>
<circle clip-path="url(#clip322)" cx="312.17" cy="1025.31" r="25.2" fill="#50ad9f" fill-rule="evenodd" fill-opacity="1" stroke="#000000" stroke-opacity="1" stroke-width="3.2"/>
<circle clip-path="url(#clip322)" cx="376.048" cy="1078.84" r="25.2" fill="#50ad9f" fill-rule="evenodd" fill-opacity="1" stroke="#000000" stroke-opacity="1" stroke-width="3.2"/>
<circle clip-path="url(#clip322)" cx="503.804" cy="1105.22" r="25.2" fill="#50ad9f" fill-rule="evenodd" fill-opacity="1" stroke="#000000" stroke-opacity="1" stroke-width="3.2"/>
<circle clip-path="url(#clip322)" cx="759.317" cy="1124.55" r="25.2" fill="#50ad9f" fill-rule="evenodd" fill-opacity="1" stroke="#000000" stroke-opacity="1" stroke-width="3.2"/>
<circle clip-path="url(#clip322)" cx="1270.34" cy="1130.39" r="25.2" fill="#50ad9f" fill-rule="evenodd" fill-opacity="1" stroke="#000000" stroke-opacity="1" stroke-width="3.2"/>
<circle clip-path="url(#clip322)" cx="2292.39" cy="1131.5" r="25.2" fill="#50ad9f" fill-rule="evenodd" fill-opacity="1" stroke="#000000" stroke-opacity="1" stroke-width="3.2"/>
<polyline clip-path="url(#clip322)" style="stroke:#0000a2; stroke-linecap:round; stroke-linejoin:round; stroke-width:8; stroke-opacity:1; fill:none" points="280.231,1218.16 312.17,1301.78 376.048,1343.23 503.804,1365.32 759.317,1377 1270.34,1383.18 2292.39,1386.4 "/>
<path clip-path="url(#clip322)" d="M260.231 1198.16 L260.231 1238.16 L300.231 1238.16 L300.231 1198.16 L260.231 1198.16 Z" fill="#0000a2" fill-rule="evenodd" fill-opacity="1" stroke="#000000" stroke-opacity="1" stroke-width="3.2"/>
<path clip-path="url(#clip322)" d="M292.17 1281.78 L292.17 1321.78 L332.17 1321.78 L332.17 1281.78 L292.17 1281.78 Z" fill="#0000a2" fill-rule="evenodd" fill-opacity="1" stroke="#000000" stroke-opacity="1" stroke-width="3.2"/>
<path clip-path="url(#clip322)" d="M356.048 1323.23 L356.048 1363.23 L396.048 1363.23 L396.048 1323.23 L356.048 1323.23 Z" fill="#0000a2" fill-rule="evenodd" fill-opacity="1" stroke="#000000" stroke-opacity="1" stroke-width="3.2"/>
<path clip-path="url(#clip322)" d="M483.804 1345.32 L483.804 1385.32 L523.804 1385.32 L523.804 1345.32 L483.804 1345.32 Z" fill="#0000a2" fill-rule="evenodd" fill-opacity="1" stroke="#000000" stroke-opacity="1" stroke-width="3.2"/>
<path clip-path="url(#clip322)" d="M739.317 1357 L739.317 1397 L779.317 1397 L779.317 1357 L739.317 1357 Z" fill="#0000a2" fill-rule="evenodd" fill-opacity="1" stroke="#000000" stroke-opacity="1" stroke-width="3.2"/>
<path clip-path="url(#clip322)" d="M1250.34 1363.18 L1250.34 1403.18 L1290.34 1403.18 L1290.34 1363.18 L1250.34 1363.18 Z" fill="#0000a2" fill-rule="evenodd" fill-opacity="1" stroke="#000000" stroke-opacity="1" stroke-width="3.2"/>
<path clip-path="url(#clip322)" d="M2272.39 1366.4 L2272.39 1406.4 L2312.39 1406.4 L2312.39 1366.4 L2272.39 1366.4 Z" fill="#0000a2" fill-rule="evenodd" fill-opacity="1" stroke="#000000" stroke-opacity="1" stroke-width="3.2"/>
<polyline clip-path="url(#clip322)" style="stroke:#bc272d; stroke-linecap:round; stroke-linejoin:round; stroke-width:8; stroke-opacity:1; fill:none" points="280.231,160.256 312.17,164.085 376.048,168.613 503.804,169.805 759.317,170.912 1270.34,171.541 2292.39,171.632 "/>
<path clip-path="url(#clip322)" d="M280.231 132.256 L273.651 151.184 L253.603 151.604 L269.591 163.728 L263.767 182.908 L280.231 171.456 L296.695 182.908 L290.871 163.728 L306.859 151.604 L286.811 151.184 L280.231 132.256 Z" fill="#bc272d" fill-rule="evenodd" fill-opacity="1" stroke="#000000" stroke-opacity="1" stroke-width="3.2"/>
<path clip-path="url(#clip322)" d="M312.17 136.085 L305.59 155.013 L285.542 155.433 L301.53 167.557 L295.706 186.737 L312.17 175.285 L328.634 186.737 L322.81 167.557 L338.798 155.433 L318.75 155.013 L312.17 136.085 Z" fill="#bc272d" fill-rule="evenodd" fill-opacity="1" stroke="#000000" stroke-opacity="1" stroke-width="3.2"/>
<path clip-path="url(#clip322)" d="M376.048 140.613 L369.468 159.541 L349.42 159.961 L365.408 172.085 L359.584 191.265 L376.048 179.813 L392.512 191.265 L386.688 172.085 L402.676 159.961 L382.628 159.541 L376.048 140.613 Z" fill="#bc272d" fill-rule="evenodd" fill-opacity="1" stroke="#000000" stroke-opacity="1" stroke-width="3.2"/>
<path clip-path="url(#clip322)" d="M503.804 141.805 L497.224 160.733 L477.176 161.153 L493.164 173.277 L487.34 192.457 L503.804 181.005 L520.268 192.457 L514.444 173.277 L530.432 161.153 L510.384 160.733 L503.804 141.805 Z" fill="#bc272d" fill-rule="evenodd" fill-opacity="1" stroke="#000000" stroke-opacity="1" stroke-width="3.2"/>
<path clip-path="url(#clip322)" d="M759.317 142.912 L752.737 161.84 L732.689 162.26 L748.677 174.384 L742.853 193.564 L759.317 182.112 L775.781 193.564 L769.957 174.384 L785.945 162.26 L765.897 161.84 L759.317 142.912 Z" fill="#bc272d" fill-rule="evenodd" fill-opacity="1" stroke="#000000" stroke-opacity="1" stroke-width="3.2"/>
<path clip-path="url(#clip322)" d="M1270.34 143.541 L1263.76 162.469 L1243.71 162.889 L1259.7 175.013 L1253.88 194.193 L1270.34 182.741 L1286.81 194.193 L1280.98 175.013 L1296.97 162.889 L1276.92 162.469 L1270.34 143.541 Z" fill="#bc272d" fill-rule="evenodd" fill-opacity="1" stroke="#000000" stroke-opacity="1" stroke-width="3.2"/>
<path clip-path="url(#clip322)" d="M2292.39 143.632 L2285.81 162.56 L2265.76 162.98 L2281.75 175.104 L2275.93 194.284 L2292.39 182.832 L2308.86 194.284 L2303.03 175.104 L2319.02 162.98 L2298.97 162.56 L2292.39 143.632 Z" fill="#bc272d" fill-rule="evenodd" fill-opacity="1" stroke="#000000" stroke-opacity="1" stroke-width="3.2"/>
<polyline clip-path="url(#clip322)" style="stroke:#e9c716; stroke-linecap:round; stroke-linejoin:round; stroke-width:8; stroke-opacity:1; fill:none" points="280.231,1133.54 312.17,1100.59 376.048,1093 503.804,1088.57 759.317,1086.91 1270.34,1086.27 2292.39,1085.53 "/>
<path clip-path="url(#clip322)" d="M280.231 1105.54 L252.231 1161.54 L308.231 1161.54 L280.231 1105.54 Z" fill="#e9c716" fill-rule="evenodd" fill-opacity="1" stroke="#000000" stroke-opacity="1" stroke-width="3.2"/>
<path clip-path="url(#clip322)" d="M312.17 1072.59 L284.17 1128.59 L340.17 1128.59 L312.17 1072.59 Z" fill="#e9c716" fill-rule="evenodd" fill-opacity="1" stroke="#000000" stroke-opacity="1" stroke-width="3.2"/>
<path clip-path="url(#clip322)" d="M376.048 1065 L348.048 1121 L404.048 1121 L376.048 1065 Z" fill="#e9c716" fill-rule="evenodd" fill-opacity="1" stroke="#000000" stroke-opacity="1" stroke-width="3.2"/>
<path clip-path="url(#clip322)" d="M503.804 1060.57 L475.804 1116.57 L531.804 1116.57 L503.804 1060.57 Z" fill="#e9c716" fill-rule="evenodd" fill-opacity="1" stroke="#000000" stroke-opacity="1" stroke-width="3.2"/>
<path clip-path="url(#clip322)" d="M759.317 1058.91 L731.317 1114.91 L787.317 1114.91 L759.317 1058.91 Z" fill="#e9c716" fill-rule="evenodd" fill-opacity="1" stroke="#000000" stroke-opacity="1" stroke-width="3.2"/>
<path clip-path="url(#clip322)" d="M1270.34 1058.27 L1242.34 1114.27 L1298.34 1114.27 L1270.34 1058.27 Z" fill="#e9c716" fill-rule="evenodd" fill-opacity="1" stroke="#000000" stroke-opacity="1" stroke-width="3.2"/>
<path clip-path="url(#clip322)" d="M2292.39 1057.53 L2264.39 1113.53 L2320.39 1113.53 L2292.39 1057.53 Z" fill="#e9c716" fill-rule="evenodd" fill-opacity="1" stroke="#000000" stroke-opacity="1" stroke-width="3.2"/>
<path clip-path="url(#clip320)" d="M1956.15 920.33 L2281.66 920.33 L2281.66 661.13 L1956.15 661.13  Z" fill="#ffffff" fill-rule="evenodd" fill-opacity="1"/>
<polyline clip-path="url(#clip320)" style="stroke:#000000; stroke-linecap:round; stroke-linejoin:round; stroke-width:4; stroke-opacity:1; fill:none" points="1956.15,920.33 2281.66,920.33 2281.66,661.13 1956.15,661.13 1956.15,920.33 "/>
<polyline clip-path="url(#clip320)" style="stroke:#50ad9f; stroke-linecap:round; stroke-linejoin:round; stroke-width:8; stroke-opacity:1; fill:none" points="1979.85,712.97 2122.04,712.97 "/>
<circle clip-path="url(#clip320)" cx="2050.94" cy="712.97" r="19.749" fill="#50ad9f" fill-rule="evenodd" fill-opacity="1" stroke="#000000" stroke-opacity="1" stroke-width="2.73067"/>
<path clip-path="url(#clip320)" d="M2145.74 695.69 L2165.6 695.69 L2165.6 699.625 L2150.42 699.625 L2150.42 709.81 L2164.12 709.81 L2164.12 713.745 L2150.42 713.745 L2150.42 730.25 L2145.74 730.25 L2145.74 695.69 Z" fill="#000000" fill-rule="nonzero" fill-opacity="1" /><path clip-path="url(#clip320)" d="M2169.37 704.324 L2173.63 704.324 L2173.63 730.25 L2169.37 730.25 L2169.37 704.324 M2169.37 694.231 L2173.63 694.231 L2173.63 699.625 L2169.37 699.625 L2169.37 694.231 Z" fill="#000000" fill-rule="nonzero" fill-opacity="1" /><path clip-path="url(#clip320)" d="M2186.76 696.963 L2186.76 704.324 L2195.53 704.324 L2195.53 707.634 L2186.76 707.634 L2186.76 721.708 Q2186.76 724.879 2187.61 725.782 Q2188.49 726.685 2191.16 726.685 L2195.53 726.685 L2195.53 730.25 L2191.16 730.25 Q2186.23 730.25 2184.35 728.421 Q2182.48 726.569 2182.48 721.708 L2182.48 707.634 L2179.35 707.634 L2179.35 704.324 L2182.48 704.324 L2182.48 696.963 L2186.76 696.963 Z" fill="#000000" fill-rule="nonzero" fill-opacity="1" /><polyline clip-path="url(#clip320)" style="stroke:#0000a2; stroke-linecap:round; stroke-linejoin:round; stroke-width:8; stroke-opacity:1; fill:none" points="1979.85,764.81 2122.04,764.81 "/>
<path clip-path="url(#clip320)" d="M2029 742.866 L2029 786.753 L2072.89 786.753 L2072.89 742.866 L2029 742.866 Z" fill="#0000a2" fill-rule="evenodd" fill-opacity="1" stroke="#000000" stroke-opacity="1" stroke-width="3.72364"/>
<path clip-path="url(#clip320)" d="M2167.98 748.664 L2167.98 753.224 Q2165.32 751.951 2162.96 751.326 Q2160.6 750.701 2158.4 750.701 Q2154.58 750.701 2152.5 752.182 Q2150.44 753.664 2150.44 756.395 Q2150.44 758.687 2151.8 759.867 Q2153.19 761.025 2157.04 761.742 L2159.86 762.321 Q2165.09 763.317 2167.57 765.84 Q2170.07 768.34 2170.07 772.553 Q2170.07 777.576 2166.69 780.168 Q2163.33 782.761 2156.83 782.761 Q2154.37 782.761 2151.6 782.205 Q2148.84 781.65 2145.88 780.562 L2145.88 775.747 Q2148.73 777.344 2151.46 778.154 Q2154.19 778.965 2156.83 778.965 Q2160.83 778.965 2163.01 777.391 Q2165.18 775.816 2165.18 772.9 Q2165.18 770.354 2163.61 768.918 Q2162.06 767.483 2158.49 766.766 L2155.65 766.21 Q2150.42 765.168 2148.08 762.946 Q2145.74 760.724 2145.74 756.766 Q2145.74 752.182 2148.96 749.543 Q2152.2 746.905 2157.87 746.905 Q2160.3 746.905 2162.82 747.344 Q2165.35 747.784 2167.98 748.664 Z" fill="#000000" fill-rule="nonzero" fill-opacity="1" /><path clip-path="url(#clip320)" d="M2187.96 784.497 Q2186.16 789.127 2184.44 790.539 Q2182.73 791.951 2179.86 791.951 L2176.46 791.951 L2176.46 788.386 L2178.96 788.386 Q2180.72 788.386 2181.69 787.553 Q2182.66 786.719 2183.84 783.617 L2184.6 781.673 L2174.12 756.164 L2178.63 756.164 L2186.73 776.441 L2194.84 756.164 L2199.35 756.164 L2187.96 784.497 Z" fill="#000000" fill-rule="nonzero" fill-opacity="1" /><path clip-path="url(#clip320)" d="M2225.41 761.141 Q2227.01 758.27 2229.23 756.905 Q2231.46 755.539 2234.47 755.539 Q2238.52 755.539 2240.72 758.386 Q2242.91 761.21 2242.91 766.442 L2242.91 782.09 L2238.63 782.09 L2238.63 766.58 Q2238.63 762.854 2237.31 761.048 Q2235.99 759.242 2233.29 759.242 Q2229.97 759.242 2228.05 761.442 Q2226.13 763.641 2226.13 767.437 L2226.13 782.09 L2221.85 782.09 L2221.85 766.58 Q2221.85 762.83 2220.53 761.048 Q2219.21 759.242 2216.46 759.242 Q2213.19 759.242 2211.27 761.465 Q2209.35 763.664 2209.35 767.437 L2209.35 782.09 L2205.07 782.09 L2205.07 756.164 L2209.35 756.164 L2209.35 760.192 Q2210.81 757.807 2212.85 756.673 Q2214.88 755.539 2217.68 755.539 Q2220.51 755.539 2222.47 756.974 Q2224.47 758.409 2225.41 761.141 Z" fill="#000000" fill-rule="nonzero" fill-opacity="1" /><polyline clip-path="url(#clip320)" style="stroke:#bc272d; stroke-linecap:round; stroke-linejoin:round; stroke-width:8; stroke-opacity:1; fill:none" points="1979.85,816.65 2122.04,816.65 "/>
<path clip-path="url(#clip320)" d="M2050.94 794.706 L2045.79 809.54 L2030.08 809.869 L2042.61 819.371 L2038.04 834.402 L2050.94 825.427 L2063.85 834.402 L2059.28 819.371 L2071.81 809.869 L2056.1 809.54 L2050.94 794.706 Z" fill="#bc272d" fill-rule="evenodd" fill-opacity="1" stroke="#000000" stroke-opacity="1" stroke-width="2.73067"/>
<path clip-path="url(#clip320)" d="M2145.74 799.37 L2165.6 799.37 L2165.6 803.305 L2150.42 803.305 L2150.42 813.49 L2164.12 813.49 L2164.12 817.425 L2150.42 817.425 L2150.42 833.93 L2145.74 833.93 L2145.74 799.37 Z" fill="#000000" fill-rule="nonzero" fill-opacity="1" /><path clip-path="url(#clip320)" d="M2172.82 797.911 L2177.08 797.911 L2177.08 833.93 L2172.82 833.93 L2172.82 797.911 Z" fill="#000000" fill-rule="nonzero" fill-opacity="1" /><path clip-path="url(#clip320)" d="M2197.78 820.897 Q2192.61 820.897 2190.62 822.078 Q2188.63 823.258 2188.63 826.106 Q2188.63 828.374 2190.11 829.717 Q2191.62 831.036 2194.19 831.036 Q2197.73 831.036 2199.86 828.536 Q2202.01 826.013 2202.01 821.846 L2202.01 820.897 L2197.78 820.897 M2206.27 819.138 L2206.27 833.93 L2202.01 833.93 L2202.01 829.994 Q2200.55 832.356 2198.38 833.49 Q2196.2 834.601 2193.05 834.601 Q2189.07 834.601 2186.71 832.379 Q2184.37 830.133 2184.37 826.383 Q2184.37 822.008 2187.29 819.786 Q2190.23 817.564 2196.04 817.564 L2202.01 817.564 L2202.01 817.147 Q2202.01 814.207 2200.07 812.61 Q2198.15 810.99 2194.65 810.99 Q2192.43 810.99 2190.32 811.522 Q2188.22 812.055 2186.27 813.12 L2186.27 809.184 Q2188.61 808.282 2190.81 807.842 Q2193.01 807.379 2195.09 807.379 Q2200.72 807.379 2203.49 810.295 Q2206.27 813.212 2206.27 819.138 Z" fill="#000000" fill-rule="nonzero" fill-opacity="1" /><path clip-path="url(#clip320)" d="M2219.26 800.643 L2219.26 808.004 L2228.03 808.004 L2228.03 811.314 L2219.26 811.314 L2219.26 825.388 Q2219.26 828.559 2220.11 829.462 Q2220.99 830.365 2223.66 830.365 L2228.03 830.365 L2228.03 833.93 L2223.66 833.93 Q2218.72 833.93 2216.85 832.101 Q2214.97 830.249 2214.97 825.388 L2214.97 811.314 L2211.85 811.314 L2211.85 808.004 L2214.97 808.004 L2214.97 800.643 L2219.26 800.643 Z" fill="#000000" fill-rule="nonzero" fill-opacity="1" /><polyline clip-path="url(#clip320)" style="stroke:#e9c716; stroke-linecap:round; stroke-linejoin:round; stroke-width:8; stroke-opacity:1; fill:none" points="1979.85,868.49 2122.04,868.49 "/>
<path clip-path="url(#clip320)" d="M2050.94 846.546 L2029 890.433 L2072.89 890.433 L2050.94 846.546 Z" fill="#e9c716" fill-rule="evenodd" fill-opacity="1" stroke="#000000" stroke-opacity="1" stroke-width="2.73067"/>
<path clip-path="url(#clip320)" d="M2150.42 855.052 L2150.42 868.038 L2156.29 868.038 Q2159.56 868.038 2161.34 866.348 Q2163.12 864.659 2163.12 861.534 Q2163.12 858.432 2161.34 856.742 Q2159.56 855.052 2156.29 855.052 L2150.42 855.052 M2145.74 851.21 L2156.29 851.21 Q2162.1 851.21 2165.07 853.848 Q2168.05 856.464 2168.05 861.534 Q2168.05 866.649 2165.07 869.265 Q2162.1 871.881 2156.29 871.881 L2150.42 871.881 L2150.42 885.77 L2145.74 885.77 L2145.74 851.21 Z" fill="#000000" fill-rule="nonzero" fill-opacity="1" /><path clip-path="url(#clip320)" d="M2194.63 871.742 L2194.63 873.825 L2175.04 873.825 Q2175.32 878.223 2177.68 880.538 Q2180.07 882.83 2184.3 882.83 Q2186.76 882.83 2189.05 882.228 Q2191.36 881.626 2193.63 880.422 L2193.63 884.45 Q2191.34 885.422 2188.93 885.932 Q2186.53 886.441 2184.05 886.441 Q2177.85 886.441 2174.21 882.83 Q2170.6 879.219 2170.6 873.061 Q2170.6 866.696 2174.03 862.969 Q2177.48 859.219 2183.31 859.219 Q2188.54 859.219 2191.57 862.598 Q2194.63 865.955 2194.63 871.742 M2190.37 870.492 Q2190.32 866.997 2188.4 864.913 Q2186.5 862.83 2183.35 862.83 Q2179.79 862.83 2177.64 864.844 Q2175.51 866.858 2175.18 870.515 L2190.37 870.492 Z" fill="#000000" fill-rule="nonzero" fill-opacity="1" /><path clip-path="url(#clip320)" d="M2216.64 863.825 Q2215.92 863.409 2215.07 863.223 Q2214.23 863.015 2213.22 863.015 Q2209.6 863.015 2207.66 865.376 Q2205.74 867.714 2205.74 872.112 L2205.74 885.77 L2201.46 885.77 L2201.46 859.844 L2205.74 859.844 L2205.74 863.872 Q2207.08 861.51 2209.23 860.376 Q2211.39 859.219 2214.47 859.219 Q2214.91 859.219 2215.44 859.288 Q2215.97 859.335 2216.62 859.45 L2216.64 863.825 Z" fill="#000000" fill-rule="nonzero" fill-opacity="1" /><path clip-path="url(#clip320)" d="M2240.46 864.821 Q2242.06 861.95 2244.28 860.585 Q2246.5 859.219 2249.51 859.219 Q2253.56 859.219 2255.76 862.066 Q2257.96 864.89 2257.96 870.122 L2257.96 885.77 L2253.68 885.77 L2253.68 870.26 Q2253.68 866.534 2252.36 864.728 Q2251.04 862.922 2248.33 862.922 Q2245.02 862.922 2243.1 865.122 Q2241.18 867.321 2241.18 871.117 L2241.18 885.77 L2236.9 885.77 L2236.9 870.26 Q2236.9 866.51 2235.58 864.728 Q2234.26 862.922 2231.5 862.922 Q2228.24 862.922 2226.32 865.145 Q2224.4 867.344 2224.4 871.117 L2224.4 885.77 L2220.11 885.77 L2220.11 859.844 L2224.4 859.844 L2224.4 863.872 Q2225.85 861.487 2227.89 860.353 Q2229.93 859.219 2232.73 859.219 Q2235.55 859.219 2237.52 860.654 Q2239.51 862.089 2240.46 864.821 Z" fill="#000000" fill-rule="nonzero" fill-opacity="1" /></svg>
