<?xml version="1.0" encoding="utf-8"?>
<svg xmlns="http://www.w3.org/2000/svg" xmlns:xlink="http://www.w3.org/1999/xlink" width="600" height="400" viewBox="0 0 2400 1600">
<defs>
  <clipPath id="clip190">
    <rect x="0" y="0" width="2400" height="1600"/>
  </clipPath>
</defs>
<path clip-path="url(#clip190)" d="M0 1600 L2400 1600 L2400 0 L0 0  Z" fill="#ffffff" fill-rule="evenodd" fill-opacity="1"/>
<defs>
  <clipPath id="clip191">
    <rect x="480" y="0" width="1681" height="1600"/>
  </clipPath>
</defs>
<path clip-path="url(#clip190)" d="M219.866 1423.18 L2352.76 1423.18 L2352.76 123.472 L219.866 123.472  Z" fill="#ffffff" fill-rule="evenodd" fill-opacity="1"/>
<defs>
  <clipPath id="clip192">
    <rect x="219" y="123" width="2134" height="1301"/>
  </clipPath>
</defs>
<polyline clip-path="url(#clip192)" style="stroke:#000000; stroke-linecap:round; stroke-linejoin:round; stroke-width:2; stroke-opacity:0.1; fill:none" points="248.292,1423.18 248.292,123.472 "/>
<polyline clip-path="url(#clip192)" style="stroke:#000000; stroke-linecap:round; stroke-linejoin:round; stroke-width:2; stroke-opacity:0.1; fill:none" points="567.683,1423.18 567.683,123.472 "/>
<polyline clip-path="url(#clip192)" style="stroke:#000000; stroke-linecap:round; stroke-linejoin:round; stroke-width:2; stroke-opacity:0.1; fill:none" points="887.073,1423.18 887.073,123.472 "/>
<polyline clip-path="url(#clip192)" style="stroke:#000000; stroke-linecap:round; stroke-linejoin:round; stroke-width:2; stroke-opacity:0.1; fill:none" points="1206.46,1423.18 1206.46,123.472 "/>
<polyline clip-path="url(#clip192)" style="stroke:#000000; stroke-linecap:round; stroke-linejoin:round; stroke-width:2; stroke-opacity:0.1; fill:none" points="1525.85,1423.18 1525.85,123.472 "/>
<polyline clip-path="url(#clip192)" style="stroke:#000000; stroke-linecap:round; stroke-linejoin:round; stroke-width:2; stroke-opacity:0.1; fill:none" points="1845.24,1423.18 1845.24,123.472 "/>
<polyline clip-path="url(#clip192)" style="stroke:#000000; stroke-linecap:round; stroke-linejoin:round; stroke-width:2; stroke-opacity:0.1; fill:none" points="2164.63,1423.18 2164.63,123.472 "/>
<polyline clip-path="url(#clip190)" style="stroke:#000000; stroke-linecap:round; stroke-linejoin:round; stroke-width:4; stroke-opacity:1; fill:none" points="219.866,1423.18 2352.76,1423.18 "/>
<polyline clip-path="url(#clip190)" style="stroke:#000000; stroke-linecap:round; stroke-linejoin:round; stroke-width:4; stroke-opacity:1; fill:none" points="248.292,1423.18 248.292,1404.28 "/>
<polyline clip-path="url(#clip190)" style="stroke:#000000; stroke-linecap:round; stroke-linejoin:round; stroke-width:4; stroke-opacity:1; fill:none" points="567.683,1423.18 567.683,1404.28 "/>
<polyline clip-path="url(#clip190)" style="stroke:#000000; stroke-linecap:round; stroke-linejoin:round; stroke-width:4; stroke-opacity:1; fill:none" points="887.073,1423.18 887.073,1404.28 "/>
<polyline clip-path="url(#clip190)" style="stroke:#000000; stroke-linecap:round; stroke-linejoin:round; stroke-width:4; stroke-opacity:1; fill:none" points="1206.46,1423.18 1206.46,1404.28 "/>
<polyline clip-path="url(#clip190)" style="stroke:#000000; stroke-linecap:round; stroke-linejoin:round; stroke-width:4; stroke-opacity:1; fill:none" points="1525.85,1423.18 1525.85,1404.28 "/>
<polyline clip-path="url(#clip190)" style="stroke:#000000; stroke-linecap:round; stroke-linejoin:round; stroke-width:4; stroke-opacity:1; fill:none" points="1845.24,1423.18 1845.24,1404.28 "/>
<polyline clip-path="url(#clip190)" style="stroke:#000000; stroke-linecap:round; stroke-linejoin:round; stroke-width:4; stroke-opacity:1; fill:none" points="2164.63,1423.18 2164.63,1404.28 "/>
<path clip-path="url(#clip190)" d="M248.292 1454.1 Q244.681 1454.1 242.852 1457.66 Q241.047 1461.2 241.047 1468.33 Q241.047 1475.44 242.852 1479.01 Q244.681 1482.55 248.292 1482.55 Q251.926 1482.55 253.732 1479.01 Q255.56 1475.44 255.56 1468.33 Q255.56 1461.2 253.732 1457.66 Q251.926 1454.1 248.292 1454.1 M248.292 1450.39 Q254.102 1450.39 257.158 1455 Q260.236 1459.58 260.236 1468.33 Q260.236 1477.06 257.158 1481.67 Q254.102 1486.25 248.292 1486.25 Q242.482 1486.25 239.403 1481.67 Q236.348 1477.06 236.348 1468.33 Q236.348 1459.58 239.403 1455 Q242.482 1450.39 248.292 1450.39 Z" fill="#000000" fill-rule="nonzero" fill-opacity="1" /><path clip-path="url(#clip190)" d="M546.456 1481.64 L562.775 1481.64 L562.775 1485.58 L540.831 1485.58 L540.831 1481.64 Q543.493 1478.89 548.076 1474.26 Q552.683 1469.61 553.863 1468.27 Q556.108 1465.74 556.988 1464.01 Q557.891 1462.25 557.891 1460.56 Q557.891 1457.8 555.946 1456.07 Q554.025 1454.33 550.923 1454.33 Q548.724 1454.33 546.271 1455.09 Q543.84 1455.86 541.062 1457.41 L541.062 1452.69 Q543.886 1451.55 546.34 1450.97 Q548.794 1450.39 550.831 1450.39 Q556.201 1450.39 559.396 1453.08 Q562.59 1455.77 562.59 1460.26 Q562.59 1462.39 561.78 1464.31 Q560.993 1466.2 558.886 1468.8 Q558.308 1469.47 555.206 1472.69 Q552.104 1475.88 546.456 1481.64 Z" fill="#000000" fill-rule="nonzero" fill-opacity="1" /><path clip-path="url(#clip190)" d="M582.59 1454.1 Q578.979 1454.1 577.15 1457.66 Q575.344 1461.2 575.344 1468.33 Q575.344 1475.44 577.15 1479.01 Q578.979 1482.55 582.59 1482.55 Q586.224 1482.55 588.03 1479.01 Q589.858 1475.44 589.858 1468.33 Q589.858 1461.2 588.03 1457.66 Q586.224 1454.1 582.59 1454.1 M582.59 1450.39 Q588.4 1450.39 591.456 1455 Q594.534 1459.58 594.534 1468.33 Q594.534 1477.06 591.456 1481.67 Q588.4 1486.25 582.59 1486.25 Q576.78 1486.25 573.701 1481.67 Q570.645 1477.06 570.645 1468.33 Q570.645 1459.58 573.701 1455 Q576.78 1450.39 582.59 1450.39 Z" fill="#000000" fill-rule="nonzero" fill-opacity="1" /><path clip-path="url(#clip190)" d="M875.244 1455.09 L863.439 1473.54 L875.244 1473.54 L875.244 1455.09 M874.017 1451.02 L879.897 1451.02 L879.897 1473.54 L884.828 1473.54 L884.828 1477.43 L879.897 1477.43 L879.897 1485.58 L875.244 1485.58 L875.244 1477.43 L859.643 1477.43 L859.643 1472.92 L874.017 1451.02 Z" fill="#000000" fill-rule="nonzero" fill-opacity="1" /><path clip-path="url(#clip190)" d="M902.559 1454.1 Q898.948 1454.1 897.119 1457.66 Q895.314 1461.2 895.314 1468.33 Q895.314 1475.44 897.119 1479.01 Q898.948 1482.55 902.559 1482.55 Q906.193 1482.55 907.999 1479.01 Q909.827 1475.44 909.827 1468.33 Q909.827 1461.2 907.999 1457.66 Q906.193 1454.1 902.559 1454.1 M902.559 1450.39 Q908.369 1450.39 911.425 1455 Q914.503 1459.58 914.503 1468.33 Q914.503 1477.06 911.425 1481.67 Q908.369 1486.25 902.559 1486.25 Q896.749 1486.25 893.67 1481.67 Q890.615 1477.06 890.615 1468.33 Q890.615 1459.58 893.67 1455 Q896.749 1450.39 902.559 1450.39 Z" fill="#000000" fill-rule="nonzero" fill-opacity="1" /><path clip-path="url(#clip190)" d="M1191.87 1466.44 Q1188.72 1466.44 1186.87 1468.59 Q1185.04 1470.74 1185.04 1474.49 Q1185.04 1478.22 1186.87 1480.39 Q1188.72 1482.55 1191.87 1482.55 Q1195.02 1482.55 1196.85 1480.39 Q1198.7 1478.22 1198.7 1474.49 Q1198.7 1470.74 1196.85 1468.59 Q1195.02 1466.44 1191.87 1466.44 M1201.15 1451.78 L1201.15 1456.04 Q1199.39 1455.21 1197.59 1454.77 Q1195.8 1454.33 1194.04 1454.33 Q1189.41 1454.33 1186.96 1457.45 Q1184.53 1460.58 1184.18 1466.9 Q1185.55 1464.89 1187.61 1463.82 Q1189.67 1462.73 1192.15 1462.73 Q1197.35 1462.73 1200.36 1465.9 Q1203.4 1469.05 1203.4 1474.49 Q1203.4 1479.82 1200.25 1483.03 Q1197.1 1486.25 1191.87 1486.25 Q1185.87 1486.25 1182.7 1481.67 Q1179.53 1477.06 1179.53 1468.33 Q1179.53 1460.14 1183.42 1455.28 Q1187.31 1450.39 1193.86 1450.39 Q1195.62 1450.39 1197.4 1450.74 Q1199.21 1451.09 1201.15 1451.78 Z" fill="#000000" fill-rule="nonzero" fill-opacity="1" /><path clip-path="url(#clip190)" d="M1221.45 1454.1 Q1217.84 1454.1 1216.01 1457.66 Q1214.21 1461.2 1214.21 1468.33 Q1214.21 1475.44 1216.01 1479.01 Q1217.84 1482.55 1221.45 1482.55 Q1225.09 1482.55 1226.89 1479.01 Q1228.72 1475.44 1228.72 1468.33 Q1228.72 1461.2 1226.89 1457.66 Q1225.09 1454.1 1221.45 1454.1 M1221.45 1450.39 Q1227.26 1450.39 1230.32 1455 Q1233.4 1459.58 1233.4 1468.33 Q1233.4 1477.06 1230.32 1481.67 Q1227.26 1486.25 1221.45 1486.25 Q1215.64 1486.25 1212.56 1481.67 Q1209.51 1477.06 1209.51 1468.33 Q1209.51 1459.58 1212.56 1455 Q1215.64 1450.39 1221.45 1450.39 Z" fill="#000000" fill-rule="nonzero" fill-opacity="1" /><path clip-path="url(#clip190)" d="M1510.73 1469.17 Q1507.39 1469.17 1505.47 1470.95 Q1503.57 1472.73 1503.57 1475.86 Q1503.57 1478.98 1505.47 1480.77 Q1507.39 1482.55 1510.73 1482.55 Q1514.06 1482.55 1515.98 1480.77 Q1517.9 1478.96 1517.9 1475.86 Q1517.9 1472.73 1515.98 1470.95 Q1514.08 1469.17 1510.73 1469.17 M1506.05 1467.18 Q1503.04 1466.44 1501.35 1464.38 Q1499.69 1462.32 1499.69 1459.35 Q1499.69 1455.21 1502.62 1452.8 Q1505.59 1450.39 1510.73 1450.39 Q1515.89 1450.39 1518.83 1452.8 Q1521.77 1455.21 1521.77 1459.35 Q1521.77 1462.32 1520.08 1464.38 Q1518.41 1466.44 1515.43 1467.18 Q1518.81 1467.96 1520.68 1470.26 Q1522.58 1472.55 1522.58 1475.86 Q1522.58 1480.88 1519.5 1483.57 Q1516.44 1486.25 1510.73 1486.25 Q1505.01 1486.25 1501.93 1483.57 Q1498.87 1480.88 1498.87 1475.86 Q1498.87 1472.55 1500.77 1470.26 Q1502.67 1467.96 1506.05 1467.18 M1504.34 1459.79 Q1504.34 1462.48 1506 1463.98 Q1507.69 1465.49 1510.73 1465.49 Q1513.74 1465.49 1515.43 1463.98 Q1517.14 1462.48 1517.14 1459.79 Q1517.14 1457.11 1515.43 1455.6 Q1513.74 1454.1 1510.73 1454.1 Q1507.69 1454.1 1506 1455.6 Q1504.34 1457.11 1504.34 1459.79 Z" fill="#000000" fill-rule="nonzero" fill-opacity="1" /><path clip-path="url(#clip190)" d="M1540.89 1454.1 Q1537.28 1454.1 1535.45 1457.66 Q1533.64 1461.2 1533.64 1468.33 Q1533.64 1475.44 1535.45 1479.01 Q1537.28 1482.55 1540.89 1482.55 Q1544.52 1482.55 1546.33 1479.01 Q1548.16 1475.44 1548.16 1468.33 Q1548.16 1461.2 1546.33 1457.66 Q1544.52 1454.1 1540.89 1454.1 M1540.89 1450.39 Q1546.7 1450.39 1549.75 1455 Q1552.83 1459.58 1552.83 1468.33 Q1552.83 1477.06 1549.75 1481.67 Q1546.7 1486.25 1540.89 1486.25 Q1535.08 1486.25 1532 1481.67 Q1528.94 1477.06 1528.94 1468.33 Q1528.94 1459.58 1532 1455 Q1535.08 1450.39 1540.89 1450.39 Z" fill="#000000" fill-rule="nonzero" fill-opacity="1" /><path clip-path="url(#clip190)" d="M1804.85 1481.64 L1812.49 1481.64 L1812.49 1455.28 L1804.18 1456.95 L1804.18 1452.69 L1812.44 1451.02 L1817.12 1451.02 L1817.12 1481.64 L1824.76 1481.64 L1824.76 1485.58 L1804.85 1485.58 L1804.85 1481.64 Z" fill="#000000" fill-rule="nonzero" fill-opacity="1" /><path clip-path="url(#clip190)" d="M1844.2 1454.1 Q1840.59 1454.1 1838.76 1457.66 Q1836.96 1461.2 1836.96 1468.33 Q1836.96 1475.44 1838.76 1479.01 Q1840.59 1482.55 1844.2 1482.55 Q1847.84 1482.55 1849.64 1479.01 Q1851.47 1475.44 1851.47 1468.33 Q1851.47 1461.2 1849.64 1457.66 Q1847.84 1454.1 1844.2 1454.1 M1844.2 1450.39 Q1850.01 1450.39 1853.07 1455 Q1856.15 1459.58 1856.15 1468.33 Q1856.15 1477.06 1853.07 1481.67 Q1850.01 1486.25 1844.2 1486.25 Q1838.39 1486.25 1835.31 1481.67 Q1832.26 1477.06 1832.26 1468.33 Q1832.26 1459.58 1835.31 1455 Q1838.39 1450.39 1844.2 1450.39 Z" fill="#000000" fill-rule="nonzero" fill-opacity="1" /><path clip-path="url(#clip190)" d="M1874.36 1454.1 Q1870.75 1454.1 1868.92 1457.66 Q1867.12 1461.2 1867.12 1468.33 Q1867.12 1475.44 1868.92 1479.01 Q1870.75 1482.55 1874.36 1482.55 Q1878 1482.55 1879.8 1479.01 Q1881.63 1475.44 1881.63 1468.33 Q1881.63 1461.2 1879.8 1457.66 Q1878 1454.1 1874.36 1454.1 M1874.36 1450.39 Q1880.17 1450.39 1883.23 1455 Q1886.31 1459.58 1886.31 1468.33 Q1886.31 1477.06 1883.23 1481.67 Q1880.17 1486.25 1874.36 1486.25 Q1868.55 1486.25 1865.48 1481.67 Q1862.42 1477.06 1862.42 1468.33 Q1862.42 1459.58 1865.48 1455 Q1868.55 1450.39 1874.36 1450.39 Z" fill="#000000" fill-rule="nonzero" fill-opacity="1" /><path clip-path="url(#clip190)" d="M2124.24 1481.64 L2131.88 1481.64 L2131.88 1455.28 L2123.57 1456.95 L2123.57 1452.69 L2131.83 1451.02 L2136.51 1451.02 L2136.51 1481.64 L2144.15 1481.64 L2144.15 1485.58 L2124.24 1485.58 L2124.24 1481.64 Z" fill="#000000" fill-rule="nonzero" fill-opacity="1" /><path clip-path="url(#clip190)" d="M2157.62 1481.64 L2173.94 1481.64 L2173.94 1485.58 L2152 1485.58 L2152 1481.64 Q2154.66 1478.89 2159.24 1474.26 Q2163.85 1469.61 2165.03 1468.27 Q2167.27 1465.74 2168.15 1464.01 Q2169.06 1462.25 2169.06 1460.56 Q2169.06 1457.8 2167.11 1456.07 Q2165.19 1454.33 2162.09 1454.33 Q2159.89 1454.33 2157.44 1455.09 Q2155.01 1455.86 2152.23 1457.41 L2152.23 1452.69 Q2155.05 1451.55 2157.51 1450.97 Q2159.96 1450.39 2162 1450.39 Q2167.37 1450.39 2170.56 1453.08 Q2173.76 1455.77 2173.76 1460.26 Q2173.76 1462.39 2172.95 1464.31 Q2172.16 1466.2 2170.05 1468.8 Q2169.47 1469.47 2166.37 1472.69 Q2163.27 1475.88 2157.62 1481.64 Z" fill="#000000" fill-rule="nonzero" fill-opacity="1" /><path clip-path="url(#clip190)" d="M2193.76 1454.1 Q2190.14 1454.1 2188.32 1457.66 Q2186.51 1461.2 2186.51 1468.33 Q2186.51 1475.44 2188.32 1479.01 Q2190.14 1482.55 2193.76 1482.55 Q2197.39 1482.55 2199.19 1479.01 Q2201.02 1475.44 2201.02 1468.33 Q2201.02 1461.2 2199.19 1457.66 Q2197.39 1454.1 2193.76 1454.1 M2193.76 1450.39 Q2199.57 1450.39 2202.62 1455 Q2205.7 1459.58 2205.7 1468.33 Q2205.7 1477.06 2202.62 1481.67 Q2199.57 1486.25 2193.76 1486.25 Q2187.94 1486.25 2184.87 1481.67 Q2181.81 1477.06 2181.81 1468.33 Q2181.81 1459.58 2184.87 1455 Q2187.94 1450.39 2193.76 1450.39 Z" fill="#000000" fill-rule="nonzero" fill-opacity="1" /><path clip-path="url(#clip190)" d="M975.378 1520.52 L984.036 1520.52 L1005.11 1560.28 L1005.11 1520.52 L1011.34 1520.52 L1011.34 1568.04 L1002.69 1568.04 L981.617 1528.29 L981.617 1568.04 L975.378 1568.04 L975.378 1520.52 Z" fill="#000000" fill-rule="nonzero" fill-opacity="1" /><path clip-path="url(#clip190)" d="M1023.28 1553.98 L1023.28 1532.4 L1029.14 1532.4 L1029.14 1553.75 Q1029.14 1558.81 1031.11 1561.36 Q1033.08 1563.87 1037.03 1563.87 Q1041.77 1563.87 1044.51 1560.85 Q1047.28 1557.83 1047.28 1552.61 L1047.28 1532.4 L1053.14 1532.4 L1053.14 1568.04 L1047.28 1568.04 L1047.28 1562.57 Q1045.15 1565.82 1042.31 1567.41 Q1039.51 1568.97 1035.79 1568.97 Q1029.65 1568.97 1026.46 1565.15 Q1023.28 1561.33 1023.28 1553.98 M1038.02 1531.54 L1038.02 1531.54 Z" fill="#000000" fill-rule="nonzero" fill-opacity="1" /><path clip-path="url(#clip190)" d="M1092.95 1539.24 Q1095.15 1535.29 1098.2 1533.41 Q1101.26 1531.54 1105.4 1531.54 Q1110.97 1531.54 1113.99 1535.45 Q1117.02 1539.33 1117.02 1546.53 L1117.02 1568.04 L1111.13 1568.04 L1111.13 1546.72 Q1111.13 1541.59 1109.31 1539.11 Q1107.5 1536.63 1103.77 1536.63 Q1099.22 1536.63 1096.58 1539.65 Q1093.94 1542.68 1093.94 1547.9 L1093.94 1568.04 L1088.05 1568.04 L1088.05 1546.72 Q1088.05 1541.56 1086.24 1539.11 Q1084.42 1536.63 1080.64 1536.63 Q1076.15 1536.63 1073.51 1539.68 Q1070.86 1542.71 1070.86 1547.9 L1070.86 1568.04 L1064.98 1568.04 L1064.98 1532.4 L1070.86 1532.4 L1070.86 1537.93 Q1072.87 1534.66 1075.67 1533.1 Q1078.47 1531.54 1082.32 1531.54 Q1086.21 1531.54 1088.91 1533.51 Q1091.65 1535.48 1092.95 1539.24 Z" fill="#000000" fill-rule="nonzero" fill-opacity="1" /><path clip-path="url(#clip190)" d="M1154.29 1550.25 Q1154.29 1543.79 1151.61 1540.13 Q1148.97 1536.44 1144.32 1536.44 Q1139.68 1536.44 1137 1540.13 Q1134.36 1543.79 1134.36 1550.25 Q1134.36 1556.71 1137 1560.4 Q1139.68 1564.07 1144.32 1564.07 Q1148.97 1564.07 1151.61 1560.4 Q1154.29 1556.71 1154.29 1550.25 M1134.36 1537.81 Q1136.21 1534.62 1139.01 1533.1 Q1141.84 1531.54 1145.76 1531.54 Q1152.25 1531.54 1156.29 1536.69 Q1160.37 1541.85 1160.37 1550.25 Q1160.37 1558.65 1156.29 1563.81 Q1152.25 1568.97 1145.76 1568.97 Q1141.84 1568.97 1139.01 1567.44 Q1136.21 1565.88 1134.36 1562.7 L1134.36 1568.04 L1128.47 1568.04 L1128.47 1518.52 L1134.36 1518.52 L1134.36 1537.81 Z" fill="#000000" fill-rule="nonzero" fill-opacity="1" /><path clip-path="url(#clip190)" d="M1200.57 1548.76 L1200.57 1551.62 L1173.64 1551.62 Q1174.02 1557.67 1177.27 1560.85 Q1180.54 1564 1186.37 1564 Q1189.74 1564 1192.89 1563.17 Q1196.08 1562.35 1199.2 1560.69 L1199.2 1566.23 Q1196.05 1567.57 1192.74 1568.27 Q1189.43 1568.97 1186.02 1568.97 Q1177.49 1568.97 1172.49 1564 Q1167.53 1559.04 1167.53 1550.57 Q1167.53 1541.82 1172.24 1536.69 Q1176.98 1531.54 1185 1531.54 Q1192.19 1531.54 1196.36 1536.18 Q1200.57 1540.8 1200.57 1548.76 M1194.71 1547.04 Q1194.64 1542.23 1192 1539.37 Q1189.39 1536.5 1185.06 1536.5 Q1180.16 1536.5 1177.2 1539.27 Q1174.27 1542.04 1173.83 1547.07 L1194.71 1547.04 Z" fill="#000000" fill-rule="nonzero" fill-opacity="1" /><path clip-path="url(#clip190)" d="M1230.83 1537.87 Q1229.85 1537.3 1228.67 1537.04 Q1227.52 1536.76 1226.12 1536.76 Q1221.16 1536.76 1218.48 1540 Q1215.84 1543.22 1215.84 1549.27 L1215.84 1568.04 L1209.95 1568.04 L1209.95 1532.4 L1215.84 1532.4 L1215.84 1537.93 Q1217.69 1534.69 1220.65 1533.13 Q1223.61 1531.54 1227.84 1531.54 Q1228.45 1531.54 1229.18 1531.63 Q1229.91 1531.7 1230.8 1531.85 L1230.83 1537.87 Z" fill="#000000" fill-rule="nonzero" fill-opacity="1" /><path clip-path="url(#clip190)" d="M1271.51 1536.5 Q1266.8 1536.5 1264.06 1540.19 Q1261.33 1543.85 1261.33 1550.25 Q1261.33 1556.65 1264.03 1560.34 Q1266.77 1564 1271.51 1564 Q1276.19 1564 1278.93 1560.31 Q1281.66 1556.62 1281.66 1550.25 Q1281.66 1543.92 1278.93 1540.23 Q1276.19 1536.5 1271.51 1536.5 M1271.51 1531.54 Q1279.15 1531.54 1283.51 1536.5 Q1287.87 1541.47 1287.87 1550.25 Q1287.87 1559 1283.51 1564 Q1279.15 1568.97 1271.51 1568.97 Q1263.84 1568.97 1259.48 1564 Q1255.15 1559 1255.15 1550.25 Q1255.15 1541.47 1259.48 1536.5 Q1263.84 1531.54 1271.51 1531.54 Z" fill="#000000" fill-rule="nonzero" fill-opacity="1" /><path clip-path="url(#clip190)" d="M1315.63 1518.52 L1315.63 1523.39 L1310.02 1523.39 Q1306.87 1523.39 1305.63 1524.66 Q1304.42 1525.93 1304.42 1529.24 L1304.42 1532.4 L1314.07 1532.4 L1314.07 1536.95 L1304.42 1536.95 L1304.42 1568.04 L1298.53 1568.04 L1298.53 1536.95 L1292.93 1536.95 L1292.93 1532.4 L1298.53 1532.4 L1298.53 1529.91 Q1298.53 1523.96 1301.3 1521.26 Q1304.07 1518.52 1310.09 1518.52 L1315.63 1518.52 Z" fill="#000000" fill-rule="nonzero" fill-opacity="1" /><path clip-path="url(#clip190)" d="M1377.09 1524.18 L1377.09 1530.96 Q1373.84 1527.94 1370.15 1526.44 Q1366.49 1524.95 1362.35 1524.95 Q1354.2 1524.95 1349.87 1529.95 Q1345.54 1534.91 1345.54 1544.33 Q1345.54 1553.72 1349.87 1558.72 Q1354.2 1563.68 1362.35 1563.68 Q1366.49 1563.68 1370.15 1562.19 Q1373.84 1560.69 1377.09 1557.67 L1377.09 1564.38 Q1373.71 1566.68 1369.92 1567.82 Q1366.17 1568.97 1361.97 1568.97 Q1351.18 1568.97 1344.97 1562.38 Q1338.76 1555.76 1338.76 1544.33 Q1338.76 1532.87 1344.97 1526.28 Q1351.18 1519.66 1361.97 1519.66 Q1366.23 1519.66 1369.99 1520.81 Q1373.78 1521.92 1377.09 1524.18 Z" fill="#000000" fill-rule="nonzero" fill-opacity="1" /><path clip-path="url(#clip190)" d="M1386.76 1518.52 L1392.62 1518.52 L1392.62 1568.04 L1386.76 1568.04 L1386.76 1518.52 Z" fill="#000000" fill-rule="nonzero" fill-opacity="1" /><path clip-path="url(#clip190)" d="M1404.27 1553.98 L1404.27 1532.4 L1410.12 1532.4 L1410.12 1553.75 Q1410.12 1558.81 1412.1 1561.36 Q1414.07 1563.87 1418.02 1563.87 Q1422.76 1563.87 1425.5 1560.85 Q1428.27 1557.83 1428.27 1552.61 L1428.27 1532.4 L1434.12 1532.4 L1434.12 1568.04 L1428.27 1568.04 L1428.27 1562.57 Q1426.13 1565.82 1423.3 1567.41 Q1420.5 1568.97 1416.78 1568.97 Q1410.63 1568.97 1407.45 1565.15 Q1404.27 1561.33 1404.27 1553.98 M1419 1531.54 L1419 1531.54 Z" fill="#000000" fill-rule="nonzero" fill-opacity="1" /><path clip-path="url(#clip190)" d="M1468.91 1533.45 L1468.91 1538.98 Q1466.43 1537.71 1463.76 1537.07 Q1461.08 1536.44 1458.22 1536.44 Q1453.86 1536.44 1451.66 1537.77 Q1449.5 1539.11 1449.5 1541.79 Q1449.5 1543.82 1451.06 1545 Q1452.62 1546.15 1457.33 1547.2 L1459.33 1547.64 Q1465.57 1548.98 1468.18 1551.43 Q1470.82 1553.85 1470.82 1558.21 Q1470.82 1563.17 1466.87 1566.07 Q1462.96 1568.97 1456.08 1568.97 Q1453.22 1568.97 1450.1 1568.39 Q1447.01 1567.85 1443.58 1566.74 L1443.58 1560.69 Q1446.82 1562.38 1449.97 1563.24 Q1453.12 1564.07 1456.21 1564.07 Q1460.35 1564.07 1462.58 1562.66 Q1464.81 1561.23 1464.81 1558.65 Q1464.81 1556.27 1463.18 1554.99 Q1461.59 1553.72 1456.15 1552.54 L1454.11 1552.07 Q1448.67 1550.92 1446.25 1548.56 Q1443.83 1546.18 1443.83 1542.04 Q1443.83 1537.01 1447.4 1534.27 Q1450.96 1531.54 1457.52 1531.54 Q1460.76 1531.54 1463.63 1532.01 Q1466.49 1532.49 1468.91 1533.45 Z" fill="#000000" fill-rule="nonzero" fill-opacity="1" /><path clip-path="url(#clip190)" d="M1485.94 1522.27 L1485.94 1532.4 L1498 1532.4 L1498 1536.95 L1485.94 1536.95 L1485.94 1556.3 Q1485.94 1560.66 1487.12 1561.9 Q1488.33 1563.14 1491.99 1563.14 L1498 1563.14 L1498 1568.04 L1491.99 1568.04 Q1485.21 1568.04 1482.63 1565.53 Q1480.05 1562.98 1480.05 1556.3 L1480.05 1536.95 L1475.75 1536.95 L1475.75 1532.4 L1480.05 1532.4 L1480.05 1522.27 L1485.94 1522.27 Z" fill="#000000" fill-rule="nonzero" fill-opacity="1" /><path clip-path="url(#clip190)" d="M1536.2 1548.76 L1536.2 1551.62 L1509.27 1551.62 Q1509.65 1557.67 1512.9 1560.85 Q1516.18 1564 1522 1564 Q1525.38 1564 1528.53 1563.17 Q1531.71 1562.35 1534.83 1560.69 L1534.83 1566.23 Q1531.68 1567.57 1528.37 1568.27 Q1525.06 1568.97 1521.65 1568.97 Q1513.12 1568.97 1508.12 1564 Q1503.16 1559.04 1503.16 1550.57 Q1503.16 1541.82 1507.87 1536.69 Q1512.61 1531.54 1520.63 1531.54 Q1527.83 1531.54 1532 1536.18 Q1536.2 1540.8 1536.2 1548.76 M1530.34 1547.04 Q1530.28 1542.23 1527.64 1539.37 Q1525.03 1536.5 1520.7 1536.5 Q1515.79 1536.5 1512.83 1539.27 Q1509.91 1542.04 1509.46 1547.07 L1530.34 1547.04 Z" fill="#000000" fill-rule="nonzero" fill-opacity="1" /><path clip-path="url(#clip190)" d="M1566.47 1537.87 Q1565.48 1537.3 1564.3 1537.04 Q1563.16 1536.76 1561.76 1536.76 Q1556.79 1536.76 1554.12 1540 Q1551.47 1543.22 1551.47 1549.27 L1551.47 1568.04 L1545.59 1568.04 L1545.59 1532.4 L1551.47 1532.4 L1551.47 1537.93 Q1553.32 1534.69 1556.28 1533.13 Q1559.24 1531.54 1563.47 1531.54 Q1564.08 1531.54 1564.81 1531.63 Q1565.54 1531.7 1566.43 1531.85 L1566.47 1537.87 Z" fill="#000000" fill-rule="nonzero" fill-opacity="1" /><path clip-path="url(#clip190)" d="M1595.33 1533.45 L1595.33 1538.98 Q1592.85 1537.71 1590.18 1537.07 Q1587.5 1536.44 1584.64 1536.44 Q1580.28 1536.44 1578.08 1537.77 Q1575.92 1539.11 1575.92 1541.79 Q1575.92 1543.82 1577.48 1545 Q1579.04 1546.15 1583.75 1547.2 L1585.75 1547.64 Q1591.99 1548.98 1594.6 1551.43 Q1597.24 1553.85 1597.24 1558.21 Q1597.24 1563.17 1593.3 1566.07 Q1589.38 1568.97 1582.51 1568.97 Q1579.64 1568.97 1576.52 1568.39 Q1573.44 1567.85 1570 1566.74 L1570 1560.69 Q1573.25 1562.38 1576.4 1563.24 Q1579.55 1564.07 1582.63 1564.07 Q1586.77 1564.07 1589 1562.66 Q1591.23 1561.23 1591.23 1558.65 Q1591.23 1556.27 1589.61 1554.99 Q1588.01 1553.72 1582.57 1552.54 L1580.53 1552.07 Q1575.09 1550.92 1572.67 1548.56 Q1570.25 1546.18 1570.25 1542.04 Q1570.25 1537.01 1573.82 1534.27 Q1577.38 1531.54 1583.94 1531.54 Q1587.19 1531.54 1590.05 1532.01 Q1592.92 1532.49 1595.33 1533.45 Z" fill="#000000" fill-rule="nonzero" fill-opacity="1" /><polyline clip-path="url(#clip192)" style="stroke:#000000; stroke-linecap:round; stroke-linejoin:round; stroke-width:2; stroke-opacity:0.1; fill:none" points="219.866,1401.61 2352.76,1401.61 "/>
<polyline clip-path="url(#clip192)" style="stroke:#000000; stroke-linecap:round; stroke-linejoin:round; stroke-width:2; stroke-opacity:0.1; fill:none" points="219.866,1141.72 2352.76,1141.72 "/>
<polyline clip-path="url(#clip192)" style="stroke:#000000; stroke-linecap:round; stroke-linejoin:round; stroke-width:2; stroke-opacity:0.1; fill:none" points="219.866,881.841 2352.76,881.841 "/>
<polyline clip-path="url(#clip192)" style="stroke:#000000; stroke-linecap:round; stroke-linejoin:round; stroke-width:2; stroke-opacity:0.1; fill:none" points="219.866,621.958 2352.76,621.958 "/>
<polyline clip-path="url(#clip192)" style="stroke:#000000; stroke-linecap:round; stroke-linejoin:round; stroke-width:2; stroke-opacity:0.1; fill:none" points="219.866,362.075 2352.76,362.075 "/>
<polyline clip-path="url(#clip190)" style="stroke:#000000; stroke-linecap:round; stroke-linejoin:round; stroke-width:4; stroke-opacity:1; fill:none" points="219.866,1423.18 219.866,123.472 "/>
<polyline clip-path="url(#clip190)" style="stroke:#000000; stroke-linecap:round; stroke-linejoin:round; stroke-width:4; stroke-opacity:1; fill:none" points="219.866,1401.61 238.764,1401.61 "/>
<polyline clip-path="url(#clip190)" style="stroke:#000000; stroke-linecap:round; stroke-linejoin:round; stroke-width:4; stroke-opacity:1; fill:none" points="219.866,1141.72 238.764,1141.72 "/>
<polyline clip-path="url(#clip190)" style="stroke:#000000; stroke-linecap:round; stroke-linejoin:round; stroke-width:4; stroke-opacity:1; fill:none" points="219.866,881.841 238.764,881.841 "/>
<polyline clip-path="url(#clip190)" style="stroke:#000000; stroke-linecap:round; stroke-linejoin:round; stroke-width:4; stroke-opacity:1; fill:none" points="219.866,621.958 238.764,621.958 "/>
<polyline clip-path="url(#clip190)" style="stroke:#000000; stroke-linecap:round; stroke-linejoin:round; stroke-width:4; stroke-opacity:1; fill:none" points="219.866,362.075 238.764,362.075 "/>
<path clip-path="url(#clip190)" d="M126.691 1387.41 Q123.08 1387.41 121.251 1390.97 Q119.445 1394.51 119.445 1401.64 Q119.445 1408.75 121.251 1412.31 Q123.08 1415.85 126.691 1415.85 Q130.325 1415.85 132.13 1412.31 Q133.959 1408.75 133.959 1401.64 Q133.959 1394.51 132.13 1390.97 Q130.325 1387.41 126.691 1387.41 M126.691 1383.7 Q132.501 1383.7 135.556 1388.31 Q138.635 1392.89 138.635 1401.64 Q138.635 1410.37 135.556 1414.97 Q132.501 1419.56 126.691 1419.56 Q120.88 1419.56 117.802 1414.97 Q114.746 1410.37 114.746 1401.64 Q114.746 1392.89 117.802 1388.31 Q120.88 1383.7 126.691 1383.7 Z" fill="#000000" fill-rule="nonzero" fill-opacity="1" /><path clip-path="url(#clip190)" d="M146.853 1413.01 L151.737 1413.01 L151.737 1418.89 L146.853 1418.89 L146.853 1413.01 Z" fill="#000000" fill-rule="nonzero" fill-opacity="1" /><path clip-path="url(#clip190)" d="M171.922 1387.41 Q168.311 1387.41 166.482 1390.97 Q164.677 1394.51 164.677 1401.64 Q164.677 1408.75 166.482 1412.31 Q168.311 1415.85 171.922 1415.85 Q175.556 1415.85 177.362 1412.31 Q179.19 1408.75 179.19 1401.64 Q179.19 1394.51 177.362 1390.97 Q175.556 1387.41 171.922 1387.41 M171.922 1383.7 Q177.732 1383.7 180.788 1388.31 Q183.866 1392.89 183.866 1401.64 Q183.866 1410.37 180.788 1414.97 Q177.732 1419.56 171.922 1419.56 Q166.112 1419.56 163.033 1414.97 Q159.978 1410.37 159.978 1401.64 Q159.978 1392.89 163.033 1388.31 Q166.112 1383.7 171.922 1383.7 Z" fill="#000000" fill-rule="nonzero" fill-opacity="1" /><path clip-path="url(#clip190)" d="M128.288 1127.52 Q124.677 1127.52 122.848 1131.09 Q121.043 1134.63 121.043 1141.76 Q121.043 1148.87 122.848 1152.43 Q124.677 1155.97 128.288 1155.97 Q131.922 1155.97 133.728 1152.43 Q135.556 1148.87 135.556 1141.76 Q135.556 1134.63 133.728 1131.09 Q131.922 1127.52 128.288 1127.52 M128.288 1123.82 Q134.098 1123.82 137.154 1128.43 Q140.232 1133.01 140.232 1141.76 Q140.232 1150.49 137.154 1155.09 Q134.098 1159.68 128.288 1159.68 Q122.478 1159.68 119.399 1155.09 Q116.343 1150.49 116.343 1141.76 Q116.343 1133.01 119.399 1128.43 Q122.478 1123.82 128.288 1123.82 Z" fill="#000000" fill-rule="nonzero" fill-opacity="1" /><path clip-path="url(#clip190)" d="M148.45 1153.12 L153.334 1153.12 L153.334 1159 L148.45 1159 L148.45 1153.12 Z" fill="#000000" fill-rule="nonzero" fill-opacity="1" /><path clip-path="url(#clip190)" d="M167.547 1155.07 L183.866 1155.07 L183.866 1159 L161.922 1159 L161.922 1155.07 Q164.584 1152.31 169.167 1147.68 Q173.774 1143.03 174.954 1141.69 Q177.2 1139.17 178.079 1137.43 Q178.982 1135.67 178.982 1133.98 Q178.982 1131.23 177.038 1129.49 Q175.116 1127.75 172.014 1127.75 Q169.815 1127.75 167.362 1128.52 Q164.931 1129.28 162.153 1130.83 L162.153 1126.11 Q164.977 1124.98 167.431 1124.4 Q169.885 1123.82 171.922 1123.82 Q177.292 1123.82 180.487 1126.5 Q183.681 1129.19 183.681 1133.68 Q183.681 1135.81 182.871 1137.73 Q182.084 1139.63 179.977 1142.22 Q179.399 1142.89 176.297 1146.11 Q173.195 1149.3 167.547 1155.07 Z" fill="#000000" fill-rule="nonzero" fill-opacity="1" /><path clip-path="url(#clip190)" d="M126.205 867.64 Q122.593 867.64 120.765 871.205 Q118.959 874.746 118.959 881.876 Q118.959 888.982 120.765 892.547 Q122.593 896.089 126.205 896.089 Q129.839 896.089 131.644 892.547 Q133.473 888.982 133.473 881.876 Q133.473 874.746 131.644 871.205 Q129.839 867.64 126.205 867.64 M126.205 863.936 Q132.015 863.936 135.07 868.542 Q138.149 873.126 138.149 881.876 Q138.149 890.603 135.07 895.209 Q132.015 899.792 126.205 899.792 Q120.394 899.792 117.316 895.209 Q114.26 890.603 114.26 881.876 Q114.26 873.126 117.316 868.542 Q120.394 863.936 126.205 863.936 Z" fill="#000000" fill-rule="nonzero" fill-opacity="1" /><path clip-path="url(#clip190)" d="M146.366 893.241 L151.251 893.241 L151.251 899.121 L146.366 899.121 L146.366 893.241 Z" fill="#000000" fill-rule="nonzero" fill-opacity="1" /><path clip-path="url(#clip190)" d="M174.283 868.635 L162.477 887.084 L174.283 887.084 L174.283 868.635 M173.056 864.561 L178.936 864.561 L178.936 887.084 L183.866 887.084 L183.866 890.973 L178.936 890.973 L178.936 899.121 L174.283 899.121 L174.283 890.973 L158.681 890.973 L158.681 886.459 L173.056 864.561 Z" fill="#000000" fill-rule="nonzero" fill-opacity="1" /><path clip-path="url(#clip190)" d="M126.529 607.757 Q122.918 607.757 121.089 611.322 Q119.283 614.863 119.283 621.993 Q119.283 629.099 121.089 632.664 Q122.918 636.206 126.529 636.206 Q130.163 636.206 131.968 632.664 Q133.797 629.099 133.797 621.993 Q133.797 614.863 131.968 611.322 Q130.163 607.757 126.529 607.757 M126.529 604.053 Q132.339 604.053 135.394 608.66 Q138.473 613.243 138.473 621.993 Q138.473 630.72 135.394 635.326 Q132.339 639.909 126.529 639.909 Q120.718 639.909 117.64 635.326 Q114.584 630.72 114.584 621.993 Q114.584 613.243 117.64 608.66 Q120.718 604.053 126.529 604.053 Z" fill="#000000" fill-rule="nonzero" fill-opacity="1" /><path clip-path="url(#clip190)" d="M146.691 633.359 L151.575 633.359 L151.575 639.238 L146.691 639.238 L146.691 633.359 Z" fill="#000000" fill-rule="nonzero" fill-opacity="1" /><path clip-path="url(#clip190)" d="M172.339 620.095 Q169.19 620.095 167.339 622.247 Q165.51 624.4 165.51 628.15 Q165.51 631.877 167.339 634.053 Q169.19 636.206 172.339 636.206 Q175.487 636.206 177.315 634.053 Q179.167 631.877 179.167 628.15 Q179.167 624.4 177.315 622.247 Q175.487 620.095 172.339 620.095 M181.621 605.442 L181.621 609.701 Q179.862 608.868 178.056 608.428 Q176.274 607.988 174.514 607.988 Q169.885 607.988 167.431 611.113 Q165.001 614.238 164.653 620.558 Q166.019 618.544 168.079 617.479 Q170.139 616.391 172.616 616.391 Q177.825 616.391 180.834 619.562 Q183.866 622.71 183.866 628.15 Q183.866 633.474 180.718 636.692 Q177.57 639.909 172.339 639.909 Q166.343 639.909 163.172 635.326 Q160.001 630.72 160.001 621.993 Q160.001 613.798 163.89 608.937 Q167.778 604.053 174.329 604.053 Q176.089 604.053 177.871 604.4 Q179.676 604.748 181.621 605.442 Z" fill="#000000" fill-rule="nonzero" fill-opacity="1" /><path clip-path="url(#clip190)" d="M126.783 347.874 Q123.172 347.874 121.343 351.439 Q119.538 354.98 119.538 362.11 Q119.538 369.216 121.343 372.781 Q123.172 376.323 126.783 376.323 Q130.417 376.323 132.223 372.781 Q134.052 369.216 134.052 362.11 Q134.052 354.98 132.223 351.439 Q130.417 347.874 126.783 347.874 M126.783 344.17 Q132.593 344.17 135.649 348.777 Q138.728 353.36 138.728 362.11 Q138.728 370.837 135.649 375.443 Q132.593 380.026 126.783 380.026 Q120.973 380.026 117.894 375.443 Q114.839 370.837 114.839 362.11 Q114.839 353.36 117.894 348.777 Q120.973 344.17 126.783 344.17 Z" fill="#000000" fill-rule="nonzero" fill-opacity="1" /><path clip-path="url(#clip190)" d="M146.945 373.476 L151.829 373.476 L151.829 379.355 L146.945 379.355 L146.945 373.476 Z" fill="#000000" fill-rule="nonzero" fill-opacity="1" /><path clip-path="url(#clip190)" d="M172.014 362.943 Q168.681 362.943 166.76 364.726 Q164.862 366.508 164.862 369.633 Q164.862 372.758 166.76 374.54 Q168.681 376.323 172.014 376.323 Q175.348 376.323 177.269 374.54 Q179.19 372.735 179.19 369.633 Q179.19 366.508 177.269 364.726 Q175.371 362.943 172.014 362.943 M167.339 360.952 Q164.329 360.212 162.64 358.152 Q160.973 356.091 160.973 353.128 Q160.973 348.985 163.913 346.578 Q166.876 344.17 172.014 344.17 Q177.176 344.17 180.116 346.578 Q183.056 348.985 183.056 353.128 Q183.056 356.091 181.366 358.152 Q179.7 360.212 176.714 360.952 Q180.093 361.74 181.968 364.031 Q183.866 366.323 183.866 369.633 Q183.866 374.656 180.788 377.341 Q177.732 380.026 172.014 380.026 Q166.297 380.026 163.218 377.341 Q160.163 374.656 160.163 369.633 Q160.163 366.323 162.061 364.031 Q163.959 361.74 167.339 360.952 M165.626 353.568 Q165.626 356.253 167.292 357.758 Q168.982 359.263 172.014 359.263 Q175.024 359.263 176.714 357.758 Q178.426 356.253 178.426 353.568 Q178.426 350.883 176.714 349.378 Q175.024 347.874 172.014 347.874 Q168.982 347.874 167.292 349.378 Q165.626 350.883 165.626 353.568 Z" fill="#000000" fill-rule="nonzero" fill-opacity="1" /><path clip-path="url(#clip190)" d="M16.4842 957.947 L16.4842 948.367 L48.8219 936.24 L16.4842 924.05 L16.4842 914.47 L64.0042 914.47 L64.0042 920.74 L22.277 920.74 L54.8694 932.994 L54.8694 939.455 L22.277 951.709 L64.0042 951.709 L64.0042 957.947 L16.4842 957.947 Z" fill="#000000" fill-rule="nonzero" fill-opacity="1" /><path clip-path="url(#clip190)" d="M44.7161 871.469 L47.5806 871.469 L47.5806 898.396 Q53.6281 898.014 56.8109 894.768 Q59.9619 891.489 59.9619 885.665 Q59.9619 882.291 59.1344 879.14 Q58.3069 875.957 56.6518 872.838 L62.1899 872.838 Q63.5267 875.989 64.227 879.299 Q64.9272 882.609 64.9272 886.015 Q64.9272 894.545 59.9619 899.542 Q54.9967 904.507 46.5303 904.507 Q37.7774 904.507 32.6531 899.797 Q27.4968 895.054 27.4968 887.033 Q27.4968 879.84 32.1438 875.671 Q36.7589 871.469 44.7161 871.469 M42.9973 877.326 Q38.1912 877.389 35.3266 880.031 Q32.4621 882.641 32.4621 886.97 Q32.4621 891.871 35.2312 894.831 Q38.0002 897.76 43.0292 898.205 L42.9973 877.326 Z" fill="#000000" fill-rule="nonzero" fill-opacity="1" /><path clip-path="url(#clip190)" d="M46.0847 845.656 Q46.0847 852.754 47.7079 855.491 Q49.3312 858.229 53.2461 858.229 Q56.3653 858.229 58.2114 856.192 Q60.0256 854.123 60.0256 850.59 Q60.0256 845.72 56.5881 842.792 Q53.1188 839.832 47.3897 839.832 L46.0847 839.832 L46.0847 845.656 M43.6657 833.975 L64.0042 833.975 L64.0042 839.832 L58.5933 839.832 Q61.8398 841.837 63.3994 844.829 Q64.9272 847.821 64.9272 852.149 Q64.9272 857.624 61.8716 860.87 Q58.7843 864.085 53.6281 864.085 Q47.6125 864.085 44.5569 860.075 Q41.5014 856.032 41.5014 848.043 L41.5014 839.832 L40.9285 839.832 Q36.8862 839.832 34.6901 842.505 Q32.4621 845.147 32.4621 849.953 Q32.4621 853.009 33.1941 855.905 Q33.9262 858.802 35.3903 861.475 L29.9795 861.475 Q28.7381 858.26 28.1334 855.237 Q27.4968 852.213 27.4968 849.348 Q27.4968 841.614 31.5072 837.795 Q35.5176 833.975 43.6657 833.975 Z" fill="#000000" fill-rule="nonzero" fill-opacity="1" /><path clip-path="url(#clip190)" d="M42.4881 792.28 L64.0042 792.28 L64.0042 798.136 L42.679 798.136 Q37.6183 798.136 35.1038 800.11 Q32.5894 802.083 32.5894 806.03 Q32.5894 810.772 35.6131 813.51 Q38.6368 816.247 43.8567 816.247 L64.0042 816.247 L64.0042 822.135 L28.3562 822.135 L28.3562 816.247 L33.8944 816.247 Q30.6797 814.146 29.0883 811.313 Q27.4968 808.449 27.4968 804.725 Q27.4968 798.582 31.3163 795.431 Q35.1038 792.28 42.4881 792.28 Z" fill="#000000" fill-rule="nonzero" fill-opacity="1" /><path clip-path="url(#clip190)" d="M16.4842 759.624 L16.4842 753.194 L64.0042 753.194 L64.0042 759.624 L16.4842 759.624 Z" fill="#000000" fill-rule="nonzero" fill-opacity="1" /><path clip-path="url(#clip190)" d="M42.4881 711.022 L64.0042 711.022 L64.0042 716.878 L42.679 716.878 Q37.6183 716.878 35.1038 718.851 Q32.5894 720.825 32.5894 724.772 Q32.5894 729.514 35.6131 732.251 Q38.6368 734.989 43.8567 734.989 L64.0042 734.989 L64.0042 740.877 L28.3562 740.877 L28.3562 734.989 L33.8944 734.989 Q30.6797 732.888 29.0883 730.055 Q27.4968 727.191 27.4968 723.467 Q27.4968 717.324 31.3163 714.173 Q35.1038 711.022 42.4881 711.022 Z" fill="#000000" fill-rule="nonzero" fill-opacity="1" /><path clip-path="url(#clip190)" d="M33.7671 675.883 L14.479 675.883 L14.479 670.026 L64.0042 670.026 L64.0042 675.883 L58.657 675.883 Q61.8398 677.729 63.3994 680.562 Q64.9272 683.363 64.9272 687.309 Q64.9272 693.771 59.771 697.845 Q54.6147 701.887 46.212 701.887 Q37.8093 701.887 32.6531 697.845 Q27.4968 693.771 27.4968 687.309 Q27.4968 683.363 29.0564 680.562 Q30.5842 677.729 33.7671 675.883 M46.212 695.839 Q52.6732 695.839 56.3653 693.198 Q60.0256 690.524 60.0256 685.877 Q60.0256 681.23 56.3653 678.557 Q52.6732 675.883 46.212 675.883 Q39.7508 675.883 36.0905 678.557 Q32.3984 681.23 32.3984 685.877 Q32.3984 690.524 36.0905 693.198 Q39.7508 695.839 46.212 695.839 Z" fill="#000000" fill-rule="nonzero" fill-opacity="1" /><path clip-path="url(#clip190)" d="M44.7161 627.472 L47.5806 627.472 L47.5806 654.399 Q53.6281 654.017 56.8109 650.77 Q59.9619 647.492 59.9619 641.667 Q59.9619 638.293 59.1344 635.142 Q58.3069 631.96 56.6518 628.84 L62.1899 628.84 Q63.5267 631.991 64.227 635.302 Q64.9272 638.612 64.9272 642.017 Q64.9272 650.547 59.9619 655.544 Q54.9967 660.51 46.5303 660.51 Q37.7774 660.51 32.6531 655.799 Q27.4968 651.057 27.4968 643.036 Q27.4968 635.843 32.1438 631.673 Q36.7589 627.472 44.7161 627.472 M42.9973 633.328 Q38.1912 633.392 35.3266 636.034 Q32.4621 638.644 32.4621 642.972 Q32.4621 647.874 35.2312 650.834 Q38.0002 653.762 43.0292 654.208 L42.9973 633.328 Z" fill="#000000" fill-rule="nonzero" fill-opacity="1" /><path clip-path="url(#clip190)" d="M28.3562 589.373 L45.7028 602.264 L64.0042 588.705 L64.0042 595.611 L49.9996 605.987 L64.0042 616.364 L64.0042 623.27 L45.3526 609.425 L28.3562 622.093 L28.3562 615.186 L41.0558 605.733 L28.3562 596.28 L28.3562 589.373 Z" fill="#000000" fill-rule="nonzero" fill-opacity="1" /><path clip-path="url(#clip190)" d="M890.578 12.096 L901.597 12.096 L928.414 62.6918 L928.414 12.096 L936.353 12.096 L936.353 72.576 L925.335 72.576 L898.518 21.9802 L898.518 72.576 L890.578 72.576 L890.578 12.096 Z" fill="#000000" fill-rule="nonzero" fill-opacity="1" /><path clip-path="url(#clip190)" d="M951.544 54.671 L951.544 27.2059 L958.998 27.2059 L958.998 54.3874 Q958.998 60.8284 961.51 64.0691 Q964.021 67.2693 969.044 67.2693 Q975.08 67.2693 978.564 63.421 Q982.088 59.5726 982.088 52.9291 L982.088 27.2059 L989.542 27.2059 L989.542 72.576 L982.088 72.576 L982.088 65.6084 Q979.374 69.7404 975.769 71.7658 Q972.204 73.7508 967.464 73.7508 Q959.646 73.7508 955.595 68.8897 Q951.544 64.0286 951.544 54.671 M970.3 26.1121 L970.3 26.1121 Z" fill="#000000" fill-rule="nonzero" fill-opacity="1" /><path clip-path="url(#clip190)" d="M1040.22 35.9153 Q1043.01 30.8922 1046.9 28.5022 Q1050.79 26.1121 1056.06 26.1121 Q1063.15 26.1121 1067 31.0947 Q1070.84 36.0368 1070.84 45.1919 L1070.84 72.576 L1063.35 72.576 L1063.35 45.4349 Q1063.35 38.913 1061.04 35.7533 Q1058.73 32.5936 1053.99 32.5936 Q1048.2 32.5936 1044.84 36.4419 Q1041.47 40.2903 1041.47 46.9338 L1041.47 72.576 L1033.98 72.576 L1033.98 45.4349 Q1033.98 38.8725 1031.67 35.7533 Q1029.36 32.5936 1024.54 32.5936 Q1018.83 32.5936 1015.47 36.4824 Q1012.11 40.3308 1012.11 46.9338 L1012.11 72.576 L1004.61 72.576 L1004.61 27.2059 L1012.11 27.2059 L1012.11 34.2544 Q1014.66 30.082 1018.22 28.0971 Q1021.79 26.1121 1026.69 26.1121 Q1031.63 26.1121 1035.07 28.6237 Q1038.56 31.1352 1040.22 35.9153 Z" fill="#000000" fill-rule="nonzero" fill-opacity="1" /><path clip-path="url(#clip190)" d="M1118.28 49.9314 Q1118.28 41.7081 1114.88 37.0496 Q1111.51 32.3505 1105.6 32.3505 Q1099.69 32.3505 1096.28 37.0496 Q1092.92 41.7081 1092.92 49.9314 Q1092.92 58.1548 1096.28 62.8538 Q1099.69 67.5124 1105.6 67.5124 Q1111.51 67.5124 1114.88 62.8538 Q1118.28 58.1548 1118.28 49.9314 M1092.92 34.0924 Q1095.27 30.0415 1098.84 28.0971 Q1102.44 26.1121 1107.42 26.1121 Q1115.69 26.1121 1120.83 32.6746 Q1126.02 39.2371 1126.02 49.9314 Q1126.02 60.6258 1120.83 67.1883 Q1115.69 73.7508 1107.42 73.7508 Q1102.44 73.7508 1098.84 71.8063 Q1095.27 69.8214 1092.92 65.7705 L1092.92 72.576 L1085.43 72.576 L1085.43 9.54393 L1092.92 9.54393 L1092.92 34.0924 Z" fill="#000000" fill-rule="nonzero" fill-opacity="1" /><path clip-path="url(#clip190)" d="M1177.18 48.0275 L1177.18 51.6733 L1142.91 51.6733 Q1143.4 59.3701 1147.53 63.421 Q1151.7 67.4314 1159.11 67.4314 Q1163.41 67.4314 1167.42 66.3781 Q1171.47 65.3249 1175.44 63.2184 L1175.44 70.267 Q1171.43 71.9684 1167.21 72.8596 Q1163 73.7508 1158.67 73.7508 Q1147.81 73.7508 1141.45 67.4314 Q1135.13 61.1119 1135.13 50.3365 Q1135.13 39.1965 1141.13 32.6746 Q1147.16 26.1121 1157.37 26.1121 Q1166.53 26.1121 1171.83 32.0264 Q1177.18 37.9003 1177.18 48.0275 M1169.73 45.84 Q1169.65 39.7232 1166.28 36.0774 Q1162.96 32.4315 1157.45 32.4315 Q1151.21 32.4315 1147.45 35.9558 Q1143.72 39.4801 1143.15 45.8805 L1169.73 45.84 Z" fill="#000000" fill-rule="nonzero" fill-opacity="1" /><path clip-path="url(#clip190)" d="M1215.7 34.1734 Q1214.45 33.4443 1212.95 33.1202 Q1211.49 32.7556 1209.71 32.7556 Q1203.39 32.7556 1199.99 36.8875 Q1196.62 40.9789 1196.62 48.6757 L1196.62 72.576 L1189.13 72.576 L1189.13 27.2059 L1196.62 27.2059 L1196.62 34.2544 Q1198.97 30.1225 1202.74 28.1376 Q1206.51 26.1121 1211.9 26.1121 Q1212.67 26.1121 1213.6 26.2337 Q1214.53 26.3147 1215.66 26.5172 L1215.7 34.1734 Z" fill="#000000" fill-rule="nonzero" fill-opacity="1" /><path clip-path="url(#clip190)" d="M1267.47 32.4315 Q1261.48 32.4315 1258 37.1306 Q1254.51 41.7891 1254.51 49.9314 Q1254.51 58.0738 1257.95 62.7728 Q1261.44 67.4314 1267.47 67.4314 Q1273.43 67.4314 1276.91 62.7323 Q1280.4 58.0333 1280.4 49.9314 Q1280.4 41.8701 1276.91 37.1711 Q1273.43 32.4315 1267.47 32.4315 M1267.47 26.1121 Q1277.2 26.1121 1282.75 32.4315 Q1288.3 38.7509 1288.3 49.9314 Q1288.3 61.0714 1282.75 67.4314 Q1277.2 73.7508 1267.47 73.7508 Q1257.71 73.7508 1252.16 67.4314 Q1246.65 61.0714 1246.65 49.9314 Q1246.65 38.7509 1252.16 32.4315 Q1257.71 26.1121 1267.47 26.1121 Z" fill="#000000" fill-rule="nonzero" fill-opacity="1" /><path clip-path="url(#clip190)" d="M1323.62 9.54393 L1323.62 15.7418 L1316.49 15.7418 Q1312.48 15.7418 1310.9 17.3622 Q1309.36 18.9825 1309.36 23.1955 L1309.36 27.2059 L1321.63 27.2059 L1321.63 32.9987 L1309.36 32.9987 L1309.36 72.576 L1301.87 72.576 L1301.87 32.9987 L1294.74 32.9987 L1294.74 27.2059 L1301.87 27.2059 L1301.87 24.0462 Q1301.87 16.471 1305.39 13.0277 Q1308.92 9.54393 1316.57 9.54393 L1323.62 9.54393 Z" fill="#000000" fill-rule="nonzero" fill-opacity="1" /><path clip-path="url(#clip190)" d="M1401.84 16.7545 L1401.84 25.383 Q1397.71 21.5346 1393.01 19.6307 Q1388.35 17.7268 1383.09 17.7268 Q1372.72 17.7268 1367.21 24.0867 Q1361.7 30.4061 1361.7 42.3968 Q1361.7 54.3469 1367.21 60.7069 Q1372.72 67.0263 1383.09 67.0263 Q1388.35 67.0263 1393.01 65.1223 Q1397.71 63.2184 1401.84 59.3701 L1401.84 67.9175 Q1397.55 70.8341 1392.73 72.2924 Q1387.95 73.7508 1382.6 73.7508 Q1368.87 73.7508 1360.97 65.3654 Q1353.07 56.9395 1353.07 42.3968 Q1353.07 27.8135 1360.97 19.4281 Q1368.87 11.0023 1382.6 11.0023 Q1388.03 11.0023 1392.81 12.4606 Q1397.63 13.8784 1401.84 16.7545 Z" fill="#000000" fill-rule="nonzero" fill-opacity="1" /><path clip-path="url(#clip190)" d="M1414.16 9.54393 L1421.61 9.54393 L1421.61 72.576 L1414.16 72.576 L1414.16 9.54393 Z" fill="#000000" fill-rule="nonzero" fill-opacity="1" /><path clip-path="url(#clip190)" d="M1436.44 54.671 L1436.44 27.2059 L1443.89 27.2059 L1443.89 54.3874 Q1443.89 60.8284 1446.4 64.0691 Q1448.91 67.2693 1453.94 67.2693 Q1459.97 67.2693 1463.46 63.421 Q1466.98 59.5726 1466.98 52.9291 L1466.98 27.2059 L1474.44 27.2059 L1474.44 72.576 L1466.98 72.576 L1466.98 65.6084 Q1464.27 69.7404 1460.66 71.7658 Q1457.1 73.7508 1452.36 73.7508 Q1444.54 73.7508 1440.49 68.8897 Q1436.44 64.0286 1436.44 54.671 M1455.19 26.1121 L1455.19 26.1121 Z" fill="#000000" fill-rule="nonzero" fill-opacity="1" /><path clip-path="url(#clip190)" d="M1518.71 28.5427 L1518.71 35.5912 Q1515.55 33.9709 1512.15 33.1607 Q1508.75 32.3505 1505.1 32.3505 Q1499.55 32.3505 1496.76 34.0519 Q1494 35.7533 1494 39.156 Q1494 41.7486 1495.99 43.2475 Q1497.97 44.7058 1503.97 46.0426 L1506.52 46.6097 Q1514.46 48.3111 1517.78 51.4303 Q1521.14 54.509 1521.14 60.0587 Q1521.14 66.3781 1516.12 70.0644 Q1511.14 73.7508 1502.39 73.7508 Q1498.74 73.7508 1494.77 73.0216 Q1490.84 72.3329 1486.47 70.9151 L1486.47 63.2184 Q1490.6 65.3654 1494.61 66.4591 Q1498.62 67.5124 1502.55 67.5124 Q1507.81 67.5124 1510.65 65.73 Q1513.49 63.9071 1513.49 60.6258 Q1513.49 57.5877 1511.42 55.9673 Q1509.39 54.3469 1502.47 52.8481 L1499.87 52.2405 Q1492.95 50.7821 1489.87 47.7845 Q1486.79 44.7463 1486.79 39.4801 Q1486.79 33.0797 1491.33 29.5959 Q1495.86 26.1121 1504.21 26.1121 Q1508.34 26.1121 1511.99 26.7198 Q1515.63 27.3274 1518.71 28.5427 Z" fill="#000000" fill-rule="nonzero" fill-opacity="1" /><path clip-path="url(#clip190)" d="M1540.38 14.324 L1540.38 27.2059 L1555.74 27.2059 L1555.74 32.9987 L1540.38 32.9987 L1540.38 57.6282 Q1540.38 63.1779 1541.88 64.7578 Q1543.42 66.3376 1548.08 66.3376 L1555.74 66.3376 L1555.74 72.576 L1548.08 72.576 Q1539.45 72.576 1536.17 69.3758 Q1532.89 66.1351 1532.89 57.6282 L1532.89 32.9987 L1527.42 32.9987 L1527.42 27.2059 L1532.89 27.2059 L1532.89 14.324 L1540.38 14.324 Z" fill="#000000" fill-rule="nonzero" fill-opacity="1" /><path clip-path="url(#clip190)" d="M1604.35 48.0275 L1604.35 51.6733 L1570.08 51.6733 Q1570.56 59.3701 1574.69 63.421 Q1578.87 67.4314 1586.28 67.4314 Q1590.57 67.4314 1594.58 66.3781 Q1598.64 65.3249 1602.61 63.2184 L1602.61 70.267 Q1598.6 71.9684 1594.38 72.8596 Q1590.17 73.7508 1585.83 73.7508 Q1574.98 73.7508 1568.62 67.4314 Q1562.3 61.1119 1562.3 50.3365 Q1562.3 39.1965 1568.29 32.6746 Q1574.33 26.1121 1584.54 26.1121 Q1593.69 26.1121 1599 32.0264 Q1604.35 37.9003 1604.35 48.0275 M1596.89 45.84 Q1596.81 39.7232 1593.45 36.0774 Q1590.13 32.4315 1584.62 32.4315 Q1578.38 32.4315 1574.61 35.9558 Q1570.89 39.4801 1570.32 45.8805 L1596.89 45.84 Z" fill="#000000" fill-rule="nonzero" fill-opacity="1" /><path clip-path="url(#clip190)" d="M1642.87 34.1734 Q1641.62 33.4443 1640.12 33.1202 Q1638.66 32.7556 1636.88 32.7556 Q1630.56 32.7556 1627.15 36.8875 Q1623.79 40.9789 1623.79 48.6757 L1623.79 72.576 L1616.3 72.576 L1616.3 27.2059 L1623.79 27.2059 L1623.79 34.2544 Q1626.14 30.1225 1629.91 28.1376 Q1633.68 26.1121 1639.06 26.1121 Q1639.83 26.1121 1640.77 26.2337 Q1641.7 26.3147 1642.83 26.5172 L1642.87 34.1734 Z" fill="#000000" fill-rule="nonzero" fill-opacity="1" /><path clip-path="url(#clip190)" d="M1679.61 28.5427 L1679.61 35.5912 Q1676.45 33.9709 1673.05 33.1607 Q1669.65 32.3505 1666 32.3505 Q1660.45 32.3505 1657.66 34.0519 Q1654.9 35.7533 1654.9 39.156 Q1654.9 41.7486 1656.89 43.2475 Q1658.87 44.7058 1664.87 46.0426 L1667.42 46.6097 Q1675.36 48.3111 1678.68 51.4303 Q1682.04 54.509 1682.04 60.0587 Q1682.04 66.3781 1677.02 70.0644 Q1672.04 73.7508 1663.29 73.7508 Q1659.64 73.7508 1655.67 73.0216 Q1651.74 72.3329 1647.37 70.9151 L1647.37 63.2184 Q1651.5 65.3654 1655.51 66.4591 Q1659.52 67.5124 1663.45 67.5124 Q1668.72 67.5124 1671.55 65.73 Q1674.39 63.9071 1674.39 60.6258 Q1674.39 57.5877 1672.32 55.9673 Q1670.3 54.3469 1663.37 52.8481 L1660.78 52.2405 Q1653.85 50.7821 1650.77 47.7845 Q1647.69 44.7463 1647.69 39.4801 Q1647.69 33.0797 1652.23 29.5959 Q1656.77 26.1121 1665.11 26.1121 Q1669.24 26.1121 1672.89 26.7198 Q1676.53 27.3274 1679.61 28.5427 Z" fill="#000000" fill-rule="nonzero" fill-opacity="1" /><polyline clip-path="url(#clip192)" style="stroke:#50ad9f; stroke-linecap:round; stroke-linejoin:round; stroke-width:8; stroke-opacity:1; fill:none" points="280.231,1033.7 312.17,1049.59 376.048,1054.61 503.804,1104.01 759.317,1109.03 1270.34,1083.69 2292.39,1025.29 "/>
<circle clip-path="url(#clip192)" cx="280.231" cy="1033.7" r="25.2" fill="#50ad9f" fill-rule="evenodd" fill-opacity="1" stroke="#000000" stroke-opacity="1" stroke-width="3.2"/>
<circle clip-path="url(#clip192)" cx="312.17" cy="1049.59" r="25.2" fill="#50ad9f" fill-rule="evenodd" fill-opacity="1" stroke="#000000" stroke-opacity="1" stroke-width="3.2"/>
<circle clip-path="url(#clip192)" cx="376.048" cy="1054.61" r="25.2" fill="#50ad9f" fill-rule="evenodd" fill-opacity="1" stroke="#000000" stroke-opacity="1" stroke-width="3.2"/>
<circle clip-path="url(#clip192)" cx="503.804" cy="1104.01" r="25.2" fill="#50ad9f" fill-rule="evenodd" fill-opacity="1" stroke="#000000" stroke-opacity="1" stroke-width="3.2"/>
<circle clip-path="url(#clip192)" cx="759.317" cy="1109.03" r="25.2" fill="#50ad9f" fill-rule="evenodd" fill-opacity="1" stroke="#000000" stroke-opacity="1" stroke-width="3.2"/>
<circle clip-path="url(#clip192)" cx="1270.34" cy="1083.69" r="25.2" fill="#50ad9f" fill-rule="evenodd" fill-opacity="1" stroke="#000000" stroke-opacity="1" stroke-width="3.2"/>
<circle clip-path="url(#clip192)" cx="2292.39" cy="1025.29" r="25.2" fill="#50ad9f" fill-rule="evenodd" fill-opacity="1" stroke="#000000" stroke-opacity="1" stroke-width="3.2"/>
<polyline clip-path="url(#clip192)" style="stroke:#0000a2; stroke-linecap:round; stroke-linejoin:round; stroke-width:8; stroke-opacity:1; fill:none" points="280.231,976.055 312.17,1024.48 376.048,1094.24 503.804,1307.74 759.317,1363.36 1270.34,1386.4 2292.39,1361.52 "/>
<path clip-path="url(#clip192)" d="M260.231 956.055 L260.231 996.055 L300.231 996.055 L300.231 956.055 L260.231 956.055 Z" fill="#0000a2" fill-rule="evenodd" fill-opacity="1" stroke="#000000" stroke-opacity="1" stroke-width="3.2"/>
<path clip-path="url(#clip192)" d="M292.17 1004.48 L292.17 1044.48 L332.17 1044.48 L332.17 1004.48 L292.17 1004.48 Z" fill="#0000a2" fill-rule="evenodd" fill-opacity="1" stroke="#000000" stroke-opacity="1" stroke-width="3.2"/>
<path clip-path="url(#clip192)" d="M356.048 1074.24 L356.048 1114.24 L396.048 1114.24 L396.048 1074.24 L356.048 1074.24 Z" fill="#0000a2" fill-rule="evenodd" fill-opacity="1" stroke="#000000" stroke-opacity="1" stroke-width="3.2"/>
<path clip-path="url(#clip192)" d="M483.804 1287.74 L483.804 1327.74 L523.804 1327.74 L523.804 1287.74 L483.804 1287.74 Z" fill="#0000a2" fill-rule="evenodd" fill-opacity="1" stroke="#000000" stroke-opacity="1" stroke-width="3.2"/>
<path clip-path="url(#clip192)" d="M739.317 1343.36 L739.317 1383.36 L779.317 1383.36 L779.317 1343.36 L739.317 1343.36 Z" fill="#0000a2" fill-rule="evenodd" fill-opacity="1" stroke="#000000" stroke-opacity="1" stroke-width="3.2"/>
<path clip-path="url(#clip192)" d="M1250.34 1366.4 L1250.34 1406.4 L1290.34 1406.4 L1290.34 1366.4 L1250.34 1366.4 Z" fill="#0000a2" fill-rule="evenodd" fill-opacity="1" stroke="#000000" stroke-opacity="1" stroke-width="3.2"/>
<path clip-path="url(#clip192)" d="M2272.39 1341.52 L2272.39 1381.52 L2312.39 1381.52 L2312.39 1341.52 L2272.39 1341.52 Z" fill="#0000a2" fill-rule="evenodd" fill-opacity="1" stroke="#000000" stroke-opacity="1" stroke-width="3.2"/>
<polyline clip-path="url(#clip192)" style="stroke:#bc272d; stroke-linecap:round; stroke-linejoin:round; stroke-width:8; stroke-opacity:1; fill:none" points="280.231,1025.17 312.17,862.006 376.048,711.256 503.804,508.423 759.317,329.112 1270.34,220.428 2292.39,160.256 "/>
<path clip-path="url(#clip192)" d="M280.231 997.171 L273.651 1016.1 L253.603 1016.52 L269.591 1028.64 L263.767 1047.82 L280.231 1036.37 L296.695 1047.82 L290.871 1028.64 L306.859 1016.52 L286.811 1016.1 L280.231 997.171 Z" fill="#bc272d" fill-rule="evenodd" fill-opacity="1" stroke="#000000" stroke-opacity="1" stroke-width="3.2"/>
<path clip-path="url(#clip192)" d="M312.17 834.006 L305.59 852.934 L285.542 853.354 L301.53 865.478 L295.706 884.658 L312.17 873.206 L328.634 884.658 L322.81 865.478 L338.798 853.354 L318.75 852.934 L312.17 834.006 Z" fill="#bc272d" fill-rule="evenodd" fill-opacity="1" stroke="#000000" stroke-opacity="1" stroke-width="3.2"/>
<path clip-path="url(#clip192)" d="M376.048 683.256 L369.468 702.184 L349.42 702.604 L365.408 714.728 L359.584 733.908 L376.048 722.456 L392.512 733.908 L386.688 714.728 L402.676 702.604 L382.628 702.184 L376.048 683.256 Z" fill="#bc272d" fill-rule="evenodd" fill-opacity="1" stroke="#000000" stroke-opacity="1" stroke-width="3.2"/>
<path clip-path="url(#clip192)" d="M503.804 480.423 L497.224 499.351 L477.176 499.771 L493.164 511.895 L487.34 531.075 L503.804 519.623 L520.268 531.075 L514.444 511.895 L530.432 499.771 L510.384 499.351 L503.804 480.423 Z" fill="#bc272d" fill-rule="evenodd" fill-opacity="1" stroke="#000000" stroke-opacity="1" stroke-width="3.2"/>
<path clip-path="url(#clip192)" d="M759.317 301.112 L752.737 320.04 L732.689 320.46 L748.677 332.584 L742.853 351.764 L759.317 340.312 L775.781 351.764 L769.957 332.584 L785.945 320.46 L765.897 320.04 L759.317 301.112 Z" fill="#bc272d" fill-rule="evenodd" fill-opacity="1" stroke="#000000" stroke-opacity="1" stroke-width="3.2"/>
<path clip-path="url(#clip192)" d="M1270.34 192.428 L1263.76 211.356 L1243.71 211.776 L1259.7 223.9 L1253.88 243.08 L1270.34 231.628 L1286.81 243.08 L1280.98 223.9 L1296.97 211.776 L1276.92 211.356 L1270.34 192.428 Z" fill="#bc272d" fill-rule="evenodd" fill-opacity="1" stroke="#000000" stroke-opacity="1" stroke-width="3.2"/>
<path clip-path="url(#clip192)" d="M2292.39 132.256 L2285.81 151.184 L2265.76 151.604 L2281.75 163.728 L2275.93 182.908 L2292.39 171.456 L2308.86 182.908 L2303.03 163.728 L2319.02 151.604 L2298.97 151.184 L2292.39 132.256 Z" fill="#bc272d" fill-rule="evenodd" fill-opacity="1" stroke="#000000" stroke-opacity="1" stroke-width="3.2"/>
<polyline clip-path="url(#clip192)" style="stroke:#e9c716; stroke-linecap:round; stroke-linejoin:round; stroke-width:8; stroke-opacity:1; fill:none" points="280.231,1035.51 312.17,1044.62 376.048,1042.79 503.804,1088.19 759.317,1097.48 1270.34,1106.06 2292.39,1124.76 "/>
<path clip-path="url(#clip192)" d="M280.231 1007.51 L252.231 1063.51 L308.231 1063.51 L280.231 1007.51 Z" fill="#e9c716" fill-rule="evenodd" fill-opacity="1" stroke="#000000" stroke-opacity="1" stroke-width="3.2"/>
<path clip-path="url(#clip192)" d="M312.17 1016.62 L284.17 1072.62 L340.17 1072.62 L312.17 1016.62 Z" fill="#e9c716" fill-rule="evenodd" fill-opacity="1" stroke="#000000" stroke-opacity="1" stroke-width="3.2"/>
<path clip-path="url(#clip192)" d="M376.048 1014.79 L348.048 1070.79 L404.048 1070.79 L376.048 1014.79 Z" fill="#e9c716" fill-rule="evenodd" fill-opacity="1" stroke="#000000" stroke-opacity="1" stroke-width="3.2"/>
<path clip-path="url(#clip192)" d="M503.804 1060.19 L475.804 1116.19 L531.804 1116.19 L503.804 1060.19 Z" fill="#e9c716" fill-rule="evenodd" fill-opacity="1" stroke="#000000" stroke-opacity="1" stroke-width="3.2"/>
<path clip-path="url(#clip192)" d="M759.317 1069.48 L731.317 1125.48 L787.317 1125.48 L759.317 1069.48 Z" fill="#e9c716" fill-rule="evenodd" fill-opacity="1" stroke="#000000" stroke-opacity="1" stroke-width="3.2"/>
<path clip-path="url(#clip192)" d="M1270.34 1078.06 L1242.34 1134.06 L1298.34 1134.06 L1270.34 1078.06 Z" fill="#e9c716" fill-rule="evenodd" fill-opacity="1" stroke="#000000" stroke-opacity="1" stroke-width="3.2"/>
<path clip-path="url(#clip192)" d="M2292.39 1096.76 L2264.39 1152.76 L2320.39 1152.76 L2292.39 1096.76 Z" fill="#e9c716" fill-rule="evenodd" fill-opacity="1" stroke="#000000" stroke-opacity="1" stroke-width="3.2"/>
<path clip-path="url(#clip190)" d="M1956.15 920.33 L2281.66 920.33 L2281.66 661.13 L1956.15 661.13  Z" fill="#ffffff" fill-rule="evenodd" fill-opacity="1"/>
<polyline clip-path="url(#clip190)" style="stroke:#000000; stroke-linecap:round; stroke-linejoin:round; stroke-width:4; stroke-opacity:1; fill:none" points="1956.15,920.33 2281.66,920.33 2281.66,661.13 1956.15,661.13 1956.15,920.33 "/>
<polyline clip-path="url(#clip190)" style="stroke:#50ad9f; stroke-linecap:round; stroke-linejoin:round; stroke-width:8; stroke-opacity:1; fill:none" points="1979.85,712.97 2122.04,712.97 "/>
<circle clip-path="url(#clip190)" cx="2050.94" cy="712.97" r="19.749" fill="#50ad9f" fill-rule="evenodd" fill-opacity="1" stroke="#000000" stroke-opacity="1" stroke-width="2.73067"/>
<path clip-path="url(#clip190)" d="M2145.74 695.69 L2165.6 695.69 L2165.6 699.625 L2150.42 699.625 L2150.42 709.81 L2164.12 709.81 L2164.12 713.745 L2150.42 713.745 L2150.42 730.25 L2145.74 730.25 L2145.74 695.69 Z" fill="#000000" fill-rule="nonzero" fill-opacity="1" /><path clip-path="url(#clip190)" d="M2169.37 704.324 L2173.63 704.324 L2173.63 730.25 L2169.37 730.25 L2169.37 704.324 M2169.37 694.231 L2173.63 694.231 L2173.63 699.625 L2169.37 699.625 L2169.37 694.231 Z" fill="#000000" fill-rule="nonzero" fill-opacity="1" /><path clip-path="url(#clip190)" d="M2186.76 696.963 L2186.76 704.324 L2195.53 704.324 L2195.53 707.634 L2186.76 707.634 L2186.76 721.708 Q2186.76 724.879 2187.61 725.782 Q2188.49 726.685 2191.16 726.685 L2195.53 726.685 L2195.53 730.25 L2191.16 730.25 Q2186.23 730.25 2184.35 728.421 Q2182.48 726.569 2182.48 721.708 L2182.48 707.634 L2179.35 707.634 L2179.35 704.324 L2182.48 704.324 L2182.48 696.963 L2186.76 696.963 Z" fill="#000000" fill-rule="nonzero" fill-opacity="1" /><polyline clip-path="url(#clip190)" style="stroke:#0000a2; stroke-linecap:round; stroke-linejoin:round; stroke-width:8; stroke-opacity:1; fill:none" points="1979.85,764.81 2122.04,764.81 "/>
<path clip-path="url(#clip190)" d="M2029 742.866 L2029 786.753 L2072.89 786.753 L2072.89 742.866 L2029 742.866 Z" fill="#0000a2" fill-rule="evenodd" fill-opacity="1" stroke="#000000" stroke-opacity="1" stroke-width="3.72364"/>
<path clip-path="url(#clip190)" d="M2167.98 748.664 L2167.98 753.224 Q2165.32 751.951 2162.96 751.326 Q2160.6 750.701 2158.4 750.701 Q2154.58 750.701 2152.5 752.182 Q2150.44 753.664 2150.44 756.395 Q2150.44 758.687 2151.8 759.867 Q2153.19 761.025 2157.04 761.742 L2159.86 762.321 Q2165.09 763.317 2167.57 765.84 Q2170.07 768.34 2170.07 772.553 Q2170.07 777.576 2166.69 780.168 Q2163.33 782.761 2156.83 782.761 Q2154.37 782.761 2151.6 782.205 Q2148.84 781.65 2145.88 780.562 L2145.88 775.747 Q2148.73 777.344 2151.46 778.154 Q2154.19 778.965 2156.83 778.965 Q2160.83 778.965 2163.01 777.391 Q2165.18 775.816 2165.18 772.9 Q2165.18 770.354 2163.61 768.918 Q2162.06 767.483 2158.49 766.766 L2155.65 766.21 Q2150.42 765.168 2148.08 762.946 Q2145.74 760.724 2145.74 756.766 Q2145.74 752.182 2148.96 749.543 Q2152.2 746.905 2157.87 746.905 Q2160.3 746.905 2162.82 747.344 Q2165.35 747.784 2167.98 748.664 Z" fill="#000000" fill-rule="nonzero" fill-opacity="1" /><path clip-path="url(#clip190)" d="M2187.96 784.497 Q2186.16 789.127 2184.44 790.539 Q2182.73 791.951 2179.86 791.951 L2176.46 791.951 L2176.46 788.386 L2178.96 788.386 Q2180.72 788.386 2181.69 787.553 Q2182.66 786.719 2183.84 783.617 L2184.6 781.673 L2174.12 756.164 L2178.63 756.164 L2186.73 776.441 L2194.84 756.164 L2199.35 756.164 L2187.96 784.497 Z" fill="#000000" fill-rule="nonzero" fill-opacity="1" /><path clip-path="url(#clip190)" d="M2225.41 761.141 Q2227.01 758.27 2229.23 756.905 Q2231.46 755.539 2234.47 755.539 Q2238.52 755.539 2240.72 758.386 Q2242.91 761.21 2242.91 766.442 L2242.91 782.09 L2238.63 782.09 L2238.63 766.58 Q2238.63 762.854 2237.31 761.048 Q2235.99 759.242 2233.29 759.242 Q2229.97 759.242 2228.05 761.442 Q2226.13 763.641 2226.13 767.437 L2226.13 782.09 L2221.85 782.09 L2221.85 766.58 Q2221.85 762.83 2220.53 761.048 Q2219.21 759.242 2216.46 759.242 Q2213.19 759.242 2211.27 761.465 Q2209.35 763.664 2209.35 767.437 L2209.35 782.09 L2205.07 782.09 L2205.07 756.164 L2209.35 756.164 L2209.35 760.192 Q2210.81 757.807 2212.85 756.673 Q2214.88 755.539 2217.68 755.539 Q2220.51 755.539 2222.47 756.974 Q2224.47 758.409 2225.41 761.141 Z" fill="#000000" fill-rule="nonzero" fill-opacity="1" /><polyline clip-path="url(#clip190)" style="stroke:#bc272d; stroke-linecap:round; stroke-linejoin:round; stroke-width:8; stroke-opacity:1; fill:none" points="1979.85,816.65 2122.04,816.65 "/>
<path clip-path="url(#clip190)" d="M2050.94 794.706 L2045.79 809.54 L2030.08 809.869 L2042.61 819.371 L2038.04 834.402 L2050.94 825.427 L2063.85 834.402 L2059.28 819.371 L2071.81 809.869 L2056.1 809.54 L2050.94 794.706 Z" fill="#bc272d" fill-rule="evenodd" fill-opacity="1" stroke="#000000" stroke-opacity="1" stroke-width="2.73067"/>
<path clip-path="url(#clip190)" d="M2145.74 799.37 L2165.6 799.37 L2165.6 803.305 L2150.42 803.305 L2150.42 813.49 L2164.12 813.49 L2164.12 817.425 L2150.42 817.425 L2150.42 833.93 L2145.74 833.93 L2145.74 799.37 Z" fill="#000000" fill-rule="nonzero" fill-opacity="1" /><path clip-path="url(#clip190)" d="M2172.82 797.911 L2177.08 797.911 L2177.08 833.93 L2172.82 833.93 L2172.82 797.911 Z" fill="#000000" fill-rule="nonzero" fill-opacity="1" /><path clip-path="url(#clip190)" d="M2197.78 820.897 Q2192.61 820.897 2190.62 822.078 Q2188.63 823.258 2188.63 826.106 Q2188.63 828.374 2190.11 829.717 Q2191.62 831.036 2194.19 831.036 Q2197.73 831.036 2199.86 828.536 Q2202.01 826.013 2202.01 821.846 L2202.01 820.897 L2197.78 820.897 M2206.27 819.138 L2206.27 833.93 L2202.01 833.93 L2202.01 829.994 Q2200.55 832.356 2198.38 833.49 Q2196.2 834.601 2193.05 834.601 Q2189.07 834.601 2186.71 832.379 Q2184.37 830.133 2184.37 826.383 Q2184.37 822.008 2187.29 819.786 Q2190.23 817.564 2196.04 817.564 L2202.01 817.564 L2202.01 817.147 Q2202.01 814.207 2200.07 812.61 Q2198.15 810.99 2194.65 810.99 Q2192.43 810.99 2190.32 811.522 Q2188.22 812.055 2186.27 813.12 L2186.27 809.184 Q2188.61 808.282 2190.81 807.842 Q2193.01 807.379 2195.09 807.379 Q2200.72 807.379 2203.49 810.295 Q2206.27 813.212 2206.27 819.138 Z" fill="#000000" fill-rule="nonzero" fill-opacity="1" /><path clip-path="url(#clip190)" d="M2219.26 800.643 L2219.26 808.004 L2228.03 808.004 L2228.03 811.314 L2219.26 811.314 L2219.26 825.388 Q2219.26 828.559 2220.11 829.462 Q2220.99 830.365 2223.66 830.365 L2228.03 830.365 L2228.03 833.93 L2223.66 833.93 Q2218.72 833.93 2216.85 832.101 Q2214.97 830.249 2214.97 825.388 L2214.97 811.314 L2211.85 811.314 L2211.85 808.004 L2214.97 808.004 L2214.97 800.643 L2219.26 800.643 Z" fill="#000000" fill-rule="nonzero" fill-opacity="1" /><polyline clip-path="url(#clip190)" style="stroke:#e9c716; stroke-linecap:round; stroke-linejoin:round; stroke-width:8; stroke-opacity:1; fill:none" points="1979.85,868.49 2122.04,868.49 "/>
<path clip-path="url(#clip190)" d="M2050.94 846.546 L2029 890.433 L2072.89 890.433 L2050.94 846.546 Z" fill="#e9c716" fill-rule="evenodd" fill-opacity="1" stroke="#000000" stroke-opacity="1" stroke-width="2.73067"/>
<path clip-path="url(#clip190)" d="M2150.42 855.052 L2150.42 868.038 L2156.29 868.038 Q2159.56 868.038 2161.34 866.348 Q2163.12 864.659 2163.12 861.534 Q2163.12 858.432 2161.34 856.742 Q2159.56 855.052 2156.29 855.052 L2150.42 855.052 M2145.74 851.21 L2156.29 851.21 Q2162.1 851.21 2165.07 853.848 Q2168.05 856.464 2168.05 861.534 Q2168.05 866.649 2165.07 869.265 Q2162.1 871.881 2156.29 871.881 L2150.42 871.881 L2150.42 885.77 L2145.74 885.77 L2145.74 851.21 Z" fill="#000000" fill-rule="nonzero" fill-opacity="1" /><path clip-path="url(#clip190)" d="M2194.63 871.742 L2194.63 873.825 L2175.04 873.825 Q2175.32 878.223 2177.68 880.538 Q2180.07 882.83 2184.3 882.83 Q2186.76 882.83 2189.05 882.228 Q2191.36 881.626 2193.63 880.422 L2193.63 884.45 Q2191.34 885.422 2188.93 885.932 Q2186.53 886.441 2184.05 886.441 Q2177.85 886.441 2174.21 882.83 Q2170.6 879.219 2170.6 873.061 Q2170.6 866.696 2174.03 862.969 Q2177.48 859.219 2183.31 859.219 Q2188.54 859.219 2191.57 862.598 Q2194.63 865.955 2194.63 871.742 M2190.37 870.492 Q2190.32 866.997 2188.4 864.913 Q2186.5 862.83 2183.35 862.83 Q2179.79 862.83 2177.64 864.844 Q2175.51 866.858 2175.18 870.515 L2190.37 870.492 Z" fill="#000000" fill-rule="nonzero" fill-opacity="1" /><path clip-path="url(#clip190)" d="M2216.64 863.825 Q2215.92 863.409 2215.07 863.223 Q2214.23 863.015 2213.22 863.015 Q2209.6 863.015 2207.66 865.376 Q2205.74 867.714 2205.74 872.112 L2205.74 885.77 L2201.46 885.77 L2201.46 859.844 L2205.74 859.844 L2205.74 863.872 Q2207.08 861.51 2209.23 860.376 Q2211.39 859.219 2214.47 859.219 Q2214.91 859.219 2215.44 859.288 Q2215.97 859.335 2216.62 859.45 L2216.64 863.825 Z" fill="#000000" fill-rule="nonzero" fill-opacity="1" /><path clip-path="url(#clip190)" d="M2240.46 864.821 Q2242.06 861.95 2244.28 860.585 Q2246.5 859.219 2249.51 859.219 Q2253.56 859.219 2255.76 862.066 Q2257.96 864.89 2257.96 870.122 L2257.96 885.77 L2253.68 885.77 L2253.68 870.26 Q2253.68 866.534 2252.36 864.728 Q2251.04 862.922 2248.33 862.922 Q2245.02 862.922 2243.1 865.122 Q2241.18 867.321 2241.18 871.117 L2241.18 885.77 L2236.9 885.77 L2236.9 870.26 Q2236.9 866.51 2235.58 864.728 Q2234.26 862.922 2231.5 862.922 Q2228.24 862.922 2226.32 865.145 Q2224.4 867.344 2224.4 871.117 L2224.4 885.77 L2220.11 885.77 L2220.11 859.844 L2224.4 859.844 L2224.4 863.872 Q2225.85 861.487 2227.89 860.353 Q2229.93 859.219 2232.73 859.219 Q2235.55 859.219 2237.52 860.654 Q2239.51 862.089 2240.46 864.821 Z" fill="#000000" fill-rule="nonzero" fill-opacity="1" /></svg>
