<?xml version="1.0" encoding="utf-8"?>
<svg xmlns="http://www.w3.org/2000/svg" xmlns:xlink="http://www.w3.org/1999/xlink" width="600" height="400" viewBox="0 0 2400 1600">
<defs>
  <clipPath id="clip800">
    <rect x="0" y="0" width="2400" height="1600"/>
  </clipPath>
</defs>
<path clip-path="url(#clip800)" d="M0 1600 L2400 1600 L2400 0 L0 0  Z" fill="#ffffff" fill-rule="evenodd" fill-opacity="1"/>
<defs>
  <clipPath id="clip801">
    <rect x="480" y="0" width="1681" height="1600"/>
  </clipPath>
</defs>
<path clip-path="url(#clip800)" d="M287.366 1423.18 L2352.76 1423.18 L2352.76 123.472 L287.366 123.472  Z" fill="#ffffff" fill-rule="evenodd" fill-opacity="1"/>
<defs>
  <clipPath id="clip802">
    <rect x="287" y="123" width="2066" height="1301"/>
  </clipPath>
</defs>
<polyline clip-path="url(#clip802)" style="stroke:#000000; stroke-linecap:round; stroke-linejoin:round; stroke-width:2; stroke-opacity:0.1; fill:none" points="2294.3,1423.18 2294.3,123.472 "/>
<polyline clip-path="url(#clip802)" style="stroke:#000000; stroke-linecap:round; stroke-linejoin:round; stroke-width:2; stroke-opacity:0.1; fill:none" points="1969.55,1423.18 1969.55,123.472 "/>
<polyline clip-path="url(#clip802)" style="stroke:#000000; stroke-linecap:round; stroke-linejoin:round; stroke-width:2; stroke-opacity:0.1; fill:none" points="1644.81,1423.18 1644.81,123.472 "/>
<polyline clip-path="url(#clip802)" style="stroke:#000000; stroke-linecap:round; stroke-linejoin:round; stroke-width:2; stroke-opacity:0.1; fill:none" points="1320.06,1423.18 1320.06,123.472 "/>
<polyline clip-path="url(#clip802)" style="stroke:#000000; stroke-linecap:round; stroke-linejoin:round; stroke-width:2; stroke-opacity:0.1; fill:none" points="995.314,1423.18 995.314,123.472 "/>
<polyline clip-path="url(#clip802)" style="stroke:#000000; stroke-linecap:round; stroke-linejoin:round; stroke-width:2; stroke-opacity:0.1; fill:none" points="670.567,1423.18 670.567,123.472 "/>
<polyline clip-path="url(#clip802)" style="stroke:#000000; stroke-linecap:round; stroke-linejoin:round; stroke-width:2; stroke-opacity:0.1; fill:none" points="345.82,1423.18 345.82,123.472 "/>
<polyline clip-path="url(#clip800)" style="stroke:#000000; stroke-linecap:round; stroke-linejoin:round; stroke-width:4; stroke-opacity:1; fill:none" points="2352.76,1423.18 287.366,1423.18 "/>
<polyline clip-path="url(#clip800)" style="stroke:#000000; stroke-linecap:round; stroke-linejoin:round; stroke-width:4; stroke-opacity:1; fill:none" points="2294.3,1423.18 2294.3,1404.28 "/>
<polyline clip-path="url(#clip800)" style="stroke:#000000; stroke-linecap:round; stroke-linejoin:round; stroke-width:4; stroke-opacity:1; fill:none" points="1969.55,1423.18 1969.55,1404.28 "/>
<polyline clip-path="url(#clip800)" style="stroke:#000000; stroke-linecap:round; stroke-linejoin:round; stroke-width:4; stroke-opacity:1; fill:none" points="1644.81,1423.18 1644.81,1404.28 "/>
<polyline clip-path="url(#clip800)" style="stroke:#000000; stroke-linecap:round; stroke-linejoin:round; stroke-width:4; stroke-opacity:1; fill:none" points="1320.06,1423.18 1320.06,1404.28 "/>
<polyline clip-path="url(#clip800)" style="stroke:#000000; stroke-linecap:round; stroke-linejoin:round; stroke-width:4; stroke-opacity:1; fill:none" points="995.314,1423.18 995.314,1404.28 "/>
<polyline clip-path="url(#clip800)" style="stroke:#000000; stroke-linecap:round; stroke-linejoin:round; stroke-width:4; stroke-opacity:1; fill:none" points="670.567,1423.18 670.567,1404.28 "/>
<polyline clip-path="url(#clip800)" style="stroke:#000000; stroke-linecap:round; stroke-linejoin:round; stroke-width:4; stroke-opacity:1; fill:none" points="345.82,1423.18 345.82,1404.28 "/>
<path clip-path="url(#clip800)" d="M2272.48 1454.1 Q2268.87 1454.1 2267.04 1457.66 Q2265.24 1461.2 2265.24 1468.33 Q2265.24 1475.44 2267.04 1479.01 Q2268.87 1482.55 2272.48 1482.55 Q2276.12 1482.55 2277.92 1479.01 Q2279.75 1475.44 2279.75 1468.33 Q2279.75 1461.2 2277.92 1457.66 Q2276.12 1454.1 2272.48 1454.1 M2272.48 1450.39 Q2278.29 1450.39 2281.35 1455 Q2284.43 1459.58 2284.43 1468.33 Q2284.43 1477.06 2281.35 1481.67 Q2278.29 1486.25 2272.48 1486.25 Q2266.67 1486.25 2263.6 1481.67 Q2260.54 1477.06 2260.54 1468.33 Q2260.54 1459.58 2263.6 1455 Q2266.67 1450.39 2272.48 1450.39 Z" fill="#000000" fill-rule="nonzero" fill-opacity="1" /><path clip-path="url(#clip800)" d="M2292.65 1479.7 L2297.53 1479.7 L2297.53 1485.58 L2292.65 1485.58 L2292.65 1479.7 Z" fill="#000000" fill-rule="nonzero" fill-opacity="1" /><path clip-path="url(#clip800)" d="M2311.74 1481.64 L2328.06 1481.64 L2328.06 1485.58 L2306.12 1485.58 L2306.12 1481.64 Q2308.78 1478.89 2313.36 1474.26 Q2317.97 1469.61 2319.15 1468.27 Q2321.4 1465.74 2322.28 1464.01 Q2323.18 1462.25 2323.18 1460.56 Q2323.18 1457.8 2321.23 1456.07 Q2319.31 1454.33 2316.21 1454.33 Q2314.01 1454.33 2311.56 1455.09 Q2309.13 1455.86 2306.35 1457.41 L2306.35 1452.69 Q2309.17 1451.55 2311.63 1450.97 Q2314.08 1450.39 2316.12 1450.39 Q2321.49 1450.39 2324.68 1453.08 Q2327.88 1455.77 2327.88 1460.26 Q2327.88 1462.39 2327.07 1464.31 Q2326.28 1466.2 2324.17 1468.8 Q2323.6 1469.47 2320.49 1472.69 Q2317.39 1475.88 2311.74 1481.64 Z" fill="#000000" fill-rule="nonzero" fill-opacity="1" /><path clip-path="url(#clip800)" d="M1947.26 1454.1 Q1943.65 1454.1 1941.82 1457.66 Q1940.02 1461.2 1940.02 1468.33 Q1940.02 1475.44 1941.82 1479.01 Q1943.65 1482.55 1947.26 1482.55 Q1950.9 1482.55 1952.7 1479.01 Q1954.53 1475.44 1954.53 1468.33 Q1954.53 1461.2 1952.7 1457.66 Q1950.9 1454.1 1947.26 1454.1 M1947.26 1450.39 Q1953.07 1450.39 1956.13 1455 Q1959.21 1459.58 1959.21 1468.33 Q1959.21 1477.06 1956.13 1481.67 Q1953.07 1486.25 1947.26 1486.25 Q1941.45 1486.25 1938.37 1481.67 Q1935.32 1477.06 1935.32 1468.33 Q1935.32 1459.58 1938.37 1455 Q1941.45 1450.39 1947.26 1450.39 Z" fill="#000000" fill-rule="nonzero" fill-opacity="1" /><path clip-path="url(#clip800)" d="M1967.42 1479.7 L1972.31 1479.7 L1972.31 1485.58 L1967.42 1485.58 L1967.42 1479.7 Z" fill="#000000" fill-rule="nonzero" fill-opacity="1" /><path clip-path="url(#clip800)" d="M1996.66 1466.95 Q2000.02 1467.66 2001.89 1469.93 Q2003.79 1472.2 2003.79 1475.53 Q2003.79 1480.65 2000.27 1483.45 Q1996.75 1486.25 1990.27 1486.25 Q1988.1 1486.25 1985.78 1485.81 Q1983.49 1485.39 1981.04 1484.54 L1981.04 1480.02 Q1982.98 1481.16 1985.3 1481.74 Q1987.61 1482.32 1990.13 1482.32 Q1994.53 1482.32 1996.82 1480.58 Q1999.14 1478.84 1999.14 1475.53 Q1999.14 1472.48 1996.99 1470.77 Q1994.86 1469.03 1991.04 1469.03 L1987.01 1469.03 L1987.01 1465.19 L1991.22 1465.19 Q1994.67 1465.19 1996.5 1463.82 Q1998.33 1462.43 1998.33 1459.84 Q1998.33 1457.18 1996.43 1455.77 Q1994.55 1454.33 1991.04 1454.33 Q1989.11 1454.33 1986.92 1454.75 Q1984.72 1455.16 1982.08 1456.04 L1982.08 1451.88 Q1984.74 1451.14 1987.05 1450.77 Q1989.39 1450.39 1991.45 1450.39 Q1996.78 1450.39 1999.88 1452.83 Q2002.98 1455.23 2002.98 1459.35 Q2002.98 1462.22 2001.34 1464.21 Q1999.69 1466.18 1996.66 1466.95 Z" fill="#000000" fill-rule="nonzero" fill-opacity="1" /><path clip-path="url(#clip800)" d="M1621.95 1454.1 Q1618.34 1454.1 1616.51 1457.66 Q1614.7 1461.2 1614.7 1468.33 Q1614.7 1475.44 1616.51 1479.01 Q1618.34 1482.55 1621.95 1482.55 Q1625.58 1482.55 1627.39 1479.01 Q1629.22 1475.44 1629.22 1468.33 Q1629.22 1461.2 1627.39 1457.66 Q1625.58 1454.1 1621.95 1454.1 M1621.95 1450.39 Q1627.76 1450.39 1630.81 1455 Q1633.89 1459.58 1633.89 1468.33 Q1633.89 1477.06 1630.81 1481.67 Q1627.76 1486.25 1621.95 1486.25 Q1616.14 1486.25 1613.06 1481.67 Q1610 1477.06 1610 1468.33 Q1610 1459.58 1613.06 1455 Q1616.14 1450.39 1621.95 1450.39 Z" fill="#000000" fill-rule="nonzero" fill-opacity="1" /><path clip-path="url(#clip800)" d="M1642.11 1479.7 L1647 1479.7 L1647 1485.58 L1642.11 1485.58 L1642.11 1479.7 Z" fill="#000000" fill-rule="nonzero" fill-opacity="1" /><path clip-path="url(#clip800)" d="M1670.03 1455.09 L1658.22 1473.54 L1670.03 1473.54 L1670.03 1455.09 M1668.8 1451.02 L1674.68 1451.02 L1674.68 1473.54 L1679.61 1473.54 L1679.61 1477.43 L1674.68 1477.43 L1674.68 1485.58 L1670.03 1485.58 L1670.03 1477.43 L1654.43 1477.43 L1654.43 1472.92 L1668.8 1451.02 Z" fill="#000000" fill-rule="nonzero" fill-opacity="1" /><path clip-path="url(#clip800)" d="M1297.94 1454.1 Q1294.33 1454.1 1292.5 1457.66 Q1290.7 1461.2 1290.7 1468.33 Q1290.7 1475.44 1292.5 1479.01 Q1294.33 1482.55 1297.94 1482.55 Q1301.58 1482.55 1303.38 1479.01 Q1305.21 1475.44 1305.21 1468.33 Q1305.21 1461.2 1303.38 1457.66 Q1301.58 1454.1 1297.94 1454.1 M1297.94 1450.39 Q1303.75 1450.39 1306.81 1455 Q1309.89 1459.58 1309.89 1468.33 Q1309.89 1477.06 1306.81 1481.67 Q1303.75 1486.25 1297.94 1486.25 Q1292.13 1486.25 1289.05 1481.67 Q1286 1477.06 1286 1468.33 Q1286 1459.58 1289.05 1455 Q1292.13 1450.39 1297.94 1450.39 Z" fill="#000000" fill-rule="nonzero" fill-opacity="1" /><path clip-path="url(#clip800)" d="M1318.1 1479.7 L1322.99 1479.7 L1322.99 1485.58 L1318.1 1485.58 L1318.1 1479.7 Z" fill="#000000" fill-rule="nonzero" fill-opacity="1" /><path clip-path="url(#clip800)" d="M1333.22 1451.02 L1351.58 1451.02 L1351.58 1454.96 L1337.5 1454.96 L1337.5 1463.43 Q1338.52 1463.08 1339.54 1462.92 Q1340.56 1462.73 1341.58 1462.73 Q1347.36 1462.73 1350.74 1465.9 Q1354.12 1469.08 1354.12 1474.49 Q1354.12 1480.07 1350.65 1483.17 Q1347.18 1486.25 1340.86 1486.25 Q1338.68 1486.25 1336.41 1485.88 Q1334.17 1485.51 1331.76 1484.77 L1331.76 1480.07 Q1333.85 1481.2 1336.07 1481.76 Q1338.29 1482.32 1340.77 1482.32 Q1344.77 1482.32 1347.11 1480.21 Q1349.45 1478.1 1349.45 1474.49 Q1349.45 1470.88 1347.11 1468.77 Q1344.77 1466.67 1340.77 1466.67 Q1338.89 1466.67 1337.02 1467.08 Q1335.16 1467.5 1333.22 1468.38 L1333.22 1451.02 Z" fill="#000000" fill-rule="nonzero" fill-opacity="1" /><path clip-path="url(#clip800)" d="M972.617 1454.1 Q969.006 1454.1 967.178 1457.66 Q965.372 1461.2 965.372 1468.33 Q965.372 1475.44 967.178 1479.01 Q969.006 1482.55 972.617 1482.55 Q976.252 1482.55 978.057 1479.01 Q979.886 1475.44 979.886 1468.33 Q979.886 1461.2 978.057 1457.66 Q976.252 1454.1 972.617 1454.1 M972.617 1450.39 Q978.428 1450.39 981.483 1455 Q984.562 1459.58 984.562 1468.33 Q984.562 1477.06 981.483 1481.67 Q978.428 1486.25 972.617 1486.25 Q966.807 1486.25 963.729 1481.67 Q960.673 1477.06 960.673 1468.33 Q960.673 1459.58 963.729 1455 Q966.807 1450.39 972.617 1450.39 Z" fill="#000000" fill-rule="nonzero" fill-opacity="1" /><path clip-path="url(#clip800)" d="M992.779 1479.7 L997.664 1479.7 L997.664 1485.58 L992.779 1485.58 L992.779 1479.7 Z" fill="#000000" fill-rule="nonzero" fill-opacity="1" /><path clip-path="url(#clip800)" d="M1018.43 1466.44 Q1015.28 1466.44 1013.43 1468.59 Q1011.6 1470.74 1011.6 1474.49 Q1011.6 1478.22 1013.43 1480.39 Q1015.28 1482.55 1018.43 1482.55 Q1021.58 1482.55 1023.4 1480.39 Q1025.26 1478.22 1025.26 1474.49 Q1025.26 1470.74 1023.4 1468.59 Q1021.58 1466.44 1018.43 1466.44 M1027.71 1451.78 L1027.71 1456.04 Q1025.95 1455.21 1024.14 1454.77 Q1022.36 1454.33 1020.6 1454.33 Q1015.97 1454.33 1013.52 1457.45 Q1011.09 1460.58 1010.74 1466.9 Q1012.11 1464.89 1014.17 1463.82 Q1016.23 1462.73 1018.71 1462.73 Q1023.91 1462.73 1026.92 1465.9 Q1029.96 1469.05 1029.96 1474.49 Q1029.96 1479.82 1026.81 1483.03 Q1023.66 1486.25 1018.43 1486.25 Q1012.43 1486.25 1009.26 1481.67 Q1006.09 1477.06 1006.09 1468.33 Q1006.09 1460.14 1009.98 1455.28 Q1013.87 1450.39 1020.42 1450.39 Q1022.18 1450.39 1023.96 1450.74 Q1025.77 1451.09 1027.71 1451.78 Z" fill="#000000" fill-rule="nonzero" fill-opacity="1" /><path clip-path="url(#clip800)" d="M648.403 1454.1 Q644.792 1454.1 642.963 1457.66 Q641.158 1461.2 641.158 1468.33 Q641.158 1475.44 642.963 1479.01 Q644.792 1482.55 648.403 1482.55 Q652.037 1482.55 653.843 1479.01 Q655.671 1475.44 655.671 1468.33 Q655.671 1461.2 653.843 1457.66 Q652.037 1454.1 648.403 1454.1 M648.403 1450.39 Q654.213 1450.39 657.269 1455 Q660.347 1459.58 660.347 1468.33 Q660.347 1477.06 657.269 1481.67 Q654.213 1486.25 648.403 1486.25 Q642.593 1486.25 639.514 1481.67 Q636.459 1477.06 636.459 1468.33 Q636.459 1459.58 639.514 1455 Q642.593 1450.39 648.403 1450.39 Z" fill="#000000" fill-rule="nonzero" fill-opacity="1" /><path clip-path="url(#clip800)" d="M668.565 1479.7 L673.449 1479.7 L673.449 1485.58 L668.565 1485.58 L668.565 1479.7 Z" fill="#000000" fill-rule="nonzero" fill-opacity="1" /><path clip-path="url(#clip800)" d="M682.454 1451.02 L704.676 1451.02 L704.676 1453.01 L692.13 1485.58 L687.245 1485.58 L699.051 1454.96 L682.454 1454.96 L682.454 1451.02 Z" fill="#000000" fill-rule="nonzero" fill-opacity="1" /><path clip-path="url(#clip800)" d="M323.251 1454.1 Q319.64 1454.1 317.811 1457.66 Q316.006 1461.2 316.006 1468.33 Q316.006 1475.44 317.811 1479.01 Q319.64 1482.55 323.251 1482.55 Q326.885 1482.55 328.691 1479.01 Q330.519 1475.44 330.519 1468.33 Q330.519 1461.2 328.691 1457.66 Q326.885 1454.1 323.251 1454.1 M323.251 1450.39 Q329.061 1450.39 332.117 1455 Q335.195 1459.58 335.195 1468.33 Q335.195 1477.06 332.117 1481.67 Q329.061 1486.25 323.251 1486.25 Q317.441 1486.25 314.362 1481.67 Q311.307 1477.06 311.307 1468.33 Q311.307 1459.58 314.362 1455 Q317.441 1450.39 323.251 1450.39 Z" fill="#000000" fill-rule="nonzero" fill-opacity="1" /><path clip-path="url(#clip800)" d="M343.413 1479.7 L348.297 1479.7 L348.297 1485.58 L343.413 1485.58 L343.413 1479.7 Z" fill="#000000" fill-rule="nonzero" fill-opacity="1" /><path clip-path="url(#clip800)" d="M368.482 1469.17 Q365.149 1469.17 363.228 1470.95 Q361.33 1472.73 361.33 1475.86 Q361.33 1478.98 363.228 1480.77 Q365.149 1482.55 368.482 1482.55 Q371.816 1482.55 373.737 1480.77 Q375.658 1478.96 375.658 1475.86 Q375.658 1472.73 373.737 1470.95 Q371.839 1469.17 368.482 1469.17 M363.806 1467.18 Q360.797 1466.44 359.107 1464.38 Q357.441 1462.32 357.441 1459.35 Q357.441 1455.21 360.38 1452.8 Q363.343 1450.39 368.482 1450.39 Q373.644 1450.39 376.584 1452.8 Q379.524 1455.21 379.524 1459.35 Q379.524 1462.32 377.834 1464.38 Q376.167 1466.44 373.181 1467.18 Q376.561 1467.96 378.436 1470.26 Q380.334 1472.55 380.334 1475.86 Q380.334 1480.88 377.255 1483.57 Q374.2 1486.25 368.482 1486.25 Q362.765 1486.25 359.686 1483.57 Q356.63 1480.88 356.63 1475.86 Q356.63 1472.55 358.529 1470.26 Q360.427 1467.96 363.806 1467.18 M362.093 1459.79 Q362.093 1462.48 363.76 1463.98 Q365.45 1465.49 368.482 1465.49 Q371.491 1465.49 373.181 1463.98 Q374.894 1462.48 374.894 1459.79 Q374.894 1457.11 373.181 1455.6 Q371.491 1454.1 368.482 1454.1 Q365.45 1454.1 363.76 1455.6 Q362.093 1457.11 362.093 1459.79 Z" fill="#000000" fill-rule="nonzero" fill-opacity="1" /><path clip-path="url(#clip800)" d="M668.61 1525.81 L668.61 1543.66 L676.695 1543.66 Q681.183 1543.66 683.633 1541.34 Q686.084 1539.02 686.084 1534.72 Q686.084 1530.45 683.633 1528.13 Q681.183 1525.81 676.695 1525.81 L668.61 1525.81 M662.181 1520.52 L676.695 1520.52 Q684.684 1520.52 688.758 1524.15 Q692.864 1527.75 692.864 1534.72 Q692.864 1541.75 688.758 1545.35 Q684.684 1548.95 676.695 1548.95 L668.61 1548.95 L668.61 1568.04 L662.181 1568.04 L662.181 1520.52 Z" fill="#000000" fill-rule="nonzero" fill-opacity="1" /><path clip-path="url(#clip800)" d="M720.746 1537.87 Q719.759 1537.3 718.581 1537.04 Q717.435 1536.76 716.035 1536.76 Q711.07 1536.76 708.396 1540 Q705.754 1543.22 705.754 1549.27 L705.754 1568.04 L699.866 1568.04 L699.866 1532.4 L705.754 1532.4 L705.754 1537.93 Q707.6 1534.69 710.56 1533.13 Q713.52 1531.54 717.754 1531.54 Q718.358 1531.54 719.09 1531.63 Q719.823 1531.7 720.714 1531.85 L720.746 1537.87 Z" fill="#000000" fill-rule="nonzero" fill-opacity="1" /><path clip-path="url(#clip800)" d="M739.27 1536.5 Q734.559 1536.5 731.822 1540.19 Q729.085 1543.85 729.085 1550.25 Q729.085 1556.65 731.79 1560.34 Q734.527 1564 739.27 1564 Q743.949 1564 746.686 1560.31 Q749.423 1556.62 749.423 1550.25 Q749.423 1543.92 746.686 1540.23 Q743.949 1536.5 739.27 1536.5 M739.27 1531.54 Q746.909 1531.54 751.269 1536.5 Q755.63 1541.47 755.63 1550.25 Q755.63 1559 751.269 1564 Q746.909 1568.97 739.27 1568.97 Q731.599 1568.97 727.239 1564 Q722.91 1559 722.91 1550.25 Q722.91 1541.47 727.239 1536.5 Q731.599 1531.54 739.27 1531.54 Z" fill="#000000" fill-rule="nonzero" fill-opacity="1" /><path clip-path="url(#clip800)" d="M771.003 1562.7 L771.003 1581.6 L765.115 1581.6 L765.115 1532.4 L771.003 1532.4 L771.003 1537.81 Q772.849 1534.62 775.65 1533.1 Q778.482 1531.54 782.397 1531.54 Q788.89 1531.54 792.933 1536.69 Q797.007 1541.85 797.007 1550.25 Q797.007 1558.65 792.933 1563.81 Q788.89 1568.97 782.397 1568.97 Q778.482 1568.97 775.65 1567.44 Q772.849 1565.88 771.003 1562.7 M790.927 1550.25 Q790.927 1543.79 788.254 1540.13 Q785.612 1536.44 780.965 1536.44 Q776.318 1536.44 773.645 1540.13 Q771.003 1543.79 771.003 1550.25 Q771.003 1556.71 773.645 1560.4 Q776.318 1564.07 780.965 1564.07 Q785.612 1564.07 788.254 1560.4 Q790.927 1556.71 790.927 1550.25 Z" fill="#000000" fill-rule="nonzero" fill-opacity="1" /><path clip-path="url(#clip800)" d="M820.528 1536.5 Q815.817 1536.5 813.08 1540.19 Q810.343 1543.85 810.343 1550.25 Q810.343 1556.65 813.048 1560.34 Q815.786 1564 820.528 1564 Q825.207 1564 827.944 1560.31 Q830.681 1556.62 830.681 1550.25 Q830.681 1543.92 827.944 1540.23 Q825.207 1536.5 820.528 1536.5 M820.528 1531.54 Q828.167 1531.54 832.527 1536.5 Q836.888 1541.47 836.888 1550.25 Q836.888 1559 832.527 1564 Q828.167 1568.97 820.528 1568.97 Q812.857 1568.97 808.497 1564 Q804.168 1559 804.168 1550.25 Q804.168 1541.47 808.497 1536.5 Q812.857 1531.54 820.528 1531.54 Z" fill="#000000" fill-rule="nonzero" fill-opacity="1" /><path clip-path="url(#clip800)" d="M867.252 1537.87 Q866.266 1537.3 865.088 1537.04 Q863.942 1536.76 862.542 1536.76 Q857.576 1536.76 854.903 1540 Q852.261 1543.22 852.261 1549.27 L852.261 1568.04 L846.373 1568.04 L846.373 1532.4 L852.261 1532.4 L852.261 1537.93 Q854.107 1534.69 857.067 1533.13 Q860.027 1531.54 864.26 1531.54 Q864.865 1531.54 865.597 1531.63 Q866.329 1531.7 867.22 1531.85 L867.252 1537.87 Z" fill="#000000" fill-rule="nonzero" fill-opacity="1" /><path clip-path="url(#clip800)" d="M879.188 1522.27 L879.188 1532.4 L891.251 1532.4 L891.251 1536.95 L879.188 1536.95 L879.188 1556.3 Q879.188 1560.66 880.366 1561.9 Q881.575 1563.14 885.235 1563.14 L891.251 1563.14 L891.251 1568.04 L885.235 1568.04 Q878.456 1568.04 875.878 1565.53 Q873.3 1562.98 873.3 1556.3 L873.3 1536.95 L869.003 1536.95 L869.003 1532.4 L873.3 1532.4 L873.3 1522.27 L879.188 1522.27 Z" fill="#000000" fill-rule="nonzero" fill-opacity="1" /><path clip-path="url(#clip800)" d="M898.953 1532.4 L904.81 1532.4 L904.81 1568.04 L898.953 1568.04 L898.953 1532.4 M898.953 1518.52 L904.81 1518.52 L904.81 1525.93 L898.953 1525.93 L898.953 1518.52 Z" fill="#000000" fill-rule="nonzero" fill-opacity="1" /><path clip-path="url(#clip800)" d="M930.878 1536.5 Q926.167 1536.5 923.43 1540.19 Q920.692 1543.85 920.692 1550.25 Q920.692 1556.65 923.398 1560.34 Q926.135 1564 930.878 1564 Q935.556 1564 938.294 1560.31 Q941.031 1556.62 941.031 1550.25 Q941.031 1543.92 938.294 1540.23 Q935.556 1536.5 930.878 1536.5 M930.878 1531.54 Q938.516 1531.54 942.877 1536.5 Q947.237 1541.47 947.237 1550.25 Q947.237 1559 942.877 1564 Q938.516 1568.97 930.878 1568.97 Q923.207 1568.97 918.846 1564 Q914.518 1559 914.518 1550.25 Q914.518 1541.47 918.846 1536.5 Q923.207 1531.54 930.878 1531.54 Z" fill="#000000" fill-rule="nonzero" fill-opacity="1" /><path clip-path="url(#clip800)" d="M986.577 1546.53 L986.577 1568.04 L980.721 1568.04 L980.721 1546.72 Q980.721 1541.66 978.748 1539.14 Q976.774 1536.63 972.828 1536.63 Q968.085 1536.63 965.348 1539.65 Q962.611 1542.68 962.611 1547.9 L962.611 1568.04 L956.722 1568.04 L956.722 1532.4 L962.611 1532.4 L962.611 1537.93 Q964.711 1534.72 967.544 1533.13 Q970.409 1531.54 974.132 1531.54 Q980.275 1531.54 983.426 1535.36 Q986.577 1539.14 986.577 1546.53 Z" fill="#000000" fill-rule="nonzero" fill-opacity="1" /><path clip-path="url(#clip800)" d="M1032.79 1536.5 Q1028.08 1536.5 1025.34 1540.19 Q1022.61 1543.85 1022.61 1550.25 Q1022.61 1556.65 1025.31 1560.34 Q1028.05 1564 1032.79 1564 Q1037.47 1564 1040.21 1560.31 Q1042.95 1556.62 1042.95 1550.25 Q1042.95 1543.92 1040.21 1540.23 Q1037.47 1536.5 1032.79 1536.5 M1032.79 1531.54 Q1040.43 1531.54 1044.79 1536.5 Q1049.15 1541.47 1049.15 1550.25 Q1049.15 1559 1044.79 1564 Q1040.43 1568.97 1032.79 1568.97 Q1025.12 1568.97 1020.76 1564 Q1016.43 1559 1016.43 1550.25 Q1016.43 1541.47 1020.76 1536.5 Q1025.12 1531.54 1032.79 1531.54 Z" fill="#000000" fill-rule="nonzero" fill-opacity="1" /><path clip-path="url(#clip800)" d="M1076.91 1518.52 L1076.91 1523.39 L1071.31 1523.39 Q1068.15 1523.39 1066.91 1524.66 Q1065.7 1525.93 1065.7 1529.24 L1065.7 1532.4 L1075.35 1532.4 L1075.35 1536.95 L1065.7 1536.95 L1065.7 1568.04 L1059.81 1568.04 L1059.81 1536.95 L1054.21 1536.95 L1054.21 1532.4 L1059.81 1532.4 L1059.81 1529.91 Q1059.81 1523.96 1062.58 1521.26 Q1065.35 1518.52 1071.37 1518.52 L1076.91 1518.52 Z" fill="#000000" fill-rule="nonzero" fill-opacity="1" /><path clip-path="url(#clip800)" d="M1128.18 1533.76 L1128.18 1539.24 Q1125.7 1537.87 1123.19 1537.2 Q1120.7 1536.5 1118.16 1536.5 Q1112.46 1536.5 1109.31 1540.13 Q1106.16 1543.73 1106.16 1550.25 Q1106.16 1556.78 1109.31 1560.4 Q1112.46 1564 1118.16 1564 Q1120.7 1564 1123.19 1563.33 Q1125.7 1562.63 1128.18 1561.26 L1128.18 1566.68 Q1125.73 1567.82 1123.09 1568.39 Q1120.48 1568.97 1117.52 1568.97 Q1109.47 1568.97 1104.72 1563.91 Q1099.98 1558.85 1099.98 1550.25 Q1099.98 1541.53 1104.76 1536.53 Q1109.56 1531.54 1117.9 1531.54 Q1120.61 1531.54 1123.19 1532.11 Q1125.76 1532.65 1128.18 1533.76 Z" fill="#000000" fill-rule="nonzero" fill-opacity="1" /><path clip-path="url(#clip800)" d="M1138.37 1518.52 L1144.22 1518.52 L1144.22 1568.04 L1138.37 1568.04 L1138.37 1518.52 Z" fill="#000000" fill-rule="nonzero" fill-opacity="1" /><path clip-path="url(#clip800)" d="M1155.87 1553.98 L1155.87 1532.4 L1161.73 1532.4 L1161.73 1553.75 Q1161.73 1558.81 1163.7 1561.36 Q1165.68 1563.87 1169.62 1563.87 Q1174.37 1563.87 1177.1 1560.85 Q1179.87 1557.83 1179.87 1552.61 L1179.87 1532.4 L1185.73 1532.4 L1185.73 1568.04 L1179.87 1568.04 L1179.87 1562.57 Q1177.74 1565.82 1174.91 1567.41 Q1172.11 1568.97 1168.38 1568.97 Q1162.24 1568.97 1159.06 1565.15 Q1155.87 1561.33 1155.87 1553.98 M1170.61 1531.54 L1170.61 1531.54 Z" fill="#000000" fill-rule="nonzero" fill-opacity="1" /><path clip-path="url(#clip800)" d="M1220.52 1533.45 L1220.52 1538.98 Q1218.03 1537.71 1215.36 1537.07 Q1212.69 1536.44 1209.82 1536.44 Q1205.46 1536.44 1203.27 1537.77 Q1201.1 1539.11 1201.1 1541.79 Q1201.1 1543.82 1202.66 1545 Q1204.22 1546.15 1208.93 1547.2 L1210.94 1547.64 Q1217.18 1548.98 1219.79 1551.43 Q1222.43 1553.85 1222.43 1558.21 Q1222.43 1563.17 1218.48 1566.07 Q1214.57 1568.97 1207.69 1568.97 Q1204.83 1568.97 1201.71 1568.39 Q1198.62 1567.85 1195.18 1566.74 L1195.18 1560.69 Q1198.43 1562.38 1201.58 1563.24 Q1204.73 1564.07 1207.82 1564.07 Q1211.96 1564.07 1214.18 1562.66 Q1216.41 1561.23 1216.41 1558.65 Q1216.41 1556.27 1214.79 1554.99 Q1213.2 1553.72 1207.75 1552.54 L1205.72 1552.07 Q1200.27 1550.92 1197.86 1548.56 Q1195.44 1546.18 1195.44 1542.04 Q1195.44 1537.01 1199 1534.27 Q1202.57 1531.54 1209.12 1531.54 Q1212.37 1531.54 1215.23 1532.01 Q1218.1 1532.49 1220.52 1533.45 Z" fill="#000000" fill-rule="nonzero" fill-opacity="1" /><path clip-path="url(#clip800)" d="M1237.55 1522.27 L1237.55 1532.4 L1249.61 1532.4 L1249.61 1536.95 L1237.55 1536.95 L1237.55 1556.3 Q1237.55 1560.66 1238.72 1561.9 Q1239.93 1563.14 1243.59 1563.14 L1249.61 1563.14 L1249.61 1568.04 L1243.59 1568.04 Q1236.81 1568.04 1234.24 1565.53 Q1231.66 1562.98 1231.66 1556.3 L1231.66 1536.95 L1227.36 1536.95 L1227.36 1532.4 L1231.66 1532.4 L1231.66 1522.27 L1237.55 1522.27 Z" fill="#000000" fill-rule="nonzero" fill-opacity="1" /><path clip-path="url(#clip800)" d="M1287.8 1548.76 L1287.8 1551.62 L1260.88 1551.62 Q1261.26 1557.67 1264.5 1560.85 Q1267.78 1564 1273.61 1564 Q1276.98 1564 1280.13 1563.17 Q1283.31 1562.35 1286.43 1560.69 L1286.43 1566.23 Q1283.28 1567.57 1279.97 1568.27 Q1276.66 1568.97 1273.26 1568.97 Q1264.73 1568.97 1259.73 1564 Q1254.76 1559.04 1254.76 1550.57 Q1254.76 1541.82 1259.48 1536.69 Q1264.22 1531.54 1272.24 1531.54 Q1279.43 1531.54 1283.6 1536.18 Q1287.8 1540.8 1287.8 1548.76 M1281.95 1547.04 Q1281.88 1542.23 1279.24 1539.37 Q1276.63 1536.5 1272.3 1536.5 Q1267.4 1536.5 1264.44 1539.27 Q1261.51 1542.04 1261.07 1547.07 L1281.95 1547.04 Z" fill="#000000" fill-rule="nonzero" fill-opacity="1" /><path clip-path="url(#clip800)" d="M1318.07 1537.87 Q1317.08 1537.3 1315.91 1537.04 Q1314.76 1536.76 1313.36 1536.76 Q1308.4 1536.76 1305.72 1540 Q1303.08 1543.22 1303.08 1549.27 L1303.08 1568.04 L1297.19 1568.04 L1297.19 1532.4 L1303.08 1532.4 L1303.08 1537.93 Q1304.93 1534.69 1307.89 1533.13 Q1310.85 1531.54 1315.08 1531.54 Q1315.68 1531.54 1316.42 1531.63 Q1317.15 1531.7 1318.04 1531.85 L1318.07 1537.87 Z" fill="#000000" fill-rule="nonzero" fill-opacity="1" /><path clip-path="url(#clip800)" d="M1346.94 1533.45 L1346.94 1538.98 Q1344.46 1537.71 1341.78 1537.07 Q1339.11 1536.44 1336.25 1536.44 Q1331.89 1536.44 1329.69 1537.77 Q1327.52 1539.11 1327.52 1541.79 Q1327.52 1543.82 1329.08 1545 Q1330.64 1546.15 1335.35 1547.2 L1337.36 1547.64 Q1343.6 1548.98 1346.21 1551.43 Q1348.85 1553.85 1348.85 1558.21 Q1348.85 1563.17 1344.9 1566.07 Q1340.99 1568.97 1334.11 1568.97 Q1331.25 1568.97 1328.13 1568.39 Q1325.04 1567.85 1321.6 1566.74 L1321.6 1560.69 Q1324.85 1562.38 1328 1563.24 Q1331.15 1564.07 1334.24 1564.07 Q1338.38 1564.07 1340.61 1562.66 Q1342.83 1561.23 1342.83 1558.65 Q1342.83 1556.27 1341.21 1554.99 Q1339.62 1553.72 1334.18 1552.54 L1332.14 1552.07 Q1326.7 1550.92 1324.28 1548.56 Q1321.86 1546.18 1321.86 1542.04 Q1321.86 1537.01 1325.42 1534.27 Q1328.99 1531.54 1335.55 1531.54 Q1338.79 1531.54 1341.66 1532.01 Q1344.52 1532.49 1346.94 1533.45 Z" fill="#000000" fill-rule="nonzero" fill-opacity="1" /><path clip-path="url(#clip800)" d="M1375.49 1532.4 L1381.35 1532.4 L1388.67 1560.21 L1395.96 1532.4 L1402.86 1532.4 L1410.18 1560.21 L1417.47 1532.4 L1423.33 1532.4 L1414 1568.04 L1407.1 1568.04 L1399.43 1538.83 L1391.72 1568.04 L1384.82 1568.04 L1375.49 1532.4 Z" fill="#000000" fill-rule="nonzero" fill-opacity="1" /><path clip-path="url(#clip800)" d="M1432.21 1532.4 L1438.07 1532.4 L1438.07 1568.04 L1432.21 1568.04 L1432.21 1532.4 M1432.21 1518.52 L1438.07 1518.52 L1438.07 1525.93 L1432.21 1525.93 L1432.21 1518.52 Z" fill="#000000" fill-rule="nonzero" fill-opacity="1" /><path clip-path="url(#clip800)" d="M1456.11 1522.27 L1456.11 1532.4 L1468.17 1532.4 L1468.17 1536.95 L1456.11 1536.95 L1456.11 1556.3 Q1456.11 1560.66 1457.29 1561.9 Q1458.5 1563.14 1462.16 1563.14 L1468.17 1563.14 L1468.17 1568.04 L1462.16 1568.04 Q1455.38 1568.04 1452.8 1565.53 Q1450.22 1562.98 1450.22 1556.3 L1450.22 1536.95 L1445.93 1536.95 L1445.93 1532.4 L1450.22 1532.4 L1450.22 1522.27 L1456.11 1522.27 Z" fill="#000000" fill-rule="nonzero" fill-opacity="1" /><path clip-path="url(#clip800)" d="M1505.51 1546.53 L1505.51 1568.04 L1499.65 1568.04 L1499.65 1546.72 Q1499.65 1541.66 1497.68 1539.14 Q1495.71 1536.63 1491.76 1536.63 Q1487.02 1536.63 1484.28 1539.65 Q1481.54 1542.68 1481.54 1547.9 L1481.54 1568.04 L1475.65 1568.04 L1475.65 1518.52 L1481.54 1518.52 L1481.54 1537.93 Q1483.64 1534.72 1486.48 1533.13 Q1489.34 1531.54 1493.06 1531.54 Q1499.21 1531.54 1502.36 1535.36 Q1505.51 1539.14 1505.51 1546.53 Z" fill="#000000" fill-rule="nonzero" fill-opacity="1" /><path clip-path="url(#clip800)" d="M1552.49 1545.48 Q1547.91 1545.48 1545.26 1547.93 Q1542.65 1550.38 1542.65 1554.68 Q1542.65 1558.97 1545.26 1561.42 Q1547.91 1563.87 1552.49 1563.87 Q1557.07 1563.87 1559.71 1561.42 Q1562.36 1558.94 1562.36 1554.68 Q1562.36 1550.38 1559.71 1547.93 Q1557.1 1545.48 1552.49 1545.48 M1546.06 1542.74 Q1541.92 1541.72 1539.6 1538.89 Q1537.31 1536.06 1537.31 1531.98 Q1537.31 1526.28 1541.35 1522.97 Q1545.42 1519.66 1552.49 1519.66 Q1559.59 1519.66 1563.63 1522.97 Q1567.67 1526.28 1567.67 1531.98 Q1567.67 1536.06 1565.35 1538.89 Q1563.06 1541.72 1558.95 1542.74 Q1563.6 1543.82 1566.18 1546.97 Q1568.78 1550.12 1568.78 1554.68 Q1568.78 1561.58 1564.55 1565.27 Q1560.35 1568.97 1552.49 1568.97 Q1544.63 1568.97 1540.39 1565.27 Q1536.19 1561.58 1536.19 1554.68 Q1536.19 1550.12 1538.8 1546.97 Q1541.41 1543.82 1546.06 1542.74 M1543.7 1532.59 Q1543.7 1536.28 1546 1538.35 Q1548.32 1540.42 1552.49 1540.42 Q1556.63 1540.42 1558.95 1538.35 Q1561.31 1536.28 1561.31 1532.59 Q1561.31 1528.89 1558.95 1526.83 Q1556.63 1524.76 1552.49 1524.76 Q1548.32 1524.76 1546 1526.83 Q1543.7 1528.89 1543.7 1532.59 Z" fill="#000000" fill-rule="nonzero" fill-opacity="1" /><path clip-path="url(#clip800)" d="M1593.96 1524.76 Q1589 1524.76 1586.48 1529.66 Q1584 1534.53 1584 1544.33 Q1584 1554.1 1586.48 1559 Q1589 1563.87 1593.96 1563.87 Q1598.96 1563.87 1601.44 1559 Q1603.96 1554.1 1603.96 1544.33 Q1603.96 1534.53 1601.44 1529.66 Q1598.96 1524.76 1593.96 1524.76 M1593.96 1519.66 Q1601.95 1519.66 1606.15 1526 Q1610.38 1532.3 1610.38 1544.33 Q1610.38 1556.33 1606.15 1562.66 Q1601.95 1568.97 1593.96 1568.97 Q1585.97 1568.97 1581.74 1562.66 Q1577.54 1556.33 1577.54 1544.33 Q1577.54 1532.3 1581.74 1526 Q1585.97 1519.66 1593.96 1519.66 Z" fill="#000000" fill-rule="nonzero" fill-opacity="1" /><path clip-path="url(#clip800)" d="M1662.11 1547.13 Q1659.34 1547.13 1657.75 1549.49 Q1656.19 1551.84 1656.19 1556.04 Q1656.19 1560.18 1657.75 1562.57 Q1659.34 1564.92 1662.11 1564.92 Q1664.81 1564.92 1666.37 1562.57 Q1667.96 1560.18 1667.96 1556.04 Q1667.96 1551.87 1666.37 1549.52 Q1664.81 1547.13 1662.11 1547.13 M1662.11 1543.09 Q1667.14 1543.09 1670.1 1546.59 Q1673.06 1550.09 1673.06 1556.04 Q1673.06 1562 1670.06 1565.5 Q1667.1 1568.97 1662.11 1568.97 Q1657.01 1568.97 1654.05 1565.5 Q1651.09 1562 1651.09 1556.04 Q1651.09 1550.06 1654.05 1546.59 Q1657.05 1543.09 1662.11 1543.09 M1629.26 1523.71 Q1626.52 1523.71 1624.93 1526.09 Q1623.37 1528.45 1623.37 1532.59 Q1623.37 1536.79 1624.93 1539.14 Q1626.49 1541.5 1629.26 1541.5 Q1632.03 1541.5 1633.59 1539.14 Q1635.18 1536.79 1635.18 1532.59 Q1635.18 1528.48 1633.59 1526.09 Q1632 1523.71 1629.26 1523.71 M1658 1519.66 L1663.09 1519.66 L1633.37 1568.97 L1628.27 1568.97 L1658 1519.66 M1629.26 1519.66 Q1634.29 1519.66 1637.28 1523.17 Q1640.27 1526.63 1640.27 1532.59 Q1640.27 1538.6 1637.28 1542.07 Q1634.32 1545.54 1629.26 1545.54 Q1624.2 1545.54 1621.24 1542.07 Q1618.31 1538.57 1618.31 1532.59 Q1618.31 1526.67 1621.27 1523.17 Q1624.23 1519.66 1629.26 1519.66 Z" fill="#000000" fill-rule="nonzero" fill-opacity="1" /><path clip-path="url(#clip800)" d="M1717.33 1536.5 Q1712.62 1536.5 1709.88 1540.19 Q1707.14 1543.85 1707.14 1550.25 Q1707.14 1556.65 1709.85 1560.34 Q1712.59 1564 1717.33 1564 Q1722.01 1564 1724.74 1560.31 Q1727.48 1556.62 1727.48 1550.25 Q1727.48 1543.92 1724.74 1540.23 Q1722.01 1536.5 1717.33 1536.5 M1717.33 1531.54 Q1724.97 1531.54 1729.33 1536.5 Q1733.69 1541.47 1733.69 1550.25 Q1733.69 1559 1729.33 1564 Q1724.97 1568.97 1717.33 1568.97 Q1709.66 1568.97 1705.3 1564 Q1700.97 1559 1700.97 1550.25 Q1700.97 1541.47 1705.3 1536.5 Q1709.66 1531.54 1717.33 1531.54 Z" fill="#000000" fill-rule="nonzero" fill-opacity="1" /><path clip-path="url(#clip800)" d="M1761.44 1518.52 L1761.44 1523.39 L1755.84 1523.39 Q1752.69 1523.39 1751.45 1524.66 Q1750.24 1525.93 1750.24 1529.24 L1750.24 1532.4 L1759.88 1532.4 L1759.88 1536.95 L1750.24 1536.95 L1750.24 1568.04 L1744.35 1568.04 L1744.35 1536.95 L1738.75 1536.95 L1738.75 1532.4 L1744.35 1532.4 L1744.35 1529.91 Q1744.35 1523.96 1747.12 1521.26 Q1749.89 1518.52 1755.9 1518.52 L1761.44 1518.52 Z" fill="#000000" fill-rule="nonzero" fill-opacity="1" /><path clip-path="url(#clip800)" d="M1792.73 1562.7 L1792.73 1581.6 L1786.84 1581.6 L1786.84 1532.4 L1792.73 1532.4 L1792.73 1537.81 Q1794.58 1534.62 1797.38 1533.1 Q1800.21 1531.54 1804.13 1531.54 Q1810.62 1531.54 1814.66 1536.69 Q1818.73 1541.85 1818.73 1550.25 Q1818.73 1558.65 1814.66 1563.81 Q1810.62 1568.97 1804.13 1568.97 Q1800.21 1568.97 1797.38 1567.44 Q1794.58 1565.88 1792.73 1562.7 M1812.66 1550.25 Q1812.66 1543.79 1809.98 1540.13 Q1807.34 1536.44 1802.69 1536.44 Q1798.05 1536.44 1795.37 1540.13 Q1792.73 1543.79 1792.73 1550.25 Q1792.73 1556.71 1795.37 1560.4 Q1798.05 1564.07 1802.69 1564.07 Q1807.34 1564.07 1809.98 1560.4 Q1812.66 1556.71 1812.66 1550.25 Z" fill="#000000" fill-rule="nonzero" fill-opacity="1" /><path clip-path="url(#clip800)" d="M1842.26 1536.5 Q1837.55 1536.5 1834.81 1540.19 Q1832.07 1543.85 1832.07 1550.25 Q1832.07 1556.65 1834.78 1560.34 Q1837.51 1564 1842.26 1564 Q1846.93 1564 1849.67 1560.31 Q1852.41 1556.62 1852.41 1550.25 Q1852.41 1543.92 1849.67 1540.23 Q1846.93 1536.5 1842.26 1536.5 M1842.26 1531.54 Q1849.89 1531.54 1854.26 1536.5 Q1858.62 1541.47 1858.62 1550.25 Q1858.62 1559 1854.26 1564 Q1849.89 1568.97 1842.26 1568.97 Q1834.59 1568.97 1830.22 1564 Q1825.9 1559 1825.9 1550.25 Q1825.9 1541.47 1830.22 1536.5 Q1834.59 1531.54 1842.26 1531.54 Z" fill="#000000" fill-rule="nonzero" fill-opacity="1" /><path clip-path="url(#clip800)" d="M1868.32 1532.4 L1874.18 1532.4 L1874.18 1568.04 L1868.32 1568.04 L1868.32 1532.4 M1868.32 1518.52 L1874.18 1518.52 L1874.18 1525.93 L1868.32 1525.93 L1868.32 1518.52 Z" fill="#000000" fill-rule="nonzero" fill-opacity="1" /><path clip-path="url(#clip800)" d="M1916.07 1546.53 L1916.07 1568.04 L1910.21 1568.04 L1910.21 1546.72 Q1910.21 1541.66 1908.24 1539.14 Q1906.26 1536.63 1902.32 1536.63 Q1897.57 1536.63 1894.84 1539.65 Q1892.1 1542.68 1892.1 1547.9 L1892.1 1568.04 L1886.21 1568.04 L1886.21 1532.4 L1892.1 1532.4 L1892.1 1537.93 Q1894.2 1534.72 1897.03 1533.13 Q1899.9 1531.54 1903.62 1531.54 Q1909.76 1531.54 1912.92 1535.36 Q1916.07 1539.14 1916.07 1546.53 Z" fill="#000000" fill-rule="nonzero" fill-opacity="1" /><path clip-path="url(#clip800)" d="M1933.54 1522.27 L1933.54 1532.4 L1945.6 1532.4 L1945.6 1536.95 L1933.54 1536.95 L1933.54 1556.3 Q1933.54 1560.66 1934.72 1561.9 Q1935.93 1563.14 1939.59 1563.14 L1945.6 1563.14 L1945.6 1568.04 L1939.59 1568.04 Q1932.81 1568.04 1930.23 1565.53 Q1927.65 1562.98 1927.65 1556.3 L1927.65 1536.95 L1923.35 1536.95 L1923.35 1532.4 L1927.65 1532.4 L1927.65 1522.27 L1933.54 1522.27 Z" fill="#000000" fill-rule="nonzero" fill-opacity="1" /><path clip-path="url(#clip800)" d="M1976.03 1533.45 L1976.03 1538.98 Q1973.55 1537.71 1970.87 1537.07 Q1968.2 1536.44 1965.34 1536.44 Q1960.98 1536.44 1958.78 1537.77 Q1956.62 1539.11 1956.62 1541.79 Q1956.62 1543.82 1958.18 1545 Q1959.73 1546.15 1964.45 1547.2 L1966.45 1547.64 Q1972.69 1548.98 1975.3 1551.43 Q1977.94 1553.85 1977.94 1558.21 Q1977.94 1563.17 1973.99 1566.07 Q1970.08 1568.97 1963.2 1568.97 Q1960.34 1568.97 1957.22 1568.39 Q1954.13 1567.85 1950.7 1566.74 L1950.7 1560.69 Q1953.94 1562.38 1957.09 1563.24 Q1960.24 1564.07 1963.33 1564.07 Q1967.47 1564.07 1969.7 1562.66 Q1971.93 1561.23 1971.93 1558.65 Q1971.93 1556.27 1970.3 1554.99 Q1968.71 1553.72 1963.27 1552.54 L1961.23 1552.07 Q1955.79 1550.92 1953.37 1548.56 Q1950.95 1546.18 1950.95 1542.04 Q1950.95 1537.01 1954.51 1534.27 Q1958.08 1531.54 1964.64 1531.54 Q1967.88 1531.54 1970.75 1532.01 Q1973.61 1532.49 1976.03 1533.45 Z" fill="#000000" fill-rule="nonzero" fill-opacity="1" /><polyline clip-path="url(#clip802)" style="stroke:#000000; stroke-linecap:round; stroke-linejoin:round; stroke-width:2; stroke-opacity:0.1; fill:none" points="2352.76,1331.78 287.366,1331.78 "/>
<polyline clip-path="url(#clip802)" style="stroke:#000000; stroke-linecap:round; stroke-linejoin:round; stroke-width:2; stroke-opacity:0.1; fill:none" points="2352.76,1049.29 287.366,1049.29 "/>
<polyline clip-path="url(#clip802)" style="stroke:#000000; stroke-linecap:round; stroke-linejoin:round; stroke-width:2; stroke-opacity:0.1; fill:none" points="2352.76,766.795 287.366,766.795 "/>
<polyline clip-path="url(#clip802)" style="stroke:#000000; stroke-linecap:round; stroke-linejoin:round; stroke-width:2; stroke-opacity:0.1; fill:none" points="2352.76,484.305 287.366,484.305 "/>
<polyline clip-path="url(#clip802)" style="stroke:#000000; stroke-linecap:round; stroke-linejoin:round; stroke-width:2; stroke-opacity:0.1; fill:none" points="2352.76,201.814 287.366,201.814 "/>
<polyline clip-path="url(#clip800)" style="stroke:#000000; stroke-linecap:round; stroke-linejoin:round; stroke-width:4; stroke-opacity:1; fill:none" points="287.366,1423.18 287.366,123.472 "/>
<polyline clip-path="url(#clip800)" style="stroke:#000000; stroke-linecap:round; stroke-linejoin:round; stroke-width:4; stroke-opacity:1; fill:none" points="287.366,1331.78 306.264,1331.78 "/>
<polyline clip-path="url(#clip800)" style="stroke:#000000; stroke-linecap:round; stroke-linejoin:round; stroke-width:4; stroke-opacity:1; fill:none" points="287.366,1049.29 306.264,1049.29 "/>
<polyline clip-path="url(#clip800)" style="stroke:#000000; stroke-linecap:round; stroke-linejoin:round; stroke-width:4; stroke-opacity:1; fill:none" points="287.366,766.795 306.264,766.795 "/>
<polyline clip-path="url(#clip800)" style="stroke:#000000; stroke-linecap:round; stroke-linejoin:round; stroke-width:4; stroke-opacity:1; fill:none" points="287.366,484.305 306.264,484.305 "/>
<polyline clip-path="url(#clip800)" style="stroke:#000000; stroke-linecap:round; stroke-linejoin:round; stroke-width:4; stroke-opacity:1; fill:none" points="287.366,201.814 306.264,201.814 "/>
<path clip-path="url(#clip800)" d="M115.256 1332.23 L144.931 1332.23 L144.931 1336.16 L115.256 1336.16 L115.256 1332.23 Z" fill="#000000" fill-rule="nonzero" fill-opacity="1" /><path clip-path="url(#clip800)" d="M165.024 1317.57 Q161.413 1317.57 159.584 1321.14 Q157.778 1324.68 157.778 1331.81 Q157.778 1338.92 159.584 1342.48 Q161.413 1346.02 165.024 1346.02 Q168.658 1346.02 170.464 1342.48 Q172.292 1338.92 172.292 1331.81 Q172.292 1324.68 170.464 1321.14 Q168.658 1317.57 165.024 1317.57 M165.024 1313.87 Q170.834 1313.87 173.889 1318.48 Q176.968 1323.06 176.968 1331.81 Q176.968 1340.54 173.889 1345.14 Q170.834 1349.73 165.024 1349.73 Q159.214 1349.73 156.135 1345.14 Q153.079 1340.54 153.079 1331.81 Q153.079 1323.06 156.135 1318.48 Q159.214 1313.87 165.024 1313.87 Z" fill="#000000" fill-rule="nonzero" fill-opacity="1" /><path clip-path="url(#clip800)" d="M185.186 1343.18 L190.07 1343.18 L190.07 1349.06 L185.186 1349.06 L185.186 1343.18 Z" fill="#000000" fill-rule="nonzero" fill-opacity="1" /><path clip-path="url(#clip800)" d="M199.075 1314.5 L221.297 1314.5 L221.297 1316.49 L208.75 1349.06 L203.866 1349.06 L215.672 1318.43 L199.075 1318.43 L199.075 1314.5 Z" fill="#000000" fill-rule="nonzero" fill-opacity="1" /><path clip-path="url(#clip800)" d="M230.463 1314.5 L248.82 1314.5 L248.82 1318.43 L234.746 1318.43 L234.746 1326.9 Q235.764 1326.56 236.783 1326.39 Q237.801 1326.21 238.82 1326.21 Q244.607 1326.21 247.986 1329.38 Q251.366 1332.55 251.366 1337.97 Q251.366 1343.55 247.894 1346.65 Q244.421 1349.73 238.102 1349.73 Q235.926 1349.73 233.658 1349.36 Q231.412 1348.99 229.005 1348.25 L229.005 1343.55 Q231.088 1344.68 233.31 1345.24 Q235.533 1345.79 238.009 1345.79 Q242.014 1345.79 244.352 1343.69 Q246.69 1341.58 246.69 1337.97 Q246.69 1334.36 244.352 1332.25 Q242.014 1330.14 238.009 1330.14 Q236.135 1330.14 234.26 1330.56 Q232.408 1330.98 230.463 1331.86 L230.463 1314.5 Z" fill="#000000" fill-rule="nonzero" fill-opacity="1" /><path clip-path="url(#clip800)" d="M114.26 1049.74 L143.936 1049.74 L143.936 1053.67 L114.26 1053.67 L114.26 1049.74 Z" fill="#000000" fill-rule="nonzero" fill-opacity="1" /><path clip-path="url(#clip800)" d="M164.028 1035.08 Q160.417 1035.08 158.589 1038.65 Q156.783 1042.19 156.783 1049.32 Q156.783 1056.43 158.589 1059.99 Q160.417 1063.53 164.028 1063.53 Q167.663 1063.53 169.468 1059.99 Q171.297 1056.43 171.297 1049.32 Q171.297 1042.19 169.468 1038.65 Q167.663 1035.08 164.028 1035.08 M164.028 1031.38 Q169.839 1031.38 172.894 1035.99 Q175.973 1040.57 175.973 1049.32 Q175.973 1058.05 172.894 1062.65 Q169.839 1067.24 164.028 1067.24 Q158.218 1067.24 155.14 1062.65 Q152.084 1058.05 152.084 1049.32 Q152.084 1040.57 155.14 1035.99 Q158.218 1031.38 164.028 1031.38 Z" fill="#000000" fill-rule="nonzero" fill-opacity="1" /><path clip-path="url(#clip800)" d="M184.19 1060.69 L189.075 1060.69 L189.075 1066.57 L184.19 1066.57 L184.19 1060.69 Z" fill="#000000" fill-rule="nonzero" fill-opacity="1" /><path clip-path="url(#clip800)" d="M199.306 1032.01 L217.662 1032.01 L217.662 1035.94 L203.588 1035.94 L203.588 1044.41 Q204.607 1044.07 205.625 1043.9 Q206.644 1043.72 207.662 1043.72 Q213.449 1043.72 216.829 1046.89 Q220.209 1050.06 220.209 1055.48 Q220.209 1061.06 216.736 1064.16 Q213.264 1067.24 206.945 1067.24 Q204.769 1067.24 202.5 1066.87 Q200.255 1066.5 197.848 1065.76 L197.848 1061.06 Q199.931 1062.19 202.153 1062.75 Q204.375 1063.3 206.852 1063.3 Q210.857 1063.3 213.195 1061.2 Q215.533 1059.09 215.533 1055.48 Q215.533 1051.87 213.195 1049.76 Q210.857 1047.65 206.852 1047.65 Q204.977 1047.65 203.102 1048.07 Q201.25 1048.49 199.306 1049.37 L199.306 1032.01 Z" fill="#000000" fill-rule="nonzero" fill-opacity="1" /><path clip-path="url(#clip800)" d="M239.422 1035.08 Q235.81 1035.08 233.982 1038.65 Q232.176 1042.19 232.176 1049.32 Q232.176 1056.43 233.982 1059.99 Q235.81 1063.53 239.422 1063.53 Q243.056 1063.53 244.861 1059.99 Q246.69 1056.43 246.69 1049.32 Q246.69 1042.19 244.861 1038.65 Q243.056 1035.08 239.422 1035.08 M239.422 1031.38 Q245.232 1031.38 248.287 1035.99 Q251.366 1040.57 251.366 1049.32 Q251.366 1058.05 248.287 1062.65 Q245.232 1067.24 239.422 1067.24 Q233.611 1067.24 230.533 1062.65 Q227.477 1058.05 227.477 1049.32 Q227.477 1040.57 230.533 1035.99 Q233.611 1031.38 239.422 1031.38 Z" fill="#000000" fill-rule="nonzero" fill-opacity="1" /><path clip-path="url(#clip800)" d="M115.256 767.247 L144.931 767.247 L144.931 771.182 L115.256 771.182 L115.256 767.247 Z" fill="#000000" fill-rule="nonzero" fill-opacity="1" /><path clip-path="url(#clip800)" d="M165.024 752.594 Q161.413 752.594 159.584 756.159 Q157.778 759.7 157.778 766.83 Q157.778 773.936 159.584 777.501 Q161.413 781.043 165.024 781.043 Q168.658 781.043 170.464 777.501 Q172.292 773.936 172.292 766.83 Q172.292 759.7 170.464 756.159 Q168.658 752.594 165.024 752.594 M165.024 748.89 Q170.834 748.89 173.889 753.497 Q176.968 758.08 176.968 766.83 Q176.968 775.557 173.889 780.163 Q170.834 784.746 165.024 784.746 Q159.214 784.746 156.135 780.163 Q153.079 775.557 153.079 766.83 Q153.079 758.08 156.135 753.497 Q159.214 748.89 165.024 748.89 Z" fill="#000000" fill-rule="nonzero" fill-opacity="1" /><path clip-path="url(#clip800)" d="M185.186 778.196 L190.07 778.196 L190.07 784.075 L185.186 784.075 L185.186 778.196 Z" fill="#000000" fill-rule="nonzero" fill-opacity="1" /><path clip-path="url(#clip800)" d="M204.283 780.14 L220.602 780.14 L220.602 784.075 L198.658 784.075 L198.658 780.14 Q201.32 777.385 205.903 772.756 Q210.51 768.103 211.69 766.76 Q213.936 764.237 214.815 762.501 Q215.718 760.742 215.718 759.052 Q215.718 756.298 213.774 754.561 Q211.852 752.825 208.75 752.825 Q206.551 752.825 204.098 753.589 Q201.667 754.353 198.889 755.904 L198.889 751.182 Q201.713 750.048 204.167 749.469 Q206.621 748.89 208.658 748.89 Q214.028 748.89 217.223 751.575 Q220.417 754.261 220.417 758.751 Q220.417 760.881 219.607 762.802 Q218.82 764.7 216.713 767.293 Q216.135 767.964 213.033 771.182 Q209.931 774.376 204.283 780.14 Z" fill="#000000" fill-rule="nonzero" fill-opacity="1" /><path clip-path="url(#clip800)" d="M230.463 749.515 L248.82 749.515 L248.82 753.45 L234.746 753.45 L234.746 761.923 Q235.764 761.575 236.783 761.413 Q237.801 761.228 238.82 761.228 Q244.607 761.228 247.986 764.399 Q251.366 767.571 251.366 772.987 Q251.366 778.566 247.894 781.668 Q244.421 784.746 238.102 784.746 Q235.926 784.746 233.658 784.376 Q231.412 784.006 229.005 783.265 L229.005 778.566 Q231.088 779.7 233.31 780.256 Q235.533 780.811 238.009 780.811 Q242.014 780.811 244.352 778.705 Q246.69 776.598 246.69 772.987 Q246.69 769.376 244.352 767.27 Q242.014 765.163 238.009 765.163 Q236.135 765.163 234.26 765.58 Q232.408 765.997 230.463 766.876 L230.463 749.515 Z" fill="#000000" fill-rule="nonzero" fill-opacity="1" /><path clip-path="url(#clip800)" d="M164.028 470.103 Q160.417 470.103 158.589 473.668 Q156.783 477.21 156.783 484.339 Q156.783 491.446 158.589 495.011 Q160.417 498.552 164.028 498.552 Q167.663 498.552 169.468 495.011 Q171.297 491.446 171.297 484.339 Q171.297 477.21 169.468 473.668 Q167.663 470.103 164.028 470.103 M164.028 466.4 Q169.839 466.4 172.894 471.006 Q175.973 475.589 175.973 484.339 Q175.973 493.066 172.894 497.673 Q169.839 502.256 164.028 502.256 Q158.218 502.256 155.14 497.673 Q152.084 493.066 152.084 484.339 Q152.084 475.589 155.14 471.006 Q158.218 466.4 164.028 466.4 Z" fill="#000000" fill-rule="nonzero" fill-opacity="1" /><path clip-path="url(#clip800)" d="M184.19 495.705 L189.075 495.705 L189.075 501.585 L184.19 501.585 L184.19 495.705 Z" fill="#000000" fill-rule="nonzero" fill-opacity="1" /><path clip-path="url(#clip800)" d="M209.26 470.103 Q205.649 470.103 203.82 473.668 Q202.014 477.21 202.014 484.339 Q202.014 491.446 203.82 495.011 Q205.649 498.552 209.26 498.552 Q212.894 498.552 214.699 495.011 Q216.528 491.446 216.528 484.339 Q216.528 477.21 214.699 473.668 Q212.894 470.103 209.26 470.103 M209.26 466.4 Q215.07 466.4 218.125 471.006 Q221.204 475.589 221.204 484.339 Q221.204 493.066 218.125 497.673 Q215.07 502.256 209.26 502.256 Q203.449 502.256 200.371 497.673 Q197.315 493.066 197.315 484.339 Q197.315 475.589 200.371 471.006 Q203.449 466.4 209.26 466.4 Z" fill="#000000" fill-rule="nonzero" fill-opacity="1" /><path clip-path="url(#clip800)" d="M239.422 470.103 Q235.81 470.103 233.982 473.668 Q232.176 477.21 232.176 484.339 Q232.176 491.446 233.982 495.011 Q235.81 498.552 239.422 498.552 Q243.056 498.552 244.861 495.011 Q246.69 491.446 246.69 484.339 Q246.69 477.21 244.861 473.668 Q243.056 470.103 239.422 470.103 M239.422 466.4 Q245.232 466.4 248.287 471.006 Q251.366 475.589 251.366 484.339 Q251.366 493.066 248.287 497.673 Q245.232 502.256 239.422 502.256 Q233.611 502.256 230.533 497.673 Q227.477 493.066 227.477 484.339 Q227.477 475.589 230.533 471.006 Q233.611 466.4 239.422 466.4 Z" fill="#000000" fill-rule="nonzero" fill-opacity="1" /><path clip-path="url(#clip800)" d="M165.024 187.613 Q161.413 187.613 159.584 191.178 Q157.778 194.719 157.778 201.849 Q157.778 208.955 159.584 212.52 Q161.413 216.062 165.024 216.062 Q168.658 216.062 170.464 212.52 Q172.292 208.955 172.292 201.849 Q172.292 194.719 170.464 191.178 Q168.658 187.613 165.024 187.613 M165.024 183.909 Q170.834 183.909 173.889 188.516 Q176.968 193.099 176.968 201.849 Q176.968 210.576 173.889 215.182 Q170.834 219.765 165.024 219.765 Q159.214 219.765 156.135 215.182 Q153.079 210.576 153.079 201.849 Q153.079 193.099 156.135 188.516 Q159.214 183.909 165.024 183.909 Z" fill="#000000" fill-rule="nonzero" fill-opacity="1" /><path clip-path="url(#clip800)" d="M185.186 213.215 L190.07 213.215 L190.07 219.094 L185.186 219.094 L185.186 213.215 Z" fill="#000000" fill-rule="nonzero" fill-opacity="1" /><path clip-path="url(#clip800)" d="M204.283 215.159 L220.602 215.159 L220.602 219.094 L198.658 219.094 L198.658 215.159 Q201.32 212.404 205.903 207.775 Q210.51 203.122 211.69 201.779 Q213.936 199.256 214.815 197.52 Q215.718 195.761 215.718 194.071 Q215.718 191.317 213.774 189.58 Q211.852 187.844 208.75 187.844 Q206.551 187.844 204.098 188.608 Q201.667 189.372 198.889 190.923 L198.889 186.201 Q201.713 185.067 204.167 184.488 Q206.621 183.909 208.658 183.909 Q214.028 183.909 217.223 186.594 Q220.417 189.28 220.417 193.77 Q220.417 195.9 219.607 197.821 Q218.82 199.719 216.713 202.312 Q216.135 202.983 213.033 206.201 Q209.931 209.395 204.283 215.159 Z" fill="#000000" fill-rule="nonzero" fill-opacity="1" /><path clip-path="url(#clip800)" d="M230.463 184.534 L248.82 184.534 L248.82 188.469 L234.746 188.469 L234.746 196.942 Q235.764 196.594 236.783 196.432 Q237.801 196.247 238.82 196.247 Q244.607 196.247 247.986 199.418 Q251.366 202.59 251.366 208.006 Q251.366 213.585 247.894 216.687 Q244.421 219.765 238.102 219.765 Q235.926 219.765 233.658 219.395 Q231.412 219.025 229.005 218.284 L229.005 213.585 Q231.088 214.719 233.31 215.275 Q235.533 215.83 238.009 215.83 Q242.014 215.83 244.352 213.724 Q246.69 211.617 246.69 208.006 Q246.69 204.395 244.352 202.289 Q242.014 200.182 238.009 200.182 Q236.135 200.182 234.26 200.599 Q232.408 201.016 230.463 201.895 L230.463 184.534 Z" fill="#000000" fill-rule="nonzero" fill-opacity="1" /><path clip-path="url(#clip800)" d="M16.4842 957.947 L16.4842 948.367 L48.8219 936.24 L16.4842 924.05 L16.4842 914.47 L64.0042 914.47 L64.0042 920.74 L22.277 920.74 L54.8694 932.994 L54.8694 939.455 L22.277 951.709 L64.0042 951.709 L64.0042 957.947 L16.4842 957.947 Z" fill="#000000" fill-rule="nonzero" fill-opacity="1" /><path clip-path="url(#clip800)" d="M44.7161 871.469 L47.5806 871.469 L47.5806 898.396 Q53.6281 898.014 56.8109 894.768 Q59.9619 891.489 59.9619 885.665 Q59.9619 882.291 59.1344 879.14 Q58.3069 875.957 56.6518 872.838 L62.1899 872.838 Q63.5267 875.989 64.227 879.299 Q64.9272 882.609 64.9272 886.015 Q64.9272 894.545 59.9619 899.542 Q54.9967 904.507 46.5303 904.507 Q37.7774 904.507 32.6531 899.797 Q27.4968 895.054 27.4968 887.033 Q27.4968 879.84 32.1438 875.671 Q36.7589 871.469 44.7161 871.469 M42.9973 877.326 Q38.1912 877.389 35.3266 880.031 Q32.4621 882.641 32.4621 886.97 Q32.4621 891.871 35.2312 894.831 Q38.0002 897.76 43.0292 898.205 L42.9973 877.326 Z" fill="#000000" fill-rule="nonzero" fill-opacity="1" /><path clip-path="url(#clip800)" d="M46.0847 845.656 Q46.0847 852.754 47.7079 855.491 Q49.3312 858.229 53.2461 858.229 Q56.3653 858.229 58.2114 856.192 Q60.0256 854.123 60.0256 850.59 Q60.0256 845.72 56.5881 842.792 Q53.1188 839.832 47.3897 839.832 L46.0847 839.832 L46.0847 845.656 M43.6657 833.975 L64.0042 833.975 L64.0042 839.832 L58.5933 839.832 Q61.8398 841.837 63.3994 844.829 Q64.9272 847.821 64.9272 852.149 Q64.9272 857.624 61.8716 860.87 Q58.7843 864.085 53.6281 864.085 Q47.6125 864.085 44.5569 860.075 Q41.5014 856.032 41.5014 848.043 L41.5014 839.832 L40.9285 839.832 Q36.8862 839.832 34.6901 842.505 Q32.4621 845.147 32.4621 849.953 Q32.4621 853.009 33.1941 855.905 Q33.9262 858.802 35.3903 861.475 L29.9795 861.475 Q28.7381 858.26 28.1334 855.237 Q27.4968 852.213 27.4968 849.348 Q27.4968 841.614 31.5072 837.795 Q35.5176 833.975 43.6657 833.975 Z" fill="#000000" fill-rule="nonzero" fill-opacity="1" /><path clip-path="url(#clip800)" d="M42.4881 792.28 L64.0042 792.28 L64.0042 798.136 L42.679 798.136 Q37.6183 798.136 35.1038 800.11 Q32.5894 802.083 32.5894 806.03 Q32.5894 810.772 35.6131 813.51 Q38.6368 816.247 43.8567 816.247 L64.0042 816.247 L64.0042 822.135 L28.3562 822.135 L28.3562 816.247 L33.8944 816.247 Q30.6797 814.146 29.0883 811.313 Q27.4968 808.449 27.4968 804.725 Q27.4968 798.582 31.3163 795.431 Q35.1038 792.28 42.4881 792.28 Z" fill="#000000" fill-rule="nonzero" fill-opacity="1" /><path clip-path="url(#clip800)" d="M16.4842 759.624 L16.4842 753.194 L64.0042 753.194 L64.0042 759.624 L16.4842 759.624 Z" fill="#000000" fill-rule="nonzero" fill-opacity="1" /><path clip-path="url(#clip800)" d="M42.4881 711.022 L64.0042 711.022 L64.0042 716.878 L42.679 716.878 Q37.6183 716.878 35.1038 718.851 Q32.5894 720.825 32.5894 724.772 Q32.5894 729.514 35.6131 732.251 Q38.6368 734.989 43.8567 734.989 L64.0042 734.989 L64.0042 740.877 L28.3562 740.877 L28.3562 734.989 L33.8944 734.989 Q30.6797 732.888 29.0883 730.055 Q27.4968 727.191 27.4968 723.467 Q27.4968 717.324 31.3163 714.173 Q35.1038 711.022 42.4881 711.022 Z" fill="#000000" fill-rule="nonzero" fill-opacity="1" /><path clip-path="url(#clip800)" d="M33.7671 675.883 L14.479 675.883 L14.479 670.026 L64.0042 670.026 L64.0042 675.883 L58.657 675.883 Q61.8398 677.729 63.3994 680.562 Q64.9272 683.363 64.9272 687.309 Q64.9272 693.771 59.771 697.845 Q54.6147 701.887 46.212 701.887 Q37.8093 701.887 32.6531 697.845 Q27.4968 693.771 27.4968 687.309 Q27.4968 683.363 29.0564 680.562 Q30.5842 677.729 33.7671 675.883 M46.212 695.839 Q52.6732 695.839 56.3653 693.198 Q60.0256 690.524 60.0256 685.877 Q60.0256 681.23 56.3653 678.557 Q52.6732 675.883 46.212 675.883 Q39.7508 675.883 36.0905 678.557 Q32.3984 681.23 32.3984 685.877 Q32.3984 690.524 36.0905 693.198 Q39.7508 695.839 46.212 695.839 Z" fill="#000000" fill-rule="nonzero" fill-opacity="1" /><path clip-path="url(#clip800)" d="M44.7161 627.472 L47.5806 627.472 L47.5806 654.399 Q53.6281 654.017 56.8109 650.77 Q59.9619 647.492 59.9619 641.667 Q59.9619 638.293 59.1344 635.142 Q58.3069 631.96 56.6518 628.84 L62.1899 628.84 Q63.5267 631.991 64.227 635.302 Q64.9272 638.612 64.9272 642.017 Q64.9272 650.547 59.9619 655.544 Q54.9967 660.51 46.5303 660.51 Q37.7774 660.51 32.6531 655.799 Q27.4968 651.057 27.4968 643.036 Q27.4968 635.843 32.1438 631.673 Q36.7589 627.472 44.7161 627.472 M42.9973 633.328 Q38.1912 633.392 35.3266 636.034 Q32.4621 638.644 32.4621 642.972 Q32.4621 647.874 35.2312 650.834 Q38.0002 653.762 43.0292 654.208 L42.9973 633.328 Z" fill="#000000" fill-rule="nonzero" fill-opacity="1" /><path clip-path="url(#clip800)" d="M28.3562 589.373 L45.7028 602.264 L64.0042 588.705 L64.0042 595.611 L49.9996 605.987 L64.0042 616.364 L64.0042 623.27 L45.3526 609.425 L28.3562 622.093 L28.3562 615.186 L41.0558 605.733 L28.3562 596.28 L28.3562 589.373 Z" fill="#000000" fill-rule="nonzero" fill-opacity="1" /><path clip-path="url(#clip800)" d="M997.001 16.7545 L997.001 25.383 Q992.869 21.5346 988.17 19.6307 Q983.512 17.7268 978.246 17.7268 Q967.875 17.7268 962.366 24.0867 Q956.857 30.4061 956.857 42.3968 Q956.857 54.3469 962.366 60.7069 Q967.875 67.0263 978.246 67.0263 Q983.512 67.0263 988.17 65.1223 Q992.869 63.2184 997.001 59.3701 L997.001 67.9175 Q992.707 70.8341 987.887 72.2924 Q983.107 73.7508 977.759 73.7508 Q964.027 73.7508 956.128 65.3654 Q948.228 56.9395 948.228 42.3968 Q948.228 27.8135 956.128 19.4281 Q964.027 11.0023 977.759 11.0023 Q983.188 11.0023 987.968 12.4606 Q992.788 13.8784 997.001 16.7545 Z" fill="#000000" fill-rule="nonzero" fill-opacity="1" /><path clip-path="url(#clip800)" d="M1009.32 9.54393 L1016.77 9.54393 L1016.77 72.576 L1009.32 72.576 L1009.32 9.54393 Z" fill="#000000" fill-rule="nonzero" fill-opacity="1" /><path clip-path="url(#clip800)" d="M1031.6 54.671 L1031.6 27.2059 L1039.05 27.2059 L1039.05 54.3874 Q1039.05 60.8284 1041.56 64.0691 Q1044.07 67.2693 1049.1 67.2693 Q1055.13 67.2693 1058.62 63.421 Q1062.14 59.5726 1062.14 52.9291 L1062.14 27.2059 L1069.59 27.2059 L1069.59 72.576 L1062.14 72.576 L1062.14 65.6084 Q1059.43 69.7404 1055.82 71.7658 Q1052.26 73.7508 1047.52 73.7508 Q1039.7 73.7508 1035.65 68.8897 Q1031.6 64.0286 1031.6 54.671 M1050.35 26.1121 L1050.35 26.1121 Z" fill="#000000" fill-rule="nonzero" fill-opacity="1" /><path clip-path="url(#clip800)" d="M1113.87 28.5427 L1113.87 35.5912 Q1110.71 33.9709 1107.31 33.1607 Q1103.9 32.3505 1100.26 32.3505 Q1094.71 32.3505 1091.91 34.0519 Q1089.16 35.7533 1089.16 39.156 Q1089.16 41.7486 1091.14 43.2475 Q1093.13 44.7058 1099.12 46.0426 L1101.68 46.6097 Q1109.62 48.3111 1112.94 51.4303 Q1116.3 54.509 1116.3 60.0587 Q1116.3 66.3781 1111.28 70.0644 Q1106.29 73.7508 1097.54 73.7508 Q1093.9 73.7508 1089.93 73.0216 Q1086 72.3329 1081.62 70.9151 L1081.62 63.2184 Q1085.76 65.3654 1089.77 66.4591 Q1093.78 67.5124 1097.71 67.5124 Q1102.97 67.5124 1105.81 65.73 Q1108.64 63.9071 1108.64 60.6258 Q1108.64 57.5877 1106.58 55.9673 Q1104.55 54.3469 1097.63 52.8481 L1095.03 52.2405 Q1088.11 50.7821 1085.03 47.7845 Q1081.95 44.7463 1081.95 39.4801 Q1081.95 33.0797 1086.49 29.5959 Q1091.02 26.1121 1099.37 26.1121 Q1103.5 26.1121 1107.15 26.7198 Q1110.79 27.3274 1113.87 28.5427 Z" fill="#000000" fill-rule="nonzero" fill-opacity="1" /><path clip-path="url(#clip800)" d="M1135.54 14.324 L1135.54 27.2059 L1150.9 27.2059 L1150.9 32.9987 L1135.54 32.9987 L1135.54 57.6282 Q1135.54 63.1779 1137.04 64.7578 Q1138.58 66.3376 1143.24 66.3376 L1150.9 66.3376 L1150.9 72.576 L1143.24 72.576 Q1134.61 72.576 1131.33 69.3758 Q1128.05 66.1351 1128.05 57.6282 L1128.05 32.9987 L1122.58 32.9987 L1122.58 27.2059 L1128.05 27.2059 L1128.05 14.324 L1135.54 14.324 Z" fill="#000000" fill-rule="nonzero" fill-opacity="1" /><path clip-path="url(#clip800)" d="M1199.51 48.0275 L1199.51 51.6733 L1165.24 51.6733 Q1165.72 59.3701 1169.85 63.421 Q1174.03 67.4314 1181.44 67.4314 Q1185.73 67.4314 1189.74 66.3781 Q1193.79 65.3249 1197.76 63.2184 L1197.76 70.267 Q1193.75 71.9684 1189.54 72.8596 Q1185.33 73.7508 1180.99 73.7508 Q1170.14 73.7508 1163.78 67.4314 Q1157.46 61.1119 1157.46 50.3365 Q1157.46 39.1965 1163.45 32.6746 Q1169.49 26.1121 1179.7 26.1121 Q1188.85 26.1121 1194.16 32.0264 Q1199.51 37.9003 1199.51 48.0275 M1192.05 45.84 Q1191.97 39.7232 1188.61 36.0774 Q1185.29 32.4315 1179.78 32.4315 Q1173.54 32.4315 1169.77 35.9558 Q1166.05 39.4801 1165.48 45.8805 L1192.05 45.84 Z" fill="#000000" fill-rule="nonzero" fill-opacity="1" /><path clip-path="url(#clip800)" d="M1238.03 34.1734 Q1236.77 33.4443 1235.28 33.1202 Q1233.82 32.7556 1232.03 32.7556 Q1225.72 32.7556 1222.31 36.8875 Q1218.95 40.9789 1218.95 48.6757 L1218.95 72.576 L1211.46 72.576 L1211.46 27.2059 L1218.95 27.2059 L1218.95 34.2544 Q1221.3 30.1225 1225.07 28.1376 Q1228.83 26.1121 1234.22 26.1121 Q1234.99 26.1121 1235.92 26.2337 Q1236.86 26.3147 1237.99 26.5172 L1238.03 34.1734 Z" fill="#000000" fill-rule="nonzero" fill-opacity="1" /><path clip-path="url(#clip800)" d="M1272.54 12.096 L1280.73 12.096 L1280.73 72.576 L1272.54 72.576 L1272.54 12.096 Z" fill="#000000" fill-rule="nonzero" fill-opacity="1" /><path clip-path="url(#clip800)" d="M1332.01 35.9153 Q1334.81 30.8922 1338.7 28.5022 Q1342.58 26.1121 1347.85 26.1121 Q1354.94 26.1121 1358.79 31.0947 Q1362.64 36.0368 1362.64 45.1919 L1362.64 72.576 L1355.14 72.576 L1355.14 45.4349 Q1355.14 38.913 1352.83 35.7533 Q1350.52 32.5936 1345.78 32.5936 Q1339.99 32.5936 1336.63 36.4419 Q1333.27 40.2903 1333.27 46.9338 L1333.27 72.576 L1325.77 72.576 L1325.77 45.4349 Q1325.77 38.8725 1323.46 35.7533 Q1321.15 32.5936 1316.33 32.5936 Q1310.62 32.5936 1307.26 36.4824 Q1303.9 40.3308 1303.9 46.9338 L1303.9 72.576 L1296.4 72.576 L1296.4 27.2059 L1303.9 27.2059 L1303.9 34.2544 Q1306.45 30.082 1310.01 28.0971 Q1313.58 26.1121 1318.48 26.1121 Q1323.42 26.1121 1326.87 28.6237 Q1330.35 31.1352 1332.01 35.9153 Z" fill="#000000" fill-rule="nonzero" fill-opacity="1" /><path clip-path="url(#clip800)" d="M1410.07 49.9314 Q1410.07 41.7081 1406.67 37.0496 Q1403.31 32.3505 1397.39 32.3505 Q1391.48 32.3505 1388.08 37.0496 Q1384.71 41.7081 1384.71 49.9314 Q1384.71 58.1548 1388.08 62.8538 Q1391.48 67.5124 1397.39 67.5124 Q1403.31 67.5124 1406.67 62.8538 Q1410.07 58.1548 1410.07 49.9314 M1384.71 34.0924 Q1387.06 30.0415 1390.63 28.0971 Q1394.23 26.1121 1399.22 26.1121 Q1407.48 26.1121 1412.62 32.6746 Q1417.81 39.2371 1417.81 49.9314 Q1417.81 60.6258 1412.62 67.1883 Q1407.48 73.7508 1399.22 73.7508 Q1394.23 73.7508 1390.63 71.8063 Q1387.06 69.8214 1384.71 65.7705 L1384.71 72.576 L1377.22 72.576 L1377.22 9.54393 L1384.71 9.54393 L1384.71 34.0924 Z" fill="#000000" fill-rule="nonzero" fill-opacity="1" /><path clip-path="url(#clip800)" d="M1450.78 49.7694 Q1441.75 49.7694 1438.27 51.8354 Q1434.78 53.9013 1434.78 58.8839 Q1434.78 62.8538 1437.38 65.2034 Q1440.01 67.5124 1444.5 67.5124 Q1450.7 67.5124 1454.43 63.1374 Q1458.2 58.7219 1458.2 51.4303 L1458.2 49.7694 L1450.78 49.7694 M1465.65 46.6907 L1465.65 72.576 L1458.2 72.576 L1458.2 65.6895 Q1455.64 69.8214 1451.84 71.8063 Q1448.03 73.7508 1442.52 73.7508 Q1435.55 73.7508 1431.42 69.8619 Q1427.33 65.9325 1427.33 59.3701 Q1427.33 51.7138 1432.43 47.825 Q1437.58 43.9361 1447.75 43.9361 L1458.2 43.9361 L1458.2 43.2069 Q1458.2 38.0623 1454.79 35.2672 Q1451.43 32.4315 1445.31 32.4315 Q1441.43 32.4315 1437.74 33.3632 Q1434.05 34.295 1430.65 36.1584 L1430.65 29.2718 Q1434.74 27.692 1438.59 26.9223 Q1442.44 26.1121 1446.08 26.1121 Q1455.93 26.1121 1460.79 31.2163 Q1465.65 36.3204 1465.65 46.6907 Z" fill="#000000" fill-rule="nonzero" fill-opacity="1" /><path clip-path="url(#clip800)" d="M1481 9.54393 L1488.46 9.54393 L1488.46 72.576 L1481 72.576 L1481 9.54393 Z" fill="#000000" fill-rule="nonzero" fill-opacity="1" /><path clip-path="url(#clip800)" d="M1524.67 49.7694 Q1515.64 49.7694 1512.15 51.8354 Q1508.67 53.9013 1508.67 58.8839 Q1508.67 62.8538 1511.26 65.2034 Q1513.9 67.5124 1518.39 67.5124 Q1524.59 67.5124 1528.32 63.1374 Q1532.09 58.7219 1532.09 51.4303 L1532.09 49.7694 L1524.67 49.7694 M1539.54 46.6907 L1539.54 72.576 L1532.09 72.576 L1532.09 65.6895 Q1529.53 69.8214 1525.73 71.8063 Q1521.92 73.7508 1516.41 73.7508 Q1509.44 73.7508 1505.31 69.8619 Q1501.22 65.9325 1501.22 59.3701 Q1501.22 51.7138 1506.32 47.825 Q1511.47 43.9361 1521.63 43.9361 L1532.09 43.9361 L1532.09 43.2069 Q1532.09 38.0623 1528.68 35.2672 Q1525.32 32.4315 1519.2 32.4315 Q1515.31 32.4315 1511.63 33.3632 Q1507.94 34.295 1504.54 36.1584 L1504.54 29.2718 Q1508.63 27.692 1512.48 26.9223 Q1516.33 26.1121 1519.97 26.1121 Q1529.82 26.1121 1534.68 31.2163 Q1539.54 36.3204 1539.54 46.6907 Z" fill="#000000" fill-rule="nonzero" fill-opacity="1" /><path clip-path="url(#clip800)" d="M1592.61 45.1919 L1592.61 72.576 L1585.15 72.576 L1585.15 45.4349 Q1585.15 38.994 1582.64 35.7938 Q1580.13 32.5936 1575.11 32.5936 Q1569.07 32.5936 1565.59 36.4419 Q1562.1 40.2903 1562.1 46.9338 L1562.1 72.576 L1554.61 72.576 L1554.61 27.2059 L1562.1 27.2059 L1562.1 34.2544 Q1564.78 30.163 1568.38 28.1376 Q1572.03 26.1121 1576.77 26.1121 Q1584.58 26.1121 1588.6 30.9732 Q1592.61 35.7938 1592.61 45.1919 Z" fill="#000000" fill-rule="nonzero" fill-opacity="1" /><path clip-path="url(#clip800)" d="M1640.12 28.9478 L1640.12 35.9153 Q1636.96 34.1734 1633.76 33.3227 Q1630.6 32.4315 1627.36 32.4315 Q1620.11 32.4315 1616.1 37.0496 Q1612.09 41.6271 1612.09 49.9314 Q1612.09 58.2358 1616.1 62.8538 Q1620.11 67.4314 1627.36 67.4314 Q1630.6 67.4314 1633.76 66.5807 Q1636.96 65.6895 1640.12 63.9476 L1640.12 70.8341 Q1637 72.2924 1633.64 73.0216 Q1630.32 73.7508 1626.55 73.7508 Q1616.3 73.7508 1610.27 67.3098 Q1604.23 60.8689 1604.23 49.9314 Q1604.23 38.832 1610.31 32.472 Q1616.43 26.1121 1627.04 26.1121 Q1630.48 26.1121 1633.76 26.8413 Q1637.04 27.5299 1640.12 28.9478 Z" fill="#000000" fill-rule="nonzero" fill-opacity="1" /><path clip-path="url(#clip800)" d="M1691.89 48.0275 L1691.89 51.6733 L1657.62 51.6733 Q1658.11 59.3701 1662.24 63.421 Q1666.41 67.4314 1673.83 67.4314 Q1678.12 67.4314 1682.13 66.3781 Q1686.18 65.3249 1690.15 63.2184 L1690.15 70.267 Q1686.14 71.9684 1681.93 72.8596 Q1677.72 73.7508 1673.38 73.7508 Q1662.52 73.7508 1656.16 67.4314 Q1649.85 61.1119 1649.85 50.3365 Q1649.85 39.1965 1655.84 32.6746 Q1661.88 26.1121 1672.08 26.1121 Q1681.24 26.1121 1686.55 32.0264 Q1691.89 37.9003 1691.89 48.0275 M1684.44 45.84 Q1684.36 39.7232 1681 36.0774 Q1677.67 32.4315 1672.17 32.4315 Q1665.93 32.4315 1662.16 35.9558 Q1658.43 39.4801 1657.87 45.8805 L1684.44 45.84 Z" fill="#000000" fill-rule="nonzero" fill-opacity="1" /><polyline clip-path="url(#clip802)" style="stroke:#50ad9f; stroke-linecap:round; stroke-linejoin:round; stroke-width:8; stroke-opacity:1; fill:none" points="345.82,186.371 995.314,170.81 1644.81,169.338 2294.3,160.256 "/>
<circle clip-path="url(#clip802)" cx="345.82" cy="186.371" r="25.2" fill="#50ad9f" fill-rule="evenodd" fill-opacity="1" stroke="#000000" stroke-opacity="1" stroke-width="3.2"/>
<circle clip-path="url(#clip802)" cx="995.314" cy="170.81" r="25.2" fill="#50ad9f" fill-rule="evenodd" fill-opacity="1" stroke="#000000" stroke-opacity="1" stroke-width="3.2"/>
<circle clip-path="url(#clip802)" cx="1644.81" cy="169.338" r="25.2" fill="#50ad9f" fill-rule="evenodd" fill-opacity="1" stroke="#000000" stroke-opacity="1" stroke-width="3.2"/>
<circle clip-path="url(#clip802)" cx="2294.3" cy="160.256" r="25.2" fill="#50ad9f" fill-rule="evenodd" fill-opacity="1" stroke="#000000" stroke-opacity="1" stroke-width="3.2"/>
<polyline clip-path="url(#clip802)" style="stroke:#0000a2; stroke-linecap:round; stroke-linejoin:round; stroke-width:8; stroke-opacity:1; fill:none" points="345.82,227.249 995.314,366.525 1644.81,669.523 2294.3,1386.4 "/>
<path clip-path="url(#clip802)" d="M325.82 207.249 L325.82 247.249 L365.82 247.249 L365.82 207.249 L325.82 207.249 Z" fill="#0000a2" fill-rule="evenodd" fill-opacity="1" stroke="#000000" stroke-opacity="1" stroke-width="3.2"/>
<path clip-path="url(#clip802)" d="M975.314 346.525 L975.314 386.525 L1015.31 386.525 L1015.31 346.525 L975.314 346.525 Z" fill="#0000a2" fill-rule="evenodd" fill-opacity="1" stroke="#000000" stroke-opacity="1" stroke-width="3.2"/>
<path clip-path="url(#clip802)" d="M1624.81 649.523 L1624.81 689.523 L1664.81 689.523 L1664.81 649.523 L1624.81 649.523 Z" fill="#0000a2" fill-rule="evenodd" fill-opacity="1" stroke="#000000" stroke-opacity="1" stroke-width="3.2"/>
<path clip-path="url(#clip802)" d="M2274.3 1366.4 L2274.3 1406.4 L2314.3 1406.4 L2314.3 1366.4 L2274.3 1366.4 Z" fill="#0000a2" fill-rule="evenodd" fill-opacity="1" stroke="#000000" stroke-opacity="1" stroke-width="3.2"/>
<polyline clip-path="url(#clip802)" style="stroke:#bc272d; stroke-linecap:round; stroke-linejoin:round; stroke-width:8; stroke-opacity:1; fill:none" points="345.82,343.424 995.314,481.59 1644.81,746.203 2294.3,1277.02 "/>
<path clip-path="url(#clip802)" d="M345.82 315.424 L339.24 334.352 L319.192 334.772 L335.18 346.896 L329.356 366.076 L345.82 354.624 L362.284 366.076 L356.46 346.896 L372.448 334.772 L352.4 334.352 L345.82 315.424 Z" fill="#bc272d" fill-rule="evenodd" fill-opacity="1" stroke="#000000" stroke-opacity="1" stroke-width="3.2"/>
<path clip-path="url(#clip802)" d="M995.314 453.59 L988.734 472.518 L968.686 472.938 L984.674 485.062 L978.85 504.242 L995.314 492.79 L1011.78 504.242 L1005.95 485.062 L1021.94 472.938 L1001.89 472.518 L995.314 453.59 Z" fill="#bc272d" fill-rule="evenodd" fill-opacity="1" stroke="#000000" stroke-opacity="1" stroke-width="3.2"/>
<path clip-path="url(#clip802)" d="M1644.81 718.203 L1638.23 737.131 L1618.18 737.551 L1634.17 749.675 L1628.34 768.855 L1644.81 757.403 L1661.27 768.855 L1655.45 749.675 L1671.44 737.551 L1651.39 737.131 L1644.81 718.203 Z" fill="#bc272d" fill-rule="evenodd" fill-opacity="1" stroke="#000000" stroke-opacity="1" stroke-width="3.2"/>
<path clip-path="url(#clip802)" d="M2294.3 1249.02 L2287.72 1267.95 L2267.67 1268.37 L2283.66 1280.49 L2277.84 1299.67 L2294.3 1288.22 L2310.77 1299.67 L2304.94 1280.49 L2320.93 1268.37 L2300.88 1267.95 L2294.3 1249.02 Z" fill="#bc272d" fill-rule="evenodd" fill-opacity="1" stroke="#000000" stroke-opacity="1" stroke-width="3.2"/>
<polyline clip-path="url(#clip802)" style="stroke:#e9c716; stroke-linecap:round; stroke-linejoin:round; stroke-width:8; stroke-opacity:1; fill:none" points="345.82,198.575 995.314,187.052 1644.81,180.743 2294.3,173.115 "/>
<path clip-path="url(#clip802)" d="M345.82 170.575 L317.82 226.575 L373.82 226.575 L345.82 170.575 Z" fill="#e9c716" fill-rule="evenodd" fill-opacity="1" stroke="#000000" stroke-opacity="1" stroke-width="3.2"/>
<path clip-path="url(#clip802)" d="M995.314 159.052 L967.314 215.052 L1023.31 215.052 L995.314 159.052 Z" fill="#e9c716" fill-rule="evenodd" fill-opacity="1" stroke="#000000" stroke-opacity="1" stroke-width="3.2"/>
<path clip-path="url(#clip802)" d="M1644.81 152.743 L1616.81 208.743 L1672.81 208.743 L1644.81 152.743 Z" fill="#e9c716" fill-rule="evenodd" fill-opacity="1" stroke="#000000" stroke-opacity="1" stroke-width="3.2"/>
<path clip-path="url(#clip802)" d="M2294.3 145.115 L2266.3 201.115 L2322.3 201.115 L2294.3 145.115 Z" fill="#e9c716" fill-rule="evenodd" fill-opacity="1" stroke="#000000" stroke-opacity="1" stroke-width="3.2"/>
<path clip-path="url(#clip800)" d="M1965.15 920.33 L2283.91 920.33 L2283.91 661.13 L1965.15 661.13  Z" fill="#ffffff" fill-rule="evenodd" fill-opacity="1"/>
<polyline clip-path="url(#clip800)" style="stroke:#000000; stroke-linecap:round; stroke-linejoin:round; stroke-width:4; stroke-opacity:1; fill:none" points="1965.15,920.33 2283.91,920.33 2283.91,661.13 1965.15,661.13 1965.15,920.33 "/>
<polyline clip-path="url(#clip800)" style="stroke:#50ad9f; stroke-linecap:round; stroke-linejoin:round; stroke-width:8; stroke-opacity:1; fill:none" points="1988.1,712.97 2125.79,712.97 "/>
<circle clip-path="url(#clip800)" cx="2056.94" cy="712.97" r="19.124" fill="#50ad9f" fill-rule="evenodd" fill-opacity="1" stroke="#000000" stroke-opacity="1" stroke-width="2.73067"/>
<path clip-path="url(#clip800)" d="M2148.74 695.69 L2168.6 695.69 L2168.6 699.625 L2153.42 699.625 L2153.42 709.81 L2167.12 709.81 L2167.12 713.745 L2153.42 713.745 L2153.42 730.25 L2148.74 730.25 L2148.74 695.69 Z" fill="#000000" fill-rule="nonzero" fill-opacity="1" /><path clip-path="url(#clip800)" d="M2172.37 704.324 L2176.63 704.324 L2176.63 730.25 L2172.37 730.25 L2172.37 704.324 M2172.37 694.231 L2176.63 694.231 L2176.63 699.625 L2172.37 699.625 L2172.37 694.231 Z" fill="#000000" fill-rule="nonzero" fill-opacity="1" /><path clip-path="url(#clip800)" d="M2189.76 696.963 L2189.76 704.324 L2198.53 704.324 L2198.53 707.634 L2189.76 707.634 L2189.76 721.708 Q2189.76 724.879 2190.61 725.782 Q2191.49 726.685 2194.16 726.685 L2198.53 726.685 L2198.53 730.25 L2194.16 730.25 Q2189.23 730.25 2187.35 728.421 Q2185.48 726.569 2185.48 721.708 L2185.48 707.634 L2182.35 707.634 L2182.35 704.324 L2185.48 704.324 L2185.48 696.963 L2189.76 696.963 Z" fill="#000000" fill-rule="nonzero" fill-opacity="1" /><polyline clip-path="url(#clip800)" style="stroke:#0000a2; stroke-linecap:round; stroke-linejoin:round; stroke-width:8; stroke-opacity:1; fill:none" points="1988.1,764.81 2125.79,764.81 "/>
<path clip-path="url(#clip800)" d="M2035.7 743.561 L2035.7 786.058 L2078.19 786.058 L2078.19 743.561 L2035.7 743.561 Z" fill="#0000a2" fill-rule="evenodd" fill-opacity="1" stroke="#000000" stroke-opacity="1" stroke-width="3.72364"/>
<path clip-path="url(#clip800)" d="M2170.98 748.664 L2170.98 753.224 Q2168.32 751.951 2165.96 751.326 Q2163.6 750.701 2161.4 750.701 Q2157.58 750.701 2155.5 752.182 Q2153.44 753.664 2153.44 756.395 Q2153.44 758.687 2154.8 759.867 Q2156.19 761.025 2160.04 761.742 L2162.86 762.321 Q2168.09 763.317 2170.57 765.84 Q2173.07 768.34 2173.07 772.553 Q2173.07 777.576 2169.69 780.168 Q2166.33 782.761 2159.83 782.761 Q2157.37 782.761 2154.6 782.205 Q2151.84 781.65 2148.88 780.562 L2148.88 775.747 Q2151.73 777.344 2154.46 778.154 Q2157.19 778.965 2159.83 778.965 Q2163.83 778.965 2166.01 777.391 Q2168.18 775.816 2168.18 772.9 Q2168.18 770.354 2166.61 768.918 Q2165.06 767.483 2161.49 766.766 L2158.65 766.21 Q2153.42 765.168 2151.08 762.946 Q2148.74 760.724 2148.74 756.766 Q2148.74 752.182 2151.96 749.543 Q2155.2 746.905 2160.87 746.905 Q2163.3 746.905 2165.82 747.344 Q2168.35 747.784 2170.98 748.664 Z" fill="#000000" fill-rule="nonzero" fill-opacity="1" /><path clip-path="url(#clip800)" d="M2190.96 784.497 Q2189.16 789.127 2187.44 790.539 Q2185.73 791.951 2182.86 791.951 L2179.46 791.951 L2179.46 788.386 L2181.96 788.386 Q2183.72 788.386 2184.69 787.553 Q2185.66 786.719 2186.84 783.617 L2187.6 781.673 L2177.12 756.164 L2181.63 756.164 L2189.73 776.441 L2197.84 756.164 L2202.35 756.164 L2190.96 784.497 Z" fill="#000000" fill-rule="nonzero" fill-opacity="1" /><path clip-path="url(#clip800)" d="M2228.41 761.141 Q2230.01 758.27 2232.23 756.905 Q2234.46 755.539 2237.47 755.539 Q2241.52 755.539 2243.72 758.386 Q2245.91 761.21 2245.91 766.442 L2245.91 782.09 L2241.63 782.09 L2241.63 766.58 Q2241.63 762.854 2240.31 761.048 Q2238.99 759.242 2236.29 759.242 Q2232.97 759.242 2231.05 761.442 Q2229.13 763.641 2229.13 767.437 L2229.13 782.09 L2224.85 782.09 L2224.85 766.58 Q2224.85 762.83 2223.53 761.048 Q2222.21 759.242 2219.46 759.242 Q2216.19 759.242 2214.27 761.465 Q2212.35 763.664 2212.35 767.437 L2212.35 782.09 L2208.07 782.09 L2208.07 756.164 L2212.35 756.164 L2212.35 760.192 Q2213.81 757.807 2215.85 756.673 Q2217.88 755.539 2220.68 755.539 Q2223.51 755.539 2225.47 756.974 Q2227.47 758.409 2228.41 761.141 Z" fill="#000000" fill-rule="nonzero" fill-opacity="1" /><polyline clip-path="url(#clip800)" style="stroke:#bc272d; stroke-linecap:round; stroke-linejoin:round; stroke-width:8; stroke-opacity:1; fill:none" points="1988.1,816.65 2125.79,816.65 "/>
<path clip-path="url(#clip800)" d="M2056.94 795.401 L2051.95 809.765 L2036.74 810.084 L2048.87 819.284 L2044.45 833.84 L2056.94 825.149 L2069.44 833.84 L2065.02 819.284 L2077.15 810.084 L2061.94 809.765 L2056.94 795.401 Z" fill="#bc272d" fill-rule="evenodd" fill-opacity="1" stroke="#000000" stroke-opacity="1" stroke-width="2.73067"/>
<path clip-path="url(#clip800)" d="M2148.74 799.37 L2168.6 799.37 L2168.6 803.305 L2153.42 803.305 L2153.42 813.49 L2167.12 813.49 L2167.12 817.425 L2153.42 817.425 L2153.42 833.93 L2148.74 833.93 L2148.74 799.37 Z" fill="#000000" fill-rule="nonzero" fill-opacity="1" /><path clip-path="url(#clip800)" d="M2175.82 797.911 L2180.08 797.911 L2180.08 833.93 L2175.82 833.93 L2175.82 797.911 Z" fill="#000000" fill-rule="nonzero" fill-opacity="1" /><path clip-path="url(#clip800)" d="M2200.78 820.897 Q2195.61 820.897 2193.62 822.078 Q2191.63 823.258 2191.63 826.106 Q2191.63 828.374 2193.11 829.717 Q2194.62 831.036 2197.19 831.036 Q2200.73 831.036 2202.86 828.536 Q2205.01 826.013 2205.01 821.846 L2205.01 820.897 L2200.78 820.897 M2209.27 819.138 L2209.27 833.93 L2205.01 833.93 L2205.01 829.994 Q2203.55 832.356 2201.38 833.49 Q2199.2 834.601 2196.05 834.601 Q2192.07 834.601 2189.71 832.379 Q2187.37 830.133 2187.37 826.383 Q2187.37 822.008 2190.29 819.786 Q2193.23 817.564 2199.04 817.564 L2205.01 817.564 L2205.01 817.147 Q2205.01 814.207 2203.07 812.61 Q2201.15 810.99 2197.65 810.99 Q2195.43 810.99 2193.32 811.522 Q2191.22 812.055 2189.27 813.12 L2189.27 809.184 Q2191.61 808.282 2193.81 807.842 Q2196.01 807.379 2198.09 807.379 Q2203.72 807.379 2206.49 810.295 Q2209.27 813.212 2209.27 819.138 Z" fill="#000000" fill-rule="nonzero" fill-opacity="1" /><path clip-path="url(#clip800)" d="M2222.26 800.643 L2222.26 808.004 L2231.03 808.004 L2231.03 811.314 L2222.26 811.314 L2222.26 825.388 Q2222.26 828.559 2223.11 829.462 Q2223.99 830.365 2226.66 830.365 L2231.03 830.365 L2231.03 833.93 L2226.66 833.93 Q2221.72 833.93 2219.85 832.101 Q2217.97 830.249 2217.97 825.388 L2217.97 811.314 L2214.85 811.314 L2214.85 808.004 L2217.97 808.004 L2217.97 800.643 L2222.26 800.643 Z" fill="#000000" fill-rule="nonzero" fill-opacity="1" /><polyline clip-path="url(#clip800)" style="stroke:#e9c716; stroke-linecap:round; stroke-linejoin:round; stroke-width:8; stroke-opacity:1; fill:none" points="1988.1,868.49 2125.79,868.49 "/>
<path clip-path="url(#clip800)" d="M2056.94 847.241 L2035.7 889.738 L2078.19 889.738 L2056.94 847.241 Z" fill="#e9c716" fill-rule="evenodd" fill-opacity="1" stroke="#000000" stroke-opacity="1" stroke-width="2.73067"/>
<path clip-path="url(#clip800)" d="M2153.42 855.052 L2153.42 868.038 L2159.29 868.038 Q2162.56 868.038 2164.34 866.348 Q2166.12 864.659 2166.12 861.534 Q2166.12 858.432 2164.34 856.742 Q2162.56 855.052 2159.29 855.052 L2153.42 855.052 M2148.74 851.21 L2159.29 851.21 Q2165.1 851.21 2168.07 853.848 Q2171.05 856.464 2171.05 861.534 Q2171.05 866.649 2168.07 869.265 Q2165.1 871.881 2159.29 871.881 L2153.42 871.881 L2153.42 885.77 L2148.74 885.77 L2148.74 851.21 Z" fill="#000000" fill-rule="nonzero" fill-opacity="1" /><path clip-path="url(#clip800)" d="M2197.63 871.742 L2197.63 873.825 L2178.04 873.825 Q2178.32 878.223 2180.68 880.538 Q2183.07 882.83 2187.3 882.83 Q2189.76 882.83 2192.05 882.228 Q2194.36 881.626 2196.63 880.422 L2196.63 884.45 Q2194.34 885.422 2191.93 885.932 Q2189.53 886.441 2187.05 886.441 Q2180.85 886.441 2177.21 882.83 Q2173.6 879.219 2173.6 873.061 Q2173.6 866.696 2177.03 862.969 Q2180.48 859.219 2186.31 859.219 Q2191.54 859.219 2194.57 862.598 Q2197.63 865.955 2197.63 871.742 M2193.37 870.492 Q2193.32 866.997 2191.4 864.913 Q2189.5 862.83 2186.35 862.83 Q2182.79 862.83 2180.64 864.844 Q2178.51 866.858 2178.18 870.515 L2193.37 870.492 Z" fill="#000000" fill-rule="nonzero" fill-opacity="1" /><path clip-path="url(#clip800)" d="M2219.64 863.825 Q2218.92 863.409 2218.07 863.223 Q2217.23 863.015 2216.22 863.015 Q2212.6 863.015 2210.66 865.376 Q2208.74 867.714 2208.74 872.112 L2208.74 885.77 L2204.46 885.77 L2204.46 859.844 L2208.74 859.844 L2208.74 863.872 Q2210.08 861.51 2212.23 860.376 Q2214.39 859.219 2217.47 859.219 Q2217.91 859.219 2218.44 859.288 Q2218.97 859.335 2219.62 859.45 L2219.64 863.825 Z" fill="#000000" fill-rule="nonzero" fill-opacity="1" /><path clip-path="url(#clip800)" d="M2243.46 864.821 Q2245.06 861.95 2247.28 860.585 Q2249.5 859.219 2252.51 859.219 Q2256.56 859.219 2258.76 862.066 Q2260.96 864.89 2260.96 870.122 L2260.96 885.77 L2256.68 885.77 L2256.68 870.26 Q2256.68 866.534 2255.36 864.728 Q2254.04 862.922 2251.33 862.922 Q2248.02 862.922 2246.1 865.122 Q2244.18 867.321 2244.18 871.117 L2244.18 885.77 L2239.9 885.77 L2239.9 870.26 Q2239.9 866.51 2238.58 864.728 Q2237.26 862.922 2234.5 862.922 Q2231.24 862.922 2229.32 865.145 Q2227.4 867.344 2227.4 871.117 L2227.4 885.77 L2223.11 885.77 L2223.11 859.844 L2227.4 859.844 L2227.4 863.872 Q2228.85 861.487 2230.89 860.353 Q2232.93 859.219 2235.73 859.219 Q2238.55 859.219 2240.52 860.654 Q2242.51 862.089 2243.46 864.821 Z" fill="#000000" fill-rule="nonzero" fill-opacity="1" /></svg>
