<?xml version="1.0" encoding="utf-8"?>
<svg xmlns="http://www.w3.org/2000/svg" xmlns:xlink="http://www.w3.org/1999/xlink" width="600" height="400" viewBox="0 0 2400 1600">
<defs>
  <clipPath id="clip580">
    <rect x="0" y="0" width="2400" height="1600"/>
  </clipPath>
</defs>
<path clip-path="url(#clip580)" d="M0 1600 L2400 1600 L2400 0 L0 0  Z" fill="#ffffff" fill-rule="evenodd" fill-opacity="1"/>
<defs>
  <clipPath id="clip581">
    <rect x="480" y="0" width="1681" height="1600"/>
  </clipPath>
</defs>
<path clip-path="url(#clip580)" d="M219.866 1423.18 L2352.76 1423.18 L2352.76 123.472 L219.866 123.472  Z" fill="#ffffff" fill-rule="evenodd" fill-opacity="1"/>
<defs>
  <clipPath id="clip582">
    <rect x="219" y="123" width="2134" height="1301"/>
  </clipPath>
</defs>
<polyline clip-path="url(#clip582)" style="stroke:#000000; stroke-linecap:round; stroke-linejoin:round; stroke-width:2; stroke-opacity:0.1; fill:none" points="280.231,1423.18 280.231,123.472 "/>
<polyline clip-path="url(#clip582)" style="stroke:#000000; stroke-linecap:round; stroke-linejoin:round; stroke-width:2; stroke-opacity:0.1; fill:none" points="950.951,1423.18 950.951,123.472 "/>
<polyline clip-path="url(#clip582)" style="stroke:#000000; stroke-linecap:round; stroke-linejoin:round; stroke-width:2; stroke-opacity:0.1; fill:none" points="1621.67,1423.18 1621.67,123.472 "/>
<polyline clip-path="url(#clip582)" style="stroke:#000000; stroke-linecap:round; stroke-linejoin:round; stroke-width:2; stroke-opacity:0.1; fill:none" points="2292.39,1423.18 2292.39,123.472 "/>
<polyline clip-path="url(#clip580)" style="stroke:#000000; stroke-linecap:round; stroke-linejoin:round; stroke-width:4; stroke-opacity:1; fill:none" points="219.866,1423.18 2352.76,1423.18 "/>
<polyline clip-path="url(#clip580)" style="stroke:#000000; stroke-linecap:round; stroke-linejoin:round; stroke-width:4; stroke-opacity:1; fill:none" points="280.231,1423.18 280.231,1404.28 "/>
<polyline clip-path="url(#clip580)" style="stroke:#000000; stroke-linecap:round; stroke-linejoin:round; stroke-width:4; stroke-opacity:1; fill:none" points="950.951,1423.18 950.951,1404.28 "/>
<polyline clip-path="url(#clip580)" style="stroke:#000000; stroke-linecap:round; stroke-linejoin:round; stroke-width:4; stroke-opacity:1; fill:none" points="1621.67,1423.18 1621.67,1404.28 "/>
<polyline clip-path="url(#clip580)" style="stroke:#000000; stroke-linecap:round; stroke-linejoin:round; stroke-width:4; stroke-opacity:1; fill:none" points="2292.39,1423.18 2292.39,1404.28 "/>
<path clip-path="url(#clip580)" d="M257.615 1454.1 Q254.004 1454.1 252.176 1457.66 Q250.37 1461.2 250.37 1468.33 Q250.37 1475.44 252.176 1479.01 Q254.004 1482.55 257.615 1482.55 Q261.25 1482.55 263.055 1479.01 Q264.884 1475.44 264.884 1468.33 Q264.884 1461.2 263.055 1457.66 Q261.25 1454.1 257.615 1454.1 M257.615 1450.39 Q263.426 1450.39 266.481 1455 Q269.56 1459.58 269.56 1468.33 Q269.56 1477.06 266.481 1481.67 Q263.426 1486.25 257.615 1486.25 Q251.805 1486.25 248.727 1481.67 Q245.671 1477.06 245.671 1468.33 Q245.671 1459.58 248.727 1455 Q251.805 1450.39 257.615 1450.39 Z" fill="#000000" fill-rule="nonzero" fill-opacity="1" /><path clip-path="url(#clip580)" d="M277.777 1479.7 L282.662 1479.7 L282.662 1485.58 L277.777 1485.58 L277.777 1479.7 Z" fill="#000000" fill-rule="nonzero" fill-opacity="1" /><path clip-path="url(#clip580)" d="M302.847 1454.1 Q299.236 1454.1 297.407 1457.66 Q295.601 1461.2 295.601 1468.33 Q295.601 1475.44 297.407 1479.01 Q299.236 1482.55 302.847 1482.55 Q306.481 1482.55 308.286 1479.01 Q310.115 1475.44 310.115 1468.33 Q310.115 1461.2 308.286 1457.66 Q306.481 1454.1 302.847 1454.1 M302.847 1450.39 Q308.657 1450.39 311.712 1455 Q314.791 1459.58 314.791 1468.33 Q314.791 1477.06 311.712 1481.67 Q308.657 1486.25 302.847 1486.25 Q297.037 1486.25 293.958 1481.67 Q290.902 1477.06 290.902 1468.33 Q290.902 1459.58 293.958 1455 Q297.037 1450.39 302.847 1450.39 Z" fill="#000000" fill-rule="nonzero" fill-opacity="1" /><path clip-path="url(#clip580)" d="M928.833 1454.1 Q925.222 1454.1 923.393 1457.66 Q921.588 1461.2 921.588 1468.33 Q921.588 1475.44 923.393 1479.01 Q925.222 1482.55 928.833 1482.55 Q932.467 1482.55 934.273 1479.01 Q936.102 1475.44 936.102 1468.33 Q936.102 1461.2 934.273 1457.66 Q932.467 1454.1 928.833 1454.1 M928.833 1450.39 Q934.643 1450.39 937.699 1455 Q940.778 1459.58 940.778 1468.33 Q940.778 1477.06 937.699 1481.67 Q934.643 1486.25 928.833 1486.25 Q923.023 1486.25 919.944 1481.67 Q916.889 1477.06 916.889 1468.33 Q916.889 1459.58 919.944 1455 Q923.023 1450.39 928.833 1450.39 Z" fill="#000000" fill-rule="nonzero" fill-opacity="1" /><path clip-path="url(#clip580)" d="M948.995 1479.7 L953.879 1479.7 L953.879 1485.58 L948.995 1485.58 L948.995 1479.7 Z" fill="#000000" fill-rule="nonzero" fill-opacity="1" /><path clip-path="url(#clip580)" d="M964.111 1451.02 L982.467 1451.02 L982.467 1454.96 L968.393 1454.96 L968.393 1463.43 Q969.412 1463.08 970.43 1462.92 Q971.449 1462.73 972.467 1462.73 Q978.254 1462.73 981.634 1465.9 Q985.013 1469.08 985.013 1474.49 Q985.013 1480.07 981.541 1483.17 Q978.069 1486.25 971.75 1486.25 Q969.574 1486.25 967.305 1485.88 Q965.06 1485.51 962.652 1484.77 L962.652 1480.07 Q964.736 1481.2 966.958 1481.76 Q969.18 1482.32 971.657 1482.32 Q975.662 1482.32 978 1480.21 Q980.337 1478.1 980.337 1474.49 Q980.337 1470.88 978 1468.77 Q975.662 1466.67 971.657 1466.67 Q969.782 1466.67 967.907 1467.08 Q966.055 1467.5 964.111 1468.38 L964.111 1451.02 Z" fill="#000000" fill-rule="nonzero" fill-opacity="1" /><path clip-path="url(#clip580)" d="M1588.82 1481.64 L1596.46 1481.64 L1596.46 1455.28 L1588.15 1456.95 L1588.15 1452.69 L1596.42 1451.02 L1601.09 1451.02 L1601.09 1481.64 L1608.73 1481.64 L1608.73 1485.58 L1588.82 1485.58 L1588.82 1481.64 Z" fill="#000000" fill-rule="nonzero" fill-opacity="1" /><path clip-path="url(#clip580)" d="M1618.18 1479.7 L1623.06 1479.7 L1623.06 1485.58 L1618.18 1485.58 L1618.18 1479.7 Z" fill="#000000" fill-rule="nonzero" fill-opacity="1" /><path clip-path="url(#clip580)" d="M1643.25 1454.1 Q1639.63 1454.1 1637.81 1457.66 Q1636 1461.2 1636 1468.33 Q1636 1475.44 1637.81 1479.01 Q1639.63 1482.55 1643.25 1482.55 Q1646.88 1482.55 1648.68 1479.01 Q1650.51 1475.44 1650.51 1468.33 Q1650.51 1461.2 1648.68 1457.66 Q1646.88 1454.1 1643.25 1454.1 M1643.25 1450.39 Q1649.06 1450.39 1652.11 1455 Q1655.19 1459.58 1655.19 1468.33 Q1655.19 1477.06 1652.11 1481.67 Q1649.06 1486.25 1643.25 1486.25 Q1637.43 1486.25 1634.36 1481.67 Q1631.3 1477.06 1631.3 1468.33 Q1631.3 1459.58 1634.36 1455 Q1637.43 1450.39 1643.25 1450.39 Z" fill="#000000" fill-rule="nonzero" fill-opacity="1" /><path clip-path="url(#clip580)" d="M2260.04 1481.64 L2267.68 1481.64 L2267.68 1455.28 L2259.37 1456.95 L2259.37 1452.69 L2267.63 1451.02 L2272.31 1451.02 L2272.31 1481.64 L2279.95 1481.64 L2279.95 1485.58 L2260.04 1485.58 L2260.04 1481.64 Z" fill="#000000" fill-rule="nonzero" fill-opacity="1" /><path clip-path="url(#clip580)" d="M2289.39 1479.7 L2294.28 1479.7 L2294.28 1485.58 L2289.39 1485.58 L2289.39 1479.7 Z" fill="#000000" fill-rule="nonzero" fill-opacity="1" /><path clip-path="url(#clip580)" d="M2304.51 1451.02 L2322.87 1451.02 L2322.87 1454.96 L2308.79 1454.96 L2308.79 1463.43 Q2309.81 1463.08 2310.83 1462.92 Q2311.85 1462.73 2312.87 1462.73 Q2318.65 1462.73 2322.03 1465.9 Q2325.41 1469.08 2325.41 1474.49 Q2325.41 1480.07 2321.94 1483.17 Q2318.47 1486.25 2312.15 1486.25 Q2309.97 1486.25 2307.7 1485.88 Q2305.46 1485.51 2303.05 1484.77 L2303.05 1480.07 Q2305.13 1481.2 2307.36 1481.76 Q2309.58 1482.32 2312.06 1482.32 Q2316.06 1482.32 2318.4 1480.21 Q2320.74 1478.1 2320.74 1474.49 Q2320.74 1470.88 2318.4 1468.77 Q2316.06 1466.67 2312.06 1466.67 Q2310.18 1466.67 2308.31 1467.08 Q2306.45 1467.5 2304.51 1468.38 L2304.51 1451.02 Z" fill="#000000" fill-rule="nonzero" fill-opacity="1" /><path clip-path="url(#clip580)" d="M840.266 1561.26 L840.266 1548.5 L829.763 1548.5 L829.763 1543.22 L846.632 1543.22 L846.632 1563.62 Q842.908 1566.26 838.42 1567.63 Q833.932 1568.97 828.84 1568.97 Q817.7 1568.97 811.398 1562.47 Q805.127 1555.95 805.127 1544.33 Q805.127 1532.68 811.398 1526.19 Q817.7 1519.66 828.84 1519.66 Q833.487 1519.66 837.656 1520.81 Q841.857 1521.96 845.39 1524.18 L845.39 1531.03 Q841.826 1528 837.815 1526.48 Q833.805 1524.95 829.381 1524.95 Q820.66 1524.95 816.267 1529.82 Q811.907 1534.69 811.907 1544.33 Q811.907 1553.94 816.267 1558.81 Q820.66 1563.68 829.381 1563.68 Q832.786 1563.68 835.46 1563.11 Q838.134 1562.51 840.266 1561.26 Z" fill="#000000" fill-rule="nonzero" fill-opacity="1" /><path clip-path="url(#clip580)" d="M888.614 1548.76 L888.614 1551.62 L861.687 1551.62 Q862.069 1557.67 865.315 1560.85 Q868.593 1564 874.418 1564 Q877.792 1564 880.943 1563.17 Q884.126 1562.35 887.245 1560.69 L887.245 1566.23 Q884.094 1567.57 880.784 1568.27 Q877.474 1568.97 874.068 1568.97 Q865.538 1568.97 860.541 1564 Q855.576 1559.04 855.576 1550.57 Q855.576 1541.82 860.286 1536.69 Q865.029 1531.54 873.049 1531.54 Q880.243 1531.54 884.412 1536.18 Q888.614 1540.8 888.614 1548.76 M882.757 1547.04 Q882.693 1542.23 880.052 1539.37 Q877.442 1536.5 873.113 1536.5 Q868.211 1536.5 865.251 1539.27 Q862.323 1542.04 861.878 1547.07 L882.757 1547.04 Z" fill="#000000" fill-rule="nonzero" fill-opacity="1" /><path clip-path="url(#clip580)" d="M927.858 1546.53 L927.858 1568.04 L922.002 1568.04 L922.002 1546.72 Q922.002 1541.66 920.028 1539.14 Q918.055 1536.63 914.108 1536.63 Q909.366 1536.63 906.629 1539.65 Q903.891 1542.68 903.891 1547.9 L903.891 1568.04 L898.003 1568.04 L898.003 1532.4 L903.891 1532.4 L903.891 1537.93 Q905.992 1534.72 908.825 1533.13 Q911.689 1531.54 915.413 1531.54 Q921.556 1531.54 924.707 1535.36 Q927.858 1539.14 927.858 1546.53 Z" fill="#000000" fill-rule="nonzero" fill-opacity="1" /><path clip-path="url(#clip580)" d="M970.031 1548.76 L970.031 1551.62 L943.104 1551.62 Q943.486 1557.67 946.732 1560.85 Q950.011 1564 955.835 1564 Q959.209 1564 962.36 1563.17 Q965.543 1562.35 968.662 1560.69 L968.662 1566.23 Q965.511 1567.57 962.201 1568.27 Q958.891 1568.97 955.485 1568.97 Q946.955 1568.97 941.958 1564 Q936.993 1559.04 936.993 1550.57 Q936.993 1541.82 941.704 1536.69 Q946.446 1531.54 954.467 1531.54 Q961.66 1531.54 965.83 1536.18 Q970.031 1540.8 970.031 1548.76 M964.175 1547.04 Q964.111 1542.23 961.469 1539.37 Q958.859 1536.5 954.53 1536.5 Q949.629 1536.5 946.669 1539.27 Q943.741 1542.04 943.295 1547.07 L964.175 1547.04 Z" fill="#000000" fill-rule="nonzero" fill-opacity="1" /><path clip-path="url(#clip580)" d="M1000.3 1537.87 Q999.313 1537.3 998.136 1537.04 Q996.99 1536.76 995.589 1536.76 Q990.624 1536.76 987.95 1540 Q985.309 1543.22 985.309 1549.27 L985.309 1568.04 L979.42 1568.04 L979.42 1532.4 L985.309 1532.4 L985.309 1537.93 Q987.155 1534.69 990.115 1533.13 Q993.075 1531.54 997.308 1531.54 Q997.913 1531.54 998.645 1531.63 Q999.377 1531.7 1000.27 1531.85 L1000.3 1537.87 Z" fill="#000000" fill-rule="nonzero" fill-opacity="1" /><path clip-path="url(#clip580)" d="M1022.64 1550.12 Q1015.55 1550.12 1012.81 1551.75 Q1010.07 1553.37 1010.07 1557.29 Q1010.07 1560.4 1012.11 1562.25 Q1014.18 1564.07 1017.71 1564.07 Q1022.58 1564.07 1025.51 1560.63 Q1028.47 1557.16 1028.47 1551.43 L1028.47 1550.12 L1022.64 1550.12 M1034.32 1547.71 L1034.32 1568.04 L1028.47 1568.04 L1028.47 1562.63 Q1026.46 1565.88 1023.47 1567.44 Q1020.48 1568.97 1016.15 1568.97 Q1010.68 1568.97 1007.43 1565.91 Q1004.21 1562.82 1004.21 1557.67 Q1004.21 1551.65 1008.23 1548.6 Q1012.27 1545.54 1020.26 1545.54 L1028.47 1545.54 L1028.47 1544.97 Q1028.47 1540.93 1025.79 1538.73 Q1023.15 1536.5 1018.35 1536.5 Q1015.29 1536.5 1012.39 1537.23 Q1009.5 1537.97 1006.82 1539.43 L1006.82 1534.02 Q1010.04 1532.78 1013.06 1532.17 Q1016.09 1531.54 1018.95 1531.54 Q1026.69 1531.54 1030.51 1535.55 Q1034.32 1539.56 1034.32 1547.71 Z" fill="#000000" fill-rule="nonzero" fill-opacity="1" /><path clip-path="url(#clip580)" d="M1052.18 1522.27 L1052.18 1532.4 L1064.24 1532.4 L1064.24 1536.95 L1052.18 1536.95 L1052.18 1556.3 Q1052.18 1560.66 1053.36 1561.9 Q1054.57 1563.14 1058.23 1563.14 L1064.24 1563.14 L1064.24 1568.04 L1058.23 1568.04 Q1051.45 1568.04 1048.87 1565.53 Q1046.29 1562.98 1046.29 1556.3 L1046.29 1536.95 L1042 1536.95 L1042 1532.4 L1046.29 1532.4 L1046.29 1522.27 L1052.18 1522.27 Z" fill="#000000" fill-rule="nonzero" fill-opacity="1" /><path clip-path="url(#clip580)" d="M1071.95 1532.4 L1077.8 1532.4 L1077.8 1568.04 L1071.95 1568.04 L1071.95 1532.4 M1071.95 1518.52 L1077.8 1518.52 L1077.8 1525.93 L1071.95 1525.93 L1071.95 1518.52 Z" fill="#000000" fill-rule="nonzero" fill-opacity="1" /><path clip-path="url(#clip580)" d="M1119.69 1546.53 L1119.69 1568.04 L1113.83 1568.04 L1113.83 1546.72 Q1113.83 1541.66 1111.86 1539.14 Q1109.89 1536.63 1105.94 1536.63 Q1101.2 1536.63 1098.46 1539.65 Q1095.72 1542.68 1095.72 1547.9 L1095.72 1568.04 L1089.83 1568.04 L1089.83 1532.4 L1095.72 1532.4 L1095.72 1537.93 Q1097.82 1534.72 1100.66 1533.13 Q1103.52 1531.54 1107.24 1531.54 Q1113.39 1531.54 1116.54 1535.36 Q1119.69 1539.14 1119.69 1546.53 Z" fill="#000000" fill-rule="nonzero" fill-opacity="1" /><path clip-path="url(#clip580)" d="M1154.83 1549.81 Q1154.83 1543.44 1152.19 1539.94 Q1149.58 1536.44 1144.83 1536.44 Q1140.12 1536.44 1137.48 1539.94 Q1134.87 1543.44 1134.87 1549.81 Q1134.87 1556.14 1137.48 1559.64 Q1140.12 1563.14 1144.83 1563.14 Q1149.58 1563.14 1152.19 1559.64 Q1154.83 1556.14 1154.83 1549.81 M1160.68 1563.62 Q1160.68 1572.72 1156.64 1577.15 Q1152.6 1581.6 1144.26 1581.6 Q1141.17 1581.6 1138.44 1581.13 Q1135.7 1580.68 1133.12 1579.72 L1133.12 1574.03 Q1135.7 1575.43 1138.21 1576.1 Q1140.73 1576.76 1143.34 1576.76 Q1149.1 1576.76 1151.96 1573.74 Q1154.83 1570.75 1154.83 1564.67 L1154.83 1561.77 Q1153.01 1564.92 1150.18 1566.48 Q1147.35 1568.04 1143.4 1568.04 Q1136.84 1568.04 1132.83 1563.05 Q1128.82 1558.05 1128.82 1549.81 Q1128.82 1541.53 1132.83 1536.53 Q1136.84 1531.54 1143.4 1531.54 Q1147.35 1531.54 1150.18 1533.1 Q1153.01 1534.66 1154.83 1537.81 L1154.83 1532.4 L1160.68 1532.4 L1160.68 1563.62 Z" fill="#000000" fill-rule="nonzero" fill-opacity="1" /><path clip-path="url(#clip580)" d="M1200.15 1525.81 L1200.15 1562.76 L1207.92 1562.76 Q1217.75 1562.76 1222.3 1558.3 Q1226.89 1553.85 1226.89 1544.24 Q1226.89 1534.69 1222.3 1530.26 Q1217.75 1525.81 1207.92 1525.81 L1200.15 1525.81 M1193.72 1520.52 L1206.93 1520.52 Q1220.74 1520.52 1227.21 1526.28 Q1233.67 1532.01 1233.67 1544.24 Q1233.67 1556.52 1227.17 1562.28 Q1220.68 1568.04 1206.93 1568.04 L1193.72 1568.04 L1193.72 1520.52 Z" fill="#000000" fill-rule="nonzero" fill-opacity="1" /><path clip-path="url(#clip580)" d="M1243.66 1532.4 L1249.52 1532.4 L1249.52 1568.04 L1243.66 1568.04 L1243.66 1532.4 M1243.66 1518.52 L1249.52 1518.52 L1249.52 1525.93 L1243.66 1525.93 L1243.66 1518.52 Z" fill="#000000" fill-rule="nonzero" fill-opacity="1" /><path clip-path="url(#clip580)" d="M1282.43 1537.87 Q1281.44 1537.3 1280.26 1537.04 Q1279.12 1536.76 1277.72 1536.76 Q1272.75 1536.76 1270.08 1540 Q1267.44 1543.22 1267.44 1549.27 L1267.44 1568.04 L1261.55 1568.04 L1261.55 1532.4 L1267.44 1532.4 L1267.44 1537.93 Q1269.28 1534.69 1272.24 1533.13 Q1275.2 1531.54 1279.44 1531.54 Q1280.04 1531.54 1280.77 1531.63 Q1281.5 1531.7 1282.4 1531.85 L1282.43 1537.87 Z" fill="#000000" fill-rule="nonzero" fill-opacity="1" /><path clip-path="url(#clip580)" d="M1288.57 1532.4 L1294.43 1532.4 L1294.43 1568.04 L1288.57 1568.04 L1288.57 1532.4 M1288.57 1518.52 L1294.43 1518.52 L1294.43 1525.93 L1288.57 1525.93 L1288.57 1518.52 Z" fill="#000000" fill-rule="nonzero" fill-opacity="1" /><path clip-path="url(#clip580)" d="M1332.34 1533.76 L1332.34 1539.24 Q1329.85 1537.87 1327.34 1537.2 Q1324.86 1536.5 1322.31 1536.5 Q1316.61 1536.5 1313.46 1540.13 Q1310.31 1543.73 1310.31 1550.25 Q1310.31 1556.78 1313.46 1560.4 Q1316.61 1564 1322.31 1564 Q1324.86 1564 1327.34 1563.33 Q1329.85 1562.63 1332.34 1561.26 L1332.34 1566.68 Q1329.88 1567.82 1327.24 1568.39 Q1324.63 1568.97 1321.67 1568.97 Q1313.62 1568.97 1308.88 1563.91 Q1304.14 1558.85 1304.14 1550.25 Q1304.14 1541.53 1308.91 1536.53 Q1313.72 1531.54 1322.05 1531.54 Q1324.76 1531.54 1327.34 1532.11 Q1329.92 1532.65 1332.34 1533.76 Z" fill="#000000" fill-rule="nonzero" fill-opacity="1" /><path clip-path="url(#clip580)" d="M1372.15 1546.53 L1372.15 1568.04 L1366.3 1568.04 L1366.3 1546.72 Q1366.3 1541.66 1364.32 1539.14 Q1362.35 1536.63 1358.4 1536.63 Q1353.66 1536.63 1350.92 1539.65 Q1348.19 1542.68 1348.19 1547.9 L1348.19 1568.04 L1342.3 1568.04 L1342.3 1518.52 L1348.19 1518.52 L1348.19 1537.93 Q1350.29 1534.72 1353.12 1533.13 Q1355.98 1531.54 1359.71 1531.54 Q1365.85 1531.54 1369 1535.36 Q1372.15 1539.14 1372.15 1546.53 Z" fill="#000000" fill-rule="nonzero" fill-opacity="1" /><path clip-path="url(#clip580)" d="M1383.83 1518.52 L1389.69 1518.52 L1389.69 1568.04 L1383.83 1568.04 L1383.83 1518.52 Z" fill="#000000" fill-rule="nonzero" fill-opacity="1" /><path clip-path="url(#clip580)" d="M1432.44 1548.76 L1432.44 1551.62 L1405.51 1551.62 Q1405.89 1557.67 1409.14 1560.85 Q1412.42 1564 1418.24 1564 Q1421.61 1564 1424.77 1563.17 Q1427.95 1562.35 1431.07 1560.69 L1431.07 1566.23 Q1427.92 1567.57 1424.61 1568.27 Q1421.3 1568.97 1417.89 1568.97 Q1409.36 1568.97 1404.36 1564 Q1399.4 1559.04 1399.4 1550.57 Q1399.4 1541.82 1404.11 1536.69 Q1408.85 1531.54 1416.87 1531.54 Q1424.06 1531.54 1428.23 1536.18 Q1432.44 1540.8 1432.44 1548.76 M1426.58 1547.04 Q1426.52 1542.23 1423.87 1539.37 Q1421.26 1536.5 1416.94 1536.5 Q1412.03 1536.5 1409.07 1539.27 Q1406.15 1542.04 1405.7 1547.07 L1426.58 1547.04 Z" fill="#000000" fill-rule="nonzero" fill-opacity="1" /><path clip-path="url(#clip580)" d="M1447.84 1522.27 L1447.84 1532.4 L1459.9 1532.4 L1459.9 1536.95 L1447.84 1536.95 L1447.84 1556.3 Q1447.84 1560.66 1449.02 1561.9 Q1450.23 1563.14 1453.89 1563.14 L1459.9 1563.14 L1459.9 1568.04 L1453.89 1568.04 Q1447.11 1568.04 1444.53 1565.53 Q1441.95 1562.98 1441.95 1556.3 L1441.95 1536.95 L1437.66 1536.95 L1437.66 1532.4 L1441.95 1532.4 L1441.95 1522.27 L1447.84 1522.27 Z" fill="#000000" fill-rule="nonzero" fill-opacity="1" /><path clip-path="url(#clip580)" d="M1495.01 1525.81 L1495.01 1543.66 L1503.1 1543.66 Q1507.58 1543.66 1510.03 1541.34 Q1512.48 1539.02 1512.48 1534.72 Q1512.48 1530.45 1510.03 1528.13 Q1507.58 1525.81 1503.1 1525.81 L1495.01 1525.81 M1488.58 1520.52 L1503.1 1520.52 Q1511.08 1520.52 1515.16 1524.15 Q1519.26 1527.75 1519.26 1534.72 Q1519.26 1541.75 1515.16 1545.35 Q1511.08 1548.95 1503.1 1548.95 L1495.01 1548.95 L1495.01 1568.04 L1488.58 1568.04 L1488.58 1520.52 Z" fill="#000000" fill-rule="nonzero" fill-opacity="1" /><path clip-path="url(#clip580)" d="M1547.15 1537.87 Q1546.16 1537.3 1544.98 1537.04 Q1543.84 1536.76 1542.44 1536.76 Q1537.47 1536.76 1534.8 1540 Q1532.15 1543.22 1532.15 1549.27 L1532.15 1568.04 L1526.27 1568.04 L1526.27 1532.4 L1532.15 1532.4 L1532.15 1537.93 Q1534 1534.69 1536.96 1533.13 Q1539.92 1531.54 1544.15 1531.54 Q1544.76 1531.54 1545.49 1531.63 Q1546.22 1531.7 1547.11 1531.85 L1547.15 1537.87 Z" fill="#000000" fill-rule="nonzero" fill-opacity="1" /><path clip-path="url(#clip580)" d="M1582.35 1548.76 L1582.35 1551.62 L1555.42 1551.62 Q1555.8 1557.67 1559.05 1560.85 Q1562.33 1564 1568.15 1564 Q1571.53 1564 1574.68 1563.17 Q1577.86 1562.35 1580.98 1560.69 L1580.98 1566.23 Q1577.83 1567.57 1574.52 1568.27 Q1571.21 1568.97 1567.8 1568.97 Q1559.27 1568.97 1554.28 1564 Q1549.31 1559.04 1549.31 1550.57 Q1549.31 1541.82 1554.02 1536.69 Q1558.76 1531.54 1566.78 1531.54 Q1573.98 1531.54 1578.15 1536.18 Q1582.35 1540.8 1582.35 1548.76 M1576.49 1547.04 Q1576.43 1542.23 1573.79 1539.37 Q1571.18 1536.5 1566.85 1536.5 Q1561.95 1536.5 1558.99 1539.27 Q1556.06 1542.04 1555.61 1547.07 L1576.49 1547.04 Z" fill="#000000" fill-rule="nonzero" fill-opacity="1" /><path clip-path="url(#clip580)" d="M1617.61 1533.76 L1617.61 1539.24 Q1615.13 1537.87 1612.62 1537.2 Q1610.13 1536.5 1607.59 1536.5 Q1601.89 1536.5 1598.74 1540.13 Q1595.59 1543.73 1595.59 1550.25 Q1595.59 1556.78 1598.74 1560.4 Q1601.89 1564 1607.59 1564 Q1610.13 1564 1612.62 1563.33 Q1615.13 1562.63 1617.61 1561.26 L1617.61 1566.68 Q1615.16 1567.82 1612.52 1568.39 Q1609.91 1568.97 1606.95 1568.97 Q1598.9 1568.97 1594.16 1563.91 Q1589.41 1558.85 1589.41 1550.25 Q1589.41 1541.53 1594.19 1536.53 Q1598.99 1531.54 1607.33 1531.54 Q1610.04 1531.54 1612.62 1532.11 Q1615.2 1532.65 1617.61 1533.76 Z" fill="#000000" fill-rule="nonzero" fill-opacity="1" /><path clip-path="url(#clip580)" d="M1627.8 1532.4 L1633.66 1532.4 L1633.66 1568.04 L1627.8 1568.04 L1627.8 1532.4 M1627.8 1518.52 L1633.66 1518.52 L1633.66 1525.93 L1627.8 1525.93 L1627.8 1518.52 Z" fill="#000000" fill-rule="nonzero" fill-opacity="1" /><path clip-path="url(#clip580)" d="M1668.64 1533.45 L1668.64 1538.98 Q1666.15 1537.71 1663.48 1537.07 Q1660.81 1536.44 1657.94 1536.44 Q1653.58 1536.44 1651.38 1537.77 Q1649.22 1539.11 1649.22 1541.79 Q1649.22 1543.82 1650.78 1545 Q1652.34 1546.15 1657.05 1547.2 L1659.06 1547.64 Q1665.29 1548.98 1667.9 1551.43 Q1670.55 1553.85 1670.55 1558.21 Q1670.55 1563.17 1666.6 1566.07 Q1662.68 1568.97 1655.81 1568.97 Q1652.94 1568.97 1649.82 1568.39 Q1646.74 1567.85 1643.3 1566.74 L1643.3 1560.69 Q1646.55 1562.38 1649.7 1563.24 Q1652.85 1564.07 1655.94 1564.07 Q1660.07 1564.07 1662.3 1562.66 Q1664.53 1561.23 1664.53 1558.65 Q1664.53 1556.27 1662.91 1554.99 Q1661.31 1553.72 1655.87 1552.54 L1653.84 1552.07 Q1648.39 1550.92 1645.97 1548.56 Q1643.55 1546.18 1643.55 1542.04 Q1643.55 1537.01 1647.12 1534.27 Q1650.68 1531.54 1657.24 1531.54 Q1660.49 1531.54 1663.35 1532.01 Q1666.22 1532.49 1668.64 1533.45 Z" fill="#000000" fill-rule="nonzero" fill-opacity="1" /><path clip-path="url(#clip580)" d="M1679.87 1532.4 L1685.73 1532.4 L1685.73 1568.04 L1679.87 1568.04 L1679.87 1532.4 M1679.87 1518.52 L1685.73 1518.52 L1685.73 1525.93 L1679.87 1525.93 L1679.87 1518.52 Z" fill="#000000" fill-rule="nonzero" fill-opacity="1" /><path clip-path="url(#clip580)" d="M1711.79 1536.5 Q1707.08 1536.5 1704.35 1540.19 Q1701.61 1543.85 1701.61 1550.25 Q1701.61 1556.65 1704.32 1560.34 Q1707.05 1564 1711.79 1564 Q1716.47 1564 1719.21 1560.31 Q1721.95 1556.62 1721.95 1550.25 Q1721.95 1543.92 1719.21 1540.23 Q1716.47 1536.5 1711.79 1536.5 M1711.79 1531.54 Q1719.43 1531.54 1723.79 1536.5 Q1728.15 1541.47 1728.15 1550.25 Q1728.15 1559 1723.79 1564 Q1719.43 1568.97 1711.79 1568.97 Q1704.12 1568.97 1699.76 1564 Q1695.44 1559 1695.44 1550.25 Q1695.44 1541.47 1699.76 1536.5 Q1704.12 1531.54 1711.79 1531.54 Z" fill="#000000" fill-rule="nonzero" fill-opacity="1" /><path clip-path="url(#clip580)" d="M1767.49 1546.53 L1767.49 1568.04 L1761.64 1568.04 L1761.64 1546.72 Q1761.64 1541.66 1759.67 1539.14 Q1757.69 1536.63 1753.74 1536.63 Q1749 1536.63 1746.27 1539.65 Q1743.53 1542.68 1743.53 1547.9 L1743.53 1568.04 L1737.64 1568.04 L1737.64 1532.4 L1743.53 1532.4 L1743.53 1537.93 Q1745.63 1534.72 1748.46 1533.13 Q1751.33 1531.54 1755.05 1531.54 Q1761.19 1531.54 1764.34 1535.36 Q1767.49 1539.14 1767.49 1546.53 Z" fill="#000000" fill-rule="nonzero" fill-opacity="1" /><polyline clip-path="url(#clip582)" style="stroke:#000000; stroke-linecap:round; stroke-linejoin:round; stroke-width:2; stroke-opacity:0.1; fill:none" points="219.866,1244.77 2352.76,1244.77 "/>
<polyline clip-path="url(#clip582)" style="stroke:#000000; stroke-linecap:round; stroke-linejoin:round; stroke-width:2; stroke-opacity:0.1; fill:none" points="219.866,1054.74 2352.76,1054.74 "/>
<polyline clip-path="url(#clip582)" style="stroke:#000000; stroke-linecap:round; stroke-linejoin:round; stroke-width:2; stroke-opacity:0.1; fill:none" points="219.866,864.713 2352.76,864.713 "/>
<polyline clip-path="url(#clip582)" style="stroke:#000000; stroke-linecap:round; stroke-linejoin:round; stroke-width:2; stroke-opacity:0.1; fill:none" points="219.866,674.683 2352.76,674.683 "/>
<polyline clip-path="url(#clip582)" style="stroke:#000000; stroke-linecap:round; stroke-linejoin:round; stroke-width:2; stroke-opacity:0.1; fill:none" points="219.866,484.653 2352.76,484.653 "/>
<polyline clip-path="url(#clip582)" style="stroke:#000000; stroke-linecap:round; stroke-linejoin:round; stroke-width:2; stroke-opacity:0.1; fill:none" points="219.866,294.623 2352.76,294.623 "/>
<polyline clip-path="url(#clip580)" style="stroke:#000000; stroke-linecap:round; stroke-linejoin:round; stroke-width:4; stroke-opacity:1; fill:none" points="219.866,1423.18 219.866,123.472 "/>
<polyline clip-path="url(#clip580)" style="stroke:#000000; stroke-linecap:round; stroke-linejoin:round; stroke-width:4; stroke-opacity:1; fill:none" points="219.866,1244.77 238.764,1244.77 "/>
<polyline clip-path="url(#clip580)" style="stroke:#000000; stroke-linecap:round; stroke-linejoin:round; stroke-width:4; stroke-opacity:1; fill:none" points="219.866,1054.74 238.764,1054.74 "/>
<polyline clip-path="url(#clip580)" style="stroke:#000000; stroke-linecap:round; stroke-linejoin:round; stroke-width:4; stroke-opacity:1; fill:none" points="219.866,864.713 238.764,864.713 "/>
<polyline clip-path="url(#clip580)" style="stroke:#000000; stroke-linecap:round; stroke-linejoin:round; stroke-width:4; stroke-opacity:1; fill:none" points="219.866,674.683 238.764,674.683 "/>
<polyline clip-path="url(#clip580)" style="stroke:#000000; stroke-linecap:round; stroke-linejoin:round; stroke-width:4; stroke-opacity:1; fill:none" points="219.866,484.653 238.764,484.653 "/>
<polyline clip-path="url(#clip580)" style="stroke:#000000; stroke-linecap:round; stroke-linejoin:round; stroke-width:4; stroke-opacity:1; fill:none" points="219.866,294.623 238.764,294.623 "/>
<path clip-path="url(#clip580)" d="M127.917 1230.57 Q124.306 1230.57 122.478 1234.14 Q120.672 1237.68 120.672 1244.81 Q120.672 1251.91 122.478 1255.48 Q124.306 1259.02 127.917 1259.02 Q131.552 1259.02 133.357 1255.48 Q135.186 1251.91 135.186 1244.81 Q135.186 1237.68 133.357 1234.14 Q131.552 1230.57 127.917 1230.57 M127.917 1226.87 Q133.728 1226.87 136.783 1231.47 Q139.862 1236.06 139.862 1244.81 Q139.862 1253.53 136.783 1258.14 Q133.728 1262.72 127.917 1262.72 Q122.107 1262.72 119.029 1258.14 Q115.973 1253.53 115.973 1244.81 Q115.973 1236.06 119.029 1231.47 Q122.107 1226.87 127.917 1226.87 Z" fill="#000000" fill-rule="nonzero" fill-opacity="1" /><path clip-path="url(#clip580)" d="M148.079 1256.17 L152.964 1256.17 L152.964 1262.05 L148.079 1262.05 L148.079 1256.17 Z" fill="#000000" fill-rule="nonzero" fill-opacity="1" /><path clip-path="url(#clip580)" d="M163.959 1258.12 L171.598 1258.12 L171.598 1231.75 L163.288 1233.42 L163.288 1229.16 L171.552 1227.49 L176.227 1227.49 L176.227 1258.12 L183.866 1258.12 L183.866 1262.05 L163.959 1262.05 L163.959 1258.12 Z" fill="#000000" fill-rule="nonzero" fill-opacity="1" /><path clip-path="url(#clip580)" d="M128.288 1040.54 Q124.677 1040.54 122.848 1044.11 Q121.043 1047.65 121.043 1054.78 Q121.043 1061.88 122.848 1065.45 Q124.677 1068.99 128.288 1068.99 Q131.922 1068.99 133.728 1065.45 Q135.556 1061.88 135.556 1054.78 Q135.556 1047.65 133.728 1044.11 Q131.922 1040.54 128.288 1040.54 M128.288 1036.84 Q134.098 1036.84 137.154 1041.44 Q140.232 1046.03 140.232 1054.78 Q140.232 1063.5 137.154 1068.11 Q134.098 1072.69 128.288 1072.69 Q122.478 1072.69 119.399 1068.11 Q116.343 1063.5 116.343 1054.78 Q116.343 1046.03 119.399 1041.44 Q122.478 1036.84 128.288 1036.84 Z" fill="#000000" fill-rule="nonzero" fill-opacity="1" /><path clip-path="url(#clip580)" d="M148.45 1066.14 L153.334 1066.14 L153.334 1072.02 L148.45 1072.02 L148.45 1066.14 Z" fill="#000000" fill-rule="nonzero" fill-opacity="1" /><path clip-path="url(#clip580)" d="M167.547 1068.09 L183.866 1068.09 L183.866 1072.02 L161.922 1072.02 L161.922 1068.09 Q164.584 1065.33 169.167 1060.7 Q173.774 1056.05 174.954 1054.71 Q177.2 1052.19 178.079 1050.45 Q178.982 1048.69 178.982 1047 Q178.982 1044.25 177.038 1042.51 Q175.116 1040.77 172.014 1040.77 Q169.815 1040.77 167.362 1041.54 Q164.931 1042.3 162.153 1043.85 L162.153 1039.13 Q164.977 1038 167.431 1037.42 Q169.885 1036.84 171.922 1036.84 Q177.292 1036.84 180.487 1039.52 Q183.681 1042.21 183.681 1046.7 Q183.681 1048.83 182.871 1050.75 Q182.084 1052.65 179.977 1055.24 Q179.399 1055.91 176.297 1059.13 Q173.195 1062.32 167.547 1068.09 Z" fill="#000000" fill-rule="nonzero" fill-opacity="1" /><path clip-path="url(#clip580)" d="M127.339 850.512 Q123.728 850.512 121.899 854.077 Q120.093 857.618 120.093 864.748 Q120.093 871.854 121.899 875.419 Q123.728 878.961 127.339 878.961 Q130.973 878.961 132.779 875.419 Q134.607 871.854 134.607 864.748 Q134.607 857.618 132.779 854.077 Q130.973 850.512 127.339 850.512 M127.339 846.808 Q133.149 846.808 136.204 851.415 Q139.283 855.998 139.283 864.748 Q139.283 873.475 136.204 878.081 Q133.149 882.664 127.339 882.664 Q121.529 882.664 118.45 878.081 Q115.394 873.475 115.394 864.748 Q115.394 855.998 118.45 851.415 Q121.529 846.808 127.339 846.808 Z" fill="#000000" fill-rule="nonzero" fill-opacity="1" /><path clip-path="url(#clip580)" d="M147.501 876.114 L152.385 876.114 L152.385 881.993 L147.501 881.993 L147.501 876.114 Z" fill="#000000" fill-rule="nonzero" fill-opacity="1" /><path clip-path="url(#clip580)" d="M176.737 863.359 Q180.093 864.077 181.968 866.345 Q183.866 868.614 183.866 871.947 Q183.866 877.063 180.348 879.864 Q176.829 882.664 170.348 882.664 Q168.172 882.664 165.857 882.225 Q163.565 881.808 161.112 880.952 L161.112 876.438 Q163.056 877.572 165.371 878.151 Q167.686 878.729 170.209 878.729 Q174.607 878.729 176.899 876.993 Q179.214 875.257 179.214 871.947 Q179.214 868.891 177.061 867.178 Q174.931 865.442 171.112 865.442 L167.084 865.442 L167.084 861.6 L171.297 861.6 Q174.746 861.6 176.575 860.234 Q178.403 858.845 178.403 856.253 Q178.403 853.591 176.505 852.179 Q174.63 850.743 171.112 850.743 Q169.19 850.743 166.991 851.16 Q164.792 851.577 162.153 852.456 L162.153 848.29 Q164.815 847.549 167.13 847.179 Q169.468 846.808 171.528 846.808 Q176.852 846.808 179.954 849.239 Q183.056 851.646 183.056 855.766 Q183.056 858.637 181.413 860.628 Q179.769 862.595 176.737 863.359 Z" fill="#000000" fill-rule="nonzero" fill-opacity="1" /><path clip-path="url(#clip580)" d="M126.205 660.482 Q122.593 660.482 120.765 664.047 Q118.959 667.588 118.959 674.718 Q118.959 681.824 120.765 685.389 Q122.593 688.931 126.205 688.931 Q129.839 688.931 131.644 685.389 Q133.473 681.824 133.473 674.718 Q133.473 667.588 131.644 664.047 Q129.839 660.482 126.205 660.482 M126.205 656.778 Q132.015 656.778 135.07 661.385 Q138.149 665.968 138.149 674.718 Q138.149 683.445 135.07 688.051 Q132.015 692.634 126.205 692.634 Q120.394 692.634 117.316 688.051 Q114.26 683.445 114.26 674.718 Q114.26 665.968 117.316 661.385 Q120.394 656.778 126.205 656.778 Z" fill="#000000" fill-rule="nonzero" fill-opacity="1" /><path clip-path="url(#clip580)" d="M146.366 686.084 L151.251 686.084 L151.251 691.963 L146.366 691.963 L146.366 686.084 Z" fill="#000000" fill-rule="nonzero" fill-opacity="1" /><path clip-path="url(#clip580)" d="M174.283 661.477 L162.477 679.926 L174.283 679.926 L174.283 661.477 M173.056 657.403 L178.936 657.403 L178.936 679.926 L183.866 679.926 L183.866 683.815 L178.936 683.815 L178.936 691.963 L174.283 691.963 L174.283 683.815 L158.681 683.815 L158.681 679.301 L173.056 657.403 Z" fill="#000000" fill-rule="nonzero" fill-opacity="1" /><path clip-path="url(#clip580)" d="M127.686 470.452 Q124.075 470.452 122.246 474.017 Q120.441 477.558 120.441 484.688 Q120.441 491.794 122.246 495.359 Q124.075 498.901 127.686 498.901 Q131.32 498.901 133.126 495.359 Q134.954 491.794 134.954 484.688 Q134.954 477.558 133.126 474.017 Q131.32 470.452 127.686 470.452 M127.686 466.748 Q133.496 466.748 136.552 471.355 Q139.63 475.938 139.63 484.688 Q139.63 493.415 136.552 498.021 Q133.496 502.604 127.686 502.604 Q121.876 502.604 118.797 498.021 Q115.742 493.415 115.742 484.688 Q115.742 475.938 118.797 471.355 Q121.876 466.748 127.686 466.748 Z" fill="#000000" fill-rule="nonzero" fill-opacity="1" /><path clip-path="url(#clip580)" d="M147.848 496.053 L152.732 496.053 L152.732 501.933 L147.848 501.933 L147.848 496.053 Z" fill="#000000" fill-rule="nonzero" fill-opacity="1" /><path clip-path="url(#clip580)" d="M162.964 467.373 L181.32 467.373 L181.32 471.308 L167.246 471.308 L167.246 479.78 Q168.264 479.433 169.283 479.271 Q170.302 479.086 171.32 479.086 Q177.107 479.086 180.487 482.257 Q183.866 485.429 183.866 490.845 Q183.866 496.424 180.394 499.526 Q176.922 502.604 170.602 502.604 Q168.427 502.604 166.158 502.234 Q163.913 501.864 161.505 501.123 L161.505 496.424 Q163.589 497.558 165.811 498.114 Q168.033 498.669 170.51 498.669 Q174.514 498.669 176.852 496.563 Q179.19 494.456 179.19 490.845 Q179.19 487.234 176.852 485.128 Q174.514 483.021 170.51 483.021 Q168.635 483.021 166.76 483.438 Q164.908 483.854 162.964 484.734 L162.964 467.373 Z" fill="#000000" fill-rule="nonzero" fill-opacity="1" /><path clip-path="url(#clip580)" d="M126.529 280.422 Q122.918 280.422 121.089 283.986 Q119.283 287.528 119.283 294.658 Q119.283 301.764 121.089 305.329 Q122.918 308.871 126.529 308.871 Q130.163 308.871 131.968 305.329 Q133.797 301.764 133.797 294.658 Q133.797 287.528 131.968 283.986 Q130.163 280.422 126.529 280.422 M126.529 276.718 Q132.339 276.718 135.394 281.324 Q138.473 285.908 138.473 294.658 Q138.473 303.384 135.394 307.991 Q132.339 312.574 126.529 312.574 Q120.718 312.574 117.64 307.991 Q114.584 303.384 114.584 294.658 Q114.584 285.908 117.64 281.324 Q120.718 276.718 126.529 276.718 Z" fill="#000000" fill-rule="nonzero" fill-opacity="1" /><path clip-path="url(#clip580)" d="M146.691 306.023 L151.575 306.023 L151.575 311.903 L146.691 311.903 L146.691 306.023 Z" fill="#000000" fill-rule="nonzero" fill-opacity="1" /><path clip-path="url(#clip580)" d="M172.339 292.76 Q169.19 292.76 167.339 294.912 Q165.51 297.065 165.51 300.815 Q165.51 304.542 167.339 306.718 Q169.19 308.871 172.339 308.871 Q175.487 308.871 177.315 306.718 Q179.167 304.542 179.167 300.815 Q179.167 297.065 177.315 294.912 Q175.487 292.76 172.339 292.76 M181.621 278.107 L181.621 282.366 Q179.862 281.533 178.056 281.093 Q176.274 280.653 174.514 280.653 Q169.885 280.653 167.431 283.778 Q165.001 286.903 164.653 293.223 Q166.019 291.209 168.079 290.144 Q170.139 289.056 172.616 289.056 Q177.825 289.056 180.834 292.227 Q183.866 295.375 183.866 300.815 Q183.866 306.139 180.718 309.357 Q177.57 312.574 172.339 312.574 Q166.343 312.574 163.172 307.991 Q160.001 303.384 160.001 294.658 Q160.001 286.463 163.89 281.602 Q167.778 276.718 174.329 276.718 Q176.089 276.718 177.871 277.065 Q179.676 277.412 181.621 278.107 Z" fill="#000000" fill-rule="nonzero" fill-opacity="1" /><path clip-path="url(#clip580)" d="M16.4842 957.947 L16.4842 948.367 L48.8219 936.24 L16.4842 924.05 L16.4842 914.47 L64.0042 914.47 L64.0042 920.74 L22.277 920.74 L54.8694 932.994 L54.8694 939.455 L22.277 951.709 L64.0042 951.709 L64.0042 957.947 L16.4842 957.947 Z" fill="#000000" fill-rule="nonzero" fill-opacity="1" /><path clip-path="url(#clip580)" d="M44.7161 871.469 L47.5806 871.469 L47.5806 898.396 Q53.6281 898.014 56.8109 894.768 Q59.9619 891.489 59.9619 885.665 Q59.9619 882.291 59.1344 879.14 Q58.3069 875.957 56.6518 872.838 L62.1899 872.838 Q63.5267 875.989 64.227 879.299 Q64.9272 882.609 64.9272 886.015 Q64.9272 894.545 59.9619 899.542 Q54.9967 904.507 46.5303 904.507 Q37.7774 904.507 32.6531 899.797 Q27.4968 895.054 27.4968 887.033 Q27.4968 879.84 32.1438 875.671 Q36.7589 871.469 44.7161 871.469 M42.9973 877.326 Q38.1912 877.389 35.3266 880.031 Q32.4621 882.641 32.4621 886.97 Q32.4621 891.871 35.2312 894.831 Q38.0002 897.76 43.0292 898.205 L42.9973 877.326 Z" fill="#000000" fill-rule="nonzero" fill-opacity="1" /><path clip-path="url(#clip580)" d="M46.0847 845.656 Q46.0847 852.754 47.7079 855.491 Q49.3312 858.229 53.2461 858.229 Q56.3653 858.229 58.2114 856.192 Q60.0256 854.123 60.0256 850.59 Q60.0256 845.72 56.5881 842.792 Q53.1188 839.832 47.3897 839.832 L46.0847 839.832 L46.0847 845.656 M43.6657 833.975 L64.0042 833.975 L64.0042 839.832 L58.5933 839.832 Q61.8398 841.837 63.3994 844.829 Q64.9272 847.821 64.9272 852.149 Q64.9272 857.624 61.8716 860.87 Q58.7843 864.085 53.6281 864.085 Q47.6125 864.085 44.5569 860.075 Q41.5014 856.032 41.5014 848.043 L41.5014 839.832 L40.9285 839.832 Q36.8862 839.832 34.6901 842.505 Q32.4621 845.147 32.4621 849.953 Q32.4621 853.009 33.1941 855.905 Q33.9262 858.802 35.3903 861.475 L29.9795 861.475 Q28.7381 858.26 28.1334 855.237 Q27.4968 852.213 27.4968 849.348 Q27.4968 841.614 31.5072 837.795 Q35.5176 833.975 43.6657 833.975 Z" fill="#000000" fill-rule="nonzero" fill-opacity="1" /><path clip-path="url(#clip580)" d="M42.4881 792.28 L64.0042 792.28 L64.0042 798.136 L42.679 798.136 Q37.6183 798.136 35.1038 800.11 Q32.5894 802.083 32.5894 806.03 Q32.5894 810.772 35.6131 813.51 Q38.6368 816.247 43.8567 816.247 L64.0042 816.247 L64.0042 822.135 L28.3562 822.135 L28.3562 816.247 L33.8944 816.247 Q30.6797 814.146 29.0883 811.313 Q27.4968 808.449 27.4968 804.725 Q27.4968 798.582 31.3163 795.431 Q35.1038 792.28 42.4881 792.28 Z" fill="#000000" fill-rule="nonzero" fill-opacity="1" /><path clip-path="url(#clip580)" d="M16.4842 759.624 L16.4842 753.194 L64.0042 753.194 L64.0042 759.624 L16.4842 759.624 Z" fill="#000000" fill-rule="nonzero" fill-opacity="1" /><path clip-path="url(#clip580)" d="M42.4881 711.022 L64.0042 711.022 L64.0042 716.878 L42.679 716.878 Q37.6183 716.878 35.1038 718.851 Q32.5894 720.825 32.5894 724.772 Q32.5894 729.514 35.6131 732.251 Q38.6368 734.989 43.8567 734.989 L64.0042 734.989 L64.0042 740.877 L28.3562 740.877 L28.3562 734.989 L33.8944 734.989 Q30.6797 732.888 29.0883 730.055 Q27.4968 727.191 27.4968 723.467 Q27.4968 717.324 31.3163 714.173 Q35.1038 711.022 42.4881 711.022 Z" fill="#000000" fill-rule="nonzero" fill-opacity="1" /><path clip-path="url(#clip580)" d="M33.7671 675.883 L14.479 675.883 L14.479 670.026 L64.0042 670.026 L64.0042 675.883 L58.657 675.883 Q61.8398 677.729 63.3994 680.562 Q64.9272 683.363 64.9272 687.309 Q64.9272 693.771 59.771 697.845 Q54.6147 701.887 46.212 701.887 Q37.8093 701.887 32.6531 697.845 Q27.4968 693.771 27.4968 687.309 Q27.4968 683.363 29.0564 680.562 Q30.5842 677.729 33.7671 675.883 M46.212 695.839 Q52.6732 695.839 56.3653 693.198 Q60.0256 690.524 60.0256 685.877 Q60.0256 681.23 56.3653 678.557 Q52.6732 675.883 46.212 675.883 Q39.7508 675.883 36.0905 678.557 Q32.3984 681.23 32.3984 685.877 Q32.3984 690.524 36.0905 693.198 Q39.7508 695.839 46.212 695.839 Z" fill="#000000" fill-rule="nonzero" fill-opacity="1" /><path clip-path="url(#clip580)" d="M44.7161 627.472 L47.5806 627.472 L47.5806 654.399 Q53.6281 654.017 56.8109 650.77 Q59.9619 647.492 59.9619 641.667 Q59.9619 638.293 59.1344 635.142 Q58.3069 631.96 56.6518 628.84 L62.1899 628.84 Q63.5267 631.991 64.227 635.302 Q64.9272 638.612 64.9272 642.017 Q64.9272 650.547 59.9619 655.544 Q54.9967 660.51 46.5303 660.51 Q37.7774 660.51 32.6531 655.799 Q27.4968 651.057 27.4968 643.036 Q27.4968 635.843 32.1438 631.673 Q36.7589 627.472 44.7161 627.472 M42.9973 633.328 Q38.1912 633.392 35.3266 636.034 Q32.4621 638.644 32.4621 642.972 Q32.4621 647.874 35.2312 650.834 Q38.0002 653.762 43.0292 654.208 L42.9973 633.328 Z" fill="#000000" fill-rule="nonzero" fill-opacity="1" /><path clip-path="url(#clip580)" d="M28.3562 589.373 L45.7028 602.264 L64.0042 588.705 L64.0042 595.611 L49.9996 605.987 L64.0042 616.364 L64.0042 623.27 L45.3526 609.425 L28.3562 622.093 L28.3562 615.186 L41.0558 605.733 L28.3562 596.28 L28.3562 589.373 Z" fill="#000000" fill-rule="nonzero" fill-opacity="1" /><path clip-path="url(#clip580)" d="M1117 18.8205 L1117 41.5461 L1127.29 41.5461 Q1133 41.5461 1136.12 38.5889 Q1139.24 35.6318 1139.24 30.163 Q1139.24 24.7348 1136.12 21.7777 Q1133 18.8205 1127.29 18.8205 L1117 18.8205 M1108.82 12.096 L1127.29 12.096 Q1137.46 12.096 1142.65 16.714 Q1147.87 21.2916 1147.87 30.163 Q1147.87 39.1155 1142.65 43.6931 Q1137.46 48.2706 1127.29 48.2706 L1117 48.2706 L1117 72.576 L1108.82 72.576 L1108.82 12.096 Z" fill="#000000" fill-rule="nonzero" fill-opacity="1" /><path clip-path="url(#clip580)" d="M1183.36 34.1734 Q1182.1 33.4443 1180.6 33.1202 Q1179.14 32.7556 1177.36 32.7556 Q1171.04 32.7556 1167.64 36.8875 Q1164.28 40.9789 1164.28 48.6757 L1164.28 72.576 L1156.78 72.576 L1156.78 27.2059 L1164.28 27.2059 L1164.28 34.2544 Q1166.63 30.1225 1170.39 28.1376 Q1174.16 26.1121 1179.55 26.1121 Q1180.32 26.1121 1181.25 26.2337 Q1182.18 26.3147 1183.32 26.5172 L1183.36 34.1734 Z" fill="#000000" fill-rule="nonzero" fill-opacity="1" /><path clip-path="url(#clip580)" d="M1228.16 48.0275 L1228.16 51.6733 L1193.89 51.6733 Q1194.38 59.3701 1198.51 63.421 Q1202.68 67.4314 1210.09 67.4314 Q1214.39 67.4314 1218.4 66.3781 Q1222.45 65.3249 1226.42 63.2184 L1226.42 70.267 Q1222.41 71.9684 1218.2 72.8596 Q1213.98 73.7508 1209.65 73.7508 Q1198.79 73.7508 1192.43 67.4314 Q1186.11 61.1119 1186.11 50.3365 Q1186.11 39.1965 1192.11 32.6746 Q1198.14 26.1121 1208.35 26.1121 Q1217.51 26.1121 1222.81 32.0264 Q1228.16 37.9003 1228.16 48.0275 M1220.71 45.84 Q1220.63 39.7232 1217.26 36.0774 Q1213.94 32.4315 1208.43 32.4315 Q1202.19 32.4315 1198.43 35.9558 Q1194.7 39.4801 1194.13 45.8805 L1220.71 45.84 Z" fill="#000000" fill-rule="nonzero" fill-opacity="1" /><path clip-path="url(#clip580)" d="M1273.04 28.9478 L1273.04 35.9153 Q1269.88 34.1734 1266.68 33.3227 Q1263.52 32.4315 1260.28 32.4315 Q1253.03 32.4315 1249.02 37.0496 Q1245.01 41.6271 1245.01 49.9314 Q1245.01 58.2358 1249.02 62.8538 Q1253.03 67.4314 1260.28 67.4314 Q1263.52 67.4314 1266.68 66.5807 Q1269.88 65.6895 1273.04 63.9476 L1273.04 70.8341 Q1269.93 72.2924 1266.56 73.0216 Q1263.24 73.7508 1259.47 73.7508 Q1249.23 73.7508 1243.19 67.3098 Q1237.15 60.8689 1237.15 49.9314 Q1237.15 38.832 1243.23 32.472 Q1249.35 26.1121 1259.96 26.1121 Q1263.4 26.1121 1266.68 26.8413 Q1269.97 27.5299 1273.04 28.9478 Z" fill="#000000" fill-rule="nonzero" fill-opacity="1" /><path clip-path="url(#clip580)" d="M1286.01 27.2059 L1293.46 27.2059 L1293.46 72.576 L1286.01 72.576 L1286.01 27.2059 M1286.01 9.54393 L1293.46 9.54393 L1293.46 18.9825 L1286.01 18.9825 L1286.01 9.54393 Z" fill="#000000" fill-rule="nonzero" fill-opacity="1" /><path clip-path="url(#clip580)" d="M1337.98 28.5427 L1337.98 35.5912 Q1334.82 33.9709 1331.42 33.1607 Q1328.02 32.3505 1324.37 32.3505 Q1318.82 32.3505 1316.02 34.0519 Q1313.27 35.7533 1313.27 39.156 Q1313.27 41.7486 1315.25 43.2475 Q1317.24 44.7058 1323.24 46.0426 L1325.79 46.6097 Q1333.73 48.3111 1337.05 51.4303 Q1340.41 54.509 1340.41 60.0587 Q1340.41 66.3781 1335.39 70.0644 Q1330.41 73.7508 1321.66 73.7508 Q1318.01 73.7508 1314.04 73.0216 Q1310.11 72.3329 1305.74 70.9151 L1305.74 63.2184 Q1309.87 65.3654 1313.88 66.4591 Q1317.89 67.5124 1321.82 67.5124 Q1327.08 67.5124 1329.92 65.73 Q1332.75 63.9071 1332.75 60.6258 Q1332.75 57.5877 1330.69 55.9673 Q1328.66 54.3469 1321.74 52.8481 L1319.14 52.2405 Q1312.22 50.7821 1309.14 47.7845 Q1306.06 44.7463 1306.06 39.4801 Q1306.06 33.0797 1310.6 29.5959 Q1315.13 26.1121 1323.48 26.1121 Q1327.61 26.1121 1331.26 26.7198 Q1334.9 27.3274 1337.98 28.5427 Z" fill="#000000" fill-rule="nonzero" fill-opacity="1" /><path clip-path="url(#clip580)" d="M1352.28 27.2059 L1359.73 27.2059 L1359.73 72.576 L1352.28 72.576 L1352.28 27.2059 M1352.28 9.54393 L1359.73 9.54393 L1359.73 18.9825 L1352.28 18.9825 L1352.28 9.54393 Z" fill="#000000" fill-rule="nonzero" fill-opacity="1" /><path clip-path="url(#clip580)" d="M1392.91 32.4315 Q1386.92 32.4315 1383.43 37.1306 Q1379.95 41.7891 1379.95 49.9314 Q1379.95 58.0738 1383.39 62.7728 Q1386.87 67.4314 1392.91 67.4314 Q1398.87 67.4314 1402.35 62.7323 Q1405.83 58.0333 1405.83 49.9314 Q1405.83 41.8701 1402.35 37.1711 Q1398.87 32.4315 1392.91 32.4315 M1392.91 26.1121 Q1402.63 26.1121 1408.18 32.4315 Q1413.73 38.7509 1413.73 49.9314 Q1413.73 61.0714 1408.18 67.4314 Q1402.63 73.7508 1392.91 73.7508 Q1383.15 73.7508 1377.6 67.4314 Q1372.09 61.0714 1372.09 49.9314 Q1372.09 38.7509 1377.6 32.4315 Q1383.15 26.1121 1392.91 26.1121 Z" fill="#000000" fill-rule="nonzero" fill-opacity="1" /><path clip-path="url(#clip580)" d="M1463.8 45.1919 L1463.8 72.576 L1456.35 72.576 L1456.35 45.4349 Q1456.35 38.994 1453.84 35.7938 Q1451.32 32.5936 1446.3 32.5936 Q1440.27 32.5936 1436.78 36.4419 Q1433.3 40.2903 1433.3 46.9338 L1433.3 72.576 L1425.8 72.576 L1425.8 27.2059 L1433.3 27.2059 L1433.3 34.2544 Q1435.97 30.163 1439.58 28.1376 Q1443.22 26.1121 1447.96 26.1121 Q1455.78 26.1121 1459.79 30.9732 Q1463.8 35.7938 1463.8 45.1919 Z" fill="#000000" fill-rule="nonzero" fill-opacity="1" /><polyline clip-path="url(#clip582)" style="stroke:#50ad9f; stroke-linecap:round; stroke-linejoin:round; stroke-width:8; stroke-opacity:1; fill:none" points="280.231,886.377 293.645,885.639 414.375,869.407 1621.67,1000.23 2292.39,1076.18 "/>
<circle clip-path="url(#clip582)" cx="280.231" cy="886.377" r="25.2" fill="#50ad9f" fill-rule="evenodd" fill-opacity="1" stroke="#000000" stroke-opacity="1" stroke-width="3.2"/>
<circle clip-path="url(#clip582)" cx="293.645" cy="885.639" r="25.2" fill="#50ad9f" fill-rule="evenodd" fill-opacity="1" stroke="#000000" stroke-opacity="1" stroke-width="3.2"/>
<circle clip-path="url(#clip582)" cx="414.375" cy="869.407" r="25.2" fill="#50ad9f" fill-rule="evenodd" fill-opacity="1" stroke="#000000" stroke-opacity="1" stroke-width="3.2"/>
<circle clip-path="url(#clip582)" cx="1621.67" cy="1000.23" r="25.2" fill="#50ad9f" fill-rule="evenodd" fill-opacity="1" stroke="#000000" stroke-opacity="1" stroke-width="3.2"/>
<circle clip-path="url(#clip582)" cx="2292.39" cy="1076.18" r="25.2" fill="#50ad9f" fill-rule="evenodd" fill-opacity="1" stroke="#000000" stroke-opacity="1" stroke-width="3.2"/>
<polyline clip-path="url(#clip582)" style="stroke:#0000a2; stroke-linecap:round; stroke-linejoin:round; stroke-width:8; stroke-opacity:1; fill:none" points="280.231,1051.54 293.645,1051.37 414.375,1058.12 1621.67,1271.28 2292.39,1386.4 "/>
<path clip-path="url(#clip582)" d="M260.231 1031.54 L260.231 1071.54 L300.231 1071.54 L300.231 1031.54 L260.231 1031.54 Z" fill="#0000a2" fill-rule="evenodd" fill-opacity="1" stroke="#000000" stroke-opacity="1" stroke-width="3.2"/>
<path clip-path="url(#clip582)" d="M273.645 1031.37 L273.645 1071.37 L313.645 1071.37 L313.645 1031.37 L273.645 1031.37 Z" fill="#0000a2" fill-rule="evenodd" fill-opacity="1" stroke="#000000" stroke-opacity="1" stroke-width="3.2"/>
<path clip-path="url(#clip582)" d="M394.375 1038.12 L394.375 1078.12 L434.375 1078.12 L434.375 1038.12 L394.375 1038.12 Z" fill="#0000a2" fill-rule="evenodd" fill-opacity="1" stroke="#000000" stroke-opacity="1" stroke-width="3.2"/>
<path clip-path="url(#clip582)" d="M1601.67 1251.28 L1601.67 1291.28 L1641.67 1291.28 L1641.67 1251.28 L1601.67 1251.28 Z" fill="#0000a2" fill-rule="evenodd" fill-opacity="1" stroke="#000000" stroke-opacity="1" stroke-width="3.2"/>
<path clip-path="url(#clip582)" d="M2272.39 1366.4 L2272.39 1406.4 L2312.39 1406.4 L2312.39 1366.4 L2272.39 1366.4 Z" fill="#0000a2" fill-rule="evenodd" fill-opacity="1" stroke="#000000" stroke-opacity="1" stroke-width="3.2"/>
<polyline clip-path="url(#clip582)" style="stroke:#bc272d; stroke-linecap:round; stroke-linejoin:round; stroke-width:8; stroke-opacity:1; fill:none" points="280.231,160.953 293.645,160.256 414.375,161.703 1621.67,203.213 2292.39,225.986 "/>
<path clip-path="url(#clip582)" d="M280.231 132.953 L273.651 151.881 L253.603 152.301 L269.591 164.425 L263.767 183.605 L280.231 172.153 L296.695 183.605 L290.871 164.425 L306.859 152.301 L286.811 151.881 L280.231 132.953 Z" fill="#bc272d" fill-rule="evenodd" fill-opacity="1" stroke="#000000" stroke-opacity="1" stroke-width="3.2"/>
<path clip-path="url(#clip582)" d="M293.645 132.256 L287.065 151.184 L267.017 151.604 L283.005 163.728 L277.181 182.908 L293.645 171.456 L310.109 182.908 L304.285 163.728 L320.273 151.604 L300.225 151.184 L293.645 132.256 Z" fill="#bc272d" fill-rule="evenodd" fill-opacity="1" stroke="#000000" stroke-opacity="1" stroke-width="3.2"/>
<path clip-path="url(#clip582)" d="M414.375 133.703 L407.795 152.631 L387.747 153.051 L403.735 165.175 L397.911 184.355 L414.375 172.903 L430.839 184.355 L425.015 165.175 L441.003 153.051 L420.955 152.631 L414.375 133.703 Z" fill="#bc272d" fill-rule="evenodd" fill-opacity="1" stroke="#000000" stroke-opacity="1" stroke-width="3.2"/>
<path clip-path="url(#clip582)" d="M1621.67 175.213 L1615.09 194.141 L1595.04 194.561 L1611.03 206.685 L1605.21 225.865 L1621.67 214.413 L1638.14 225.865 L1632.31 206.685 L1648.3 194.561 L1628.25 194.141 L1621.67 175.213 Z" fill="#bc272d" fill-rule="evenodd" fill-opacity="1" stroke="#000000" stroke-opacity="1" stroke-width="3.2"/>
<path clip-path="url(#clip582)" d="M2292.39 197.986 L2285.81 216.914 L2265.76 217.334 L2281.75 229.458 L2275.93 248.638 L2292.39 237.186 L2308.86 248.638 L2303.03 229.458 L2319.02 217.334 L2298.97 216.914 L2292.39 197.986 Z" fill="#bc272d" fill-rule="evenodd" fill-opacity="1" stroke="#000000" stroke-opacity="1" stroke-width="3.2"/>
<polyline clip-path="url(#clip582)" style="stroke:#e9c716; stroke-linecap:round; stroke-linejoin:round; stroke-width:8; stroke-opacity:1; fill:none" points="280.231,953.298 293.645,952.489 414.375,952.7 1621.67,967.533 2292.39,974.856 "/>
<path clip-path="url(#clip582)" d="M280.231 925.298 L252.231 981.298 L308.231 981.298 L280.231 925.298 Z" fill="#e9c716" fill-rule="evenodd" fill-opacity="1" stroke="#000000" stroke-opacity="1" stroke-width="3.2"/>
<path clip-path="url(#clip582)" d="M293.645 924.489 L265.645 980.489 L321.645 980.489 L293.645 924.489 Z" fill="#e9c716" fill-rule="evenodd" fill-opacity="1" stroke="#000000" stroke-opacity="1" stroke-width="3.2"/>
<path clip-path="url(#clip582)" d="M414.375 924.7 L386.375 980.7 L442.375 980.7 L414.375 924.7 Z" fill="#e9c716" fill-rule="evenodd" fill-opacity="1" stroke="#000000" stroke-opacity="1" stroke-width="3.2"/>
<path clip-path="url(#clip582)" d="M1621.67 939.533 L1593.67 995.533 L1649.67 995.533 L1621.67 939.533 Z" fill="#e9c716" fill-rule="evenodd" fill-opacity="1" stroke="#000000" stroke-opacity="1" stroke-width="3.2"/>
<path clip-path="url(#clip582)" d="M2292.39 946.856 L2264.39 1002.86 L2320.39 1002.86 L2292.39 946.856 Z" fill="#e9c716" fill-rule="evenodd" fill-opacity="1" stroke="#000000" stroke-opacity="1" stroke-width="3.2"/>
<path clip-path="url(#clip580)" d="M1956.15 920.33 L2281.66 920.33 L2281.66 661.13 L1956.15 661.13  Z" fill="#ffffff" fill-rule="evenodd" fill-opacity="1"/>
<polyline clip-path="url(#clip580)" style="stroke:#000000; stroke-linecap:round; stroke-linejoin:round; stroke-width:4; stroke-opacity:1; fill:none" points="1956.15,920.33 2281.66,920.33 2281.66,661.13 1956.15,661.13 1956.15,920.33 "/>
<polyline clip-path="url(#clip580)" style="stroke:#50ad9f; stroke-linecap:round; stroke-linejoin:round; stroke-width:8; stroke-opacity:1; fill:none" points="1979.85,712.97 2122.04,712.97 "/>
<circle clip-path="url(#clip580)" cx="2050.94" cy="712.97" r="19.749" fill="#50ad9f" fill-rule="evenodd" fill-opacity="1" stroke="#000000" stroke-opacity="1" stroke-width="2.73067"/>
<path clip-path="url(#clip580)" d="M2145.74 695.69 L2165.6 695.69 L2165.6 699.625 L2150.42 699.625 L2150.42 709.81 L2164.12 709.81 L2164.12 713.745 L2150.42 713.745 L2150.42 730.25 L2145.74 730.25 L2145.74 695.69 Z" fill="#000000" fill-rule="nonzero" fill-opacity="1" /><path clip-path="url(#clip580)" d="M2169.37 704.324 L2173.63 704.324 L2173.63 730.25 L2169.37 730.25 L2169.37 704.324 M2169.37 694.231 L2173.63 694.231 L2173.63 699.625 L2169.37 699.625 L2169.37 694.231 Z" fill="#000000" fill-rule="nonzero" fill-opacity="1" /><path clip-path="url(#clip580)" d="M2186.76 696.963 L2186.76 704.324 L2195.53 704.324 L2195.53 707.634 L2186.76 707.634 L2186.76 721.708 Q2186.76 724.879 2187.61 725.782 Q2188.49 726.685 2191.16 726.685 L2195.53 726.685 L2195.53 730.25 L2191.16 730.25 Q2186.23 730.25 2184.35 728.421 Q2182.48 726.569 2182.48 721.708 L2182.48 707.634 L2179.35 707.634 L2179.35 704.324 L2182.48 704.324 L2182.48 696.963 L2186.76 696.963 Z" fill="#000000" fill-rule="nonzero" fill-opacity="1" /><polyline clip-path="url(#clip580)" style="stroke:#0000a2; stroke-linecap:round; stroke-linejoin:round; stroke-width:8; stroke-opacity:1; fill:none" points="1979.85,764.81 2122.04,764.81 "/>
<path clip-path="url(#clip580)" d="M2029 742.866 L2029 786.753 L2072.89 786.753 L2072.89 742.866 L2029 742.866 Z" fill="#0000a2" fill-rule="evenodd" fill-opacity="1" stroke="#000000" stroke-opacity="1" stroke-width="3.72364"/>
<path clip-path="url(#clip580)" d="M2167.98 748.664 L2167.98 753.224 Q2165.32 751.951 2162.96 751.326 Q2160.6 750.701 2158.4 750.701 Q2154.58 750.701 2152.5 752.182 Q2150.44 753.664 2150.44 756.395 Q2150.44 758.687 2151.8 759.867 Q2153.19 761.025 2157.04 761.742 L2159.86 762.321 Q2165.09 763.317 2167.57 765.84 Q2170.07 768.34 2170.07 772.553 Q2170.07 777.576 2166.69 780.168 Q2163.33 782.761 2156.83 782.761 Q2154.37 782.761 2151.6 782.205 Q2148.84 781.65 2145.88 780.562 L2145.88 775.747 Q2148.73 777.344 2151.46 778.154 Q2154.19 778.965 2156.83 778.965 Q2160.83 778.965 2163.01 777.391 Q2165.18 775.816 2165.18 772.9 Q2165.18 770.354 2163.61 768.918 Q2162.06 767.483 2158.49 766.766 L2155.65 766.21 Q2150.42 765.168 2148.08 762.946 Q2145.74 760.724 2145.74 756.766 Q2145.74 752.182 2148.96 749.543 Q2152.2 746.905 2157.87 746.905 Q2160.3 746.905 2162.82 747.344 Q2165.35 747.784 2167.98 748.664 Z" fill="#000000" fill-rule="nonzero" fill-opacity="1" /><path clip-path="url(#clip580)" d="M2187.96 784.497 Q2186.16 789.127 2184.44 790.539 Q2182.73 791.951 2179.86 791.951 L2176.46 791.951 L2176.46 788.386 L2178.96 788.386 Q2180.72 788.386 2181.69 787.553 Q2182.66 786.719 2183.84 783.617 L2184.6 781.673 L2174.12 756.164 L2178.63 756.164 L2186.73 776.441 L2194.84 756.164 L2199.35 756.164 L2187.96 784.497 Z" fill="#000000" fill-rule="nonzero" fill-opacity="1" /><path clip-path="url(#clip580)" d="M2225.41 761.141 Q2227.01 758.27 2229.23 756.905 Q2231.46 755.539 2234.47 755.539 Q2238.52 755.539 2240.72 758.386 Q2242.91 761.21 2242.91 766.442 L2242.91 782.09 L2238.63 782.09 L2238.63 766.58 Q2238.63 762.854 2237.31 761.048 Q2235.99 759.242 2233.29 759.242 Q2229.97 759.242 2228.05 761.442 Q2226.13 763.641 2226.13 767.437 L2226.13 782.09 L2221.85 782.09 L2221.85 766.58 Q2221.85 762.83 2220.53 761.048 Q2219.21 759.242 2216.46 759.242 Q2213.19 759.242 2211.27 761.465 Q2209.35 763.664 2209.35 767.437 L2209.35 782.09 L2205.07 782.09 L2205.07 756.164 L2209.35 756.164 L2209.35 760.192 Q2210.81 757.807 2212.85 756.673 Q2214.88 755.539 2217.68 755.539 Q2220.51 755.539 2222.47 756.974 Q2224.47 758.409 2225.41 761.141 Z" fill="#000000" fill-rule="nonzero" fill-opacity="1" /><polyline clip-path="url(#clip580)" style="stroke:#bc272d; stroke-linecap:round; stroke-linejoin:round; stroke-width:8; stroke-opacity:1; fill:none" points="1979.85,816.65 2122.04,816.65 "/>
<path clip-path="url(#clip580)" d="M2050.94 794.706 L2045.79 809.54 L2030.08 809.869 L2042.61 819.371 L2038.04 834.402 L2050.94 825.427 L2063.85 834.402 L2059.28 819.371 L2071.81 809.869 L2056.1 809.54 L2050.94 794.706 Z" fill="#bc272d" fill-rule="evenodd" fill-opacity="1" stroke="#000000" stroke-opacity="1" stroke-width="2.73067"/>
<path clip-path="url(#clip580)" d="M2145.74 799.37 L2165.6 799.37 L2165.6 803.305 L2150.42 803.305 L2150.42 813.49 L2164.12 813.49 L2164.12 817.425 L2150.42 817.425 L2150.42 833.93 L2145.74 833.93 L2145.74 799.37 Z" fill="#000000" fill-rule="nonzero" fill-opacity="1" /><path clip-path="url(#clip580)" d="M2172.82 797.911 L2177.08 797.911 L2177.08 833.93 L2172.82 833.93 L2172.82 797.911 Z" fill="#000000" fill-rule="nonzero" fill-opacity="1" /><path clip-path="url(#clip580)" d="M2197.78 820.897 Q2192.61 820.897 2190.62 822.078 Q2188.63 823.258 2188.63 826.106 Q2188.63 828.374 2190.11 829.717 Q2191.62 831.036 2194.19 831.036 Q2197.73 831.036 2199.86 828.536 Q2202.01 826.013 2202.01 821.846 L2202.01 820.897 L2197.78 820.897 M2206.27 819.138 L2206.27 833.93 L2202.01 833.93 L2202.01 829.994 Q2200.55 832.356 2198.38 833.49 Q2196.2 834.601 2193.05 834.601 Q2189.07 834.601 2186.71 832.379 Q2184.37 830.133 2184.37 826.383 Q2184.37 822.008 2187.29 819.786 Q2190.23 817.564 2196.04 817.564 L2202.01 817.564 L2202.01 817.147 Q2202.01 814.207 2200.07 812.61 Q2198.15 810.99 2194.65 810.99 Q2192.43 810.99 2190.32 811.522 Q2188.22 812.055 2186.27 813.12 L2186.27 809.184 Q2188.61 808.282 2190.81 807.842 Q2193.01 807.379 2195.09 807.379 Q2200.72 807.379 2203.49 810.295 Q2206.27 813.212 2206.27 819.138 Z" fill="#000000" fill-rule="nonzero" fill-opacity="1" /><path clip-path="url(#clip580)" d="M2219.26 800.643 L2219.26 808.004 L2228.03 808.004 L2228.03 811.314 L2219.26 811.314 L2219.26 825.388 Q2219.26 828.559 2220.11 829.462 Q2220.99 830.365 2223.66 830.365 L2228.03 830.365 L2228.03 833.93 L2223.66 833.93 Q2218.72 833.93 2216.85 832.101 Q2214.97 830.249 2214.97 825.388 L2214.97 811.314 L2211.85 811.314 L2211.85 808.004 L2214.97 808.004 L2214.97 800.643 L2219.26 800.643 Z" fill="#000000" fill-rule="nonzero" fill-opacity="1" /><polyline clip-path="url(#clip580)" style="stroke:#e9c716; stroke-linecap:round; stroke-linejoin:round; stroke-width:8; stroke-opacity:1; fill:none" points="1979.85,868.49 2122.04,868.49 "/>
<path clip-path="url(#clip580)" d="M2050.94 846.546 L2029 890.433 L2072.89 890.433 L2050.94 846.546 Z" fill="#e9c716" fill-rule="evenodd" fill-opacity="1" stroke="#000000" stroke-opacity="1" stroke-width="2.73067"/>
<path clip-path="url(#clip580)" d="M2150.42 855.052 L2150.42 868.038 L2156.29 868.038 Q2159.56 868.038 2161.34 866.348 Q2163.12 864.659 2163.12 861.534 Q2163.12 858.432 2161.34 856.742 Q2159.56 855.052 2156.29 855.052 L2150.42 855.052 M2145.74 851.21 L2156.29 851.21 Q2162.1 851.21 2165.07 853.848 Q2168.05 856.464 2168.05 861.534 Q2168.05 866.649 2165.07 869.265 Q2162.1 871.881 2156.29 871.881 L2150.42 871.881 L2150.42 885.77 L2145.74 885.77 L2145.74 851.21 Z" fill="#000000" fill-rule="nonzero" fill-opacity="1" /><path clip-path="url(#clip580)" d="M2194.63 871.742 L2194.63 873.825 L2175.04 873.825 Q2175.32 878.223 2177.68 880.538 Q2180.07 882.83 2184.3 882.83 Q2186.76 882.83 2189.05 882.228 Q2191.36 881.626 2193.63 880.422 L2193.63 884.45 Q2191.34 885.422 2188.93 885.932 Q2186.53 886.441 2184.05 886.441 Q2177.85 886.441 2174.21 882.83 Q2170.6 879.219 2170.6 873.061 Q2170.6 866.696 2174.03 862.969 Q2177.48 859.219 2183.31 859.219 Q2188.54 859.219 2191.57 862.598 Q2194.63 865.955 2194.63 871.742 M2190.37 870.492 Q2190.32 866.997 2188.4 864.913 Q2186.5 862.83 2183.35 862.83 Q2179.79 862.83 2177.64 864.844 Q2175.51 866.858 2175.18 870.515 L2190.37 870.492 Z" fill="#000000" fill-rule="nonzero" fill-opacity="1" /><path clip-path="url(#clip580)" d="M2216.64 863.825 Q2215.92 863.409 2215.07 863.223 Q2214.23 863.015 2213.22 863.015 Q2209.6 863.015 2207.66 865.376 Q2205.74 867.714 2205.74 872.112 L2205.74 885.77 L2201.46 885.77 L2201.46 859.844 L2205.74 859.844 L2205.74 863.872 Q2207.08 861.51 2209.23 860.376 Q2211.39 859.219 2214.47 859.219 Q2214.91 859.219 2215.44 859.288 Q2215.97 859.335 2216.62 859.45 L2216.64 863.825 Z" fill="#000000" fill-rule="nonzero" fill-opacity="1" /><path clip-path="url(#clip580)" d="M2240.46 864.821 Q2242.06 861.95 2244.28 860.585 Q2246.5 859.219 2249.51 859.219 Q2253.56 859.219 2255.76 862.066 Q2257.96 864.89 2257.96 870.122 L2257.96 885.77 L2253.68 885.77 L2253.68 870.26 Q2253.68 866.534 2252.36 864.728 Q2251.04 862.922 2248.33 862.922 Q2245.02 862.922 2243.1 865.122 Q2241.18 867.321 2241.18 871.117 L2241.18 885.77 L2236.9 885.77 L2236.9 870.26 Q2236.9 866.51 2235.58 864.728 Q2234.26 862.922 2231.5 862.922 Q2228.24 862.922 2226.32 865.145 Q2224.4 867.344 2224.4 871.117 L2224.4 885.77 L2220.11 885.77 L2220.11 859.844 L2224.4 859.844 L2224.4 863.872 Q2225.85 861.487 2227.89 860.353 Q2229.93 859.219 2232.73 859.219 Q2235.55 859.219 2237.52 860.654 Q2239.51 862.089 2240.46 864.821 Z" fill="#000000" fill-rule="nonzero" fill-opacity="1" /></svg>
