<?xml version="1.0" encoding="utf-8"?>
<svg xmlns="http://www.w3.org/2000/svg" xmlns:xlink="http://www.w3.org/1999/xlink" width="600" height="400" viewBox="0 0 2400 1600">
<defs>
  <clipPath id="clip930">
    <rect x="0" y="0" width="2400" height="1600"/>
  </clipPath>
</defs>
<path clip-path="url(#clip930)" d="M0 1600 L2400 1600 L2400 0 L0 0  Z" fill="#ffffff" fill-rule="evenodd" fill-opacity="1"/>
<defs>
  <clipPath id="clip931">
    <rect x="480" y="0" width="1681" height="1600"/>
  </clipPath>
</defs>
<path clip-path="url(#clip930)" d="M255.977 1423.18 L2352.76 1423.18 L2352.76 123.472 L255.977 123.472  Z" fill="#ffffff" fill-rule="evenodd" fill-opacity="1"/>
<defs>
  <clipPath id="clip932">
    <rect x="255" y="123" width="2098" height="1301"/>
  </clipPath>
</defs>
<polyline clip-path="url(#clip932)" style="stroke:#000000; stroke-linecap:round; stroke-linejoin:round; stroke-width:2; stroke-opacity:0.1; fill:none" points="315.32,1423.18 315.32,123.472 "/>
<polyline clip-path="url(#clip932)" style="stroke:#000000; stroke-linecap:round; stroke-linejoin:round; stroke-width:2; stroke-opacity:0.1; fill:none" points="974.684,1423.18 974.684,123.472 "/>
<polyline clip-path="url(#clip932)" style="stroke:#000000; stroke-linecap:round; stroke-linejoin:round; stroke-width:2; stroke-opacity:0.1; fill:none" points="1634.05,1423.18 1634.05,123.472 "/>
<polyline clip-path="url(#clip932)" style="stroke:#000000; stroke-linecap:round; stroke-linejoin:round; stroke-width:2; stroke-opacity:0.1; fill:none" points="2293.41,1423.18 2293.41,123.472 "/>
<polyline clip-path="url(#clip930)" style="stroke:#000000; stroke-linecap:round; stroke-linejoin:round; stroke-width:4; stroke-opacity:1; fill:none" points="255.977,1423.18 2352.76,1423.18 "/>
<polyline clip-path="url(#clip930)" style="stroke:#000000; stroke-linecap:round; stroke-linejoin:round; stroke-width:4; stroke-opacity:1; fill:none" points="315.32,1423.18 315.32,1404.28 "/>
<polyline clip-path="url(#clip930)" style="stroke:#000000; stroke-linecap:round; stroke-linejoin:round; stroke-width:4; stroke-opacity:1; fill:none" points="974.684,1423.18 974.684,1404.28 "/>
<polyline clip-path="url(#clip930)" style="stroke:#000000; stroke-linecap:round; stroke-linejoin:round; stroke-width:4; stroke-opacity:1; fill:none" points="1634.05,1423.18 1634.05,1404.28 "/>
<polyline clip-path="url(#clip930)" style="stroke:#000000; stroke-linecap:round; stroke-linejoin:round; stroke-width:4; stroke-opacity:1; fill:none" points="2293.41,1423.18 2293.41,1404.28 "/>
<path clip-path="url(#clip930)" d="M292.704 1454.1 Q289.093 1454.1 287.265 1457.66 Q285.459 1461.2 285.459 1468.33 Q285.459 1475.44 287.265 1479.01 Q289.093 1482.55 292.704 1482.55 Q296.339 1482.55 298.144 1479.01 Q299.973 1475.44 299.973 1468.33 Q299.973 1461.2 298.144 1457.66 Q296.339 1454.1 292.704 1454.1 M292.704 1450.39 Q298.515 1450.39 301.57 1455 Q304.649 1459.58 304.649 1468.33 Q304.649 1477.06 301.57 1481.67 Q298.515 1486.25 292.704 1486.25 Q286.894 1486.25 283.816 1481.67 Q280.76 1477.06 280.76 1468.33 Q280.76 1459.58 283.816 1455 Q286.894 1450.39 292.704 1450.39 Z" fill="#000000" fill-rule="nonzero" fill-opacity="1" /><path clip-path="url(#clip930)" d="M312.866 1479.7 L317.751 1479.7 L317.751 1485.58 L312.866 1485.58 L312.866 1479.7 Z" fill="#000000" fill-rule="nonzero" fill-opacity="1" /><path clip-path="url(#clip930)" d="M337.936 1454.1 Q334.325 1454.1 332.496 1457.66 Q330.69 1461.2 330.69 1468.33 Q330.69 1475.44 332.496 1479.01 Q334.325 1482.55 337.936 1482.55 Q341.57 1482.55 343.375 1479.01 Q345.204 1475.44 345.204 1468.33 Q345.204 1461.2 343.375 1457.66 Q341.57 1454.1 337.936 1454.1 M337.936 1450.39 Q343.746 1450.39 346.801 1455 Q349.88 1459.58 349.88 1468.33 Q349.88 1477.06 346.801 1481.67 Q343.746 1486.25 337.936 1486.25 Q332.125 1486.25 329.047 1481.67 Q325.991 1477.06 325.991 1468.33 Q325.991 1459.58 329.047 1455 Q332.125 1450.39 337.936 1450.39 Z" fill="#000000" fill-rule="nonzero" fill-opacity="1" /><path clip-path="url(#clip930)" d="M952.566 1454.1 Q948.955 1454.1 947.127 1457.66 Q945.321 1461.2 945.321 1468.33 Q945.321 1475.44 947.127 1479.01 Q948.955 1482.55 952.566 1482.55 Q956.201 1482.55 958.006 1479.01 Q959.835 1475.44 959.835 1468.33 Q959.835 1461.2 958.006 1457.66 Q956.201 1454.1 952.566 1454.1 M952.566 1450.39 Q958.377 1450.39 961.432 1455 Q964.511 1459.58 964.511 1468.33 Q964.511 1477.06 961.432 1481.67 Q958.377 1486.25 952.566 1486.25 Q946.756 1486.25 943.678 1481.67 Q940.622 1477.06 940.622 1468.33 Q940.622 1459.58 943.678 1455 Q946.756 1450.39 952.566 1450.39 Z" fill="#000000" fill-rule="nonzero" fill-opacity="1" /><path clip-path="url(#clip930)" d="M972.728 1479.7 L977.613 1479.7 L977.613 1485.58 L972.728 1485.58 L972.728 1479.7 Z" fill="#000000" fill-rule="nonzero" fill-opacity="1" /><path clip-path="url(#clip930)" d="M987.844 1451.02 L1006.2 1451.02 L1006.2 1454.96 L992.126 1454.96 L992.126 1463.43 Q993.145 1463.08 994.163 1462.92 Q995.182 1462.73 996.2 1462.73 Q1001.99 1462.73 1005.37 1465.9 Q1008.75 1469.08 1008.75 1474.49 Q1008.75 1480.07 1005.27 1483.17 Q1001.8 1486.25 995.483 1486.25 Q993.307 1486.25 991.038 1485.88 Q988.793 1485.51 986.386 1484.77 L986.386 1480.07 Q988.469 1481.2 990.691 1481.76 Q992.913 1482.32 995.39 1482.32 Q999.395 1482.32 1001.73 1480.21 Q1004.07 1478.1 1004.07 1474.49 Q1004.07 1470.88 1001.73 1468.77 Q999.395 1466.67 995.39 1466.67 Q993.515 1466.67 991.64 1467.08 Q989.788 1467.5 987.844 1468.38 L987.844 1451.02 Z" fill="#000000" fill-rule="nonzero" fill-opacity="1" /><path clip-path="url(#clip930)" d="M1601.2 1481.64 L1608.84 1481.64 L1608.84 1455.28 L1600.53 1456.95 L1600.53 1452.69 L1608.79 1451.02 L1613.47 1451.02 L1613.47 1481.64 L1621.11 1481.64 L1621.11 1485.58 L1601.2 1485.58 L1601.2 1481.64 Z" fill="#000000" fill-rule="nonzero" fill-opacity="1" /><path clip-path="url(#clip930)" d="M1630.55 1479.7 L1635.44 1479.7 L1635.44 1485.58 L1630.55 1485.58 L1630.55 1479.7 Z" fill="#000000" fill-rule="nonzero" fill-opacity="1" /><path clip-path="url(#clip930)" d="M1655.62 1454.1 Q1652.01 1454.1 1650.18 1457.66 Q1648.38 1461.2 1648.38 1468.33 Q1648.38 1475.44 1650.18 1479.01 Q1652.01 1482.55 1655.62 1482.55 Q1659.26 1482.55 1661.06 1479.01 Q1662.89 1475.44 1662.89 1468.33 Q1662.89 1461.2 1661.06 1457.66 Q1659.26 1454.1 1655.62 1454.1 M1655.62 1450.39 Q1661.43 1450.39 1664.49 1455 Q1667.57 1459.58 1667.57 1468.33 Q1667.57 1477.06 1664.49 1481.67 Q1661.43 1486.25 1655.62 1486.25 Q1649.81 1486.25 1646.73 1481.67 Q1643.68 1477.06 1643.68 1468.33 Q1643.68 1459.58 1646.73 1455 Q1649.81 1450.39 1655.62 1450.39 Z" fill="#000000" fill-rule="nonzero" fill-opacity="1" /><path clip-path="url(#clip930)" d="M2261.06 1481.64 L2268.7 1481.64 L2268.7 1455.28 L2260.39 1456.95 L2260.39 1452.69 L2268.66 1451.02 L2273.33 1451.02 L2273.33 1481.64 L2280.97 1481.64 L2280.97 1485.58 L2261.06 1485.58 L2261.06 1481.64 Z" fill="#000000" fill-rule="nonzero" fill-opacity="1" /><path clip-path="url(#clip930)" d="M2290.42 1479.7 L2295.3 1479.7 L2295.3 1485.58 L2290.42 1485.58 L2290.42 1479.7 Z" fill="#000000" fill-rule="nonzero" fill-opacity="1" /><path clip-path="url(#clip930)" d="M2305.53 1451.02 L2323.89 1451.02 L2323.89 1454.96 L2309.81 1454.96 L2309.81 1463.43 Q2310.83 1463.08 2311.85 1462.92 Q2312.87 1462.73 2313.89 1462.73 Q2319.67 1462.73 2323.05 1465.9 Q2326.43 1469.08 2326.43 1474.49 Q2326.43 1480.07 2322.96 1483.17 Q2319.49 1486.25 2313.17 1486.25 Q2310.99 1486.25 2308.73 1485.88 Q2306.48 1485.51 2304.07 1484.77 L2304.07 1480.07 Q2306.16 1481.2 2308.38 1481.76 Q2310.6 1482.32 2313.08 1482.32 Q2317.08 1482.32 2319.42 1480.21 Q2321.76 1478.1 2321.76 1474.49 Q2321.76 1470.88 2319.42 1468.77 Q2317.08 1466.67 2313.08 1466.67 Q2311.2 1466.67 2309.33 1467.08 Q2307.48 1467.5 2305.53 1468.38 L2305.53 1451.02 Z" fill="#000000" fill-rule="nonzero" fill-opacity="1" /><path clip-path="url(#clip930)" d="M858.321 1561.26 L858.321 1548.5 L847.818 1548.5 L847.818 1543.22 L864.687 1543.22 L864.687 1563.62 Q860.963 1566.26 856.475 1567.63 Q851.988 1568.97 846.895 1568.97 Q835.755 1568.97 829.453 1562.47 Q823.183 1555.95 823.183 1544.33 Q823.183 1532.68 829.453 1526.19 Q835.755 1519.66 846.895 1519.66 Q851.542 1519.66 855.712 1520.81 Q859.913 1521.96 863.446 1524.18 L863.446 1531.03 Q859.881 1528 855.871 1526.48 Q851.86 1524.95 847.436 1524.95 Q838.715 1524.95 834.323 1529.82 Q829.962 1534.69 829.962 1544.33 Q829.962 1553.94 834.323 1558.81 Q838.715 1563.68 847.436 1563.68 Q850.842 1563.68 853.515 1563.11 Q856.189 1562.51 858.321 1561.26 Z" fill="#000000" fill-rule="nonzero" fill-opacity="1" /><path clip-path="url(#clip930)" d="M906.669 1548.76 L906.669 1551.62 L879.742 1551.62 Q880.124 1557.67 883.371 1560.85 Q886.649 1564 892.473 1564 Q895.847 1564 898.998 1563.17 Q902.181 1562.35 905.3 1560.69 L905.3 1566.23 Q902.149 1567.57 898.839 1568.27 Q895.529 1568.97 892.123 1568.97 Q883.593 1568.97 878.596 1564 Q873.631 1559.04 873.631 1550.57 Q873.631 1541.82 878.342 1536.69 Q883.084 1531.54 891.105 1531.54 Q898.298 1531.54 902.468 1536.18 Q906.669 1540.8 906.669 1548.76 M900.813 1547.04 Q900.749 1542.23 898.107 1539.37 Q895.497 1536.5 891.169 1536.5 Q886.267 1536.5 883.307 1539.27 Q880.379 1542.04 879.933 1547.07 L900.813 1547.04 Z" fill="#000000" fill-rule="nonzero" fill-opacity="1" /><path clip-path="url(#clip930)" d="M945.914 1546.53 L945.914 1568.04 L940.057 1568.04 L940.057 1546.72 Q940.057 1541.66 938.084 1539.14 Q936.11 1536.63 932.164 1536.63 Q927.421 1536.63 924.684 1539.65 Q921.947 1542.68 921.947 1547.9 L921.947 1568.04 L916.058 1568.04 L916.058 1532.4 L921.947 1532.4 L921.947 1537.93 Q924.047 1534.72 926.88 1533.13 Q929.745 1531.54 933.469 1531.54 Q939.612 1531.54 942.763 1535.36 Q945.914 1539.14 945.914 1546.53 Z" fill="#000000" fill-rule="nonzero" fill-opacity="1" /><path clip-path="url(#clip930)" d="M988.086 1548.76 L988.086 1551.62 L961.159 1551.62 Q961.541 1557.67 964.788 1560.85 Q968.066 1564 973.891 1564 Q977.265 1564 980.416 1563.17 Q983.599 1562.35 986.718 1560.69 L986.718 1566.23 Q983.567 1567.57 980.257 1568.27 Q976.946 1568.97 973.541 1568.97 Q965.011 1568.97 960.014 1564 Q955.048 1559.04 955.048 1550.57 Q955.048 1541.82 959.759 1536.69 Q964.501 1531.54 972.522 1531.54 Q979.716 1531.54 983.885 1536.18 Q988.086 1540.8 988.086 1548.76 M982.23 1547.04 Q982.166 1542.23 979.525 1539.37 Q976.915 1536.5 972.586 1536.5 Q967.684 1536.5 964.724 1539.27 Q961.796 1542.04 961.35 1547.07 L982.23 1547.04 Z" fill="#000000" fill-rule="nonzero" fill-opacity="1" /><path clip-path="url(#clip930)" d="M1018.36 1537.87 Q1017.37 1537.3 1016.19 1537.04 Q1015.05 1536.76 1013.64 1536.76 Q1008.68 1536.76 1006.01 1540 Q1003.36 1543.22 1003.36 1549.27 L1003.36 1568.04 L997.476 1568.04 L997.476 1532.4 L1003.36 1532.4 L1003.36 1537.93 Q1005.21 1534.69 1008.17 1533.13 Q1011.13 1531.54 1015.36 1531.54 Q1015.97 1531.54 1016.7 1531.63 Q1017.43 1531.7 1018.32 1531.85 L1018.36 1537.87 Z" fill="#000000" fill-rule="nonzero" fill-opacity="1" /><path clip-path="url(#clip930)" d="M1040.7 1550.12 Q1033.6 1550.12 1030.86 1551.75 Q1028.13 1553.37 1028.13 1557.29 Q1028.13 1560.4 1030.16 1562.25 Q1032.23 1564.07 1035.77 1564.07 Q1040.64 1564.07 1043.56 1560.63 Q1046.52 1557.16 1046.52 1551.43 L1046.52 1550.12 L1040.7 1550.12 M1052.38 1547.71 L1052.38 1568.04 L1046.52 1568.04 L1046.52 1562.63 Q1044.52 1565.88 1041.53 1567.44 Q1038.53 1568.97 1034.21 1568.97 Q1028.73 1568.97 1025.48 1565.91 Q1022.27 1562.82 1022.27 1557.67 Q1022.27 1551.65 1026.28 1548.6 Q1030.32 1545.54 1038.31 1545.54 L1046.52 1545.54 L1046.52 1544.97 Q1046.52 1540.93 1043.85 1538.73 Q1041.21 1536.5 1036.4 1536.5 Q1033.35 1536.5 1030.45 1537.23 Q1027.55 1537.97 1024.88 1539.43 L1024.88 1534.02 Q1028.09 1532.78 1031.12 1532.17 Q1034.14 1531.54 1037.01 1531.54 Q1044.74 1531.54 1048.56 1535.55 Q1052.38 1539.56 1052.38 1547.71 Z" fill="#000000" fill-rule="nonzero" fill-opacity="1" /><path clip-path="url(#clip930)" d="M1070.24 1522.27 L1070.24 1532.4 L1082.3 1532.4 L1082.3 1536.95 L1070.24 1536.95 L1070.24 1556.3 Q1070.24 1560.66 1071.41 1561.9 Q1072.62 1563.14 1076.28 1563.14 L1082.3 1563.14 L1082.3 1568.04 L1076.28 1568.04 Q1069.5 1568.04 1066.93 1565.53 Q1064.35 1562.98 1064.35 1556.3 L1064.35 1536.95 L1060.05 1536.95 L1060.05 1532.4 L1064.35 1532.4 L1064.35 1522.27 L1070.24 1522.27 Z" fill="#000000" fill-rule="nonzero" fill-opacity="1" /><path clip-path="url(#clip930)" d="M1090 1532.4 L1095.86 1532.4 L1095.86 1568.04 L1090 1568.04 L1090 1532.4 M1090 1518.52 L1095.86 1518.52 L1095.86 1525.93 L1090 1525.93 L1090 1518.52 Z" fill="#000000" fill-rule="nonzero" fill-opacity="1" /><path clip-path="url(#clip930)" d="M1137.74 1546.53 L1137.74 1568.04 L1131.89 1568.04 L1131.89 1546.72 Q1131.89 1541.66 1129.91 1539.14 Q1127.94 1536.63 1123.99 1536.63 Q1119.25 1536.63 1116.51 1539.65 Q1113.78 1542.68 1113.78 1547.9 L1113.78 1568.04 L1107.89 1568.04 L1107.89 1532.4 L1113.78 1532.4 L1113.78 1537.93 Q1115.88 1534.72 1118.71 1533.13 Q1121.58 1531.54 1125.3 1531.54 Q1131.44 1531.54 1134.59 1535.36 Q1137.74 1539.14 1137.74 1546.53 Z" fill="#000000" fill-rule="nonzero" fill-opacity="1" /><path clip-path="url(#clip930)" d="M1172.88 1549.81 Q1172.88 1543.44 1170.24 1539.94 Q1167.63 1536.44 1162.89 1536.44 Q1158.18 1536.44 1155.54 1539.94 Q1152.93 1543.44 1152.93 1549.81 Q1152.93 1556.14 1155.54 1559.64 Q1158.18 1563.14 1162.89 1563.14 Q1167.63 1563.14 1170.24 1559.64 Q1172.88 1556.14 1172.88 1549.81 M1178.74 1563.62 Q1178.74 1572.72 1174.7 1577.15 Q1170.65 1581.6 1162.32 1581.6 Q1159.23 1581.6 1156.49 1581.13 Q1153.75 1580.68 1151.18 1579.72 L1151.18 1574.03 Q1153.75 1575.43 1156.27 1576.1 Q1158.78 1576.76 1161.39 1576.76 Q1167.15 1576.76 1170.02 1573.74 Q1172.88 1570.75 1172.88 1564.67 L1172.88 1561.77 Q1171.07 1564.92 1168.24 1566.48 Q1165.4 1568.04 1161.46 1568.04 Q1154.9 1568.04 1150.89 1563.05 Q1146.88 1558.05 1146.88 1549.81 Q1146.88 1541.53 1150.89 1536.53 Q1154.9 1531.54 1161.46 1531.54 Q1165.4 1531.54 1168.24 1533.1 Q1171.07 1534.66 1172.88 1537.81 L1172.88 1532.4 L1178.74 1532.4 L1178.74 1563.62 Z" fill="#000000" fill-rule="nonzero" fill-opacity="1" /><path clip-path="url(#clip930)" d="M1218.21 1525.81 L1218.21 1562.76 L1225.97 1562.76 Q1235.81 1562.76 1240.36 1558.3 Q1244.94 1553.85 1244.94 1544.24 Q1244.94 1534.69 1240.36 1530.26 Q1235.81 1525.81 1225.97 1525.81 L1218.21 1525.81 M1211.78 1520.52 L1224.99 1520.52 Q1238.8 1520.52 1245.26 1526.28 Q1251.72 1532.01 1251.72 1544.24 Q1251.72 1556.52 1245.23 1562.28 Q1238.74 1568.04 1224.99 1568.04 L1211.78 1568.04 L1211.78 1520.52 Z" fill="#000000" fill-rule="nonzero" fill-opacity="1" /><path clip-path="url(#clip930)" d="M1261.72 1532.4 L1267.57 1532.4 L1267.57 1568.04 L1261.72 1568.04 L1261.72 1532.4 M1261.72 1518.52 L1267.57 1518.52 L1267.57 1525.93 L1261.72 1525.93 L1261.72 1518.52 Z" fill="#000000" fill-rule="nonzero" fill-opacity="1" /><path clip-path="url(#clip930)" d="M1300.48 1537.87 Q1299.5 1537.3 1298.32 1537.04 Q1297.17 1536.76 1295.77 1536.76 Q1290.81 1536.76 1288.13 1540 Q1285.49 1543.22 1285.49 1549.27 L1285.49 1568.04 L1279.6 1568.04 L1279.6 1532.4 L1285.49 1532.4 L1285.49 1537.93 Q1287.34 1534.69 1290.3 1533.13 Q1293.26 1531.54 1297.49 1531.54 Q1298.1 1531.54 1298.83 1531.63 Q1299.56 1531.7 1300.45 1531.85 L1300.48 1537.87 Z" fill="#000000" fill-rule="nonzero" fill-opacity="1" /><path clip-path="url(#clip930)" d="M1306.63 1532.4 L1312.48 1532.4 L1312.48 1568.04 L1306.63 1568.04 L1306.63 1532.4 M1306.63 1518.52 L1312.48 1518.52 L1312.48 1525.93 L1306.63 1525.93 L1306.63 1518.52 Z" fill="#000000" fill-rule="nonzero" fill-opacity="1" /><path clip-path="url(#clip930)" d="M1350.39 1533.76 L1350.39 1539.24 Q1347.91 1537.87 1345.39 1537.2 Q1342.91 1536.5 1340.36 1536.5 Q1334.67 1536.5 1331.52 1540.13 Q1328.37 1543.73 1328.37 1550.25 Q1328.37 1556.78 1331.52 1560.4 Q1334.67 1564 1340.36 1564 Q1342.91 1564 1345.39 1563.33 Q1347.91 1562.63 1350.39 1561.26 L1350.39 1566.68 Q1347.94 1567.82 1345.3 1568.39 Q1342.69 1568.97 1339.73 1568.97 Q1331.68 1568.97 1326.93 1563.91 Q1322.19 1558.85 1322.19 1550.25 Q1322.19 1541.53 1326.96 1536.53 Q1331.77 1531.54 1340.11 1531.54 Q1342.82 1531.54 1345.39 1532.11 Q1347.97 1532.65 1350.39 1533.76 Z" fill="#000000" fill-rule="nonzero" fill-opacity="1" /><path clip-path="url(#clip930)" d="M1390.21 1546.53 L1390.21 1568.04 L1384.35 1568.04 L1384.35 1546.72 Q1384.35 1541.66 1382.38 1539.14 Q1380.4 1536.63 1376.46 1536.63 Q1371.72 1536.63 1368.98 1539.65 Q1366.24 1542.68 1366.24 1547.9 L1366.24 1568.04 L1360.35 1568.04 L1360.35 1518.52 L1366.24 1518.52 L1366.24 1537.93 Q1368.34 1534.72 1371.17 1533.13 Q1374.04 1531.54 1377.76 1531.54 Q1383.91 1531.54 1387.06 1535.36 Q1390.21 1539.14 1390.21 1546.53 Z" fill="#000000" fill-rule="nonzero" fill-opacity="1" /><path clip-path="url(#clip930)" d="M1401.89 1518.52 L1407.75 1518.52 L1407.75 1568.04 L1401.89 1568.04 L1401.89 1518.52 Z" fill="#000000" fill-rule="nonzero" fill-opacity="1" /><path clip-path="url(#clip930)" d="M1450.49 1548.76 L1450.49 1551.62 L1423.56 1551.62 Q1423.95 1557.67 1427.19 1560.85 Q1430.47 1564 1436.3 1564 Q1439.67 1564 1442.82 1563.17 Q1446 1562.35 1449.12 1560.69 L1449.12 1566.23 Q1445.97 1567.57 1442.66 1568.27 Q1439.35 1568.97 1435.95 1568.97 Q1427.42 1568.97 1422.42 1564 Q1417.45 1559.04 1417.45 1550.57 Q1417.45 1541.82 1422.16 1536.69 Q1426.91 1531.54 1434.93 1531.54 Q1442.12 1531.54 1446.29 1536.18 Q1450.49 1540.8 1450.49 1548.76 M1444.63 1547.04 Q1444.57 1542.23 1441.93 1539.37 Q1439.32 1536.5 1434.99 1536.5 Q1430.09 1536.5 1427.13 1539.27 Q1424.2 1542.04 1423.76 1547.07 L1444.63 1547.04 Z" fill="#000000" fill-rule="nonzero" fill-opacity="1" /><path clip-path="url(#clip930)" d="M1465.9 1522.27 L1465.9 1532.4 L1477.96 1532.4 L1477.96 1536.95 L1465.9 1536.95 L1465.9 1556.3 Q1465.9 1560.66 1467.07 1561.9 Q1468.28 1563.14 1471.94 1563.14 L1477.96 1563.14 L1477.96 1568.04 L1471.94 1568.04 Q1465.16 1568.04 1462.59 1565.53 Q1460.01 1562.98 1460.01 1556.3 L1460.01 1536.95 L1455.71 1536.95 L1455.71 1532.4 L1460.01 1532.4 L1460.01 1522.27 L1465.9 1522.27 Z" fill="#000000" fill-rule="nonzero" fill-opacity="1" /><path clip-path="url(#clip930)" d="M1513.07 1525.81 L1513.07 1543.66 L1521.15 1543.66 Q1525.64 1543.66 1528.09 1541.34 Q1530.54 1539.02 1530.54 1534.72 Q1530.54 1530.45 1528.09 1528.13 Q1525.64 1525.81 1521.15 1525.81 L1513.07 1525.81 M1506.64 1520.52 L1521.15 1520.52 Q1529.14 1520.52 1533.21 1524.15 Q1537.32 1527.75 1537.32 1534.72 Q1537.32 1541.75 1533.21 1545.35 Q1529.14 1548.95 1521.15 1548.95 L1513.07 1548.95 L1513.07 1568.04 L1506.64 1568.04 L1506.64 1520.52 Z" fill="#000000" fill-rule="nonzero" fill-opacity="1" /><path clip-path="url(#clip930)" d="M1565.2 1537.87 Q1564.21 1537.3 1563.04 1537.04 Q1561.89 1536.76 1560.49 1536.76 Q1555.53 1536.76 1552.85 1540 Q1550.21 1543.22 1550.21 1549.27 L1550.21 1568.04 L1544.32 1568.04 L1544.32 1532.4 L1550.21 1532.4 L1550.21 1537.93 Q1552.06 1534.69 1555.02 1533.13 Q1557.98 1531.54 1562.21 1531.54 Q1562.81 1531.54 1563.55 1531.63 Q1564.28 1531.7 1565.17 1531.85 L1565.2 1537.87 Z" fill="#000000" fill-rule="nonzero" fill-opacity="1" /><path clip-path="url(#clip930)" d="M1600.4 1548.76 L1600.4 1551.62 L1573.48 1551.62 Q1573.86 1557.67 1577.11 1560.85 Q1580.38 1564 1586.21 1564 Q1589.58 1564 1592.73 1563.17 Q1595.92 1562.35 1599.04 1560.69 L1599.04 1566.23 Q1595.88 1567.57 1592.57 1568.27 Q1589.26 1568.97 1585.86 1568.97 Q1577.33 1568.97 1572.33 1564 Q1567.37 1559.04 1567.37 1550.57 Q1567.37 1541.82 1572.08 1536.69 Q1576.82 1531.54 1584.84 1531.54 Q1592.03 1531.54 1596.2 1536.18 Q1600.4 1540.8 1600.4 1548.76 M1594.55 1547.04 Q1594.48 1542.23 1591.84 1539.37 Q1589.23 1536.5 1584.9 1536.5 Q1580 1536.5 1577.04 1539.27 Q1574.11 1542.04 1573.67 1547.07 L1594.55 1547.04 Z" fill="#000000" fill-rule="nonzero" fill-opacity="1" /><path clip-path="url(#clip930)" d="M1635.67 1533.76 L1635.67 1539.24 Q1633.19 1537.87 1630.67 1537.2 Q1628.19 1536.5 1625.64 1536.5 Q1619.95 1536.5 1616.8 1540.13 Q1613.64 1543.73 1613.64 1550.25 Q1613.64 1556.78 1616.8 1560.4 Q1619.95 1564 1625.64 1564 Q1628.19 1564 1630.67 1563.33 Q1633.19 1562.63 1635.67 1561.26 L1635.67 1566.68 Q1633.22 1567.82 1630.58 1568.39 Q1627.97 1568.97 1625.01 1568.97 Q1616.95 1568.97 1612.21 1563.91 Q1607.47 1558.85 1607.47 1550.25 Q1607.47 1541.53 1612.24 1536.53 Q1617.05 1531.54 1625.39 1531.54 Q1628.09 1531.54 1630.67 1532.11 Q1633.25 1532.65 1635.67 1533.76 Z" fill="#000000" fill-rule="nonzero" fill-opacity="1" /><path clip-path="url(#clip930)" d="M1645.85 1532.4 L1651.71 1532.4 L1651.71 1568.04 L1645.85 1568.04 L1645.85 1532.4 M1645.85 1518.52 L1651.71 1518.52 L1651.71 1525.93 L1645.85 1525.93 L1645.85 1518.52 Z" fill="#000000" fill-rule="nonzero" fill-opacity="1" /><path clip-path="url(#clip930)" d="M1686.69 1533.45 L1686.69 1538.98 Q1684.21 1537.71 1681.53 1537.07 Q1678.86 1536.44 1676 1536.44 Q1671.64 1536.44 1669.44 1537.77 Q1667.28 1539.11 1667.28 1541.79 Q1667.28 1543.82 1668.84 1545 Q1670.39 1546.15 1675.11 1547.2 L1677.11 1547.64 Q1683.35 1548.98 1685.96 1551.43 Q1688.6 1553.85 1688.6 1558.21 Q1688.6 1563.17 1684.65 1566.07 Q1680.74 1568.97 1673.86 1568.97 Q1671 1568.97 1667.88 1568.39 Q1664.79 1567.85 1661.36 1566.74 L1661.36 1560.69 Q1664.6 1562.38 1667.75 1563.24 Q1670.9 1564.07 1673.99 1564.07 Q1678.13 1564.07 1680.36 1562.66 Q1682.59 1561.23 1682.59 1558.65 Q1682.59 1556.27 1680.96 1554.99 Q1679.37 1553.72 1673.93 1552.54 L1671.89 1552.07 Q1666.45 1550.92 1664.03 1548.56 Q1661.61 1546.18 1661.61 1542.04 Q1661.61 1537.01 1665.17 1534.27 Q1668.74 1531.54 1675.3 1531.54 Q1678.54 1531.54 1681.41 1532.01 Q1684.27 1532.49 1686.69 1533.45 Z" fill="#000000" fill-rule="nonzero" fill-opacity="1" /><path clip-path="url(#clip930)" d="M1697.93 1532.4 L1703.78 1532.4 L1703.78 1568.04 L1697.93 1568.04 L1697.93 1532.4 M1697.93 1518.52 L1703.78 1518.52 L1703.78 1525.93 L1697.93 1525.93 L1697.93 1518.52 Z" fill="#000000" fill-rule="nonzero" fill-opacity="1" /><path clip-path="url(#clip930)" d="M1729.85 1536.5 Q1725.14 1536.5 1722.4 1540.19 Q1719.67 1543.85 1719.67 1550.25 Q1719.67 1556.65 1722.37 1560.34 Q1725.11 1564 1729.85 1564 Q1734.53 1564 1737.27 1560.31 Q1740 1556.62 1740 1550.25 Q1740 1543.92 1737.27 1540.23 Q1734.53 1536.5 1729.85 1536.5 M1729.85 1531.54 Q1737.49 1531.54 1741.85 1536.5 Q1746.21 1541.47 1746.21 1550.25 Q1746.21 1559 1741.85 1564 Q1737.49 1568.97 1729.85 1568.97 Q1722.18 1568.97 1717.82 1564 Q1713.49 1559 1713.49 1550.25 Q1713.49 1541.47 1717.82 1536.5 Q1722.18 1531.54 1729.85 1531.54 Z" fill="#000000" fill-rule="nonzero" fill-opacity="1" /><path clip-path="url(#clip930)" d="M1785.55 1546.53 L1785.55 1568.04 L1779.69 1568.04 L1779.69 1546.72 Q1779.69 1541.66 1777.72 1539.14 Q1775.75 1536.63 1771.8 1536.63 Q1767.06 1536.63 1764.32 1539.65 Q1761.58 1542.68 1761.58 1547.9 L1761.58 1568.04 L1755.7 1568.04 L1755.7 1532.4 L1761.58 1532.4 L1761.58 1537.93 Q1763.68 1534.72 1766.52 1533.13 Q1769.38 1531.54 1773.11 1531.54 Q1779.25 1531.54 1782.4 1535.36 Q1785.55 1539.14 1785.55 1546.53 Z" fill="#000000" fill-rule="nonzero" fill-opacity="1" /><polyline clip-path="url(#clip932)" style="stroke:#000000; stroke-linecap:round; stroke-linejoin:round; stroke-width:2; stroke-opacity:0.1; fill:none" points="255.977,1355.86 2352.76,1355.86 "/>
<polyline clip-path="url(#clip932)" style="stroke:#000000; stroke-linecap:round; stroke-linejoin:round; stroke-width:2; stroke-opacity:0.1; fill:none" points="255.977,1114.71 2352.76,1114.71 "/>
<polyline clip-path="url(#clip932)" style="stroke:#000000; stroke-linecap:round; stroke-linejoin:round; stroke-width:2; stroke-opacity:0.1; fill:none" points="255.977,873.549 2352.76,873.549 "/>
<polyline clip-path="url(#clip932)" style="stroke:#000000; stroke-linecap:round; stroke-linejoin:round; stroke-width:2; stroke-opacity:0.1; fill:none" points="255.977,632.393 2352.76,632.393 "/>
<polyline clip-path="url(#clip932)" style="stroke:#000000; stroke-linecap:round; stroke-linejoin:round; stroke-width:2; stroke-opacity:0.1; fill:none" points="255.977,391.237 2352.76,391.237 "/>
<polyline clip-path="url(#clip932)" style="stroke:#000000; stroke-linecap:round; stroke-linejoin:round; stroke-width:2; stroke-opacity:0.1; fill:none" points="255.977,150.081 2352.76,150.081 "/>
<polyline clip-path="url(#clip930)" style="stroke:#000000; stroke-linecap:round; stroke-linejoin:round; stroke-width:4; stroke-opacity:1; fill:none" points="255.977,1423.18 255.977,123.472 "/>
<polyline clip-path="url(#clip930)" style="stroke:#000000; stroke-linecap:round; stroke-linejoin:round; stroke-width:4; stroke-opacity:1; fill:none" points="255.977,1355.86 274.875,1355.86 "/>
<polyline clip-path="url(#clip930)" style="stroke:#000000; stroke-linecap:round; stroke-linejoin:round; stroke-width:4; stroke-opacity:1; fill:none" points="255.977,1114.71 274.875,1114.71 "/>
<polyline clip-path="url(#clip930)" style="stroke:#000000; stroke-linecap:round; stroke-linejoin:round; stroke-width:4; stroke-opacity:1; fill:none" points="255.977,873.549 274.875,873.549 "/>
<polyline clip-path="url(#clip930)" style="stroke:#000000; stroke-linecap:round; stroke-linejoin:round; stroke-width:4; stroke-opacity:1; fill:none" points="255.977,632.393 274.875,632.393 "/>
<polyline clip-path="url(#clip930)" style="stroke:#000000; stroke-linecap:round; stroke-linejoin:round; stroke-width:4; stroke-opacity:1; fill:none" points="255.977,391.237 274.875,391.237 "/>
<polyline clip-path="url(#clip930)" style="stroke:#000000; stroke-linecap:round; stroke-linejoin:round; stroke-width:4; stroke-opacity:1; fill:none" points="255.977,150.081 274.875,150.081 "/>
<path clip-path="url(#clip930)" d="M114.631 1356.31 L144.306 1356.31 L144.306 1360.25 L114.631 1360.25 L114.631 1356.31 Z" fill="#000000" fill-rule="nonzero" fill-opacity="1" /><path clip-path="url(#clip930)" d="M164.399 1341.66 Q160.788 1341.66 158.959 1345.22 Q157.153 1348.77 157.153 1355.9 Q157.153 1363 158.959 1366.57 Q160.788 1370.11 164.399 1370.11 Q168.033 1370.11 169.839 1366.57 Q171.667 1363 171.667 1355.9 Q171.667 1348.77 169.839 1345.22 Q168.033 1341.66 164.399 1341.66 M164.399 1337.96 Q170.209 1337.96 173.264 1342.56 Q176.343 1347.15 176.343 1355.9 Q176.343 1364.62 173.264 1369.23 Q170.209 1373.81 164.399 1373.81 Q158.589 1373.81 155.51 1369.23 Q152.454 1364.62 152.454 1355.9 Q152.454 1347.15 155.51 1342.56 Q158.589 1337.96 164.399 1337.96 Z" fill="#000000" fill-rule="nonzero" fill-opacity="1" /><path clip-path="url(#clip930)" d="M184.561 1367.26 L189.445 1367.26 L189.445 1373.14 L184.561 1373.14 L184.561 1367.26 Z" fill="#000000" fill-rule="nonzero" fill-opacity="1" /><path clip-path="url(#clip930)" d="M203.658 1369.21 L219.977 1369.21 L219.977 1373.14 L198.033 1373.14 L198.033 1369.21 Q200.695 1366.45 205.278 1361.82 Q209.885 1357.17 211.065 1355.83 Q213.311 1353.3 214.19 1351.57 Q215.093 1349.81 215.093 1348.12 Q215.093 1345.36 213.149 1343.63 Q211.227 1341.89 208.125 1341.89 Q205.926 1341.89 203.473 1342.66 Q201.042 1343.42 198.264 1344.97 L198.264 1340.25 Q201.088 1339.11 203.542 1338.53 Q205.996 1337.96 208.033 1337.96 Q213.403 1337.96 216.598 1340.64 Q219.792 1343.33 219.792 1347.82 Q219.792 1349.95 218.982 1351.87 Q218.195 1353.77 216.088 1356.36 Q215.51 1357.03 212.408 1360.25 Q209.306 1363.44 203.658 1369.21 Z" fill="#000000" fill-rule="nonzero" fill-opacity="1" /><path clip-path="url(#clip930)" d="M114.26 1115.16 L143.936 1115.16 L143.936 1119.09 L114.26 1119.09 L114.26 1115.16 Z" fill="#000000" fill-rule="nonzero" fill-opacity="1" /><path clip-path="url(#clip930)" d="M164.028 1100.5 Q160.417 1100.5 158.589 1104.07 Q156.783 1107.61 156.783 1114.74 Q156.783 1121.85 158.589 1125.41 Q160.417 1128.95 164.028 1128.95 Q167.663 1128.95 169.468 1125.41 Q171.297 1121.85 171.297 1114.74 Q171.297 1107.61 169.468 1104.07 Q167.663 1100.5 164.028 1100.5 M164.028 1096.8 Q169.839 1096.8 172.894 1101.41 Q175.973 1105.99 175.973 1114.74 Q175.973 1123.47 172.894 1128.07 Q169.839 1132.66 164.028 1132.66 Q158.218 1132.66 155.14 1128.07 Q152.084 1123.47 152.084 1114.74 Q152.084 1105.99 155.14 1101.41 Q158.218 1096.8 164.028 1096.8 Z" fill="#000000" fill-rule="nonzero" fill-opacity="1" /><path clip-path="url(#clip930)" d="M184.19 1126.11 L189.075 1126.11 L189.075 1131.99 L184.19 1131.99 L184.19 1126.11 Z" fill="#000000" fill-rule="nonzero" fill-opacity="1" /><path clip-path="url(#clip930)" d="M200.07 1128.05 L207.709 1128.05 L207.709 1101.68 L199.399 1103.35 L199.399 1099.09 L207.662 1097.43 L212.338 1097.43 L212.338 1128.05 L219.977 1128.05 L219.977 1131.99 L200.07 1131.99 L200.07 1128.05 Z" fill="#000000" fill-rule="nonzero" fill-opacity="1" /><path clip-path="url(#clip930)" d="M162.802 859.348 Q159.19 859.348 157.362 862.913 Q155.556 866.454 155.556 873.584 Q155.556 880.69 157.362 884.255 Q159.19 887.797 162.802 887.797 Q166.436 887.797 168.241 884.255 Q170.07 880.69 170.07 873.584 Q170.07 866.454 168.241 862.913 Q166.436 859.348 162.802 859.348 M162.802 855.644 Q168.612 855.644 171.667 860.251 Q174.746 864.834 174.746 873.584 Q174.746 882.311 171.667 886.917 Q168.612 891.5 162.802 891.5 Q156.991 891.5 153.913 886.917 Q150.857 882.311 150.857 873.584 Q150.857 864.834 153.913 860.251 Q156.991 855.644 162.802 855.644 Z" fill="#000000" fill-rule="nonzero" fill-opacity="1" /><path clip-path="url(#clip930)" d="M182.963 884.95 L187.848 884.95 L187.848 890.829 L182.963 890.829 L182.963 884.95 Z" fill="#000000" fill-rule="nonzero" fill-opacity="1" /><path clip-path="url(#clip930)" d="M208.033 859.348 Q204.422 859.348 202.593 862.913 Q200.787 866.454 200.787 873.584 Q200.787 880.69 202.593 884.255 Q204.422 887.797 208.033 887.797 Q211.667 887.797 213.473 884.255 Q215.301 880.69 215.301 873.584 Q215.301 866.454 213.473 862.913 Q211.667 859.348 208.033 859.348 M208.033 855.644 Q213.843 855.644 216.898 860.251 Q219.977 864.834 219.977 873.584 Q219.977 882.311 216.898 886.917 Q213.843 891.5 208.033 891.5 Q202.223 891.5 199.144 886.917 Q196.088 882.311 196.088 873.584 Q196.088 864.834 199.144 860.251 Q202.223 855.644 208.033 855.644 Z" fill="#000000" fill-rule="nonzero" fill-opacity="1" /><path clip-path="url(#clip930)" d="M164.028 618.192 Q160.417 618.192 158.589 621.757 Q156.783 625.298 156.783 632.428 Q156.783 639.534 158.589 643.099 Q160.417 646.641 164.028 646.641 Q167.663 646.641 169.468 643.099 Q171.297 639.534 171.297 632.428 Q171.297 625.298 169.468 621.757 Q167.663 618.192 164.028 618.192 M164.028 614.488 Q169.839 614.488 172.894 619.095 Q175.973 623.678 175.973 632.428 Q175.973 641.155 172.894 645.761 Q169.839 650.345 164.028 650.345 Q158.218 650.345 155.14 645.761 Q152.084 641.155 152.084 632.428 Q152.084 623.678 155.14 619.095 Q158.218 614.488 164.028 614.488 Z" fill="#000000" fill-rule="nonzero" fill-opacity="1" /><path clip-path="url(#clip930)" d="M184.19 643.794 L189.075 643.794 L189.075 649.673 L184.19 649.673 L184.19 643.794 Z" fill="#000000" fill-rule="nonzero" fill-opacity="1" /><path clip-path="url(#clip930)" d="M200.07 645.738 L207.709 645.738 L207.709 619.372 L199.399 621.039 L199.399 616.78 L207.662 615.113 L212.338 615.113 L212.338 645.738 L219.977 645.738 L219.977 649.673 L200.07 649.673 L200.07 645.738 Z" fill="#000000" fill-rule="nonzero" fill-opacity="1" /><path clip-path="url(#clip930)" d="M164.399 377.036 Q160.788 377.036 158.959 380.601 Q157.153 384.142 157.153 391.272 Q157.153 398.378 158.959 401.943 Q160.788 405.485 164.399 405.485 Q168.033 405.485 169.839 401.943 Q171.667 398.378 171.667 391.272 Q171.667 384.142 169.839 380.601 Q168.033 377.036 164.399 377.036 M164.399 373.332 Q170.209 373.332 173.264 377.939 Q176.343 382.522 176.343 391.272 Q176.343 399.999 173.264 404.605 Q170.209 409.189 164.399 409.189 Q158.589 409.189 155.51 404.605 Q152.454 399.999 152.454 391.272 Q152.454 382.522 155.51 377.939 Q158.589 373.332 164.399 373.332 Z" fill="#000000" fill-rule="nonzero" fill-opacity="1" /><path clip-path="url(#clip930)" d="M184.561 402.638 L189.445 402.638 L189.445 408.517 L184.561 408.517 L184.561 402.638 Z" fill="#000000" fill-rule="nonzero" fill-opacity="1" /><path clip-path="url(#clip930)" d="M203.658 404.582 L219.977 404.582 L219.977 408.517 L198.033 408.517 L198.033 404.582 Q200.695 401.828 205.278 397.198 Q209.885 392.545 211.065 391.203 Q213.311 388.679 214.19 386.943 Q215.093 385.184 215.093 383.494 Q215.093 380.74 213.149 379.004 Q211.227 377.267 208.125 377.267 Q205.926 377.267 203.473 378.031 Q201.042 378.795 198.264 380.346 L198.264 375.624 Q201.088 374.49 203.542 373.911 Q205.996 373.332 208.033 373.332 Q213.403 373.332 216.598 376.017 Q219.792 378.703 219.792 383.193 Q219.792 385.323 218.982 387.244 Q218.195 389.142 216.088 391.735 Q215.51 392.406 212.408 395.624 Q209.306 398.818 203.658 404.582 Z" fill="#000000" fill-rule="nonzero" fill-opacity="1" /><path clip-path="url(#clip930)" d="M163.45 135.88 Q159.839 135.88 158.01 139.445 Q156.204 142.987 156.204 150.116 Q156.204 157.223 158.01 160.787 Q159.839 164.329 163.45 164.329 Q167.084 164.329 168.889 160.787 Q170.718 157.223 170.718 150.116 Q170.718 142.987 168.889 139.445 Q167.084 135.88 163.45 135.88 M163.45 132.176 Q169.26 132.176 172.315 136.783 Q175.394 141.366 175.394 150.116 Q175.394 158.843 172.315 163.449 Q169.26 168.033 163.45 168.033 Q157.64 168.033 154.561 163.449 Q151.505 158.843 151.505 150.116 Q151.505 141.366 154.561 136.783 Q157.64 132.176 163.45 132.176 Z" fill="#000000" fill-rule="nonzero" fill-opacity="1" /><path clip-path="url(#clip930)" d="M183.612 161.482 L188.496 161.482 L188.496 167.361 L183.612 167.361 L183.612 161.482 Z" fill="#000000" fill-rule="nonzero" fill-opacity="1" /><path clip-path="url(#clip930)" d="M212.848 148.727 Q216.204 149.445 218.079 151.713 Q219.977 153.982 219.977 157.315 Q219.977 162.431 216.459 165.232 Q212.94 168.033 206.459 168.033 Q204.283 168.033 201.968 167.593 Q199.676 167.176 197.223 166.32 L197.223 161.806 Q199.167 162.94 201.482 163.519 Q203.797 164.098 206.32 164.098 Q210.718 164.098 213.01 162.361 Q215.324 160.625 215.324 157.315 Q215.324 154.26 213.172 152.547 Q211.042 150.811 207.223 150.811 L203.195 150.811 L203.195 146.968 L207.408 146.968 Q210.857 146.968 212.686 145.602 Q214.514 144.213 214.514 141.621 Q214.514 138.959 212.616 137.547 Q210.741 136.112 207.223 136.112 Q205.301 136.112 203.102 136.528 Q200.903 136.945 198.264 137.825 L198.264 133.658 Q200.926 132.917 203.241 132.547 Q205.579 132.176 207.639 132.176 Q212.963 132.176 216.065 134.607 Q219.167 137.014 219.167 141.135 Q219.167 144.005 217.523 145.996 Q215.88 147.963 212.848 148.727 Z" fill="#000000" fill-rule="nonzero" fill-opacity="1" /><path clip-path="url(#clip930)" d="M16.4842 957.947 L16.4842 948.367 L48.8219 936.24 L16.4842 924.05 L16.4842 914.47 L64.0042 914.47 L64.0042 920.74 L22.277 920.74 L54.8694 932.994 L54.8694 939.455 L22.277 951.709 L64.0042 951.709 L64.0042 957.947 L16.4842 957.947 Z" fill="#000000" fill-rule="nonzero" fill-opacity="1" /><path clip-path="url(#clip930)" d="M44.7161 871.469 L47.5806 871.469 L47.5806 898.396 Q53.6281 898.014 56.8109 894.768 Q59.9619 891.489 59.9619 885.665 Q59.9619 882.291 59.1344 879.14 Q58.3069 875.957 56.6518 872.838 L62.1899 872.838 Q63.5267 875.989 64.227 879.299 Q64.9272 882.609 64.9272 886.015 Q64.9272 894.545 59.9619 899.542 Q54.9967 904.507 46.5303 904.507 Q37.7774 904.507 32.6531 899.797 Q27.4968 895.054 27.4968 887.033 Q27.4968 879.84 32.1438 875.671 Q36.7589 871.469 44.7161 871.469 M42.9973 877.326 Q38.1912 877.389 35.3266 880.031 Q32.4621 882.641 32.4621 886.97 Q32.4621 891.871 35.2312 894.831 Q38.0002 897.76 43.0292 898.205 L42.9973 877.326 Z" fill="#000000" fill-rule="nonzero" fill-opacity="1" /><path clip-path="url(#clip930)" d="M46.0847 845.656 Q46.0847 852.754 47.7079 855.491 Q49.3312 858.229 53.2461 858.229 Q56.3653 858.229 58.2114 856.192 Q60.0256 854.123 60.0256 850.59 Q60.0256 845.72 56.5881 842.792 Q53.1188 839.832 47.3897 839.832 L46.0847 839.832 L46.0847 845.656 M43.6657 833.975 L64.0042 833.975 L64.0042 839.832 L58.5933 839.832 Q61.8398 841.837 63.3994 844.829 Q64.9272 847.821 64.9272 852.149 Q64.9272 857.624 61.8716 860.87 Q58.7843 864.085 53.6281 864.085 Q47.6125 864.085 44.5569 860.075 Q41.5014 856.032 41.5014 848.043 L41.5014 839.832 L40.9285 839.832 Q36.8862 839.832 34.6901 842.505 Q32.4621 845.147 32.4621 849.953 Q32.4621 853.009 33.1941 855.905 Q33.9262 858.802 35.3903 861.475 L29.9795 861.475 Q28.7381 858.26 28.1334 855.237 Q27.4968 852.213 27.4968 849.348 Q27.4968 841.614 31.5072 837.795 Q35.5176 833.975 43.6657 833.975 Z" fill="#000000" fill-rule="nonzero" fill-opacity="1" /><path clip-path="url(#clip930)" d="M42.4881 792.28 L64.0042 792.28 L64.0042 798.136 L42.679 798.136 Q37.6183 798.136 35.1038 800.11 Q32.5894 802.083 32.5894 806.03 Q32.5894 810.772 35.6131 813.51 Q38.6368 816.247 43.8567 816.247 L64.0042 816.247 L64.0042 822.135 L28.3562 822.135 L28.3562 816.247 L33.8944 816.247 Q30.6797 814.146 29.0883 811.313 Q27.4968 808.449 27.4968 804.725 Q27.4968 798.582 31.3163 795.431 Q35.1038 792.28 42.4881 792.28 Z" fill="#000000" fill-rule="nonzero" fill-opacity="1" /><path clip-path="url(#clip930)" d="M16.4842 759.624 L16.4842 753.194 L64.0042 753.194 L64.0042 759.624 L16.4842 759.624 Z" fill="#000000" fill-rule="nonzero" fill-opacity="1" /><path clip-path="url(#clip930)" d="M42.4881 711.022 L64.0042 711.022 L64.0042 716.878 L42.679 716.878 Q37.6183 716.878 35.1038 718.851 Q32.5894 720.825 32.5894 724.772 Q32.5894 729.514 35.6131 732.251 Q38.6368 734.989 43.8567 734.989 L64.0042 734.989 L64.0042 740.877 L28.3562 740.877 L28.3562 734.989 L33.8944 734.989 Q30.6797 732.888 29.0883 730.055 Q27.4968 727.191 27.4968 723.467 Q27.4968 717.324 31.3163 714.173 Q35.1038 711.022 42.4881 711.022 Z" fill="#000000" fill-rule="nonzero" fill-opacity="1" /><path clip-path="url(#clip930)" d="M33.7671 675.883 L14.479 675.883 L14.479 670.026 L64.0042 670.026 L64.0042 675.883 L58.657 675.883 Q61.8398 677.729 63.3994 680.562 Q64.9272 683.363 64.9272 687.309 Q64.9272 693.771 59.771 697.845 Q54.6147 701.887 46.212 701.887 Q37.8093 701.887 32.6531 697.845 Q27.4968 693.771 27.4968 687.309 Q27.4968 683.363 29.0564 680.562 Q30.5842 677.729 33.7671 675.883 M46.212 695.839 Q52.6732 695.839 56.3653 693.198 Q60.0256 690.524 60.0256 685.877 Q60.0256 681.23 56.3653 678.557 Q52.6732 675.883 46.212 675.883 Q39.7508 675.883 36.0905 678.557 Q32.3984 681.23 32.3984 685.877 Q32.3984 690.524 36.0905 693.198 Q39.7508 695.839 46.212 695.839 Z" fill="#000000" fill-rule="nonzero" fill-opacity="1" /><path clip-path="url(#clip930)" d="M44.7161 627.472 L47.5806 627.472 L47.5806 654.399 Q53.6281 654.017 56.8109 650.77 Q59.9619 647.492 59.9619 641.667 Q59.9619 638.293 59.1344 635.142 Q58.3069 631.96 56.6518 628.84 L62.1899 628.84 Q63.5267 631.991 64.227 635.302 Q64.9272 638.612 64.9272 642.017 Q64.9272 650.547 59.9619 655.544 Q54.9967 660.51 46.5303 660.51 Q37.7774 660.51 32.6531 655.799 Q27.4968 651.057 27.4968 643.036 Q27.4968 635.843 32.1438 631.673 Q36.7589 627.472 44.7161 627.472 M42.9973 633.328 Q38.1912 633.392 35.3266 636.034 Q32.4621 638.644 32.4621 642.972 Q32.4621 647.874 35.2312 650.834 Q38.0002 653.762 43.0292 654.208 L42.9973 633.328 Z" fill="#000000" fill-rule="nonzero" fill-opacity="1" /><path clip-path="url(#clip930)" d="M28.3562 589.373 L45.7028 602.264 L64.0042 588.705 L64.0042 595.611 L49.9996 605.987 L64.0042 616.364 L64.0042 623.27 L45.3526 609.425 L28.3562 622.093 L28.3562 615.186 L41.0558 605.733 L28.3562 596.28 L28.3562 589.373 Z" fill="#000000" fill-rule="nonzero" fill-opacity="1" /><path clip-path="url(#clip930)" d="M1135.06 18.8205 L1135.06 41.5461 L1145.35 41.5461 Q1151.06 41.5461 1154.18 38.5889 Q1157.3 35.6318 1157.3 30.163 Q1157.3 24.7348 1154.18 21.7777 Q1151.06 18.8205 1145.35 18.8205 L1135.06 18.8205 M1126.88 12.096 L1145.35 12.096 Q1155.52 12.096 1160.7 16.714 Q1165.93 21.2916 1165.93 30.163 Q1165.93 39.1155 1160.7 43.6931 Q1155.52 48.2706 1145.35 48.2706 L1135.06 48.2706 L1135.06 72.576 L1126.88 72.576 L1126.88 12.096 Z" fill="#000000" fill-rule="nonzero" fill-opacity="1" /><path clip-path="url(#clip930)" d="M1201.41 34.1734 Q1200.16 33.4443 1198.66 33.1202 Q1197.2 32.7556 1195.42 32.7556 Q1189.1 32.7556 1185.7 36.8875 Q1182.33 40.9789 1182.33 48.6757 L1182.33 72.576 L1174.84 72.576 L1174.84 27.2059 L1182.33 27.2059 L1182.33 34.2544 Q1184.68 30.1225 1188.45 28.1376 Q1192.22 26.1121 1197.6 26.1121 Q1198.37 26.1121 1199.31 26.2337 Q1200.24 26.3147 1201.37 26.5172 L1201.41 34.1734 Z" fill="#000000" fill-rule="nonzero" fill-opacity="1" /><path clip-path="url(#clip930)" d="M1246.22 48.0275 L1246.22 51.6733 L1211.95 51.6733 Q1212.43 59.3701 1216.56 63.421 Q1220.74 67.4314 1228.15 67.4314 Q1232.44 67.4314 1236.45 66.3781 Q1240.5 65.3249 1244.47 63.2184 L1244.47 70.267 Q1240.46 71.9684 1236.25 72.8596 Q1232.04 73.7508 1227.7 73.7508 Q1216.85 73.7508 1210.49 67.4314 Q1204.17 61.1119 1204.17 50.3365 Q1204.17 39.1965 1210.16 32.6746 Q1216.2 26.1121 1226.41 26.1121 Q1235.56 26.1121 1240.87 32.0264 Q1246.22 37.9003 1246.22 48.0275 M1238.76 45.84 Q1238.68 39.7232 1235.32 36.0774 Q1232 32.4315 1226.49 32.4315 Q1220.25 32.4315 1216.48 35.9558 Q1212.76 39.4801 1212.19 45.8805 L1238.76 45.84 Z" fill="#000000" fill-rule="nonzero" fill-opacity="1" /><path clip-path="url(#clip930)" d="M1291.1 28.9478 L1291.1 35.9153 Q1287.94 34.1734 1284.74 33.3227 Q1281.58 32.4315 1278.34 32.4315 Q1271.09 32.4315 1267.08 37.0496 Q1263.07 41.6271 1263.07 49.9314 Q1263.07 58.2358 1267.08 62.8538 Q1271.09 67.4314 1278.34 67.4314 Q1281.58 67.4314 1284.74 66.5807 Q1287.94 65.6895 1291.1 63.9476 L1291.1 70.8341 Q1287.98 72.2924 1284.62 73.0216 Q1281.3 73.7508 1277.53 73.7508 Q1267.28 73.7508 1261.24 67.3098 Q1255.21 60.8689 1255.21 49.9314 Q1255.21 38.832 1261.29 32.472 Q1267.4 26.1121 1278.02 26.1121 Q1281.46 26.1121 1284.74 26.8413 Q1288.02 27.5299 1291.1 28.9478 Z" fill="#000000" fill-rule="nonzero" fill-opacity="1" /><path clip-path="url(#clip930)" d="M1304.06 27.2059 L1311.52 27.2059 L1311.52 72.576 L1304.06 72.576 L1304.06 27.2059 M1304.06 9.54393 L1311.52 9.54393 L1311.52 18.9825 L1304.06 18.9825 L1304.06 9.54393 Z" fill="#000000" fill-rule="nonzero" fill-opacity="1" /><path clip-path="url(#clip930)" d="M1356.04 28.5427 L1356.04 35.5912 Q1352.88 33.9709 1349.47 33.1607 Q1346.07 32.3505 1342.42 32.3505 Q1336.88 32.3505 1334.08 34.0519 Q1331.33 35.7533 1331.33 39.156 Q1331.33 41.7486 1333.31 43.2475 Q1335.3 44.7058 1341.29 46.0426 L1343.84 46.6097 Q1351.78 48.3111 1355.1 51.4303 Q1358.47 54.509 1358.47 60.0587 Q1358.47 66.3781 1353.44 70.0644 Q1348.46 73.7508 1339.71 73.7508 Q1336.06 73.7508 1332.09 73.0216 Q1328.17 72.3329 1323.79 70.9151 L1323.79 63.2184 Q1327.92 65.3654 1331.93 66.4591 Q1335.94 67.5124 1339.87 67.5124 Q1345.14 67.5124 1347.97 65.73 Q1350.81 63.9071 1350.81 60.6258 Q1350.81 57.5877 1348.74 55.9673 Q1346.72 54.3469 1339.79 52.8481 L1337.2 52.2405 Q1330.27 50.7821 1327.19 47.7845 Q1324.11 44.7463 1324.11 39.4801 Q1324.11 33.0797 1328.65 29.5959 Q1333.19 26.1121 1341.53 26.1121 Q1345.67 26.1121 1349.31 26.7198 Q1352.96 27.3274 1356.04 28.5427 Z" fill="#000000" fill-rule="nonzero" fill-opacity="1" /><path clip-path="url(#clip930)" d="M1370.34 27.2059 L1377.79 27.2059 L1377.79 72.576 L1370.34 72.576 L1370.34 27.2059 M1370.34 9.54393 L1377.79 9.54393 L1377.79 18.9825 L1370.34 18.9825 L1370.34 9.54393 Z" fill="#000000" fill-rule="nonzero" fill-opacity="1" /><path clip-path="url(#clip930)" d="M1410.97 32.4315 Q1404.97 32.4315 1401.49 37.1306 Q1398 41.7891 1398 49.9314 Q1398 58.0738 1401.45 62.7728 Q1404.93 67.4314 1410.97 67.4314 Q1416.92 67.4314 1420.4 62.7323 Q1423.89 58.0333 1423.89 49.9314 Q1423.89 41.8701 1420.4 37.1711 Q1416.92 32.4315 1410.97 32.4315 M1410.97 26.1121 Q1420.69 26.1121 1426.24 32.4315 Q1431.79 38.7509 1431.79 49.9314 Q1431.79 61.0714 1426.24 67.4314 Q1420.69 73.7508 1410.97 73.7508 Q1401.2 73.7508 1395.65 67.4314 Q1390.14 61.0714 1390.14 49.9314 Q1390.14 38.7509 1395.65 32.4315 Q1401.2 26.1121 1410.97 26.1121 Z" fill="#000000" fill-rule="nonzero" fill-opacity="1" /><path clip-path="url(#clip930)" d="M1481.86 45.1919 L1481.86 72.576 L1474.4 72.576 L1474.4 45.4349 Q1474.4 38.994 1471.89 35.7938 Q1469.38 32.5936 1464.36 32.5936 Q1458.32 32.5936 1454.84 36.4419 Q1451.35 40.2903 1451.35 46.9338 L1451.35 72.576 L1443.86 72.576 L1443.86 27.2059 L1451.35 27.2059 L1451.35 34.2544 Q1454.03 30.163 1457.63 28.1376 Q1461.28 26.1121 1466.02 26.1121 Q1473.84 26.1121 1477.85 30.9732 Q1481.86 35.7938 1481.86 45.1919 Z" fill="#000000" fill-rule="nonzero" fill-opacity="1" /><polyline clip-path="url(#clip932)" style="stroke:#50ad9f; stroke-linecap:round; stroke-linejoin:round; stroke-width:8; stroke-opacity:1; fill:none" points="315.32,189.099 328.507,190.211 447.193,160.437 1634.05,237.747 2293.41,254.389 "/>
<circle clip-path="url(#clip932)" cx="315.32" cy="189.099" r="25.2" fill="#50ad9f" fill-rule="evenodd" fill-opacity="1" stroke="#000000" stroke-opacity="1" stroke-width="3.2"/>
<circle clip-path="url(#clip932)" cx="328.507" cy="190.211" r="25.2" fill="#50ad9f" fill-rule="evenodd" fill-opacity="1" stroke="#000000" stroke-opacity="1" stroke-width="3.2"/>
<circle clip-path="url(#clip932)" cx="447.193" cy="160.437" r="25.2" fill="#50ad9f" fill-rule="evenodd" fill-opacity="1" stroke="#000000" stroke-opacity="1" stroke-width="3.2"/>
<circle clip-path="url(#clip932)" cx="1634.05" cy="237.747" r="25.2" fill="#50ad9f" fill-rule="evenodd" fill-opacity="1" stroke="#000000" stroke-opacity="1" stroke-width="3.2"/>
<circle clip-path="url(#clip932)" cx="2293.41" cy="254.389" r="25.2" fill="#50ad9f" fill-rule="evenodd" fill-opacity="1" stroke="#000000" stroke-opacity="1" stroke-width="3.2"/>
<polyline clip-path="url(#clip932)" style="stroke:#0000a2; stroke-linecap:round; stroke-linejoin:round; stroke-width:8; stroke-opacity:1; fill:none" points="315.32,1165.82 328.507,1166.78 447.193,1179.79 1634.05,1369.67 2293.41,1386.4 "/>
<path clip-path="url(#clip932)" d="M295.32 1145.82 L295.32 1185.82 L335.32 1185.82 L335.32 1145.82 L295.32 1145.82 Z" fill="#0000a2" fill-rule="evenodd" fill-opacity="1" stroke="#000000" stroke-opacity="1" stroke-width="3.2"/>
<path clip-path="url(#clip932)" d="M308.507 1146.78 L308.507 1186.78 L348.507 1186.78 L348.507 1146.78 L308.507 1146.78 Z" fill="#0000a2" fill-rule="evenodd" fill-opacity="1" stroke="#000000" stroke-opacity="1" stroke-width="3.2"/>
<path clip-path="url(#clip932)" d="M427.193 1159.79 L427.193 1199.79 L467.193 1199.79 L467.193 1159.79 L427.193 1159.79 Z" fill="#0000a2" fill-rule="evenodd" fill-opacity="1" stroke="#000000" stroke-opacity="1" stroke-width="3.2"/>
<path clip-path="url(#clip932)" d="M1614.05 1349.67 L1614.05 1389.67 L1654.05 1389.67 L1654.05 1349.67 L1614.05 1349.67 Z" fill="#0000a2" fill-rule="evenodd" fill-opacity="1" stroke="#000000" stroke-opacity="1" stroke-width="3.2"/>
<path clip-path="url(#clip932)" d="M2273.41 1366.4 L2273.41 1406.4 L2313.41 1406.4 L2313.41 1366.4 L2273.41 1366.4 Z" fill="#0000a2" fill-rule="evenodd" fill-opacity="1" stroke="#000000" stroke-opacity="1" stroke-width="3.2"/>
<polyline clip-path="url(#clip932)" style="stroke:#bc272d; stroke-linecap:round; stroke-linejoin:round; stroke-width:8; stroke-opacity:1; fill:none" points="315.32,1376.1 328.507,1377.57 447.193,1380.27 1634.05,1360.1 2293.41,1304.07 "/>
<path clip-path="url(#clip932)" d="M315.32 1348.1 L308.74 1367.02 L288.692 1367.44 L304.68 1379.57 L298.856 1398.75 L315.32 1387.3 L331.784 1398.75 L325.96 1379.57 L341.948 1367.44 L321.9 1367.02 L315.32 1348.1 Z" fill="#bc272d" fill-rule="evenodd" fill-opacity="1" stroke="#000000" stroke-opacity="1" stroke-width="3.2"/>
<path clip-path="url(#clip932)" d="M328.507 1349.57 L321.927 1368.5 L301.879 1368.92 L317.867 1381.05 L312.043 1400.23 L328.507 1388.77 L344.971 1400.23 L339.147 1381.05 L355.135 1368.92 L335.087 1368.5 L328.507 1349.57 Z" fill="#bc272d" fill-rule="evenodd" fill-opacity="1" stroke="#000000" stroke-opacity="1" stroke-width="3.2"/>
<path clip-path="url(#clip932)" d="M447.193 1352.27 L440.613 1371.2 L420.565 1371.62 L436.553 1383.74 L430.729 1402.92 L447.193 1391.47 L463.657 1402.92 L457.833 1383.74 L473.821 1371.62 L453.773 1371.2 L447.193 1352.27 Z" fill="#bc272d" fill-rule="evenodd" fill-opacity="1" stroke="#000000" stroke-opacity="1" stroke-width="3.2"/>
<path clip-path="url(#clip932)" d="M1634.05 1332.1 L1627.47 1351.03 L1607.42 1351.45 L1623.41 1363.57 L1617.58 1382.75 L1634.05 1371.3 L1650.51 1382.75 L1644.69 1363.57 L1660.68 1351.45 L1640.63 1351.03 L1634.05 1332.1 Z" fill="#bc272d" fill-rule="evenodd" fill-opacity="1" stroke="#000000" stroke-opacity="1" stroke-width="3.2"/>
<path clip-path="url(#clip932)" d="M2293.41 1276.07 L2286.83 1295 L2266.79 1295.42 L2282.77 1307.54 L2276.95 1326.72 L2293.41 1315.27 L2309.88 1326.72 L2304.05 1307.54 L2320.04 1295.42 L2299.99 1295 L2293.41 1276.07 Z" fill="#bc272d" fill-rule="evenodd" fill-opacity="1" stroke="#000000" stroke-opacity="1" stroke-width="3.2"/>
<polyline clip-path="url(#clip932)" style="stroke:#e9c716; stroke-linecap:round; stroke-linejoin:round; stroke-width:8; stroke-opacity:1; fill:none" points="315.32,267.736 328.507,268.372 447.193,267.794 1634.05,208.339 2293.41,160.256 "/>
<path clip-path="url(#clip932)" d="M315.32 239.736 L287.32 295.736 L343.32 295.736 L315.32 239.736 Z" fill="#e9c716" fill-rule="evenodd" fill-opacity="1" stroke="#000000" stroke-opacity="1" stroke-width="3.2"/>
<path clip-path="url(#clip932)" d="M328.507 240.372 L300.507 296.372 L356.507 296.372 L328.507 240.372 Z" fill="#e9c716" fill-rule="evenodd" fill-opacity="1" stroke="#000000" stroke-opacity="1" stroke-width="3.2"/>
<path clip-path="url(#clip932)" d="M447.193 239.794 L419.193 295.794 L475.193 295.794 L447.193 239.794 Z" fill="#e9c716" fill-rule="evenodd" fill-opacity="1" stroke="#000000" stroke-opacity="1" stroke-width="3.2"/>
<path clip-path="url(#clip932)" d="M1634.05 180.339 L1606.05 236.339 L1662.05 236.339 L1634.05 180.339 Z" fill="#e9c716" fill-rule="evenodd" fill-opacity="1" stroke="#000000" stroke-opacity="1" stroke-width="3.2"/>
<path clip-path="url(#clip932)" d="M2293.41 132.256 L2265.41 188.256 L2321.41 188.256 L2293.41 132.256 Z" fill="#e9c716" fill-rule="evenodd" fill-opacity="1" stroke="#000000" stroke-opacity="1" stroke-width="3.2"/>
<path clip-path="url(#clip930)" d="M1960.96 920.33 L2282.86 920.33 L2282.86 661.13 L1960.96 661.13  Z" fill="#ffffff" fill-rule="evenodd" fill-opacity="1"/>
<polyline clip-path="url(#clip930)" style="stroke:#000000; stroke-linecap:round; stroke-linejoin:round; stroke-width:4; stroke-opacity:1; fill:none" points="1960.96,920.33 2282.86,920.33 2282.86,661.13 1960.96,661.13 1960.96,920.33 "/>
<polyline clip-path="url(#clip930)" style="stroke:#50ad9f; stroke-linecap:round; stroke-linejoin:round; stroke-width:8; stroke-opacity:1; fill:none" points="1984.26,712.97 2124.05,712.97 "/>
<circle clip-path="url(#clip930)" cx="2054.15" cy="712.97" r="19.4146" fill="#50ad9f" fill-rule="evenodd" fill-opacity="1" stroke="#000000" stroke-opacity="1" stroke-width="2.73067"/>
<path clip-path="url(#clip930)" d="M2147.34 695.69 L2167.21 695.69 L2167.21 699.625 L2152.02 699.625 L2152.02 709.81 L2165.72 709.81 L2165.72 713.745 L2152.02 713.745 L2152.02 730.25 L2147.34 730.25 L2147.34 695.69 Z" fill="#000000" fill-rule="nonzero" fill-opacity="1" /><path clip-path="url(#clip930)" d="M2170.98 704.324 L2175.24 704.324 L2175.24 730.25 L2170.98 730.25 L2170.98 704.324 M2170.98 694.231 L2175.24 694.231 L2175.24 699.625 L2170.98 699.625 L2170.98 694.231 Z" fill="#000000" fill-rule="nonzero" fill-opacity="1" /><path clip-path="url(#clip930)" d="M2188.36 696.963 L2188.36 704.324 L2197.14 704.324 L2197.14 707.634 L2188.36 707.634 L2188.36 721.708 Q2188.36 724.879 2189.22 725.782 Q2190.1 726.685 2192.76 726.685 L2197.14 726.685 L2197.14 730.25 L2192.76 730.25 Q2187.83 730.25 2185.96 728.421 Q2184.08 726.569 2184.08 721.708 L2184.08 707.634 L2180.96 707.634 L2180.96 704.324 L2184.08 704.324 L2184.08 696.963 L2188.36 696.963 Z" fill="#000000" fill-rule="nonzero" fill-opacity="1" /><polyline clip-path="url(#clip930)" style="stroke:#0000a2; stroke-linecap:round; stroke-linejoin:round; stroke-width:8; stroke-opacity:1; fill:none" points="1984.26,764.81 2124.05,764.81 "/>
<path clip-path="url(#clip930)" d="M2032.58 743.238 L2032.58 786.381 L2075.73 786.381 L2075.73 743.238 L2032.58 743.238 Z" fill="#0000a2" fill-rule="evenodd" fill-opacity="1" stroke="#000000" stroke-opacity="1" stroke-width="3.72364"/>
<path clip-path="url(#clip930)" d="M2169.59 748.664 L2169.59 753.224 Q2166.93 751.951 2164.57 751.326 Q2162.21 750.701 2160.01 750.701 Q2156.19 750.701 2154.1 752.182 Q2152.04 753.664 2152.04 756.395 Q2152.04 758.687 2153.41 759.867 Q2154.8 761.025 2158.64 761.742 L2161.46 762.321 Q2166.7 763.317 2169.17 765.84 Q2171.67 768.34 2171.67 772.553 Q2171.67 777.576 2168.29 780.168 Q2164.94 782.761 2158.43 782.761 Q2155.98 782.761 2153.2 782.205 Q2150.45 781.65 2147.48 780.562 L2147.48 775.747 Q2150.33 777.344 2153.06 778.154 Q2155.79 778.965 2158.43 778.965 Q2162.44 778.965 2164.61 777.391 Q2166.79 775.816 2166.79 772.9 Q2166.79 770.354 2165.21 768.918 Q2163.66 767.483 2160.1 766.766 L2157.25 766.21 Q2152.02 765.168 2149.68 762.946 Q2147.34 760.724 2147.34 756.766 Q2147.34 752.182 2150.56 749.543 Q2153.8 746.905 2159.47 746.905 Q2161.9 746.905 2164.43 747.344 Q2166.95 747.784 2169.59 748.664 Z" fill="#000000" fill-rule="nonzero" fill-opacity="1" /><path clip-path="url(#clip930)" d="M2189.57 784.497 Q2187.76 789.127 2186.05 790.539 Q2184.33 791.951 2181.46 791.951 L2178.06 791.951 L2178.06 788.386 L2180.56 788.386 Q2182.32 788.386 2183.29 787.553 Q2184.27 786.719 2185.45 783.617 L2186.21 781.673 L2175.72 756.164 L2180.24 756.164 L2188.34 776.441 L2196.44 756.164 L2200.95 756.164 L2189.57 784.497 Z" fill="#000000" fill-rule="nonzero" fill-opacity="1" /><path clip-path="url(#clip930)" d="M2227.02 761.141 Q2228.62 758.27 2230.84 756.905 Q2233.06 755.539 2236.07 755.539 Q2240.12 755.539 2242.32 758.386 Q2244.52 761.21 2244.52 766.442 L2244.52 782.09 L2240.24 782.09 L2240.24 766.58 Q2240.24 762.854 2238.92 761.048 Q2237.6 759.242 2234.89 759.242 Q2231.58 759.242 2229.66 761.442 Q2227.74 763.641 2227.74 767.437 L2227.74 782.09 L2223.45 782.09 L2223.45 766.58 Q2223.45 762.83 2222.14 761.048 Q2220.82 759.242 2218.06 759.242 Q2214.8 759.242 2212.88 761.465 Q2210.95 763.664 2210.95 767.437 L2210.95 782.09 L2206.67 782.09 L2206.67 756.164 L2210.95 756.164 L2210.95 760.192 Q2212.41 757.807 2214.45 756.673 Q2216.49 755.539 2219.29 755.539 Q2222.11 755.539 2224.08 756.974 Q2226.07 758.409 2227.02 761.141 Z" fill="#000000" fill-rule="nonzero" fill-opacity="1" /><polyline clip-path="url(#clip930)" style="stroke:#bc272d; stroke-linecap:round; stroke-linejoin:round; stroke-width:8; stroke-opacity:1; fill:none" points="1984.26,816.65 2124.05,816.65 "/>
<path clip-path="url(#clip930)" d="M2054.15 795.078 L2049.08 809.66 L2033.64 809.984 L2045.96 819.324 L2041.47 834.101 L2054.15 825.278 L2066.84 834.101 L2062.35 819.324 L2074.67 809.984 L2059.22 809.66 L2054.15 795.078 Z" fill="#bc272d" fill-rule="evenodd" fill-opacity="1" stroke="#000000" stroke-opacity="1" stroke-width="2.73067"/>
<path clip-path="url(#clip930)" d="M2147.34 799.37 L2167.21 799.37 L2167.21 803.305 L2152.02 803.305 L2152.02 813.49 L2165.72 813.49 L2165.72 817.425 L2152.02 817.425 L2152.02 833.93 L2147.34 833.93 L2147.34 799.37 Z" fill="#000000" fill-rule="nonzero" fill-opacity="1" /><path clip-path="url(#clip930)" d="M2174.43 797.911 L2178.69 797.911 L2178.69 833.93 L2174.43 833.93 L2174.43 797.911 Z" fill="#000000" fill-rule="nonzero" fill-opacity="1" /><path clip-path="url(#clip930)" d="M2199.38 820.897 Q2194.22 820.897 2192.23 822.078 Q2190.24 823.258 2190.24 826.106 Q2190.24 828.374 2191.72 829.717 Q2193.22 831.036 2195.79 831.036 Q2199.33 831.036 2201.46 828.536 Q2203.62 826.013 2203.62 821.846 L2203.62 820.897 L2199.38 820.897 M2207.88 819.138 L2207.88 833.93 L2203.62 833.93 L2203.62 829.994 Q2202.16 832.356 2199.98 833.49 Q2197.81 834.601 2194.66 834.601 Q2190.68 834.601 2188.32 832.379 Q2185.98 830.133 2185.98 826.383 Q2185.98 822.008 2188.89 819.786 Q2191.83 817.564 2197.64 817.564 L2203.62 817.564 L2203.62 817.147 Q2203.62 814.207 2201.67 812.61 Q2199.75 810.99 2196.26 810.99 Q2194.03 810.99 2191.93 811.522 Q2189.82 812.055 2187.88 813.12 L2187.88 809.184 Q2190.21 808.282 2192.41 807.842 Q2194.61 807.379 2196.7 807.379 Q2202.32 807.379 2205.1 810.295 Q2207.88 813.212 2207.88 819.138 Z" fill="#000000" fill-rule="nonzero" fill-opacity="1" /><path clip-path="url(#clip930)" d="M2220.86 800.643 L2220.86 808.004 L2229.64 808.004 L2229.64 811.314 L2220.86 811.314 L2220.86 825.388 Q2220.86 828.559 2221.72 829.462 Q2222.6 830.365 2225.26 830.365 L2229.64 830.365 L2229.64 833.93 L2225.26 833.93 Q2220.33 833.93 2218.45 832.101 Q2216.58 830.249 2216.58 825.388 L2216.58 811.314 L2213.45 811.314 L2213.45 808.004 L2216.58 808.004 L2216.58 800.643 L2220.86 800.643 Z" fill="#000000" fill-rule="nonzero" fill-opacity="1" /><polyline clip-path="url(#clip930)" style="stroke:#e9c716; stroke-linecap:round; stroke-linejoin:round; stroke-width:8; stroke-opacity:1; fill:none" points="1984.26,868.49 2124.05,868.49 "/>
<path clip-path="url(#clip930)" d="M2054.15 846.918 L2032.58 890.061 L2075.73 890.061 L2054.15 846.918 Z" fill="#e9c716" fill-rule="evenodd" fill-opacity="1" stroke="#000000" stroke-opacity="1" stroke-width="2.73067"/>
<path clip-path="url(#clip930)" d="M2152.02 855.052 L2152.02 868.038 L2157.9 868.038 Q2161.16 868.038 2162.95 866.348 Q2164.73 864.659 2164.73 861.534 Q2164.73 858.432 2162.95 856.742 Q2161.16 855.052 2157.9 855.052 L2152.02 855.052 M2147.34 851.21 L2157.9 851.21 Q2163.71 851.21 2166.67 853.848 Q2169.66 856.464 2169.66 861.534 Q2169.66 866.649 2166.67 869.265 Q2163.71 871.881 2157.9 871.881 L2152.02 871.881 L2152.02 885.77 L2147.34 885.77 L2147.34 851.21 Z" fill="#000000" fill-rule="nonzero" fill-opacity="1" /><path clip-path="url(#clip930)" d="M2196.23 871.742 L2196.23 873.825 L2176.65 873.825 Q2176.93 878.223 2179.29 880.538 Q2181.67 882.83 2185.91 882.83 Q2188.36 882.83 2190.65 882.228 Q2192.97 881.626 2195.24 880.422 L2195.24 884.45 Q2192.95 885.422 2190.54 885.932 Q2188.13 886.441 2185.65 886.441 Q2179.45 886.441 2175.82 882.83 Q2172.21 879.219 2172.21 873.061 Q2172.21 866.696 2175.63 862.969 Q2179.08 859.219 2184.91 859.219 Q2190.14 859.219 2193.18 862.598 Q2196.23 865.955 2196.23 871.742 M2191.97 870.492 Q2191.93 866.997 2190.01 864.913 Q2188.11 862.83 2184.96 862.83 Q2181.39 862.83 2179.24 864.844 Q2177.11 866.858 2176.79 870.515 L2191.97 870.492 Z" fill="#000000" fill-rule="nonzero" fill-opacity="1" /><path clip-path="url(#clip930)" d="M2218.25 863.825 Q2217.53 863.409 2216.67 863.223 Q2215.84 863.015 2214.82 863.015 Q2211.21 863.015 2209.27 865.376 Q2207.34 867.714 2207.34 872.112 L2207.34 885.77 L2203.06 885.77 L2203.06 859.844 L2207.34 859.844 L2207.34 863.872 Q2208.69 861.51 2210.84 860.376 Q2212.99 859.219 2216.07 859.219 Q2216.51 859.219 2217.04 859.288 Q2217.58 859.335 2218.22 859.45 L2218.25 863.825 Z" fill="#000000" fill-rule="nonzero" fill-opacity="1" /><path clip-path="url(#clip930)" d="M2242.07 864.821 Q2243.66 861.95 2245.89 860.585 Q2248.11 859.219 2251.12 859.219 Q2255.17 859.219 2257.37 862.066 Q2259.57 864.89 2259.57 870.122 L2259.57 885.77 L2255.28 885.77 L2255.28 870.26 Q2255.28 866.534 2253.96 864.728 Q2252.64 862.922 2249.94 862.922 Q2246.63 862.922 2244.7 865.122 Q2242.78 867.321 2242.78 871.117 L2242.78 885.77 L2238.5 885.77 L2238.5 870.26 Q2238.5 866.51 2237.18 864.728 Q2235.86 862.922 2233.11 862.922 Q2229.84 862.922 2227.92 865.145 Q2226 867.344 2226 871.117 L2226 885.77 L2221.72 885.77 L2221.72 859.844 L2226 859.844 L2226 863.872 Q2227.46 861.487 2229.5 860.353 Q2231.53 859.219 2234.33 859.219 Q2237.16 859.219 2239.13 860.654 Q2241.12 862.089 2242.07 864.821 Z" fill="#000000" fill-rule="nonzero" fill-opacity="1" /></svg>
