<?xml version="1.0" encoding="utf-8"?>
<svg xmlns="http://www.w3.org/2000/svg" xmlns:xlink="http://www.w3.org/1999/xlink" width="600" height="400" viewBox="0 0 2400 1600">
<defs>
  <clipPath id="clip540">
    <rect x="0" y="0" width="2400" height="1600"/>
  </clipPath>
</defs>
<path clip-path="url(#clip540)" d="M0 1600 L2400 1600 L2400 0 L0 0  Z" fill="#ffffff" fill-rule="evenodd" fill-opacity="1"/>
<defs>
  <clipPath id="clip541">
    <rect x="480" y="0" width="1681" height="1600"/>
  </clipPath>
</defs>
<path clip-path="url(#clip540)" d="M257.69 1423.18 L2352.76 1423.18 L2352.76 123.472 L257.69 123.472  Z" fill="#ffffff" fill-rule="evenodd" fill-opacity="1"/>
<defs>
  <clipPath id="clip542">
    <rect x="257" y="123" width="2096" height="1301"/>
  </clipPath>
</defs>
<polyline clip-path="url(#clip542)" style="stroke:#000000; stroke-linecap:round; stroke-linejoin:round; stroke-width:2; stroke-opacity:0.1; fill:none" points="285.612,1423.18 285.612,123.472 "/>
<polyline clip-path="url(#clip542)" style="stroke:#000000; stroke-linecap:round; stroke-linejoin:round; stroke-width:2; stroke-opacity:0.1; fill:none" points="599.338,1423.18 599.338,123.472 "/>
<polyline clip-path="url(#clip542)" style="stroke:#000000; stroke-linecap:round; stroke-linejoin:round; stroke-width:2; stroke-opacity:0.1; fill:none" points="913.065,1423.18 913.065,123.472 "/>
<polyline clip-path="url(#clip542)" style="stroke:#000000; stroke-linecap:round; stroke-linejoin:round; stroke-width:2; stroke-opacity:0.1; fill:none" points="1226.79,1423.18 1226.79,123.472 "/>
<polyline clip-path="url(#clip542)" style="stroke:#000000; stroke-linecap:round; stroke-linejoin:round; stroke-width:2; stroke-opacity:0.1; fill:none" points="1540.52,1423.18 1540.52,123.472 "/>
<polyline clip-path="url(#clip542)" style="stroke:#000000; stroke-linecap:round; stroke-linejoin:round; stroke-width:2; stroke-opacity:0.1; fill:none" points="1854.24,1423.18 1854.24,123.472 "/>
<polyline clip-path="url(#clip542)" style="stroke:#000000; stroke-linecap:round; stroke-linejoin:round; stroke-width:2; stroke-opacity:0.1; fill:none" points="2167.97,1423.18 2167.97,123.472 "/>
<polyline clip-path="url(#clip540)" style="stroke:#000000; stroke-linecap:round; stroke-linejoin:round; stroke-width:4; stroke-opacity:1; fill:none" points="257.69,1423.18 2352.76,1423.18 "/>
<polyline clip-path="url(#clip540)" style="stroke:#000000; stroke-linecap:round; stroke-linejoin:round; stroke-width:4; stroke-opacity:1; fill:none" points="285.612,1423.18 285.612,1404.28 "/>
<polyline clip-path="url(#clip540)" style="stroke:#000000; stroke-linecap:round; stroke-linejoin:round; stroke-width:4; stroke-opacity:1; fill:none" points="599.338,1423.18 599.338,1404.28 "/>
<polyline clip-path="url(#clip540)" style="stroke:#000000; stroke-linecap:round; stroke-linejoin:round; stroke-width:4; stroke-opacity:1; fill:none" points="913.065,1423.18 913.065,1404.28 "/>
<polyline clip-path="url(#clip540)" style="stroke:#000000; stroke-linecap:round; stroke-linejoin:round; stroke-width:4; stroke-opacity:1; fill:none" points="1226.79,1423.18 1226.79,1404.28 "/>
<polyline clip-path="url(#clip540)" style="stroke:#000000; stroke-linecap:round; stroke-linejoin:round; stroke-width:4; stroke-opacity:1; fill:none" points="1540.52,1423.18 1540.52,1404.28 "/>
<polyline clip-path="url(#clip540)" style="stroke:#000000; stroke-linecap:round; stroke-linejoin:round; stroke-width:4; stroke-opacity:1; fill:none" points="1854.24,1423.18 1854.24,1404.28 "/>
<polyline clip-path="url(#clip540)" style="stroke:#000000; stroke-linecap:round; stroke-linejoin:round; stroke-width:4; stroke-opacity:1; fill:none" points="2167.97,1423.18 2167.97,1404.28 "/>
<path clip-path="url(#clip540)" d="M285.612 1454.1 Q282.001 1454.1 280.172 1457.66 Q278.366 1461.2 278.366 1468.33 Q278.366 1475.44 280.172 1479.01 Q282.001 1482.55 285.612 1482.55 Q289.246 1482.55 291.052 1479.01 Q292.88 1475.44 292.88 1468.33 Q292.88 1461.2 291.052 1457.66 Q289.246 1454.1 285.612 1454.1 M285.612 1450.39 Q291.422 1450.39 294.477 1455 Q297.556 1459.58 297.556 1468.33 Q297.556 1477.06 294.477 1481.67 Q291.422 1486.25 285.612 1486.25 Q279.802 1486.25 276.723 1481.67 Q273.667 1477.06 273.667 1468.33 Q273.667 1459.58 276.723 1455 Q279.802 1450.39 285.612 1450.39 Z" fill="#000000" fill-rule="nonzero" fill-opacity="1" /><path clip-path="url(#clip540)" d="M578.112 1481.64 L594.431 1481.64 L594.431 1485.58 L572.487 1485.58 L572.487 1481.64 Q575.149 1478.89 579.732 1474.26 Q584.338 1469.61 585.519 1468.27 Q587.764 1465.74 588.644 1464.01 Q589.547 1462.25 589.547 1460.56 Q589.547 1457.8 587.602 1456.07 Q585.681 1454.33 582.579 1454.33 Q580.38 1454.33 577.926 1455.09 Q575.496 1455.86 572.718 1457.41 L572.718 1452.69 Q575.542 1451.55 577.996 1450.97 Q580.45 1450.39 582.487 1450.39 Q587.857 1450.39 591.051 1453.08 Q594.246 1455.77 594.246 1460.26 Q594.246 1462.39 593.436 1464.31 Q592.649 1466.2 590.542 1468.8 Q589.963 1469.47 586.862 1472.69 Q583.76 1475.88 578.112 1481.64 Z" fill="#000000" fill-rule="nonzero" fill-opacity="1" /><path clip-path="url(#clip540)" d="M614.246 1454.1 Q610.635 1454.1 608.806 1457.66 Q607 1461.2 607 1468.33 Q607 1475.44 608.806 1479.01 Q610.635 1482.55 614.246 1482.55 Q617.88 1482.55 619.685 1479.01 Q621.514 1475.44 621.514 1468.33 Q621.514 1461.2 619.685 1457.66 Q617.88 1454.1 614.246 1454.1 M614.246 1450.39 Q620.056 1450.39 623.111 1455 Q626.19 1459.58 626.19 1468.33 Q626.19 1477.06 623.111 1481.67 Q620.056 1486.25 614.246 1486.25 Q608.436 1486.25 605.357 1481.67 Q602.301 1477.06 602.301 1468.33 Q602.301 1459.58 605.357 1455 Q608.436 1450.39 614.246 1450.39 Z" fill="#000000" fill-rule="nonzero" fill-opacity="1" /><path clip-path="url(#clip540)" d="M901.236 1455.09 L889.431 1473.54 L901.236 1473.54 L901.236 1455.09 M900.009 1451.02 L905.889 1451.02 L905.889 1473.54 L910.82 1473.54 L910.82 1477.43 L905.889 1477.43 L905.889 1485.58 L901.236 1485.58 L901.236 1477.43 L885.634 1477.43 L885.634 1472.92 L900.009 1451.02 Z" fill="#000000" fill-rule="nonzero" fill-opacity="1" /><path clip-path="url(#clip540)" d="M928.551 1454.1 Q924.94 1454.1 923.111 1457.66 Q921.306 1461.2 921.306 1468.33 Q921.306 1475.44 923.111 1479.01 Q924.94 1482.55 928.551 1482.55 Q932.185 1482.55 933.991 1479.01 Q935.819 1475.44 935.819 1468.33 Q935.819 1461.2 933.991 1457.66 Q932.185 1454.1 928.551 1454.1 M928.551 1450.39 Q934.361 1450.39 937.417 1455 Q940.495 1459.58 940.495 1468.33 Q940.495 1477.06 937.417 1481.67 Q934.361 1486.25 928.551 1486.25 Q922.741 1486.25 919.662 1481.67 Q916.607 1477.06 916.607 1468.33 Q916.607 1459.58 919.662 1455 Q922.741 1450.39 928.551 1450.39 Z" fill="#000000" fill-rule="nonzero" fill-opacity="1" /><path clip-path="url(#clip540)" d="M1212.2 1466.44 Q1209.05 1466.44 1207.2 1468.59 Q1205.37 1470.74 1205.37 1474.49 Q1205.37 1478.22 1207.2 1480.39 Q1209.05 1482.55 1212.2 1482.55 Q1215.34 1482.55 1217.17 1480.39 Q1219.03 1478.22 1219.03 1474.49 Q1219.03 1470.74 1217.17 1468.59 Q1215.34 1466.44 1212.2 1466.44 M1221.48 1451.78 L1221.48 1456.04 Q1219.72 1455.21 1217.91 1454.77 Q1216.13 1454.33 1214.37 1454.33 Q1209.74 1454.33 1207.29 1457.45 Q1204.86 1460.58 1204.51 1466.9 Q1205.88 1464.89 1207.94 1463.82 Q1210 1462.73 1212.47 1462.73 Q1217.68 1462.73 1220.69 1465.9 Q1223.72 1469.05 1223.72 1474.49 Q1223.72 1479.82 1220.58 1483.03 Q1217.43 1486.25 1212.2 1486.25 Q1206.2 1486.25 1203.03 1481.67 Q1199.86 1477.06 1199.86 1468.33 Q1199.86 1460.14 1203.75 1455.28 Q1207.64 1450.39 1214.19 1450.39 Q1215.95 1450.39 1217.73 1450.74 Q1219.53 1451.09 1221.48 1451.78 Z" fill="#000000" fill-rule="nonzero" fill-opacity="1" /><path clip-path="url(#clip540)" d="M1241.78 1454.1 Q1238.17 1454.1 1236.34 1457.66 Q1234.53 1461.2 1234.53 1468.33 Q1234.53 1475.44 1236.34 1479.01 Q1238.17 1482.55 1241.78 1482.55 Q1245.41 1482.55 1247.22 1479.01 Q1249.05 1475.44 1249.05 1468.33 Q1249.05 1461.2 1247.22 1457.66 Q1245.41 1454.1 1241.78 1454.1 M1241.78 1450.39 Q1247.59 1450.39 1250.65 1455 Q1253.72 1459.58 1253.72 1468.33 Q1253.72 1477.06 1250.65 1481.67 Q1247.59 1486.25 1241.78 1486.25 Q1235.97 1486.25 1232.89 1481.67 Q1229.84 1477.06 1229.84 1468.33 Q1229.84 1459.58 1232.89 1455 Q1235.97 1450.39 1241.78 1450.39 Z" fill="#000000" fill-rule="nonzero" fill-opacity="1" /><path clip-path="url(#clip540)" d="M1525.39 1469.17 Q1522.06 1469.17 1520.14 1470.95 Q1518.24 1472.73 1518.24 1475.86 Q1518.24 1478.98 1520.14 1480.77 Q1522.06 1482.55 1525.39 1482.55 Q1528.72 1482.55 1530.65 1480.77 Q1532.57 1478.96 1532.57 1475.86 Q1532.57 1472.73 1530.65 1470.95 Q1528.75 1469.17 1525.39 1469.17 M1520.71 1467.18 Q1517.71 1466.44 1516.02 1464.38 Q1514.35 1462.32 1514.35 1459.35 Q1514.35 1455.21 1517.29 1452.8 Q1520.25 1450.39 1525.39 1450.39 Q1530.55 1450.39 1533.49 1452.8 Q1536.43 1455.21 1536.43 1459.35 Q1536.43 1462.32 1534.74 1464.38 Q1533.08 1466.44 1530.09 1467.18 Q1533.47 1467.96 1535.34 1470.26 Q1537.24 1472.55 1537.24 1475.86 Q1537.24 1480.88 1534.16 1483.57 Q1531.11 1486.25 1525.39 1486.25 Q1519.67 1486.25 1516.59 1483.57 Q1513.54 1480.88 1513.54 1475.86 Q1513.54 1472.55 1515.44 1470.26 Q1517.34 1467.96 1520.71 1467.18 M1519 1459.79 Q1519 1462.48 1520.67 1463.98 Q1522.36 1465.49 1525.39 1465.49 Q1528.4 1465.49 1530.09 1463.98 Q1531.8 1462.48 1531.8 1459.79 Q1531.8 1457.11 1530.09 1455.6 Q1528.4 1454.1 1525.39 1454.1 Q1522.36 1454.1 1520.67 1455.6 Q1519 1457.11 1519 1459.79 Z" fill="#000000" fill-rule="nonzero" fill-opacity="1" /><path clip-path="url(#clip540)" d="M1555.55 1454.1 Q1551.94 1454.1 1550.11 1457.66 Q1548.31 1461.2 1548.31 1468.33 Q1548.31 1475.44 1550.11 1479.01 Q1551.94 1482.55 1555.55 1482.55 Q1559.19 1482.55 1560.99 1479.01 Q1562.82 1475.44 1562.82 1468.33 Q1562.82 1461.2 1560.99 1457.66 Q1559.19 1454.1 1555.55 1454.1 M1555.55 1450.39 Q1561.36 1450.39 1564.42 1455 Q1567.5 1459.58 1567.5 1468.33 Q1567.5 1477.06 1564.42 1481.67 Q1561.36 1486.25 1555.55 1486.25 Q1549.74 1486.25 1546.66 1481.67 Q1543.61 1477.06 1543.61 1468.33 Q1543.61 1459.58 1546.66 1455 Q1549.74 1450.39 1555.55 1450.39 Z" fill="#000000" fill-rule="nonzero" fill-opacity="1" /><path clip-path="url(#clip540)" d="M1813.85 1481.64 L1821.49 1481.64 L1821.49 1455.28 L1813.18 1456.95 L1813.18 1452.69 L1821.44 1451.02 L1826.12 1451.02 L1826.12 1481.64 L1833.76 1481.64 L1833.76 1485.58 L1813.85 1485.58 L1813.85 1481.64 Z" fill="#000000" fill-rule="nonzero" fill-opacity="1" /><path clip-path="url(#clip540)" d="M1853.2 1454.1 Q1849.59 1454.1 1847.76 1457.66 Q1845.96 1461.2 1845.96 1468.33 Q1845.96 1475.44 1847.76 1479.01 Q1849.59 1482.55 1853.2 1482.55 Q1856.84 1482.55 1858.64 1479.01 Q1860.47 1475.44 1860.47 1468.33 Q1860.47 1461.2 1858.64 1457.66 Q1856.84 1454.1 1853.2 1454.1 M1853.2 1450.39 Q1859.01 1450.39 1862.07 1455 Q1865.15 1459.58 1865.15 1468.33 Q1865.15 1477.06 1862.07 1481.67 Q1859.01 1486.25 1853.2 1486.25 Q1847.39 1486.25 1844.31 1481.67 Q1841.26 1477.06 1841.26 1468.33 Q1841.26 1459.58 1844.31 1455 Q1847.39 1450.39 1853.2 1450.39 Z" fill="#000000" fill-rule="nonzero" fill-opacity="1" /><path clip-path="url(#clip540)" d="M1883.36 1454.1 Q1879.75 1454.1 1877.92 1457.66 Q1876.12 1461.2 1876.12 1468.33 Q1876.12 1475.44 1877.92 1479.01 Q1879.75 1482.55 1883.36 1482.55 Q1887 1482.55 1888.8 1479.01 Q1890.63 1475.44 1890.63 1468.33 Q1890.63 1461.2 1888.8 1457.66 Q1887 1454.1 1883.36 1454.1 M1883.36 1450.39 Q1889.17 1450.39 1892.23 1455 Q1895.31 1459.58 1895.31 1468.33 Q1895.31 1477.06 1892.23 1481.67 Q1889.17 1486.25 1883.36 1486.25 Q1877.55 1486.25 1874.48 1481.67 Q1871.42 1477.06 1871.42 1468.33 Q1871.42 1459.58 1874.48 1455 Q1877.55 1450.39 1883.36 1450.39 Z" fill="#000000" fill-rule="nonzero" fill-opacity="1" /><path clip-path="url(#clip540)" d="M2127.58 1481.64 L2135.22 1481.64 L2135.22 1455.28 L2126.91 1456.95 L2126.91 1452.69 L2135.17 1451.02 L2139.85 1451.02 L2139.85 1481.64 L2147.48 1481.64 L2147.48 1485.58 L2127.58 1485.58 L2127.58 1481.64 Z" fill="#000000" fill-rule="nonzero" fill-opacity="1" /><path clip-path="url(#clip540)" d="M2160.96 1481.64 L2177.28 1481.64 L2177.28 1485.58 L2155.33 1485.58 L2155.33 1481.64 Q2157.99 1478.89 2162.58 1474.26 Q2167.18 1469.61 2168.36 1468.27 Q2170.61 1465.74 2171.49 1464.01 Q2172.39 1462.25 2172.39 1460.56 Q2172.39 1457.8 2170.45 1456.07 Q2168.53 1454.33 2165.42 1454.33 Q2163.23 1454.33 2160.77 1455.09 Q2158.34 1455.86 2155.56 1457.41 L2155.56 1452.69 Q2158.39 1451.55 2160.84 1450.97 Q2163.3 1450.39 2165.33 1450.39 Q2170.7 1450.39 2173.9 1453.08 Q2177.09 1455.77 2177.09 1460.26 Q2177.09 1462.39 2176.28 1464.31 Q2175.49 1466.2 2173.39 1468.8 Q2172.81 1469.47 2169.71 1472.69 Q2166.61 1475.88 2160.96 1481.64 Z" fill="#000000" fill-rule="nonzero" fill-opacity="1" /><path clip-path="url(#clip540)" d="M2197.09 1454.1 Q2193.48 1454.1 2191.65 1457.66 Q2189.85 1461.2 2189.85 1468.33 Q2189.85 1475.44 2191.65 1479.01 Q2193.48 1482.55 2197.09 1482.55 Q2200.73 1482.55 2202.53 1479.01 Q2204.36 1475.44 2204.36 1468.33 Q2204.36 1461.2 2202.53 1457.66 Q2200.73 1454.1 2197.09 1454.1 M2197.09 1450.39 Q2202.9 1450.39 2205.96 1455 Q2209.04 1459.58 2209.04 1468.33 Q2209.04 1477.06 2205.96 1481.67 Q2202.9 1486.25 2197.09 1486.25 Q2191.28 1486.25 2188.2 1481.67 Q2185.15 1477.06 2185.15 1468.33 Q2185.15 1459.58 2188.2 1455 Q2191.28 1450.39 2197.09 1450.39 Z" fill="#000000" fill-rule="nonzero" fill-opacity="1" /><path clip-path="url(#clip540)" d="M994.29 1520.52 L1002.95 1520.52 L1024.02 1560.28 L1024.02 1520.52 L1030.26 1520.52 L1030.26 1568.04 L1021.6 1568.04 L1000.53 1528.29 L1000.53 1568.04 L994.29 1568.04 L994.29 1520.52 Z" fill="#000000" fill-rule="nonzero" fill-opacity="1" /><path clip-path="url(#clip540)" d="M1042.19 1553.98 L1042.19 1532.4 L1048.05 1532.4 L1048.05 1553.75 Q1048.05 1558.81 1050.02 1561.36 Q1052 1563.87 1055.94 1563.87 Q1060.68 1563.87 1063.42 1560.85 Q1066.19 1557.83 1066.19 1552.61 L1066.19 1532.4 L1072.05 1532.4 L1072.05 1568.04 L1066.19 1568.04 L1066.19 1562.57 Q1064.06 1565.82 1061.23 1567.41 Q1058.42 1568.97 1054.7 1568.97 Q1048.56 1568.97 1045.37 1565.15 Q1042.19 1561.33 1042.19 1553.98 M1056.93 1531.54 L1056.93 1531.54 Z" fill="#000000" fill-rule="nonzero" fill-opacity="1" /><path clip-path="url(#clip540)" d="M1111.86 1539.24 Q1114.06 1535.29 1117.12 1533.41 Q1120.17 1531.54 1124.31 1531.54 Q1129.88 1531.54 1132.9 1535.45 Q1135.93 1539.33 1135.93 1546.53 L1135.93 1568.04 L1130.04 1568.04 L1130.04 1546.72 Q1130.04 1541.59 1128.22 1539.11 Q1126.41 1536.63 1122.69 1536.63 Q1118.13 1536.63 1115.49 1539.65 Q1112.85 1542.68 1112.85 1547.9 L1112.85 1568.04 L1106.96 1568.04 L1106.96 1546.72 Q1106.96 1541.56 1105.15 1539.11 Q1103.33 1536.63 1099.55 1536.63 Q1095.06 1536.63 1092.42 1539.68 Q1089.78 1542.71 1089.78 1547.9 L1089.78 1568.04 L1083.89 1568.04 L1083.89 1532.4 L1089.78 1532.4 L1089.78 1537.93 Q1091.78 1534.66 1094.58 1533.1 Q1097.38 1531.54 1101.23 1531.54 Q1105.12 1531.54 1107.82 1533.51 Q1110.56 1535.48 1111.86 1539.24 Z" fill="#000000" fill-rule="nonzero" fill-opacity="1" /><path clip-path="url(#clip540)" d="M1173.2 1550.25 Q1173.2 1543.79 1170.52 1540.13 Q1167.88 1536.44 1163.24 1536.44 Q1158.59 1536.44 1155.92 1540.13 Q1153.27 1543.79 1153.27 1550.25 Q1153.27 1556.71 1155.92 1560.4 Q1158.59 1564.07 1163.24 1564.07 Q1167.88 1564.07 1170.52 1560.4 Q1173.2 1556.71 1173.2 1550.25 M1153.27 1537.81 Q1155.12 1534.62 1157.92 1533.1 Q1160.75 1531.54 1164.67 1531.54 Q1171.16 1531.54 1175.2 1536.69 Q1179.28 1541.85 1179.28 1550.25 Q1179.28 1558.65 1175.2 1563.81 Q1171.16 1568.97 1164.67 1568.97 Q1160.75 1568.97 1157.92 1567.44 Q1155.12 1565.88 1153.27 1562.7 L1153.27 1568.04 L1147.39 1568.04 L1147.39 1518.52 L1153.27 1518.52 L1153.27 1537.81 Z" fill="#000000" fill-rule="nonzero" fill-opacity="1" /><path clip-path="url(#clip540)" d="M1219.48 1548.76 L1219.48 1551.62 L1192.55 1551.62 Q1192.93 1557.67 1196.18 1560.85 Q1199.46 1564 1205.28 1564 Q1208.66 1564 1211.81 1563.17 Q1214.99 1562.35 1218.11 1560.69 L1218.11 1566.23 Q1214.96 1567.57 1211.65 1568.27 Q1208.34 1568.97 1204.93 1568.97 Q1196.4 1568.97 1191.4 1564 Q1186.44 1559.04 1186.44 1550.57 Q1186.44 1541.82 1191.15 1536.69 Q1195.89 1531.54 1203.91 1531.54 Q1211.11 1531.54 1215.28 1536.18 Q1219.48 1540.8 1219.48 1548.76 M1213.62 1547.04 Q1213.56 1542.23 1210.92 1539.37 Q1208.31 1536.5 1203.98 1536.5 Q1199.07 1536.5 1196.11 1539.27 Q1193.19 1542.04 1192.74 1547.07 L1213.62 1547.04 Z" fill="#000000" fill-rule="nonzero" fill-opacity="1" /><path clip-path="url(#clip540)" d="M1249.75 1537.87 Q1248.76 1537.3 1247.58 1537.04 Q1246.44 1536.76 1245.04 1536.76 Q1240.07 1536.76 1237.4 1540 Q1234.75 1543.22 1234.75 1549.27 L1234.75 1568.04 L1228.87 1568.04 L1228.87 1532.4 L1234.75 1532.4 L1234.75 1537.93 Q1236.6 1534.69 1239.56 1533.13 Q1242.52 1531.54 1246.75 1531.54 Q1247.36 1531.54 1248.09 1531.63 Q1248.82 1531.7 1249.71 1531.85 L1249.75 1537.87 Z" fill="#000000" fill-rule="nonzero" fill-opacity="1" /><path clip-path="url(#clip540)" d="M1290.42 1536.5 Q1285.71 1536.5 1282.97 1540.19 Q1280.24 1543.85 1280.24 1550.25 Q1280.24 1556.65 1282.94 1560.34 Q1285.68 1564 1290.42 1564 Q1295.1 1564 1297.84 1560.31 Q1300.58 1556.62 1300.58 1550.25 Q1300.58 1543.92 1297.84 1540.23 Q1295.1 1536.5 1290.42 1536.5 M1290.42 1531.54 Q1298.06 1531.54 1302.42 1536.5 Q1306.78 1541.47 1306.78 1550.25 Q1306.78 1559 1302.42 1564 Q1298.06 1568.97 1290.42 1568.97 Q1282.75 1568.97 1278.39 1564 Q1274.06 1559 1274.06 1550.25 Q1274.06 1541.47 1278.39 1536.5 Q1282.75 1531.54 1290.42 1531.54 Z" fill="#000000" fill-rule="nonzero" fill-opacity="1" /><path clip-path="url(#clip540)" d="M1334.54 1518.52 L1334.54 1523.39 L1328.94 1523.39 Q1325.78 1523.39 1324.54 1524.66 Q1323.33 1525.93 1323.33 1529.24 L1323.33 1532.4 L1332.98 1532.4 L1332.98 1536.95 L1323.33 1536.95 L1323.33 1568.04 L1317.45 1568.04 L1317.45 1536.95 L1311.84 1536.95 L1311.84 1532.4 L1317.45 1532.4 L1317.45 1529.91 Q1317.45 1523.96 1320.21 1521.26 Q1322.98 1518.52 1329 1518.52 L1334.54 1518.52 Z" fill="#000000" fill-rule="nonzero" fill-opacity="1" /><path clip-path="url(#clip540)" d="M1396 1524.18 L1396 1530.96 Q1392.75 1527.94 1389.06 1526.44 Q1385.4 1524.95 1381.26 1524.95 Q1373.11 1524.95 1368.78 1529.95 Q1364.46 1534.91 1364.46 1544.33 Q1364.46 1553.72 1368.78 1558.72 Q1373.11 1563.68 1381.26 1563.68 Q1385.4 1563.68 1389.06 1562.19 Q1392.75 1560.69 1396 1557.67 L1396 1564.38 Q1392.62 1566.68 1388.84 1567.82 Q1385.08 1568.97 1380.88 1568.97 Q1370.09 1568.97 1363.88 1562.38 Q1357.68 1555.76 1357.68 1544.33 Q1357.68 1532.87 1363.88 1526.28 Q1370.09 1519.66 1380.88 1519.66 Q1385.14 1519.66 1388.9 1520.81 Q1392.69 1521.92 1396 1524.18 Z" fill="#000000" fill-rule="nonzero" fill-opacity="1" /><path clip-path="url(#clip540)" d="M1405.67 1518.52 L1411.53 1518.52 L1411.53 1568.04 L1405.67 1568.04 L1405.67 1518.52 Z" fill="#000000" fill-rule="nonzero" fill-opacity="1" /><path clip-path="url(#clip540)" d="M1423.18 1553.98 L1423.18 1532.4 L1429.04 1532.4 L1429.04 1553.75 Q1429.04 1558.81 1431.01 1561.36 Q1432.98 1563.87 1436.93 1563.87 Q1441.67 1563.87 1444.41 1560.85 Q1447.18 1557.83 1447.18 1552.61 L1447.18 1532.4 L1453.03 1532.4 L1453.03 1568.04 L1447.18 1568.04 L1447.18 1562.57 Q1445.05 1565.82 1442.21 1567.41 Q1439.41 1568.97 1435.69 1568.97 Q1429.55 1568.97 1426.36 1565.15 Q1423.18 1561.33 1423.18 1553.98 M1437.92 1531.54 L1437.92 1531.54 Z" fill="#000000" fill-rule="nonzero" fill-opacity="1" /><path clip-path="url(#clip540)" d="M1487.82 1533.45 L1487.82 1538.98 Q1485.34 1537.71 1482.67 1537.07 Q1479.99 1536.44 1477.13 1536.44 Q1472.77 1536.44 1470.57 1537.77 Q1468.41 1539.11 1468.41 1541.79 Q1468.41 1543.82 1469.97 1545 Q1471.53 1546.15 1476.24 1547.2 L1478.24 1547.64 Q1484.48 1548.98 1487.09 1551.43 Q1489.73 1553.85 1489.73 1558.21 Q1489.73 1563.17 1485.79 1566.07 Q1481.87 1568.97 1475 1568.97 Q1472.13 1568.97 1469.01 1568.39 Q1465.93 1567.85 1462.49 1566.74 L1462.49 1560.69 Q1465.73 1562.38 1468.89 1563.24 Q1472.04 1564.07 1475.12 1564.07 Q1479.26 1564.07 1481.49 1562.66 Q1483.72 1561.23 1483.72 1558.65 Q1483.72 1556.27 1482.09 1554.99 Q1480.5 1553.72 1475.06 1552.54 L1473.02 1552.07 Q1467.58 1550.92 1465.16 1548.56 Q1462.74 1546.18 1462.74 1542.04 Q1462.74 1537.01 1466.31 1534.27 Q1469.87 1531.54 1476.43 1531.54 Q1479.68 1531.54 1482.54 1532.01 Q1485.4 1532.49 1487.82 1533.45 Z" fill="#000000" fill-rule="nonzero" fill-opacity="1" /><path clip-path="url(#clip540)" d="M1504.85 1522.27 L1504.85 1532.4 L1516.91 1532.4 L1516.91 1536.95 L1504.85 1536.95 L1504.85 1556.3 Q1504.85 1560.66 1506.03 1561.9 Q1507.24 1563.14 1510.9 1563.14 L1516.91 1563.14 L1516.91 1568.04 L1510.9 1568.04 Q1504.12 1568.04 1501.54 1565.53 Q1498.96 1562.98 1498.96 1556.3 L1498.96 1536.95 L1494.67 1536.95 L1494.67 1532.4 L1498.96 1532.4 L1498.96 1522.27 L1504.85 1522.27 Z" fill="#000000" fill-rule="nonzero" fill-opacity="1" /><path clip-path="url(#clip540)" d="M1555.11 1548.76 L1555.11 1551.62 L1528.18 1551.62 Q1528.56 1557.67 1531.81 1560.85 Q1535.09 1564 1540.91 1564 Q1544.29 1564 1547.44 1563.17 Q1550.62 1562.35 1553.74 1560.69 L1553.74 1566.23 Q1550.59 1567.57 1547.28 1568.27 Q1543.97 1568.97 1540.56 1568.97 Q1532.03 1568.97 1527.04 1564 Q1522.07 1559.04 1522.07 1550.57 Q1522.07 1541.82 1526.78 1536.69 Q1531.52 1531.54 1539.54 1531.54 Q1546.74 1531.54 1550.91 1536.18 Q1555.11 1540.8 1555.11 1548.76 M1549.25 1547.04 Q1549.19 1542.23 1546.55 1539.37 Q1543.94 1536.5 1539.61 1536.5 Q1534.71 1536.5 1531.75 1539.27 Q1528.82 1542.04 1528.37 1547.07 L1549.25 1547.04 Z" fill="#000000" fill-rule="nonzero" fill-opacity="1" /><path clip-path="url(#clip540)" d="M1585.38 1537.87 Q1584.39 1537.3 1583.21 1537.04 Q1582.07 1536.76 1580.67 1536.76 Q1575.7 1536.76 1573.03 1540 Q1570.39 1543.22 1570.39 1549.27 L1570.39 1568.04 L1564.5 1568.04 L1564.5 1532.4 L1570.39 1532.4 L1570.39 1537.93 Q1572.23 1534.69 1575.19 1533.13 Q1578.15 1531.54 1582.39 1531.54 Q1582.99 1531.54 1583.72 1531.63 Q1584.45 1531.7 1585.35 1531.85 L1585.38 1537.87 Z" fill="#000000" fill-rule="nonzero" fill-opacity="1" /><path clip-path="url(#clip540)" d="M1614.25 1533.45 L1614.25 1538.98 Q1611.76 1537.71 1609.09 1537.07 Q1606.42 1536.44 1603.55 1536.44 Q1599.19 1536.44 1597 1537.77 Q1594.83 1539.11 1594.83 1541.79 Q1594.83 1543.82 1596.39 1545 Q1597.95 1546.15 1602.66 1547.2 L1604.67 1547.64 Q1610.9 1548.98 1613.51 1551.43 Q1616.16 1553.85 1616.16 1558.21 Q1616.16 1563.17 1612.21 1566.07 Q1608.29 1568.97 1601.42 1568.97 Q1598.55 1568.97 1595.44 1568.39 Q1592.35 1567.85 1588.91 1566.74 L1588.91 1560.69 Q1592.16 1562.38 1595.31 1563.24 Q1598.46 1564.07 1601.55 1564.07 Q1605.68 1564.07 1607.91 1562.66 Q1610.14 1561.23 1610.14 1558.65 Q1610.14 1556.27 1608.52 1554.99 Q1606.93 1553.72 1601.48 1552.54 L1599.45 1552.07 Q1594 1550.92 1591.58 1548.56 Q1589.17 1546.18 1589.17 1542.04 Q1589.17 1537.01 1592.73 1534.27 Q1596.29 1531.54 1602.85 1531.54 Q1606.1 1531.54 1608.96 1532.01 Q1611.83 1532.49 1614.25 1533.45 Z" fill="#000000" fill-rule="nonzero" fill-opacity="1" /><polyline clip-path="url(#clip542)" style="stroke:#000000; stroke-linecap:round; stroke-linejoin:round; stroke-width:2; stroke-opacity:0.1; fill:none" points="257.69,1379.82 2352.76,1379.82 "/>
<polyline clip-path="url(#clip542)" style="stroke:#000000; stroke-linecap:round; stroke-linejoin:round; stroke-width:2; stroke-opacity:0.1; fill:none" points="257.69,1125.4 2352.76,1125.4 "/>
<polyline clip-path="url(#clip542)" style="stroke:#000000; stroke-linecap:round; stroke-linejoin:round; stroke-width:2; stroke-opacity:0.1; fill:none" points="257.69,870.98 2352.76,870.98 "/>
<polyline clip-path="url(#clip542)" style="stroke:#000000; stroke-linecap:round; stroke-linejoin:round; stroke-width:2; stroke-opacity:0.1; fill:none" points="257.69,616.562 2352.76,616.562 "/>
<polyline clip-path="url(#clip542)" style="stroke:#000000; stroke-linecap:round; stroke-linejoin:round; stroke-width:2; stroke-opacity:0.1; fill:none" points="257.69,362.144 2352.76,362.144 "/>
<polyline clip-path="url(#clip540)" style="stroke:#000000; stroke-linecap:round; stroke-linejoin:round; stroke-width:4; stroke-opacity:1; fill:none" points="257.69,1423.18 257.69,123.472 "/>
<polyline clip-path="url(#clip540)" style="stroke:#000000; stroke-linecap:round; stroke-linejoin:round; stroke-width:4; stroke-opacity:1; fill:none" points="257.69,1379.82 276.588,1379.82 "/>
<polyline clip-path="url(#clip540)" style="stroke:#000000; stroke-linecap:round; stroke-linejoin:round; stroke-width:4; stroke-opacity:1; fill:none" points="257.69,1125.4 276.588,1125.4 "/>
<polyline clip-path="url(#clip540)" style="stroke:#000000; stroke-linecap:round; stroke-linejoin:round; stroke-width:4; stroke-opacity:1; fill:none" points="257.69,870.98 276.588,870.98 "/>
<polyline clip-path="url(#clip540)" style="stroke:#000000; stroke-linecap:round; stroke-linejoin:round; stroke-width:4; stroke-opacity:1; fill:none" points="257.69,616.562 276.588,616.562 "/>
<polyline clip-path="url(#clip540)" style="stroke:#000000; stroke-linecap:round; stroke-linejoin:round; stroke-width:4; stroke-opacity:1; fill:none" points="257.69,362.144 276.588,362.144 "/>
<path clip-path="url(#clip540)" d="M114.584 1380.27 L144.26 1380.27 L144.26 1384.2 L114.584 1384.2 L114.584 1380.27 Z" fill="#000000" fill-rule="nonzero" fill-opacity="1" /><path clip-path="url(#clip540)" d="M164.352 1365.62 Q160.741 1365.62 158.913 1369.18 Q157.107 1372.72 157.107 1379.85 Q157.107 1386.96 158.913 1390.52 Q160.741 1394.06 164.352 1394.06 Q167.987 1394.06 169.792 1390.52 Q171.621 1386.96 171.621 1379.85 Q171.621 1372.72 169.792 1369.18 Q167.987 1365.62 164.352 1365.62 M164.352 1361.91 Q170.163 1361.91 173.218 1366.52 Q176.297 1371.1 176.297 1379.85 Q176.297 1388.58 173.218 1393.18 Q170.163 1397.77 164.352 1397.77 Q158.542 1397.77 155.464 1393.18 Q152.408 1388.58 152.408 1379.85 Q152.408 1371.1 155.464 1366.52 Q158.542 1361.91 164.352 1361.91 Z" fill="#000000" fill-rule="nonzero" fill-opacity="1" /><path clip-path="url(#clip540)" d="M184.514 1391.22 L189.399 1391.22 L189.399 1397.1 L184.514 1397.1 L184.514 1391.22 Z" fill="#000000" fill-rule="nonzero" fill-opacity="1" /><path clip-path="url(#clip540)" d="M210.162 1377.95 Q207.014 1377.95 205.162 1380.11 Q203.334 1382.26 203.334 1386.01 Q203.334 1389.74 205.162 1391.91 Q207.014 1394.06 210.162 1394.06 Q213.311 1394.06 215.139 1391.91 Q216.991 1389.74 216.991 1386.01 Q216.991 1382.26 215.139 1380.11 Q213.311 1377.95 210.162 1377.95 M219.445 1363.3 L219.445 1367.56 Q217.686 1366.73 215.88 1366.29 Q214.098 1365.85 212.338 1365.85 Q207.709 1365.85 205.255 1368.97 Q202.824 1372.1 202.477 1378.42 Q203.843 1376.4 205.903 1375.34 Q207.963 1374.25 210.44 1374.25 Q215.649 1374.25 218.658 1377.42 Q221.69 1380.57 221.69 1386.01 Q221.69 1391.33 218.542 1394.55 Q215.394 1397.77 210.162 1397.77 Q204.167 1397.77 200.996 1393.18 Q197.825 1388.58 197.825 1379.85 Q197.825 1371.66 201.713 1366.8 Q205.602 1361.91 212.153 1361.91 Q213.912 1361.91 215.695 1362.26 Q217.5 1362.61 219.445 1363.3 Z" fill="#000000" fill-rule="nonzero" fill-opacity="1" /><path clip-path="url(#clip540)" d="M114.26 1125.85 L143.936 1125.85 L143.936 1129.79 L114.26 1129.79 L114.26 1125.85 Z" fill="#000000" fill-rule="nonzero" fill-opacity="1" /><path clip-path="url(#clip540)" d="M164.028 1111.2 Q160.417 1111.2 158.589 1114.76 Q156.783 1118.3 156.783 1125.43 Q156.783 1132.54 158.589 1136.1 Q160.417 1139.65 164.028 1139.65 Q167.663 1139.65 169.468 1136.1 Q171.297 1132.54 171.297 1125.43 Q171.297 1118.3 169.468 1114.76 Q167.663 1111.2 164.028 1111.2 M164.028 1107.49 Q169.839 1107.49 172.894 1112.1 Q175.973 1116.68 175.973 1125.43 Q175.973 1134.16 172.894 1138.77 Q169.839 1143.35 164.028 1143.35 Q158.218 1143.35 155.14 1138.77 Q152.084 1134.16 152.084 1125.43 Q152.084 1116.68 155.14 1112.1 Q158.218 1107.49 164.028 1107.49 Z" fill="#000000" fill-rule="nonzero" fill-opacity="1" /><path clip-path="url(#clip540)" d="M184.19 1136.8 L189.075 1136.8 L189.075 1142.68 L184.19 1142.68 L184.19 1136.8 Z" fill="#000000" fill-rule="nonzero" fill-opacity="1" /><path clip-path="url(#clip540)" d="M212.107 1112.19 L200.301 1130.64 L212.107 1130.64 L212.107 1112.19 M210.88 1108.12 L216.76 1108.12 L216.76 1130.64 L221.69 1130.64 L221.69 1134.53 L216.76 1134.53 L216.76 1142.68 L212.107 1142.68 L212.107 1134.53 L196.505 1134.53 L196.505 1130.02 L210.88 1108.12 Z" fill="#000000" fill-rule="nonzero" fill-opacity="1" /><path clip-path="url(#clip540)" d="M116.343 871.432 L146.019 871.432 L146.019 875.367 L116.343 875.367 L116.343 871.432 Z" fill="#000000" fill-rule="nonzero" fill-opacity="1" /><path clip-path="url(#clip540)" d="M166.112 856.779 Q162.501 856.779 160.672 860.344 Q158.866 863.885 158.866 871.015 Q158.866 878.121 160.672 881.686 Q162.501 885.228 166.112 885.228 Q169.746 885.228 171.552 881.686 Q173.38 878.121 173.38 871.015 Q173.38 863.885 171.552 860.344 Q169.746 856.779 166.112 856.779 M166.112 853.075 Q171.922 853.075 174.977 857.682 Q178.056 862.265 178.056 871.015 Q178.056 879.742 174.977 884.348 Q171.922 888.932 166.112 888.932 Q160.302 888.932 157.223 884.348 Q154.167 879.742 154.167 871.015 Q154.167 862.265 157.223 857.682 Q160.302 853.075 166.112 853.075 Z" fill="#000000" fill-rule="nonzero" fill-opacity="1" /><path clip-path="url(#clip540)" d="M186.274 882.381 L191.158 882.381 L191.158 888.26 L186.274 888.26 L186.274 882.381 Z" fill="#000000" fill-rule="nonzero" fill-opacity="1" /><path clip-path="url(#clip540)" d="M205.371 884.325 L221.69 884.325 L221.69 888.26 L199.746 888.26 L199.746 884.325 Q202.408 881.57 206.991 876.941 Q211.598 872.288 212.778 870.946 Q215.024 868.422 215.903 866.686 Q216.806 864.927 216.806 863.237 Q216.806 860.483 214.861 858.747 Q212.94 857.01 209.838 857.01 Q207.639 857.01 205.186 857.774 Q202.755 858.538 199.977 860.089 L199.977 855.367 Q202.801 854.233 205.255 853.654 Q207.709 853.075 209.746 853.075 Q215.116 853.075 218.311 855.76 Q221.505 858.446 221.505 862.936 Q221.505 865.066 220.695 866.987 Q219.908 868.885 217.801 871.478 Q217.223 872.149 214.121 875.367 Q211.019 878.561 205.371 884.325 Z" fill="#000000" fill-rule="nonzero" fill-opacity="1" /><path clip-path="url(#clip540)" d="M164.515 602.361 Q160.903 602.361 159.075 605.925 Q157.269 609.467 157.269 616.597 Q157.269 623.703 159.075 627.268 Q160.903 630.81 164.515 630.81 Q168.149 630.81 169.954 627.268 Q171.783 623.703 171.783 616.597 Q171.783 609.467 169.954 605.925 Q168.149 602.361 164.515 602.361 M164.515 598.657 Q170.325 598.657 173.38 603.263 Q176.459 607.847 176.459 616.597 Q176.459 625.323 173.38 629.93 Q170.325 634.513 164.515 634.513 Q158.704 634.513 155.626 629.93 Q152.57 625.323 152.57 616.597 Q152.57 607.847 155.626 603.263 Q158.704 598.657 164.515 598.657 Z" fill="#000000" fill-rule="nonzero" fill-opacity="1" /><path clip-path="url(#clip540)" d="M184.676 627.962 L189.561 627.962 L189.561 633.842 L184.676 633.842 L184.676 627.962 Z" fill="#000000" fill-rule="nonzero" fill-opacity="1" /><path clip-path="url(#clip540)" d="M209.746 602.361 Q206.135 602.361 204.306 605.925 Q202.5 609.467 202.5 616.597 Q202.5 623.703 204.306 627.268 Q206.135 630.81 209.746 630.81 Q213.38 630.81 215.186 627.268 Q217.014 623.703 217.014 616.597 Q217.014 609.467 215.186 605.925 Q213.38 602.361 209.746 602.361 M209.746 598.657 Q215.556 598.657 218.611 603.263 Q221.69 607.847 221.69 616.597 Q221.69 625.323 218.611 629.93 Q215.556 634.513 209.746 634.513 Q203.936 634.513 200.857 629.93 Q197.801 625.323 197.801 616.597 Q197.801 607.847 200.857 603.263 Q203.936 598.657 209.746 598.657 Z" fill="#000000" fill-rule="nonzero" fill-opacity="1" /><path clip-path="url(#clip540)" d="M166.112 347.942 Q162.501 347.942 160.672 351.507 Q158.866 355.049 158.866 362.178 Q158.866 369.285 160.672 372.85 Q162.501 376.391 166.112 376.391 Q169.746 376.391 171.552 372.85 Q173.38 369.285 173.38 362.178 Q173.38 355.049 171.552 351.507 Q169.746 347.942 166.112 347.942 M166.112 344.239 Q171.922 344.239 174.977 348.845 Q178.056 353.428 178.056 362.178 Q178.056 370.905 174.977 375.512 Q171.922 380.095 166.112 380.095 Q160.302 380.095 157.223 375.512 Q154.167 370.905 154.167 362.178 Q154.167 353.428 157.223 348.845 Q160.302 344.239 166.112 344.239 Z" fill="#000000" fill-rule="nonzero" fill-opacity="1" /><path clip-path="url(#clip540)" d="M186.274 373.544 L191.158 373.544 L191.158 379.424 L186.274 379.424 L186.274 373.544 Z" fill="#000000" fill-rule="nonzero" fill-opacity="1" /><path clip-path="url(#clip540)" d="M205.371 375.488 L221.69 375.488 L221.69 379.424 L199.746 379.424 L199.746 375.488 Q202.408 372.734 206.991 368.104 Q211.598 363.451 212.778 362.109 Q215.024 359.586 215.903 357.85 Q216.806 356.09 216.806 354.401 Q216.806 351.646 214.861 349.91 Q212.94 348.174 209.838 348.174 Q207.639 348.174 205.186 348.938 Q202.755 349.702 199.977 351.252 L199.977 346.53 Q202.801 345.396 205.255 344.817 Q207.709 344.239 209.746 344.239 Q215.116 344.239 218.311 346.924 Q221.505 349.609 221.505 354.1 Q221.505 356.229 220.695 358.151 Q219.908 360.049 217.801 362.641 Q217.223 363.313 214.121 366.53 Q211.019 369.725 205.371 375.488 Z" fill="#000000" fill-rule="nonzero" fill-opacity="1" /><path clip-path="url(#clip540)" d="M16.4842 957.947 L16.4842 948.367 L48.8219 936.24 L16.4842 924.05 L16.4842 914.47 L64.0042 914.47 L64.0042 920.74 L22.277 920.74 L54.8694 932.994 L54.8694 939.455 L22.277 951.709 L64.0042 951.709 L64.0042 957.947 L16.4842 957.947 Z" fill="#000000" fill-rule="nonzero" fill-opacity="1" /><path clip-path="url(#clip540)" d="M44.7161 871.469 L47.5806 871.469 L47.5806 898.396 Q53.6281 898.014 56.8109 894.768 Q59.9619 891.489 59.9619 885.665 Q59.9619 882.291 59.1344 879.14 Q58.3069 875.957 56.6518 872.838 L62.1899 872.838 Q63.5267 875.989 64.227 879.299 Q64.9272 882.609 64.9272 886.015 Q64.9272 894.545 59.9619 899.542 Q54.9967 904.507 46.5303 904.507 Q37.7774 904.507 32.6531 899.797 Q27.4968 895.054 27.4968 887.033 Q27.4968 879.84 32.1438 875.671 Q36.7589 871.469 44.7161 871.469 M42.9973 877.326 Q38.1912 877.389 35.3266 880.031 Q32.4621 882.641 32.4621 886.97 Q32.4621 891.871 35.2312 894.831 Q38.0002 897.76 43.0292 898.205 L42.9973 877.326 Z" fill="#000000" fill-rule="nonzero" fill-opacity="1" /><path clip-path="url(#clip540)" d="M46.0847 845.656 Q46.0847 852.754 47.7079 855.491 Q49.3312 858.229 53.2461 858.229 Q56.3653 858.229 58.2114 856.192 Q60.0256 854.123 60.0256 850.59 Q60.0256 845.72 56.5881 842.792 Q53.1188 839.832 47.3897 839.832 L46.0847 839.832 L46.0847 845.656 M43.6657 833.975 L64.0042 833.975 L64.0042 839.832 L58.5933 839.832 Q61.8398 841.837 63.3994 844.829 Q64.9272 847.821 64.9272 852.149 Q64.9272 857.624 61.8716 860.87 Q58.7843 864.085 53.6281 864.085 Q47.6125 864.085 44.5569 860.075 Q41.5014 856.032 41.5014 848.043 L41.5014 839.832 L40.9285 839.832 Q36.8862 839.832 34.6901 842.505 Q32.4621 845.147 32.4621 849.953 Q32.4621 853.009 33.1941 855.905 Q33.9262 858.802 35.3903 861.475 L29.9795 861.475 Q28.7381 858.26 28.1334 855.237 Q27.4968 852.213 27.4968 849.348 Q27.4968 841.614 31.5072 837.795 Q35.5176 833.975 43.6657 833.975 Z" fill="#000000" fill-rule="nonzero" fill-opacity="1" /><path clip-path="url(#clip540)" d="M42.4881 792.28 L64.0042 792.28 L64.0042 798.136 L42.679 798.136 Q37.6183 798.136 35.1038 800.11 Q32.5894 802.083 32.5894 806.03 Q32.5894 810.772 35.6131 813.51 Q38.6368 816.247 43.8567 816.247 L64.0042 816.247 L64.0042 822.135 L28.3562 822.135 L28.3562 816.247 L33.8944 816.247 Q30.6797 814.146 29.0883 811.313 Q27.4968 808.449 27.4968 804.725 Q27.4968 798.582 31.3163 795.431 Q35.1038 792.28 42.4881 792.28 Z" fill="#000000" fill-rule="nonzero" fill-opacity="1" /><path clip-path="url(#clip540)" d="M16.4842 759.624 L16.4842 753.194 L64.0042 753.194 L64.0042 759.624 L16.4842 759.624 Z" fill="#000000" fill-rule="nonzero" fill-opacity="1" /><path clip-path="url(#clip540)" d="M42.4881 711.022 L64.0042 711.022 L64.0042 716.878 L42.679 716.878 Q37.6183 716.878 35.1038 718.851 Q32.5894 720.825 32.5894 724.772 Q32.5894 729.514 35.6131 732.251 Q38.6368 734.989 43.8567 734.989 L64.0042 734.989 L64.0042 740.877 L28.3562 740.877 L28.3562 734.989 L33.8944 734.989 Q30.6797 732.888 29.0883 730.055 Q27.4968 727.191 27.4968 723.467 Q27.4968 717.324 31.3163 714.173 Q35.1038 711.022 42.4881 711.022 Z" fill="#000000" fill-rule="nonzero" fill-opacity="1" /><path clip-path="url(#clip540)" d="M33.7671 675.883 L14.479 675.883 L14.479 670.026 L64.0042 670.026 L64.0042 675.883 L58.657 675.883 Q61.8398 677.729 63.3994 680.562 Q64.9272 683.363 64.9272 687.309 Q64.9272 693.771 59.771 697.845 Q54.6147 701.887 46.212 701.887 Q37.8093 701.887 32.6531 697.845 Q27.4968 693.771 27.4968 687.309 Q27.4968 683.363 29.0564 680.562 Q30.5842 677.729 33.7671 675.883 M46.212 695.839 Q52.6732 695.839 56.3653 693.198 Q60.0256 690.524 60.0256 685.877 Q60.0256 681.23 56.3653 678.557 Q52.6732 675.883 46.212 675.883 Q39.7508 675.883 36.0905 678.557 Q32.3984 681.23 32.3984 685.877 Q32.3984 690.524 36.0905 693.198 Q39.7508 695.839 46.212 695.839 Z" fill="#000000" fill-rule="nonzero" fill-opacity="1" /><path clip-path="url(#clip540)" d="M44.7161 627.472 L47.5806 627.472 L47.5806 654.399 Q53.6281 654.017 56.8109 650.77 Q59.9619 647.492 59.9619 641.667 Q59.9619 638.293 59.1344 635.142 Q58.3069 631.96 56.6518 628.84 L62.1899 628.84 Q63.5267 631.991 64.227 635.302 Q64.9272 638.612 64.9272 642.017 Q64.9272 650.547 59.9619 655.544 Q54.9967 660.51 46.5303 660.51 Q37.7774 660.51 32.6531 655.799 Q27.4968 651.057 27.4968 643.036 Q27.4968 635.843 32.1438 631.673 Q36.7589 627.472 44.7161 627.472 M42.9973 633.328 Q38.1912 633.392 35.3266 636.034 Q32.4621 638.644 32.4621 642.972 Q32.4621 647.874 35.2312 650.834 Q38.0002 653.762 43.0292 654.208 L42.9973 633.328 Z" fill="#000000" fill-rule="nonzero" fill-opacity="1" /><path clip-path="url(#clip540)" d="M28.3562 589.373 L45.7028 602.264 L64.0042 588.705 L64.0042 595.611 L49.9996 605.987 L64.0042 616.364 L64.0042 623.27 L45.3526 609.425 L28.3562 622.093 L28.3562 615.186 L41.0558 605.733 L28.3562 596.28 L28.3562 589.373 Z" fill="#000000" fill-rule="nonzero" fill-opacity="1" /><path clip-path="url(#clip540)" d="M909.49 12.096 L920.509 12.096 L947.326 62.6918 L947.326 12.096 L955.265 12.096 L955.265 72.576 L944.247 72.576 L917.43 21.9802 L917.43 72.576 L909.49 72.576 L909.49 12.096 Z" fill="#000000" fill-rule="nonzero" fill-opacity="1" /><path clip-path="url(#clip540)" d="M970.456 54.671 L970.456 27.2059 L977.91 27.2059 L977.91 54.3874 Q977.91 60.8284 980.422 64.0691 Q982.933 67.2693 987.956 67.2693 Q993.992 67.2693 997.476 63.421 Q1001 59.5726 1001 52.9291 L1001 27.2059 L1008.45 27.2059 L1008.45 72.576 L1001 72.576 L1001 65.6084 Q998.286 69.7404 994.681 71.7658 Q991.116 73.7508 986.376 73.7508 Q978.558 73.7508 974.507 68.8897 Q970.456 64.0286 970.456 54.671 M989.212 26.1121 L989.212 26.1121 Z" fill="#000000" fill-rule="nonzero" fill-opacity="1" /><path clip-path="url(#clip540)" d="M1059.13 35.9153 Q1061.93 30.8922 1065.81 28.5022 Q1069.7 26.1121 1074.97 26.1121 Q1082.06 26.1121 1085.91 31.0947 Q1089.76 36.0368 1089.76 45.1919 L1089.76 72.576 L1082.26 72.576 L1082.26 45.4349 Q1082.26 38.913 1079.95 35.7533 Q1077.64 32.5936 1072.9 32.5936 Q1067.11 32.5936 1063.75 36.4419 Q1060.39 40.2903 1060.39 46.9338 L1060.39 72.576 L1052.89 72.576 L1052.89 45.4349 Q1052.89 38.8725 1050.58 35.7533 Q1048.27 32.5936 1043.45 32.5936 Q1037.74 32.5936 1034.38 36.4824 Q1031.02 40.3308 1031.02 46.9338 L1031.02 72.576 L1023.52 72.576 L1023.52 27.2059 L1031.02 27.2059 L1031.02 34.2544 Q1033.57 30.082 1037.13 28.0971 Q1040.7 26.1121 1045.6 26.1121 Q1050.54 26.1121 1053.99 28.6237 Q1057.47 31.1352 1059.13 35.9153 Z" fill="#000000" fill-rule="nonzero" fill-opacity="1" /><path clip-path="url(#clip540)" d="M1137.19 49.9314 Q1137.19 41.7081 1133.79 37.0496 Q1130.43 32.3505 1124.51 32.3505 Q1118.6 32.3505 1115.2 37.0496 Q1111.83 41.7081 1111.83 49.9314 Q1111.83 58.1548 1115.2 62.8538 Q1118.6 67.5124 1124.51 67.5124 Q1130.43 67.5124 1133.79 62.8538 Q1137.19 58.1548 1137.19 49.9314 M1111.83 34.0924 Q1114.18 30.0415 1117.75 28.0971 Q1121.35 26.1121 1126.34 26.1121 Q1134.6 26.1121 1139.74 32.6746 Q1144.93 39.2371 1144.93 49.9314 Q1144.93 60.6258 1139.74 67.1883 Q1134.6 73.7508 1126.34 73.7508 Q1121.35 73.7508 1117.75 71.8063 Q1114.18 69.8214 1111.83 65.7705 L1111.83 72.576 L1104.34 72.576 L1104.34 9.54393 L1111.83 9.54393 L1111.83 34.0924 Z" fill="#000000" fill-rule="nonzero" fill-opacity="1" /><path clip-path="url(#clip540)" d="M1196.09 48.0275 L1196.09 51.6733 L1161.82 51.6733 Q1162.31 59.3701 1166.44 63.421 Q1170.61 67.4314 1178.02 67.4314 Q1182.32 67.4314 1186.33 66.3781 Q1190.38 65.3249 1194.35 63.2184 L1194.35 70.267 Q1190.34 71.9684 1186.13 72.8596 Q1181.91 73.7508 1177.58 73.7508 Q1166.72 73.7508 1160.36 67.4314 Q1154.04 61.1119 1154.04 50.3365 Q1154.04 39.1965 1160.04 32.6746 Q1166.07 26.1121 1176.28 26.1121 Q1185.44 26.1121 1190.74 32.0264 Q1196.09 37.9003 1196.09 48.0275 M1188.64 45.84 Q1188.56 39.7232 1185.19 36.0774 Q1181.87 32.4315 1176.36 32.4315 Q1170.13 32.4315 1166.36 35.9558 Q1162.63 39.4801 1162.06 45.8805 L1188.64 45.84 Z" fill="#000000" fill-rule="nonzero" fill-opacity="1" /><path clip-path="url(#clip540)" d="M1234.62 34.1734 Q1233.36 33.4443 1231.86 33.1202 Q1230.4 32.7556 1228.62 32.7556 Q1222.3 32.7556 1218.9 36.8875 Q1215.54 40.9789 1215.54 48.6757 L1215.54 72.576 L1208.04 72.576 L1208.04 27.2059 L1215.54 27.2059 L1215.54 34.2544 Q1217.89 30.1225 1221.65 28.1376 Q1225.42 26.1121 1230.81 26.1121 Q1231.58 26.1121 1232.51 26.2337 Q1233.44 26.3147 1234.58 26.5172 L1234.62 34.1734 Z" fill="#000000" fill-rule="nonzero" fill-opacity="1" /><path clip-path="url(#clip540)" d="M1286.39 32.4315 Q1280.39 32.4315 1276.91 37.1306 Q1273.42 41.7891 1273.42 49.9314 Q1273.42 58.0738 1276.87 62.7728 Q1280.35 67.4314 1286.39 67.4314 Q1292.34 67.4314 1295.82 62.7323 Q1299.31 58.0333 1299.31 49.9314 Q1299.31 41.8701 1295.82 37.1711 Q1292.34 32.4315 1286.39 32.4315 M1286.39 26.1121 Q1296.11 26.1121 1301.66 32.4315 Q1307.21 38.7509 1307.21 49.9314 Q1307.21 61.0714 1301.66 67.4314 Q1296.11 73.7508 1286.39 73.7508 Q1276.62 73.7508 1271.07 67.4314 Q1265.56 61.0714 1265.56 49.9314 Q1265.56 38.7509 1271.07 32.4315 Q1276.62 26.1121 1286.39 26.1121 Z" fill="#000000" fill-rule="nonzero" fill-opacity="1" /><path clip-path="url(#clip540)" d="M1342.53 9.54393 L1342.53 15.7418 L1335.4 15.7418 Q1331.39 15.7418 1329.81 17.3622 Q1328.27 18.9825 1328.27 23.1955 L1328.27 27.2059 L1340.55 27.2059 L1340.55 32.9987 L1328.27 32.9987 L1328.27 72.576 L1320.78 72.576 L1320.78 32.9987 L1313.65 32.9987 L1313.65 27.2059 L1320.78 27.2059 L1320.78 24.0462 Q1320.78 16.471 1324.3 13.0277 Q1327.83 9.54393 1335.48 9.54393 L1342.53 9.54393 Z" fill="#000000" fill-rule="nonzero" fill-opacity="1" /><path clip-path="url(#clip540)" d="M1420.75 16.7545 L1420.75 25.383 Q1416.62 21.5346 1411.92 19.6307 Q1407.27 17.7268 1402 17.7268 Q1391.63 17.7268 1386.12 24.0867 Q1380.61 30.4061 1380.61 42.3968 Q1380.61 54.3469 1386.12 60.7069 Q1391.63 67.0263 1402 67.0263 Q1407.27 67.0263 1411.92 65.1223 Q1416.62 63.2184 1420.75 59.3701 L1420.75 67.9175 Q1416.46 70.8341 1411.64 72.2924 Q1406.86 73.7508 1401.51 73.7508 Q1387.78 73.7508 1379.88 65.3654 Q1371.98 56.9395 1371.98 42.3968 Q1371.98 27.8135 1379.88 19.4281 Q1387.78 11.0023 1401.51 11.0023 Q1406.94 11.0023 1411.72 12.4606 Q1416.54 13.8784 1420.75 16.7545 Z" fill="#000000" fill-rule="nonzero" fill-opacity="1" /><path clip-path="url(#clip540)" d="M1433.07 9.54393 L1440.52 9.54393 L1440.52 72.576 L1433.07 72.576 L1433.07 9.54393 Z" fill="#000000" fill-rule="nonzero" fill-opacity="1" /><path clip-path="url(#clip540)" d="M1455.35 54.671 L1455.35 27.2059 L1462.8 27.2059 L1462.8 54.3874 Q1462.8 60.8284 1465.31 64.0691 Q1467.83 67.2693 1472.85 67.2693 Q1478.89 67.2693 1482.37 63.421 Q1485.89 59.5726 1485.89 52.9291 L1485.89 27.2059 L1493.35 27.2059 L1493.35 72.576 L1485.89 72.576 L1485.89 65.6084 Q1483.18 69.7404 1479.57 71.7658 Q1476.01 73.7508 1471.27 73.7508 Q1463.45 73.7508 1459.4 68.8897 Q1455.35 64.0286 1455.35 54.671 M1474.11 26.1121 L1474.11 26.1121 Z" fill="#000000" fill-rule="nonzero" fill-opacity="1" /><path clip-path="url(#clip540)" d="M1537.62 28.5427 L1537.62 35.5912 Q1534.46 33.9709 1531.06 33.1607 Q1527.66 32.3505 1524.01 32.3505 Q1518.46 32.3505 1515.67 34.0519 Q1512.91 35.7533 1512.91 39.156 Q1512.91 41.7486 1514.9 43.2475 Q1516.88 44.7058 1522.88 46.0426 L1525.43 46.6097 Q1533.37 48.3111 1536.69 51.4303 Q1540.05 54.509 1540.05 60.0587 Q1540.05 66.3781 1535.03 70.0644 Q1530.05 73.7508 1521.3 73.7508 Q1517.65 73.7508 1513.68 73.0216 Q1509.75 72.3329 1505.38 70.9151 L1505.38 63.2184 Q1509.51 65.3654 1513.52 66.4591 Q1517.53 67.5124 1521.46 67.5124 Q1526.73 67.5124 1529.56 65.73 Q1532.4 63.9071 1532.4 60.6258 Q1532.4 57.5877 1530.33 55.9673 Q1528.31 54.3469 1521.38 52.8481 L1518.79 52.2405 Q1511.86 50.7821 1508.78 47.7845 Q1505.7 44.7463 1505.7 39.4801 Q1505.7 33.0797 1510.24 29.5959 Q1514.78 26.1121 1523.12 26.1121 Q1527.25 26.1121 1530.9 26.7198 Q1534.54 27.3274 1537.62 28.5427 Z" fill="#000000" fill-rule="nonzero" fill-opacity="1" /><path clip-path="url(#clip540)" d="M1559.3 14.324 L1559.3 27.2059 L1574.65 27.2059 L1574.65 32.9987 L1559.3 32.9987 L1559.3 57.6282 Q1559.3 63.1779 1560.79 64.7578 Q1562.33 66.3376 1566.99 66.3376 L1574.65 66.3376 L1574.65 72.576 L1566.99 72.576 Q1558.36 72.576 1555.08 69.3758 Q1551.8 66.1351 1551.8 57.6282 L1551.8 32.9987 L1546.33 32.9987 L1546.33 27.2059 L1551.8 27.2059 L1551.8 14.324 L1559.3 14.324 Z" fill="#000000" fill-rule="nonzero" fill-opacity="1" /><path clip-path="url(#clip540)" d="M1623.26 48.0275 L1623.26 51.6733 L1588.99 51.6733 Q1589.47 59.3701 1593.61 63.421 Q1597.78 67.4314 1605.19 67.4314 Q1609.49 67.4314 1613.5 66.3781 Q1617.55 65.3249 1621.52 63.2184 L1621.52 70.267 Q1617.51 71.9684 1613.29 72.8596 Q1609.08 73.7508 1604.75 73.7508 Q1593.89 73.7508 1587.53 67.4314 Q1581.21 61.1119 1581.21 50.3365 Q1581.21 39.1965 1587.21 32.6746 Q1593.24 26.1121 1603.45 26.1121 Q1612.61 26.1121 1617.91 32.0264 Q1623.26 37.9003 1623.26 48.0275 M1615.81 45.84 Q1615.72 39.7232 1612.36 36.0774 Q1609.04 32.4315 1603.53 32.4315 Q1597.29 32.4315 1593.53 35.9558 Q1589.8 39.4801 1589.23 45.8805 L1615.81 45.84 Z" fill="#000000" fill-rule="nonzero" fill-opacity="1" /><path clip-path="url(#clip540)" d="M1661.78 34.1734 Q1660.53 33.4443 1659.03 33.1202 Q1657.57 32.7556 1655.79 32.7556 Q1649.47 32.7556 1646.07 36.8875 Q1642.7 40.9789 1642.7 48.6757 L1642.7 72.576 L1635.21 72.576 L1635.21 27.2059 L1642.7 27.2059 L1642.7 34.2544 Q1645.05 30.1225 1648.82 28.1376 Q1652.59 26.1121 1657.98 26.1121 Q1658.75 26.1121 1659.68 26.2337 Q1660.61 26.3147 1661.74 26.5172 L1661.78 34.1734 Z" fill="#000000" fill-rule="nonzero" fill-opacity="1" /><path clip-path="url(#clip540)" d="M1698.53 28.5427 L1698.53 35.5912 Q1695.37 33.9709 1691.96 33.1607 Q1688.56 32.3505 1684.91 32.3505 Q1679.36 32.3505 1676.57 34.0519 Q1673.81 35.7533 1673.81 39.156 Q1673.81 41.7486 1675.8 43.2475 Q1677.78 44.7058 1683.78 46.0426 L1686.33 46.6097 Q1694.27 48.3111 1697.59 51.4303 Q1700.96 54.509 1700.96 60.0587 Q1700.96 66.3781 1695.93 70.0644 Q1690.95 73.7508 1682.2 73.7508 Q1678.55 73.7508 1674.58 73.0216 Q1670.66 72.3329 1666.28 70.9151 L1666.28 63.2184 Q1670.41 65.3654 1674.42 66.4591 Q1678.43 67.5124 1682.36 67.5124 Q1687.63 67.5124 1690.46 65.73 Q1693.3 63.9071 1693.3 60.6258 Q1693.3 57.5877 1691.23 55.9673 Q1689.21 54.3469 1682.28 52.8481 L1679.69 52.2405 Q1672.76 50.7821 1669.68 47.7845 Q1666.6 44.7463 1666.6 39.4801 Q1666.6 33.0797 1671.14 29.5959 Q1675.68 26.1121 1684.02 26.1121 Q1688.15 26.1121 1691.8 26.7198 Q1695.45 27.3274 1698.53 28.5427 Z" fill="#000000" fill-rule="nonzero" fill-opacity="1" /><polyline clip-path="url(#clip542)" style="stroke:#50ad9f; stroke-linecap:round; stroke-linejoin:round; stroke-width:8; stroke-opacity:1; fill:none" points="316.984,219.712 348.357,217.079 411.102,209.702 536.593,273.082 787.574,309.074 1289.54,320.198 2293.46,303.563 "/>
<circle clip-path="url(#clip542)" cx="316.984" cy="219.712" r="25.2" fill="#50ad9f" fill-rule="evenodd" fill-opacity="1" stroke="#000000" stroke-opacity="1" stroke-width="3.2"/>
<circle clip-path="url(#clip542)" cx="348.357" cy="217.079" r="25.2" fill="#50ad9f" fill-rule="evenodd" fill-opacity="1" stroke="#000000" stroke-opacity="1" stroke-width="3.2"/>
<circle clip-path="url(#clip542)" cx="411.102" cy="209.702" r="25.2" fill="#50ad9f" fill-rule="evenodd" fill-opacity="1" stroke="#000000" stroke-opacity="1" stroke-width="3.2"/>
<circle clip-path="url(#clip542)" cx="536.593" cy="273.082" r="25.2" fill="#50ad9f" fill-rule="evenodd" fill-opacity="1" stroke="#000000" stroke-opacity="1" stroke-width="3.2"/>
<circle clip-path="url(#clip542)" cx="787.574" cy="309.074" r="25.2" fill="#50ad9f" fill-rule="evenodd" fill-opacity="1" stroke="#000000" stroke-opacity="1" stroke-width="3.2"/>
<circle clip-path="url(#clip542)" cx="1289.54" cy="320.198" r="25.2" fill="#50ad9f" fill-rule="evenodd" fill-opacity="1" stroke="#000000" stroke-opacity="1" stroke-width="3.2"/>
<circle clip-path="url(#clip542)" cx="2293.46" cy="303.563" r="25.2" fill="#50ad9f" fill-rule="evenodd" fill-opacity="1" stroke="#000000" stroke-opacity="1" stroke-width="3.2"/>
<polyline clip-path="url(#clip542)" style="stroke:#0000a2; stroke-linecap:round; stroke-linejoin:round; stroke-width:8; stroke-opacity:1; fill:none" points="316.984,160.256 348.357,288.333 411.102,593.509 536.593,912.186 787.574,1104.07 1289.54,1274.85 2293.46,1386.4 "/>
<path clip-path="url(#clip542)" d="M296.984 140.256 L296.984 180.256 L336.984 180.256 L336.984 140.256 L296.984 140.256 Z" fill="#0000a2" fill-rule="evenodd" fill-opacity="1" stroke="#000000" stroke-opacity="1" stroke-width="3.2"/>
<path clip-path="url(#clip542)" d="M328.357 268.333 L328.357 308.333 L368.357 308.333 L368.357 268.333 L328.357 268.333 Z" fill="#0000a2" fill-rule="evenodd" fill-opacity="1" stroke="#000000" stroke-opacity="1" stroke-width="3.2"/>
<path clip-path="url(#clip542)" d="M391.102 573.509 L391.102 613.509 L431.102 613.509 L431.102 573.509 L391.102 573.509 Z" fill="#0000a2" fill-rule="evenodd" fill-opacity="1" stroke="#000000" stroke-opacity="1" stroke-width="3.2"/>
<path clip-path="url(#clip542)" d="M516.593 892.186 L516.593 932.186 L556.593 932.186 L556.593 892.186 L516.593 892.186 Z" fill="#0000a2" fill-rule="evenodd" fill-opacity="1" stroke="#000000" stroke-opacity="1" stroke-width="3.2"/>
<path clip-path="url(#clip542)" d="M767.574 1084.07 L767.574 1124.07 L807.574 1124.07 L807.574 1084.07 L767.574 1084.07 Z" fill="#0000a2" fill-rule="evenodd" fill-opacity="1" stroke="#000000" stroke-opacity="1" stroke-width="3.2"/>
<path clip-path="url(#clip542)" d="M1269.54 1254.85 L1269.54 1294.85 L1309.54 1294.85 L1309.54 1254.85 L1269.54 1254.85 Z" fill="#0000a2" fill-rule="evenodd" fill-opacity="1" stroke="#000000" stroke-opacity="1" stroke-width="3.2"/>
<path clip-path="url(#clip542)" d="M2273.46 1366.4 L2273.46 1406.4 L2313.46 1406.4 L2313.46 1366.4 L2273.46 1366.4 Z" fill="#0000a2" fill-rule="evenodd" fill-opacity="1" stroke="#000000" stroke-opacity="1" stroke-width="3.2"/>
<polyline clip-path="url(#clip542)" style="stroke:#bc272d; stroke-linecap:round; stroke-linejoin:round; stroke-width:8; stroke-opacity:1; fill:none" points="316.984,851.521 348.357,1094.54 411.102,1278.25 536.593,1213.82 787.574,884.307 1289.54,546.638 2293.46,241.68 "/>
<path clip-path="url(#clip542)" d="M316.984 823.521 L310.404 842.449 L290.356 842.869 L306.344 854.993 L300.52 874.173 L316.984 862.721 L333.448 874.173 L327.624 854.993 L343.612 842.869 L323.564 842.449 L316.984 823.521 Z" fill="#bc272d" fill-rule="evenodd" fill-opacity="1" stroke="#000000" stroke-opacity="1" stroke-width="3.2"/>
<path clip-path="url(#clip542)" d="M348.357 1066.54 L341.777 1085.46 L321.729 1085.88 L337.717 1098.01 L331.893 1117.19 L348.357 1105.74 L364.821 1117.19 L358.997 1098.01 L374.985 1085.88 L354.937 1085.46 L348.357 1066.54 Z" fill="#bc272d" fill-rule="evenodd" fill-opacity="1" stroke="#000000" stroke-opacity="1" stroke-width="3.2"/>
<path clip-path="url(#clip542)" d="M411.102 1250.25 L404.522 1269.18 L384.474 1269.6 L400.462 1281.73 L394.638 1300.91 L411.102 1289.45 L427.566 1300.91 L421.742 1281.73 L437.73 1269.6 L417.682 1269.18 L411.102 1250.25 Z" fill="#bc272d" fill-rule="evenodd" fill-opacity="1" stroke="#000000" stroke-opacity="1" stroke-width="3.2"/>
<path clip-path="url(#clip542)" d="M536.593 1185.82 L530.013 1204.74 L509.965 1205.16 L525.953 1217.29 L520.129 1236.47 L536.593 1225.02 L553.057 1236.47 L547.233 1217.29 L563.221 1205.16 L543.173 1204.74 L536.593 1185.82 Z" fill="#bc272d" fill-rule="evenodd" fill-opacity="1" stroke="#000000" stroke-opacity="1" stroke-width="3.2"/>
<path clip-path="url(#clip542)" d="M787.574 856.307 L780.994 875.235 L760.946 875.655 L776.934 887.779 L771.11 906.959 L787.574 895.507 L804.038 906.959 L798.214 887.779 L814.202 875.655 L794.154 875.235 L787.574 856.307 Z" fill="#bc272d" fill-rule="evenodd" fill-opacity="1" stroke="#000000" stroke-opacity="1" stroke-width="3.2"/>
<path clip-path="url(#clip542)" d="M1289.54 518.638 L1282.96 537.566 L1262.91 537.986 L1278.9 550.11 L1273.07 569.29 L1289.54 557.838 L1306 569.29 L1300.18 550.11 L1316.16 537.986 L1296.12 537.566 L1289.54 518.638 Z" fill="#bc272d" fill-rule="evenodd" fill-opacity="1" stroke="#000000" stroke-opacity="1" stroke-width="3.2"/>
<path clip-path="url(#clip542)" d="M2293.46 213.68 L2286.88 232.608 L2266.83 233.028 L2282.82 245.152 L2277 264.332 L2293.46 252.88 L2309.93 264.332 L2304.1 245.152 L2320.09 233.028 L2300.04 232.608 L2293.46 213.68 Z" fill="#bc272d" fill-rule="evenodd" fill-opacity="1" stroke="#000000" stroke-opacity="1" stroke-width="3.2"/>
<polyline clip-path="url(#clip542)" style="stroke:#e9c716; stroke-linecap:round; stroke-linejoin:round; stroke-width:8; stroke-opacity:1; fill:none" points="316.984,240.804 348.357,240.769 411.102,231.296 536.593,279.762 787.574,298.104 1289.54,318.25 2293.46,347.269 "/>
<path clip-path="url(#clip542)" d="M316.984 212.804 L288.984 268.804 L344.984 268.804 L316.984 212.804 Z" fill="#e9c716" fill-rule="evenodd" fill-opacity="1" stroke="#000000" stroke-opacity="1" stroke-width="3.2"/>
<path clip-path="url(#clip542)" d="M348.357 212.769 L320.357 268.769 L376.357 268.769 L348.357 212.769 Z" fill="#e9c716" fill-rule="evenodd" fill-opacity="1" stroke="#000000" stroke-opacity="1" stroke-width="3.2"/>
<path clip-path="url(#clip542)" d="M411.102 203.296 L383.102 259.296 L439.102 259.296 L411.102 203.296 Z" fill="#e9c716" fill-rule="evenodd" fill-opacity="1" stroke="#000000" stroke-opacity="1" stroke-width="3.2"/>
<path clip-path="url(#clip542)" d="M536.593 251.762 L508.593 307.762 L564.593 307.762 L536.593 251.762 Z" fill="#e9c716" fill-rule="evenodd" fill-opacity="1" stroke="#000000" stroke-opacity="1" stroke-width="3.2"/>
<path clip-path="url(#clip542)" d="M787.574 270.104 L759.574 326.104 L815.574 326.104 L787.574 270.104 Z" fill="#e9c716" fill-rule="evenodd" fill-opacity="1" stroke="#000000" stroke-opacity="1" stroke-width="3.2"/>
<path clip-path="url(#clip542)" d="M1289.54 290.25 L1261.54 346.25 L1317.54 346.25 L1289.54 290.25 Z" fill="#e9c716" fill-rule="evenodd" fill-opacity="1" stroke="#000000" stroke-opacity="1" stroke-width="3.2"/>
<path clip-path="url(#clip542)" d="M2293.46 319.269 L2265.46 375.269 L2321.46 375.269 L2293.46 319.269 Z" fill="#e9c716" fill-rule="evenodd" fill-opacity="1" stroke="#000000" stroke-opacity="1" stroke-width="3.2"/>
<path clip-path="url(#clip540)" d="M1961.19 920.33 L2282.92 920.33 L2282.92 661.13 L1961.19 661.13  Z" fill="#ffffff" fill-rule="evenodd" fill-opacity="1"/>
<polyline clip-path="url(#clip540)" style="stroke:#000000; stroke-linecap:round; stroke-linejoin:round; stroke-width:4; stroke-opacity:1; fill:none" points="1961.19,920.33 2282.92,920.33 2282.92,661.13 1961.19,661.13 1961.19,920.33 "/>
<polyline clip-path="url(#clip540)" style="stroke:#50ad9f; stroke-linecap:round; stroke-linejoin:round; stroke-width:8; stroke-opacity:1; fill:none" points="1984.47,712.97 2124.14,712.97 "/>
<circle clip-path="url(#clip540)" cx="2054.31" cy="712.97" r="19.3988" fill="#50ad9f" fill-rule="evenodd" fill-opacity="1" stroke="#000000" stroke-opacity="1" stroke-width="2.73067"/>
<path clip-path="url(#clip540)" d="M2147.42 695.69 L2167.28 695.69 L2167.28 699.625 L2152.1 699.625 L2152.1 709.81 L2165.8 709.81 L2165.8 713.745 L2152.1 713.745 L2152.1 730.25 L2147.42 730.25 L2147.42 695.69 Z" fill="#000000" fill-rule="nonzero" fill-opacity="1" /><path clip-path="url(#clip540)" d="M2171.05 704.324 L2175.31 704.324 L2175.31 730.25 L2171.05 730.25 L2171.05 704.324 M2171.05 694.231 L2175.31 694.231 L2175.31 699.625 L2171.05 699.625 L2171.05 694.231 Z" fill="#000000" fill-rule="nonzero" fill-opacity="1" /><path clip-path="url(#clip540)" d="M2188.44 696.963 L2188.44 704.324 L2197.21 704.324 L2197.21 707.634 L2188.44 707.634 L2188.44 721.708 Q2188.44 724.879 2189.3 725.782 Q2190.17 726.685 2192.84 726.685 L2197.21 726.685 L2197.21 730.25 L2192.84 730.25 Q2187.91 730.25 2186.03 728.421 Q2184.16 726.569 2184.16 721.708 L2184.16 707.634 L2181.03 707.634 L2181.03 704.324 L2184.16 704.324 L2184.16 696.963 L2188.44 696.963 Z" fill="#000000" fill-rule="nonzero" fill-opacity="1" /><polyline clip-path="url(#clip540)" style="stroke:#0000a2; stroke-linecap:round; stroke-linejoin:round; stroke-width:8; stroke-opacity:1; fill:none" points="1984.47,764.81 2124.14,764.81 "/>
<path clip-path="url(#clip540)" d="M2032.75 743.255 L2032.75 786.364 L2075.86 786.364 L2075.86 743.255 L2032.75 743.255 Z" fill="#0000a2" fill-rule="evenodd" fill-opacity="1" stroke="#000000" stroke-opacity="1" stroke-width="3.72364"/>
<path clip-path="url(#clip540)" d="M2169.67 748.664 L2169.67 753.224 Q2167 751.951 2164.64 751.326 Q2162.28 750.701 2160.08 750.701 Q2156.26 750.701 2154.18 752.182 Q2152.12 753.664 2152.12 756.395 Q2152.12 758.687 2153.49 759.867 Q2154.87 761.025 2158.72 761.742 L2161.54 762.321 Q2166.77 763.317 2169.25 765.84 Q2171.75 768.34 2171.75 772.553 Q2171.75 777.576 2168.37 780.168 Q2165.01 782.761 2158.51 782.761 Q2156.05 782.761 2153.28 782.205 Q2150.52 781.65 2147.56 780.562 L2147.56 775.747 Q2150.41 777.344 2153.14 778.154 Q2155.87 778.965 2158.51 778.965 Q2162.51 778.965 2164.69 777.391 Q2166.86 775.816 2166.86 772.9 Q2166.86 770.354 2165.29 768.918 Q2163.74 767.483 2160.17 766.766 L2157.33 766.21 Q2152.1 765.168 2149.76 762.946 Q2147.42 760.724 2147.42 756.766 Q2147.42 752.182 2150.64 749.543 Q2153.88 746.905 2159.55 746.905 Q2161.98 746.905 2164.5 747.344 Q2167.03 747.784 2169.67 748.664 Z" fill="#000000" fill-rule="nonzero" fill-opacity="1" /><path clip-path="url(#clip540)" d="M2189.64 784.497 Q2187.84 789.127 2186.12 790.539 Q2184.41 791.951 2181.54 791.951 L2178.14 791.951 L2178.14 788.386 L2180.64 788.386 Q2182.4 788.386 2183.37 787.553 Q2184.34 786.719 2185.52 783.617 L2186.29 781.673 L2175.8 756.164 L2180.31 756.164 L2188.42 776.441 L2196.52 756.164 L2201.03 756.164 L2189.64 784.497 Z" fill="#000000" fill-rule="nonzero" fill-opacity="1" /><path clip-path="url(#clip540)" d="M2227.1 761.141 Q2228.69 758.27 2230.92 756.905 Q2233.14 755.539 2236.15 755.539 Q2240.2 755.539 2242.4 758.386 Q2244.6 761.21 2244.6 766.442 L2244.6 782.09 L2240.31 782.09 L2240.31 766.58 Q2240.31 762.854 2238.99 761.048 Q2237.67 759.242 2234.97 759.242 Q2231.66 759.242 2229.73 761.442 Q2227.81 763.641 2227.81 767.437 L2227.81 782.09 L2223.53 782.09 L2223.53 766.58 Q2223.53 762.83 2222.21 761.048 Q2220.89 759.242 2218.14 759.242 Q2214.87 759.242 2212.95 761.465 Q2211.03 763.664 2211.03 767.437 L2211.03 782.09 L2206.75 782.09 L2206.75 756.164 L2211.03 756.164 L2211.03 760.192 Q2212.49 757.807 2214.53 756.673 Q2216.56 755.539 2219.36 755.539 Q2222.19 755.539 2224.16 756.974 Q2226.15 758.409 2227.1 761.141 Z" fill="#000000" fill-rule="nonzero" fill-opacity="1" /><polyline clip-path="url(#clip540)" style="stroke:#bc272d; stroke-linecap:round; stroke-linejoin:round; stroke-width:8; stroke-opacity:1; fill:none" points="1984.47,816.65 2124.14,816.65 "/>
<path clip-path="url(#clip540)" d="M2054.31 795.095 L2049.24 809.666 L2033.81 809.989 L2046.12 819.322 L2041.63 834.087 L2054.31 825.271 L2066.98 834.087 L2062.5 819.322 L2074.8 809.989 L2059.37 809.666 L2054.31 795.095 Z" fill="#bc272d" fill-rule="evenodd" fill-opacity="1" stroke="#000000" stroke-opacity="1" stroke-width="2.73067"/>
<path clip-path="url(#clip540)" d="M2147.42 799.37 L2167.28 799.37 L2167.28 803.305 L2152.1 803.305 L2152.1 813.49 L2165.8 813.49 L2165.8 817.425 L2152.1 817.425 L2152.1 833.93 L2147.42 833.93 L2147.42 799.37 Z" fill="#000000" fill-rule="nonzero" fill-opacity="1" /><path clip-path="url(#clip540)" d="M2174.5 797.911 L2178.76 797.911 L2178.76 833.93 L2174.5 833.93 L2174.5 797.911 Z" fill="#000000" fill-rule="nonzero" fill-opacity="1" /><path clip-path="url(#clip540)" d="M2199.46 820.897 Q2194.29 820.897 2192.3 822.078 Q2190.31 823.258 2190.31 826.106 Q2190.31 828.374 2191.8 829.717 Q2193.3 831.036 2195.87 831.036 Q2199.41 831.036 2201.54 828.536 Q2203.69 826.013 2203.69 821.846 L2203.69 820.897 L2199.46 820.897 M2207.95 819.138 L2207.95 833.93 L2203.69 833.93 L2203.69 829.994 Q2202.23 832.356 2200.06 833.49 Q2197.88 834.601 2194.73 834.601 Q2190.75 834.601 2188.39 832.379 Q2186.05 830.133 2186.05 826.383 Q2186.05 822.008 2188.97 819.786 Q2191.91 817.564 2197.72 817.564 L2203.69 817.564 L2203.69 817.147 Q2203.69 814.207 2201.75 812.61 Q2199.83 810.99 2196.33 810.99 Q2194.11 810.99 2192 811.522 Q2189.9 812.055 2187.95 813.12 L2187.95 809.184 Q2190.29 808.282 2192.49 807.842 Q2194.69 807.379 2196.77 807.379 Q2202.4 807.379 2205.17 810.295 Q2207.95 813.212 2207.95 819.138 Z" fill="#000000" fill-rule="nonzero" fill-opacity="1" /><path clip-path="url(#clip540)" d="M2220.94 800.643 L2220.94 808.004 L2229.71 808.004 L2229.71 811.314 L2220.94 811.314 L2220.94 825.388 Q2220.94 828.559 2221.79 829.462 Q2222.67 830.365 2225.34 830.365 L2229.71 830.365 L2229.71 833.93 L2225.34 833.93 Q2220.41 833.93 2218.53 832.101 Q2216.66 830.249 2216.66 825.388 L2216.66 811.314 L2213.53 811.314 L2213.53 808.004 L2216.66 808.004 L2216.66 800.643 L2220.94 800.643 Z" fill="#000000" fill-rule="nonzero" fill-opacity="1" /><polyline clip-path="url(#clip540)" style="stroke:#e9c716; stroke-linecap:round; stroke-linejoin:round; stroke-width:8; stroke-opacity:1; fill:none" points="1984.47,868.49 2124.14,868.49 "/>
<path clip-path="url(#clip540)" d="M2054.31 846.935 L2032.75 890.044 L2075.86 890.044 L2054.31 846.935 Z" fill="#e9c716" fill-rule="evenodd" fill-opacity="1" stroke="#000000" stroke-opacity="1" stroke-width="2.73067"/>
<path clip-path="url(#clip540)" d="M2152.1 855.052 L2152.1 868.038 L2157.98 868.038 Q2161.24 868.038 2163.02 866.348 Q2164.8 864.659 2164.8 861.534 Q2164.8 858.432 2163.02 856.742 Q2161.24 855.052 2157.98 855.052 L2152.1 855.052 M2147.42 851.21 L2157.98 851.21 Q2163.79 851.21 2166.75 853.848 Q2169.73 856.464 2169.73 861.534 Q2169.73 866.649 2166.75 869.265 Q2163.79 871.881 2157.98 871.881 L2152.1 871.881 L2152.1 885.77 L2147.42 885.77 L2147.42 851.21 Z" fill="#000000" fill-rule="nonzero" fill-opacity="1" /><path clip-path="url(#clip540)" d="M2196.31 871.742 L2196.31 873.825 L2176.73 873.825 Q2177 878.223 2179.36 880.538 Q2181.75 882.83 2185.98 882.83 Q2188.44 882.83 2190.73 882.228 Q2193.05 881.626 2195.31 880.422 L2195.31 884.45 Q2193.02 885.422 2190.61 885.932 Q2188.21 886.441 2185.73 886.441 Q2179.53 886.441 2175.89 882.83 Q2172.28 879.219 2172.28 873.061 Q2172.28 866.696 2175.71 862.969 Q2179.16 859.219 2184.99 859.219 Q2190.22 859.219 2193.25 862.598 Q2196.31 865.955 2196.31 871.742 M2192.05 870.492 Q2192 866.997 2190.08 864.913 Q2188.18 862.83 2185.04 862.83 Q2181.47 862.83 2179.32 864.844 Q2177.19 866.858 2176.86 870.515 L2192.05 870.492 Z" fill="#000000" fill-rule="nonzero" fill-opacity="1" /><path clip-path="url(#clip540)" d="M2218.32 863.825 Q2217.61 863.409 2216.75 863.223 Q2215.92 863.015 2214.9 863.015 Q2211.29 863.015 2209.34 865.376 Q2207.42 867.714 2207.42 872.112 L2207.42 885.77 L2203.14 885.77 L2203.14 859.844 L2207.42 859.844 L2207.42 863.872 Q2208.76 861.51 2210.92 860.376 Q2213.07 859.219 2216.15 859.219 Q2216.59 859.219 2217.12 859.288 Q2217.65 859.335 2218.3 859.45 L2218.32 863.825 Z" fill="#000000" fill-rule="nonzero" fill-opacity="1" /><path clip-path="url(#clip540)" d="M2242.14 864.821 Q2243.74 861.95 2245.96 860.585 Q2248.18 859.219 2251.19 859.219 Q2255.24 859.219 2257.44 862.066 Q2259.64 864.89 2259.64 870.122 L2259.64 885.77 L2255.36 885.77 L2255.36 870.26 Q2255.36 866.534 2254.04 864.728 Q2252.72 862.922 2250.01 862.922 Q2246.7 862.922 2244.78 865.122 Q2242.86 867.321 2242.86 871.117 L2242.86 885.77 L2238.58 885.77 L2238.58 870.26 Q2238.58 866.51 2237.26 864.728 Q2235.94 862.922 2233.18 862.922 Q2229.92 862.922 2228 865.145 Q2226.08 867.344 2226.08 871.117 L2226.08 885.77 L2221.79 885.77 L2221.79 859.844 L2226.08 859.844 L2226.08 863.872 Q2227.54 861.487 2229.57 860.353 Q2231.61 859.219 2234.41 859.219 Q2237.23 859.219 2239.2 860.654 Q2241.19 862.089 2242.14 864.821 Z" fill="#000000" fill-rule="nonzero" fill-opacity="1" /></svg>
