<?xml version="1.0" encoding="utf-8"?>
<svg xmlns="http://www.w3.org/2000/svg" xmlns:xlink="http://www.w3.org/1999/xlink" width="600" height="400" viewBox="0 0 2400 1600">
<defs>
  <clipPath id="clip060">
    <rect x="0" y="0" width="2400" height="1600"/>
  </clipPath>
</defs>
<path clip-path="url(#clip060)" d="M0 1600 L2400 1600 L2400 0 L0 0  Z" fill="#ffffff" fill-rule="evenodd" fill-opacity="1"/>
<defs>
  <clipPath id="clip061">
    <rect x="480" y="0" width="1681" height="1600"/>
  </clipPath>
</defs>
<path clip-path="url(#clip060)" d="M287.366 1423.18 L2352.76 1423.18 L2352.76 123.472 L287.366 123.472  Z" fill="#ffffff" fill-rule="evenodd" fill-opacity="1"/>
<defs>
  <clipPath id="clip062">
    <rect x="287" y="123" width="2066" height="1301"/>
  </clipPath>
</defs>
<polyline clip-path="url(#clip062)" style="stroke:#000000; stroke-linecap:round; stroke-linejoin:round; stroke-width:2; stroke-opacity:0.1; fill:none" points="345.82,1423.18 345.82,123.472 "/>
<polyline clip-path="url(#clip062)" style="stroke:#000000; stroke-linecap:round; stroke-linejoin:round; stroke-width:2; stroke-opacity:0.1; fill:none" points="832.941,1423.18 832.941,123.472 "/>
<polyline clip-path="url(#clip062)" style="stroke:#000000; stroke-linecap:round; stroke-linejoin:round; stroke-width:2; stroke-opacity:0.1; fill:none" points="1320.06,1423.18 1320.06,123.472 "/>
<polyline clip-path="url(#clip062)" style="stroke:#000000; stroke-linecap:round; stroke-linejoin:round; stroke-width:2; stroke-opacity:0.1; fill:none" points="1807.18,1423.18 1807.18,123.472 "/>
<polyline clip-path="url(#clip062)" style="stroke:#000000; stroke-linecap:round; stroke-linejoin:round; stroke-width:2; stroke-opacity:0.1; fill:none" points="2294.3,1423.18 2294.3,123.472 "/>
<polyline clip-path="url(#clip060)" style="stroke:#000000; stroke-linecap:round; stroke-linejoin:round; stroke-width:4; stroke-opacity:1; fill:none" points="287.366,1423.18 2352.76,1423.18 "/>
<polyline clip-path="url(#clip060)" style="stroke:#000000; stroke-linecap:round; stroke-linejoin:round; stroke-width:4; stroke-opacity:1; fill:none" points="345.82,1423.18 345.82,1404.28 "/>
<polyline clip-path="url(#clip060)" style="stroke:#000000; stroke-linecap:round; stroke-linejoin:round; stroke-width:4; stroke-opacity:1; fill:none" points="832.941,1423.18 832.941,1404.28 "/>
<polyline clip-path="url(#clip060)" style="stroke:#000000; stroke-linecap:round; stroke-linejoin:round; stroke-width:4; stroke-opacity:1; fill:none" points="1320.06,1423.18 1320.06,1404.28 "/>
<polyline clip-path="url(#clip060)" style="stroke:#000000; stroke-linecap:round; stroke-linejoin:round; stroke-width:4; stroke-opacity:1; fill:none" points="1807.18,1423.18 1807.18,1404.28 "/>
<polyline clip-path="url(#clip060)" style="stroke:#000000; stroke-linecap:round; stroke-linejoin:round; stroke-width:4; stroke-opacity:1; fill:none" points="2294.3,1423.18 2294.3,1404.28 "/>
<path clip-path="url(#clip060)" d="M324.003 1454.1 Q320.392 1454.1 318.564 1457.66 Q316.758 1461.2 316.758 1468.33 Q316.758 1475.44 318.564 1479.01 Q320.392 1482.55 324.003 1482.55 Q327.638 1482.55 329.443 1479.01 Q331.272 1475.44 331.272 1468.33 Q331.272 1461.2 329.443 1457.66 Q327.638 1454.1 324.003 1454.1 M324.003 1450.39 Q329.813 1450.39 332.869 1455 Q335.948 1459.58 335.948 1468.33 Q335.948 1477.06 332.869 1481.67 Q329.813 1486.25 324.003 1486.25 Q318.193 1486.25 315.114 1481.67 Q312.059 1477.06 312.059 1468.33 Q312.059 1459.58 315.114 1455 Q318.193 1450.39 324.003 1450.39 Z" fill="#000000" fill-rule="nonzero" fill-opacity="1" /><path clip-path="url(#clip060)" d="M344.165 1479.7 L349.049 1479.7 L349.049 1485.58 L344.165 1485.58 L344.165 1479.7 Z" fill="#000000" fill-rule="nonzero" fill-opacity="1" /><path clip-path="url(#clip060)" d="M363.262 1481.64 L379.582 1481.64 L379.582 1485.58 L357.637 1485.58 L357.637 1481.64 Q360.299 1478.89 364.883 1474.26 Q369.489 1469.61 370.67 1468.27 Q372.915 1465.74 373.795 1464.01 Q374.697 1462.25 374.697 1460.56 Q374.697 1457.8 372.753 1456.07 Q370.832 1454.33 367.73 1454.33 Q365.531 1454.33 363.077 1455.09 Q360.647 1455.86 357.869 1457.41 L357.869 1452.69 Q360.693 1451.55 363.147 1450.97 Q365.6 1450.39 367.637 1450.39 Q373.008 1450.39 376.202 1453.08 Q379.397 1455.77 379.397 1460.26 Q379.397 1462.39 378.586 1464.31 Q377.799 1466.2 375.693 1468.8 Q375.114 1469.47 372.012 1472.69 Q368.91 1475.88 363.262 1481.64 Z" fill="#000000" fill-rule="nonzero" fill-opacity="1" /><path clip-path="url(#clip060)" d="M810.082 1454.1 Q806.471 1454.1 804.642 1457.66 Q802.837 1461.2 802.837 1468.33 Q802.837 1475.44 804.642 1479.01 Q806.471 1482.55 810.082 1482.55 Q813.716 1482.55 815.522 1479.01 Q817.35 1475.44 817.35 1468.33 Q817.35 1461.2 815.522 1457.66 Q813.716 1454.1 810.082 1454.1 M810.082 1450.39 Q815.892 1450.39 818.948 1455 Q822.026 1459.58 822.026 1468.33 Q822.026 1477.06 818.948 1481.67 Q815.892 1486.25 810.082 1486.25 Q804.272 1486.25 801.193 1481.67 Q798.138 1477.06 798.138 1468.33 Q798.138 1459.58 801.193 1455 Q804.272 1450.39 810.082 1450.39 Z" fill="#000000" fill-rule="nonzero" fill-opacity="1" /><path clip-path="url(#clip060)" d="M830.244 1479.7 L835.128 1479.7 L835.128 1485.58 L830.244 1485.58 L830.244 1479.7 Z" fill="#000000" fill-rule="nonzero" fill-opacity="1" /><path clip-path="url(#clip060)" d="M858.16 1455.09 L846.355 1473.54 L858.16 1473.54 L858.16 1455.09 M856.934 1451.02 L862.813 1451.02 L862.813 1473.54 L867.744 1473.54 L867.744 1477.43 L862.813 1477.43 L862.813 1485.58 L858.16 1485.58 L858.16 1477.43 L842.559 1477.43 L842.559 1472.92 L856.934 1451.02 Z" fill="#000000" fill-rule="nonzero" fill-opacity="1" /><path clip-path="url(#clip060)" d="M1297.36 1454.1 Q1293.75 1454.1 1291.92 1457.66 Q1290.12 1461.2 1290.12 1468.33 Q1290.12 1475.44 1291.92 1479.01 Q1293.75 1482.55 1297.36 1482.55 Q1301 1482.55 1302.8 1479.01 Q1304.63 1475.44 1304.63 1468.33 Q1304.63 1461.2 1302.8 1457.66 Q1301 1454.1 1297.36 1454.1 M1297.36 1450.39 Q1303.17 1450.39 1306.23 1455 Q1309.31 1459.58 1309.31 1468.33 Q1309.31 1477.06 1306.23 1481.67 Q1303.17 1486.25 1297.36 1486.25 Q1291.55 1486.25 1288.48 1481.67 Q1285.42 1477.06 1285.42 1468.33 Q1285.42 1459.58 1288.48 1455 Q1291.55 1450.39 1297.36 1450.39 Z" fill="#000000" fill-rule="nonzero" fill-opacity="1" /><path clip-path="url(#clip060)" d="M1317.53 1479.7 L1322.41 1479.7 L1322.41 1485.58 L1317.53 1485.58 L1317.53 1479.7 Z" fill="#000000" fill-rule="nonzero" fill-opacity="1" /><path clip-path="url(#clip060)" d="M1343.17 1466.44 Q1340.03 1466.44 1338.17 1468.59 Q1336.35 1470.74 1336.35 1474.49 Q1336.35 1478.22 1338.17 1480.39 Q1340.03 1482.55 1343.17 1482.55 Q1346.32 1482.55 1348.15 1480.39 Q1350 1478.22 1350 1474.49 Q1350 1470.74 1348.15 1468.59 Q1346.32 1466.44 1343.17 1466.44 M1352.46 1451.78 L1352.46 1456.04 Q1350.7 1455.21 1348.89 1454.77 Q1347.11 1454.33 1345.35 1454.33 Q1340.72 1454.33 1338.27 1457.45 Q1335.84 1460.58 1335.49 1466.9 Q1336.85 1464.89 1338.91 1463.82 Q1340.98 1462.73 1343.45 1462.73 Q1348.66 1462.73 1351.67 1465.9 Q1354.7 1469.05 1354.7 1474.49 Q1354.7 1479.82 1351.55 1483.03 Q1348.41 1486.25 1343.17 1486.25 Q1337.18 1486.25 1334.01 1481.67 Q1330.84 1477.06 1330.84 1468.33 Q1330.84 1460.14 1334.73 1455.28 Q1338.61 1450.39 1345.16 1450.39 Q1346.92 1450.39 1348.71 1450.74 Q1350.51 1451.09 1352.46 1451.78 Z" fill="#000000" fill-rule="nonzero" fill-opacity="1" /><path clip-path="url(#clip060)" d="M1784.61 1454.1 Q1781 1454.1 1779.17 1457.66 Q1777.37 1461.2 1777.37 1468.33 Q1777.37 1475.44 1779.17 1479.01 Q1781 1482.55 1784.61 1482.55 Q1788.25 1482.55 1790.05 1479.01 Q1791.88 1475.44 1791.88 1468.33 Q1791.88 1461.2 1790.05 1457.66 Q1788.25 1454.1 1784.61 1454.1 M1784.61 1450.39 Q1790.42 1450.39 1793.48 1455 Q1796.56 1459.58 1796.56 1468.33 Q1796.56 1477.06 1793.48 1481.67 Q1790.42 1486.25 1784.61 1486.25 Q1778.8 1486.25 1775.72 1481.67 Q1772.67 1477.06 1772.67 1468.33 Q1772.67 1459.58 1775.72 1455 Q1778.8 1450.39 1784.61 1450.39 Z" fill="#000000" fill-rule="nonzero" fill-opacity="1" /><path clip-path="url(#clip060)" d="M1804.77 1479.7 L1809.66 1479.7 L1809.66 1485.58 L1804.77 1485.58 L1804.77 1479.7 Z" fill="#000000" fill-rule="nonzero" fill-opacity="1" /><path clip-path="url(#clip060)" d="M1829.84 1469.17 Q1826.51 1469.17 1824.59 1470.95 Q1822.69 1472.73 1822.69 1475.86 Q1822.69 1478.98 1824.59 1480.77 Q1826.51 1482.55 1829.84 1482.55 Q1833.18 1482.55 1835.1 1480.77 Q1837.02 1478.96 1837.02 1475.86 Q1837.02 1472.73 1835.1 1470.95 Q1833.2 1469.17 1829.84 1469.17 M1825.17 1467.18 Q1822.16 1466.44 1820.47 1464.38 Q1818.8 1462.32 1818.8 1459.35 Q1818.8 1455.21 1821.74 1452.8 Q1824.7 1450.39 1829.84 1450.39 Q1835.01 1450.39 1837.94 1452.8 Q1840.88 1455.21 1840.88 1459.35 Q1840.88 1462.32 1839.19 1464.38 Q1837.53 1466.44 1834.54 1467.18 Q1837.92 1467.96 1839.8 1470.26 Q1841.69 1472.55 1841.69 1475.86 Q1841.69 1480.88 1838.62 1483.57 Q1835.56 1486.25 1829.84 1486.25 Q1824.13 1486.25 1821.05 1483.57 Q1817.99 1480.88 1817.99 1475.86 Q1817.99 1472.55 1819.89 1470.26 Q1821.79 1467.96 1825.17 1467.18 M1823.45 1459.79 Q1823.45 1462.48 1825.12 1463.98 Q1826.81 1465.49 1829.84 1465.49 Q1832.85 1465.49 1834.54 1463.98 Q1836.26 1462.48 1836.26 1459.79 Q1836.26 1457.11 1834.54 1455.6 Q1832.85 1454.1 1829.84 1454.1 Q1826.81 1454.1 1825.12 1455.6 Q1823.45 1457.11 1823.45 1459.79 Z" fill="#000000" fill-rule="nonzero" fill-opacity="1" /><path clip-path="url(#clip060)" d="M2261.45 1481.64 L2269.09 1481.64 L2269.09 1455.28 L2260.78 1456.95 L2260.78 1452.69 L2269.05 1451.02 L2273.72 1451.02 L2273.72 1481.64 L2281.36 1481.64 L2281.36 1485.58 L2261.45 1485.58 L2261.45 1481.64 Z" fill="#000000" fill-rule="nonzero" fill-opacity="1" /><path clip-path="url(#clip060)" d="M2290.81 1479.7 L2295.69 1479.7 L2295.69 1485.58 L2290.81 1485.58 L2290.81 1479.7 Z" fill="#000000" fill-rule="nonzero" fill-opacity="1" /><path clip-path="url(#clip060)" d="M2315.88 1454.1 Q2312.26 1454.1 2310.44 1457.66 Q2308.63 1461.2 2308.63 1468.33 Q2308.63 1475.44 2310.44 1479.01 Q2312.26 1482.55 2315.88 1482.55 Q2319.51 1482.55 2321.32 1479.01 Q2323.14 1475.44 2323.14 1468.33 Q2323.14 1461.2 2321.32 1457.66 Q2319.51 1454.1 2315.88 1454.1 M2315.88 1450.39 Q2321.69 1450.39 2324.74 1455 Q2327.82 1459.58 2327.82 1468.33 Q2327.82 1477.06 2324.74 1481.67 Q2321.69 1486.25 2315.88 1486.25 Q2310.07 1486.25 2306.99 1481.67 Q2303.93 1477.06 2303.93 1468.33 Q2303.93 1459.58 2306.99 1455 Q2310.07 1450.39 2315.88 1450.39 Z" fill="#000000" fill-rule="nonzero" fill-opacity="1" /><path clip-path="url(#clip060)" d="M802.242 1525.81 L802.242 1543.66 L810.327 1543.66 Q814.815 1543.66 817.266 1541.34 Q819.716 1539.02 819.716 1534.72 Q819.716 1530.45 817.266 1528.13 Q814.815 1525.81 810.327 1525.81 L802.242 1525.81 M795.813 1520.52 L810.327 1520.52 Q818.316 1520.52 822.39 1524.15 Q826.496 1527.75 826.496 1534.72 Q826.496 1541.75 822.39 1545.35 Q818.316 1548.95 810.327 1548.95 L802.242 1548.95 L802.242 1568.04 L795.813 1568.04 L795.813 1520.52 Z" fill="#000000" fill-rule="nonzero" fill-opacity="1" /><path clip-path="url(#clip060)" d="M854.378 1537.87 Q853.391 1537.3 852.213 1537.04 Q851.067 1536.76 849.667 1536.76 Q844.702 1536.76 842.028 1540 Q839.386 1543.22 839.386 1549.27 L839.386 1568.04 L833.498 1568.04 L833.498 1532.4 L839.386 1532.4 L839.386 1537.93 Q841.232 1534.69 844.193 1533.13 Q847.153 1531.54 851.386 1531.54 Q851.99 1531.54 852.723 1531.63 Q853.455 1531.7 854.346 1531.85 L854.378 1537.87 Z" fill="#000000" fill-rule="nonzero" fill-opacity="1" /><path clip-path="url(#clip060)" d="M872.902 1536.5 Q868.191 1536.5 865.454 1540.19 Q862.717 1543.85 862.717 1550.25 Q862.717 1556.65 865.422 1560.34 Q868.159 1564 872.902 1564 Q877.581 1564 880.318 1560.31 Q883.055 1556.62 883.055 1550.25 Q883.055 1543.92 880.318 1540.23 Q877.581 1536.5 872.902 1536.5 M872.902 1531.54 Q880.541 1531.54 884.901 1536.5 Q889.262 1541.47 889.262 1550.25 Q889.262 1559 884.901 1564 Q880.541 1568.97 872.902 1568.97 Q865.231 1568.97 860.871 1564 Q856.542 1559 856.542 1550.25 Q856.542 1541.47 860.871 1536.5 Q865.231 1531.54 872.902 1531.54 Z" fill="#000000" fill-rule="nonzero" fill-opacity="1" /><path clip-path="url(#clip060)" d="M904.635 1562.7 L904.635 1581.6 L898.747 1581.6 L898.747 1532.4 L904.635 1532.4 L904.635 1537.81 Q906.481 1534.62 909.282 1533.1 Q912.115 1531.54 916.03 1531.54 Q922.523 1531.54 926.565 1536.69 Q930.639 1541.85 930.639 1550.25 Q930.639 1558.65 926.565 1563.81 Q922.523 1568.97 916.03 1568.97 Q912.115 1568.97 909.282 1567.44 Q906.481 1565.88 904.635 1562.7 M924.56 1550.25 Q924.56 1543.79 921.886 1540.13 Q919.244 1536.44 914.597 1536.44 Q909.95 1536.44 907.277 1540.13 Q904.635 1543.79 904.635 1550.25 Q904.635 1556.71 907.277 1560.4 Q909.95 1564.07 914.597 1564.07 Q919.244 1564.07 921.886 1560.4 Q924.56 1556.71 924.56 1550.25 Z" fill="#000000" fill-rule="nonzero" fill-opacity="1" /><path clip-path="url(#clip060)" d="M954.16 1536.5 Q949.449 1536.5 946.712 1540.19 Q943.975 1543.85 943.975 1550.25 Q943.975 1556.65 946.68 1560.34 Q949.418 1564 954.16 1564 Q958.839 1564 961.576 1560.31 Q964.313 1556.62 964.313 1550.25 Q964.313 1543.92 961.576 1540.23 Q958.839 1536.5 954.16 1536.5 M954.16 1531.54 Q961.799 1531.54 966.159 1536.5 Q970.52 1541.47 970.52 1550.25 Q970.52 1559 966.159 1564 Q961.799 1568.97 954.16 1568.97 Q946.489 1568.97 942.129 1564 Q937.8 1559 937.8 1550.25 Q937.8 1541.47 942.129 1536.5 Q946.489 1531.54 954.16 1531.54 Z" fill="#000000" fill-rule="nonzero" fill-opacity="1" /><path clip-path="url(#clip060)" d="M1000.88 1537.87 Q999.898 1537.3 998.72 1537.04 Q997.574 1536.76 996.174 1536.76 Q991.209 1536.76 988.535 1540 Q985.893 1543.22 985.893 1549.27 L985.893 1568.04 L980.005 1568.04 L980.005 1532.4 L985.893 1532.4 L985.893 1537.93 Q987.739 1534.69 990.699 1533.13 Q993.659 1531.54 997.892 1531.54 Q998.497 1531.54 999.229 1531.63 Q999.961 1531.7 1000.85 1531.85 L1000.88 1537.87 Z" fill="#000000" fill-rule="nonzero" fill-opacity="1" /><path clip-path="url(#clip060)" d="M1012.82 1522.27 L1012.82 1532.4 L1024.88 1532.4 L1024.88 1536.95 L1012.82 1536.95 L1012.82 1556.3 Q1012.82 1560.66 1014 1561.9 Q1015.21 1563.14 1018.87 1563.14 L1024.88 1563.14 L1024.88 1568.04 L1018.87 1568.04 Q1012.09 1568.04 1009.51 1565.53 Q1006.93 1562.98 1006.93 1556.3 L1006.93 1536.95 L1002.63 1536.95 L1002.63 1532.4 L1006.93 1532.4 L1006.93 1522.27 L1012.82 1522.27 Z" fill="#000000" fill-rule="nonzero" fill-opacity="1" /><path clip-path="url(#clip060)" d="M1032.59 1532.4 L1038.44 1532.4 L1038.44 1568.04 L1032.59 1568.04 L1032.59 1532.4 M1032.59 1518.52 L1038.44 1518.52 L1038.44 1525.93 L1032.59 1525.93 L1032.59 1518.52 Z" fill="#000000" fill-rule="nonzero" fill-opacity="1" /><path clip-path="url(#clip060)" d="M1064.51 1536.5 Q1059.8 1536.5 1057.06 1540.19 Q1054.32 1543.85 1054.32 1550.25 Q1054.32 1556.65 1057.03 1560.34 Q1059.77 1564 1064.51 1564 Q1069.19 1564 1071.93 1560.31 Q1074.66 1556.62 1074.66 1550.25 Q1074.66 1543.92 1071.93 1540.23 Q1069.19 1536.5 1064.51 1536.5 M1064.51 1531.54 Q1072.15 1531.54 1076.51 1536.5 Q1080.87 1541.47 1080.87 1550.25 Q1080.87 1559 1076.51 1564 Q1072.15 1568.97 1064.51 1568.97 Q1056.84 1568.97 1052.48 1564 Q1048.15 1559 1048.15 1550.25 Q1048.15 1541.47 1052.48 1536.5 Q1056.84 1531.54 1064.51 1531.54 Z" fill="#000000" fill-rule="nonzero" fill-opacity="1" /><path clip-path="url(#clip060)" d="M1120.21 1546.53 L1120.21 1568.04 L1114.35 1568.04 L1114.35 1546.72 Q1114.35 1541.66 1112.38 1539.14 Q1110.41 1536.63 1106.46 1536.63 Q1101.72 1536.63 1098.98 1539.65 Q1096.24 1542.68 1096.24 1547.9 L1096.24 1568.04 L1090.35 1568.04 L1090.35 1532.4 L1096.24 1532.4 L1096.24 1537.93 Q1098.34 1534.72 1101.18 1533.13 Q1104.04 1531.54 1107.76 1531.54 Q1113.91 1531.54 1117.06 1535.36 Q1120.21 1539.14 1120.21 1546.53 Z" fill="#000000" fill-rule="nonzero" fill-opacity="1" /><path clip-path="url(#clip060)" d="M1166.42 1536.5 Q1161.71 1536.5 1158.98 1540.19 Q1156.24 1543.85 1156.24 1550.25 Q1156.24 1556.65 1158.94 1560.34 Q1161.68 1564 1166.42 1564 Q1171.1 1564 1173.84 1560.31 Q1176.58 1556.62 1176.58 1550.25 Q1176.58 1543.92 1173.84 1540.23 Q1171.1 1536.5 1166.42 1536.5 M1166.42 1531.54 Q1174.06 1531.54 1178.42 1536.5 Q1182.78 1541.47 1182.78 1550.25 Q1182.78 1559 1178.42 1564 Q1174.06 1568.97 1166.42 1568.97 Q1158.75 1568.97 1154.39 1564 Q1150.06 1559 1150.06 1550.25 Q1150.06 1541.47 1154.39 1536.5 Q1158.75 1531.54 1166.42 1531.54 Z" fill="#000000" fill-rule="nonzero" fill-opacity="1" /><path clip-path="url(#clip060)" d="M1210.54 1518.52 L1210.54 1523.39 L1204.94 1523.39 Q1201.79 1523.39 1200.54 1524.66 Q1199.34 1525.93 1199.34 1529.24 L1199.34 1532.4 L1208.98 1532.4 L1208.98 1536.95 L1199.34 1536.95 L1199.34 1568.04 L1193.45 1568.04 L1193.45 1536.95 L1187.85 1536.95 L1187.85 1532.4 L1193.45 1532.4 L1193.45 1529.91 Q1193.45 1523.96 1196.22 1521.26 Q1198.99 1518.52 1205 1518.52 L1210.54 1518.52 Z" fill="#000000" fill-rule="nonzero" fill-opacity="1" /><path clip-path="url(#clip060)" d="M1242.84 1525.81 L1242.84 1543.66 L1250.93 1543.66 Q1255.42 1543.66 1257.87 1541.34 Q1260.32 1539.02 1260.32 1534.72 Q1260.32 1530.45 1257.87 1528.13 Q1255.42 1525.81 1250.93 1525.81 L1242.84 1525.81 M1236.42 1520.52 L1250.93 1520.52 Q1258.92 1520.52 1262.99 1524.15 Q1267.1 1527.75 1267.1 1534.72 Q1267.1 1541.75 1262.99 1545.35 Q1258.92 1548.95 1250.93 1548.95 L1242.84 1548.95 L1242.84 1568.04 L1236.42 1568.04 L1236.42 1520.52 Z" fill="#000000" fill-rule="nonzero" fill-opacity="1" /><path clip-path="url(#clip060)" d="M1286.96 1536.5 Q1282.25 1536.5 1279.51 1540.19 Q1276.77 1543.85 1276.77 1550.25 Q1276.77 1556.65 1279.48 1560.34 Q1282.22 1564 1286.96 1564 Q1291.64 1564 1294.38 1560.31 Q1297.11 1556.62 1297.11 1550.25 Q1297.11 1543.92 1294.38 1540.23 Q1291.64 1536.5 1286.96 1536.5 M1286.96 1531.54 Q1294.6 1531.54 1298.96 1536.5 Q1303.32 1541.47 1303.32 1550.25 Q1303.32 1559 1298.96 1564 Q1294.6 1568.97 1286.96 1568.97 Q1279.29 1568.97 1274.93 1564 Q1270.6 1559 1270.6 1550.25 Q1270.6 1541.47 1274.93 1536.5 Q1279.29 1531.54 1286.96 1531.54 Z" fill="#000000" fill-rule="nonzero" fill-opacity="1" /><path clip-path="url(#clip060)" d="M1313.03 1532.4 L1318.88 1532.4 L1318.88 1568.04 L1313.03 1568.04 L1313.03 1532.4 M1313.03 1518.52 L1318.88 1518.52 L1318.88 1525.93 L1313.03 1525.93 L1313.03 1518.52 Z" fill="#000000" fill-rule="nonzero" fill-opacity="1" /><path clip-path="url(#clip060)" d="M1360.77 1546.53 L1360.77 1568.04 L1354.91 1568.04 L1354.91 1546.72 Q1354.91 1541.66 1352.94 1539.14 Q1350.97 1536.63 1347.02 1536.63 Q1342.28 1536.63 1339.54 1539.65 Q1336.8 1542.68 1336.8 1547.9 L1336.8 1568.04 L1330.91 1568.04 L1330.91 1532.4 L1336.8 1532.4 L1336.8 1537.93 Q1338.9 1534.72 1341.74 1533.13 Q1344.6 1531.54 1348.32 1531.54 Q1354.47 1531.54 1357.62 1535.36 Q1360.77 1539.14 1360.77 1546.53 Z" fill="#000000" fill-rule="nonzero" fill-opacity="1" /><path clip-path="url(#clip060)" d="M1378.24 1522.27 L1378.24 1532.4 L1390.31 1532.4 L1390.31 1536.95 L1378.24 1536.95 L1378.24 1556.3 Q1378.24 1560.66 1379.42 1561.9 Q1380.63 1563.14 1384.29 1563.14 L1390.31 1563.14 L1390.31 1568.04 L1384.29 1568.04 Q1377.51 1568.04 1374.93 1565.53 Q1372.36 1562.98 1372.36 1556.3 L1372.36 1536.95 L1368.06 1536.95 L1368.06 1532.4 L1372.36 1532.4 L1372.36 1522.27 L1378.24 1522.27 Z" fill="#000000" fill-rule="nonzero" fill-opacity="1" /><path clip-path="url(#clip060)" d="M1420.73 1533.45 L1420.73 1538.98 Q1418.25 1537.71 1415.58 1537.07 Q1412.9 1536.44 1410.04 1536.44 Q1405.68 1536.44 1403.48 1537.77 Q1401.32 1539.11 1401.32 1541.79 Q1401.32 1543.82 1402.88 1545 Q1404.44 1546.15 1409.15 1547.2 L1411.15 1547.64 Q1417.39 1548.98 1420 1551.43 Q1422.64 1553.85 1422.64 1558.21 Q1422.64 1563.17 1418.7 1566.07 Q1414.78 1568.97 1407.91 1568.97 Q1405.04 1568.97 1401.92 1568.39 Q1398.84 1567.85 1395.4 1566.74 L1395.4 1560.69 Q1398.65 1562.38 1401.8 1563.24 Q1404.95 1564.07 1408.03 1564.07 Q1412.17 1564.07 1414.4 1562.66 Q1416.63 1561.23 1416.63 1558.65 Q1416.63 1556.27 1415.01 1554.99 Q1413.41 1553.72 1407.97 1552.54 L1405.93 1552.07 Q1400.49 1550.92 1398.07 1548.56 Q1395.65 1546.18 1395.65 1542.04 Q1395.65 1537.01 1399.22 1534.27 Q1402.78 1531.54 1409.34 1531.54 Q1412.59 1531.54 1415.45 1532.01 Q1418.32 1532.49 1420.73 1533.45 Z" fill="#000000" fill-rule="nonzero" fill-opacity="1" /><path clip-path="url(#clip060)" d="M1475.48 1545.76 Q1477.55 1546.46 1479.49 1548.76 Q1481.46 1551.05 1483.44 1555.06 L1489.96 1568.04 L1483.05 1568.04 L1476.98 1555.85 Q1474.62 1551.08 1472.39 1549.52 Q1470.2 1547.96 1466.38 1547.96 L1459.37 1547.96 L1459.37 1568.04 L1452.95 1568.04 L1452.95 1520.52 L1467.46 1520.52 Q1475.61 1520.52 1479.62 1523.93 Q1483.63 1527.34 1483.63 1534.21 Q1483.63 1538.7 1481.53 1541.66 Q1479.46 1544.62 1475.48 1545.76 M1459.37 1525.81 L1459.37 1542.68 L1467.46 1542.68 Q1472.11 1542.68 1474.46 1540.54 Q1476.85 1538.38 1476.85 1534.21 Q1476.85 1530.04 1474.46 1527.94 Q1472.11 1525.81 1467.46 1525.81 L1459.37 1525.81 Z" fill="#000000" fill-rule="nonzero" fill-opacity="1" /><path clip-path="url(#clip060)" d="M1512.75 1550.12 Q1505.65 1550.12 1502.92 1551.75 Q1500.18 1553.37 1500.18 1557.29 Q1500.18 1560.4 1502.22 1562.25 Q1504.28 1564.07 1507.82 1564.07 Q1512.69 1564.07 1515.62 1560.63 Q1518.58 1557.16 1518.58 1551.43 L1518.58 1550.12 L1512.75 1550.12 M1524.43 1547.71 L1524.43 1568.04 L1518.58 1568.04 L1518.58 1562.63 Q1516.57 1565.88 1513.58 1567.44 Q1510.59 1568.97 1506.26 1568.97 Q1500.78 1568.97 1497.54 1565.91 Q1494.32 1562.82 1494.32 1557.67 Q1494.32 1551.65 1498.33 1548.6 Q1502.37 1545.54 1510.36 1545.54 L1518.58 1545.54 L1518.58 1544.97 Q1518.58 1540.93 1515.9 1538.73 Q1513.26 1536.5 1508.45 1536.5 Q1505.4 1536.5 1502.5 1537.23 Q1499.61 1537.97 1496.93 1539.43 L1496.93 1534.02 Q1500.15 1532.78 1503.17 1532.17 Q1506.19 1531.54 1509.06 1531.54 Q1516.79 1531.54 1520.61 1535.55 Q1524.43 1539.56 1524.43 1547.71 Z" fill="#000000" fill-rule="nonzero" fill-opacity="1" /><path clip-path="url(#clip060)" d="M1566.13 1546.53 L1566.13 1568.04 L1560.27 1568.04 L1560.27 1546.72 Q1560.27 1541.66 1558.3 1539.14 Q1556.32 1536.63 1552.38 1536.63 Q1547.63 1536.63 1544.9 1539.65 Q1542.16 1542.68 1542.16 1547.9 L1542.16 1568.04 L1536.27 1568.04 L1536.27 1532.4 L1542.16 1532.4 L1542.16 1537.93 Q1544.26 1534.72 1547.09 1533.13 Q1549.96 1531.54 1553.68 1531.54 Q1559.83 1531.54 1562.98 1535.36 Q1566.13 1539.14 1566.13 1546.53 Z" fill="#000000" fill-rule="nonzero" fill-opacity="1" /><path clip-path="url(#clip060)" d="M1601.27 1537.81 L1601.27 1518.52 L1607.12 1518.52 L1607.12 1568.04 L1601.27 1568.04 L1601.27 1562.7 Q1599.42 1565.88 1596.59 1567.44 Q1593.79 1568.97 1589.84 1568.97 Q1583.38 1568.97 1579.3 1563.81 Q1575.26 1558.65 1575.26 1550.25 Q1575.26 1541.85 1579.3 1536.69 Q1583.38 1531.54 1589.84 1531.54 Q1593.79 1531.54 1596.59 1533.1 Q1599.42 1534.62 1601.27 1537.81 M1581.31 1550.25 Q1581.31 1556.71 1583.95 1560.4 Q1586.62 1564.07 1591.27 1564.07 Q1595.92 1564.07 1598.59 1560.4 Q1601.27 1556.71 1601.27 1550.25 Q1601.27 1543.79 1598.59 1540.13 Q1595.92 1536.44 1591.27 1536.44 Q1586.62 1536.44 1583.95 1540.13 Q1581.31 1543.79 1581.31 1550.25 Z" fill="#000000" fill-rule="nonzero" fill-opacity="1" /><path clip-path="url(#clip060)" d="M1633 1536.5 Q1628.29 1536.5 1625.55 1540.19 Q1622.81 1543.85 1622.81 1550.25 Q1622.81 1556.65 1625.52 1560.34 Q1628.26 1564 1633 1564 Q1637.68 1564 1640.42 1560.31 Q1643.15 1556.62 1643.15 1550.25 Q1643.15 1543.92 1640.42 1540.23 Q1637.68 1536.5 1633 1536.5 M1633 1531.54 Q1640.64 1531.54 1645 1536.5 Q1649.36 1541.47 1649.36 1550.25 Q1649.36 1559 1645 1564 Q1640.64 1568.97 1633 1568.97 Q1625.33 1568.97 1620.97 1564 Q1616.64 1559 1616.64 1550.25 Q1616.64 1541.47 1620.97 1536.5 Q1625.33 1531.54 1633 1531.54 Z" fill="#000000" fill-rule="nonzero" fill-opacity="1" /><path clip-path="url(#clip060)" d="M1686.82 1539.24 Q1689.02 1535.29 1692.07 1533.41 Q1695.13 1531.54 1699.27 1531.54 Q1704.84 1531.54 1707.86 1535.45 Q1710.88 1539.33 1710.88 1546.53 L1710.88 1568.04 L1705 1568.04 L1705 1546.72 Q1705 1541.59 1703.18 1539.11 Q1701.37 1536.63 1697.64 1536.63 Q1693.09 1536.63 1690.45 1539.65 Q1687.81 1542.68 1687.81 1547.9 L1687.81 1568.04 L1681.92 1568.04 L1681.92 1546.72 Q1681.92 1541.56 1680.11 1539.11 Q1678.29 1536.63 1674.5 1536.63 Q1670.02 1536.63 1667.37 1539.68 Q1664.73 1542.71 1664.73 1547.9 L1664.73 1568.04 L1658.84 1568.04 L1658.84 1532.4 L1664.73 1532.4 L1664.73 1537.93 Q1666.74 1534.66 1669.54 1533.1 Q1672.34 1531.54 1676.19 1531.54 Q1680.07 1531.54 1682.78 1533.51 Q1685.52 1535.48 1686.82 1539.24 Z" fill="#000000" fill-rule="nonzero" fill-opacity="1" /><path clip-path="url(#clip060)" d="M1722.56 1532.4 L1728.42 1532.4 L1728.42 1568.04 L1722.56 1568.04 L1722.56 1532.4 M1722.56 1518.52 L1728.42 1518.52 L1728.42 1525.93 L1722.56 1525.93 L1722.56 1518.52 Z" fill="#000000" fill-rule="nonzero" fill-opacity="1" /><path clip-path="url(#clip060)" d="M1738.13 1532.4 L1765.95 1532.4 L1765.95 1537.74 L1743.92 1563.37 L1765.95 1563.37 L1765.95 1568.04 L1737.33 1568.04 L1737.33 1562.7 L1759.36 1537.07 L1738.13 1537.07 L1738.13 1532.4 Z" fill="#000000" fill-rule="nonzero" fill-opacity="1" /><path clip-path="url(#clip060)" d="M1805.38 1548.76 L1805.38 1551.62 L1778.46 1551.62 Q1778.84 1557.67 1782.08 1560.85 Q1785.36 1564 1791.19 1564 Q1794.56 1564 1797.71 1563.17 Q1800.89 1562.35 1804.01 1560.69 L1804.01 1566.23 Q1800.86 1567.57 1797.55 1568.27 Q1794.24 1568.97 1790.84 1568.97 Q1782.31 1568.97 1777.31 1564 Q1772.34 1559.04 1772.34 1550.57 Q1772.34 1541.82 1777.05 1536.69 Q1781.8 1531.54 1789.82 1531.54 Q1797.01 1531.54 1801.18 1536.18 Q1805.38 1540.8 1805.38 1548.76 M1799.53 1547.04 Q1799.46 1542.23 1796.82 1539.37 Q1794.21 1536.5 1789.88 1536.5 Q1784.98 1536.5 1782.02 1539.27 Q1779.09 1542.04 1778.65 1547.07 L1799.53 1547.04 Z" fill="#000000" fill-rule="nonzero" fill-opacity="1" /><path clip-path="url(#clip060)" d="M1838.45 1537.81 L1838.45 1518.52 L1844.31 1518.52 L1844.31 1568.04 L1838.45 1568.04 L1838.45 1562.7 Q1836.61 1565.88 1833.77 1567.44 Q1830.97 1568.97 1827.03 1568.97 Q1820.56 1568.97 1816.49 1563.81 Q1812.45 1558.65 1812.45 1550.25 Q1812.45 1541.85 1816.49 1536.69 Q1820.56 1531.54 1827.03 1531.54 Q1830.97 1531.54 1833.77 1533.1 Q1836.61 1534.62 1838.45 1537.81 M1818.5 1550.25 Q1818.5 1556.71 1821.14 1560.4 Q1823.81 1564.07 1828.46 1564.07 Q1833.11 1564.07 1835.78 1560.4 Q1838.45 1556.71 1838.45 1550.25 Q1838.45 1543.79 1835.78 1540.13 Q1833.11 1536.44 1828.46 1536.44 Q1823.81 1536.44 1821.14 1540.13 Q1818.5 1543.79 1818.5 1550.25 Z" fill="#000000" fill-rule="nonzero" fill-opacity="1" /><polyline clip-path="url(#clip062)" style="stroke:#000000; stroke-linecap:round; stroke-linejoin:round; stroke-width:2; stroke-opacity:0.1; fill:none" points="287.366,1223.67 2352.76,1223.67 "/>
<polyline clip-path="url(#clip062)" style="stroke:#000000; stroke-linecap:round; stroke-linejoin:round; stroke-width:2; stroke-opacity:0.1; fill:none" points="287.366,996.635 2352.76,996.635 "/>
<polyline clip-path="url(#clip062)" style="stroke:#000000; stroke-linecap:round; stroke-linejoin:round; stroke-width:2; stroke-opacity:0.1; fill:none" points="287.366,769.602 2352.76,769.602 "/>
<polyline clip-path="url(#clip062)" style="stroke:#000000; stroke-linecap:round; stroke-linejoin:round; stroke-width:2; stroke-opacity:0.1; fill:none" points="287.366,542.568 2352.76,542.568 "/>
<polyline clip-path="url(#clip062)" style="stroke:#000000; stroke-linecap:round; stroke-linejoin:round; stroke-width:2; stroke-opacity:0.1; fill:none" points="287.366,315.535 2352.76,315.535 "/>
<polyline clip-path="url(#clip060)" style="stroke:#000000; stroke-linecap:round; stroke-linejoin:round; stroke-width:4; stroke-opacity:1; fill:none" points="287.366,1423.18 287.366,123.472 "/>
<polyline clip-path="url(#clip060)" style="stroke:#000000; stroke-linecap:round; stroke-linejoin:round; stroke-width:4; stroke-opacity:1; fill:none" points="287.366,1223.67 306.264,1223.67 "/>
<polyline clip-path="url(#clip060)" style="stroke:#000000; stroke-linecap:round; stroke-linejoin:round; stroke-width:4; stroke-opacity:1; fill:none" points="287.366,996.635 306.264,996.635 "/>
<polyline clip-path="url(#clip060)" style="stroke:#000000; stroke-linecap:round; stroke-linejoin:round; stroke-width:4; stroke-opacity:1; fill:none" points="287.366,769.602 306.264,769.602 "/>
<polyline clip-path="url(#clip060)" style="stroke:#000000; stroke-linecap:round; stroke-linejoin:round; stroke-width:4; stroke-opacity:1; fill:none" points="287.366,542.568 306.264,542.568 "/>
<polyline clip-path="url(#clip060)" style="stroke:#000000; stroke-linecap:round; stroke-linejoin:round; stroke-width:4; stroke-opacity:1; fill:none" points="287.366,315.535 306.264,315.535 "/>
<path clip-path="url(#clip060)" d="M114.26 1224.12 L143.936 1224.12 L143.936 1228.06 L114.26 1228.06 L114.26 1224.12 Z" fill="#000000" fill-rule="nonzero" fill-opacity="1" /><path clip-path="url(#clip060)" d="M164.028 1209.47 Q160.417 1209.47 158.589 1213.03 Q156.783 1216.57 156.783 1223.7 Q156.783 1230.81 158.589 1234.37 Q160.417 1237.92 164.028 1237.92 Q167.663 1237.92 169.468 1234.37 Q171.297 1230.81 171.297 1223.7 Q171.297 1216.57 169.468 1213.03 Q167.663 1209.47 164.028 1209.47 M164.028 1205.76 Q169.839 1205.76 172.894 1210.37 Q175.973 1214.95 175.973 1223.7 Q175.973 1232.43 172.894 1237.04 Q169.839 1241.62 164.028 1241.62 Q158.218 1241.62 155.14 1237.04 Q152.084 1232.43 152.084 1223.7 Q152.084 1214.95 155.14 1210.37 Q158.218 1205.76 164.028 1205.76 Z" fill="#000000" fill-rule="nonzero" fill-opacity="1" /><path clip-path="url(#clip060)" d="M184.19 1235.07 L189.075 1235.07 L189.075 1240.95 L184.19 1240.95 L184.19 1235.07 Z" fill="#000000" fill-rule="nonzero" fill-opacity="1" /><path clip-path="url(#clip060)" d="M199.306 1206.39 L217.662 1206.39 L217.662 1210.32 L203.588 1210.32 L203.588 1218.8 Q204.607 1218.45 205.625 1218.29 Q206.644 1218.1 207.662 1218.1 Q213.449 1218.1 216.829 1221.27 Q220.209 1224.44 220.209 1229.86 Q220.209 1235.44 216.736 1238.54 Q213.264 1241.62 206.945 1241.62 Q204.769 1241.62 202.5 1241.25 Q200.255 1240.88 197.848 1240.14 L197.848 1235.44 Q199.931 1236.57 202.153 1237.13 Q204.375 1237.68 206.852 1237.68 Q210.857 1237.68 213.195 1235.58 Q215.533 1233.47 215.533 1229.86 Q215.533 1226.25 213.195 1224.14 Q210.857 1222.04 206.852 1222.04 Q204.977 1222.04 203.102 1222.45 Q201.25 1222.87 199.306 1223.75 L199.306 1206.39 Z" fill="#000000" fill-rule="nonzero" fill-opacity="1" /><path clip-path="url(#clip060)" d="M239.422 1209.47 Q235.81 1209.47 233.982 1213.03 Q232.176 1216.57 232.176 1223.7 Q232.176 1230.81 233.982 1234.37 Q235.81 1237.92 239.422 1237.92 Q243.056 1237.92 244.861 1234.37 Q246.69 1230.81 246.69 1223.7 Q246.69 1216.57 244.861 1213.03 Q243.056 1209.47 239.422 1209.47 M239.422 1205.76 Q245.232 1205.76 248.287 1210.37 Q251.366 1214.95 251.366 1223.7 Q251.366 1232.43 248.287 1237.04 Q245.232 1241.62 239.422 1241.62 Q233.611 1241.62 230.533 1237.04 Q227.477 1232.43 227.477 1223.7 Q227.477 1214.95 230.533 1210.37 Q233.611 1205.76 239.422 1205.76 Z" fill="#000000" fill-rule="nonzero" fill-opacity="1" /><path clip-path="url(#clip060)" d="M115.256 997.086 L144.931 997.086 L144.931 1001.02 L115.256 1001.02 L115.256 997.086 Z" fill="#000000" fill-rule="nonzero" fill-opacity="1" /><path clip-path="url(#clip060)" d="M165.024 982.434 Q161.413 982.434 159.584 985.999 Q157.778 989.54 157.778 996.67 Q157.778 1003.78 159.584 1007.34 Q161.413 1010.88 165.024 1010.88 Q168.658 1010.88 170.464 1007.34 Q172.292 1003.78 172.292 996.67 Q172.292 989.54 170.464 985.999 Q168.658 982.434 165.024 982.434 M165.024 978.73 Q170.834 978.73 173.889 983.336 Q176.968 987.92 176.968 996.67 Q176.968 1005.4 173.889 1010 Q170.834 1014.59 165.024 1014.59 Q159.214 1014.59 156.135 1010 Q153.079 1005.4 153.079 996.67 Q153.079 987.92 156.135 983.336 Q159.214 978.73 165.024 978.73 Z" fill="#000000" fill-rule="nonzero" fill-opacity="1" /><path clip-path="url(#clip060)" d="M185.186 1008.04 L190.07 1008.04 L190.07 1013.92 L185.186 1013.92 L185.186 1008.04 Z" fill="#000000" fill-rule="nonzero" fill-opacity="1" /><path clip-path="url(#clip060)" d="M204.283 1009.98 L220.602 1009.98 L220.602 1013.92 L198.658 1013.92 L198.658 1009.98 Q201.32 1007.23 205.903 1002.6 Q210.51 997.943 211.69 996.6 Q213.936 994.077 214.815 992.341 Q215.718 990.582 215.718 988.892 Q215.718 986.137 213.774 984.401 Q211.852 982.665 208.75 982.665 Q206.551 982.665 204.098 983.429 Q201.667 984.193 198.889 985.744 L198.889 981.022 Q201.713 979.887 204.167 979.309 Q206.621 978.73 208.658 978.73 Q214.028 978.73 217.223 981.415 Q220.417 984.1 220.417 988.591 Q220.417 990.721 219.607 992.642 Q218.82 994.54 216.713 997.133 Q216.135 997.804 213.033 1001.02 Q209.931 1004.22 204.283 1009.98 Z" fill="#000000" fill-rule="nonzero" fill-opacity="1" /><path clip-path="url(#clip060)" d="M230.463 979.355 L248.82 979.355 L248.82 983.29 L234.746 983.29 L234.746 991.762 Q235.764 991.415 236.783 991.253 Q237.801 991.068 238.82 991.068 Q244.607 991.068 247.986 994.239 Q251.366 997.41 251.366 1002.83 Q251.366 1008.41 247.894 1011.51 Q244.421 1014.59 238.102 1014.59 Q235.926 1014.59 233.658 1014.22 Q231.412 1013.85 229.005 1013.1 L229.005 1008.41 Q231.088 1009.54 233.31 1010.1 Q235.533 1010.65 238.009 1010.65 Q242.014 1010.65 244.352 1008.54 Q246.69 1006.44 246.69 1002.83 Q246.69 999.216 244.352 997.11 Q242.014 995.003 238.009 995.003 Q236.135 995.003 234.26 995.42 Q232.408 995.836 230.463 996.716 L230.463 979.355 Z" fill="#000000" fill-rule="nonzero" fill-opacity="1" /><path clip-path="url(#clip060)" d="M164.028 755.4 Q160.417 755.4 158.589 758.965 Q156.783 762.507 156.783 769.636 Q156.783 776.743 158.589 780.308 Q160.417 783.849 164.028 783.849 Q167.663 783.849 169.468 780.308 Q171.297 776.743 171.297 769.636 Q171.297 762.507 169.468 758.965 Q167.663 755.4 164.028 755.4 M164.028 751.697 Q169.839 751.697 172.894 756.303 Q175.973 760.886 175.973 769.636 Q175.973 778.363 172.894 782.97 Q169.839 787.553 164.028 787.553 Q158.218 787.553 155.14 782.97 Q152.084 778.363 152.084 769.636 Q152.084 760.886 155.14 756.303 Q158.218 751.697 164.028 751.697 Z" fill="#000000" fill-rule="nonzero" fill-opacity="1" /><path clip-path="url(#clip060)" d="M184.19 781.002 L189.075 781.002 L189.075 786.882 L184.19 786.882 L184.19 781.002 Z" fill="#000000" fill-rule="nonzero" fill-opacity="1" /><path clip-path="url(#clip060)" d="M209.26 755.4 Q205.649 755.4 203.82 758.965 Q202.014 762.507 202.014 769.636 Q202.014 776.743 203.82 780.308 Q205.649 783.849 209.26 783.849 Q212.894 783.849 214.699 780.308 Q216.528 776.743 216.528 769.636 Q216.528 762.507 214.699 758.965 Q212.894 755.4 209.26 755.4 M209.26 751.697 Q215.07 751.697 218.125 756.303 Q221.204 760.886 221.204 769.636 Q221.204 778.363 218.125 782.97 Q215.07 787.553 209.26 787.553 Q203.449 787.553 200.371 782.97 Q197.315 778.363 197.315 769.636 Q197.315 760.886 200.371 756.303 Q203.449 751.697 209.26 751.697 Z" fill="#000000" fill-rule="nonzero" fill-opacity="1" /><path clip-path="url(#clip060)" d="M239.422 755.4 Q235.81 755.4 233.982 758.965 Q232.176 762.507 232.176 769.636 Q232.176 776.743 233.982 780.308 Q235.81 783.849 239.422 783.849 Q243.056 783.849 244.861 780.308 Q246.69 776.743 246.69 769.636 Q246.69 762.507 244.861 758.965 Q243.056 755.4 239.422 755.4 M239.422 751.697 Q245.232 751.697 248.287 756.303 Q251.366 760.886 251.366 769.636 Q251.366 778.363 248.287 782.97 Q245.232 787.553 239.422 787.553 Q233.611 787.553 230.533 782.97 Q227.477 778.363 227.477 769.636 Q227.477 760.886 230.533 756.303 Q233.611 751.697 239.422 751.697 Z" fill="#000000" fill-rule="nonzero" fill-opacity="1" /><path clip-path="url(#clip060)" d="M165.024 528.367 Q161.413 528.367 159.584 531.932 Q157.778 535.473 157.778 542.603 Q157.778 549.709 159.584 553.274 Q161.413 556.816 165.024 556.816 Q168.658 556.816 170.464 553.274 Q172.292 549.709 172.292 542.603 Q172.292 535.473 170.464 531.932 Q168.658 528.367 165.024 528.367 M165.024 524.663 Q170.834 524.663 173.889 529.27 Q176.968 533.853 176.968 542.603 Q176.968 551.33 173.889 555.936 Q170.834 560.519 165.024 560.519 Q159.214 560.519 156.135 555.936 Q153.079 551.33 153.079 542.603 Q153.079 533.853 156.135 529.27 Q159.214 524.663 165.024 524.663 Z" fill="#000000" fill-rule="nonzero" fill-opacity="1" /><path clip-path="url(#clip060)" d="M185.186 553.968 L190.07 553.968 L190.07 559.848 L185.186 559.848 L185.186 553.968 Z" fill="#000000" fill-rule="nonzero" fill-opacity="1" /><path clip-path="url(#clip060)" d="M204.283 555.913 L220.602 555.913 L220.602 559.848 L198.658 559.848 L198.658 555.913 Q201.32 553.158 205.903 548.529 Q210.51 543.876 211.69 542.533 Q213.936 540.01 214.815 538.274 Q215.718 536.515 215.718 534.825 Q215.718 532.07 213.774 530.334 Q211.852 528.598 208.75 528.598 Q206.551 528.598 204.098 529.362 Q201.667 530.126 198.889 531.677 L198.889 526.955 Q201.713 525.82 204.167 525.242 Q206.621 524.663 208.658 524.663 Q214.028 524.663 217.223 527.348 Q220.417 530.033 220.417 534.524 Q220.417 536.654 219.607 538.575 Q218.82 540.473 216.713 543.066 Q216.135 543.737 213.033 546.955 Q209.931 550.149 204.283 555.913 Z" fill="#000000" fill-rule="nonzero" fill-opacity="1" /><path clip-path="url(#clip060)" d="M230.463 525.288 L248.82 525.288 L248.82 529.223 L234.746 529.223 L234.746 537.695 Q235.764 537.348 236.783 537.186 Q237.801 537.001 238.82 537.001 Q244.607 537.001 247.986 540.172 Q251.366 543.344 251.366 548.76 Q251.366 554.339 247.894 557.441 Q244.421 560.519 238.102 560.519 Q235.926 560.519 233.658 560.149 Q231.412 559.779 229.005 559.038 L229.005 554.339 Q231.088 555.473 233.31 556.029 Q235.533 556.584 238.009 556.584 Q242.014 556.584 244.352 554.478 Q246.69 552.371 246.69 548.76 Q246.69 545.149 244.352 543.043 Q242.014 540.936 238.009 540.936 Q236.135 540.936 234.26 541.353 Q232.408 541.769 230.463 542.649 L230.463 525.288 Z" fill="#000000" fill-rule="nonzero" fill-opacity="1" /><path clip-path="url(#clip060)" d="M164.028 301.333 Q160.417 301.333 158.589 304.898 Q156.783 308.44 156.783 315.569 Q156.783 322.676 158.589 326.241 Q160.417 329.782 164.028 329.782 Q167.663 329.782 169.468 326.241 Q171.297 322.676 171.297 315.569 Q171.297 308.44 169.468 304.898 Q167.663 301.333 164.028 301.333 M164.028 297.63 Q169.839 297.63 172.894 302.236 Q175.973 306.819 175.973 315.569 Q175.973 324.296 172.894 328.903 Q169.839 333.486 164.028 333.486 Q158.218 333.486 155.14 328.903 Q152.084 324.296 152.084 315.569 Q152.084 306.819 155.14 302.236 Q158.218 297.63 164.028 297.63 Z" fill="#000000" fill-rule="nonzero" fill-opacity="1" /><path clip-path="url(#clip060)" d="M184.19 326.935 L189.075 326.935 L189.075 332.815 L184.19 332.815 L184.19 326.935 Z" fill="#000000" fill-rule="nonzero" fill-opacity="1" /><path clip-path="url(#clip060)" d="M199.306 298.255 L217.662 298.255 L217.662 302.19 L203.588 302.19 L203.588 310.662 Q204.607 310.315 205.625 310.153 Q206.644 309.967 207.662 309.967 Q213.449 309.967 216.829 313.139 Q220.209 316.31 220.209 321.727 Q220.209 327.305 216.736 330.407 Q213.264 333.486 206.945 333.486 Q204.769 333.486 202.5 333.115 Q200.255 332.745 197.848 332.004 L197.848 327.305 Q199.931 328.44 202.153 328.995 Q204.375 329.551 206.852 329.551 Q210.857 329.551 213.195 327.444 Q215.533 325.338 215.533 321.727 Q215.533 318.116 213.195 316.009 Q210.857 313.903 206.852 313.903 Q204.977 313.903 203.102 314.319 Q201.25 314.736 199.306 315.616 L199.306 298.255 Z" fill="#000000" fill-rule="nonzero" fill-opacity="1" /><path clip-path="url(#clip060)" d="M239.422 301.333 Q235.81 301.333 233.982 304.898 Q232.176 308.44 232.176 315.569 Q232.176 322.676 233.982 326.241 Q235.81 329.782 239.422 329.782 Q243.056 329.782 244.861 326.241 Q246.69 322.676 246.69 315.569 Q246.69 308.44 244.861 304.898 Q243.056 301.333 239.422 301.333 M239.422 297.63 Q245.232 297.63 248.287 302.236 Q251.366 306.819 251.366 315.569 Q251.366 324.296 248.287 328.903 Q245.232 333.486 239.422 333.486 Q233.611 333.486 230.533 328.903 Q227.477 324.296 227.477 315.569 Q227.477 306.819 230.533 302.236 Q233.611 297.63 239.422 297.63 Z" fill="#000000" fill-rule="nonzero" fill-opacity="1" /><path clip-path="url(#clip060)" d="M16.4842 957.947 L16.4842 948.367 L48.8219 936.24 L16.4842 924.05 L16.4842 914.47 L64.0042 914.47 L64.0042 920.74 L22.277 920.74 L54.8694 932.994 L54.8694 939.455 L22.277 951.709 L64.0042 951.709 L64.0042 957.947 L16.4842 957.947 Z" fill="#000000" fill-rule="nonzero" fill-opacity="1" /><path clip-path="url(#clip060)" d="M44.7161 871.469 L47.5806 871.469 L47.5806 898.396 Q53.6281 898.014 56.8109 894.768 Q59.9619 891.489 59.9619 885.665 Q59.9619 882.291 59.1344 879.14 Q58.3069 875.957 56.6518 872.838 L62.1899 872.838 Q63.5267 875.989 64.227 879.299 Q64.9272 882.609 64.9272 886.015 Q64.9272 894.545 59.9619 899.542 Q54.9967 904.507 46.5303 904.507 Q37.7774 904.507 32.6531 899.797 Q27.4968 895.054 27.4968 887.033 Q27.4968 879.84 32.1438 875.671 Q36.7589 871.469 44.7161 871.469 M42.9973 877.326 Q38.1912 877.389 35.3266 880.031 Q32.4621 882.641 32.4621 886.97 Q32.4621 891.871 35.2312 894.831 Q38.0002 897.76 43.0292 898.205 L42.9973 877.326 Z" fill="#000000" fill-rule="nonzero" fill-opacity="1" /><path clip-path="url(#clip060)" d="M46.0847 845.656 Q46.0847 852.754 47.7079 855.491 Q49.3312 858.229 53.2461 858.229 Q56.3653 858.229 58.2114 856.192 Q60.0256 854.123 60.0256 850.59 Q60.0256 845.72 56.5881 842.792 Q53.1188 839.832 47.3897 839.832 L46.0847 839.832 L46.0847 845.656 M43.6657 833.975 L64.0042 833.975 L64.0042 839.832 L58.5933 839.832 Q61.8398 841.837 63.3994 844.829 Q64.9272 847.821 64.9272 852.149 Q64.9272 857.624 61.8716 860.87 Q58.7843 864.085 53.6281 864.085 Q47.6125 864.085 44.5569 860.075 Q41.5014 856.032 41.5014 848.043 L41.5014 839.832 L40.9285 839.832 Q36.8862 839.832 34.6901 842.505 Q32.4621 845.147 32.4621 849.953 Q32.4621 853.009 33.1941 855.905 Q33.9262 858.802 35.3903 861.475 L29.9795 861.475 Q28.7381 858.26 28.1334 855.237 Q27.4968 852.213 27.4968 849.348 Q27.4968 841.614 31.5072 837.795 Q35.5176 833.975 43.6657 833.975 Z" fill="#000000" fill-rule="nonzero" fill-opacity="1" /><path clip-path="url(#clip060)" d="M42.4881 792.28 L64.0042 792.28 L64.0042 798.136 L42.679 798.136 Q37.6183 798.136 35.1038 800.11 Q32.5894 802.083 32.5894 806.03 Q32.5894 810.772 35.6131 813.51 Q38.6368 816.247 43.8567 816.247 L64.0042 816.247 L64.0042 822.135 L28.3562 822.135 L28.3562 816.247 L33.8944 816.247 Q30.6797 814.146 29.0883 811.313 Q27.4968 808.449 27.4968 804.725 Q27.4968 798.582 31.3163 795.431 Q35.1038 792.28 42.4881 792.28 Z" fill="#000000" fill-rule="nonzero" fill-opacity="1" /><path clip-path="url(#clip060)" d="M16.4842 759.624 L16.4842 753.194 L64.0042 753.194 L64.0042 759.624 L16.4842 759.624 Z" fill="#000000" fill-rule="nonzero" fill-opacity="1" /><path clip-path="url(#clip060)" d="M42.4881 711.022 L64.0042 711.022 L64.0042 716.878 L42.679 716.878 Q37.6183 716.878 35.1038 718.851 Q32.5894 720.825 32.5894 724.772 Q32.5894 729.514 35.6131 732.251 Q38.6368 734.989 43.8567 734.989 L64.0042 734.989 L64.0042 740.877 L28.3562 740.877 L28.3562 734.989 L33.8944 734.989 Q30.6797 732.888 29.0883 730.055 Q27.4968 727.191 27.4968 723.467 Q27.4968 717.324 31.3163 714.173 Q35.1038 711.022 42.4881 711.022 Z" fill="#000000" fill-rule="nonzero" fill-opacity="1" /><path clip-path="url(#clip060)" d="M33.7671 675.883 L14.479 675.883 L14.479 670.026 L64.0042 670.026 L64.0042 675.883 L58.657 675.883 Q61.8398 677.729 63.3994 680.562 Q64.9272 683.363 64.9272 687.309 Q64.9272 693.771 59.771 697.845 Q54.6147 701.887 46.212 701.887 Q37.8093 701.887 32.6531 697.845 Q27.4968 693.771 27.4968 687.309 Q27.4968 683.363 29.0564 680.562 Q30.5842 677.729 33.7671 675.883 M46.212 695.839 Q52.6732 695.839 56.3653 693.198 Q60.0256 690.524 60.0256 685.877 Q60.0256 681.23 56.3653 678.557 Q52.6732 675.883 46.212 675.883 Q39.7508 675.883 36.0905 678.557 Q32.3984 681.23 32.3984 685.877 Q32.3984 690.524 36.0905 693.198 Q39.7508 695.839 46.212 695.839 Z" fill="#000000" fill-rule="nonzero" fill-opacity="1" /><path clip-path="url(#clip060)" d="M44.7161 627.472 L47.5806 627.472 L47.5806 654.399 Q53.6281 654.017 56.8109 650.77 Q59.9619 647.492 59.9619 641.667 Q59.9619 638.293 59.1344 635.142 Q58.3069 631.96 56.6518 628.84 L62.1899 628.84 Q63.5267 631.991 64.227 635.302 Q64.9272 638.612 64.9272 642.017 Q64.9272 650.547 59.9619 655.544 Q54.9967 660.51 46.5303 660.51 Q37.7774 660.51 32.6531 655.799 Q27.4968 651.057 27.4968 643.036 Q27.4968 635.843 32.1438 631.673 Q36.7589 627.472 44.7161 627.472 M42.9973 633.328 Q38.1912 633.392 35.3266 636.034 Q32.4621 638.644 32.4621 642.972 Q32.4621 647.874 35.2312 650.834 Q38.0002 653.762 43.0292 654.208 L42.9973 633.328 Z" fill="#000000" fill-rule="nonzero" fill-opacity="1" /><path clip-path="url(#clip060)" d="M28.3562 589.373 L45.7028 602.264 L64.0042 588.705 L64.0042 595.611 L49.9996 605.987 L64.0042 616.364 L64.0042 623.27 L45.3526 609.425 L28.3562 622.093 L28.3562 615.186 L41.0558 605.733 L28.3562 596.28 L28.3562 589.373 Z" fill="#000000" fill-rule="nonzero" fill-opacity="1" /><path clip-path="url(#clip060)" d="M1016.16 44.2197 Q1018.8 45.1109 1021.27 48.0275 Q1023.78 50.9442 1026.29 56.0483 L1034.59 72.576 L1025.8 72.576 L1018.07 57.061 Q1015.07 50.9847 1012.23 48.9997 Q1009.44 47.0148 1004.58 47.0148 L995.664 47.0148 L995.664 72.576 L987.482 72.576 L987.482 12.096 L1005.95 12.096 Q1016.32 12.096 1021.43 16.4305 Q1026.53 20.7649 1026.53 29.5149 Q1026.53 35.2267 1023.86 38.994 Q1021.23 42.7613 1016.16 44.2197 M995.664 18.8205 L995.664 40.2903 L1005.95 40.2903 Q1011.87 40.2903 1014.87 37.5762 Q1017.9 34.8216 1017.9 29.5149 Q1017.9 24.2082 1014.87 21.5346 Q1011.87 18.8205 1005.95 18.8205 L995.664 18.8205 Z" fill="#000000" fill-rule="nonzero" fill-opacity="1" /><path clip-path="url(#clip060)" d="M1063.6 49.7694 Q1054.56 49.7694 1051.08 51.8354 Q1047.6 53.9013 1047.6 58.8839 Q1047.6 62.8538 1050.19 65.2034 Q1052.82 67.5124 1057.32 67.5124 Q1063.52 67.5124 1067.24 63.1374 Q1071.01 58.7219 1071.01 51.4303 L1071.01 49.7694 L1063.6 49.7694 M1078.46 46.6907 L1078.46 72.576 L1071.01 72.576 L1071.01 65.6895 Q1068.46 69.8214 1064.65 71.8063 Q1060.84 73.7508 1055.33 73.7508 Q1048.37 73.7508 1044.23 69.8619 Q1040.14 65.9325 1040.14 59.3701 Q1040.14 51.7138 1045.25 47.825 Q1050.39 43.9361 1060.56 43.9361 L1071.01 43.9361 L1071.01 43.2069 Q1071.01 38.0623 1067.61 35.2672 Q1064.25 32.4315 1058.13 32.4315 Q1054.24 32.4315 1050.55 33.3632 Q1046.87 34.295 1043.47 36.1584 L1043.47 29.2718 Q1047.56 27.692 1051.4 26.9223 Q1055.25 26.1121 1058.9 26.1121 Q1068.74 26.1121 1073.6 31.2163 Q1078.46 36.3204 1078.46 46.6907 Z" fill="#000000" fill-rule="nonzero" fill-opacity="1" /><path clip-path="url(#clip060)" d="M1131.53 45.1919 L1131.53 72.576 L1124.08 72.576 L1124.08 45.4349 Q1124.08 38.994 1121.57 35.7938 Q1119.06 32.5936 1114.03 32.5936 Q1108 32.5936 1104.51 36.4419 Q1101.03 40.2903 1101.03 46.9338 L1101.03 72.576 L1093.53 72.576 L1093.53 27.2059 L1101.03 27.2059 L1101.03 34.2544 Q1103.7 30.163 1107.31 28.1376 Q1110.95 26.1121 1115.69 26.1121 Q1123.51 26.1121 1127.52 30.9732 Q1131.53 35.7938 1131.53 45.1919 Z" fill="#000000" fill-rule="nonzero" fill-opacity="1" /><path clip-path="url(#clip060)" d="M1176.25 34.0924 L1176.25 9.54393 L1183.71 9.54393 L1183.71 72.576 L1176.25 72.576 L1176.25 65.7705 Q1173.9 69.8214 1170.3 71.8063 Q1166.73 73.7508 1161.71 73.7508 Q1153.49 73.7508 1148.3 67.1883 Q1143.16 60.6258 1143.16 49.9314 Q1143.16 39.2371 1148.3 32.6746 Q1153.49 26.1121 1161.71 26.1121 Q1166.73 26.1121 1170.3 28.0971 Q1173.9 30.0415 1176.25 34.0924 M1150.85 49.9314 Q1150.85 58.1548 1154.22 62.8538 Q1157.62 67.5124 1163.53 67.5124 Q1169.45 67.5124 1172.85 62.8538 Q1176.25 58.1548 1176.25 49.9314 Q1176.25 41.7081 1172.85 37.0496 Q1169.45 32.3505 1163.53 32.3505 Q1157.62 32.3505 1154.22 37.0496 Q1150.85 41.7081 1150.85 49.9314 Z" fill="#000000" fill-rule="nonzero" fill-opacity="1" /><path clip-path="url(#clip060)" d="M1216.64 32.4315 Q1210.65 32.4315 1207.16 37.1306 Q1203.68 41.7891 1203.68 49.9314 Q1203.68 58.0738 1207.12 62.7728 Q1210.61 67.4314 1216.64 67.4314 Q1222.6 67.4314 1226.08 62.7323 Q1229.56 58.0333 1229.56 49.9314 Q1229.56 41.8701 1226.08 37.1711 Q1222.6 32.4315 1216.64 32.4315 M1216.64 26.1121 Q1226.36 26.1121 1231.91 32.4315 Q1237.46 38.7509 1237.46 49.9314 Q1237.46 61.0714 1231.91 67.4314 Q1226.36 73.7508 1216.64 73.7508 Q1206.88 73.7508 1201.33 67.4314 Q1195.82 61.0714 1195.82 49.9314 Q1195.82 38.7509 1201.33 32.4315 Q1206.88 26.1121 1216.64 26.1121 Z" fill="#000000" fill-rule="nonzero" fill-opacity="1" /><path clip-path="url(#clip060)" d="M1285.14 35.9153 Q1287.94 30.8922 1291.83 28.5022 Q1295.71 26.1121 1300.98 26.1121 Q1308.07 26.1121 1311.92 31.0947 Q1315.77 36.0368 1315.77 45.1919 L1315.77 72.576 L1308.27 72.576 L1308.27 45.4349 Q1308.27 38.913 1305.96 35.7533 Q1303.65 32.5936 1298.92 32.5936 Q1293.12 32.5936 1289.76 36.4419 Q1286.4 40.2903 1286.4 46.9338 L1286.4 72.576 L1278.9 72.576 L1278.9 45.4349 Q1278.9 38.8725 1276.59 35.7533 Q1274.29 32.5936 1269.47 32.5936 Q1263.75 32.5936 1260.39 36.4824 Q1257.03 40.3308 1257.03 46.9338 L1257.03 72.576 L1249.53 72.576 L1249.53 27.2059 L1257.03 27.2059 L1257.03 34.2544 Q1259.58 30.082 1263.15 28.0971 Q1266.71 26.1121 1271.61 26.1121 Q1276.55 26.1121 1280 28.6237 Q1283.48 31.1352 1285.14 35.9153 Z" fill="#000000" fill-rule="nonzero" fill-opacity="1" /><path clip-path="url(#clip060)" d="M1330.63 27.2059 L1338.09 27.2059 L1338.09 72.576 L1330.63 72.576 L1330.63 27.2059 M1330.63 9.54393 L1338.09 9.54393 L1338.09 18.9825 L1330.63 18.9825 L1330.63 9.54393 Z" fill="#000000" fill-rule="nonzero" fill-opacity="1" /><path clip-path="url(#clip060)" d="M1350.44 27.2059 L1385.85 27.2059 L1385.85 34.0114 L1357.82 66.6212 L1385.85 66.6212 L1385.85 72.576 L1349.43 72.576 L1349.43 65.7705 L1377.46 33.1607 L1350.44 33.1607 L1350.44 27.2059 Z" fill="#000000" fill-rule="nonzero" fill-opacity="1" /><path clip-path="url(#clip060)" d="M1436.04 48.0275 L1436.04 51.6733 L1401.77 51.6733 Q1402.25 59.3701 1406.39 63.421 Q1410.56 67.4314 1417.97 67.4314 Q1422.27 67.4314 1426.28 66.3781 Q1430.33 65.3249 1434.3 63.2184 L1434.3 70.267 Q1430.29 71.9684 1426.07 72.8596 Q1421.86 73.7508 1417.53 73.7508 Q1406.67 73.7508 1400.31 67.4314 Q1393.99 61.1119 1393.99 50.3365 Q1393.99 39.1965 1399.99 32.6746 Q1406.02 26.1121 1416.23 26.1121 Q1425.38 26.1121 1430.69 32.0264 Q1436.04 37.9003 1436.04 48.0275 M1428.58 45.84 Q1428.5 39.7232 1425.14 36.0774 Q1421.82 32.4315 1416.31 32.4315 Q1410.07 32.4315 1406.3 35.9558 Q1402.58 39.4801 1402.01 45.8805 L1428.58 45.84 Z" fill="#000000" fill-rule="nonzero" fill-opacity="1" /><path clip-path="url(#clip060)" d="M1503.65 44.2197 Q1506.28 45.1109 1508.75 48.0275 Q1511.26 50.9442 1513.78 56.0483 L1522.08 72.576 L1513.29 72.576 L1505.55 57.061 Q1502.55 50.9847 1499.72 48.9997 Q1496.92 47.0148 1492.06 47.0148 L1483.15 47.0148 L1483.15 72.576 L1474.97 72.576 L1474.97 12.096 L1493.44 12.096 Q1503.81 12.096 1508.91 16.4305 Q1514.02 20.7649 1514.02 29.5149 Q1514.02 35.2267 1511.34 38.994 Q1508.71 42.7613 1503.65 44.2197 M1483.15 18.8205 L1483.15 40.2903 L1493.44 40.2903 Q1499.35 40.2903 1502.35 37.5762 Q1505.39 34.8216 1505.39 29.5149 Q1505.39 24.2082 1502.35 21.5346 Q1499.35 18.8205 1493.44 18.8205 L1483.15 18.8205 Z" fill="#000000" fill-rule="nonzero" fill-opacity="1" /><path clip-path="url(#clip060)" d="M1551.08 49.7694 Q1542.05 49.7694 1538.57 51.8354 Q1535.08 53.9013 1535.08 58.8839 Q1535.08 62.8538 1537.68 65.2034 Q1540.31 67.5124 1544.81 67.5124 Q1551 67.5124 1554.73 63.1374 Q1558.5 58.7219 1558.5 51.4303 L1558.5 49.7694 L1551.08 49.7694 M1565.95 46.6907 L1565.95 72.576 L1558.5 72.576 L1558.5 65.6895 Q1555.95 69.8214 1552.14 71.8063 Q1548.33 73.7508 1542.82 73.7508 Q1535.85 73.7508 1531.72 69.8619 Q1527.63 65.9325 1527.63 59.3701 Q1527.63 51.7138 1532.73 47.825 Q1537.88 43.9361 1548.05 43.9361 L1558.5 43.9361 L1558.5 43.2069 Q1558.5 38.0623 1555.09 35.2672 Q1551.73 32.4315 1545.62 32.4315 Q1541.73 32.4315 1538.04 33.3632 Q1534.35 34.295 1530.95 36.1584 L1530.95 29.2718 Q1535.04 27.692 1538.89 26.9223 Q1542.74 26.1121 1546.38 26.1121 Q1556.23 26.1121 1561.09 31.2163 Q1565.95 36.3204 1565.95 46.6907 Z" fill="#000000" fill-rule="nonzero" fill-opacity="1" /><path clip-path="url(#clip060)" d="M1588.68 14.324 L1588.68 27.2059 L1604.03 27.2059 L1604.03 32.9987 L1588.68 32.9987 L1588.68 57.6282 Q1588.68 63.1779 1590.18 64.7578 Q1591.71 66.3376 1596.37 66.3376 L1604.03 66.3376 L1604.03 72.576 L1596.37 72.576 Q1587.74 72.576 1584.46 69.3758 Q1581.18 66.1351 1581.18 57.6282 L1581.18 32.9987 L1575.71 32.9987 L1575.71 27.2059 L1581.18 27.2059 L1581.18 14.324 L1588.68 14.324 Z" fill="#000000" fill-rule="nonzero" fill-opacity="1" /><path clip-path="url(#clip060)" d="M1652.64 48.0275 L1652.64 51.6733 L1618.37 51.6733 Q1618.86 59.3701 1622.99 63.421 Q1627.16 67.4314 1634.57 67.4314 Q1638.87 67.4314 1642.88 66.3781 Q1646.93 65.3249 1650.9 63.2184 L1650.9 70.267 Q1646.89 71.9684 1642.67 72.8596 Q1638.46 73.7508 1634.13 73.7508 Q1623.27 73.7508 1616.91 67.4314 Q1610.59 61.1119 1610.59 50.3365 Q1610.59 39.1965 1616.59 32.6746 Q1622.62 26.1121 1632.83 26.1121 Q1641.99 26.1121 1647.29 32.0264 Q1652.64 37.9003 1652.64 48.0275 M1645.19 45.84 Q1645.11 39.7232 1641.74 36.0774 Q1638.42 32.4315 1632.91 32.4315 Q1626.67 32.4315 1622.91 35.9558 Q1619.18 39.4801 1618.61 45.8805 L1645.19 45.84 Z" fill="#000000" fill-rule="nonzero" fill-opacity="1" /><polyline clip-path="url(#clip062)" style="stroke:#50ad9f; stroke-linecap:round; stroke-linejoin:round; stroke-width:8; stroke-opacity:1; fill:none" points="345.82,160.256 832.941,400.464 1320.06,589.473 1807.18,726.076 2294.3,715.535 "/>
<circle clip-path="url(#clip062)" cx="345.82" cy="160.256" r="25.2" fill="#50ad9f" fill-rule="evenodd" fill-opacity="1" stroke="#000000" stroke-opacity="1" stroke-width="3.2"/>
<circle clip-path="url(#clip062)" cx="832.941" cy="400.464" r="25.2" fill="#50ad9f" fill-rule="evenodd" fill-opacity="1" stroke="#000000" stroke-opacity="1" stroke-width="3.2"/>
<circle clip-path="url(#clip062)" cx="1320.06" cy="589.473" r="25.2" fill="#50ad9f" fill-rule="evenodd" fill-opacity="1" stroke="#000000" stroke-opacity="1" stroke-width="3.2"/>
<circle clip-path="url(#clip062)" cx="1807.18" cy="726.076" r="25.2" fill="#50ad9f" fill-rule="evenodd" fill-opacity="1" stroke="#000000" stroke-opacity="1" stroke-width="3.2"/>
<circle clip-path="url(#clip062)" cx="2294.3" cy="715.535" r="25.2" fill="#50ad9f" fill-rule="evenodd" fill-opacity="1" stroke="#000000" stroke-opacity="1" stroke-width="3.2"/>
<polyline clip-path="url(#clip062)" style="stroke:#0000a2; stroke-linecap:round; stroke-linejoin:round; stroke-width:8; stroke-opacity:1; fill:none" points="345.82,321.152 832.941,699.437 1320.06,1000.26 1807.18,1218.33 2294.3,1324.59 "/>
<path clip-path="url(#clip062)" d="M325.82 301.152 L325.82 341.152 L365.82 341.152 L365.82 301.152 L325.82 301.152 Z" fill="#0000a2" fill-rule="evenodd" fill-opacity="1" stroke="#000000" stroke-opacity="1" stroke-width="3.2"/>
<path clip-path="url(#clip062)" d="M812.941 679.437 L812.941 719.437 L852.941 719.437 L852.941 679.437 L812.941 679.437 Z" fill="#0000a2" fill-rule="evenodd" fill-opacity="1" stroke="#000000" stroke-opacity="1" stroke-width="3.2"/>
<path clip-path="url(#clip062)" d="M1300.06 980.262 L1300.06 1020.26 L1340.06 1020.26 L1340.06 980.262 L1300.06 980.262 Z" fill="#0000a2" fill-rule="evenodd" fill-opacity="1" stroke="#000000" stroke-opacity="1" stroke-width="3.2"/>
<path clip-path="url(#clip062)" d="M1787.18 1198.33 L1787.18 1238.33 L1827.18 1238.33 L1827.18 1198.33 L1787.18 1198.33 Z" fill="#0000a2" fill-rule="evenodd" fill-opacity="1" stroke="#000000" stroke-opacity="1" stroke-width="3.2"/>
<path clip-path="url(#clip062)" d="M2274.3 1304.59 L2274.3 1344.59 L2314.3 1344.59 L2314.3 1304.59 L2274.3 1304.59 Z" fill="#0000a2" fill-rule="evenodd" fill-opacity="1" stroke="#000000" stroke-opacity="1" stroke-width="3.2"/>
<polyline clip-path="url(#clip062)" style="stroke:#bc272d; stroke-linecap:round; stroke-linejoin:round; stroke-width:8; stroke-opacity:1; fill:none" points="345.82,343.139 832.941,734.98 1320.06,1041.83 1807.18,1256.88 2294.3,1386.4 "/>
<path clip-path="url(#clip062)" d="M345.82 315.139 L339.24 334.067 L319.192 334.487 L335.18 346.611 L329.356 365.791 L345.82 354.339 L362.284 365.791 L356.46 346.611 L372.448 334.487 L352.4 334.067 L345.82 315.139 Z" fill="#bc272d" fill-rule="evenodd" fill-opacity="1" stroke="#000000" stroke-opacity="1" stroke-width="3.2"/>
<path clip-path="url(#clip062)" d="M832.941 706.98 L826.361 725.908 L806.313 726.328 L822.301 738.452 L816.477 757.632 L832.941 746.18 L849.405 757.632 L843.581 738.452 L859.569 726.328 L839.521 725.908 L832.941 706.98 Z" fill="#bc272d" fill-rule="evenodd" fill-opacity="1" stroke="#000000" stroke-opacity="1" stroke-width="3.2"/>
<path clip-path="url(#clip062)" d="M1320.06 1013.83 L1313.48 1032.76 L1293.43 1033.18 L1309.42 1045.3 L1303.6 1064.48 L1320.06 1053.03 L1336.52 1064.48 L1330.7 1045.3 L1346.69 1033.18 L1326.64 1032.76 L1320.06 1013.83 Z" fill="#bc272d" fill-rule="evenodd" fill-opacity="1" stroke="#000000" stroke-opacity="1" stroke-width="3.2"/>
<path clip-path="url(#clip062)" d="M1807.18 1228.88 L1800.6 1247.81 L1780.55 1248.23 L1796.54 1260.35 L1790.72 1279.53 L1807.18 1268.08 L1823.65 1279.53 L1817.82 1260.35 L1833.81 1248.23 L1813.76 1247.81 L1807.18 1228.88 Z" fill="#bc272d" fill-rule="evenodd" fill-opacity="1" stroke="#000000" stroke-opacity="1" stroke-width="3.2"/>
<path clip-path="url(#clip062)" d="M2294.3 1358.4 L2287.72 1377.32 L2267.67 1377.74 L2283.66 1389.87 L2277.84 1409.05 L2294.3 1397.6 L2310.77 1409.05 L2304.94 1389.87 L2320.93 1377.74 L2300.88 1377.32 L2294.3 1358.4 Z" fill="#bc272d" fill-rule="evenodd" fill-opacity="1" stroke="#000000" stroke-opacity="1" stroke-width="3.2"/>
<polyline clip-path="url(#clip062)" style="stroke:#e9c716; stroke-linecap:round; stroke-linejoin:round; stroke-width:8; stroke-opacity:1; fill:none" points="345.82,176.965 832.941,412.931 1320.06,585.365 1807.18,699.958 2294.3,769.536 "/>
<path clip-path="url(#clip062)" d="M345.82 148.965 L317.82 204.965 L373.82 204.965 L345.82 148.965 Z" fill="#e9c716" fill-rule="evenodd" fill-opacity="1" stroke="#000000" stroke-opacity="1" stroke-width="3.2"/>
<path clip-path="url(#clip062)" d="M832.941 384.931 L804.941 440.931 L860.941 440.931 L832.941 384.931 Z" fill="#e9c716" fill-rule="evenodd" fill-opacity="1" stroke="#000000" stroke-opacity="1" stroke-width="3.2"/>
<path clip-path="url(#clip062)" d="M1320.06 557.365 L1292.06 613.365 L1348.06 613.365 L1320.06 557.365 Z" fill="#e9c716" fill-rule="evenodd" fill-opacity="1" stroke="#000000" stroke-opacity="1" stroke-width="3.2"/>
<path clip-path="url(#clip062)" d="M1807.18 671.958 L1779.18 727.958 L1835.18 727.958 L1807.18 671.958 Z" fill="#e9c716" fill-rule="evenodd" fill-opacity="1" stroke="#000000" stroke-opacity="1" stroke-width="3.2"/>
<path clip-path="url(#clip062)" d="M2294.3 741.536 L2266.3 797.536 L2322.3 797.536 L2294.3 741.536 Z" fill="#e9c716" fill-rule="evenodd" fill-opacity="1" stroke="#000000" stroke-opacity="1" stroke-width="3.2"/>
<path clip-path="url(#clip060)" d="M1965.15 920.33 L2283.91 920.33 L2283.91 661.13 L1965.15 661.13  Z" fill="#ffffff" fill-rule="evenodd" fill-opacity="1"/>
<polyline clip-path="url(#clip060)" style="stroke:#000000; stroke-linecap:round; stroke-linejoin:round; stroke-width:4; stroke-opacity:1; fill:none" points="1965.15,920.33 2283.91,920.33 2283.91,661.13 1965.15,661.13 1965.15,920.33 "/>
<polyline clip-path="url(#clip060)" style="stroke:#50ad9f; stroke-linecap:round; stroke-linejoin:round; stroke-width:8; stroke-opacity:1; fill:none" points="1988.1,712.97 2125.79,712.97 "/>
<circle clip-path="url(#clip060)" cx="2056.94" cy="712.97" r="19.124" fill="#50ad9f" fill-rule="evenodd" fill-opacity="1" stroke="#000000" stroke-opacity="1" stroke-width="2.73067"/>
<path clip-path="url(#clip060)" d="M2148.74 695.69 L2168.6 695.69 L2168.6 699.625 L2153.42 699.625 L2153.42 709.81 L2167.12 709.81 L2167.12 713.745 L2153.42 713.745 L2153.42 730.25 L2148.74 730.25 L2148.74 695.69 Z" fill="#000000" fill-rule="nonzero" fill-opacity="1" /><path clip-path="url(#clip060)" d="M2172.37 704.324 L2176.63 704.324 L2176.63 730.25 L2172.37 730.25 L2172.37 704.324 M2172.37 694.231 L2176.63 694.231 L2176.63 699.625 L2172.37 699.625 L2172.37 694.231 Z" fill="#000000" fill-rule="nonzero" fill-opacity="1" /><path clip-path="url(#clip060)" d="M2189.76 696.963 L2189.76 704.324 L2198.53 704.324 L2198.53 707.634 L2189.76 707.634 L2189.76 721.708 Q2189.76 724.879 2190.61 725.782 Q2191.49 726.685 2194.16 726.685 L2198.53 726.685 L2198.53 730.25 L2194.16 730.25 Q2189.23 730.25 2187.35 728.421 Q2185.48 726.569 2185.48 721.708 L2185.48 707.634 L2182.35 707.634 L2182.35 704.324 L2185.48 704.324 L2185.48 696.963 L2189.76 696.963 Z" fill="#000000" fill-rule="nonzero" fill-opacity="1" /><polyline clip-path="url(#clip060)" style="stroke:#0000a2; stroke-linecap:round; stroke-linejoin:round; stroke-width:8; stroke-opacity:1; fill:none" points="1988.1,764.81 2125.79,764.81 "/>
<path clip-path="url(#clip060)" d="M2035.7 743.561 L2035.7 786.058 L2078.19 786.058 L2078.19 743.561 L2035.7 743.561 Z" fill="#0000a2" fill-rule="evenodd" fill-opacity="1" stroke="#000000" stroke-opacity="1" stroke-width="3.72364"/>
<path clip-path="url(#clip060)" d="M2170.98 748.664 L2170.98 753.224 Q2168.32 751.951 2165.96 751.326 Q2163.6 750.701 2161.4 750.701 Q2157.58 750.701 2155.5 752.182 Q2153.44 753.664 2153.44 756.395 Q2153.44 758.687 2154.8 759.867 Q2156.19 761.025 2160.04 761.742 L2162.86 762.321 Q2168.09 763.317 2170.57 765.84 Q2173.07 768.34 2173.07 772.553 Q2173.07 777.576 2169.69 780.168 Q2166.33 782.761 2159.83 782.761 Q2157.37 782.761 2154.6 782.205 Q2151.84 781.65 2148.88 780.562 L2148.88 775.747 Q2151.73 777.344 2154.46 778.154 Q2157.19 778.965 2159.83 778.965 Q2163.83 778.965 2166.01 777.391 Q2168.18 775.816 2168.18 772.9 Q2168.18 770.354 2166.61 768.918 Q2165.06 767.483 2161.49 766.766 L2158.65 766.21 Q2153.42 765.168 2151.08 762.946 Q2148.74 760.724 2148.74 756.766 Q2148.74 752.182 2151.96 749.543 Q2155.2 746.905 2160.87 746.905 Q2163.3 746.905 2165.82 747.344 Q2168.35 747.784 2170.98 748.664 Z" fill="#000000" fill-rule="nonzero" fill-opacity="1" /><path clip-path="url(#clip060)" d="M2190.96 784.497 Q2189.16 789.127 2187.44 790.539 Q2185.73 791.951 2182.86 791.951 L2179.46 791.951 L2179.46 788.386 L2181.96 788.386 Q2183.72 788.386 2184.69 787.553 Q2185.66 786.719 2186.84 783.617 L2187.6 781.673 L2177.12 756.164 L2181.63 756.164 L2189.73 776.441 L2197.84 756.164 L2202.35 756.164 L2190.96 784.497 Z" fill="#000000" fill-rule="nonzero" fill-opacity="1" /><path clip-path="url(#clip060)" d="M2228.41 761.141 Q2230.01 758.27 2232.23 756.905 Q2234.46 755.539 2237.47 755.539 Q2241.52 755.539 2243.72 758.386 Q2245.91 761.21 2245.91 766.442 L2245.91 782.09 L2241.63 782.09 L2241.63 766.58 Q2241.63 762.854 2240.31 761.048 Q2238.99 759.242 2236.29 759.242 Q2232.97 759.242 2231.05 761.442 Q2229.13 763.641 2229.13 767.437 L2229.13 782.09 L2224.85 782.09 L2224.85 766.58 Q2224.85 762.83 2223.53 761.048 Q2222.21 759.242 2219.46 759.242 Q2216.19 759.242 2214.27 761.465 Q2212.35 763.664 2212.35 767.437 L2212.35 782.09 L2208.07 782.09 L2208.07 756.164 L2212.35 756.164 L2212.35 760.192 Q2213.81 757.807 2215.85 756.673 Q2217.88 755.539 2220.68 755.539 Q2223.51 755.539 2225.47 756.974 Q2227.47 758.409 2228.41 761.141 Z" fill="#000000" fill-rule="nonzero" fill-opacity="1" /><polyline clip-path="url(#clip060)" style="stroke:#bc272d; stroke-linecap:round; stroke-linejoin:round; stroke-width:8; stroke-opacity:1; fill:none" points="1988.1,816.65 2125.79,816.65 "/>
<path clip-path="url(#clip060)" d="M2056.94 795.401 L2051.95 809.765 L2036.74 810.084 L2048.87 819.284 L2044.45 833.84 L2056.94 825.149 L2069.44 833.84 L2065.02 819.284 L2077.15 810.084 L2061.94 809.765 L2056.94 795.401 Z" fill="#bc272d" fill-rule="evenodd" fill-opacity="1" stroke="#000000" stroke-opacity="1" stroke-width="2.73067"/>
<path clip-path="url(#clip060)" d="M2148.74 799.37 L2168.6 799.37 L2168.6 803.305 L2153.42 803.305 L2153.42 813.49 L2167.12 813.49 L2167.12 817.425 L2153.42 817.425 L2153.42 833.93 L2148.74 833.93 L2148.74 799.37 Z" fill="#000000" fill-rule="nonzero" fill-opacity="1" /><path clip-path="url(#clip060)" d="M2175.82 797.911 L2180.08 797.911 L2180.08 833.93 L2175.82 833.93 L2175.82 797.911 Z" fill="#000000" fill-rule="nonzero" fill-opacity="1" /><path clip-path="url(#clip060)" d="M2200.78 820.897 Q2195.61 820.897 2193.62 822.078 Q2191.63 823.258 2191.63 826.106 Q2191.63 828.374 2193.11 829.717 Q2194.62 831.036 2197.19 831.036 Q2200.73 831.036 2202.86 828.536 Q2205.01 826.013 2205.01 821.846 L2205.01 820.897 L2200.78 820.897 M2209.27 819.138 L2209.27 833.93 L2205.01 833.93 L2205.01 829.994 Q2203.55 832.356 2201.38 833.49 Q2199.2 834.601 2196.05 834.601 Q2192.07 834.601 2189.71 832.379 Q2187.37 830.133 2187.37 826.383 Q2187.37 822.008 2190.29 819.786 Q2193.23 817.564 2199.04 817.564 L2205.01 817.564 L2205.01 817.147 Q2205.01 814.207 2203.07 812.61 Q2201.15 810.99 2197.65 810.99 Q2195.43 810.99 2193.32 811.522 Q2191.22 812.055 2189.27 813.12 L2189.27 809.184 Q2191.61 808.282 2193.81 807.842 Q2196.01 807.379 2198.09 807.379 Q2203.72 807.379 2206.49 810.295 Q2209.27 813.212 2209.27 819.138 Z" fill="#000000" fill-rule="nonzero" fill-opacity="1" /><path clip-path="url(#clip060)" d="M2222.26 800.643 L2222.26 808.004 L2231.03 808.004 L2231.03 811.314 L2222.26 811.314 L2222.26 825.388 Q2222.26 828.559 2223.11 829.462 Q2223.99 830.365 2226.66 830.365 L2231.03 830.365 L2231.03 833.93 L2226.66 833.93 Q2221.72 833.93 2219.85 832.101 Q2217.97 830.249 2217.97 825.388 L2217.97 811.314 L2214.85 811.314 L2214.85 808.004 L2217.97 808.004 L2217.97 800.643 L2222.26 800.643 Z" fill="#000000" fill-rule="nonzero" fill-opacity="1" /><polyline clip-path="url(#clip060)" style="stroke:#e9c716; stroke-linecap:round; stroke-linejoin:round; stroke-width:8; stroke-opacity:1; fill:none" points="1988.1,868.49 2125.79,868.49 "/>
<path clip-path="url(#clip060)" d="M2056.94 847.241 L2035.7 889.738 L2078.19 889.738 L2056.94 847.241 Z" fill="#e9c716" fill-rule="evenodd" fill-opacity="1" stroke="#000000" stroke-opacity="1" stroke-width="2.73067"/>
<path clip-path="url(#clip060)" d="M2153.42 855.052 L2153.42 868.038 L2159.29 868.038 Q2162.56 868.038 2164.34 866.348 Q2166.12 864.659 2166.12 861.534 Q2166.12 858.432 2164.34 856.742 Q2162.56 855.052 2159.29 855.052 L2153.42 855.052 M2148.74 851.21 L2159.29 851.21 Q2165.1 851.21 2168.07 853.848 Q2171.05 856.464 2171.05 861.534 Q2171.05 866.649 2168.07 869.265 Q2165.1 871.881 2159.29 871.881 L2153.42 871.881 L2153.42 885.77 L2148.74 885.77 L2148.74 851.21 Z" fill="#000000" fill-rule="nonzero" fill-opacity="1" /><path clip-path="url(#clip060)" d="M2197.63 871.742 L2197.63 873.825 L2178.04 873.825 Q2178.32 878.223 2180.68 880.538 Q2183.07 882.83 2187.3 882.83 Q2189.76 882.83 2192.05 882.228 Q2194.36 881.626 2196.63 880.422 L2196.63 884.45 Q2194.34 885.422 2191.93 885.932 Q2189.53 886.441 2187.05 886.441 Q2180.85 886.441 2177.21 882.83 Q2173.6 879.219 2173.6 873.061 Q2173.6 866.696 2177.03 862.969 Q2180.48 859.219 2186.31 859.219 Q2191.54 859.219 2194.57 862.598 Q2197.63 865.955 2197.63 871.742 M2193.37 870.492 Q2193.32 866.997 2191.4 864.913 Q2189.5 862.83 2186.35 862.83 Q2182.79 862.83 2180.64 864.844 Q2178.51 866.858 2178.18 870.515 L2193.37 870.492 Z" fill="#000000" fill-rule="nonzero" fill-opacity="1" /><path clip-path="url(#clip060)" d="M2219.64 863.825 Q2218.92 863.409 2218.07 863.223 Q2217.23 863.015 2216.22 863.015 Q2212.6 863.015 2210.66 865.376 Q2208.74 867.714 2208.74 872.112 L2208.74 885.77 L2204.46 885.77 L2204.46 859.844 L2208.74 859.844 L2208.74 863.872 Q2210.08 861.51 2212.23 860.376 Q2214.39 859.219 2217.47 859.219 Q2217.91 859.219 2218.44 859.288 Q2218.97 859.335 2219.62 859.45 L2219.64 863.825 Z" fill="#000000" fill-rule="nonzero" fill-opacity="1" /><path clip-path="url(#clip060)" d="M2243.46 864.821 Q2245.06 861.95 2247.28 860.585 Q2249.5 859.219 2252.51 859.219 Q2256.56 859.219 2258.76 862.066 Q2260.96 864.89 2260.96 870.122 L2260.96 885.77 L2256.68 885.77 L2256.68 870.26 Q2256.68 866.534 2255.36 864.728 Q2254.04 862.922 2251.33 862.922 Q2248.02 862.922 2246.1 865.122 Q2244.18 867.321 2244.18 871.117 L2244.18 885.77 L2239.9 885.77 L2239.9 870.26 Q2239.9 866.51 2238.58 864.728 Q2237.26 862.922 2234.5 862.922 Q2231.24 862.922 2229.32 865.145 Q2227.4 867.344 2227.4 871.117 L2227.4 885.77 L2223.11 885.77 L2223.11 859.844 L2227.4 859.844 L2227.4 863.872 Q2228.85 861.487 2230.89 860.353 Q2232.93 859.219 2235.73 859.219 Q2238.55 859.219 2240.52 860.654 Q2242.51 862.089 2243.46 864.821 Z" fill="#000000" fill-rule="nonzero" fill-opacity="1" /></svg>
